<?xml version="1.0" encoding="UTF-8" standalone="no"?>
<!-- Created with the Eggbot TSP art toolkit (http://egg-bot.com) -->

<svg xmlns="http://www.w3.org/2000/svg"
     xmlns:inkscape="http://www.inkscape.org/namespaces/inkscape"
     xmlns:sodipodi="http://sodipodi.sourceforge.net/DTD/sodipodi-0.dtd"
     xmlns:rdf="http://www.w3.org/1999/02/22-rdf-syntax-ns#"
     xmlns:dc="http://purl.org/dc/elements/1.1/"
     xmlns:cc="http://creativecommons.org/ns#"
     height="800"
     width="3200">
  <sodipodi:namedview
            showgrid="false"
            showborder="true"
            inkscape:showpageshadow="false"/>
  <metadata>
    <rdf:RDF>
      <cc:Work rdf:about="">
        <dc:format>image/svg+xml</dc:format>
        <dc:type rdf:resource="http://purl.org/dc/dcmitype/StillImage" />
        <dc:subject>
          <rdf:Bag>
            <rdf:li>Egg-Bot</rdf:li>
            <rdf:li>Eggbot</rdf:li>
            <rdf:li>TSP</rdf:li>
            <rdf:li>TSP art</rdf:li>
          </rdf:Bag>
        </dc:subject>
        <dc:description>TSP art created with the Eggbot TSP art toolkit (http://egg-bot.com)</dc:description>
      </cc:Work>
    </rdf:RDF>
  </metadata>
  <g      transform="translate(1229, 504) scale(1, -1)">
    <path style="fill:none;stroke:#000000;stroke-width:1"
          d="m 189,204 1,-2 -2,-1 1,-1 1,-2 2,0 -1,-2 -2,0 -2,1 1,-2 2,-1 -1,-2 -1,1 -1,-2 0,-2 -1,-2 2,0 -1,-2 1,-2 1,2 1,-1 1,2 -1,2 -1,2 2,0 1,2 1,2 0,1 1,2 1,2 -2,1 -1,1 1,1 2,0 2,0 0,-2 1,-2 0,-2 -2,1 0,-2 -1,-2 -1,-2 2,-1 2,-1 -1,-2 -2,1 -2,1 0,-1 1,-2 -1,-1 -1,-2 2,0 2,0 0,2 2,-1 1,2 1,2 2,-1 1,2 -2,1 1,2 -2,0 -1,-1 -2,1 1,2 2,0 1,2 -1,2 2,0 1,2 0,2 2,0 2,0 -1,-2 0,-2 -2,0 0,-2 -1,-1 1,-1 2,0 -1,-2 -1,-1 1,-2 2,1 1,2 0,1 1,2 -2,1 1,2 2,-1 1,-2 1,2 2,1 1,-2 -2,-1 0,-2 2,-1 -1,-2 -1,-2 -1,1 0,2 -1,2 -1,-2 -1,-2 0,-1 2,-1 1,-1 2,-1 1,-2 2,1 2,-1 1,-1 -1,-2 2,-1 -1,-2 2,0 2,-1 -2,-1 1,-1 -1,-2 -1,1 -2,1 0,1 -2,1 1,2 -1,1 0,2 -2,0 -1,-2 1,-2 -2,0 -2,1 1,2 0,1 1,2 -2,1 -1,-2 -1,2 -2,1 1,1 -2,1 -2,0 0,-2 0,-1 2,-1 1,-1 0,-2 2,0 0,-2 -1,-1 -1,-2 2,-1 1,2 2,-1 0,-1 -1,-2 -2,0 -1,-1 -2,1 0,1 -2,0 -1,2 1,2 1,-1 1,2 -2,1 0,2 -2,0 0,2 -1,2 -1,-2 -1,-2 0,-1 2,-1 1,-1 -1,-2 -2,1 0,-2 1,-1 2,-1 -1,-2 -2,1 -2,0 1,-2 2,-1 2,-1 2,0 -1,2 2,0 2,-1 -1,-2 2,-1 -1,-2 -2,1 -2,1 -1,-1 -2,1 -1,1 -2,1 -1,-2 2,-1 1,-1 -2,-1 -1,-2 2,0 0,-1 2,-1 1,2 0,2 2,0 2,0 1,-1 2,-1 1,2 1,2 1,-1 2,0 2,-1 2,1 -1,1 1,2 1,2 -2,1 -1,-2 -1,-2 -1,1 -2,0 -2,1 1,2 2,-1 2,1 -1,1 1,2 1,2 1,-2 1,-1 2,-1 2,-1 2,-1 1,2 2,-1 -1,-1 0,-2 0,-1 -1,-2 0,-2 -1,-2 -2,1 1,2 0,2 0,2 -2,1 -1,-2 1,-1 -1,-2 0,-1 -1,-2 2,-1 2,-1 -1,-2 -2,0 0,1 -2,1 -1,-2 -1,1 0,2 1,2 -2,0 -2,1 -2,-1 1,-1 2,-1 -1,-2 -2,1 -1,-1 -2,1 0,1 -2,1 -2,0 -1,-2 2,0 -1,-2 -1,-1 1,-1 1,-2 -1,-1 -2,1 -1,-2 -2,1 1,1 0,2 -1,1 2,1 -1,1 -2,1 -2,0 1,-2 -1,-1 0,-2 1,-1 -2,-1 1,-1 -1,-2 -1,-2 -1,-2 2,-1 2,1 -1,1 1,2 1,2 2,-1 -1,-2 0,-2 2,0 1,2 0,1 1,2 2,0 2,1 2,-1 0,-1 -2,-1 -2,0 -1,-2 0,-1 -1,-2 -2,0 1,-2 -1,-1 -2,1 -1,2 -2,-1 -3,0 0,-1 2,-1 2,0 1,-1 2,-1 -1,-2 -2,1 -2,0 -1,1 -2,0 1,-3 -2,-1 1,-1 -1,-2 2,-1 1,2 1,2 1,1 2,-1 0,-2 -2,0 0,-2 -1,-2 2,0 -1,-2 -1,-2 -1,-2 -2,1 1,2 0,1 0,2 -2,0 -1,-2 0,-2 0,-2 1,-1 2,-1 0,-1 2,0 2,-1 1,2 -2,1 1,2 1,2 1,2 2,-1 1,2 -2,1 -1,1 1,1 1,2 0,1 0,2 2,0 -1,2 2,1 2,-1 0,-1 -1,-2 -1,-1 1,-2 0,-1 -2,1 0,-2 1,-2 0,-1 -1,-2 -1,-2 -2,1 -1,-2"/>
    <path style="fill:none;stroke:#000000;stroke-width:1"
          d="m 198,121 1,-1 2,0 -1,-2 -2,-1 0,-2 2,1 2,0 -1,-2 -2,-1 0,-2 2,-1 1,2 2,0 0,-2 -1,-1 1,-2 -2,0 1,-2 -2,0 1,-2 2,-1 1,2 1,2 2,-1 2,-1 0,1 -1,2 2,1 -1,1 -2,1 -1,-2 -1,2 1,2 0,2 -2,0 -1,1 1,1 0,2 -2,0 0,2 1,2 0,1 1,2 1,2 1,-2 2,-1 -2,-1 1,-1 -2,-1 1,-1 0,-2 1,-2 1,2 1,2 2,-1 -1,-2 -1,-2 0,-1 -1,-2 2,-1 1,-1 2,-1 1,1 -1,2 -2,1 1,2 0,2 2,1 1,-2 -1,-2 1,-2 1,2 1,2 1,2 -1,1 -2,1 -2,0 -1,1 -2,1 0,1 1,2 1,2 1,1 2,-1 1,2 -2,1 -2,0 0,2 1,2 1,2 1,2 -2,1 -1,-2 -1,-2 -1,-2 -1,-2 1,-1 0,-2 -1,-2 -2,1 0,2 -2,0 1,2 1,1 -2,1 1,2 2,-1 1,2 0,1 -2,0 0,2 -1,2 -1,-2 -2,1 0,1 1,2 1,2 1,-2 1,2 1,-2 2,0 -1,-2 0,-1 2,-1 1,2 0,2 2,0 0,2 1,2 -2,1 -1,-2 -1,1 -1,-2 -1,2 1,2 0,2 -1,2 -1,-2 -2,1 0,1 -2,1 1,2 2,-1 2,0 2,0 1,-1 0,-2 0,-2 2,0 1,2 -1,2 2,0 2,-1 1,1 1,-2 1,-2 0,-2 2,0 1,2 0,1 -2,1 1,2 -1,1 2,1 -1,1 1,2 1,2 1,1 0,2 0,1 1,2 0,2 1,2 -2,1 -2,1 1,2 2,-1 2,-1 1,-1 0,-2 -1,-2 0,-2 0,-2 -1,-2 0,-2 -2,-1 1,-1 0,-2 -1,-1 -1,-2 2,0 0,-2 -1,-2 -1,-2 1,-2 -2,0 -2,1 -1,-2 -2,0 0,2 0,2 -1,2 -1,1 -1,-2 1,-2 0,-2 -1,-2 1,-1 -2,-1 1,-1 2,-1 2,0 -1,2 1,1 2,-1 1,2 2,-1 -1,-2 -2,-1 2,-1 0,-2 -2,0 -2,1 0,-2 2,-1 2,-1 -1,-2 -2,1 -2,0 -1,1 0,2 -1,2 -1,-2 -1,-2 0,-1 2,-1 1,-2 1,-1 1,2 2,-1 -1,-2 1,-1 -2,-1 -2,1 -1,-2 -2,1 -2,0 0,-2 2,0 1,-1 2,-1 1,2 2,0 -1,-2 1,-1 -1,-2 0,-2 -1,-1 1,-2 -2,0 -1,-2 2,-1 -1,-2 -2,1 0,-2 2,-1 0,-2 -1,-1 -2,1 0,1 -1,2 -2,0 0,-2 -1,-2 1,-1 -2,-1 -1,-2 -1,-2 0,-1 2,-1 -1,-2 -2,1 -1,-2 -1,-2 1,-1 -1,-2 1,-2 0,-1 -2,1 -2,1 1,2 -1,1 1,2 1,2 1,2 0,2 1,1 1,2 1,2 -2,1 -1,-2 -1,-2 -2,1 -1,-2 2,-1 -1,-2 0,-1 -1,-2 -2,0 1,-2 -1,-1 1,-2 0,-2 1,-1 -1,-2 2,-1 1,2 2,-1 -1,-2 0,-2 2,0 -1,-2 -1,-2 -2,0 0,2 -2,-1 -1,-2 1,-1 2,-1 1,1 2,0 -1,-2 -1,-2 -2,1 -2,1 -2,0 -1,2 1,2 0,1 -1,2 -1,2 2,0 1,-1 2,-1 2,1 -1,1 -2,1 -1,2 -2,-1 -1,2 2,1 0,1 1,2 -2,1 1,2 -1,2 -1,-2 -1,2 -1,1 -2,0 -1,-2 2,-1 -1,-1 -1,-2 -2,1 0,1 -2,0 -2,1 1,2 2,-1 1,1 1,2 -2,0 -1,1 1,2 1,1 2,-1 0,-1 2,-1 1,2 1,-1 2,-1 1,-1 2,0 1,2 -1,1 -2,0 1,2 2,1 0,1 -2,1 0,1 -2,0 -1,-2 1,-1 -1,-2 -2,1 -2,0 -2,1 -2,0 -1,1"/>
    <path style="fill:none;stroke:#000000;stroke-width:1"
          d="m 187,101 2,2 2,0 0,-1 2,-1 1,2 1,1 -2,1 1,2 1,1 1,-2 2,-1 1,1 1,2 -2,0 0,1 -2,1 0,1 1,2 -2,0 0,2 -2,1 -1,-1 -2,1 -1,2 -1,-1 0,-2 1,-1 -1,-2 -2,-1 1,-1 -1,-2 2,-1 1,2 1,2 1,2 2,0 0,-2 0,-2 -2,0 0,-2 0,-1 -2,-1 -2,0 -2,0 1,-2 -1,-2 0,-2 1,-1 -1,-2 -2,-1 1,-1 0,-2 -1,-2 1,-2 -2,-1 1,-1 -1,-2 2,-1 2,-1 1,2 -2,1 1,2 2,-1 2,-1 -1,-2 0,-1 -1,-2 -2,0 1,-2 -1,-1 -2,1 0,2 -1,1 -2,1 0,-3 0,-2 2,-1 -1,-2 -2,1 0,-1 1,-2 -1,-1 -2,1 -1,2 -2,0 1,-2 -1,-2 -2,-1 -1,2 1,1 0,2 -2,0 -2,0 1,-2 -1,-2 2,-1 -1,-2 0,-1 -1,-2 1,-2 -1,-1 -2,1 0,2 -1,1 1,2 1,1 -1,2 -1,1 1,1 0,2 -3,1 1,-1 -1,-2 -1,-2 0,-2 2,0 -1,-2 -2,-1 1,-1 2,-1 -1,-2 2,-1 2,-1 -1,-2 -2,1 -2,1 -2,1 1,2 -2,1 0,2 -2,0 -2,1 -1,1 2,1 2,-1 2,0 -1,2 1,2 1,1 -1,2 -1,1 -2,-2 1,-1 -1,-2 -2,0 -1,1 1,2 1,2 -2,1 -1,1 1,2 0,2 -2,1 0,1 1,2 -2,1 1,2 -1,2 -1,2 0,2 -1,2 0,2 -1,2 -1,-1 -2,1 -2,0 -1,1 1,2 -2,1 -2,0 1,-2 -1,-1 -1,-2 0,-1 -1,-2 -2,0 0,2 -2,0 -1,-2 1,-2 2,-1 1,1 1,-2 -1,-2 -2,1 -2,1 -2,0 0,1 0,2 -2,0 1,2 2,1 -1,1 0,2 -2,0 -1,-2 0,-1 -1,-2 -1,-2 -2,1 1,2 1,2 -2,0 1,2 1,2 1,-1 1,2 2,-1 1,1 2,-1 2,0 -1,-2 1,-1 2,0 1,2 -1,1 0,2 0,2 -1,2 1,2 -2,1 -1,-1 -1,-2 0,-1 2,-1 -1,-2 -2,1 -2,0 -1,1 1,2 1,1 1,2 -2,0 -2,1 -2,1 0,1 1,2 1,2 1,2 2,-1 2,-1 2,-1 -1,-2 -2,1 -2,1 -1,-1 0,-2 2,0 1,-1 2,0 2,0 1,2 0,1 1,2 -2,1 1,2 2,-1 1,-2 0,-2 2,0 1,-1 1,-2 -1,-2 -1,1 -1,1 -2,1 -1,-2 1,-1 1,-2 -2,-1 1,-2 1,-1 1,2 1,2 2,-1 0,-1 -1,-2 2,-1 1,-1 1,-2 2,0 -1,2 0,2 -2,1 1,1 0,2 -2,1 1,1 0,2 -1,2 0,2 -1,2 -2,-1 0,2 0,2 2,0 -1,2 -1,2 0,2 -2,0 1,2 1,2 -2,1 0,2 -1,1 1,2 -1,2 -1,2 -1,-2 0,-2 0,-1 -2,-1 -1,-2 2,0 0,-2 2,1 1,-2 -1,-2 -1,1 -2,0 -1,-2 1,-1 2,0 2,-1 0,-1 2,-1 -1,-2 -2,1 -1,1 -2,1 -2,-1 1,-1 1,-2 -1,-1 -2,1 -2,1 1,2 1,2 0,2 -2,0 -2,1 -2,0 -1,1 -2,0 -1,-2 -1,-2 0,-2 1,-1 1,2 1,2 2,-1 1,1 2,-1 0,-1 -1,-2 -1,-2 -1,2 -1,1 -1,-2 1,-2 1,-1 -1,-2 -1,-2 -1,-2 -1,2 0,2 0,1 1,2 -2,1 -1,-1 -1,2 0,2 -2,0 -1,-2 -1,-2 2,0 0,-1 2,-1 1,-2 0,-2 0,-2 1,-1 0,-2 0,-2 -2,-1 0,2 -1,2 -1,-2 -2,1 0,1 -2,1 -1,1 0,2 2,-1 2,-1 2,0 -1,2 1,2 -2,1 -1,-2 -2,1"/>
    <path style="fill:none;stroke:#000000;stroke-width:1"
          d="m 113,117 1,2 -2,1 1,2 -1,1 2,1 1,2 1,2 2,-1 1,1 -1,2 2,0 1,2 0,1 1,2 2,0 0,-2 2,1 2,-1 1,-1 2,-1 2,1 0,1 -2,1 0,1 -2,0 1,2 1,1 2,-1 1,2 -2,1 1,2 2,-1 1,2 1,2 1,2 0,2 -2,1 0,2 -2,1 -1,-2 1,-1 1,-2 -1,-1 1,-1 -1,-2 -2,0 -1,2 1,2 -1,1 -2,0 -1,-2 1,-1 1,-2 -1,-1 1,-1 0,-2 -2,0 0,-2 -1,-2 -1,1 0,2 -2,0 -1,-2 -2,1 -2,0 1,-2 -1,-2 -1,-2 -2,1 -1,-2 1,-1 -2,-1 -1,-2 -1,-2 -2,1 0,1 1,2 1,1 1,2 0,1 -2,1 0,1 -1,2 -1,-2 -2,1 -1,-1 1,-2 1,-1 2,0 -1,-2 -3,0 2,-2 -1,-1 1,-2 0,-2 2,0 -1,-2 1,-1 1,-2 -3,0 2,-2 -1,-1 1,-2 0,-2 2,-1 -2,-1 1,-1 -1,-2 -2,1 -2,1 -1,-1 -2,1 -1,-2 -2,0 0,2 -1,-1 -2,1 -1,-2 -2,0 0,2 -1,-1 -2,1 -1,-2 -1,-2 -1,2 0,2 -1,-1 -2,1 -1,-2 -1,2 -2,0 0,-2 -1,-1 -2,1 1,2 -2,0 -2,0 1,-2 -1,-1 -2,1 0,2 -1,1 -1,-3 -2,1 0,2 -2,0 1,2 1,2 1,1 -1,2 2,0 0,2 0,1 -2,1 -1,-2 -1,-2 -2,1 1,2 0,2 1,1 1,2 2,-1 0,-1 2,-1 2,-2 0,2 -1,2 2,0 1,2 1,2 1,1 1,2 -2,0 -1,1 -2,0 -1,-2 2,-1 -1,-2 -1,-1 -1,2 -1,-2 -2,1 1,2 1,2 1,2 0,1 1,2 1,2 -2,1 -1,1 -2,0 1,2 2,1 2,0 -1,-2 2,-1 1,2 2,-1 -1,-2 2,-1 -1,-2 -2,1 -1,-1 0,-2 2,0 2,-1 2,0 -1,2 1,2 2,-1 1,2 1,2 -2,1 -1,-2 -2,1 1,2 -2,1 -2,1 -2,1 -1,2 2,0 2,-1 1,1 -1,2 -2,0 -1,1 1,2 2,0 1,-1 1,2 2,-1 1,-1 -2,-1 1,-1 -1,-2 -1,-2 2,-1 2,-1 2,-1 1,1 -1,2 -2,0 -1,1 1,2 1,2 0,2 0,2 -1,2 -1,-2 -2,1 0,1 -2,1 1,2 -1,1 2,1 -1,2 1,2 2,-1 0,-1 1,-2 -1,-1 -1,-2 2,0 2,1 0,-2 1,-2 1,2 1,2 2,1 1,2 1,2 2,-1 -1,-2 -1,-2 -2,-1 1,-1 -2,-1 1,-1 -1,-2 -2,0 -1,-2 2,0 -1,-2 -2,-1 1,-1 2,-1 1,2 1,2 1,2 1,2 1,2 1,2 1,2 2,1 -1,1 1,2 1,2 1,1 0,2 1,2 2,-1 0,-1 -1,-2 -1,-2 0,-2 1,-2 1,2 1,2 1,2 0,1 1,2 0,2 2,0 0,-2 1,-1 -1,-2 0,-2 -2,0 0,-2 -1,-1 1,-1 2,0 1,2 2,-1 0,-1 1,-2 -1,-1 -2,1 -1,-2 -1,2 -1,-1 -2,1 -2,0 1,-2 -1,-2 2,-1 1,2 2,-1 -1,-2 -1,-2 -2,1 0,-2 1,-1 2,-1 0,-2 -2,0 1,-2 0,-2 1,-1 -1,-2 3,0 0,1 1,2 -2,1 1,2 2,-1 1,2 -2,1 0,1 0,2 -2,0 1,2 2,1 -1,1 1,2 2,0 0,-1 2,-1 1,-1 1,2 -1,1 1,2 -2,0 1,2 -2,1 1,2 1,2 1,2 2,-1 -1,-2 1,-1 -2,-1 2,-1 0,-2 0,-2 1,-2 -1,-1 -1,-2 -1,-2 -2,1 -2,1 -1,-2 1,-2 1,1 2,-1 1,-1 -1,-2 -2,1 0,-2 1,-1 -1,-2"/>
    <path style="fill:none;stroke:#000000;stroke-width:1"
          d="m 113,140 -2,1 0,-2 1,-1 2,-1 0,-2 2,0 2,1 -2,1 1,2 -2,0 1,2 1,2 1,2 1,1 -1,2 1,2 2,0 -1,-2 2,-1 -1,-2 0,-2 -2,0 0,-2 2,0 1,-1 1,2 2,-1 1,1 1,2 -2,0 -1,1 1,1 1,2 -2,0 -1,1 1,2 -2,1 -1,1 2,1 -1,1 -2,1 1,2 2,-1 1,2 1,-1 0,-2 2,0 -1,-2 -1,-1 1,-2 1,-1 1,2 2,-1 1,1 1,2 -2,0 -1,1 1,1 0,2 -2,0 1,2 -2,0 -2,1 1,2 2,0 1,-1 2,0 1,-2 0,-2 1,-2 2,-1 1,2 -2,1 0,2 -1,2 0,2 -2,0 1,2 -2,0 0,2 2,0 -1,2 -2,0 -2,0 -2,1 1,2 1,2 1,-1 1,-2 2,0 -1,2 0,2 -2,1 1,1 0,2 -2,0 -2,-1 1,-1 -1,-2 -1,-2 -1,-2 -1,2 -2,-1 0,-2 2,-1 -2,-1 1,-1 2,-1 1,2 1,-1 2,0 1,-2 -1,-1 -2,1 -2,-1 1,-1 -1,-2 -1,-2 -2,0 1,2 -1,2 0,1 -1,2 -2,1 0,1 1,2 -1,2 -1,-2 -2,1 -1,-1 1,-2 0,-2 -1,-2 -1,-2 -2,1 1,2 0,1 1,2 -2,1 1,2 0,1 1,2 2,0 1,-1 1,2 2,-1 2,0 2,1 0,1 1,2 -2,1 -1,-1 -1,-2 -2,1 1,2 -1,1 2,1 1,2 2,-1 0,-1 2,-1 1,2 1,-1 2,0 0,2 -1,2 0,2 -1,2 -2,0 1,-2 -1,-1 1,-2 -2,0 -2,1 -1,2 2,0 0,2 -1,1 -3,-1 -1,1 -1,-2 2,-1 0,-2 0,-2 -2,-1 -1,-2 -2,1 0,1 1,2 2,0 -1,2 -2,1 1,2 -1,1 -3,0 0,-2 1,-1 1,-2 -1,-2 -1,2 -2,0 -1,1 1,2 -1,2 -1,-2 -2,1 0,1 -3,0 1,-2 -2,0 -1,-2 0,-1 2,-1 1,2 2,0 0,-1 2,-1 2,-1 0,-2 2,0 0,-2 2,0 2,-1 1,-1 -2,-1 -2,1 -2,0 1,-2 -1,-2 -2,-1 -1,2 1,1 0,2 0,2 -1,1 -2,0 1,2 -2,1 -1,-2 -1,-1 -1,2 -2,1 -1,-1 -1,-2 2,0 0,-1 2,-1 0,-1 2,-1 1,2 2,-1 -1,-2 -1,-2 2,-1 -1,-2 -2,1 -2,0 0,1 1,2 -2,1 -1,-2 -1,1 0,2 -1,2 -1,-2 -1,-2 1,-2 2,-1 1,-2 -1,-1 1,-1 -1,-2 -1,-2 -2,1 1,1 -1,2 1,2 -1,1 -2,0 1,2 -2,1 -1,-2 -1,-2 -1,-2 2,-1 1,2 1,-1 0,-2 -1,-2 -1,-2 -1,-2 -2,0 0,1 -2,1 1,2 2,-1 1,2 -2,1 -2,1 -1,-2 -2,1 0,1 1,2 2,0 2,1 0,1 1,2 0,2 -1,2 -2,1 0,1 1,2 1,2 1,-2 2,-1 -2,-1 1,-1 1,-2 2,0 1,2 -1,1 1,1 1,2 -2,0 -1,1 -2,1 -1,1 2,1 2,-1 2,0 1,-1 1,2 1,2 -1,1 2,1 0,1 -3,0 -2,0 1,-2 -1,-2 -2,1 0,1 0,2 -2,0 -1,-2 0,-2 -2,0 -1,-2 0,-1 -1,-2 -2,0 1,-2 -2,-1 -1,-2 2,0 1,-2 1,1 2,-1 -1,-2 0,-1 -2,-1 -1,2 -2,1 0,1 -2,0 -1,-2 -1,-2 2,-1 1,2 2,-1 -1,-2 0,-1 -2,-1 0,-2 1,-1 -2,-1 -2,1 0,1 1,2 0,2 -2,0 -1,-2 0,-1 -1,-2 -2,-1 1,-1 -1,-2 -2,0 1,-2 2,-1 0,-1 2,-1 1,2 0,2 -2,0 1,2 1,1 2,-1 2,0 -1,-2 -1,-2"/>
    <path style="fill:none;stroke:#000000;stroke-width:1"
          d="m 76,157 1,-1 1,-2 -1,-1 -2,1 -1,-2 -2,1 -1,-2 0,-1 2,0 -1,-2 -1,-1 1,-1 0,-2 -2,1 -2,1 1,2 -2,1 1,2 1,1 1,2 -2,0 0,2 -2,1 -1,-2 1,-1 0,-2 -1,-2 -1,2 -2,-1 -1,-2 2,0 1,-1 2,-1 -1,-2 2,-1 2,-1 -1,-2 -2,1 -2,0 0,1 -2,1 1,2 -2,1 -3,-1 2,-1 -1,-2 -2,0 -1,-2 0,-1 -1,-2 -2,-1 1,-1 -1,-2 -2,0 1,-2 -1,-2 -2,1 -1,-2 1,-1 0,-2 -2,1 -1,-2 0,-2 -2,0 -1,-2 2,0 -1,-2 -3,0 0,-1 2,-1 1,-1 2,0 -1,-2 -2,-1 -1,-2 -1,2 1,2 -2,1 -1,-2 -1,-1 -1,-2 2,0 0,-1 2,-1 0,-1 -1,-2 2,-1 -1,-2 0,-1 -1,-2 2,-1 1,2 1,-2 0,-2 1,-1 1,2 2,-1 -1,-2 -1,-2 1,-2 2,1 0,1 0,2 2,0 0,2 0,2 2,0 0,2 -2,1 -1,-1 -1,-2 -2,1 0,1 -2,1 -1,1 0,2 -1,2 2,0 -1,2 0,2 2,-1 2,-1 0,-1 -1,-2 -1,-2 2,-1 2,1 -1,1 1,2 1,1 2,-1 0,-1 -1,-2 2,-1 1,2 1,-2 0,-2 0,-1 2,-1 1,2 1,1 -2,1 1,2 1,2 2,1 -1,1 -2,1 -1,-2 -1,-2 -1,1 0,2 1,2 -2,0 -1,-2 -2,1 -1,1 -1,2 -1,-2 -2,1 0,1 1,2 1,1 1,2 -2,0 -2,0 1,2 1,2 1,2 2,0 0,-2 -1,-1 1,-1 2,-1 2,1 0,1 -2,1 1,2 0,1 -2,1 -1,2 2,0 2,-1 2,0 0,-2 -1,-2 2,0 0,-2 -1,-2 1,-1 -1,-2 -2,0 -1,1 -2,0 -1,-2 1,-1 1,-2 1,2 2,-1 1,1 2,0 1,-2 2,-1 1,2 -2,1 -1,2 0,2 1,2 -1,1 0,2 2,-1 1,2 1,2 1,2 1,2 1,2 -1,1 1,1 -2,1 -1,-2 -2,1 0,1 -2,1 -1,-2 -2,-1 1,-1 2,-1 1,1 2,-1 1,-1 -2,-1 -1,-2 1,-1 -2,-1 -1,2 0,2 -2,1 -1,-1 -2,1 0,1 1,2 1,2 2,1 -1,1 1,2 1,2 2,1 1,-2 -2,-1 1,-1 2,-1 2,0 -1,2 1,1 2,-1 1,-2 1,-1 2,0 -1,-2 -1,-2 0,-2 -1,-1 -1,-2 -1,-2 -1,-2 -1,-2 -1,-2 0,-1 -1,-2 2,-1 1,-1 2,0 -1,-2 -2,-1 1,-1 -1,-2 2,-1 0,-1 -1,-2 -1,1 -2,1 -1,-2 1,-2 2,0 -1,-2 2,-1 2,1 -1,1 2,1 -1,1 1,2 2,-1 2,0 2,-1 -1,-2 -2,1 -1,-1 -1,-2 2,0 0,-1 -1,-2 -2,0 -2,1 -2,0 -2,1 -2,1 -1,-2 2,-1 -1,-2 -1,1 -1,-2 0,-2 1,-1 1,-2 -1,-1 -1,-2 -2,1 1,2 -1,1 0,2 -2,0 0,2 2,1 0,1 1,2 -2,1 -1,-1 -1,-2 -1,-2 -1,-2 0,-1 -1,-2 2,-1 1,2 1,-2 0,-2 1,-1 -2,-1 -2,1 0,1 -2,1 -1,2 -1,1 -1,-2 1,-2 -2,0 -2,1 1,2 0,1 1,2 -2,1 -1,1 2,1 -2,1 -1,2 -2,1 -1,1 -1,2 1,1 1,2 -2,0 -1,1 1,1 1,2 -2,0 -1,1 -1,-3 -2,-1 1,-1 0,-2 2,0 -1,-2 2,-1 -1,-2 1,-1 -2,-1 -1,-2 0,-1 2,-1 -1,-2 -2,1 -1,-1 -1,-2 -1,-2 -2,1 -2,1 1,1 2,0 1,2 -1,2 2,0 1,2 0,1 1,2 1,1 -1,2 -2,2 0,-2 0,-2 -2,0 1,-2 -1,-2"/>
    <path style="fill:none;stroke:#000000;stroke-width:1"
          d="m 28,94 -2,1 -1,-2 1,-1 0,-2 -2,0 -2,-1 1,-1 -1,-2 -2,0 1,-2 -2,-1 -1,-2 2,1 2,-1 1,2 1,2 2,-1 2,-1 2,0 0,-2 1,-1 1,2 1,2 -1,1 0,2 2,0 1,-1 2,0 1,2 -1,1 0,2 -1,2 1,1 1,2 2,-1 -1,-2 0,-2 1,-1 2,0 -1,-2 -1,-1 -1,-2 2,0 1,-1 -1,-2 -1,-2 2,-1 -1,-2 2,-1 -1,-2 -1,-2 -1,-2 -1,-1 -2,0 1,2 1,2 1,2 -2,1 1,2 -1,1 -1,2 2,1 -1,1 -2,1 -1,-1 -1,-2 -1,-2 2,0 0,-1 1,-2 1,-2 -1,-2 -2,-1 1,-1 -1,-2 -1,1 -2,1 0,1 1,2 2,0 0,2 -1,2 -1,-2 -2,1 0,1 -1,2 -1,-2 0,-2 1,-2 0,-1 -2,1 -2,1 -1,1 1,1 -1,2 2,0 1,2 0,1 -2,1 -1,-2 -2,-1 -2,0 1,-2 1,-1 -1,-2 1,-2 -2,0 -1,2 -2,-1 -1,2 2,1 0,1 0,2 -2,0 -1,-2 -1,-2 1,-2 -3,0 0,-1 2,-1 0,-1 -2,-1 -2,1 -1,-2 -1,-2 -1,-2 -1,-2 -2,-1 1,-1 -1,-2 -2,-1 1,-1 -3,-2 2,0 2,-1 2,1 -1,1 2,1 -1,1 1,2 2,-1 1,2 -2,1 1,2 1,2 1,2 2,0 2,-1 0,1 1,2 1,2 1,-1 2,0 2,-1 1,1 1,2 2,-1 1,-1 -1,-2 -2,0 1,-2 -1,-1 1,-2 0,-2 2,-1 -1,-2 -2,0 -1,1 -2,0 -2,1 -1,1 0,2 2,-1 2,-1 1,2 -2,1 -1,1 2,1 -1,1 -2,1 -1,-1 -1,-2 -1,-2 -2,1 -1,-2 -1,2 -1,-2 1,-2 -1,-2 -1,-2 -1,-1 -1,-2 2,0 1,-1 1,2 2,-1 2,0 2,-1 1,2 -2,1 -1,2 -1,-2 -2,1 0,1 1,2 1,2 1,-2 2,-1 2,-1 1,-1 2,0 -1,-2 -1,-1 1,-1 3,1 0,2 1,1 2,0 -1,-2 2,-1 1,2 2,1 -1,1 -2,1 0,1 1,2 -2,1 -1,1 2,1 -2,1 1,2 1,2 1,-2 1,-1 2,0 -1,-2 -1,-1 1,-2 0,-2 2,0 2,1 -2,1 0,2 1,2 1,2 1,-2 0,-2 2,1 0,2 0,1 3,0 0,2 2,0 -1,2 1,2 1,-1 2,0 0,2 -2,1 1,2 -2,1 0,1 -1,2 1,2 2,0 2,0 2,-1 -2,-1 -2,0 1,-2 2,0 0,-1 -1,-2 2,-1 2,1 -1,1 1,2 0,2 2,0 0,-1 3,1 0,2 2,0 2,0 -1,2 2,1 2,0 0,2 -1,1 -2,1 1,2 0,1 1,2 2,0 0,-2 -1,-2 2,0 1,-1 -1,-2 3,1 1,2 -2,1 -1,2 2,0 2,-1 2,-1 -1,2 1,2 0,1 1,2 1,1 1,2 1,2 2,-1 0,-1 -1,-2 0,-2 -2,0 0,-2 -1,-1 1,-1 2,0 1,2 1,2 2,-1 1,1 -1,2 -1,1 1,1 0,2 2,0 2,0 -1,-2 -1,-2 2,-1 1,2 1,2 1,-2 0,-2 2,1 1,2 -1,2 2,0 2,-1 1,1 1,-2 1,2 2,-1 1,1 2,-1 1,2 2,0 1,-1 2,0 2,-2 1,-3 1,1 2,-1 1,-1 1,-2 -1,-1 -2,1 -1,1 0,-3 2,-1 1,-1 -2,-1 1,-2 0,-2 1,-1 0,-2 -1,-2 2,-1 1,1 0,2 1,2 0,2 -2,0 0,2 1,2 1,2 0,1 1,2 -2,1 1,2 1,2 -2,0 -1,1 -1,-2 -2,1 1,2 -2,0 -1,1 1,2 1,1 2,-1 0,-1 2,-1 2,0 1,-1 1,2"/>
    <path style="fill:none;stroke:#000000;stroke-width:1"
          d="m 122,106 1,2 1,2 -1,2 2,0 2,-1 1,-1 -1,-2 -1,1 -1,-2 1,-2 -2,0 -1,-2 0,-1 -1,-2 -1,-1 1,-2 0,-2 -1,-2 0,-1 -1,-2 1,-2 2,0 -1,-2 -1,-1 1,-1 2,0 1,2 1,2 0,1 -2,1 -1,1 1,2 1,-1 2,-1 1,2 1,-2 0,-2 2,-1 1,2 2,-1 1,-1 -1,-2 -1,1 -1,-2 -2,1 -2,1 -1,-2 0,-1 2,0 -1,-2 -1,-1 -1,-2 0,-1 -1,-2 -2,0 1,-2 -1,-2 -2,0 -1,1 1,1 -1,2 0,1 1,2 2,-1 1,2 1,2 -2,0 -1,-1 -2,1 -1,-2 -2,-1 1,-2 -2,0 1,-2 1,-1 -1,-2 0,-2 -1,-1 -2,1 1,2 -1,2 -1,-1 -1,-2 -2,1 1,2 -2,0 -2,-1 0,-2 2,-1 -1,-2 -2,1 0,-2 1,-1 1,-2 -1,-2 -1,2 -2,-1 1,-2 1,-1 -1,-2 -2,0 1,-2 -1,-2 2,-1 2,-1 1,2 -2,1 1,2 2,-1 0,1 -1,2 1,2 1,2 1,1 1,2 -2,0 0,1 1,2 2,-1 2,-1 2,-1 -1,-2 -2,1 -1,-2 2,-1 2,-1 1,2 1,2 2,-1 0,2 -1,1 -2,1 1,2 2,-1 1,1 1,-2 1,-2 -1,-2 0,-2 -1,-1 -2,1 -1,-2 -1,-2 -2,1 -2,1 -1,1 -2,0 0,-2 2,-1 -1,-1 -1,-2 -1,-2 0,-1 3,1 0,2 2,0 0,2 2,-1 0,-2 -1,-1 2,-1 1,2 1,2 0,1 1,2 2,0 1,-1 -1,-1 -1,-2 -1,-2 2,-1 1,2 1,2 1,-3 2,0 -1,2 1,1 1,2 -2,0 1,2 -2,0 -1,2 1,2 0,1 1,2 -2,1 1,2 -1,1 2,1 -1,1 1,2 2,-1 1,-2 -1,-1 -1,-2 1,-2 1,2 2,-1 -1,-2 2,-1 1,2 2,-1 -1,-2 2,0 1,2 0,2 1,2 1,2 -1,1 -2,0 -1,-2 1,-1 -2,-1 -2,1 -1,2 2,0 1,2 0,1 -2,1 -1,-2 -1,2 -2,0 -1,1 1,2 2,-1 1,2 -2,1 1,2 2,0 0,-1 2,-1 -1,-2 0,-1 2,-1 1,2 0,2 -1,2 0,2 2,0 -1,2 1,1 1,2 1,2 1,2 -1,1 1,2 1,2 1,-2 1,-1 1,2 2,-1 1,-1 1,-2 -1,-1 1,-2 -2,0 -1,-2 -2,1 1,2 1,2 -2,0 -1,-1 -1,-2 -1,-2 -1,-2 2,-1 1,2 2,-1 0,-1 -1,-2 -1,-2 -1,2 -2,1 -1,-2 1,-1 1,-2 -2,0 1,-2 -2,-1 0,-2 2,1 1,-2 2,-1 2,0 1,-1 -1,-2 -2,0 -1,1 -1,-2 1,-1 0,-2 -2,0 0,-2 -1,-2 -1,-2 -1,2 -1,-1 -2,1 -2,1 -2,1 -1,1 -1,-2 1,-1 2,-1 0,-1 2,0 -1,-2 -1,-1 -1,-2 1,-2 1,2 2,0 1,-1 -1,-2 3,1 1,2 -2,1 -2,1 1,2 2,-1 2,-1 1,-2 1,-1 -1,-2 3,1 1,-1 2,0 0,2 -2,1 -2,1 -1,2 -1,1 1,2 1,2 1,1 1,2 1,2 2,0 0,-2 -1,-1 1,-1 1,-2 -1,-1 -2,1 -2,-1 1,-1 -1,-2 2,-1 1,2 1,-1 2,0 -1,-2 0,-2 1,-2 1,2 2,-2 1,2 0,1 -2,1 0,1 1,2 -2,1 0,1 1,2 -2,1 1,2 1,2 -2,0 0,2 -1,1 1,1 2,0 -1,2 -2,0 1,2 -1,2 -2,0 -1,-1 1,-2 -2,0 -2,1 1,2 0,2 2,0 1,2 0,1 1,2 1,2 0,2 2,0 0,-2 -1,-2 2,-1 -2,-1 1,-1 -2,-1 1,-1 3,0 -1,-1 1,-1 -1,-2"/>
    <path style="fill:none;stroke:#000000;stroke-width:1"
          d="m 151,76 2,-1 1,-1 -1,-2 -1,-2 2,-1 -1,-2 -1,-2 1,-1 2,0 2,-1 1,-2 1,-1 -2,-1 -1,2 -2,1 -1,-1 1,-2 0,-2 2,0 0,-2 -1,-2 2,-1 1,2 2,-1 2,-1 2,0 -1,2 -2,1 -2,1 -1,1 2,1 2,-1 2,-1 2,-1 0,-1 1,-2 1,2 1,2 1,2 1,2 2,-1 -1,-2 -1,-2 -1,-2 0,-1 3,0 0,2 1,2 1,-2 1,-2 1,2 2,-1 2,0 -1,2 -2,1 -1,1 -2,1 1,2 0,1 -1,2 -1,-2 -2,1 1,2 -1,1 1,2 1,-1 2,0 0,2 1,2 2,-1 0,-1 -1,-2 -1,-2 2,-1 2,1 -1,1 1,2 1,2 1,-1 2,0 2,-1 0,-1 1,-2 -1,-1 -2,1 -1,2 -1,-2 1,-2 2,-1 1,-1 2,0 2,-1 1,2 -2,1 0,1 1,2 -2,1 1,2 -2,1 -2,1 -1,1 -2,0 1,2 1,2 1,-1 1,-2 1,2 2,-1 -1,-2 2,-1 1,2 1,2 -2,1 -2,1 0,1 1,2 1,2 1,2 0,2 1,2 2,1 1,-2 -2,-1 0,-2 0,-2 0,-1 -2,-1 0,-2 2,0 0,-1 2,-1 -1,-2 -1,-2 2,-1 0,-2 -1,-2 -1,2 -1,1 -1,-2 1,-2 0,-2 2,0 0,-1 -1,-2 -1,-2 -1,-2 -2,1 -2,1 -1,-2 -1,1 -1,2 -2,1 -2,0 0,2 -2,-1 -1,-2 1,-1 2,-1 1,1 2,-1 -1,-2 1,-1 0,-2 2,2 2,-1 1,2 1,-2 1,1 2,-1 1,2 1,2 1,-2 0,-2 2,0 2,1 2,-1 1,2 0,2 1,2 1,-2 0,-2 0,-2 3,-1 -1,2 1,2 1,2 -2,0 0,2 -1,1 0,2 -2,0 -1,-2 -1,-2 -1,-2 -1,-2 -2,1 1,2 -2,0 -1,1 1,2 2,0 1,-1 1,2 1,2 -1,1 -2,0 -1,-2 -1,2 1,2 1,1 2,-1 2,-1 2,-1 1,1 1,2 0,1 1,2 1,1 1,2 -2,0 0,1 1,2 2,-1 1,2 -2,1 -2,1 0,1 1,2 2,0 -1,2 -1,2 0,2 0,2 2,0 0,-2 0,-2 1,-1 1,2 1,2 0,2 -1,1 0,2 1,2 -2,0 0,2 2,1 1,2 2,-1 1,-1 -2,-1 1,-1 0,-2 -2,-1 2,-1 -1,-2 0,-2 0,-2 -1,-1 -1,-2 1,-1 0,-2 -2,0 -2,-1 2,-1 2,-1 -1,-2 -1,-2 1,-1 1,-2 -1,-2 -1,1 -1,2 -1,-2 -1,-2 1,-1 -2,-1 -1,-2 0,-2 1,-1 1,-2 1,2 1,2 -1,1 1,1 1,2 2,-1 2,1 -1,1 1,2 1,1 -1,2 2,0 2,0 0,-2 0,-2 -2,0 1,-2 -1,-2 2,-1 1,2 1,1 0,2 1,2 -1,2 2,0 2,0 2,0 2,0 -1,-2 -1,-2 -2,2 -1,-1 1,-1 1,-2 -1,-1 -2,1 -1,-2 2,-1 1,-1 1,-2 1,2 1,2 0,1 1,2 1,2 2,1 -1,1 1,2 3,0 0,-1 -1,-2 2,-1 1,-1 2,-1 1,1 2,-1 0,-2 2,0 -1,-2 1,-1 2,0 -1,-2 -1,-1 -1,-2 -1,-2 -2,1 -1,-2 -1,2 -1,1 1,2 2,0 1,-1 1,2 -2,1 0,2 0,2 -2,0 -2,1 -1,1 -2,1 -2,-1 0,-2 2,0 0,-2 1,-1 1,2 2,-1 1,-2 -2,0 -1,-2 0,-1 -1,-2 -2,1 -2,0 1,2 2,1 -2,1 -1,2 -1,-2 -1,-2 0,-1 -2,-1 -2,0 0,2 -2,0 1,2 -2,1 -1,-2 -2,1 -1,-2 -2,1 -1,1 2,1 -1,2 -2,-1 -1,-2 -1,-2 1,-1 -2,-1 -1,-2 -1,-2"/>
    <path style="fill:none;stroke:#000000;stroke-width:1"
          d="m 210,55 0,-1 2,-1 3,0 0,2 -2,0 0,2 2,1 1,2 2,-1 -1,-2 0,-1 2,-1 0,-1 -1,-2 3,0 1,2 0,2 -2,1 0,2 1,1 2,-1 0,-1 2,-1 0,-1 -1,-2 2,-1 1,-1 0,3 1,2 2,0 0,-1 -1,-2 2,-1 1,-1 0,3 1,2 2,-1 -1,-2 2,-1 1,2 1,2 1,-2 1,-1 2,-1 1,2 2,0 0,-1 2,-1 1,-1 2,2 2,-1 1,2 -2,1 -2,1 -1,-2 -1,2 0,2 2,0 0,2 1,2 2,0 2,0 2,1 1,2 2,-1 -1,-2 0,-1 -2,-1 -1,-2 -1,2 -2,0 0,-2 0,-1 2,-1 1,-2 0,-2 2,1 2,-1 3,0 0,2 -1,2 -1,-2 -2,1 -1,1 0,2 2,-1 1,2 0,1 1,2 2,-1 0,2 2,0 1,-2 -1,-2 -2,0 -1,-1 2,-1 0,-2 1,-2 1,2 1,2 0,1 1,2 2,0 -1,2 -2,1 -1,2 -1,1 -2,1 -1,-2 -1,-1 -1,2 1,2 0,2 -1,2 2,1 1,2 -2,0 -1,1 1,2 2,0 1,-1 1,2 2,-1 1,1 1,-2 2,0 1,2 -1,1 2,1 -1,1 -2,1 -1,-2 -2,0 -1,1 1,1 1,2 -2,0 -1,1 -2,1 1,2 1,2 0,1 -2,1 0,1 -2,1 -2,1 0,2 2,0 1,-1 1,2 1,2 1,2 0,2 -1,1 1,2 1,2 -2,1 0,1 -2,0 0,2 -2,1 0,1 1,2 1,2 1,-2 2,-1 -2,-1 1,-1 2,-1 1,-2 1,2 -1,2 1,1 2,-1 1,-1 -1,-2 -1,-2 -1,-2 -1,-2 0,-2 2,0 -1,-2 -1,-1 -1,-2 1,-1 -2,-1 -1,-2 2,0 0,-2 2,0 2,1 0,1 -2,1 1,2 2,-1 2,0 1,1 -2,1 -2,1 0,1 1,2 2,0 0,-2 2,-1 1,2 -1,2 2,0 0,2 -1,1 2,1 -1,1 1,2 -2,1 -1,-2 -2,-1 1,-1 -1,-2 -1,-1 -2,1 0,1 1,2 1,2 2,1 -1,1 1,2 -1,1 -2,1 1,2 1,2 1,2 1,2 2,0 0,-1 -1,-2 -1,-2 -1,-2 2,-1 2,-1 -2,-1 1,-1 2,-1 2,-1 -1,-2 0,-2 0,-2 -1,-2 0,-2 -1,-1 1,-2 -2,0 -1,-2 2,-1 -1,-2 -2,1 -2,0 -1,-2 0,-1 -1,-2 -2,0 -1,1 -1,-2 -1,-2 2,0 1,-1 1,2 2,-1 -1,-2 0,-1 2,-1 1,2 0,2 -1,2 2,1 -1,1 1,2 2,-1 0,-2 -1,-2 0,-2 0,-2 -1,-2 0,-2 0,-2 -1,-1 -1,-2 2,0 0,-2 -1,-2 1,-1 1,-2 -1,-1 1,-1 -1,-2 -1,-2 -1,2 -2,1 1,1 1,2 -2,0 -1,1 0,2 2,0 0,2 -2,1 -1,-1 -2,1 -1,1 -1,-2 1,-1 2,-1 -1,-2 -2,1 -2,0 1,-2 2,-1 2,0 1,-1 -1,-2 2,-1 1,-1 1,-2 0,-2 -2,-1 -1,-2 -1,-2 -1,-2 3,0 0,2 1,2 2,1 1,-2 -2,-1 1,-1 2,-1 1,2 1,-1 1,-2 2,2 2,-1 1,2 -2,1 -2,0 -2,1 2,1 -2,1 -2,-1 0,2 -1,2 2,0 1,2 0,1 1,2 1,2 2,1 -1,2 -1,-1 -2,1 0,2 2,0 2,0 2,0 0,-2 0,-2 -1,-2 -2,-1 2,-1 0,-2 -2,1 -1,-2 -1,-2 2,-1 1,2 2,-1 -1,-2 0,-1 2,-1 1,2 0,2 -1,2 1,1 -1,2 2,0 -1,2 0,2 2,0 -1,2 -1,2 2,0 12,6 1,2 2,-1 1,1 1,2 0,1 1,2 0,2 -2,0 -1,-2 0,-1 -1,-2"/>
    <path style="fill:none;stroke:#000000;stroke-width:1"
          d="m 301,84 -2,0 0,2 1,2 -1,1 -1,2 2,1 1,-2 1,2 2,-1 1,1 -1,2 -1,1 1,1 0,2 -2,0 -1,-2 -1,-2 -2,0 0,2 2,2 -1,1 0,2 0,2 2,0 1,-2 1,-1 1,2 -1,1 1,2 2,-1 1,-1 0,-1 -1,-2 0,-2 1,-2 -1,-2 2,-1 -1,-2 0,-2 0,-2 2,1 1,2 0,2 0,1 -1,2 1,2 -2,1 1,2 0,1 1,2 2,0 -1,2 1,1 2,-1 1,2 -2,1 1,2 1,2 2,-1 -1,-2 1,-2 0,-2 -1,-2 -2,0 1,-2 1,-1 0,-2 -2,-1 -1,2 -1,2 -1,-2 1,-2 0,-2 1,-1 2,0 1,2 1,-2 1,2 1,2 1,2 -2,0 0,2 1,2 2,-1 0,-1 2,0 0,-2 -1,-1 -1,-2 -1,-2 -1,-2 2,-1 1,2 2,-1 -1,-2 -1,-2 1,-1 2,0 2,-1 1,2 -2,1 -1,1 2,1 2,-1 2,1 -1,1 -2,1 -2,0 -1,1 -2,1 1,2 2,-1 1,2 -2,1 1,2 0,1 -2,1 -2,1 1,2 -2,1 -1,-2 -1,1 -1,2 2,1 0,2 0,2 -1,1 -1,-2 -2,1 0,1 -1,2 -1,-2 -1,-2 -2,1 -2,0 1,-2 2,-1 -1,-2 -2,1 -1,-2 2,-1 -1,-2 -2,1 -2,1 1,2 1,1 0,2 0,2 -1,2 2,0 1,2 2,-1 1,-1 1,2 -1,1 1,2 1,1 0,2 1,2 1,2 2,-1 -1,-2 0,-1 2,-1 1,-1 -2,-1 -2,1 -1,-2 2,-1 0,-1 2,-1 2,0 -1,2 1,1 1,2 2,-1 -1,-2 0,-2 1,-1 0,-2 -2,0 1,-2 -1,-2 2,-1 1,2 1,1 0,2 1,2 0,1 -2,1 1,2 2,-1 2,0 0,-2 -1,-2 1,-1 2,0 2,-1 1,2 1,1 2,-1 2,-1 -1,-2 -1,1 -2,0 0,-2 2,-1 -1,-2 2,-1 2,1 -1,1 1,2 1,2 2,-1 1,2 2,-1 2,-1 1,2 2,-1 1,-2 -2,0 -1,-2 -1,-2 0,-1 -1,-2 -1,-1 -1,-2 0,-1 2,-1 0,-2 -3,0 -2,0 1,2 -2,1 -1,-2 -1,-2 -1,2 -1,1 -1,-3 -2,1 -2,1 -1,-1 -1,2 0,2 1,2 1,2 2,-1 -1,-1 0,-2 0,-1 2,-1 1,2 0,2 2,0 1,-2 1,2 1,-1 2,0 1,2 -1,1 1,2 1,-1 1,2 1,2 -2,1 -1,-2 -2,1 0,-2 -1,-2 -2,-1 -2,0 -2,1 -2,1 1,2 -2,0 0,2 -2,1 -1,-1 -2,1 -1,-2 -1,-2 -1,-2 2,-1 1,2 1,2 2,0 0,-2 0,-1 -2,-1 1,-1 -1,-2 -1,-1 1,-2 0,-2 0,-1 2,-1 2,-1 0,-2 0,-2 -1,-2 -2,1 -1,-2 1,-1 2,-1 1,1 1,2 1,-2 0,-2 2,0 0,-2 2,0 -1,-2 -1,-1 -1,-2 0,-1 -1,-2 -2,0 -2,0 1,-2 -1,-1 -2,1 -1,-2 2,-1 2,0 -1,-2 0,-2 -1,-2 -2,1 0,1 1,2 -2,1 -1,-2 -1,-2 -1,-1 -1,2 1,2 -2,1 -1,-2 -1,-1 1,-2 0,-1 -2,1 -2,1 1,2 0,2 2,0 -1,2 1,2 2,-1 1,-1 2,-1 1,1 0,2 -2,0 -1,1 -2,1 -1,1 2,1 2,-1 2,0 1,-1 2,0 1,2 -2,1 2,1 2,0 1,-2 1,2 1,2 -2,0 1,2 -1,1 -2,0 -1,-2 0,-1 -2,-1 -2,0 -1,-2 -2,1 0,1 -2,1 -1,-2 -1,-1 -1,-2 -2,1 0,1 1,2 2,1 -1,1 1,2 1,1 2,-1 0,-1 2,-1 1,2 1,-2 2,1 1,2 -2,0 -1,1 -2,1"/>
    <path style="fill:none;stroke:#000000;stroke-width:1"
          d="m 324,86 -1,-1 -2,1 -2,0 -1,1 1,1 1,2 -2,0 0,1 -2,1 -1,-1 -2,1 -1,-2 -1,-2 2,-1 1,2 2,-1 -1,-2 -1,-1 1,-1 2,0 -1,-2 -1,-1 -1,-2 0,-1 -1,-2 0,-2 2,0 2,-1 1,-1 -2,-1 -2,1 -1,-2 2,-1 1,-1 -1,-2 -1,1 -2,1 -1,-2 -1,1 0,2 -2,0 -2,1 -1,2 -1,1 1,2 1,2 1,-2 1,-1 -1,-2 2,-1 2,0 -1,2 1,1 -1,2 -1,1 2,1 -1,1 2,1 1,2 -2,1 1,2 -2,1 -1,-2 -2,1 -1,-2 0,-1 2,0 2,-1 -2,-1 -1,-1 -2,1 -1,-2 -1,1 -2,0 0,-2 2,-1 -1,-2 0,-3 1,-1 2,-2 2,-1 0,-1 2,-1 1,-1 -1,-2 3,-1 0,2 1,1 2,0 1,-2 -2,-1 1,-1 -1,-2 3,1 1,2 2,-1 -1,-2 -2,-1 2,-1 2,0 2,-1 1,1 1,2 -2,0 -1,1 1,2 2,0 1,-1 1,2 2,-1 -1,-2 1,-1 -2,-1 2,-1 -1,-2 -2,1 -2,-2 2,0 2,-1 2,0 1,2 0,2 2,0 -1,2 -1,2 1,2 1,-2 2,-1 1,-1 1,2 -1,1 -2,1 1,2 0,1 -2,0 0,2 2,1 1,2 -2,0 1,2 2,0 2,-1 1,1 -1,2 -1,1 1,1 0,2 2,2 0,-2 2,0 -1,-2 -1,-2 2,-1 -1,-2 0,-1 -1,-2 -1,-2 -1,2 -1,1 -1,-2 1,-2 1,-1 -2,-1 2,-1 2,0 -1,-2 -1,-1 -1,-2 2,0 2,0 0,2 1,2 1,1 -1,2 -1,1 1,2 1,2 1,2 2,1 -2,1 -1,2 1,2 1,-1 2,-1 1,-1 0,-2 -1,-2 -2,-1 1,-1 0,-2 -2,0 0,-2 2,-1 1,1 2,-1 0,-1 -1,-2 -1,-2 -1,2 -1,1 -1,-2 -1,-2 1,-1 -2,-1 0,-2 -2,0 -1,2 -1,-2 -2,1 0,1 -2,1 -1,-2 -1,-1 -1,-2 2,0 2,1 2,-1 0,-1 3,1 2,0 1,-1 2,-1 2,0 -1,2 -2,1 1,2 1,2 2,-1 -1,-2 1,-2 1,-2 2,1 0,2 -1,1 0,2 -1,2 2,1 -1,1 1,2 1,1 2,-1 0,-1 -1,-2 -1,-2 0,-2 2,0 0,-2 -1,-2 -1,-2 4,0 -1,1 1,2 1,1 2,-1 0,-1 2,0 2,-1 1,2 -2,1 -2,1 -2,1 -2,0 -1,2 1,2 0,1 1,2 2,0 1,2 -2,0 -2,1 -1,-1 -2,1 -1,1 2,1 1,2 0,1 -2,1 -1,-2 -1,-1 -1,-2 -2,1 1,2 0,2 2,0 0,2 -1,2 2,0 2,-1 0,-1 2,-1 1,2 1,-2 2,0 0,2 2,-1 2,0 -1,-2 -1,-2 -2,1 -2,0 -1,-2 0,-1 2,-1 1,2 1,-1 2,-1 1,-1 2,0 1,2 -1,1 -2,0 1,2 2,1 -1,1 1,2 3,0 0,-1 -1,-2 -1,-2 2,-1 1,1 2,-1 2,-1 -2,-1 0,-2 -1,-2 -1,2 0,2 -2,0 -1,-2 1,-2 0,-1 -2,1 -2,1 -1,-1 -2,1 -1,-2 -1,-2 -1,1 -1,-2 1,-1 2,-1 2,-1 2,-1 1,-1 1,-2 1,2 2,-1 1,-1 1,2 2,-1 1,1 1,2 -2,0 -2,1 -1,-2 -2,1 0,1 -2,1 -1,-1 -2,1 -2,1 1,2 2,0 1,-1 2,0 2,-1 1,2 1,-2 1,1 1,2 1,2 1,2 1,2 1,-2 0,-2 -1,-1 -1,-2 -1,-2 1,-1 2,0 1,2 -1,1 2,1 2,-1 1,-1 -2,-1 1,-1 -1,-2 -2,0 -1,-1 0,-2 2,1 3,-1 0,2 3,0 0,2 -2,0 1,2 1,1 2,-1"/>
    <path style="fill:none;stroke:#000000;stroke-width:1"
          d="m 389,57 0,-2 1,-1 2,0 2,0 0,2 -2,0 0,2 -2,1 -2,1 1,2 2,-1 1,-1 2,0 1,2 -1,1 -2,0 1,2 1,2 1,1 -1,2 -2,1 -2,1 -1,-2 2,-1 1,-1 -2,-1 1,-1 -1,-2 -2,0 -2,1 1,1 1,2 -1,1 -2,0 -2,1 -2,0 1,-2 2,-1 0,-1 -1,-2 2,-1 1,-1 0,-2 -2,1 -2,1 -1,2 0,2 -1,2 -2,0 -1,1 -1,2 -1,-2 -2,1 0,1 1,2 2,0 2,0 1,-2 1,2 1,-1 1,2 3,1 0,-1 -1,-2 2,-1 2,1 -1,1 1,2 2,0 1,-1 1,2 3,1 0,-1 -1,-2 -1,-1 2,-1 1,-2 1,2 1,2 -1,1 1,2 2,0 1,-1 -1,-2 0,-2 -1,-1 -1,-2 -1,-2 1,-1 -2,-1 2,-1 -1,-2 -1,-2 -1,-2 2,-2 0,1 1,2 1,2 1,1 0,2 1,2 0,2 -1,1 2,1 0,2 1,2 0,2 0,2 14,-3 -1,-2 -1,-2 1,-1 2,-1 1,-1 1,2 -2,1 0,2 2,1 0,2 -1,1 2,2 1,-1 1,-2 2,-1 1,-2 0,-1 -2,1 -2,1 -1,-2 2,-1 -1,-2 -1,-2 -1,-2 1,-1 1,-2 1,2 0,2 1,2 1,2 2,-1 1,-1 2,-1 2,0 2,0 0,2 -2,1 -1,-1 -2,1 -1,1 1,2 0,2 -2,1 -1,1 0,2 -2,-1 0,2 1,2 2,-1 1,2 2,-1 1,-2 -2,0 -1,-2 2,-1 1,1 2,0 -1,-2 -1,-2 0,-2 2,0 2,-1 1,1 1,-2 0,-2 -1,-2 -2,-1 -1,-2 -1,2 -1,-2 -1,-2 -1,-2 2,0 0,-1 2,-1 1,-1 2,0 1,-2 2,-1 1,-2 1,-1 -1,-2 -1,-2 1,-2 1,2 2,0 1,2 -1,1 2,1 -1,1 -2,1 -1,2 -1,1 -2,1 -1,2 -1,1 -2,0 -1,2 2,0 0,2 2,-1 1,2 0,1 1,2 1,1 1,2 -2,0 0,2 1,2 0,1 1,2 1,2 1,-1 2,0 -1,-2 -1,-1 -1,-2 0,-1 2,-1 1,2 1,2 1,2 1,-2 1,-2 -2,0 0,-2 1,-1 1,-2 -1,-1 -2,1 -1,1 -2,0 -1,-2 1,-1 1,-2 1,2 2,-1 0,-1 -1,-2 -1,-2 -1,-2 -2,1 1,1 0,2 -1,1 -1,2 -1,-2 -1,-2 1,-1 -1,-2 2,-1 2,-1 0,-2 2,-1 2,-1 0,2 -2,1 1,2 1,2 1,2 2,-1 -1,-2 -1,-2 2,-1 0,-1 -1,-2 2,-1 2,-1 2,-1 -1,-2 -2,1 -2,1 -2,1 -1,-1 -1,-2 -1,-2 3,0 0,2 2,0 1,-1 2,-1 2,0 1,1 2,-1 1,2 -2,1 1,2 -1,2 -1,-1 -2,1 -2,1 1,2 2,0 1,-1 2,0 0,2 1,2 2,-1 0,-1 -1,-2 0,-2 2,0 2,-1 -1,-2 -2,1 -1,-1 1,-2 0,-2 1,-1 1,3 1,-1 1,-2 1,2 2,-1 0,-2 3,0 0,2 2,-1 2,-1 2,0 -1,2 -2,1 -1,1 -2,0 -2,0 -2,1 -1,1 0,2 1,1 1,-2 2,-1 1,1 -1,2 2,0 1,2 0,1 1,2 1,1 2,-1 1,-1 -2,-1 -1,-2 2,0 1,-1 2,0 2,-1 2,0 2,-1 -2,-1 1,-1 -2,-1 -2,1 0,1 -2,1 -1,-1 -2,1 -2,1 -1,-2 2,-1 2,-1 1,-1 2,0 -1,-2 2,-1 1,-2 1,2 -1,2 2,0 2,-1 -1,-2 2,-2 0,1 1,2 1,1 1,2 -2,0 -1,1 1,2 1,1 1,2 -2,0 -1,1 1,2 2,0 1,-1 2,-1 -1,-2 -1,-2 0,-1 2,-1 2,1 -1,1"/>
    <path style="fill:none;stroke:#000000;stroke-width:1"
          d="m 494,49 0,2 2,1 0,1 1,2 2,0 0,-2 -1,-2 0,-1 -1,-2 2,-1 1,2 1,1 1,2 -1,1 2,1 -1,1 -1,2 2,0 2,-1 1,-2 -1,-1 -1,-2 0,-1 2,-1 2,-1 -2,-1 1,-2 1,-2 -2,0 0,-2 1,-1 1,-2 -1,-1 1,-1 2,0 -1,-2 -1,-1 -2,1 -1,-2 2,-1 1,-2 0,-2 -1,-2 -1,-2 -2,1 1,2 0,1 1,2 -2,1 -1,2 1,2 0,2 1,2 -1,1 -2,0 1,2 1,2 1,2 -2,1 0,2 -2,-1 0,-2 1,-1 -1,-2 -1,-2 -1,1 0,2 -2,0 1,2 -2,1 -1,-2 -1,1 -2,0 -1,-2 1,-1 -2,-1 -1,-2 0,-1 2,-1 2,-1 0,1 -1,2 1,1 1,2 2,-1 -1,-2 1,-2 1,2 2,-1 2,-1 1,-1 -1,-2 -1,1 -2,1 -1,-2 -2,1 -1,-2 1,-1 0,-2 0,-2 2,0 1,2 -1,2 2,0 2,0 0,-2 -1,-1 1,-1 2,0 -1,-2 -1,-1 -2,1 -1,-2 -1,2 -1,-1 -2,1 -1,1 0,2 -1,2 -1,-2 -2,1 0,1 1,2 2,0 -1,2 -3,0 0,-1 -1,-2 -1,-2 -2,1 0,-2 1,-1 -1,-2 -2,1 -1,2 -1,-2 1,-2 -1,-2 -1,-2 1,-1 -1,-2 -1,1 -1,-2 2,-1 0,-2 -2,-1 -2,0 1,2 -2,1 -1,1 0,2 2,-1 1,2 -2,1 -1,2 2,0 2,-1 1,2 0,1 0,2 -2,0 -1,-2 -2,1 -2,-1 0,-2 0,-2 0,-1 -2,-1 0,-2 2,0 0,-2 2,-1 -1,-2 2,-1 0,-1 -1,-2 -2,0 0,2 -2,1 1,2 -2,1 0,1 -2,1 0,1 -2,1 -1,-1 -2,1 0,1 0,2 2,0 2,0 0,-1 2,-1 1,2 1,2 -1,2 -1,-2 -2,1 -1,-1 -2,1 -2,-1 -2,0 1,-2 -1,-2 -2,1 0,1 0,2 -2,0 -1,-2 -1,-2 2,0 -1,-2 -1,-2 0,-2 1,-1 2,0 -1,-2 -1,-1 -1,-2 -2,1 -1,1 2,1 -1,1 0,2 -2,0 -1,-2 0,-1 -1,-2 -1,-1 0,-3 -1,1 -2,1 1,2 -1,2 2,0 1,2 0,1 1,2 1,2 1,-2 2,1 0,1 0,2 -2,0 1,2 2,1 0,1 -2,0 -2,0 -2,1 -1,-2 2,-1 0,-1 -1,-2 -2,-1 1,-1 -1,-2 -1,-2 -1,2 -1,1 1,2 1,2 1,1 -1,2 -1,1 1,1 -2,1 -2,1 -1,-1 -2,1 -1,1 -1,2 -1,-2 -2,1 1,2 -1,1 -1,2 1,1 0,2 1,2 -1,1 -1,2 0,2 2,0 -1,2 1,2 2,0 0,-2 0,-2 -1,-2 1,-1 2,2 0,2 2,0 0,2 -2,1 2,1 0,1 1,2 -2,1 -1,-2 -2,-1 -1,2 2,1 0,2 -2,1 -1,-2 -1,-2 1,-2 -2,0 -1,-2 0,-2 -1,-2 -1,-2 0,-1 2,-1 -1,-2 1,-1 -1,-2 -2,0 -2,1 1,1 1,2 -2,0 -1,1 1,2 1,1 1,2 0,1 1,2 0,2 1,1 1,2 1,2 1,2 -2,1 -1,-2 -1,-2 -2,1 -1,1 -2,0 1,2 2,1 1,-2 1,2 1,2 1,2 1,2 0,1 -2,1 -2,0 1,-2 0,-2 -2,0 0,-2 -2,-1 -2,0 0,2 -1,2 -1,-2 -2,1 1,2 1,2 -1,1 -2,1 -1,-2 1,-2 -1,-2 1,-2 2,-1 0,-1 2,-1 0,-1 -1,-2 2,-1 1,-1 2,0 2,-1 -1,-2 -2,1 -1,-2 2,-1 0,-1 -1,-2 -1,-2 -1,1 -1,2 1,1 -1,2 0,2 -1,1 -1,-2 -2,1 -1,-2 2,-1 1,-1 -2,-1 1,-1 2,-1 -1,-2 1,-1"/>
    <path style="fill:none;stroke:#000000;stroke-width:1"
          d="m 418,40 2,0 -1,-2 -1,-1 1,-1 2,0 -1,-2 -1,-1 -2,1 -1,-2 -1,1 -1,2 1,1 1,2 -2,0 -1,1 1,1 1,2 -2,0 -1,2 1,2 -1,2 -1,-2 -2,0 -2,-1 2,-1 0,-2 2,0 0,-2 -1,-2 -2,0 -2,-1 1,-1 0,-2 -2,-1 -1,2 -1,2 1,2 2,0 2,1 -1,2 -2,1 0,-2 -2,0 -2,-2 0,-1 -1,-2 -1,-2 2,-1 1,2 1,-2 0,-2 1,-1 1,-2 0,-2 -2,0 0,-2 1,-2 -2,0 -2,1 1,2 -1,2 2,1 -1,1 -2,0 1,2 -2,1 -1,-2 0,-3 0,-1 2,-1 -2,-2 0,-1 2,-1 0,-2 2,1 0,-2 -1,-1 2,-1 2,-1 0,-1 2,-1 0,-1 -2,-1 3,-1 2,0 1,2 -1,1 0,2 -2,0 0,2 -2,0 -2,1 1,2 2,-1 1,1 -1,2 0,2 1,2 1,2 0,1 -2,1 1,2 2,-1 1,1 -1,2 1,2 2,0 -1,-2 2,-1 -1,-2 1,-1 1,-2 1,2 2,-1 1,2 1,-2 1,-1 2,-1 -1,-2 1,-1 -1,-2 2,-1 1,2 1,1 1,2 -2,0 0,2 0,1 -2,1 -1,1 1,2 1,-1 2,-1 1,1 2,-1 -1,-2 1,-1 1,-2 -1,-1 -1,-2 0,-2 -2,0 0,-2 0,-1 -2,-1 -2,0 1,2 -2,1 -1,2 -2,-1 0,2 1,1 1,2 -2,0 -1,1 -1,-2 -1,-2 0,-2 0,-1 -2,1 -1,2 1,1 1,2 -1,1 -1,2 -1,-2 -1,-2 0,-1 -1,-2 2,-1 -1,-2 1,-2 1,1 2,0 -1,-2 -1,-2 2,-1 1,2 1,-2 1,-1 -1,-2 -1,-2 -1,1 -1,2 -1,-2 0,-2 2,-1 3,-1 0,2 1,1 2,-1 0,-2 2,-1 1,2 -1,1 -1,2 -2,1 0,1 1,2 -2,1 -1,2 -1,1 1,2 2,0 1,-1 -1,-2 2,-1 1,-2 0,-2 2,0 1,-1 -1,-2 2,-1 -1,-2 1,-1 2,0 0,2 1,2 -2,1 1,2 2,-1 0,2 -1,1 -2,1 -1,-2 -2,1 0,2 2,1 2,0 2,-1 1,2 -2,1 1,2 0,1 1,2 1,2 1,-1 2,0 -1,-2 -1,-1 -1,-2 1,-1 0,-2 -1,-2 0,-2 2,0 -1,-2 -1,-1 -1,-2 0,-1 -1,-2 -1,-2 3,0 0,1 1,2 1,2 1,-2 0,-2 1,-1 2,0 1,2 -2,1 2,1 -2,1 0,2 -2,0 1,2 1,1 -1,2 -1,1 1,1 -1,2 1,2 0,1 1,2 2,0 0,-2 2,-1 -1,-2 -2,1 0,-1 1,-2 -1,-2 2,-1 -1,-2 0,-2 2,1 0,-2 0,-2 1,-2 -1,-1 2,-1 2,0 2,-1 2,0 -1,2 1,1 -1,2 2,0 2,-1 -1,-2 1,-2 1,2 1,-1 2,0 1,2 -2,1 0,2 2,0 1,-1 2,-1 -1,-2 0,-1 2,-1 1,2 0,2 1,2 -2,0 -2,1 -2,1 1,2 2,-1 2,-1 1,1 0,2 -2,0 -1,2 -1,-1 -2,1 -1,1 0,2 2,0 1,-1 2,0 2,-1 1,-1 2,0 0,-2 2,0 -1,-2 -2,0 1,-2 -1,-2 -1,-2 0,-2 2,0 1,2 0,1 1,2 1,2 1,-1 0,-2 0,-2 -1,-1 2,-1 1,2 1,2 2,-1 -1,-2 2,0 2,1 -1,2 -1,1 1,2 1,2 1,-2 1,-1 -1,-2 2,-1 1,2 1,-1 2,0 1,2 0,1 0,2 -1,2 -1,-2 -1,-2 -2,1 -1,2 2,0 1,2 -1,2 2,0 0,2 -1,1 1,2 -1,1 1,2 2,-1 0,-2 1,-1 2,0 1,2 -1,1 0,2 -2,0 1,2 1,1 2,-1 0,-2"/>
    <path style="fill:none;stroke:#000000;stroke-width:1"
          d="m 490,25 1,-1 2,0 2,-1 2,-1 -1,-2 -1,-2 -1,1 0,2 -2,1 -1,-1 -1,-2 2,0 0,-2 2,-1 -1,-2 -1,-2 -1,2 -1,1 -1,-2 -1,2 1,2 -2,1 -2,0 1,-2 -1,-1 1,-2 1,-2 2,0 -1,-2 -1,-2 1,-1 2,2 1,2 2,-1 1,2 1,2 1,-1 2,0 3,1 -2,1 -1,1 -2,0 1,2 1,1 1,2 0,1 1,2 2,0 0,-2 -1,-2 0,-1 -1,-2 2,-1 1,2 2,-1 1,2 0,1 -2,0 0,2 2,1 2,-1 1,-2 1,2 1,2 -2,0 0,2 2,1 2,-1 2,1 -1,1 -2,1 -2,0 0,2 0,1 1,2 1,2 1,1 -1,2 -1,1 -2,1 1,2 2,-1 1,2 1,1 1,2 0,1 -2,1 -1,-2 -1,-2 -1,1 0,2 1,1 -1,2 -2,0 -1,1 1,2 1,2 1,-2 1,-1 2,-1 1,-1 2,-1 2,0 0,-2 -1,-2 -1,-2 1,-1 1,-2 -1,-1 -2,1 -1,1 0,-3 2,-1 0,-1 -1,-2 -2,-1 1,-1 -1,-2 2,-1 2,1 -1,1 1,2 2,1 -1,1 1,2 1,2 1,2 -2,1 0,2 2,0 -1,2 1,2 -1,2 0,2 -1,2 0,2 -1,1 -1,2 -1,1 -2,1 -1,-2 1,-1 2,-1 -1,-2 2,-1 1,-2 -1,-1 -2,1 -1,1 -2,1 1,2 -2,0 -1,1 -2,1 -1,-2 -1,2 -2,1 -2,0 1,2 1,2 2,0 0,-2 2,0 1,-1 2,-1 1,2 1,2 -2,1 -1,-2 -2,1 0,2 -2,1 -1,-1 -2,1 -1,-2 -1,-2 -1,1 -2,0 1,2 2,1 -1,1 -2,1 -1,-1 -1,-2 0,-1 -1,-2 2,-1 1,-1 2,0 -1,-2 -1,-1 -2,1 -1,-2 -1,-1 -2,1 2,2 -1,1 1,1 -1,2 -1,1 -2,1 1,2 2,-1 1,1 1,2 -2,0 -2,0 -3,1 1,-1 -1,-2 -1,-1 1,-1 1,-2 -1,-1 1,-1 2,0 -1,-2 -1,-1 -2,1 -1,-2 -1,-2 -1,1 -1,-2 -2,1 -1,1 1,1 -1,2 -1,2 -1,-1 -2,1 -2,0 0,2 -2,1 0,-2 -1,-2 1,-1 -1,-2 -1,-2 -2,0 1,2 -1,2 1,2 0,1 1,2 1,2 1,2 2,0 0,-2 1,-1 2,-1 1,-1 2,0 2,-1 1,-1 -1,-2 2,-1 1,1 0,2 1,2 -1,1 -1,2 -1,-2 -2,1 0,1 1,2 2,0 2,0 -1,2 -2,0 -2,1 -1,-2 -1,-2 -1,-1 -2,1 0,2 2,0 0,2 -3,0 -1,1 -1,-2 -2,1 -1,1 -2,0 -2,1 -1,-2 -1,-2 -1,-2 -2,-1 1,-1 2,-1 1,2 1,2 1,2 1,-1 2,0 -1,-2 -2,-1 1,-1 -1,-2 -2,-1 1,-2 0,-2 0,-2 -1,-2 -2,1 0,1 1,2 0,2 -1,2 -1,-2 -2,1 1,2 -2,0 -1,1 1,2 1,2 2,1 1,2 0,2 -2,0 -2,0 1,-2 -1,-1 -1,-2 -2,1 -1,-1 1,-2 -2,0 0,-2 2,0 0,-2 1,-1 0,-2 -2,-1 -2,0 -2,0 1,2 2,0 -1,2 -2,1 0,1 -2,0 1,2 2,1 -1,1 2,1 -1,1 -2,1 1,2 2,-1 2,-1 2,0 0,2 -1,1 -2,0 -2,1 -1,1 0,2 -2,1 -1,1 1,2 1,-1 2,-1 1,1 1,2 2,-1 2,-1 -1,3 1,1 2,-1 0,-1 2,-1 1,2 0,2 1,1 1,2 -2,1 1,2 2,-1 1,2 1,2 1,2 0,2 -1,2 -1,-1 -1,-2 0,-1 0,-2 -1,-1 -2,1 -1,1 1,1 1,2 -2,0 -1,1 1,1 0,2 0,2 2,-2 1,-2 1,2"/>
    <path style="fill:none;stroke:#000000;stroke-width:1"
          d="m 466,102 -1,2 3,0 0,-2 2,0 1,2 2,0 2,-1 1,2 1,-2 0,-2 -1,-2 -2,1 0,1 -2,1 -1,-2 0,-2 2,0 2,-1 2,-1 0,-2 1,-2 -1,-2 -2,0 -1,-1 2,-1 -1,-2 -2,1 -2,1 1,2 0,1 1,2 2,-1 0,2 -1,1 -2,1 -1,-1 -1,-2 0,-1 -1,-2 -1,-1 1,-2 -2,0 -1,-2 0,-1 -1,-2 2,-1 1,2 1,2 2,0 -1,-2 1,-1 2,0 0,2 2,0 1,-2 1,2 2,-1 2,-1 -1,3 -2,1 0,1 1,2 1,2 1,-1 1,-2 -1,-1 1,-2 0,-1 2,-1 1,2 1,2 -2,0 1,2 -2,1 1,2 -1,1 2,1 1,2 1,2 -1,1 1,1 -2,1 -2,1 -1,-1 -1,-2 2,0 0,-2 1,-1 -2,-1 -1,-2 -2,1 1,2 0,1 -2,1 1,2 1,2 -1,1 0,2 2,-1 1,2 2,-2 0,1 1,2 2,0 1,2 2,0 0,-2 1,-1 -1,-2 -2,0 -1,1 -1,-2 2,-1 2,-1 1,1 2,0 1,2 -1,1 1,1 -1,2 -1,1 -1,2 1,2 2,0 2,-1 -2,-1 2,-1 -1,-2 2,-1 1,1 0,2 1,2 1,2 2,-1 -1,-2 0,-1 -1,-2 -1,-2 -2,-1 -1,-2 -1,-2 1,-2 0,-2 -1,-2 0,-1 -1,-2 -1,-1 -2,1 -1,1 2,1 1,2 0,1 1,2 -2,1 -1,-2 -1,1 -1,-2 1,-2 -2,0 -1,-2 -1,-2 2,0 2,-1 -2,-1 1,-1 -1,-2 -1,-2 2,-1 1,2 3,-1 -1,1 -1,2 1,2 2,0 0,-2 2,-1 1,2 -1,1 0,2 2,-1 1,-3 1,2 1,1 2,-1 1,2 1,2 1,-1 2,0 1,2 0,1 -2,1 -1,-1 -2,1 -1,-2 -1,-2 -2,0 -1,1 -2,0 1,2 0,2 2,0 1,-2 1,1 0,2 1,2 1,2 -2,1 -1,-2 -1,-2 -2,1 0,1 0,2 2,0 1,2 1,2 1,2 1,-2 0,-2 1,-1 1,2 1,2 0,1 -2,1 -1,1 2,1 1,2 1,2 0,1 -2,1 -2,1 0,-2 1,-2 -1,-2 -1,2 -2,1 0,1 -2,1 -1,-2 0,-2 -2,0 -1,1 0,2 2,1 -1,2 1,2 -1,1 2,1 1,2 -2,0 -1,1 1,1 -1,1 -2,1 -2,1 1,2 -2,1 1,2 1,2 1,2 2,-1 -1,-2 1,-1 -2,-1 1,-2 0,-1 2,-1 2,-1 1,2 -2,1 0,2 1,1 2,-1 2,0 0,-1 -1,-2 -1,-2 -1,-2 2,-1 -1,-2 0,-1 -1,-2 -1,-1 1,-1 2,-1 1,2 0,2 1,1 0,2 1,2 -2,1 1,2 1,-1 2,0 1,-2 -1,-1 1,-1 1,-2 -1,-1 -2,1 -1,-2 2,-1 0,-1 2,-1 1,2 1,-1 2,0 -1,-2 -1,-1 -1,-2 1,-1 -2,-1 -1,-2 2,0 0,-2 -1,-2 -1,-2 -1,-2 0,-1 -1,-2 -1,-1 1,-1 2,0 2,-1 1,1 1,-3 1,2 2,1 -1,1 -2,1 -2,0 -1,1 1,2 0,2 1,2 1,-2 2,-1 -2,-1 1,-1 2,-1 1,2 1,-2 1,1 1,2 -2,1 -2,1 0,1 -2,1 -1,2 1,2 0,2 1,2 0,1 1,2 2,0 2,0 0,2 0,2 -1,2 1,1 1,2 2,-1 0,-1 -1,-2 0,-2 2,0 -1,-2 -1,-2 -1,-2 -1,1 -2,0 -1,-2 1,-1 2,0 -1,-2 -1,-1 -2,1 -1,-2 2,-1 2,0 0,-2 2,0 1,-1 0,3 2,1 -1,1 -2,0 1,2 2,0 -1,2 1,2 2,-2 0,2 -1,2 1,1 0,2 0,2 -1,1 1,2 0,2 -1,2 -1,-2"/>
    <path style="fill:none;stroke:#000000;stroke-width:1"
          d="m 523,129 -2,1 0,1 1,2 2,0 -1,2 1,2 -2,1 -1,1 2,1 -2,1 1,1 1,2 -2,0 -1,1 -1,-2 -1,-2 0,-2 0,-1 1,-2 2,0 -1,-2 -1,-2 -1,-2 0,-2 -2,0 -2,1 -1,-2 1,-1 2,0 -1,-2 2,-1 -1,-2 -2,1 -1,1 -2,0 1,2 -2,1 1,2 1,2 -2,0 0,1 1,2 2,-1 2,-1 2,1 -1,1 1,1 0,2 -2,0 -1,-2 -2,1 1,2 1,2 2,0 -1,2 1,1 -1,2 2,0 1,2 0,1 1,2 1,2 1,2 1,-1 2,-1 -1,-2 -2,0 0,-2 2,0 1,-1 1,2 2,-1 2,-1 -1,-2 -2,1 -1,-2 0,-1 2,0 -1,-2 -1,-1 1,-2 2,0 0,2 1,2 1,2 1,-2 0,-2 -1,-2 2,-1 1,2 2,-1 1,-1 2,0 2,0 -1,2 -1,1 -2,0 -2,1 -1,1 -1,2 -1,2 1,1 1,2 -2,0 -1,1 -2,0 -2,1 1,2 2,-1 2,0 2,-1 1,2 2,-1 0,-1 -1,-2 0,-2 2,0 -1,-2 -2,0 1,-2 2,-1 1,2 1,2 1,1 2,-1 2,-1 -1,-2 -1,1 -2,0 0,-2 2,-1 -1,-2 2,-1 2,-1 2,0 -1,2 -2,1 1,1 1,2 0,1 1,2 1,2 1,-2 2,1 2,0 2,0 -1,-2 -1,-2 -2,0 0,2 -2,-1 -1,-2 1,-1 -1,-2 2,-1 0,-2 3,0 -1,2 -1,2 1,1 2,-1 1,-2 1,2 -1,2 1,2 1,2 1,-2 0,-2 0,-1 2,-1 1,-1 -1,-2 -2,0 -1,1 -1,-2 1,-2 2,1 2,-1 0,-1 2,-1 2,0 1,-1 1,2 -1,2 -2,-1 0,2 -2,0 1,2 1,1 2,-1 1,2 2,-1 0,1 -1,2 2,1 0,1 1,2 2,0 0,-2 1,-1 -2,-1 0,-2 -1,-2 2,-1 -1,-2 -2,1 -2,1 0,-2 2,-1 -1,-2 -1,-2 1,-1 -2,-1 -1,-2 -2,1 1,2 -2,0 -1,1 -1,-2 -2,1 1,2 -2,1 -2,0 1,-2 -2,-2 2,0 1,-1 2,-1 2,0 0,-2 2,0 2,-1 1,-2 1,2 1,2 -1,1 2,1 2,-1 2,0 2,1 2,0 -1,-2 -2,-1 1,-1 -1,-2 -2,1 0,2 -2,0 -1,-2 -1,-2 2,0 1,-1 2,0 -1,-2 -2,0 1,-2 -1,-2 -2,0 0,2 0,2 -1,1 -1,-2 -2,1 -1,1 2,1 -1,2 -2,-1 0,2 -2,0 -2,1 0,1 -2,1 -2,0 1,-2 -2,-1 1,-1 2,-1 1,1 2,-1 0,-1 2,-1 -1,-2 1,-1 2,0 2,-1 1,-2 1,-1 0,-2 -2,0 -2,1 1,2 -2,1 -1,-1 -2,1 -2,0 -1,1 1,1 1,2 -2,0 -1,1 -2,1 -1,-3 2,-1 -2,-1 1,-1 0,-2 -2,-1 0,-2 2,-1 -2,-1 1,-1 -1,-2 -1,-1 0,-2 -1,-2 0,-2 1,-1 1,2 1,2 2,-1 0,-1 2,-1 1,2 1,-2 2,1 1,2 1,2 2,-1 2,0 -1,-2 -2,0 -1,-2 0,-1 2,-1 1,2 1,-1 1,-2 -2,-1 1,-1 -1,-2 2,-1 2,1 -1,1 1,2 1,1 -1,2 0,2 -2,0 1,2 2,0 2,-1 0,-1 -1,-2 2,-1 -1,-2 0,-1 -1,-2 1,-2 -1,-2 1,-2 1,2 1,2 1,2 -1,1 2,1 -1,1 0,2 2,-1 2,-1 -1,-2 -1,-2 -1,-2 1,-2 -2,0 -1,-2 0,-1 2,-1 1,-1 -2,-1 -2,1 -2,0 0,2 -2,0 0,2 0,2 0,2 -2,-1 -1,-2 -2,1 -1,1 1,1 -1,2 -1,1 1,2 -2,1 -1,-2 -1,1 0,2 -2,0 -1,-2 -1,2"/>
    <path style="fill:none;stroke:#000000;stroke-width:1"
          d="m 556,93 -2,1 -1,-1 1,-2 -2,0 -2,1 -1,-2 -1,-2 2,-1 1,2 2,0 0,-2 0,-1 -1,-2 2,-1 1,2 1,2 -1,2 2,0 1,-1 2,0 0,-2 2,0 -1,-2 -2,0 -2,1 -1,-2 1,-1 -1,-2 1,-2 -2,0 -1,2 -1,1 -2,1 -1,1 0,2 -2,0 0,-2 0,-2 1,-1 2,-1 1,-1 1,-2 2,0 -1,-2 0,-2 2,0 2,-1 1,1 2,-1 0,-2 -2,0 0,-2 1,-2 2,-1 1,2 -1,1 1,2 1,2 2,1 -1,1 -2,1 -1,-1 -2,1 -2,0 -1,1 1,1 1,2 2,-1 1,-1 2,0 2,-1 1,2 -2,1 0,1 -2,1 -1,-1 -2,1 -1,1 1,1 2,0 2,0 2,-1 2,0 0,-2 1,-1 1,-2 -2,-1 1,-1 -1,-2 -1,-2 0,-2 -2,0 1,-2 -1,-1 2,-1 2,-1 1,1 1,2 -2,0 0,2 1,2 0,1 1,2 2,0 -1,2 1,1 2,-1 2,0 1,-1 -2,-1 1,-2 0,-2 -1,-2 -1,2 0,2 -2,0 -1,-2 0,-1 2,-1 -1,-2 0,-1 -1,-2 -1,-2 -1,1 -2,0 -2,1 -2,1 -1,-2 -2,-1 0,2 -2,1 -1,2 -2,1 0,1 1,2 -2,1 -1,-1 -1,-2 0,-2 1,-2 1,1 2,-1 1,-2 1,-1 1,-2 -2,-1 -1,1 -2,1 0,2 -2,0 -2,1 0,1 0,2 -2,0 1,2 1,1 -1,2 2,0 0,2 -1,1 -2,0 1,2 1,1 -2,1 -2,2 0,-2 0,-2 0,-1 -3,1 0,-2 -2,0 -1,2 -1,-2 -2,1 -2,0 -3,-1 1,-1 2,-1 1,1 2,-1 0,-1 -1,-2 -1,-2 -1,2 -1,1 -2,1 -1,-2 -1,-2 2,-1 1,2 1,-2 1,-1 -1,-2 -1,-2 -1,2 -2,1 1,-2 -1,-2 2,-1 -2,-1 -1,-2 2,0 1,-1 2,0 1,2 -1,1 1,2 1,1 1,2 0,1 1,2 1,1 2,-1 -1,-2 1,-1 -2,-1 1,-1 -1,-2 -2,0 1,-2 -1,-1 -1,-2 2,0 3,-1 -1,2 1,2 0,1 1,2 2,0 -1,2 1,1 -1,2 1,2 -1,2 -1,-1 -2,1 0,1 1,2 2,0 1,-1 1,2 2,-1 -1,-2 1,-1 -1,-2 -1,-2 2,-1 -1,-2 1,-2 1,2 1,-2 0,-1 -1,-2 -2,1 -2,0 -1,-2 0,-1 2,-1 1,2 1,-2 2,-1 3,0 -1,2 -1,1 1,2 1,2 1,-2 1,-1 -1,-2 2,-1 1,2 2,0 0,-1 2,-1 2,0 2,1 2,-1 2,0 2,0 0,2 -2,1 -1,-1 -2,1 -2,0 -2,-1 0,2 1,2 1,-1 1,2 2,-1 1,-1 2,0 2,-1 1,2 1,2 1,2 1,-2 0,-1 -1,-2 -1,-2 -1,-2 2,-1 1,2 1,-1 2,0 2,0 1,2 0,1 -2,1 -1,-2 -2,1 1,2 1,2 2,-1 2,-1 1,2 1,2 2,0 1,1 1,-2 -2,-1 1,-1 -1,-2 -2,1 0,-2 1,-1 -2,-1 -1,-2 2,0 2,0 1,2 2,-1 -1,3 2,0 -1,2 1,1 0,2 1,2 -1,1 1,2 1,1 0,2 0,2 0,2 -2,0 -2,0 -2,0 0,-2 -1,-2 2,-1 1,2 1,1 1,-2 -1,-2 -1,-2 -2,1 -1,-2 -2,1 1,2 -1,1 -2,0 -1,-2 1,-1 1,-2 -1,-2 -1,1 -1,2 -1,-2 -2,1 -1,1 2,1 1,2 1,2 -1,2 2,0 2,-1 1,1 1,2 -2,0 -2,0 -1,2 0,2 0,2 -2,1 2,1 1,2 -1,1 0,2 2,0 -1,2 2,2 0,2 -2,0 -2,1 -2,1 -2,0 1,2 0,2 -2,0 -2,1 -1,1"/>
    <path style="fill:none;stroke:#000000;stroke-width:1"
          d="m 571,101 -2,0 0,2 -2,0 -1,-2 -2,1 -1,1 -2,0 1,2 -2,1 -1,-2 -2,-1 0,-2 2,0 2,-1 -1,-2 -2,1 -2,0 -2,1 0,1 1,2 1,2 2,1 -1,1 -2,1 1,2 2,-1 1,1 2,-1 0,-1 2,-1 1,-1 1,-2 1,2 2,-1 1,1 1,2 1,2 2,0 0,-2 -1,-1 -1,-2 0,-2 2,-1 2,-1 1,1 2,-1 1,2 1,-2 0,-2 -2,0 1,-2 1,-1 2,-1 1,1 -1,2 2,0 0,2 -1,1 1,1 -2,1 0,2 -2,0 -2,1 -1,-2 -2,0 -1,1 1,1 0,2 2,0 2,0 2,-1 2,0 1,-2 1,-1 1,3 1,2 -2,0 -2,1 -1,-1 -2,1 0,2 0,2 -1,2 -2,-1 0,-2 1,-1 -1,-2 -1,1 -2,1 0,1 1,2 1,2 1,2 1,-1 2,0 2,-1 1,-1 -1,-2 0,-2 2,0 2,-1 1,1 -1,2 -1,1 1,1 2,-2 1,2 0,2 1,2 2,-1 1,2 1,2 2,1 -1,1 0,2 2,-1 3,0 0,2 0,1 -2,1 -1,-2 -1,2 1,2 -2,1 -1,-2 0,-2 -1,-2 -2,1 0,1 1,2 1,2 -2,1 -1,-2 -1,1 -2,0 -2,1 -1,-1 -1,-2 0,-1 2,-1 1,2 1,-1 2,0 -1,-2 0,-2 1,-2 1,2 2,-1 0,-1 -1,-2 -2,0 -2,0 0,-2 0,-2 -2,0 -1,2 -1,-1 -2,1 -1,1 -2,0 1,2 1,2 2,0 0,-2 1,-1 2,0 1,2 0,2 -2,-1 0,2 -2,1 -1,-1 -2,1 -1,1 -1,1 -2,1 -1,-2 1,-1 -2,-1 -2,1 1,2 -1,1 2,1 1,2 1,2 -1,2 1,2 1,-2 2,-1 -1,-2 -1,-2 2,0 1,-1 1,-2 1,2 1,2 0,2 -2,-1 0,2 2,1 0,1 1,2 1,2 2,1 -1,1 1,2 1,1 2,-1 0,-1 -1,-2 -1,-2 -2,-1 1,-1 -1,-2 -1,-2 2,0 2,-1 1,1 -1,2 0,1 2,-1 2,-1 0,-1 2,-1 1,2 1,-1 1,2 -2,1 -2,0 -2,1 -2,1 1,2 1,2 2,-1 -1,-2 2,-1 1,2 1,-1 2,-1 1,-1 2,0 2,-1 -1,-2 -2,1 -1,-1 -1,-2 2,0 0,-1 -1,-2 2,-1 1,2 1,2 1,1 2,-1 -1,-2 0,-1 -2,-1 0,-2 2,0 2,2 1,2 2,0 0,-2 3,1 2,0 2,0 1,2 -1,1 2,1 -1,1 -2,1 -1,-2 -1,-2 -2,0 0,1 -2,1 -2,-1 -1,2 -2,1 1,2 2,-1 1,-1 2,0 2,-1 1,2 -2,1 -1,1 2,1 2,-1 2,-1 2,-1 2,1 -1,1 -2,1 -2,1 -2,1 -2,0 -1,1 0,2 -1,2 1,1 2,-1 1,-2 1,-1 2,-1 1,1 1,-2 1,2 1,2 -1,1 1,2 1,-1 2,-1 -1,-2 0,-1 -1,-2 -1,-1 2,-1 2,0 -1,-2 -1,-2 -2,0 1,-2 -1,-1 -1,-2 2,0 1,-1 1,2 2,-1 2,-1 -2,-1 1,-1 -1,-2 0,-2 2,0 2,-1 1,1 2,-1 2,0 -1,-2 2,0 2,-1 -2,-1 1,-1 2,-1 2,-1 0,1 -1,2 1,1 1,2 -2,0 -1,1 -2,1 1,2 0,1 1,2 2,0 0,-2 -1,-2 2,0 1,-1 1,2 2,0 1,2 0,2 2,0 0,2 1,2 0,1 -2,1 -1,-2 -2,-1 1,-1 -1,-2 -1,-2 -1,1 -1,2 1,2 1,2 2,1 -1,1 1,2 1,1 2,-1 0,-1 2,-1 1,2 1,-2 0,-2 -1,-2 0,-1 -1,-2 -1,-2 -1,-1 1,-1 2,0 -1,-2 -1,-1 -2,1 -2,0 -1,-1"/>
    <path style="fill:none;stroke:#000000;stroke-width:1"
          d="m 645,125 -1,-2 -1,-2 2,-1 -1,-1 -1,-2 -1,-2 -2,1 -2,1 -2,1 -2,0 -1,1 1,2 -2,0 -1,2 -1,-2 -1,2 -1,-2 -2,1 1,2 -2,0 -2,-1 0,-2 -1,-2 -1,-2 1,-1 0,-2 2,-1 1,1 1,2 -2,0 0,2 1,2 2,-1 0,-1 2,-1 1,2 1,-2 1,-1 0,-2 -2,0 -2,1 -1,-2 1,-1 -2,-1 -1,-2 2,0 1,-1 -1,-2 2,-1 -1,-2 1,-1 -2,-1 2,-1 2,-1 1,1 -1,2 1,2 -1,1 -1,2 1,2 -2,1 1,2 2,-1 1,1 2,-1 1,2 -2,1 1,2 2,-1 2,-1 -1,-2 -1,-2 0,-2 -2,1 -2,0 0,-2 1,-1 2,0 -1,-2 -1,-1 1,-1 2,-1 2,0 0,-1 -1,-2 -1,-2 -2,1 1,2 -2,1 -1,-2 -1,-2 -2,1 -2,1 -2,1 -2,1 0,1 -2,1 -1,-2 -1,2 1,2 2,0 2,-1 1,1 -1,2 -1,1 -2,1 1,2 0,1 -2,1 -1,2 -2,-2 0,-2 2,0 0,-2 1,-2 -2,-1 -1,2 -1,-2 0,-2 1,-1 0,-2 -2,0 0,-2 2,-1 1,1 2,0 2,0 -1,-2 -1,-2 -2,1 -2,0 -2,0 1,-2 0,-1 -1,-2 2,-1 -1,-2 0,-1 2,-1 1,2 0,2 -1,2 1,2 1,-1 2,-1 1,-1 1,2 -1,1 1,2 1,2 2,-1 -1,-2 1,-1 -1,-2 1,-1 2,0 -1,-2 -1,-1 -2,1 -2,0 -2,0 0,-2 -1,-2 -2,-1 -2,0 1,-2 2,0 2,-1 -1,-2 -2,1 0,-2 1,-1 2,-1 -2,-2 2,0 0,-2 1,-2 1,-1 1,2 2,-1 1,-1 -2,-1 0,-2 2,-1 1,2 2,-1 1,-1 -2,-1 0,-2 2,1 2,0 -1,-2 2,-1 1,-2 1,2 -1,2 1,2 -2,1 -1,2 2,0 2,-1 1,-1 2,0 -1,-2 -1,-1 1,-1 -1,-2 -1,-2 2,0 2,-1 1,1 1,2 -2,0 0,2 1,2 1,2 0,1 -2,1 -1,1 2,1 1,2 1,2 1,2 -2,0 -1,1 -1,-2 -1,-2 1,-1 -2,-1 -1,-2 -2,1 0,1 1,2 1,1 1,2 0,1 -2,1 -1,1 2,1 2,-1 1,1 1,2 -2,0 -1,1 1,1 -1,2 2,0 -1,2 -1,1 1,2 2,0 1,-1 -1,-2 2,-1 -1,-2 1,-1 2,0 -1,-2 -1,-1 -1,-2 2,0 1,-1 1,2 1,2 0,1 1,2 2,0 0,-2 -1,-2 1,-2 -2,0 -1,-2 -1,-2 0,-1 -1,-2 -1,-1 -1,-2 2,0 2,1 2,-1 1,-1 0,-2 -2,-1 -2,0 1,2 -2,0 -1,-2 -1,-2 0,-1 2,-1 1,2 2,0 0,-2 1,-1 -1,-2 -2,1 -2,0 -1,-2 0,-1 3,1 1,-1 2,-1 0,-1 1,3 1,2 2,-1 -1,-1 0,-2 1,-1 2,0 2,0 -1,2 -1,1 1,2 -2,1 1,2 -2,1 -1,-2 -2,1 1,2 1,2 2,-1 1,1 1,-2 1,2 2,-1 1,1 -1,2 -1,1 1,1 0,2 2,0 1,-2 -1,-2 2,-1 2,-1 1,2 -2,1 1,2 -2,1 -1,2 2,0 1,2 0,1 -2,1 -1,-2 -2,0 0,2 0,1 -2,1 -1,-2 1,-2 1,-2 -2,-1 -1,1 -1,2 -2,-1 -2,0 0,-2 2,0 1,-1 2,-1 0,-1 -1,-2 -2,0 0,2 -2,0 -1,1 -2,1 0,1 1,2 0,2 2,0 2,1 2,0 1,2 0,2 -2,0 -1,-2 -1,1 0,2 2,1 -2,1 0,2 0,2 -1,2 0,2 -2,0 -1,-2 0,-1 2,-1 -1,-2 -2,1 -1,-2 -1,1 -1,2 1,1 1,2 -2,0 -1,1 1,2"/>
    <path style="fill:none;stroke:#000000;stroke-width:1"
          d="m 645,93 1,2 1,-1 1,-2 1,2 2,-1 1,2 1,2 -2,1 -1,-2 -1,1 -2,0 1,2 1,2 1,-1 3,0 -1,2 0,1 1,2 -1,2 -1,-2 -1,-2 -2,1 1,2 0,1 1,2 1,2 1,-2 2,-1 1,2 -2,1 -1,2 -2,1 1,2 1,2 -2,1 -1,-2 -1,-2 -1,-2 2,-1 -2,-1 1,-1 -1,-2 -1,-2 0,-2 1,-2 -1,-2 -2,0 1,-2 -1,-1 -1,-2 0,-1 -1,-2 -2,-1 -2,0 -2,1 -2,-1 1,-1 2,-1 0,-1 -2,-1 -2,1 -1,-2 2,-1 2,0 1,-1 0,-2 -2,0 1,-2 -1,-1 -1,-2 0,-2 2,-1 -1,-2 -2,1 -1,-2 2,-1 -1,-2 -2,1 0,-2 -2,1 0,2 -2,1 1,2 2,-1 1,2 0,1 -2,0 -2,1 -1,-2 -1,-2 -2,0 1,2 0,2 -2,1 1,2 1,-1 2,0 1,2 -1,1 -1,2 -1,-2 -2,1 0,1 1,2 1,1 2,-1 2,0 0,-2 2,-1 -1,-2 -1,-2 2,-1 1,2 1,-1 1,2 -1,1 1,2 -2,1 -1,1 0,2 1,2 1,2 -2,1 -1,1 0,2 2,-1 2,-1 1,2 1,-1 2,0 2,-1 1,1 -1,2 2,0 1,2 -1,1 1,2 2,1 -2,1 2,1 -1,1 1,2 1,2 0,2 -2,0 -1,-2 0,-1 -1,-2 -1,-2 -2,-1 0,2 1,1 0,2 1,2 0,1 1,2 2,0 2,1 0,1 0,2 2,0 0,2 1,2 -2,1 1,2 2,-1 1,-2 1,2 1,-2 1,-1 1,2 -1,2 2,0 2,-1 -1,-2 -1,-2 0,-1 -1,-2 -1,-1 1,-1 2,-1 1,2 0,2 1,1 1,2 -1,1 2,1 0,1 3,1 -1,2 -2,-1 -2,0 -2,1 -2,0 0,2 0,2 -1,1 1,2 2,-1 0,-2 2,0 -1,-2 2,-1 1,1 1,2 0,1 -2,1 0,1 -2,1 -2,1 0,2 2,0 1,-1 2,-1 1,2 1,-2 0,-2 2,0 2,1 0,1 1,2 1,2 1,-2 2,0 2,-1 -1,-2 -2,0 -1,1 -1,-2 0,-2 -2,0 -2,0 -1,-2 0,-1 2,-1 1,2 2,0 2,1 1,2 2,-1 1,2 1,2 1,2 1,-2 0,-2 2,0 3,1 -1,1 -2,1 0,1 1,2 -2,1 -1,-1 -1,2 0,2 -2,0 -1,-2 1,-2 0,-1 -2,1 -2,1 0,1 -2,1 -1,1 1,2 1,-1 2,-1 1,1 -1,2 2,0 2,-1 1,1 2,-1 2,-1 -2,-1 1,-1 2,-1 1,1 1,2 0,1 1,2 1,2 2,1 -1,1 1,2 0,2 2,0 2,-1 -2,-1 1,-1 -1,-2 2,-1 2,1 -1,1 1,2 1,1 2,-1 0,-1 -1,-2 -1,-2 -1,-1 1,-2 -2,0 1,-2 2,0 0,-2 1,-1 1,2 1,2 0,1 -2,1 1,2 0,1 1,2 1,2 1,2 2,0 0,-2 0,-1 -2,-1 0,-2 -1,-2 2,0 1,2 1,-2 0,-2 2,-1 -1,-2 2,-1 1,-1 -2,-1 1,-2 0,-1 2,-1 0,-2 1,-1 0,-2 -2,0 -2,0 -1,-2 -1,1 -1,2 1,2 2,-1 0,1 -1,2 0,2 -2,1 1,2 -1,1 0,2 -1,2 -1,-2 -1,-2 -1,-2 2,0 0,-2 1,-1 -2,-1 2,-1 -1,-2 -2,1 -2,1 1,2 0,1 -2,1 -1,-2 -1,2 -1,2 0,1 -2,1 0,1 -2,0 0,2 2,1 0,1 -2,1 -2,-1 0,-2 -1,-2 0,-1 2,-1 1,-1 -1,-2 -1,-2 -1,2 -1,2 -2,-1 0,-2 2,-1 1,-2 3,0 0,1 1,2 1,2 1,-2 0,-2 1,-1 2,0 1,-2 2,-1"/>
    <path style="fill:none;stroke:#000000;stroke-width:1"
          d="m 697,131 2,-1 2,-1 1,-2 2,-1 1,-2 -2,-1 2,-2 0,-2 2,0 1,-1 -2,-1 -1,-2 1,-2 1,1 1,2 2,0 1,2 2,-1 0,-1 2,-1 1,2 0,2 1,2 1,-2 2,1 0,1 0,2 1,1 2,-1 2,0 0,-2 0,-1 -2,1 -1,-2 2,-1 2,-1 1,2 1,2 1,-2 0,-1 -1,-2 2,-1 2,1 -1,1 1,2 2,-1 1,2 -1,1 -2,0 -2,1 -2,1 1,1 -2,1 1,2 2,-1 1,-2 2,-1 1,1 -1,2 0,1 2,-1 2,-1 0,-1 -1,-2 2,-2 -1,-1 1,-1 -1,-2 -2,0 -1,-1 1,-1 2,-1 1,-2 -2,0 -2,1 -2,0 -1,1 -2,0 -2,1 -2,1 -2,1 -2,0 -1,1 -2,0 0,-2 1,-1 2,-1 1,1 2,-1 2,-1 -1,-2 -1,1 -2,0 0,-2 2,-1 -1,-2 -1,-2 0,-2 0,-2 -2,0 1,-2 -1,-1 -2,1 -1,1 0,2 2,1 1,2 1,2 -1,1 -1,2 1,2 -2,1 -2,1 0,-2 1,-1 -1,-2 2,-1 -1,-2 1,-1 -2,-1 -1,-2 -1,-2 0,-1 -1,-2 -1,-2 -1,-2 -1,2 0,2 -1,1 -1,-2 -2,1 0,1 1,2 1,2 2,0 -1,-2 2,-1 1,2 1,2 0,1 1,2 1,1 -1,2 -1,1 0,2 1,2 -2,1 -2,0 1,-2 -1,-1 -2,1 -1,-2 -2,1 0,-2 1,-1 2,-1 1,2 2,0 0,-2 1,-1 -1,-2 -2,-1 0,2 -2,0 -2,1 -1,-1 0,-2 2,0 0,-1 -1,-2 -2,0 1,-2 -2,-1 1,-1 0,-2 -2,0 0,-2 0,-2 -2,1 0,-2 0,-2 -2,0 1,-2 2,-1 0,-2 0,-2 -1,-1 -1,-2 -2,1 1,2 -1,1 2,1 -1,1 -2,2 0,-1 -1,-2 -2,0 1,-2 -3,0 0,-2 -3,0 -2,-1 2,-1 2,0 -1,-2 -1,-1 -2,1 -1,1 -2,1 -1,-2 2,-1 1,-1 2,-1 -1,-2 1,-1 1,-2 1,2 1,2 -1,1 2,1 2,-1 1,1 1,2 -2,0 -1,1 1,1 0,2 2,0 1,-2 2,-1 -1,-2 -1,-2 2,-1 0,-2 -1,-1 -1,2 -2,0 -2,0 -1,-2 0,-1 2,-1 1,2 1,-2 1,-1 2,0 2,-1 1,-1 -1,-2 -2,0 -1,2 -1,-1 -2,1 -1,-2 -1,1 0,2 -2,1 -1,-1 -2,1 -1,1 -1,2 -2,1 1,2 -2,0 -1,2 -2,-1 0,2 1,2 -2,0 -1,-2 -2,1 0,1 -3,-1 -2,1 -1,-2 1,-1 -2,-1 2,-1 -1,-2 2,0 0,-2 -1,-1 1,-1 -1,-2 2,-1 1,1 0,2 1,2 1,2 -2,0 0,2 -1,2 2,0 2,-1 0,-1 2,-1 2,0 1,-2 0,-2 2,0 0,-1 -2,-1 1,-2 2,1 2,0 -1,-2 -1,-2 -1,1 -2,0 -2,1 0,1 -1,2 1,2 0,2 -2,0 -1,-2 0,-1 -1,-2 2,-1 -1,-2 -2,1 -2,-1 1,-1 -1,-2 -2,0 -1,2 -1,1 1,1 -1,2 -2,0 -2,1 0,-2 2,-1 -1,-2 -2,0 -1,1 0,2 -2,0 -1,-2 1,-2 1,-1 -1,-2 2,-1 -1,-2 2,0 2,-1 0,2 0,2 -2,1 1,1 2,0 2,0 0,-2 -1,-2 2,-1 2,0 -1,2 1,1 2,-1 0,-2 1,-1 1,2 2,-1 1,2 -2,1 -2,1 1,2 2,-1 1,2 2,-1 1,-1 -2,-1 1,-2 1,-1 1,2 1,2 2,-1 1,-1 -2,-1 -1,-2 3,0 2,1 0,2 1,2 -1,1 -2,0 1,2 1,2 2,0 0,-2 2,-1 -1,-2 -1,-2 2,-1 1,2 2,0 -1,2 1,2 1,-1 2,0 -1,-2 2,-1"/>
    <path style="fill:none;stroke:#000000;stroke-width:1"
          d="m 698,55 1,2 2,-1 -1,2 1,2 2,-1 1,-1 2,0 0,2 -2,1 -2,1 1,2 1,2 -2,0 -1,1 -1,-2 -2,1 1,2 1,2 0,1 -2,1 1,2 2,-1 2,0 0,-2 -1,-2 2,0 1,-1 1,2 1,2 -2,0 0,2 1,2 0,1 1,2 2,1 -1,1 -2,1 -1,-1 -1,-2 0,-1 -1,-2 -1,-1 -2,1 1,2 1,2 1,2 1,2 -2,0 -1,2 1,2 2,-1 1,-1 1,2 -1,1 -2,1 1,2 1,2 2,-1 1,-1 -2,-1 2,-1 2,0 -1,-2 -1,-1 -1,-2 0,-1 2,-1 1,2 2,1 -1,1 1,2 1,2 2,-1 -1,-2 0,-2 -1,-2 -2,-1 1,-1 -1,-2 -1,-2 -1,-1 -1,-2 1,-1 2,0 -1,-2 -1,-1 1,-2 -2,0 -1,-2 0,-1 -1,-2 -1,-1 2,-1 2,-1 1,1 -1,2 0,1 1,2 2,-1 -1,-2 2,-1 1,2 1,1 2,0 -1,2 -2,0 0,2 -2,-1 0,2 1,2 2,-1 2,-1 0,-1 2,-1 1,-1 2,2 -2,1 1,2 1,-1 2,0 0,2 -2,1 1,2 1,1 2,0 -1,-2 2,-1 1,2 1,1 1,2 -2,0 -1,1 1,1 -1,2 1,2 0,2 -2,0 -1,1 -1,-2 1,-1 0,-2 -2,0 -1,-2 3,0 -1,-2 -2,0 -1,-2 -1,1 -2,0 1,2 1,2 1,1 0,2 0,1 -2,1 -1,-2 0,-2 -1,-2 -1,-2 -1,-1 0,-2 2,0 1,-1 2,0 -1,-2 -1,-1 -2,1 -2,1 -2,1 0,1 1,2 1,2 1,2 1,2 0,2 1,2 1,2 -2,1 0,1 -2,0 1,2 1,2 1,-1 2,-1 0,-2 2,-1 -1,-2 2,-1 1,1 1,2 0,1 -2,1 -1,1 2,1 2,-1 1,1 1,2 -2,0 -1,1 1,1 -1,2 1,2 0,1 1,2 1,2 1,2 2,-1 2,-1 1,1 2,-1 0,-1 -1,-2 2,-1 -1,-2 0,-1 2,-1 -1,-2 -2,1 -2,0 -1,1 1,2 1,1 -1,2 -1,1 -2,1 -1,-1 0,-2 2,-1 -1,-2 -2,1 0,-1 1,-2 2,-1 -1,-2 -1,-2 1,-1 -2,-1 -1,-2 2,-1 2,0 0,2 1,2 1,2 -1,1 2,1 2,-1 -1,-2 -1,-2 0,-1 -1,-2 -1,-2 -1,-2 -1,-2 2,-1 1,-1 0,3 2,1 -1,1 1,2 2,0 -1,2 2,1 -1,1 0,2 2,1 0,2 0,1 1,2 -1,2 2,1 -2,1 -1,2 1,2 1,-1 2,-1 -1,3 1,3 -2,1 0,1 1,2 1,2 0,2 -2,1 0,1 1,2 0,2 -2,0 1,2 1,2 -2,1 -1,-2 -1,-2 -2,1 -2,1 -1,-2 -1,2 -1,-1 -2,1 0,1 1,2 2,-1 1,2 0,1 -1,2 -2,1 -1,-1 1,-2 -2,0 -1,-2 0,-1 -1,-2 0,-2 2,0 -1,-2 -1,-1 -2,1 -2,0 1,2 1,2 0,2 -2,0 -1,1 1,2 -1,1 -2,1 -2,1 -1,1 -1,-2 1,-1 2,-1 1,-1 -2,-1 1,-1 1,-2 2,0 0,-2 -1,-1 -1,-2 1,-1 -2,-1 -2,1 1,2 1,2 -1,1 -1,2 -1,-2 -1,-2 0,-2 -2,0 0,-2 2,0 1,-1 2,-1 -1,-2 -2,1 -2,0 -1,1 -2,1 0,1 1,2 -2,1 1,2 2,-1 1,1 1,2 1,2 1,2 -2,0 -1,1 -1,2 2,1 -2,1 1,1 -1,2 -2,1 1,2 1,-1 2,0 1,-2 0,-2 2,1 2,-1 1,2 -2,1 -2,1 -1,2 -1,1 -1,2 -1,-2 -2,1 -1,-2 -1,2 0,2 -1,1 1,2 0,2 2,-1 0,-2 1,-2 1,2 2,-1"/>
    <path style="fill:none;stroke:#000000;stroke-width:1"
          d="m 711,151 1,-1 2,-1 1,-1 -1,-2 2,-1 2,-1 1,2 -2,1 1,1 -1,2 2,0 2,-1 0,-1 2,0 2,-1 1,-2 1,-1 -2,-1 -1,2 -2,1 -1,-1 -1,-2 2,0 0,-1 -1,-2 -2,1 -1,-2 2,-1 2,-1 0,-2 1,-1 1,2 1,2 -2,1 1,2 2,0 1,-1 2,0 2,-1 1,-2 1,2 1,-2 0,-2 -1,-2 0,-1 2,-1 1,2 2,1 -2,1 1,2 -1,2 -1,2 -2,2 -1,-2 -2,1 -1,1 2,1 -1,1 -1,1 -2,1 -1,2 -2,1 -2,1 -2,1 -1,1 -2,1 -2,0 1,-2 -1,-1 -2,1 -1,1 1,2 -2,1 -1,-2 -1,2 -2,0 -1,1 -2,0 -2,1 -1,-1 -2,1 -2,0 1,-2 -1,-1 -2,1 0,2 -2,1 0,-3 -1,1 -2,1 -1,1 -1,-2 -2,1 -1,1 -1,-2 -2,1 -2,0 -2,0 0,-2 2,-1 1,1 2,-1 2,0 -1,-2 0,-1 -1,-2 -1,-2 -1,-2 -2,1 -2,1 -2,0 -2,0 -1,1 -2,0 -1,-2 -2,1 0,1 -2,1 -2,-1 1,-2 2,-1 -1,-1 -1,-2 1,-2 1,-1 -1,-2 -1,-2 -1,2 -1,1 1,2 -2,1 1,2 0,1 0,2 -2,0 -1,-2 0,-2 -2,0 1,-2 2,-1 -1,-2 -2,1 -2,1 0,1 0,2 1,2 1,1 -1,2 0,1 2,-1 1,2 2,-1 1,2 1,2 1,-1 2,0 2,-1 1,2 2,0 -1,-2 2,0 2,1 1,-2 1,2 2,-1 0,-1 2,-1 1,2 0,2 -2,0 -2,1 -1,2 -1,1 -1,-3 -1,1 0,2 -2,0 -1,-2 -2,1 -1,-2 -1,1 -2,0 -3,-1 -1,-2 -2,1 -1,-2 -2,1 -1,-2 -2,0 -2,-1 1,-2 2,1 1,-2 -1,-2 -1,-1 -1,2 -1,-2 -2,1 0,1 1,2 -2,1 -1,-2 -1,-2 -1,-2 -1,1 0,2 -2,-2 0,-2 2,-1 -1,-2 -2,1 -2,2 0,-1 -1,-2 -2,0 -1,-1 2,-1 2,-1 1,2 2,-1 -1,-2 -1,-1 -2,0 -1,-2 0,-1 -1,-2 -1,-1 -2,1 -2,0 -1,1 1,2 2,0 1,-1 1,2 1,2 -2,0 -1,1 -1,-2 -2,1 1,2 -2,1 -1,-2 -2,1 0,1 1,2 1,1 2,-1 2,0 0,3 -1,-1 -2,1 0,1 -2,1 -1,1 1,2 1,-1 2,-1 1,1 1,-2 1,2 0,2 0,1 1,2 1,2 0,2 -1,2 -2,1 -2,0 -2,0 0,-2 -2,0 0,2 -2,0 0,-2 1,-2 2,-1 1,1 1,-2 1,2 1,2 2,-1 -1,-2 0,-1 -1,-2 -1,-2 -1,2 -2,-1 -1,2 -2,1 -2,1 -2,0 -2,1 1,2 2,-1 1,1 0,2 -2,0 -2,0 -2,-1 -2,0 0,-2 2,0 0,-2 1,-1 2,-1 0,-1 -1,-2 -2,1 -1,2 -2,1 0,1 -2,1 0,1 1,2 -3,-1 -1,-2 -2,1 -1,-2 -2,1 -1,-2 -2,-1 2,-1 2,0 -1,-2 -1,-2 2,-1 2,-1 1,2 -2,1 1,1 0,2 0,2 2,0 2,0 -1,-2 -1,-2 2,-1 -1,-2 0,-1 2,-1 -1,-2 -2,1 -2,0 -1,-1 -2,1 0,1 -2,1 -1,-1 -2,1 -1,1 1,2 2,-1 0,2 -1,1 -2,1 -1,-2 -1,-2 -2,1 0,2 -2,0 -2,1 -2,0 -2,1 1,2 2,-1 2,0 2,-1 1,2 1,2 -3,0 0,-1 -2,1 -2,0 -2,0 -2,0 0,-2 0,-1 -2,-1 1,-1 2,-1 1,-1 -1,-2 -1,1 -2,1 -2,0 1,-2 -1,-1 2,-1 2,0 -1,-2 -1,-1 -1,-2 -2,1 1,2 -1,1 -2,1 1,2 -1,1 1,2 0,2 1,2"/>
    <path style="fill:none;stroke:#000000;stroke-width:1"
          d="m 577,153 1,-2 1,2 1,2 -2,0 -2,1 -1,-2 -1,-2 -1,-1 0,-2 0,-1 -2,-1 -1,2 -1,-2 -1,-2 0,-1 -2,1 0,2 1,1 1,2 -1,2 2,0 2,-1 1,2 1,2 -2,1 -1,-2 -1,1 -2,1 -1,-2 -1,1 -2,1 -1,-2 2,-1 1,-2 0,-2 -1,-2 -1,-2 0,-1 2,-1 1,-1 -1,-2 -2,0 -1,2 -1,-1 -1,2 -1,2 2,1 1,2 0,1 1,2 -2,1 -1,2 0,2 -3,0 -1,-1 2,-1 0,-2 -1,-1 1,-1 2,0 -1,-2 -1,-1 -2,1 -2,0 0,2 1,2 0,1 -2,1 1,2 -3,0 -1,-1 1,-1 1,-2 0,-2 -1,-2 -2,1 1,1 -1,2 -2,-1 0,-1 -1,-2 -1,-2 -2,1 1,2 1,2 1,2 1,1 1,2 -2,0 -2,0 0,-2 -1,-2 -1,-2 -1,-2 -2,0 -1,1 1,1 0,2 2,0 0,2 1,2 -2,0 -2,0 0,-2 -1,-1 -2,1 1,2 -2,0 -1,-2 -1,2 -2,0 1,-2 -1,-1 -2,1 0,2 -1,1 -1,-2 -1,-2 -2,1 1,2 -1,1 -3,0 1,-2 -2,0 -2,1 0,1 -3,0 -2,0 -2,0 1,-2 0,-1 -2,-1 1,-1 2,-1 1,-1 2,0 0,2 -2,1 1,2 2,-1 2,-1 0,-1 -1,-2 -1,-2 -1,-2 -2,0 0,2 -2,1 -1,-2 -1,-2 2,0 1,-1 -1,-2 2,0 -1,-2 -1,-1 -2,1 0,2 -1,1 -1,-2 -2,1 -1,1 0,2 2,-1 1,2 1,2 1,2 -2,1 0,2 1,2 0,2 -2,0 -1,-2 0,-1 -2,1 1,2 -2,1 -1,-2 -1,1 -2,1 -3,0 0,-2 -2,0 -2,0 1,2 -3,0 -1,-1 -1,-2 2,0 1,-1 0,-2 1,-2 0,-2 2,0 -1,-2 2,-1 1,2 1,2 -2,1 0,1 -2,1 1,2 2,-1 1,1 1,2 2,-1 1,-2 0,-1 -2,1 -1,-2 2,-1 -1,-2 -1,-2 2,-1 1,2 1,2 1,2 1,2 1,-2 0,-1 2,-1 -1,-2 -2,1 -1,-2 -1,-2 1,-1 -1,-2 1,-1 2,0 2,-1 2,-1 2,-1 0,-1 -1,-2 -1,-2 -1,1 -2,0 1,2 1,1 -2,1 -2,1 -1,-1 -2,1 -2,0 0,2 -1,1 2,1 -1,1 -2,1 -1,-2 -1,1 -2,1 -2,0 -1,2 0,2 -2,-1 -1,-2 2,-1 0,-2 2,-1 1,1 1,-2 -1,-2 -2,1 -2,1 -1,2 -1,1 -1,-2 -2,1 -1,1 2,1 1,2 -1,1 1,1 1,2 2,-1 1,1 0,2 -2,0 -1,1 -2,0 -1,-2 1,-1 -2,-1 -1,-2 1,-2 -2,0 -1,-2 -1,-2 2,0 0,-2 2,1 2,-1 1,-1 2,0 2,-1 1,-1 0,-2 -2,1 -2,1 -2,0 -2,0 -1,1 -2,0 -2,1 0,1 -2,0 0,-3 -2,1 0,2 1,2 -1,2 2,0 1,-1 1,2 1,2 -1,1 -1,2 1,2 1,-1 1,-2 1,2 1,2 -1,1 2,1 1,2 2,-1 1,1 1,2 -2,0 -2,0 -2,0 -2,0 1,-2 -1,-1 -1,-2 -2,1 1,2 0,2 -2,0 -2,0 1,-2 -1,-1 1,-1 1,-2 -1,-1 -1,-2 0,-1 2,-1 -1,-2 -2,1 -1,-2 -1,-1 1,-2 0,-2 -1,-2 0,-1 -3,0 1,2 0,1 1,2 -2,1 1,2 -2,1 -1,2 2,1 1,-2 2,0 0,2 -1,2 2,0 1,2 -2,0 0,2 -1,1 2,1 0,2 -2,0 -1,-1 -2,1 -3,-1 2,-1 2,-1 -1,-2 1,-1 0,-2 -2,1 -1,-2 -2,1 -1,2 2,0 1,2 -1,1 -2,0 0,2 -2,0 -1,-2 -2,1 -1,-2 -1,1 -2,0"/>
    <path style="fill:none;stroke:#000000;stroke-width:1"
          d="m 451,155 -3,-1 2,-1 1,-1 2,0 2,-1 1,2 2,0 -1,-2 0,-2 2,1 1,-2 -1,-2 -1,1 -2,0 -2,1 0,1 -2,1 -1,-1 -2,1 -1,-2 -1,-2 -2,1 -1,2 2,0 1,2 -1,2 -1,-2 -2,1 -1,-2 -2,0 -2,-1 -1,-2 -2,0 0,-2 -3,0 0,-1 2,-1 -1,-2 -2,1 -2,0 1,-2 -1,-1 -2,1 -1,-2 2,-1 2,0 0,-2 -1,-2 2,-1 1,2 1,2 -1,1 0,2 2,-1 1,2 1,2 2,0 -1,2 2,0 1,2 -1,1 2,1 2,-1 -1,-2 -1,-2 0,-1 2,-1 -1,-2 -1,-2 0,-1 2,-1 2,1 -1,1 0,2 2,-1 1,2 0,1 -2,1 -1,1 0,2 2,-1 2,-1 1,2 1,2 1,-1 2,0 -1,-2 -2,-1 0,-2 2,0 0,-1 -1,-2 -2,1 -1,-2 -1,-2 -1,-2 2,-1 -2,-1 1,-1 2,-1 1,2 2,-1 0,2 -1,1 -2,1 1,2 2,-1 1,2 1,2 2,1 -1,1 -1,2 1,2 1,-1 2,0 -1,-2 2,-1 -1,-2 1,-1 2,0 1,2 -1,1 -1,2 1,2 1,2 1,-2 0,-2 1,-1 1,-2 -1,-1 -1,-2 1,-1 -2,-1 -2,1 -1,-2 -1,-2 -1,1 1,2 -1,1 -2,1 -1,-2 1,-1 -1,-2 1,-2 -1,-1 -1,-2 -2,1 -1,-2 -2,1 -1,-2 1,-1 2,0 -1,-2 0,-2 -2,-1 0,2 -1,2 -1,-2 -1,-2 1,-2 2,0 1,-1 1,-2 0,-2 -1,-1 -1,-2 0,-2 2,0 0,2 2,1 1,-2 2,-1 -1,-2 -2,1 -2,-1 1,-1 2,-1 1,-1 -1,-2 -2,0 -1,1 -1,2 -1,-2 -1,-2 2,-1 1,-1 1,-1 1,2 2,-1 -1,-2 2,-1 2,0 0,2 -1,1 1,2 -2,0 1,2 1,1 -1,2 0,1 3,0 1,-1 -1,-2 2,0 -1,-2 -1,-2 0,-2 2,0 -1,-2 -1,-1 2,-1 2,0 -1,-2 -1,-2 2,-1 -1,-2 -2,1 -2,0 1,2 -2,1 2,1 -1,1 -2,1 -1,-1 -1,-2 -1,-2 2,0 1,-1 0,-2 -2,0 -1,-2 -2,1 1,2 -2,1 -2,0 -1,1 0,2 2,0 2,-1 1,2 -1,1 2,1 -1,1 -2,1 -1,-2 -2,-1 -1,2 2,1 -1,2 -1,1 -1,-2 -2,1 -1,-2 -1,2 -1,1 1,2 2,0 1,-1 1,2 1,2 1,2 0,1 -2,1 0,1 0,2 1,1 1,2 1,2 -2,1 -1,-2 -1,-2 -1,-2 -1,-2 1,-2 0,-2 1,-1 -2,-1 -2,1 0,1 1,2 -2,1 -2,0 1,-2 -1,-1 -2,1 -1,-2 -1,-2 -1,2 -1,1 -2,0 1,2 0,2 2,0 1,-2 2,1 -1,1 -1,2 -2,1 -1,1 2,1 -2,1 -2,0 1,2 -2,1 1,2 2,-1 2,0 0,-2 1,-1 2,-1 -1,-2 2,0 0,-2 2,1 0,-2 2,0 1,2 1,2 1,2 0,1 1,2 -2,1 -2,-1 1,-1 -1,-2 0,-2 -2,0 -1,2 0,1 1,2 1,2 -2,1 -1,-2 -1,-2 -1,1 0,2 -2,1 -1,-1 -2,1 1,2 1,2 0,1 -2,1 -1,1 0,2 2,-1 2,-1 2,0 0,-2 -1,-2 0,-1 2,-1 1,2 2,-1 2,-1 1,-1 2,0 1,2 0,1 1,2 1,1 1,2 -2,0 -1,1 1,2 0,2 -2,0 -2,1 -1,-2 2,-1 0,-1 -1,-2 -2,1 0,-2 2,-1 2,0 -1,-2 -1,-1 -2,1 -1,1 -2,0 0,2 1,2 1,2 0,2 1,1 0,2 1,2 1,2 -2,0 -1,-1 -1,-2 -1,-2 0,-1 -1,-2 -1,-1 1,-1 -2,-1 -2,1 -2,1 -2,1"/>
    <path style="fill:none;stroke:#000000;stroke-width:1"
          d="m 426,132 1,2 0,1 -2,1 -2,-1 1,-1 0,-2 1,-2 -1,-1 -2,1 -1,2 -1,-3 1,-1 2,-1 2,0 0,-2 2,-1 0,-2 -2,0 -2,1 -1,2 -2,1 -2,-1 1,-1 2,-1 1,-2 1,-1 2,0 0,-2 -1,-1 -2,1 -1,-2 -2,-1 1,-1 2,-1 1,2 2,-1 -1,-2 2,-1 0,-1 2,-1 -1,-2 -1,-2 0,-1 -1,-2 -1,-2 -1,-2 2,-1 1,-2 2,1 -1,2 -1,1 1,2 2,-1 1,-1 1,-1 -1,-2 -1,-2 0,-2 2,0 2,-1 1,-1 1,-2 1,2 0,2 -2,1 -2,1 0,1 1,2 1,2 1,2 1,-1 2,0 -1,-2 -2,-1 0,-2 2,0 1,-1 0,-2 2,0 2,-1 1,2 1,-2 0,-2 -1,-2 -1,-2 2,0 2,-1 2,0 -1,-2 -1,-2 -1,1 -1,2 -1,-2 -2,1 0,1 -2,1 0,1 0,2 2,0 0,2 -2,1 -1,-1 -1,-2 -1,-2 -1,-2 2,0 0,-2 1,-1 2,0 -1,-2 -2,-1 1,-1 -1,-2 -2,0 -1,1 1,2 1,2 -2,1 0,1 -2,1 -1,2 2,0 1,2 -2,1 0,2 -2,1 -3,0 0,2 -1,1 -2,0 0,2 -2,1 -1,1 0,2 1,2 1,1 0,2 1,2 1,2 -2,0 0,2 -2,1 -1,-2 1,-1 0,-2 0,-2 -1,-2 -1,-2 -1,2 0,2 0,1 1,2 -2,1 1,2 -1,1 2,1 -2,1 0,2 1,2 2,1 -1,1 1,2 -2,1 -1,-2 -2,1 -1,-2 1,-2 -2,0 -2,1 -1,1 -2,0 0,-2 2,-1 -1,-2 -1,-2 2,-1 2,0 -1,2 1,2 2,0 0,-1 0,-2 0,-2 0,-2 -2,1 -1,-2 2,-1 2,0 -1,-2 -1,-1 1,-1 0,-2 -2,0 1,-2 0,-2 -2,0 -1,2 0,2 0,2 -1,1 2,1 -1,1 -2,1 1,2 0,1 -2,1 -1,-1 -2,1 -1,-2 2,-1 1,-1 1,-2 -2,-1 0,-2 2,0 1,-2 0,-3 -2,1 0,2 -2,0 -1,-2 -2,1 1,2 0,1 1,2 1,2 -2,1 -1,1 0,2 0,2 -2,0 1,2 1,1 -1,2 0,1 -2,1 -1,-2 1,-2 -1,-2 -1,-2 2,-1 1,-1 -2,-1 -2,1 -1,-2 -1,-2 -2,0 0,1 1,2 1,2 0,2 2,1 0,1 0,2 0,2 1,2 1,2 2,-1 1,2 2,-1 -1,-2 2,-1 -1,-2 2,-1 -1,-2 1,-1 2,0 1,2 -1,1 -1,2 1,2 -2,1 1,2 2,-1 1,1 -1,2 0,1 2,-1 2,-1 -1,-2 2,-1 1,2 1,2 -1,2 -1,-1 -2,1 1,2 2,0 -1,2 -2,1 -1,-2 -1,-2 -2,1 1,2 0,1 1,2 2,0 2,0 -2,2 -1,2 -1,-2 -1,2 1,2 0,2 -3,0 1,2 -2,1 -1,2 -1,-2 1,-2 -1,-1 -2,1 0,2 1,2 -1,1 -1,2 -1,-2 -1,-2 1,-1 -1,-2 -2,1 0,-2 2,-1 2,0 2,-1 2,0 2,0 0,-1 -1,-2 2,-1 -1,-2 0,-1 -1,-2 -2,0 1,-2 -1,-1 1,-1 2,0 -1,-2 -1,-1 -2,1 -2,0 -1,-1 -2,1 -1,-2 -1,1 0,2 0,2 -2,1 0,1 0,2 2,0 1,-2 1,2 1,-2 0,-1 0,-2 2,0 1,2 0,2 -1,1 -1,2 0,2 2,0 0,-2 2,-1 1,2 -1,2 -2,1 -2,1 -1,-1 -1,-2 -1,-2 -2,1 1,2 -1,1 2,1 -1,1 -2,0 0,2 1,2 -2,1 1,2 2,-1 1,1 -1,2 2,0 1,2 -1,1 -2,1 -1,-2 -1,-2 -2,0 -1,1 -2,1 1,2 2,-1 2,1 -1,1 -2,1 -2,1"/>
    <path style="fill:none;stroke:#000000;stroke-width:1"
          d="m 387,155 -1,-2 -1,-2 -2,1 1,2 0,1 -2,1 -2,0 1,-2 0,-2 -1,-1 -2,1 0,1 -2,0 1,2 1,1 -2,1 -3,0 1,-2 0,-1 -2,1 -1,2 -2,0 -2,0 -1,-2 0,-1 -2,-1 0,3 0,1 -2,0 -1,-2 1,-1 -1,-2 2,-1 -1,-2 0,-1 2,-1 1,-1 2,0 -1,-2 -1,-1 -2,1 -2,0 0,2 -2,0 -1,-1 -2,1 -1,-2 -1,-2 -1,-2 -2,0 0,2 -2,1 0,-2 -1,-2 2,-1 2,-1 1,1 2,0 1,2 0,1 1,2 2,0 0,-2 -1,-2 0,-1 2,0 1,2 1,2 2,-1 -1,-2 1,-1 2,0 1,2 -1,1 2,1 1,2 0,1 1,2 2,0 0,-2 -1,-2 -1,-2 -1,-2 -1,-2 1,-1 3,0 -1,2 1,2 1,-2 2,-1 0,-1 -1,-2 -2,0 1,-2 2,-1 1,2 1,2 1,-2 0,-2 0,-2 -2,0 1,-2 0,-2 1,-1 -1,-3 2,0 1,-1 -1,-2 -1,-2 -1,2 -2,0 1,-2 -1,-1 2,-1 2,-1 0,-1 2,-1 1,2 0,2 -2,0 1,2 1,1 0,2 0,2 -2,1 1,2 -2,1 1,2 1,2 1,2 -2,0 1,2 0,1 -2,1 -1,1 0,2 2,-1 1,2 -1,1 0,2 -2,0 -1,-2 -1,-2 -2,1 -1,2 2,0 1,2 0,1 -2,0 1,2 1,1 -2,1 -2,1 -1,-1 -2,1 -1,-2 -1,1 -2,0 0,2 2,0 1,2 1,2 1,-2 1,-1 2,0 2,-1 2,-1 2,-1 -1,-2 1,-2 1,1 1,2 1,2 2,-1 -1,-2 -1,-2 0,-2 1,-1 1,-2 -1,-1 -1,-2 2,-1 0,-2 1,-2 -1,-1 -1,-2 -1,-2 1,-1 2,0 -1,-2 0,-2 2,0 -1,-2 -1,-2 0,-2 2,0 2,-1 1,1 1,2 -2,0 -1,1 1,1 1,2 0,1 -2,1 0,1 1,2 -2,1 -1,1 2,1 1,2 0,1 -2,1 1,2 0,1 -2,1 1,2 1,2 -1,1 -2,1 1,2 1,2 2,-1 1,-1 -2,-1 2,-1 1,-2 -1,-1 -1,-2 2,0 0,-2 -1,-2 2,0 0,-2 -1,-2 -1,-2 1,-2 0,-2 2,0 0,-2 -1,-2 1,-1 2,0 -1,-2 -1,-1 -1,-2 2,0 -1,-2 -1,-2 -2,1 0,1 -2,0 -2,1 -1,-2 -1,-1 0,-2 0,-1 2,-1 1,2 0,2 2,-1 2,-1 0,-1 -1,-2 -2,1 -1,-2 2,-1 1,-2 2,-1 1,1 2,-1 2,-1 0,2 -1,1 1,2 2,0 1,-1 2,0 -1,-2 -2,0 1,-2 0,-2 0,-2 -2,2 -2,-2 0,2 -2,1 -1,-2 -2,1 0,1 -2,1 -1,2 -2,1 -1,-2 2,-1 1,-2 1,-2 -2,1 -2,1 -1,1 -1,-2 -2,1 -1,-1 -2,0 1,2 1,2 2,-1 1,2 1,2 0,1 -2,0 -1,-2 -2,1 0,1 1,2 2,0 -1,2 -2,1 -1,-2 -1,-2 -1,-2 0,-2 2,0 -1,-2 -1,-2 -1,-2 -1,2 -2,-1 -2,0 1,2 1,2 2,-1 0,2 -1,1 1,2 1,2 1,2 1,1 0,2 -2,1 -1,-2 0,-1 -1,-2 -2,0 1,-2 -1,-2 -1,-2 -1,-1 -1,-2 0,-1 -1,-2 -3,1 1,2 1,1 1,2 -2,0 -1,1 1,2 2,-1 2,0 0,2 -2,1 2,1 -1,1 -2,1 -1,-2 -2,-1 0,-2 -1,-2 -2,1 0,1 -2,0 -1,2 -2,0 0,-2 0,-1 2,-1 2,-1 2,-1 2,-1 -1,-2 -2,-1 0,2 -2,1 -2,1 -2,1 -1,-2 2,-1 2,-1 1,-1 -3,-1 -1,1 -2,1 -1,1 -1,2 2,1 -1,1 1,2 1,2 0,2 2,0"/>
    <path style="fill:none;stroke:#000000;stroke-width:1"
          d="m 354,109 2,1 2,-1 0,-1 2,-1 1,2 2,1 -1,1 1,2 2,0 1,-1 2,-1 2,-1 1,2 1,2 1,2 -1,2 -2,0 1,-2 -1,-1 -1,-2 -2,1 1,2 0,2 -2,0 -2,0 1,-2 -1,-1 -2,1 0,2 -2,0 -2,0 1,-2 -1,-1 1,-1 2,0 -1,-2 -1,-1 -2,1 -2,0 0,2 -2,1 1,1 2,0 0,2 -2,0 -2,0 -1,-2 -1,2 -2,0 1,-2 -1,-1 -2,1 0,2 -1,1 -1,-2 -1,-2 -2,1 1,2 -2,1 -1,-2 -2,1 0,1 -2,1 -1,-2 -1,-2 -1,1 0,2 0,2 2,1 -1,1 -2,1 1,2 2,-1 2,-1 1,2 -2,1 1,2 2,-1 1,2 2,0 2,2 -1,1 1,1 1,2 2,-1 1,-1 2,2 -2,1 -2,1 1,2 0,1 0,2 1,2 1,1 -1,2 -2,0 -1,1 1,2 2,0 1,-1 2,0 -1,-2 2,-1 -1,-2 1,-1 2,0 1,2 -1,1 -1,2 1,2 1,2 2,1 1,-2 -2,-1 0,-2 2,1 0,-2 2,0 1,2 -1,2 -1,2 1,2 0,1 -3,0 -1,-2 -2,1 -2,-1 1,-1 -1,-2 -2,1 0,2 -2,0 -1,-2 -2,1 -1,-2 -2,1 -3,-1 -1,-2 -2,0 -1,-2 2,0 -1,-2 -1,-1 1,-2 1,-1 1,2 2,-1 1,-1 1,2 -1,1 -2,1 0,1 1,2 1,2 2,-1 -1,-1 0,-2 2,-1 2,0 -1,-2 -1,-1 1,-2 -2,0 -1,-2 2,-1 -1,-2 -2,1 -2,1 1,2 -2,0 -1,-1 -2,1 -2,1 1,2 -2,1 -1,1 2,1 -1,1 1,2 -3,-1 -1,-2 -2,-1 1,-2 1,-1 2,0 -1,-2 2,-1 2,-1 2,-1 2,-1 2,-1 1,-1 -2,-1 1,-1 -2,-1 -2,1 1,2 -2,1 -1,-2 0,-2 1,-1 -1,-2 -2,0 -1,1 1,2 -2,0 1,2 1,1 1,2 -2,0 0,1 -2,1 -1,-2 -1,-2 2,0 -1,-2 -1,-1 1,-2 -2,0 -2,1 1,2 -1,1 1,2 0,2 2,1 0,2 -1,1 0,2 -2,0 -1,-2 -2,0 1,-2 2,0 -1,-2 0,-2 -1,-2 -1,-2 1,-1 1,-2 2,-1 0,-1 2,-1 1,2 2,-1 -1,-1 1,-1 1,-2 -1,-1 -2,1 -2,1 -2,1 -1,1 -2,0 0,2 -1,2 -2,1 1,2 1,2 0,1 1,2 -2,1 0,1 -1,-3 -2,0 1,-2 0,-2 -2,0 -1,2 -2,-2 1,-2 2,0 0,-2 -1,-1 -2,1 -2,1 0,-2 1,-1 2,-1 -1,-2 0,-1 -1,-2 -2,0 0,2 1,2 -2,1 -1,-2 -1,-2 1,-1 0,-2 -2,0 -2,-1 1,-1 1,-2 1,-1 -1,-2 0,-1 -1,-2 -1,-2 -1,-1 -2,1 2,2 0,2 1,2 -1,1 -19,4 -2,0 1,2 1,1 0,2 -2,0 -1,-2 -2,1 1,2 1,2 2,0 1,-1 1,2 0,2 -2,0 -1,-1 -1,2 -2,1 -1,-1 -2,1 -2,-1 1,-1 -1,-2 -1,-2 -1,2 -1,1 1,2 1,2 2,1 1,2 -2,0 -1,1 -1,-2 -2,1 -1,-1 -1,-2 2,0 0,-1 -1,-2 -1,-2 2,-1 1,-2 1,-1 -1,-2 -2,0 -1,1 1,2 -2,1 -1,-2 -1,1 0,2 1,2 1,2 -2,1 -1,-2 -1,-1 0,-2 -1,-2 0,-1 -1,-2 -1,-1 -2,1 -2,-1 1,-1 -1,-2 2,-1 1,2 1,-2 0,-2 2,0 0,-2 1,-1 2,0 -1,-2 -1,-1 1,-2 0,-1 0,-2 -2,-1 -2,0 -1,-2 -2,1 -2,0 -1,1 1,1 0,2 -1,2 -1,-1 -1,-2 0,-1 -1,-2 0,-2 -1,-1 2,-1 1,2 2,-1 1,1"/>
    <path style="fill:none;stroke:#000000;stroke-width:1"
          d="m 254,98 2,-1 0,-2 0,-1 -2,1 -2,0 -1,-2 2,-1 2,0 -1,-2 0,-2 1,-2 -1,-1 -1,-2 -2,1 -1,-1 -2,1 -2,0 1,-2 -1,-2 -1,-2 0,-2 -2,0 1,-2 2,-1 1,1 0,2 1,2 0,1 1,2 2,0 0,-2 1,-1 -2,-1 1,-1 0,-2 -2,0 0,-2 0,-2 1,-2 1,2 1,2 1,2 2,-1 1,1 -1,2 -1,1 1,1 0,2 -1,1 1,1 1,2 2,0 1,2 -1,1 -2,1 1,2 0,1 1,2 1,2 1,-2 2,-1 -2,-1 1,-1 -2,-1 2,-1 1,-2 -1,-1 1,-1 2,0 -1,-2 -1,-1 -2,1 -2,0 -1,-2 2,0 -1,-2 -1,-2 2,-1 -1,-2 1,-2 -1,-2 0,-1 -2,1 0,2 -2,0 -1,-2 0,-1 2,-1 -1,-2 -2,1 -1,-1 -2,1 -1,1 -1,2 0,2 -2,0 -2,1 -2,0 -2,1 2,1 -1,1 1,2 1,1 0,2 2,0 0,2 -2,1 2,1 0,2 -1,1 2,1 -1,1 -1,2 2,0 2,-1 1,-1 -1,-2 1,-1 2,0 2,0 -1,2 -1,1 2,1 -2,1 -2,1 1,2 -2,1 -1,-2 -2,1 1,2 1,2 0,1 -1,2 2,0 -1,2 2,1 -1,2 -1,1 3,-1 0,2 0,2 -2,0 0,3 2,0 1,-1 2,0 0,-2 -1,-2 2,0 1,2 2,-1 -1,-2 1,-1 -1,-2 1,-2 1,2 2,-1 1,2 -2,1 1,2 -1,1 -1,2 -2,1 0,1 -2,1 -1,1 -2,0 -2,1 1,2 2,-1 1,2 -2,1 -1,1 2,1 2,-1 1,2 1,-1 2,0 1,2 0,1 1,2 -2,1 -1,-2 -1,-1 -2,1 -1,-2 -2,0 0,2 0,1 0,3 2,-1 1,-1 2,0 0,2 -2,1 -2,1 1,2 2,-1 2,-1 1,2 -2,1 -2,1 -1,2 0,2 2,-2 1,2 1,2 -2,0 -1,1 0,2 3,0 1,-1 2,-1 -1,-2 1,-1 -2,-1 -1,-2 2,0 0,-1 2,-1 -1,-2 -1,-2 0,-1 2,-1 1,2 0,2 2,1 1,-2 1,2 0,2 2,0 2,0 -1,2 0,2 1,2 0,1 -2,1 -1,-1 -2,1 -1,-2 2,-1 1,-1 -1,-2 -2,0 -1,-2 -1,1 0,2 1,1 -1,2 0,2 0,1 1,2 1,1 1,-2 2,0 2,0 2,-1 2,0 2,1 0,1 0,2 1,1 -2,1 0,2 -1,2 -1,-2 -1,-2 0,-1 2,-1 -1,-2 -2,1 -2,0 -1,1 1,2 1,1 -1,2 2,0 -1,2 2,0 1,2 -1,2 2,0 1,2 -2,0 -1,1 -2,0 0,2 -1,2 -1,-2 -1,-2 0,-1 2,-1 1,-1 0,-2 -2,-1 -1,2 -2,0 0,2 -1,2 -1,-2 -1,-2 0,-1 2,-1 2,0 0,-2 1,-1 0,-2 -1,-2 -1,2 -1,-2 -2,1 1,2 0,2 -2,1 -1,-1 1,-2 -2,0 0,-2 0,-1 2,-1 1,-1 -1,-2 -1,1 -2,1 -1,-1 -1,2 0,2 1,3 1,2 -1,1 2,1 1,2 -1,1 0,2 2,-1 1,2 -1,1 -2,1 1,2 -1,1 2,1 1,2 -1,1 0,2 2,-1 1,2 -2,1 0,2 1,1 2,-1 0,-1 2,-1 -1,-2 0,-1 -1,-2 -1,-1 -1,-2 -1,-2 1,-1 2,-1 1,1 -1,2 1,2 1,-2 1,2 2,-1 1,-1 2,0 -1,-2 2,-1 1,2 2,0 0,-1 -1,-2 2,-1 -1,-2 0,-1 -1,-2 -1,-1 1,-1 1,-2 1,-2 1,2 1,2 -1,1 0,2 1,1 2,-1 0,-1 2,-1 0,-1 -2,-1 -1,-2 1,-2 1,2 2,-1 2,0 -1,-2 -2,0 1,-2 -1,-1"/>
    <path style="fill:none;stroke:#000000;stroke-width:1"
          d="m 282,147 2,-1 -1,-2 -2,1 -2,1 1,2 -1,1 -1,2 -1,-2 0,-2 -1,-2 2,-1 -1,-2 -1,1 -2,0 -2,0 -1,-2 0,-1 -1,-2 2,-1 2,-1 1,2 -2,1 1,2 2,-1 2,-1 -1,-2 0,-1 -1,-2 0,-2 2,0 2,-1 2,0 1,-1 1,2 0,2 0,1 -2,0 -1,-2 -2,1 0,1 1,2 2,0 2,0 -1,2 -2,1 -1,-1 -1,2 1,2 2,-1 2,-1 2,-2 0,2 -1,2 1,1 0,2 1,2 -1,1 1,2 1,1 -1,2 -2,0 -1,1 1,2 2,-1 2,0 -1,2 1,2 0,2 1,2 0,2 -2,0 -1,1 -1,-2 -1,-2 2,0 -1,-2 1,-1 -2,-1 -2,0 0,2 -2,0 -2,1 -1,1 -1,2 1,2 1,-1 2,0 -1,-2 2,-1 1,1 1,2 0,1 -2,1 -1,1 -2,1 -1,-1 -2,1 -1,1 -1,-2 -2,1 0,1 -2,1 -1,-1 -2,1 -1,1 1,2 2,1 0,-2 2,0 1,2 0,1 -2,1 1,2 2,-1 2,0 2,-1 -2,-1 1,-2 -2,0 -1,-2 2,0 2,-1 1,2 2,-1 0,-1 2,-1 1,-1 2,-1 1,1 -1,2 -2,1 0,2 2,1 1,2 0,1 1,2 2,0 0,-2 1,-1 -2,-1 1,-1 -1,-2 -2,0 1,-2 2,-1 -1,-2 2,-1 1,2 0,2 -1,1 1,2 1,1 0,2 0,2 -1,2 2,0 0,2 -1,1 1,1 1,2 -2,0 -1,1 -1,2 -2,1 -1,-1 1,-2 1,-2 1,-1 -1,-2 -1,-1 -1,2 0,2 -1,2 -1,-2 -1,-2 1,-2 0,-1 -2,1 -2,1 -1,-2 1,-1 1,-1 2,0 -1,-2 -1,-1 -1,-2 -2,1 0,1 1,2 -2,1 -1,1 -2,1 -1,-1 -2,1 -2,0 -2,-1 0,-2 -1,-2 -1,2 0,2 1,2 -1,2 -2,1 1,2 0,1 1,2 1,2 1,1 2,-1 1,2 1,1 2,-1 -1,-2 0,-1 2,-1 1,1 1,-2 1,-2 -1,-2 -1,1 -1,2 -1,-2 -2,1 -1,1 1,1 -2,1 -2,0 0,-2 -1,-2 2,0 0,-2 1,-1 1,2 2,-1 1,-1 2,0 2,-1 1,2 1,2 2,-1 1,2 1,2 1,2 1,2 -2,0 0,2 1,2 2,-1 0,-1 2,-1 0,-1 2,-1 1,-2 2,-1 1,2 -2,1 -1,2 3,0 1,2 -1,2 -1,-2 -2,0 -2,0 0,2 2,0 1,2 2,0 2,0 -1,2 -2,0 -2,1 -1,-2 -1,1 -2,1 -1,-2 2,-1 -1,-2 -2,1 -1,1 0,3 -1,-1 -1,-2 -1,-2 1,-1 -2,-1 -1,-2 2,-1 0,-2 0,-2 -1,-1 -2,1 1,2 -1,1 -2,1 -1,1 2,1 1,2 0,1 -2,1 1,2 2,-1 1,1 1,2 -2,0 -2,0 -2,0 -2,0 1,-2 -1,-1 1,-1 1,-2 -1,-1 -2,1 -2,0 0,2 -1,2 2,0 0,2 -2,0 -2,0 0,-2 -1,-1 -2,1 1,2 -2,0 -2,0 1,-2 -1,-1 -1,-2 -2,1 -1,-2 2,-1 2,-1 1,2 1,2 2,-1 2,0 1,-1 0,-2 -2,0 -2,1 -1,-2 1,-1 -2,-1 1,-1 -1,-2 -2,0 1,-2 -1,-1 1,-2 1,-1 2,-1 -1,-2 -2,1 -2,0 -1,1 1,2 -2,1 1,2 -1,1 -2,0 0,-2 -1,-2 2,-1 -1,-2 -2,1 -2,1 1,2 0,1 1,2 0,2 -2,0 -1,-2 0,-1 -1,-2 -1,-1 0,-2 -3,0 1,3 1,2 1,2 -2,0 0,2 3,0 -1,2 -1,2 1,2 2,-1 1,-1 -1,-2 2,-1 1,2 1,-1 1,-2 2,-1 1,2 1,-1 1,2 -2,1 -2,-1 0,2"/>
    <path style="fill:none;stroke:#000000;stroke-width:1"
          d="m 257,196 -2,1 1,2 1,2 1,1 2,0 0,2 -2,0 -2,0 -1,-2 -2,1 -2,0 1,-2 2,-1 -1,-2 -1,1 -2,1 -1,1 -12,0 -2,0 1,2 -2,1 -1,-2 -1,-2 2,-1 1,-1 0,-2 0,-2 -1,-2 0,-2 -2,1 -1,-2 1,-1 2,0 -1,-2 -1,-1 1,-1 0,-2 -2,0 1,-2 0,-2 0,-2 -1,-1 -2,1 1,2 -1,2 -1,-1 -1,-2 -2,1 -1,1 2,1 1,2 2,0 0,2 -1,1 2,1 -2,1 0,2 -2,0 -1,-2 1,-1 -2,-1 1,-2 -1,-2 -2,0 1,2 -2,1 -1,1 -2,1 -2,0 -1,1 1,2 1,2 2,-1 -1,-2 2,-1 2,-1 1,2 -2,1 1,2 2,-1 1,2 2,-1 1,1 2,-1 1,2 2,1 -1,1 1,2 -2,1 -1,-2 -1,-2 -2,0 0,1 -2,1 1,2 2,-1 1,2 1,2 1,1 0,2 -2,0 -2,0 1,-2 -1,-2 -2,0 0,2 0,2 -2,0 -2,0 -2,0 0,-2 2,-1 1,1 1,-2 0,-2 -1,-1 1,-1 1,-2 -1,-1 -2,1 -1,-2 -1,2 -1,-1 -2,1 1,2 2,0 1,2 0,1 -2,1 -1,-2 -1,2 -1,1 1,1 1,2 -2,0 -2,0 -2,0 0,-2 2,0 -1,-2 -1,-1 -2,1 0,2 0,2 -2,0 -2,0 -2,0 -2,0 0,-2 -1,-2 -1,2 0,2 -2,0 -2,0 -2,0 -2,0 -2,0"/>
  </g>
</svg>
