<?xml version="1.0" encoding="UTF-8" standalone="no"?>
<!-- Created with the Eggbot TSP art toolkit (http://egg-bot.com) -->

<svg xmlns="http://www.w3.org/2000/svg"
     xmlns:inkscape="http://www.inkscape.org/namespaces/inkscape"
     xmlns:sodipodi="http://sodipodi.sourceforge.net/DTD/sodipodi-0.dtd"
     xmlns:rdf="http://www.w3.org/1999/02/22-rdf-syntax-ns#"
     xmlns:dc="http://purl.org/dc/elements/1.1/"
     xmlns:cc="http://creativecommons.org/ns#"
     height="800"
     width="3200">
  <sodipodi:namedview
            showgrid="false"
            showborder="true"
            inkscape:showpageshadow="false"/>
  <metadata>
    <rdf:RDF>
      <cc:Work rdf:about="">
        <dc:format>image/svg+xml</dc:format>
        <dc:type rdf:resource="http://purl.org/dc/dcmitype/StillImage" />
        <dc:subject>
          <rdf:Bag>
            <rdf:li>Egg-Bot</rdf:li>
            <rdf:li>Eggbot</rdf:li>
            <rdf:li>TSP</rdf:li>
            <rdf:li>TSP art</rdf:li>
          </rdf:Bag>
        </dc:subject>
        <dc:description>TSP art created with the Eggbot TSP art toolkit (http://egg-bot.com)</dc:description>
      </cc:Work>
    </rdf:RDF>
  </metadata>
  <g      transform="translate(1229, 504) scale(1, -1)">
    <path style="fill:none;stroke:#000000;stroke-width:1"
          d="m 190,203 -2,-4 1,-2 3,0 1,-1 2,-2 -3,-1 -3,1 -2,-1 2,-2 -2,-2 -1,-3 3,-1 1,4 1,-1 1,-2 -1,-3 3,1 3,0 2,-1 3,0 2,-1 2,-3 3,-1 3,-1 1,-2 2,-1 2,-1 2,-1 1,-2 -1,-3 -2,1 -1,2 -3,0 -1,2 -2,-1 -1,3 -1,1 -2,1 -3,0 0,3 -2,1 -3,-2 2,-2 0,-2 2,-1 3,0 2,-2 -1,-3 3,0 0,-3 2,-1 1,3 2,-1 0,-3 1,-2 0,-3 1,-2 -1,-3 -2,1 -1,2 0,3 -1,2 -3,1 0,-3 1,-2 -4,2 0,3 1,3 -3,0 0,2 0,3 -3,0 -3,1 1,-3 2,-1 -1,-3 -2,1 -1,-4 -1,-3 1,-2 -1,-3 3,0 1,-2 1,-1 1,-2 3,0 2,-2 -3,-1 1,-2 -3,-1 -1,3 -2,1 -2,2 -1,2 -2,-3 2,-2 -2,-2 2,-1 3,0 0,-3 1,-3 2,-2 1,3 -1,2 3,1 1,-3 0,-2 1,-2 0,-3 3,0 0,-2 3,0 1,3 -1,2 -3,0 -1,3 3,0 -1,3 -3,1 0,3 2,1 1,-2 3,0 0,-3 1,-2 1,-2 1,-2 1,-1 1,-2 3,-1 1,-2 1,-2 -1,-6 -1,2 -1,2 -1,2 -1,2 -3,1 -1,-3 1,-1 1,-2 1,-2 1,-2 1,-2 1,-2 -4,0 1,-2 2,-1 1,-2 -4,-1 -2,1 -1,2 -2,-2 -1,2 -2,2 0,3 2,-2 3,0 2,3 -3,0 -1,2 2,1 -2,2 0,3 -3,0 -2,1 -2,1 -1,2 0,3 -2,-1 -3,0 -1,2 -1,2 -1,2 0,2 -3,0 0,-3 -1,-3 1,-2 2,1 0,-3 2,-1 3,0 1,-2 -2,-2 -2,-1 -1,2 -2,1 -3,2 -1,-3 1,-1 0,-3 2,1 2,-2 -2,-2 2,-1 1,-2 1,-1 3,0 1,3 -3,1 1,3 2,-1 1,3 2,1 2,-2 3,0 0,-2 -2,-1 -3,1 0,-3 2,-1 0,-3 -3,1 -1,-3 2,-1 3,0 1,-2 1,-3 2,1 0,-3 0,-3 1,-2 3,-1 1,3 -1,1 -1,2 0,3 3,-1 2,1 0,-3 0,-3 -1,-3 0,-3 -3,0 1,-3 0,-2 1,-2 -4,1 0,3 -1,3 -1,1 -2,1 -2,1 1,3 -1,1 -1,2 0,3 -2,-1 -1,2 -2,1 -1,-3 1,-2 1,-2 1,-1 1,-2 0,-3 -3,1 -2,-1 0,3 -1,2 -1,2 0,3 -2,1 0,2 3,0 1,3 -3,0 -3,0 -1,2 -1,2 -1,3 -2,-3 1,-3 -2,-3 3,0 2,-1 0,-3 -3,1 -2,-1 2,-2 2,-1 3,0 -1,-3 2,-1 1,-2 0,-3 1,-2 1,-1 3,3 1,-2 1,-2 1,-2 1,-2 1,-3 1,-2 2,-1 0,3 -1,3 -1,3 -1,2 -1,3 3,0 2,-2 0,-3 1,-3 3,0 1,-2 1,-2 -4,1 0,-3 1,-1 1,-2 -2,-2 2,-1 1,-1 -1,-3 0,-3 2,-2 -2,-1 -3,1 0,2 -2,1 -1,2 3,1 -2,2 -1,1 1,3 -3,0 -2,1 -1,2 -2,2 2,1 -2,2 -2,1 1,3 -3,-1 -3,1 -1,2 -2,1 -1,2 3,1 -1,2 -3,0 1,3 -4,2 1,-2 -1,-3 1,-2 -3,-1 2,-2 1,-1 3,-2 1,-2 3,-1 1,-2 1,-2 2,1 0,-3 1,-2 1,-1 3,-2 2,-1 0,-3 1,-4 -2,-1 -1,2 -1,3 -2,2 -1,1 -3,1 -1,2 -1,1 -1,2 -1,2 -1,2 -3,1 -1,2 -1,1 -3,1 0,-4 2,-2 -2,-1 -2,-4 1,-1 1,-2 2,-2 -2,-1 -3,1 -2,-1 -1,2 -2,1 -4,0 1,-2 2,-2 -2,-1 -3,1 -1,1 0,3 -3,0 -3,0 0,-2"/>
    <path style="fill:none;stroke:#000000;stroke-width:1"
          d="m 161,72 3,-1 0,-3 3,-1 2,-1 3,0 1,-2 1,-2 3,-1 2,-1 1,-2 -1,-3 -2,1 -2,1 -1,2 -3,1 -1,2 -2,1 -3,0 -1,2 -3,1 0,2 -2,1 -1,2 0,3 -3,0 1,3 -3,0 1,3 -1,2 1,3 -3,0 1,3 -1,1 -2,1 2,2 -2,1 1,3 -1,2 1,3 -2,3 -2,1 -2,1 3,2 -2,1 1,3 -1,2 0,3 -1,3 -1,3 -1,2 -1,2 0,3 -1,2 -1,2 1,3 -2,3 -2,1 -1,2 0,3 3,-1 -1,4 -3,0 1,3 -1,2 -1,1 0,2 0,3 -2,-1 0,3 -3,0 -2,-1 -1,-3 3,1 1,-3 0,-2 1,-2 2,-2 -3,-1 1,-2 1,-2 1,-1 0,-3 1,-2 2,-1 2,-1 -1,-3 -3,0 -2,1 -1,2 -1,2 0,3 -2,-1 0,3 -1,2 0,3 0,2 -1,2 0,2 -3,0 0,-3 -3,1 0,3 -2,-1 -1,3 -1,1 -1,2 -2,2 0,3 2,-2 2,2 -1,2 -1,2 -3,-1 0,2 -3,0 -2,1 0,2 3,0 3,0 -1,3 3,0 1,-2 1,-2 2,1 0,-3 1,-2 1,-2 2,-1 -3,-2 -2,-1 2,-2 1,-2 2,-1 1,3 -1,2 3,1 1,3 2,-1 2,-1 3,0 -2,3 -1,2 0,3 -1,2 -1,2 -2,1 2,2 -2,1 1,3 -1,3 -1,2 -3,0 1,-3 1,-2 -1,-3 0,-3 1,-3 1,-2 1,-1 1,-2 -3,-1 -2,2 -1,2 0,3 -2,1 1,3 1,3 -1,2 -1,2 0,3 -2,-1 -3,1 0,-3 1,-2 1,-1 1,-2 0,-3 -2,1 -3,0 0,3 -1,2 0,3 -1,2 -4,0 1,-2 1,-2 -1,-3 1,-1 1,-2 -1,-3 -2,1 -2,2 0,3 0,2 -1,3 -1,2 -3,0 1,-3 1,-2 0,-3 0,-3 1,-2 1,-1 -1,-3 1,-2 -1,-3 -2,1 -1,2 -3,1 3,2 -1,2 -2,-1 -1,2 -3,0 -1,2 0,3 0,2 0,3 3,0 0,-3 0,-3 1,-1 3,-1 0,3 -1,2 0,3 -1,3 -3,0 -3,0 -2,-2 0,-3 -3,1 0,-3 1,-2 2,1 0,-3 0,-3 -3,0 -1,2 -2,2 -2,-3 1,-1 1,-2 3,-1 0,-2 -1,-3 -2,1 -1,2 -2,1 -2,2 -1,-4 -3,-2 3,-1 2,1 3,-2 -3,-1 1,-2 2,-1 0,-3 2,-1 3,0 2,-2 -2,-1 -3,0 1,-3 2,-2 0,-3 -3,1 -1,1 -1,3 -1,3 -1,2 -1,3 -2,-2 -2,1 1,3 -1,1 -1,2 -3,-3 1,-2 -3,-1 1,-2 1,-1 3,0 2,-1 1,-1 2,-2 1,-3 -3,0 -1,2 -3,1 -3,1 0,-2 1,-2 2,-1 1,-2 1,-3 3,0 -1,3 3,0 2,-1 -1,-3 -2,-1 2,-2 1,-2 -3,-1 -2,2 -2,2 -2,-1 -1,2 0,3 -2,-1 0,3 -3,2 -1,2 1,3 -1,2 -2,-4 -1,-3 1,-2 2,-1 1,-1 -1,-3 2,-1 1,-2 -3,-2 -2,1 -1,2 -2,2 2,1 -2,2 -1,2 -2,-4 -2,-3 1,-2 2,1 1,-2 3,-2 2,-1 2,-1 3,-2 1,-2 0,-3 1,-2 1,-2 3,1 -1,2 3,2 -2,2 -2,-1 0,3 -1,2 -2,1 -2,2 2,1 3,0 2,-1 1,-2 1,-2 2,-2 0,3 2,2 3,3 1,3 -2,1 0,3 3,1 1,-2 2,3 1,3 -1,2 -1,2 4,-1 2,3 -3,0 -1,3 -1,2 -2,2 -2,-1 -1,2 0,2 3,1 2,-2 3,-1 1,-2 0,-3 3,0 2,4 -2,-1 -1,3 -2,2 -1,1 -2,1 -2,1 0,2 1,3 3,0 0,-2 1,-2 3,-1 1,-2"/>
    <path style="fill:none;stroke:#000000;stroke-width:1"
          d="m 97,167 1,-2 3,0 1,-2 1,-2 -1,-3 1,-2 -1,-4 1,-2 0,-4 1,-2 3,0 0,3 -1,2 0,3 -1,2 4,0 -1,2 -1,2 -1,1 0,2 0,3 -2,1 1,3 3,0 1,-2 0,-3 1,-3 1,-2 1,-2 2,-1 1,-3 2,-2 3,0 2,-1 1,-2 1,-5 -1,2 -3,1 -1,2 -3,0 -2,1 -1,1 -1,3 -3,-1 1,-2 0,-3 0,-2 -1,-3 -3,0 -1,-3 1,-3 0,-3 1,-2 1,-3 3,1 -1,2 0,3 -1,2 -1,3 3,0 1,-2 3,0 1,-2 -3,-1 1,-2 1,-2 2,1 2,-2 0,-3 2,-1 3,0 2,-1 0,-3 0,-3 1,-2 1,-2 3,0 0,-2 1,-2 0,-3 1,-2 -4,2 -1,2 -1,2 -2,-1 -1,3 -1,2 0,3 0,3 -2,-1 -1,2 -3,1 -2,1 1,3 -3,0 -1,-3 -2,2 -2,-2 2,-2 1,-2 -2,-2 1,-3 0,-3 2,1 1,-2 0,-3 -3,0 -3,0 -3,1 -2,-1 -3,1 -4,-1 0,-2 -3,-1 0,3 -3,0 -3,0 -3,0 -2,1 -3,-2 -1,2 -3,0 -3,0 -2,-1 -1,2 -1,2 -1,2 0,3 3,-1 1,-1 2,4 -3,0 -1,2 -2,-1 -1,2 2,2 0,3 -1,2 -1,1 -2,1 -3,0 -1,2 -1,1 -2,1 -4,2 0,-3 1,-1 2,-2 2,-2 2,-1 1,-2 2,1 2,-2 -2,-2 -3,0 -3,2 -2,1 -1,2 -1,2 -3,1 -2,-3 1,-2 2,1 0,-3 1,-1 3,0 2,-1 1,-2 3,0 2,-1 1,-2 0,-3 0,-3 1,-2 1,-2 2,-2 -2,-1 -3,1 -1,2 -2,1 1,3 -1,1 1,3 -1,2 -3,0 0,-3 0,-2 0,-3 -3,2 0,3 0,2 0,3 -2,-1 -1,2 -3,1 -1,2 -2,2 -1,-4 1,-2 3,-1 1,-2 1,-2 0,-2 1,-2 1,-2 1,-2 2,1 1,-2 3,0 1,-2 2,-1 2,-1 0,-2 0,-3 -3,1 -1,2 -3,-1 -2,1 2,2 -2,1 -3,1 -2,1 -1,2 -1,2 -1,2 -1,2 0,3 -2,-1 -1,2 -1,2 -3,-3 1,-2 2,-2 2,-2 -4,1 -3,1 -1,-3 2,-1 3,0 2,-1 2,-1 1,-2 2,-2 3,-1 1,-2 2,-2 -3,-3 -1,2 -1,1 -1,2 -2,2 -3,1 -1,2 -3,0 -1,1 -3,1 -3,-1 1,-2 2,-1 -1,-3 -2,1 -3,0 -1,-3 0,-3 -3,0 0,-3 3,0 0,-2 3,0 1,-2 -3,-1 1,-2 3,0 0,-3 1,-1 1,-2 1,-2 3,-2 0,-3 -3,1 -1,1 -2,1 -1,2 -2,2 0,3 -3,0 -1,2 0,3 -2,1 -1,2 -2,-3 2,-2 0,-3 1,-2 1,-2 2,1 0,-3 2,-1 1,-2 2,-2 -2,-1 -3,1 -1,2 -2,-1 -1,3 -2,2 -1,2 -1,1 1,3 -1,1 -3,-3 0,-3 2,-2 2,-2 1,-2 0,-3 -3,0 -1,2 -1,2 -2,2 -2,-1 1,-3 1,-2 1,-2 3,-1 3,0 0,-3 -3,0 0,-2 -3,-1 0,3 -1,1 -2,1 -1,3 -1,2 -3,-3 2,-2 -2,-2 -2,-1 -2,-3 1,-2 1,-2 4,1 -1,2 -1,2 3,2 1,-2 1,-2 1,-2 3,-1 1,3 2,-1 2,3 2,1 0,-3 -1,-3 3,0 1,3 2,-1 2,-1 1,3 -2,2 -3,0 -1,3 -1,2 0,3 3,-1 2,-1 -1,-3 3,0 1,-2 2,-1 3,3 -3,1 -2,2 3,3 1,-1 1,-2 3,0 0,3 3,0 1,3 -2,1 0,3 -2,1 -1,2 -1,2 -1,2 -1,2 -1,2 -1,3 -2,2 -1,2 0,3 3,-1 1,-2 2,-1 0,-3 3,0 1,-2 -3,-1"/>
    <path style="fill:none;stroke:#000000;stroke-width:1"
          d="m 37,85 2,-2 1,-2 1,-2 1,-2 2,-1 0,-3 2,-1 3,2 -2,2 3,1 -1,2 -3,0 0,3 -2,-1 0,3 -1,1 1,3 -1,1 -1,2 -3,0 1,3 -3,0 -1,2 1,3 2,-1 2,-1 2,-1 1,-2 1,-2 2,-2 0,-3 1,-2 1,-3 3,-1 1,-2 3,2 -1,2 -3,1 -1,2 -1,3 2,1 2,-2 1,-2 3,-1 1,-2 3,2 -1,2 -3,1 -1,2 -2,1 -1,2 3,1 3,-1 1,-2 1,-1 2,-2 4,1 0,3 -2,-1 -1,2 0,3 3,0 2,-2 1,-3 3,1 -1,3 -1,2 0,3 -2,-1 -3,0 0,2 3,1 1,3 3,0 0,-2 1,-3 1,-2 0,-3 3,1 0,2 -1,3 -1,2 3,1 1,-3 1,-3 3,0 -1,3 -1,3 3,0 3,0 -2,-2 2,-1 1,-1 4,2 3,0 1,3 2,-1 4,1 1,-2 3,1 3,0 3,1 0,-3 -2,-2 2,-1 -1,-3 1,-3 2,1 1,-2 3,0 0,-3 1,-2 1,-1 3,0 0,3 0,3 -2,-1 0,3 -2,1 -2,1 -2,1 0,2 0,3 3,-1 1,-3 3,0 2,-1 1,-2 1,-3 0,-3 0,-2 3,0 1,-2 1,-3 3,-1 2,-2 1,-2 2,1 0,-3 1,-2 0,-3 -3,0 -1,2 -1,2 -2,-1 0,3 -1,2 -2,1 -1,-3 1,-2 0,-3 1,-2 3,0 1,-2 -1,-3 0,-3 -1,-3 -1,1 -1,2 0,3 0,2 -3,0 -1,2 0,3 -1,2 -3,0 0,-2 1,-2 0,-3 1,-2 2,-1 1,-2 0,-3 -2,-1 -1,2 -1,2 -3,0 0,2 0,3 -1,1 0,3 -2,1 -1,3 3,0 -1,3 3,0 1,-1 3,0 1,3 1,3 -1,2 -2,-1 -1,-3 -3,0 1,3 -3,0 -3,1 -1,2 0,3 -3,0 0,-3 2,-4 3,-1 1,-2 -3,-1 -1,-3 0,-2 1,-2 -3,-1 -2,-1 0,3 0,2 -4,-1 0,-2 1,-1 -1,-3 0,-2 -3,3 -1,-4 2,-2 3,0 1,-2 2,-2 -3,-2 -1,1 -1,2 -3,0 0,-3 1,-2 3,-1 3,-1 1,3 2,1 1,-2 4,-1 0,2 -2,2 -1,2 0,3 -2,-1 -1,2 -2,2 2,1 3,-1 0,3 3,0 0,-3 1,-2 -1,-3 1,-2 3,0 1,-2 -2,-2 3,-1 2,1 3,1 1,-3 2,3 3,1 -1,-3 3,0 3,0 2,1 3,0 2,-1 2,-1 5,0 -2,2 -1,2 -3,0 -1,2 -3,-1 1,3 -1,2 -3,0 0,-3 0,-2 -3,-1 0,3 0,2 0,3 1,3 2,-1 2,-1 3,0 2,1 0,-3 1,-2 2,-2 3,0 1,-2 1,-2 2,-1 3,0 1,-2 2,4 -2,1 -3,0 -1,2 -1,2 -3,1 -3,0 0,3 0,3 -2,1 -1,2 -3,-3 -1,1 1,3 -1,1 -1,3 3,0 0,3 -3,0 0,2 0,3 0,3 -1,2 -1,2 -1,2 -4,-1 0,-3 2,1 0,-3 1,-1 1,-2 0,-3 -3,1 -2,2 -1,2 -1,3 -3,1 1,3 2,-1 1,3 -3,1 -2,-1 -1,3 -2,2 -3,1 -1,2 -3,1 -2,1 -1,2 -1,2 0,3 -1,2 -1,2 -1,1 1,3 3,-1 1,-2 1,-2 1,-1 -1,-3 1,-2 2,1 0,-3 2,-1 2,-2 2,-1 2,-1 2,-1 1,-2 2,1 1,-2 2,-1 1,-2 2,1 2,2 -1,2 -3,0 -1,2 -2,1 1,3 -1,1 -1,2 -1,3 3,1 -1,2 3,1 -2,2 -1,1 0,3 -2,1 -2,-2 1,-2 0,-3 -3,0 -1,2 0,3 0,2 0,3 3,-1 3,1 -1,2 -3,0 -3,1 -2,-3 -2,2 -2,-1"/>
    <path style="fill:none;stroke:#000000;stroke-width:1"
          d="m 122,127 0,3 -2,1 -1,2 3,0 0,3 -3,0 -1,2 -2,1 -2,1 -2,1 1,3 3,0 1,-2 3,0 1,-2 2,-1 2,-1 1,-2 1,-2 -2,-2 2,-1 3,1 2,-1 3,0 2,-1 1,-2 0,-3 1,-2 1,-2 1,-2 1,-2 0,-3 1,-3 -3,1 -2,-1 2,-2 1,-2 0,-2 1,-2 3,-1 2,-1 -1,-3 1,-3 -3,0 1,-3 1,-2 1,-3 1,-2 -1,-3 3,0 0,-3 0,-2 -1,-3 3,0 0,-3 3,0 0,-3 0,-3 2,1 1,-2 3,-1 1,-2 2,-1 3,0 1,-2 -1,-3 1,-1 2,-2 1,5 1,-2 2,-1 2,-2 4,1 2,-1 3,2 -1,2 -1,1 1,3 -1,1 0,2 -3,0 -3,1 -1,2 -1,2 4,1 1,-2 1,-1 3,0 0,3 3,0 1,-2 -1,-3 0,-2 0,-3 1,-2 1,-2 1,-1 3,3 1,-2 0,-3 3,0 0,3 1,3 -2,1 1,3 -2,2 -2,-1 1,-3 -3,-1 -1,2 0,3 3,2 -1,2 -1,1 -2,2 -2,2 -1,2 -1,2 -1,2 3,2 1,-2 1,-3 1,-2 2,-2 3,-1 1,-2 1,-2 2,1 0,-3 1,-2 1,-2 0,-2 1,-3 -2,-1 1,-2 3,-1 1,3 0,3 -1,2 1,3 2,-1 2,-1 2,-1 0,-3 -3,1 0,-3 1,-1 3,0 1,-2 5,2 -1,1 -2,1 -1,2 1,3 2,-1 1,-2 3,-1 1,-2 2,1 0,-3 4,0 3,0 -1,3 -3,-1 0,3 -2,1 -3,1 -1,1 -1,2 0,3 -2,-1 -1,2 -1,2 3,1 -1,2 -1,2 4,0 1,-2 0,-3 1,-2 0,-3 2,-2 3,-1 1,3 -1,1 -2,1 1,3 2,-1 1,3 -3,1 -2,-1 0,3 4,0 3,0 1,-3 0,-2 -1,-3 2,-1 1,3 3,0 -1,-3 2,-1 0,-2 1,-2 2,-2 -2,-1 -3,1 -1,2 -1,2 -3,0 -2,-2 2,-1 1,-2 1,-2 3,0 2,-1 3,0 3,-1 -1,3 3,0 1,-2 2,-1 1,3 3,-1 1,-2 2,2 0,3 -3,0 -1,1 -1,2 -3,0 0,-3 -3,1 0,3 -2,-1 -1,2 0,2 0,3 -2,-1 0,3 -2,1 -2,1 -2,2 3,1 2,-1 3,2 -1,2 0,3 1,3 3,2 -2,1 1,3 -1,1 1,4 2,-2 2,-1 2,-1 0,-3 -3,1 1,-3 2,-1 1,-2 3,0 1,-1 3,0 2,-1 2,-1 0,-3 -3,1 -3,1 -3,0 -2,1 -3,0 -1,2 -2,1 -1,-3 1,-2 2,-1 3,0 1,-2 1,-2 -3,-1 -2,-1 0,3 -3,0 -2,-1 2,-2 1,-3 1,-2 1,-2 3,0 0,3 -1,2 3,1 3,0 2,2 -2,1 -1,3 3,0 3,-1 1,-2 2,1 2,-2 -2,-2 -3,0 -2,-1 2,-2 3,0 2,1 0,-3 1,-3 2,2 0,3 0,3 0,2 0,3 -2,1 -1,2 0,3 0,2 -1,2 -3,-1 -2,1 1,3 -1,2 -2,-1 -1,-3 -3,0 1,3 -1,2 3,1 -2,2 -3,0 -1,2 -3,0 -1,2 -1,1 1,3 -1,2 0,3 2,3 1,-3 1,-2 1,-1 2,-2 -3,-1 1,-2 3,0 1,-2 3,0 1,-2 2,1 0,-3 2,-1 1,-2 0,-3 3,1 2,-1 0,-3 0,-3 1,-2 1,-1 1,-3 0,-3 2,-2 1,-2 -3,1 0,-3 0,-3 -2,-2 0,-3 -3,1 -3,0 0,3 -2,-1 0,3 -3,0 -2,2 -3,1 0,-2 1,-2 2,-1 2,-1 1,-3 2,-2 -2,-1 2,-2 3,0 0,3 3,0 2,-1 4,-1 -1,1 0,3 1,3 2,1 -1,3 2,1 2,-2 2,-2 -2,-2"/>
    <path style="fill:none;stroke:#000000;stroke-width:1"
          d="m 279,60 -3,-1 1,-2 1,-2 2,1 0,-3 3,2 1,3 -2,1 2,2 1,3 -1,1 -2,1 -2,1 -1,2 3,1 3,0 0,-2 16,7 2,-2 1,-2 2,1 0,-3 1,-2 2,1 2,-2 -3,-2 3,-1 1,-2 1,-1 3,-2 2,-2 3,-1 3,0 1,-2 2,-1 3,0 -1,3 3,0 1,-3 3,1 1,-2 3,-1 3,-1 3,1 -2,2 -1,2 -2,-1 -1,2 -2,1 -3,-1 0,3 -3,0 -1,3 3,0 0,3 -3,0 -2,-1 0,3 -1,2 -2,1 -3,0 -3,1 -2,-1 2,-2 2,-1 3,0 1,-2 -1,-3 2,-1 2,-2 -2,-1 -3,1 -3,0 1,3 0,2 -3,1 0,-4 -2,1 -1,2 -2,2 2,1 -2,2 -2,1 -1,2 3,1 3,-1 0,3 -2,1 -1,2 3,1 0,2 -1,3 -1,2 -1,2 -2,1 -1,2 3,0 3,0 1,-2 1,-2 0,-3 1,-3 0,-3 0,-2 1,-2 2,-1 1,3 -1,2 0,3 3,-1 3,-1 -2,-2 1,-2 -2,-2 3,-1 3,0 0,-2 1,-2 2,1 2,-2 0,-2 0,-3 1,-2 3,-1 -1,3 0,3 3,0 0,-3 1,-2 1,-2 2,-2 1,-1 1,-2 0,-3 2,1 3,0 2,-1 3,0 -1,3 -1,1 -3,0 -2,1 3,2 1,3 -1,2 -1,2 -1,2 0,2 3,-1 1,-2 2,-2 2,-2 -2,-1 -1,-3 3,1 1,-2 2,-1 -3,-2 2,-1 3,0 3,0 1,-1 3,3 1,-2 3,0 1,3 -2,1 -3,1 -1,2 -2,-1 0,-3 -3,0 0,3 -2,1 -1,2 -1,3 3,0 1,-3 3,0 -1,3 -1,3 -2,1 0,2 3,0 3,0 2,-1 0,-3 -3,1 1,-3 2,-1 1,-2 1,-2 3,0 2,-1 1,-1 -1,-3 3,-1 1,3 2,1 1,-2 3,-1 0,3 -1,2 -1,2 -1,1 -1,2 3,0 3,0 0,-2 1,-2 0,-3 3,0 0,3 2,1 -3,2 3,1 -1,2 -3,1 -3,0 -1,2 3,1 0,2 3,0 1,-2 1,-1 2,-2 1,4 -2,2 1,3 2,-1 0,4 -3,-1 -3,0 0,-3 -3,0 -1,2 -2,-4 -1,1 -1,2 -3,-1 0,-3 0,-2 3,0 -1,-3 -3,0 -2,1 -1,2 1,3 -1,1 -3,0 0,-3 1,-3 1,-3 3,-1 0,-3 1,-2 -4,2 -2,1 -1,2 -1,2 0,3 -1,3 -1,2 -3,-1 -3,0 -3,0 -3,0 0,-3 0,-3 -2,-1 -1,2 -2,2 2,1 0,2 -3,0 -3,1 1,-3 -3,-1 -1,2 0,3 -3,1 -3,1 -2,-1 -1,2 -1,2 -2,2 -3,0 1,-3 1,-2 1,-2 2,-2 2,-2 3,0 -1,3 3,-1 1,-3 0,-3 0,-2 1,-2 1,-2 2,-2 -2,-1 -3,1 -1,2 -1,3 0,3 -2,1 -3,0 -1,2 -2,1 -2,1 -1,2 -1,2 -3,-1 1,3 2,1 -2,2 -2,1 -3,1 -2,1 -3,0 0,3 0,3 -1,2 -2,2 -3,0 -3,0 0,3 -1,2 -1,2 -2,2 1,3 2,-1 2,-1 1,-2 1,-2 0,-3 3,0 3,-1 1,-1 1,-2 3,0 1,-2 0,-2 -3,1 0,-3 3,-1 2,1 1,-2 3,-1 2,1 -2,2 -1,2 -1,2 0,2 -1,2 -1,1 -3,0 -1,2 -3,1 -1,1 -3,0 -1,2 -1,3 -2,2 2,2 -2,2 0,3 -1,2 0,3 -2,1 -1,2 3,0 3,-1 0,-2 1,-2 0,-3 1,-2 1,-3 0,-2 1,-2 1,-2 3,0 1,-2 3,-1 2,-1 3,-2 0,3 -1,2 -3,1 -1,1 0,2 1,3 -1,3 3,0 1,-2 0,-3 0,-2 3,0 1,-2 0,-3"/>
    <path style="fill:none;stroke:#000000;stroke-width:1"
          d="m 337,99 1,-2 3,-1 0,3 -1,2 0,3 -1,2 -2,1 -1,2 1,3 2,-1 2,-1 1,-2 1,-2 2,-1 1,-2 1,-2 -4,1 1,-3 2,-1 1,-2 2,4 2,-1 1,-1 2,-2 4,1 0,3 -2,-1 -1,2 -3,1 -1,2 -2,1 0,2 -3,1 -1,2 -2,2 -3,2 -1,2 0,3 3,-1 1,-2 3,2 -1,-3 2,-1 1,-2 1,-2 3,0 1,-2 1,-2 1,-2 3,-1 3,0 1,3 -3,0 -1,1 -1,2 -1,2 -1,2 -3,0 -1,2 -2,2 2,1 3,-1 1,-1 3,2 0,-3 1,-2 1,-2 2,1 0,-3 3,1 0,-2 0,-3 2,-1 -1,-3 -2,1 -2,-1 0,-3 3,0 1,-2 4,0 0,3 -2,1 2,2 3,0 0,-3 1,-1 3,0 0,3 -1,2 4,-2 2,-1 -2,-2 3,-2 4,1 -2,2 2,1 -2,2 -2,2 -3,0 -1,2 -3,0 -2,-1 -1,3 -2,-3 -1,2 -2,1 2,2 -1,2 -2,1 -2,1 -2,1 -2,2 2,1 4,0 1,-2 3,2 2,-2 -2,-1 2,-2 1,-2 2,-1 2,-1 0,3 1,3 -3,0 -1,3 3,-1 0,3 3,0 1,-2 0,-3 0,-2 2,-1 1,-2 -4,0 1,-2 2,-1 2,-1 2,-1 1,-1 1,-2 0,-3 1,-1 2,-2 3,0 -1,3 -2,2 3,1 -2,2 -1,1 -1,2 -3,1 -1,2 4,0 -1,2 -2,1 2,2 3,-1 1,-2 0,-3 2,1 0,-3 1,-2 1,-2 1,-3 -2,-1 2,-2 4,-1 -1,3 3,0 2,-1 3,0 3,0 0,3 -3,0 -3,0 -3,1 -3,0 -1,3 3,0 1,3 3,0 -1,-3 1,-1 3,0 3,0 1,3 -1,3 -2,-3 -1,2 -1,2 -3,0 -1,2 3,1 -2,2 -1,1 -1,2 -1,3 -3,1 0,-2 1,-2 0,-3 1,-2 0,-3 -1,-3 -2,1 0,3 -1,2 -1,1 0,2 0,3 0,3 -1,2 3,1 -1,2 -3,0 1,3 3,0 3,0 0,-2 0,-3 2,2 3,0 1,-2 -3,-1 1,-2 1,-2 2,1 0,-3 1,-2 3,-1 -2,-2 2,-1 3,0 1,-2 0,-3 2,-2 -2,-1 1,-3 1,-3 2,1 0,-3 2,-1 0,-3 3,2 1,-2 2,1 3,-2 -3,-1 0,-2 3,0 1,-2 0,-3 3,-1 0,-3 0,-3 1,-1 0,-3 3,0 0,-3 -3,0 -3,0 0,3 -1,2 -2,2 2,1 0,2 -2,1 -1,3 -2,-2 -3,0 0,-3 3,0 0,-2 1,-3 1,-2 1,-2 0,-3 -3,1 -1,3 -1,3 -2,2 -2,1 0,3 -3,-2 0,-3 1,-2 3,0 1,-2 1,-3 -3,0 -1,2 -3,0 -1,2 -1,3 -2,-3 1,-3 1,-2 -4,-1 1,-2 3,-2 -2,-2 3,-1 1,-2 1,-3 2,-1 1,-2 1,-1 3,-1 2,1 -2,2 -1,2 -1,2 -3,0 0,3 -1,2 -1,2 -2,2 2,1 3,-1 1,-3 1,-3 3,0 1,-2 1,-2 1,-2 1,-3 2,-2 -2,-1 -3,0 1,-3 -3,0 -2,2 -2,-1 -1,2 -2,2 -1,2 -3,0 0,-3 0,-3 2,1 1,-2 0,-3 -3,1 -3,0 0,3 0,3 -2,-1 -3,-2 1,-2 1,-2 1,-2 -1,-3 -2,1 -1,2 -1,2 -1,2 -3,-3 1,-2 1,-2 3,-2 3,-1 1,-3 1,-3 2,1 0,-3 1,-2 1,-2 2,2 3,-1 -2,-2 2,-1 -1,-3 -3,0 -1,2 -2,-1 -1,3 -2,2 -1,2 -1,3 -1,2 -1,2 -3,1 -1,1 -2,1 -1,2 -2,-4 2,-2 -2,-2 1,-2 3,0 1,3 2,-1 0,-3 2,-1 1,-4 2,-1 1,-2 0,-3 -3,0 -1,2"/>
    <path style="fill:none;stroke:#000000;stroke-width:1"
          d="m 407,16 -2,2 1,3 -2,1 -3,0 -1,1 -3,0 1,-3 3,-1 1,-1 -1,-3 3,0 1,-3 2,-1 3,0 -1,-3 3,0 3,-1 0,3 -2,1 1,3 3,-1 1,-3 0,-2 -1,-3 4,1 0,-3 3,1 3,0 -1,3 -2,1 -2,1 0,2 -2,2 2,1 3,0 1,-2 1,-2 3,0 2,-1 1,-1 -4,-1 2,-2 0,-2 3,0 1,3 2,-1 1,-1 1,-2 5,0 -1,2 -1,1 -1,2 0,3 -2,1 -1,-3 -2,2 -3,2 -3,1 -1,2 -2,2 -3,0 0,2 0,3 0,3 -2,1 -3,0 -2,1 0,3 -2,1 -2,2 2,1 -2,2 1,3 2,-1 3,1 -1,-3 3,0 2,-1 0,-3 -3,0 -2,1 2,-4 3,0 2,-1 3,0 -1,-3 3,-1 -3,-1 1,-2 1,-1 1,-2 2,-2 2,-1 2,-1 2,-1 1,3 -1,2 -3,0 -1,2 -1,1 0,2 4,-1 2,-1 3,0 0,-2 1,-1 -1,-3 1,-1 1,-2 0,-3 2,1 0,-3 1,-2 1,-1 1,-2 5,-1 -1,2 -1,2 -1,2 -2,2 2,1 -2,2 -2,2 -1,2 1,3 2,-1 1,-2 2,-1 1,-1 1,-2 0,-3 1,-2 1,-2 1,-2 4,-1 -1,2 0,3 -2,2 -1,2 0,3 -1,2 -3,2 -1,2 -1,2 -1,1 -4,-2 0,2 -3,1 -3,0 -2,1 -2,1 -3,0 -1,1 -1,2 -1,2 -3,0 -1,2 3,1 -3,1 1,3 -3,0 -2,1 0,3 3,0 2,-1 3,0 0,-2 1,-2 3,3 -1,2 1,3 2,-1 2,2 3,0 2,2 1,-3 2,2 2,-2 2,1 2,2 -3,1 -3,1 -2,1 -2,1 1,3 2,-1 3,0 1,-2 3,-1 3,-1 0,3 -2,1 -2,1 -1,2 -3,0 -3,1 -1,2 -3,0 -1,1 -3,1 -2,-1 2,-2 1,-2 3,0 0,-2 -1,-3 1,-3 -3,0 -1,2 0,3 -2,-1 -1,3 -1,2 -1,3 -2,1 -2,1 -1,2 3,0 3,-1 3,1 0,2 3,0 0,-3 3,0 0,3 2,1 1,-2 0,-3 2,-1 1,-2 3,0 -1,3 -1,2 0,2 -1,2 3,1 2,-2 0,-2 0,-3 1,-2 0,-3 2,-2 3,0 0,-3 1,-2 3,0 1,-2 -3,-1 -3,0 -2,-1 2,-2 3,0 3,-1 1,3 2,-1 1,-2 3,0 3,-1 2,1 -2,2 -1,2 -2,-1 -1,2 -3,1 2,2 0,3 -3,1 0,-3 -3,1 -1,1 1,3 -1,1 -3,0 -2,1 -1,3 3,-1 3,0 -1,3 -2,1 -3,0 1,3 3,0 2,-1 3,0 3,0 2,-2 -3,-1 -3,0 1,-2 1,-2 1,-2 2,-1 1,3 -1,2 3,1 1,-3 -1,-3 3,0 2,-1 1,-3 1,-2 -4,2 -3,1 0,-2 1,-2 3,0 1,-2 1,-2 2,1 0,-3 1,-1 2,-2 3,0 2,-1 1,-1 0,-5 1,-2 1,-2 0,-3 -3,0 -1,2 -1,1 -3,-3 0,-2 3,0 2,-1 3,0 1,-1 1,-2 2,-1 3,0 1,-1 2,-2 -3,-2 -1,1 -2,1 -3,0 -2,2 -2,2 -3,0 -2,1 -3,1 -1,1 0,2 -4,-1 -3,-1 -3,-1 -4,0 1,-2 2,-1 2,-1 -3,-2 2,-1 1,-3 -3,0 -2,-1 -1,2 0,3 -1,2 -1,2 -2,1 -4,0 1,-2 1,-2 2,-1 1,-2 0,-3 1,-2 1,-2 1,-2 1,-2 1,-2 2,-1 3,0 0,3 -3,1 -1,2 0,3 3,0 1,-2 1,-1 3,0 -1,-3 0,-2 3,1 4,1 0,3 -2,-1 -1,2 0,2 -3,0 -2,2 2,1 -2,2 -1,1 1,3 0,3 3,0 1,-2 2,-1 -3,-2"/>
    <path style="fill:none;stroke:#000000;stroke-width:1"
          d="m 475,18 2,-1 0,-3 3,0 1,-2 2,-1 1,-1 -1,-3 3,1 1,-2 3,3 0,3 -2,-1 -1,2 -3,1 -1,2 -3,1 1,3 2,-1 3,0 1,-2 1,-1 3,-1 2,-1 0,-3 1,-2 2,4 2,-1 4,1 -2,2 2,1 4,1 0,3 -2,-1 -1,2 -2,1 -3,2 -3,0 -1,2 -1,2 0,3 -1,3 -1,3 0,2 0,3 -1,2 0,3 3,0 1,-2 1,-1 2,-1 2,-1 1,-3 1,-2 1,-2 1,-2 -1,-3 -2,1 -1,2 -1,2 -1,2 0,3 -3,0 0,-3 1,-3 1,-3 1,-2 1,-2 3,0 1,-2 2,1 1,-2 3,-1 2,-2 0,3 -2,2 -1,2 -2,1 0,3 3,0 2,-2 1,-2 1,-2 1,-3 3,4 -1,2 -1,2 3,1 -3,1 -3,0 0,2 1,3 0,3 -1,2 -3,1 -1,-3 1,-1 1,-2 -1,-3 -2,1 -2,2 0,3 -2,1 3,2 -2,1 -2,1 -3,0 -2,2 0,3 -3,-1 -3,0 -2,2 -1,3 1,3 -1,1 -1,2 -1,2 0,2 3,0 1,-2 2,1 3,0 3,-1 3,0 0,-3 -3,0 -2,-1 -1,2 -3,0 0,-3 2,-2 -3,-1 1,-2 3,0 2,1 1,3 3,0 2,1 1,-2 2,-2 1,-3 -3,0 -1,2 -3,1 0,-3 1,-2 3,-1 3,0 2,-1 3,0 1,-1 2,-2 1,-3 1,-1 -1,-3 1,-1 3,-1 0,3 1,3 -1,2 -2,1 3,2 -1,2 -3,-1 -1,2 -3,1 -3,0 1,3 -2,1 -1,3 -1,2 -2,2 -1,2 3,-1 3,-1 1,-2 0,-3 3,0 0,-3 2,1 1,-2 2,-1 3,0 -2,3 -1,2 -1,2 -1,2 -2,-1 -1,2 -1,2 -3,1 -2,1 -3,1 -3,0 -3,0 -1,1 -3,0 -2,1 -3,0 -3,0 -3,0 -1,1 -3,0 -3,1 0,-3 1,-3 2,2 3,-1 -2,-2 1,-1 1,-2 1,-2 1,-2 0,-3 1,-2 1,-2 1,-2 0,-3 -3,1 -1,2 -1,2 -1,2 0,3 -1,2 -1,2 -2,2 -2,1 -1,3 -1,3 0,3 -2,-1 -1,2 -3,0 -3,0 -2,1 -3,0 -3,0 -2,-1 -1,2 -3,0 0,2 -3,0 0,-3 -2,-1 -1,2 0,3 -3,0 1,3 -2,1 2,2 -2,1 1,3 -3,0 -1,1 2,2 -3,1 1,3 2,-1 2,2 1,-3 1,-2 1,-2 1,-2 2,1 1,-2 0,-3 -3,1 0,-3 2,-1 3,0 3,2 -1,2 -1,1 1,3 -1,1 0,2 1,3 3,2 -3,1 -1,2 3,1 2,-1 2,-1 3,1 0,2 -1,2 0,2 3,0 1,-3 0,-3 0,-2 -4,-1 1,-2 0,-3 2,1 2,-2 0,-3 -2,1 -3,-2 -1,1 -1,2 0,3 -1,2 -2,-1 0,-3 0,-3 1,-2 1,-2 3,0 3,1 3,0 5,-1 -1,2 -2,2 2,1 -2,2 -1,3 -2,2 2,1 3,0 2,-2 -2,-1 2,-2 1,-2 1,-2 1,-1 3,0 0,3 3,0 0,-3 0,-2 4,0 1,3 -2,1 0,2 3,0 0,3 3,0 -1,3 -3,0 -2,2 -3,0 -2,1 -1,-3 2,-1 3,0 1,-2 -3,-1 -3,0 -2,-1 -1,2 0,3 -2,2 -2,1 -3,0 0,2 -1,2 -1,2 3,0 3,0 0,-2 1,-1 3,-3 0,2 0,3 0,2 4,1 0,-2 -1,-3 3,0 2,-1 3,0 1,-2 3,0 1,-2 1,-2 0,-3 0,-2 -3,0 -1,-3 3,0 3,0 1,3 3,0 -1,3 -2,1 0,3 -1,2 -1,2 -3,1 -2,1 -1,2 -3,-1 -2,1 1,3 3,-1 0,3 3,-1 0,3 3,3 3,0 3,-1"/>
    <path style="fill:none;stroke:#000000;stroke-width:1"
          d="m 499,112 2,-2 -2,-1 2,-2 0,-3 -3,0 -1,1 -1,2 0,3 -3,0 0,-2 -1,-3 1,-1 1,-2 3,-1 3,0 1,-3 -3,0 1,-3 1,-1 1,-3 2,1 0,-3 3,1 3,3 -3,0 -1,2 -2,1 3,2 -1,2 -2,1 1,3 3,-1 2,-2 1,-1 -1,-3 1,-1 4,1 -1,2 0,3 -1,2 -3,0 -2,2 -1,2 -2,-1 0,3 0,3 -2,1 -2,1 -2,1 -3,0 1,3 3,0 2,-1 3,-2 1,3 -1,2 1,3 2,-2 1,-3 2,-1 0,-3 -3,1 0,-3 1,-2 2,1 0,-3 1,-2 3,0 2,-1 0,-2 0,-3 2,1 2,3 0,2 -1,2 3,1 0,2 -3,0 -2,1 -1,-3 -3,0 1,3 -1,2 0,3 3,-1 1,-1 3,0 2,-1 3,0 0,3 0,3 0,3 0,3 -1,2 -1,2 -1,2 -1,2 -1,2 0,3 0,3 2,1 1,-2 0,-3 1,-3 3,1 -1,2 0,3 3,-1 1,-2 1,-2 3,0 3,0 3,0 3,1 1,-2 3,3 1,-2 2,1 1,-3 3,0 3,-1 0,-3 1,-2 2,-1 0,-3 1,-2 2,-1 1,-2 3,0 0,-3 1,-1 1,-2 2,4 1,-2 2,-1 1,-2 2,1 0,-3 3,-1 2,-1 0,-3 -3,0 -2,2 -3,0 -1,2 -2,2 -2,-1 1,-3 1,-2 2,-1 3,0 1,-2 -3,-1 1,-3 2,1 0,-3 1,-3 -3,0 -2,-1 0,3 -1,3 -1,2 -1,2 -3,0 0,2 0,3 -2,-1 -1,2 -1,2 3,1 -2,2 0,3 -3,1 -2,1 -1,2 -1,2 0,3 -2,-1 0,-5 -1,-3 1,-1 3,0 2,-1 1,-1 -1,-3 -3,1 -3,1 0,-2 1,-2 -3,-1 2,-4 -2,1 -1,-3 3,-1 2,1 0,-3 1,-2 1,-2 3,0 0,-2 1,-1 1,-2 0,-3 1,-2 0,-3 -2,-2 -1,3 -1,2 -4,-1 1,-2 0,-3 2,1 0,-3 2,-1 0,-2 1,-2 -1,-3 2,-1 3,-1 1,-2 1,-1 -3,-3 -1,2 -1,2 -3,1 -1,4 -1,2 -1,2 -2,2 -2,-1 -1,2 -2,2 4,1 -1,1 0,3 0,2 2,2 3,-1 2,1 -2,2 -1,2 -2,1 -1,2 -1,3 -3,0 1,-3 1,-3 1,-2 -4,2 0,-3 1,-2 0,-2 0,-3 -3,1 0,-3 0,-3 1,-2 1,-1 -1,-3 1,-2 0,-3 -3,1 -1,2 0,3 -1,2 -4,0 1,-2 1,-2 0,-4 -1,1 -2,1 -1,3 -1,2 -3,0 -2,-4 2,1 2,-2 -2,-2 -2,-1 -1,-4 1,-3 1,-2 -3,-1 2,-2 3,1 3,-2 0,3 -1,2 -1,2 -1,2 -1,2 3,2 1,-2 1,-2 1,-2 2,-1 2,-2 -3,-1 1,-2 3,-1 4,1 0,3 -2,-1 0,3 -1,2 -2,1 -2,2 2,1 3,0 2,-1 1,-2 1,-2 1,-3 0,-3 3,3 1,-2 1,-2 4,0 0,3 -2,1 -1,2 -2,2 -2,-1 -1,3 -1,2 1,3 -1,2 -1,3 3,0 1,-2 1,-3 0,-2 1,-1 2,-1 1,-1 1,-2 1,-2 3,0 -1,-3 1,-1 3,2 2,-1 1,-1 4,-2 1,3 -2,1 -3,2 -2,1 -1,2 3,1 2,-1 2,-1 1,-2 3,0 3,1 0,-3 -3,-1 1,-2 2,-1 3,3 2,-1 2,-1 1,3 -1,2 -3,0 -1,1 0,3 -3,0 -2,-1 -3,1 3,2 -2,1 -1,2 -2,1 -1,-4 -2,1 -1,2 -1,2 -2,1 -3,0 1,3 -1,2 0,2 -1,2 3,1 2,2 -1,2 -1,1 1,3 -2,1 0,3 -1,2 -1,3 -3,1 -1,2 -1,2 -1,3 -2,2 2,1 3,0 0,-3"/>
    <path style="fill:none;stroke:#000000;stroke-width:1"
          d="m 561,105 2,-1 0,-2 1,-2 3,0 0,-3 2,1 0,-3 1,-1 -1,-3 2,-1 0,-3 1,-2 1,-2 2,-1 0,-3 1,-2 0,-3 -2,-1 -1,2 -1,2 0,3 -2,-1 -2,-3 1,-2 1,-2 3,-2 3,1 2,-1 2,-2 3,0 0,-2 2,-1 1,3 3,0 -1,-3 0,-2 1,-2 3,0 -1,3 2,3 -1,2 0,2 1,3 -3,0 -1,-3 -3,0 1,3 -3,0 -1,-3 -2,1 -1,2 -1,2 1,3 -2,2 3,1 -2,2 -1,1 -3,1 -1,2 1,3 3,0 0,-2 1,-1 3,-1 0,3 0,3 -1,2 -1,2 4,0 -1,2 -3,1 0,3 2,-1 3,0 0,3 1,3 -1,1 2,3 -3,0 -1,1 -3,0 -1,3 -1,2 -3,0 -1,2 -2,2 -2,-1 -1,2 -3,0 0,2 -3,1 0,3 -1,2 0,3 -2,-1 0,3 0,3 3,0 1,-2 1,-3 1,-2 0,-3 1,-1 3,-1 1,-1 3,-1 2,-2 2,-2 3,0 1,-2 0,-3 3,0 3,-1 0,3 3,0 1,3 -2,1 -2,1 -1,-3 -2,-1 -1,3 -2,2 -3,0 -1,2 -1,1 -3,1 -1,2 -3,0 0,2 -1,2 -2,2 0,3 -1,2 -2,1 1,3 2,-1 3,-1 1,-1 -1,-3 1,-2 2,1 0,-3 1,-2 3,0 0,-2 1,-1 3,-1 1,-2 3,0 1,-2 2,1 0,3 -3,1 -1,1 -3,1 0,3 2,1 1,-2 3,0 1,-2 3,0 0,-3 0,-2 1,-3 3,0 2,2 -3,1 0,3 3,-1 1,3 -1,1 -2,1 -1,1 -3,0 -1,2 -3,0 -1,2 -2,1 -2,2 -1,3 -1,2 -1,2 -2,2 2,1 3,-1 1,-3 1,-3 1,-2 2,-1 2,-2 3,0 1,-2 3,0 2,-2 3,-1 0,-3 -1,-3 1,-1 3,2 5,0 -1,1 0,2 -3,0 -1,2 3,1 3,0 2,-1 1,-2 3,0 -1,3 -2,2 -2,1 -3,0 0,2 0,3 3,-1 2,-1 3,-1 1,-2 1,-2 1,-2 2,1 0,-3 3,-1 0,3 3,0 0,-3 0,-3 1,-2 1,-2 1,-2 1,-3 1,-3 -3,0 -1,2 -1,2 -1,2 -1,2 -3,-4 1,-1 2,-2 -3,-1 -3,-3 1,-3 2,1 1,3 3,0 0,-2 2,-1 2,-1 0,3 3,0 0,-3 1,-1 1,-2 1,-2 3,-1 1,-2 0,-3 -3,1 -1,2 -3,1 -1,2 -2,-1 0,3 -3,0 -2,2 -3,-1 1,-2 1,-1 3,-1 -1,-3 -2,1 -3,0 -1,2 -1,3 -2,-3 0,-3 -1,-3 1,-1 0,-3 0,-2 1,-1 2,-1 1,3 -1,3 0,3 3,0 0,-3 1,-2 1,-2 -2,-2 1,-2 1,-2 1,-2 1,-2 1,-2 2,1 -1,-3 2,-1 3,-1 1,-2 1,-1 3,-1 2,-1 2,-2 3,0 0,3 -2,1 -2,1 -3,1 -1,2 -1,2 -3,0 -1,2 3,1 -1,2 -3,0 -3,1 0,3 -2,2 2,1 0,2 -2,2 -1,3 3,0 0,3 3,-1 1,-1 1,-2 -3,-1 2,-2 -1,-3 0,-3 1,-1 3,0 2,-2 1,-3 2,1 0,-3 1,-2 1,-1 3,-2 3,0 0,-3 1,-1 1,-2 0,-3 -3,1 1,-3 2,-1 3,0 -1,-3 2,-1 2,-2 -2,-1 -3,1 -3,0 1,3 -3,0 -1,2 0,3 -2,-1 -1,2 -2,2 -3,1 -3,0 -1,1 -2,2 -1,2 -3,1 1,-4 -2,-1 -1,2 -1,2 -2,1 2,2 -2,1 -2,1 3,2 -2,1 -2,2 2,1 -2,2 -3,0 -2,1 2,-4 1,-3 -1,-3 1,-1 2,-2 -1,-3 1,-1 3,0 -1,-3 3,-1 1,-2 0,-3 3,0 3,-1 2,-1"/>
    <path style="fill:none;stroke:#000000;stroke-width:1"
          d="m 634,61 1,-2 2,-1 2,3 -2,1 -2,2 -3,1 -3,1 0,3 2,-1 3,-1 3,0 2,-1 1,-2 2,-2 1,-2 0,-2 -3,0 -1,-3 3,0 2,-1 2,4 1,-2 2,-1 0,-3 3,3 1,-2 1,-1 3,0 0,3 3,0 1,-2 1,-2 4,0 -1,2 -1,2 -1,2 -3,1 -1,3 3,-1 3,-1 2,-2 1,-3 1,-3 2,1 0,3 -1,2 1,3 -3,0 -2,2 -1,1 1,3 3,3 1,-2 2,-1 -3,-2 2,-1 3,0 1,-2 1,-3 -3,0 1,-3 1,-1 -1,-3 3,0 1,3 3,-2 0,3 0,3 -2,-1 0,3 -1,2 -1,2 -2,2 0,3 -2,1 -2,1 0,2 -1,2 -4,0 0,-2 1,-1 -1,-3 -3,1 -1,2 1,3 -1,2 -3,1 -2,2 -3,-1 2,-2 2,-2 1,-1 -1,-3 1,-1 1,-2 2,-1 1,-1 -1,-3 -3,1 -2,-1 0,3 -2,1 -1,2 1,3 -1,1 -1,2 -1,2 -1,2 -3,0 -2,1 2,2 -2,2 -2,-1 0,3 -2,1 -1,2 -2,1 -2,1 -2,1 3,2 -2,1 1,3 3,-1 2,1 0,-3 -1,-3 3,0 1,-2 2,-1 1,-1 1,-2 2,-1 0,-3 3,0 0,3 -2,3 -1,2 1,3 -1,2 -3,-3 -1,2 -2,1 1,3 -1,2 -1,2 -1,1 -1,3 -2,2 -1,1 -1,2 -1,2 -1,2 -1,2 -1,3 -1,3 -1,3 3,0 1,-3 1,-2 1,-2 3,-1 -2,-2 2,-1 0,-3 2,-2 2,-1 0,-3 2,-2 1,-2 1,-2 0,-3 2,1 2,3 -1,2 -1,2 3,2 0,3 -2,1 -1,-3 -2,-1 -1,2 1,3 -3,0 -1,2 -1,1 0,3 3,1 0,2 -1,3 3,0 2,-1 1,-2 1,-3 -3,0 -2,-1 1,-2 3,0 1,-1 3,-1 0,3 0,2 -1,3 3,0 2,-1 0,3 1,3 -1,1 1,3 -3,0 -1,2 0,3 0,2 -3,1 -1,4 3,-1 1,-1 3,0 0,-3 0,-3 2,-1 2,-1 0,-3 1,-2 3,1 -1,2 0,3 0,2 -3,1 -1,1 0,3 -1,3 -2,1 1,3 2,-1 3,0 -1,-3 1,-2 1,-3 3,0 1,-2 -1,-3 1,-1 5,1 -2,1 1,3 2,-1 3,0 1,-2 4,1 -1,2 -1,2 -3,0 -2,1 -3,0 -2,-1 -1,2 -3,0 -1,2 1,3 3,-1 1,-1 3,-1 3,0 2,-1 3,0 2,2 2,-2 -2,-2 2,-1 0,-3 2,-2 4,2 -2,1 -1,2 0,3 -1,3 -1,2 0,2 3,-1 1,-2 2,-1 -1,-3 0,-3 3,0 1,-2 2,1 1,-2 0,-3 -3,1 -3,0 1,-3 3,-1 3,1 1,-2 1,-2 1,-3 0,-2 1,-2 -1,-3 1,-2 2,-1 1,-2 1,-2 -5,1 1,-2 0,-2 -1,-3 -2,-2 1,-3 2,2 1,-2 3,1 0,-2 1,-2 3,0 2,-1 0,-3 -3,0 -2,1 -3,1 -1,2 -3,0 -3,0 0,-3 3,0 0,-2 3,0 1,-2 2,1 3,-1 -3,-2 1,-2 2,1 0,-3 1,-3 0,-3 1,-2 -3,-1 -1,3 -2,2 2,1 -2,2 -2,2 -1,2 -2,2 -3,0 -1,2 -3,-2 1,-2 2,-1 3,0 1,-2 1,-2 1,-2 -3,-1 1,-2 3,0 0,-3 2,1 0,-3 1,-3 -3,0 0,-3 -2,1 -2,1 -1,3 3,0 -1,3 -3,0 -1,2 -1,2 -1,2 3,1 -1,2 -3,0 -2,2 -3,-3 1,-2 2,1 0,-3 1,-2 1,-2 1,-2 1,-2 1,-2 -1,-3 -1,-3 -1,2 -1,3 -1,1 0,3 -2,-1 0,3 -1,2 -1,1 -1,2 -1,2 -4,-2 1,-1 1,-2 1,-2"/>
    <path style="fill:none;stroke:#000000;stroke-width:1"
          d="m 688,72 2,-2 -2,-1 2,-2 1,-2 0,-2 3,0 0,-3 -3,0 -3,0 -1,2 0,2 -1,2 -2,1 1,3 -1,2 -2,-1 -1,2 0,2 -3,0 -3,0 0,-3 3,0 0,-3 1,-2 2,1 0,-3 1,-2 1,-1 1,-2 1,-2 -1,-3 1,-1 -1,-3 4,1 1,3 -1,2 3,0 1,-3 4,1 -2,2 2,1 3,0 2,-2 1,3 -1,2 1,3 2,-2 1,-3 2,3 3,-1 0,4 1,-1 3,-1 1,3 -1,1 -1,2 -1,2 3,1 2,-2 1,-2 3,2 0,2 -2,1 -1,2 3,1 -2,2 -2,1 0,3 -1,2 0,3 0,2 3,1 0,-3 1,-2 1,-1 -1,-3 2,-1 2,-1 1,-1 -1,-3 1,-2 2,3 2,3 -1,2 -3,1 -1,2 0,3 0,3 -2,-1 0,3 -2,1 -1,2 3,0 3,0 1,-2 2,1 2,-2 2,-2 -2,-1 -3,1 0,-3 1,-2 1,-1 2,-2 2,3 -1,2 4,2 -1,2 -1,2 -2,2 -1,2 -1,3 3,-1 1,-3 3,-1 1,3 -1,1 -1,2 -3,1 -2,2 -2,-1 -1,2 -2,1 -2,2 -2,-1 -1,2 -2,1 -3,1 0,-3 2,-2 -2,-2 2,-2 2,-1 0,3 3,0 0,-3 2,1 2,-2 1,-3 -3,1 -3,0 -3,0 -3,0 -2,1 0,2 -1,2 -3,0 -2,1 1,3 2,-1 3,0 -1,3 0,3 -1,2 -1,2 -1,2 -1,1 1,3 -1,1 0,2 0,3 -2,-1 -1,3 -1,3 -1,2 3,1 -2,2 -1,1 -1,2 -3,0 -3,1 1,3 2,-1 3,0 3,-1 2,-2 1,-2 2,1 0,-3 -1,-3 -2,-1 2,-2 2,-1 0,-3 1,-3 0,-3 1,-2 1,-2 1,-2 1,-1 3,-1 3,-1 -1,2 -2,2 -2,2 -1,3 -1,2 0,3 -1,1 0,3 3,0 1,-2 0,-3 1,-2 0,-3 2,-2 2,-2 2,-2 0,-3 2,1 0,-3 2,-1 3,-1 1,-2 2,-1 3,-1 0,3 -1,2 -2,1 -3,1 -2,1 -1,4 2,-1 3,0 1,-2 3,-1 0,3 -1,2 0,2 2,3 -3,0 1,3 0,2 0,2 0,3 -1,2 -1,2 -1,3 -2,-2 0,-3 1,-2 1,-2 0,-3 0,-3 -3,1 -1,1 0,2 -3,0 -1,-3 1,-2 3,-1 2,-1 2,-2 -2,-1 -3,1 -2,-1 -1,2 -2,1 -1,2 -1,1 1,3 -2,1 1,3 -1,1 -1,2 3,1 2,-2 0,-3 2,1 3,0 -1,3 0,3 -2,-1 -1,2 -3,0 0,2 0,3 3,0 1,-2 3,-1 2,1 -2,2 -1,2 -2,2 -2,-1 -1,3 -2,-3 -1,2 0,3 -2,-1 -1,2 -3,0 0,2 -3,1 0,-4 -2,1 -1,2 -1,2 -3,1 0,-3 1,-2 1,-2 2,-1 3,-1 1,-1 3,2 1,-2 2,-2 1,-2 0,-3 0,-3 -3,0 0,-3 -3,0 -2,1 2,2 -1,2 4,1 -1,2 -1,2 -2,-2 -1,2 -3,1 -1,1 -3,1 -2,1 0,3 -1,3 -2,1 2,2 -3,1 -3,0 -3,0 1,-3 3,0 1,-3 2,-1 0,-3 -3,1 -3,0 1,3 -3,0 -1,2 -1,2 0,3 -2,-1 -3,1 -1,-3 2,-1 2,-2 -2,-1 -3,1 -1,-3 2,-1 -1,-3 -2,1 -3,0 -3,0 -1,2 -3,0 -2,1 -3,0 0,3 3,0 3,-1 3,0 2,-1 2,-1 1,3 -2,2 3,1 0,2 -3,0 -3,0 0,-3 -3,0 -1,2 -2,-1 -3,0 -4,-1 1,-2 0,-3 -3,1 -1,2 -2,-1 -3,0 0,-3 3,0 -1,-4 -1,1 -3,0 -1,2 -1,2 -3,-2 1,-2 1,-3 1,-3 0,-2 1,-2 2,-1 -1,-3"/>
    <path style="fill:none;stroke:#000000;stroke-width:1"
          d="m 653,131 1,-1 1,-2 2,-1 0,-3 -3,0 -2,2 -2,2 -2,-1 -3,0 -1,3 3,0 3,1 -1,2 -1,3 0,3 -1,2 -1,2 -1,2 -3,-2 1,-2 2,-2 0,-3 1,-3 -3,0 -1,2 -1,2 -1,2 -1,2 -2,-3 -3,-1 1,-2 3,0 1,-2 1,-2 1,-2 1,-2 1,-3 1,-3 -3,0 -1,2 -1,2 -1,2 -1,2 -1,3 -3,0 1,-3 -3,0 -1,2 1,3 -1,1 -1,3 -1,3 3,0 -1,3 -3,0 -1,2 0,3 0,2 3,-2 1,-2 3,0 -1,3 -2,2 3,1 -1,2 -1,2 -3,-3 -1,1 0,2 -3,0 -3,0 1,-2 1,-2 0,-2 0,-3 0,-3 1,-2 1,-2 1,-3 -3,0 -2,2 -1,2 -1,1 1,3 -1,1 0,2 0,2 -3,0 0,3 3,0 -1,3 -3,0 -4,-1 2,-2 0,-3 1,-2 1,-1 1,-4 -2,1 -3,1 -1,2 -1,1 1,3 -1,1 -1,2 -4,-1 1,-2 1,-2 0,-3 -1,-3 -2,1 0,3 -1,2 -2,1 -4,-2 1,-2 2,1 1,-2 -1,-3 3,-1 3,-1 0,-3 -3,0 -1,1 -2,1 -3,1 0,3 -2,-1 -3,0 -1,2 3,1 -1,2 -3,0 -2,-2 -1,3 -1,2 3,0 3,0 0,3 -3,0 -3,0 -3,0 -3,0 -3,0 -2,-2 -1,2 -3,0 -3,1 1,-2 2,-2 1,-1 3,-1 1,-2 2,-1 0,-3 2,-1 2,-4 -2,1 -1,-3 -2,1 0,3 -2,1 0,3 -3,2 -1,1 -3,1 -1,2 -2,-1 0,3 -1,2 -1,1 -3,-2 -1,2 -4,0 1,-2 0,-3 -2,-1 -1,2 -1,2 -1,2 -3,0 -3,0 -3,0 1,-3 -1,-3 1,-2 2,-1 0,3 1,3 3,0 -1,-3 2,-1 -2,-2 2,-1 3,1 1,-2 3,0 -1,3 3,0 0,3 3,0 0,-3 1,-2 -1,-3 -2,2 -1,-3 -3,0 1,-2 1,-2 -4,1 -1,3 -2,1 -3,0 -2,-1 -1,2 -3,0 0,-3 -3,0 0,3 1,3 -1,3 -2,1 0,2 3,0 -1,3 -3,0 -3,0 1,-3 -3,0 -1,1 0,3 -2,-1 -3,1 -4,0 1,-2 2,-1 2,-1 1,-2 3,-1 3,0 0,-2 1,-1 3,0 -1,-3 1,-2 -3,-1 -1,3 -3,1 -1,2 -2,-1 -1,2 -2,1 -2,2 -3,2 -1,2 -1,2 -3,0 -3,0 -3,0 -3,0 -3,0 -2,-1 -1,2 -3,-3 -1,2 -1,1 -4,0 1,-2 -1,-3 3,0 2,-1 1,-1 -1,-3 1,-1 2,-2 3,0 1,-2 3,-1 1,-2 1,-2 2,-1 0,-3 2,1 0,-3 2,-1 0,-3 1,-3 3,1 -1,2 0,3 -2,3 0,3 -1,2 -2,1 -1,2 -2,1 -2,2 -2,1 -1,2 -3,0 -1,2 0,3 3,1 0,-3 3,1 0,2 3,0 3,0 3,0 0,-2 2,-1 2,-1 2,-1 1,-2 -3,-2 -1,2 -3,0 -1,2 -2,2 -3,0 -2,-2 2,-1 2,-1 1,-2 3,-1 0,-2 3,0 0,-2 1,-1 -1,-3 1,-1 1,-2 0,-3 2,1 0,-3 1,-1 1,-2 0,-3 0,-3 -3,1 0,3 -2,1 -1,-3 -2,1 -3,0 -1,2 -1,2 0,3 -2,-1 -1,2 -1,2 0,3 -2,2 -2,2 -1,1 -3,0 0,2 -3,1 -1,1 -3,0 0,2 1,3 -2,1 -2,1 -1,-3 1,-2 0,-3 0,-3 3,1 3,-1 0,-2 1,-2 3,1 3,-1 1,-2 1,-2 0,-3 1,-2 -2,-1 1,-3 -3,0 -2,1 -1,2 3,2 -2,2 2,1 -2,2 -2,1 -1,-3 -3,2 -1,1 0,3 -2,1 -1,-3 -3,2 0,3 -2,1 2,2 -1,2 -3,-1 -3,1"/>
    <path style="fill:none;stroke:#000000;stroke-width:1"
          d="m 477,144 1,3 2,-1 3,1 -1,2 -3,1 -1,1 -3,1 0,2 3,0 3,0 1,-2 3,-1 1,3 -1,1 0,2 -3,0 -3,0 -3,0 -3,0 -3,0 -3,0 -1,-3 -3,0 1,3 -3,-1 -4,0 1,-2 2,-2 -2,-1 1,-2 1,-1 3,3 0,-3 1,-2 3,0 2,2 -2,1 -1,2 3,1 0,2 3,0 0,-3 1,-2 2,-1 -1,-3 -2,1 -3,-1 1,-2 2,-1 3,0 3,-1 1,-2 1,-2 -4,0 -1,2 -3,0 0,-3 -3,0 -1,1 1,3 -3,-1 0,3 -2,-1 -1,2 -2,1 -2,1 -1,-3 -2,1 0,3 -1,2 -2,1 -1,2 3,1 -1,2 -3,0 -3,-1 1,-2 0,-3 1,-3 2,1 1,-2 -4,-2 -3,0 1,3 -1,2 0,3 -2,-1 -1,2 -4,-2 1,-1 -1,-3 3,1 1,-2 -2,-2 2,-1 1,-2 3,0 1,-1 3,0 1,3 2,-1 2,-1 3,0 2,1 0,-3 3,0 1,-2 -4,-1 -3,0 -1,2 -3,0 -2,-1 -3,0 -3,0 -2,1 -3,0 -1,2 -2,-1 -1,2 1,3 -2,1 0,3 -2,-1 -3,-2 1,-2 2,-1 0,-3 1,-2 3,-1 3,-1 1,-1 3,0 3,0 -1,-3 3,0 1,3 3,1 1,-2 -2,-2 -1,-3 -3,0 0,-3 0,-3 -3,0 0,3 0,2 -1,2 -1,2 -3,0 1,-3 -1,-3 2,-1 0,-3 1,-2 3,0 1,-2 1,-3 -1,-3 3,0 -1,-3 3,0 3,-1 1,-2 0,-3 -3,1 -1,2 -3,0 1,-3 -3,0 -2,-2 2,-1 0,-3 1,-2 -1,-3 -2,2 -1,2 -1,2 -1,2 -3,0 -1,2 -1,2 -2,2 0,2 3,-1 2,-1 1,-3 3,1 -1,2 3,0 0,3 -3,0 -3,0 -1,2 -3,0 -2,1 -2,-4 -1,2 -2,2 2,1 -2,2 -1,3 -3,1 0,3 -2,1 1,3 2,-1 3,0 -1,-3 1,-1 3,3 1,-2 0,-2 -2,-2 2,-1 1,-2 3,-1 3,0 2,-1 2,-1 1,3 -1,2 -3,0 -3,0 -1,1 -1,2 3,0 0,3 -3,0 1,3 1,3 -1,3 -1,2 -2,1 -3,0 -1,3 0,3 -2,2 -2,-1 1,-3 1,-3 -3,1 -2,2 0,-3 2,-2 1,-2 3,1 2,-1 1,-2 2,1 1,-2 -1,-3 -3,1 -3,1 -1,2 -3,-1 -2,-1 0,3 -1,2 -3,-2 1,-2 -2,-3 1,-2 2,1 0,-3 1,-2 1,-2 1,-2 1,-2 2,1 0,-3 1,-3 2,-2 1,-3 2,1 1,-2 1,-2 2,-2 -2,-1 -3,1 -2,2 -3,0 -2,2 3,1 -1,2 -3,0 -2,1 3,2 -2,1 -1,2 -1,2 -1,3 -2,2 -1,2 -3,1 -1,2 0,3 -1,1 0,3 -1,2 -2,1 -2,1 -1,2 4,0 -2,2 -1,2 -1,2 -2,-1 0,3 -1,2 -2,-4 -1,2 -3,0 -1,3 3,0 2,1 -3,2 -3,0 0,2 -3,0 -1,2 -3,1 -3,1 0,-3 1,-2 2,1 1,-2 3,-1 1,-2 1,-3 0,-2 2,-1 2,-1 2,-1 3,-1 0,-2 -3,0 -3,0 -2,-1 0,3 -3,0 -1,2 -2,1 -1,2 3,1 -2,2 -1,1 -3,1 -3,-1 1,-2 2,-1 0,-3 0,-3 3,0 1,-2 3,-1 1,-3 0,-3 1,-2 0,-3 1,-2 0,-3 -3,1 -1,1 0,3 0,3 -1,2 0,3 -2,-1 -1,2 -1,2 -3,1 -1,3 -3,1 3,2 -2,1 -1,3 -3,-1 1,-2 -1,-3 0,-3 3,0 1,-2 1,-2 1,-2 2,1 0,-3 2,-1 1,-2 1,-2 0,-3 0,-3 -2,-2 -1,3 0,3 -1,2 -1,2 -3,-1 -2,1 2,2 -2,2 -1,1"/>
    <path style="fill:none;stroke:#000000;stroke-width:1"
          d="m 377,129 0,3 -2,-1 -2,2 0,3 -1,1 -1,2 2,1 -2,2 -2,1 -2,1 1,3 2,-1 3,0 1,-2 2,2 0,3 0,3 3,0 0,-3 1,-2 2,1 0,3 0,3 -2,1 -3,0 -2,1 -3,0 -1,-3 2,-1 0,-3 -2,1 -3,0 0,3 1,3 -3,0 -3,0 2,-3 -3,0 -2,1 -1,2 -2,-4 -1,2 -1,1 -3,0 -3,-1 3,-2 2,-2 3,-1 2,1 3,0 3,0 0,-3 -1,-3 -2,1 0,2 -3,0 0,-3 1,-2 2,-1 3,0 3,-1 0,-4 -2,2 -3,0 -3,0 -3,-1 0,3 -2,1 0,2 1,3 -3,0 -1,2 -2,2 -2,-1 -1,2 -1,2 -3,0 1,-3 0,-3 2,-1 3,0 1,-2 2,-1 0,-3 2,-2 -3,-2 -2,1 0,3 -2,1 -1,2 -3,1 0,-3 1,-2 2,-1 0,-3 -3,1 -3,2 0,3 -2,1 2,2 -2,2 3,1 0,3 -2,-1 -1,2 -3,-3 -1,1 -4,-2 1,-2 3,0 1,-1 -1,-3 1,-1 2,-2 1,-2 2,-1 1,-2 2,-1 -4,-2 -2,2 -2,-1 0,3 -1,2 -2,2 -2,-1 -1,3 2,2 -3,1 -1,2 -3,-2 1,-2 1,-2 1,-2 1,-3 3,0 1,-2 -3,-1 1,-2 1,-1 3,0 3,0 0,-2 -4,-1 0,-2 2,-1 -1,-3 1,-1 1,-2 -1,-3 -2,1 -3,0 1,3 0,3 -1,2 0,3 -3,1 -1,3 0,3 -2,1 -2,2 2,1 -2,2 -1,2 -2,-1 0,-3 -3,0 0,-3 -3,0 1,-3 3,0 2,3 1,-2 1,-2 2,1 0,-3 1,-2 1,-2 2,-1 -2,-2 2,-1 1,-2 -1,-3 -2,-1 1,-2 1,-3 -1,-3 -2,1 0,2 -2,2 0,3 -1,2 3,1 -2,2 -1,1 0,2 0,3 -2,-1 0,3 -2,1 -1,-3 -3,0 1,3 -3,0 0,3 -3,-2 1,-3 1,-1 -4,-2 2,-1 0,-3 1,-3 2,1 0,-3 1,-2 1,-3 -3,0 -2,2 -1,2 -1,3 -1,2 -1,2 -2,-4 1,-2 1,-2 1,-2 1,-2 1,-1 -1,-3 1,-2 1,-3 1,-2 1,-2 -1,-3 -2,1 -1,3 -1,2 -1,2 -1,2 0,3 -1,2 -1,2 -1,2 -1,-6 1,-2 -1,-3 1,-1 1,-2 1,-2 -4,-1 1,-2 1,-2 2,1 2,2 1,-3 3,-1 0,-2 3,-1 2,-2 1,-3 -3,0 -2,1 -1,2 -2,-2 2,-3 3,-1 0,-3 -2,-1 -1,2 -3,1 -1,1 -1,2 0,3 2,2 -1,2 -2,1 -4,-1 2,-2 0,-2 0,-3 -13,-6 -3,0 -3,0 -2,1 -1,-3 -2,2 -1,2 -1,3 1,3 -3,1 3,2 -2,1 -1,2 3,0 1,3 -1,3 2,1 -2,2 3,2 -2,1 -3,0 -1,2 0,2 -1,2 -1,2 -1,2 -1,2 0,3 -2,2 -3,-1 1,-2 1,-1 -1,-3 1,-1 1,-2 1,-2 1,-2 0,-2 1,-2 1,-3 2,1 0,-3 1,-3 -3,0 -2,1 -1,2 0,3 -2,-1 -1,2 0,2 -3,0 -3,1 -1,1 -1,2 -1,2 -1,2 0,3 -2,-1 -1,2 -1,2 -2,2 2,1 -1,3 2,1 2,-2 2,-2 -2,-1 2,-2 2,-1 0,-3 1,-2 1,-3 2,-2 3,0 -1,3 -2,2 0,3 -1,2 0,3 -2,1 -1,3 3,-1 0,3 0,3 -2,1 -1,-3 -2,-1 -1,2 -1,2 -2,-2 -1,3 1,3 2,-1 3,-1 2,1 -2,2 -1,2 -3,0 -1,2 4,1 3,0 1,-2 1,-1 1,-2 1,-2 1,-2 0,-2 0,-3 0,-3 3,1 0,2 0,3 3,0 1,-2 -1,-3 1,-1 1,-2 0,-3 1,-2 1,-2 1,-2 2,1"/>
    <path style="fill:none;stroke:#000000;stroke-width:1"
          d="m 276,108 0,-3 -1,-3 3,0 1,3 0,3 1,3 0,3 1,3 -3,0 -1,-3 0,-3 -2,2 -1,2 1,3 -1,1 -1,2 0,3 -1,2 -2,1 -3,0 -1,2 -1,2 -1,2 -1,2 0,3 -2,-1 0,3 -2,1 -1,-3 -3,0 -2,-1 -1,3 4,1 -1,2 -1,2 0,3 3,1 -1,2 0,2 1,3 -2,1 4,2 1,-2 1,-2 3,0 -1,3 -1,3 3,0 1,-2 1,-2 0,-3 -2,-2 2,-1 1,-2 1,-2 2,-1 3,-2 3,0 1,-2 3,0 1,-2 0,-3 -3,1 -1,1 -3,1 -1,1 -2,1 -2,1 -2,1 -3,2 -1,1 -1,2 -1,3 -3,0 1,-3 1,-2 -4,-1 1,-2 3,0 3,-1 1,-1 1,-2 3,0 2,-2 3,-1 0,-2 -3,-1 -2,2 -3,1 1,-2 1,-3 2,-1 1,-1 3,2 0,-3 2,-1 0,-2 2,-1 1,-2 -3,-1 2,-2 3,0 1,3 0,3 0,2 -3,0 -1,3 -1,2 0,2 3,-1 1,-3 3,0 -1,3 2,3 0,3 0,3 -1,2 -3,0 -2,2 2,1 -1,2 -3,0 -1,-3 -2,1 0,2 -3,0 -1,2 1,3 -1,2 -1,3 -1,2 2,2 3,-1 -1,-3 1,-2 1,-3 0,-2 3,0 3,0 1,3 -3,0 -2,2 3,1 0,2 -3,0 0,2 -1,2 -3,1 -3,1 1,3 1,3 2,-1 0,-3 2,-1 3,0 1,-2 1,-2 3,-1 1,-1 1,-2 -3,-1 2,-2 1,-2 -2,-2 1,-2 0,-3 3,-1 0,3 0,3 1,3 0,3 1,3 -1,1 -1,2 -3,1 -1,1 -1,2 0,3 -2,-1 -3,0 -1,2 0,2 3,-1 3,1 -1,2 -3,1 -3,-1 0,2 1,3 -3,0 -1,1 -2,1 -2,1 0,3 -2,-1 0,3 -1,2 -3,0 -1,1 -1,2 -2,2 2,1 3,-1 2,1 0,-3 3,0 1,-2 1,-1 1,-2 1,-2 1,-2 3,-1 1,3 -1,1 -1,2 -1,2 -1,2 -2,2 2,1 0,2 3,0 0,-3 1,-2 1,-2 2,1 0,-3 1,-2 0,-2 -2,-2 0,-3 1,-2 3,0 1,-2 3,0 1,-2 -3,-1 1,-2 2,-1 -3,-2 2,-2 3,-1 0,3 1,3 0,2 0,3 0,2 -2,1 -2,1 -1,1 -3,0 -1,2 3,1 3,0 2,-2 3,-1 0,3 -1,2 -1,1 1,3 3,-1 -1,3 1,3 0,2 0,3 -3,0 -2,1 -4,-1 -1,1 -4,0 1,-2 2,-2 3,0 2,1 3,-1 0,-3 -3,1 0,-3 0,-2 -1,-3 -3,0 0,2 -2,2 3,1 -1,2 -3,0 -2,2 -1,2 -1,3 -3,0 -3,0 -3,0 1,-3 -2,-2 -1,3 -1,2 -3,0 0,-3 -2,1 -1,2 -3,0 0,-3 -2,-2 -1,2 0,3 -4,-1 1,-2 1,-3 1,-2 1,-2 2,1 1,-2 1,-2 3,-1 2,-1 0,-3 1,-2 1,-2 2,1 2,-2 3,-1 0,-3 -3,0 -1,1 -2,1 -3,-1 1,-2 1,-2 3,0 -1,-3 -3,0 -2,-1 1,-2 3,0 1,-2 -3,-1 -3,0 -2,-2 -2,-1 0,4 2,1 0,3 -1,2 3,1 -1,2 -1,3 3,2 -1,2 -1,2 0,3 -2,-1 -1,2 -2,1 -2,2 -2,-1 1,-3 2,-2 1,-2 -4,1 -4,0 2,2 -1,2 0,3 2,2 -1,2 0,3 -14,-4 -1,2 1,3 -1,1 1,3 -2,1 -4,0 1,-2 1,-2 0,-3 0,-3 -3,1 0,2 -2,1 1,3 -1,3 -3,0 1,-3 -1,-3 -1,-3 3,0 0,-3 3,0 2,-1 3,0 0,-4 -1,1 -3,0 -2,1 -3,0 0,-3 2,-1 -1,-3 -2,1 -3,0 0,-3"/>
    <path style="fill:none;stroke:#000000;stroke-width:1"
          d="m 220,179 2,-1 3,0 0,-2 3,0 1,3 -1,2 1,3 2,-1 2,-1 -1,-3 -1,-3 1,-3 -3,0 -3,0 1,-2 2,-1 1,-2 0,-4 -2,2 -2,-1 1,-3 2,-2 -1,-4 -2,2 -1,1 -3,0 0,-3 3,-1 1,-2 1,-1 -1,-3 1,-2 -2,-3 0,-3 1,-2 -4,2 0,3 -2,1 -1,-3 1,-3 2,-1 1,-2 1,-2 0,-3 -3,1 -1,2 -2,2 -1,3 -1,2 0,3 -2,1 -2,1 -2,1 -1,2 -2,1 -2,1 -2,1 -2,2 -2,2 0,3 0,2 3,1 0,-3 1,-2 2,-1 1,-2 3,0 1,-2 2,-2 3,0 0,-2 3,-1 2,1 3,-1 0,3 -1,2 -1,1 -3,-3 0,3 1,3 0,3 -1,2 -1,3 3,0 1,-2 3,0 -1,3 -1,2 3,1 -2,2 0,3 -1,2 -3,1 -2,1 -2,2 2,1 0,2 -3,0 1,3 -1,2 -1,2 -2,2 2,1 0,2 3,0 0,-3 1,-2 1,-1 0,-3 3,0 0,3 1,3 -2,1 -1,2 1,3 -2,1 0,2 3,0 -1,3 -3,0 -3,0 1,-3 0,-3 -3,0 -2,2 2,1 -1,3 -2,-2 -1,2 -3,0 -3,0 1,-2 2,-1 1,-2 0,-3 2,1 2,-2 -2,-2 -1,-3 2,-1 1,-2 1,-2 1,-4 -2,1 -2,1 -1,2 -1,2 -3,0 -3,0 -2,2 -2,-1 -1,2 -1,2 3,1 3,-1 1,-2 3,0 1,3 -2,1 0,3 -1,2 -2,-4 -1,2 -1,1 -2,1 1,3 2,-1 0,3 -3,0 -3,0 0,-3 -2,1 -1,2"/>
  </g>
</svg>
