<?xml version="1.0" encoding="UTF-8" standalone="no"?>
<!-- Created with the Eggbot TSP art toolkit (http://egg-bot.com) -->

<svg xmlns="http://www.w3.org/2000/svg"
     xmlns:inkscape="http://www.inkscape.org/namespaces/inkscape"
     xmlns:sodipodi="http://sodipodi.sourceforge.net/DTD/sodipodi-0.dtd"
     xmlns:rdf="http://www.w3.org/1999/02/22-rdf-syntax-ns#"
     xmlns:dc="http://purl.org/dc/elements/1.1/"
     xmlns:cc="http://creativecommons.org/ns#"
     height="800"
     width="3200">
  <sodipodi:namedview
            showgrid="false"
            showborder="true"
            inkscape:showpageshadow="false"/>
  <metadata>
    <rdf:RDF>
      <cc:Work rdf:about="">
        <dc:format>image/svg+xml</dc:format>
        <dc:type rdf:resource="http://purl.org/dc/dcmitype/StillImage" />
        <dc:subject>
          <rdf:Bag>
            <rdf:li>Egg-Bot</rdf:li>
            <rdf:li>Eggbot</rdf:li>
            <rdf:li>TSP</rdf:li>
            <rdf:li>TSP art</rdf:li>
          </rdf:Bag>
        </dc:subject>
        <dc:description>TSP art created with the Eggbot TSP art toolkit (http://egg-bot.com)</dc:description>
      </cc:Work>
    </rdf:RDF>
  </metadata>
  <g      transform="translate(1229, 504) scale(1, -1)">
    <path style="fill:none;stroke:#000000;stroke-width:1"
          d="m 191,199 4,0 4,0 4,0 4,0 4,0 4,0 4,0 5,0 3,-1 4,0 1,-4 -5,-1 2,-4 3,-1 16,2 3,-3 2,-4 3,5 4,-1 2,-3 4,0 0,-4 -5,-2 3,-4 -5,-1 0,-5 5,2 2,-2 3,-3 5,2 -2,3 -2,3 -1,4 2,5 3,-3 2,-5 3,-2 0,-4 3,-3 2,5 0,6 0,4 -4,-1 -2,3 -2,3 -3,3 -3,1 -4,1 -1,3 -4,0 -4,0 -4,0 -3,4 4,2 4,0 4,0 4,0 4,0 1,-5 5,0 -2,5 5,0 3,-2 4,2 5,-1 2,-3 -1,-6 -4,2 -2,3 -4,-3 -4,0 4,-5 4,0 3,-2 2,-3 -3,-5 1,-4 -1,-5 -2,-5 0,-4 -5,2 -4,2 -4,0 0,-5 -5,1 -2,1 -2,3 -5,1 0,-4 -3,-4 4,0 3,-3 5,1 3,-2 4,-1 4,0 -2,6 4,-1 4,-2 1,-4 -5,-2 2,-4 -1,-5 -3,3 -3,3 -4,0 -2,2 -4,0 -3,1 -4,2 -4,0 -1,-6 4,0 4,-2 3,-1 0,-4 5,2 4,0 3,-4 4,-1 0,-4 -1,-5 -4,1 -1,4 -3,3 -3,1 -4,-2 1,-5 4,0 1,-4 3,-2 4,-1 1,-3 0,-7 -3,2 -3,3 -5,2 -2,4 -4,2 -2,4 -4,3 4,2 -1,4 -3,3 -4,-3 1,-4 -2,-6 3,-2 3,-2 1,-4 4,-1 1,-4 5,0 3,-3 1,-4 3,-2 1,-3 0,-5 -5,1 -2,4 -3,2 0,4 -3,1 -4,1 -2,4 -4,3 -2,3 -3,-5 2,-4 3,-1 2,-4 3,-2 2,-2 -7,-2 -3,4 -4,2 0,-6 2,-2 3,-3 2,-3 4,-1 0,6 4,0 3,1 2,-3 4,-2 3,-2 1,-3 -1,-5 -4,1 -2,3 -2,3 -4,0 0,-6 2,-3 4,-2 0,-4 3,-2 3,5 1,-4 4,0 4,0 4,0 15,4 4,0 2,-4 3,-2 3,-3 5,2 -3,3 -2,4 -2,2 -2,3 -2,3 -4,-3 -1,4 -3,2 1,5 5,0 2,-2 4,0 2,-3 3,-1 0,-4 2,-4 2,-4 2,-4 3,-3 3,-1 -1,-5 3,-2 5,1 -2,4 6,1 -1,4 -4,0 -4,2 -3,2 -2,3 -2,4 -2,4 5,1 3,-2 1,-3 2,-3 3,-3 5,1 0,4 -3,2 -2,3 -3,4 -1,4 -5,-2 -2,1 -4,0 -3,2 -3,2 -4,1 -4,2 -4,-1 -1,4 -1,4 2,7 3,-2 1,-4 2,-2 3,-3 4,0 4,0 2,-4 4,0 4,0 4,0 -1,5 -5,0 -4,1 -1,4 -2,5 -4,0 2,-5 -5,-1 -2,4 -1,4 -3,2 -2,3 4,6 3,-1 0,-4 3,-3 2,5 2,-4 4,-1 2,-4 2,-5 4,-1 -1,6 4,0 3,-1 5,0 4,0 2,-3 1,-4 -5,-1 -3,3 -5,0 1,-4 2,-3 1,-4 5,4 5,-2 2,5 4,-1 2,-3 5,1 2,-3 7,0 0,4 -3,2 -3,2 -4,0 -3,2 -4,1 -2,3 0,5 -2,1 -5,0 -5,0 -4,1 -5,0 -4,0 -4,4 -2,3 -3,3 -2,2 -4,0 5,5 4,0 2,-3 2,-3 3,-2 0,-4 5,0 1,5 5,2 -5,2 -2,2 -3,1 -2,3 -5,2 6,3 4,2 1,-5 4,-2 3,-2 4,-1 0,5 -2,3 -4,0 -2,4 5,2 4,0 4,2 4,0 2,-1 5,2 5,0 5,0 4,-1 4,-1 4,0 0,-4 -1,-5 -4,3 -4,2 -4,0 -3,1 -4,0 -4,0 -6,-3 -4,0 1,-5 3,-2 4,5 4,-1 3,-1 4,0 2,-5 4,2 -1,4 5,-2 0,-5 4,0 3,5 2,-4 0,-4 3,-2 1,-4 3,-2 4,-1 2,-2 2,-4 3,-3"/>
    <path style="fill:none;stroke:#000000;stroke-width:1"
          d="m 405,113 4,-1 3,-2 -1,-5 -4,0 -3,2 -3,4 -4,3 -3,1 -2,3 -4,0 -2,1 0,5 -3,3 -3,2 -4,-2 4,-5 2,-3 -1,-6 -4,0 -1,4 -4,0 -5,-1 -4,0 -5,1 1,-5 5,-1 4,0 4,0 1,-4 4,0 3,-1 2,-4 -4,-1 0,-5 6,2 2,-2 11,0 -1,4 -4,0 0,4 -4,-1 -2,3 -2,5 4,1 3,-3 5,0 2,-4 3,-3 3,-2 1,-4 5,4 3,-3 2,6 5,-1 3,-3 2,-3 2,-4 5,1 -1,4 -2,3 0,6 -3,-1 -3,2 -2,3 -4,-1 1,5 -3,2 -4,1 -4,1 -2,4 -2,4 -4,1 -2,3 0,4 -3,-1 -1,4 -3,3 -2,4 0,4 5,-2 2,-3 3,-1 2,-3 3,-2 0,-4 3,-1 2,-4 2,-3 2,-3 6,0 3,-3 4,1 -1,-5 3,-2 3,-2 4,-1 4,0 -4,-5 2,-1 5,2 4,-1 3,-3 3,-2 2,-3 1,-3 3,-3 4,0 -2,5 1,5 -3,2 -4,2 -3,3 -2,4 -3,-1 -2,3 -5,1 -3,2 -4,0 -1,4 5,1 -3,4 -4,0 -5,-1 -2,4 5,1 0,5 4,4 1,-4 0,-4 5,-1 2,-3 2,-5 2,-4 6,0 -1,4 -2,3 -2,3 -1,4 -1,4 -4,-1 -1,4 -1,4 5,3 1,-4 4,0 1,-4 2,-3 0,-4 3,-4 1,5 5,0 -2,5 4,0 4,0 6,2 3,-3 6,0 -2,4 -3,3 -5,0 -4,0 -4,0 -5,-1 -3,-1 -2,3 -2,4 -2,1 7,2 2,-3 4,-1 0,5 5,1 0,-5 5,0 0,5 4,0 1,-5 4,5 5,0 0,-4 -5,-1 2,-4 2,-3 2,-3 5,0 -1,4 -2,5 4,2 -1,4 5,-1 4,0 4,0 4,0 4,0 5,0 2,-4 3,-2 1,6 4,-1 4,0 4,0 4,0 1,-5 4,0 0,5 5,0 0,-4 3,-2 3,-2 4,2 -4,6 3,-1 4,0 1,-5 1,-5 1,-4 5,2 -2,-5 3,-2 3,-2 3,-1 0,-4 4,-2 2,5 -1,4 -3,3 -4,1 0,4 2,5 -4,0 -4,-1 -1,4 -1,4 5,-1 4,0 4,0 4,0 4,0 2,-3 3,-2 2,-4 3,5 2,-4 3,-3 4,0 4,2 -2,4 -4,0 -2,3 5,3 4,0 4,2 5,0 4,0 2,-1 4,0 1,-4 -1,-6 -3,1 -2,3 -5,0 -3,2 -4,-1 2,-5 4,-1 2,-1 3,-3 5,-1 6,-1 1,-4 4,1 2,-2 4,0 -2,-5 3,-2 1,-5 -5,0 -3,2 -1,4 -5,1 0,-4 0,-4 4,-3 4,-1 4,0 4,0 3,-2 4,2 -1,4 -3,2 -1,4 -1,4 0,4 0,4 -4,1 -3,1 -4,1 5,4 5,2 1,-4 5,-1 1,-4 0,-4 -1,-5 3,-3 4,2 4,2 -1,4 -5,-2 1,5 1,5 -2,3 -5,1 -1,4 5,2 3,-2 4,-2 4,2 -4,4 4,1 5,1 4,0 4,0 4,0 4,0 4,0 4,-1 4,0 4,-1 3,-2 2,-1 4,0 3,-2 4,-2 2,-3 3,-2 3,-3 2,-4 3,-3 -5,-2 2,-4 3,-1 0,-5 0,-5 -5,0 0,5 -3,3 -1,5 1,5 -2,4 -4,2 -4,0 1,5 -5,1 -4,0 2,-5 1,-3 5,-3 3,-1 2,-2 -1,-5 2,-4 1,-5 2,-3 3,-4 4,0 3,-2 -2,-7 -2,2 -4,1 -3,2 -3,2 -2,3 -1,4 -1,4 -2,3 -4,1 4,4 -4,2 -1,3 -4,1 -1,5 -1,4 -1,4 -2,3 -4,0 -4,1 -4,0 -4,0 -4,1 -2,-5 -3,4 -4,0 2,-5 -4,-1 -4,0 -2,-5 4,-1 2,-3 5,1 -1,4"/>
    <path style="fill:none;stroke:#000000;stroke-width:1"
          d="m 676,137 5,1 3,-3 2,7 2,-2 5,2 -2,-5 1,-4 4,3 2,5 3,-3 -2,-5 3,-1 1,-4 4,-3 1,-4 0,-4 0,-4 5,1 2,-4 0,-4 2,-3 3,-3 2,-3 3,-2 3,1 4,-3 2,-1 -1,-6 -5,0 -1,4 -5,-2 -2,3 -3,3 -2,4 -4,0 -1,3 0,5 -1,3 -5,0 1,-6 0,-5 -4,-4 4,-1 3,-1 4,0 4,-3 1,-5 4,-1 2,-1 4,-1 3,-2 -7,-7 0,4 -4,0 -4,2 -5,1 -3,3 5,2 -3,3 -5,-1 -4,2 -4,-4 4,-1 2,-3 3,-3 5,-2 3,-2 4,-2 1,-4 -5,-2 -2,3 -3,1 -3,3 -3,-1 -3,3 -2,1 -2,3 -4,2 -1,-5 -4,1 -4,-1 3,-5 5,1 3,-2 3,-1 3,-3 4,0 4,-3 -5,-2 -4,-4 -2,3 -2,3 -4,0 -2,3 -4,0 -3,4 -4,0 0,5 -4,-1 -4,0 -4,1 2,-6 4,-1 0,-4 5,1 3,-2 2,-3 4,0 6,-3 -5,-1 -5,-2 -4,2 -3,3 -2,-5 -2,5 -3,3 -3,2 -2,4 -1,4 -1,4 -3,2 -3,2 -2,3 -1,4 -2,3 -4,0 -5,1 -3,2 -6,2 2,-3 1,-5 4,-1 3,-2 3,1 2,-2 1,-4 2,-3 3,-2 1,-4 3,1 1,-5 1,-4 3,-3 2,-3 3,-2 -9,0 -2,3 -2,5 -3,-5 -3,2 -4,0 -3,2 -5,-3 0,5 -3,1 0,4 -4,1 -5,-1 2,5 -3,3 -4,3 -2,4 6,2 1,-4 4,-2 3,-3 2,-3 5,-1 1,-4 3,-2 4,-2 5,0 -2,5 -3,2 -2,3 -2,3 -4,0 -2,3 -3,2 -4,2 0,4 -2,3 -5,-2 -2,1 -2,3 -1,4 1,5 4,-3 2,-3 4,0 0,5 -2,3 -3,2 -4,2 3,7 2,-3 3,-2 4,-2 2,-4 1,-3 3,-2 4,0 2,-3 4,-1 5,1 -1,4 -4,1 5,4 -3,2 -4,2 -1,-5 -4,1 -1,3 -3,2 -3,3 -3,3 -3,2 -3,3 5,2 -3,4 5,2 -1,4 -6,1 -5,1 -4,-1 -2,3 -4,0 0,-6 -4,1 -3,2 -4,1 -2,3 -5,-2 -2,3 -2,3 -3,3 -4,0 0,-5 3,-3 3,-3 2,-4 5,2 2,-3 4,0 -4,-6 -4,-1 -1,4 -5,-1 -1,-5 3,-3 2,-3 -6,-3 3,-3 -2,-6 -3,3 -3,2 -5,-2 3,-4 3,-2 2,-3 3,-2 -2,-8 -3,3 -2,3 -3,3 -3,4 -5,-2 3,-3 1,-4 3,-2 1,-4 2,-1 3,-3 1,-5 4,-2 4,0 4,0 -2,-5 2,-1 -1,-6 -1,-6 -3,1 -5,-1 -3,1 -4,1 -4,0 -4,1 -5,-3 -6,-1 -4,2 -4,0 0,4 -2,3 -2,3 -3,-6 1,-4 -5,-2 -2,3 -3,5 4,2 2,-1 -2,5 -1,4 5,1 2,-4 3,5 3,-2 1,-4 3,-3 2,-3 3,-2 4,2 2,-1 5,2 -3,4 -5,-1 -3,2 -2,3 -2,3 -2,3 -3,4 6,1 -2,4 -3,3 1,6 4,0 1,-4 2,-3 3,-2 1,-5 -4,-1 2,-5 3,-3 4,0 4,-3 3,-2 -1,-5 5,0 4,0 5,-2 -1,4 -1,4 -5,-1 -1,3 -3,3 -1,4 -3,-1 -3,2 -4,0 4,5 -2,2 -1,4 -2,3 -3,2 0,4 -2,3 -4,0 0,5 0,5 5,-5 4,0 2,-4 4,2 -1,4 -2,4 -5,-1 -2,2 -2,4 -2,3 3,7 2,-3 2,-4 2,-3 4,0 3,-3 2,-3 4,0 5,4 -3,2 -3,1 -3,2 -3,3 -2,2 -2,1 -2,3 -3,3 -3,2 0,5 -2,1 -5,-2 -3,2 -3,2 -4,0 0,-5 -5,3 -1,4 -2,3 -7,0 2,-2 1,-4 2,-3"/>
    <path style="fill:none;stroke:#000000;stroke-width:1"
          d="m 530,137 -7,-2 -1,4 -3,2 -4,1 -3,2 -1,3 -4,0 -5,-1 -4,1 -5,-1 1,-4 4,-1 4,0 4,0 4,-3 2,-3 4,1 2,-3 1,-4 4,0 1,-5 1,-7 -3,2 -3,3 -2,1 -4,0 1,5 -3,2 -4,2 -2,4 -5,-1 -4,1 -4,0 4,-6 5,1 1,-3 4,-2 2,-2 -6,-1 -5,1 1,-5 4,-1 5,1 3,-2 2,-1 4,0 2,-2 2,-3 1,-3 -5,-4 0,-4 -5,-2 -4,0 1,-6 -4,0 -1,5 -2,3 -3,3 0,4 5,-1 3,-3 5,0 3,5 -3,2 -3,-1 -3,3 -3,1 -4,0 -4,1 0,-6 -5,1 1,-4 3,-3 2,-4 2,-3 1,-4 1,-3 -5,1 -2,4 -3,2 -1,4 -3,2 -1,4 -4,0 -5,-1 -1,-5 4,0 3,-2 3,-3 1,-4 3,-2 2,-4 -5,-1 -4,1 0,5 -3,3 -3,2 -5,0 -1,5 0,4 -5,-1 0,-5 1,-4 1,-4 4,0 3,-2 2,-1 1,-4 -8,-1 -2,3 -5,0 -2,1 -4,0 -3,3 -3,2 -2,4 -2,2 -2,3 -3,2 -4,-2 2,-5 2,-3 -6,-1 1,-4 5,1 4,1 -1,-5 4,1 3,-2 3,-3 -4,-2 -5,1 -1,-5 3,-2 4,0 1,-3 0,-5 4,0 1,-4 3,-2 4,2 0,4 -3,2 -4,3 0,4 5,-2 4,-1 4,-1 4,0 4,-1 5,0 5,0 3,-2 3,1 4,0 4,-1 1,-4 4,3 0,-4 1,-4 4,6 2,-3 2,-1 2,-3 1,-3 1,-4 0,-4 -1,-5 1,-4 -5,0 0,-5 -2,-5 -3,3 0,5 -3,2 -3,3 -4,0 2,-5 1,-4 2,-1 -1,-5 4,0 1,-4 -5,-2 -4,0 -1,5 -4,0 1,-5 1,-6 -4,0 -3,2 -5,-2 1,-4 -5,4 -4,3 5,2 -3,4 -4,-1 -3,2 -3,2 7,2 4,2 3,-2 1,-4 3,-4 4,1 -2,4 -1,4 -2,4 6,0 2,-3 4,1 -1,5 -3,3 -4,-1 0,6 5,0 4,2 1,5 3,-3 4,0 2,-1 1,-4 4,-1 1,5 -1,4 -2,4 -3,-1 -4,0 -3,3 -2,1 -2,5 -4,0 1,-5 0,-5 0,-4 -5,0 -2,1 2,5 -1,4 -1,3 -3,3 -4,0 -4,0 -4,0 -4,0 0,-5 4,-1 4,0 5,1 1,-4 2,-3 -3,-6 -2,1 -1,4 -3,2 -5,0 2,-5 2,-3 -7,1 -1,3 -1,4 -2,3 -6,-2 2,-3 0,-4 -6,4 -1,4 -1,4 -4,0 0,6 -3,2 -3,2 -3,3 -3,-1 -4,1 1,6 4,-1 4,2 -2,4 -4,0 -4,2 -2,-5 -3,2 -5,-3 2,-3 5,-1 -1,-5 0,-4 4,0 4,-1 3,-1 4,-2 2,-3 -6,-1 2,-4 5,0 3,-2 1,-4 -6,0 -5,-3 0,4 -3,3 -2,3 0,4 -4,2 -4,-2 2,-4 0,-4 3,-2 3,-3 -2,-6 -2,1 -2,3 -3,2 -3,1 0,-7 2,-2 2,-4 4,0 2,-4 3,-2 3,-2 4,0 5,-1 5,-1 4,-1 4,0 4,0 3,-3 2,-3 3,-1 2,-4 4,-1 2,-4 -6,-1 -4,0 -1,4 -3,1 -3,3 -1,4 -5,-2 -2,2 -4,0 -4,2 -5,1 -4,0 -5,-3 2,-3 4,0 4,1 4,-1 3,-3 5,-1 4,0 1,-4 3,-2 -8,-1 -3,2 -3,1 -4,1 -2,2 -4,0 0,-6 -4,0 -1,4 -2,1 -3,2 -4,-2 -6,-1 -2,3 -1,4 -6,-4 -1,4 -3,3 -4,2 -2,3 0,8 3,-2 2,-3 3,-2 3,-3 3,-3 2,5 4,-2 1,-4 2,-4 5,2 -2,3 6,4 -2,2 -3,4 -2,-5 -3,3 0,4 -3,3 -4,0 2,-5 -4,-1 -3,3 -2,3"/>
    <path style="fill:none;stroke:#000000;stroke-width:1"
          d="m 406,31 -3,2 -3,3 4,5 2,-3 4,-3 5,1 0,4 -4,0 -2,4 5,4 2,-2 5,4 -2,3 2,6 -4,1 -2,3 6,1 0,5 -4,0 -2,3 -13,2 -3,1 -4,0 -6,-1 -5,-2 0,-5 2,-4 5,1 -3,5 4,1 4,-1 4,-1 -1,-5 -4,1 1,-6 -4,-1 -3,2 -2,-7 -3,1 0,5 -3,1 -2,3 -3,2 4,4 -2,3 -4,0 -5,-1 -5,0 -5,1 1,-4 4,-2 4,0 4,0 -1,-5 2,-2 2,-2 3,-3 -5,-3 -4,0 -2,3 -4,1 4,5 -4,1 -5,1 -2,4 -3,2 1,5 -4,-1 -2,3 -4,2 -1,-5 1,-4 3,-2 3,-3 2,-3 3,-3 4,0 -1,-5 -6,0 -3,2 -2,3 -2,4 -5,1 0,-4 2,-3 1,-4 -6,1 -2,4 -4,0 -4,-2 -3,3 -4,0 -3,2 5,3 -3,3 -4,-1 -5,-1 -4,3 -21,1 -4,1 -5,-1 -4,0 -5,-2 -2,2 -2,3 -1,5 -4,2 -2,4 0,4 -4,0 -4,2 -2,4 -4,-5 2,-3 4,-2 2,-2 3,-3 2,-4 3,-2 1,-5 2,-4 5,-1 5,2 3,-1 5,2 4,-2 1,-5 -4,0 -3,2 -5,-4 -3,2 -5,-2 -3,2 -4,2 -6,-4 -3,2 -4,2 -4,0 0,4 -1,4 5,1 2,-3 3,-3 5,-1 1,5 -4,1 -1,4 -2,3 -4,0 0,5 -5,-3 0,-5 -4,2 -3,2 -5,0 -5,0 -5,0 -4,1 0,-6 4,0 4,0 4,0 4,0 4,-2 1,-4 1,-4 0,-5 -4,1 -5,-2 -2,4 5,2 -1,4 -3,1 -5,-1 -4,0 -4,0 2,-5 5,0 0,-4 -6,-1 -4,4 -5,0 -5,0 -4,-3 -2,3 -4,0 -4,0 -4,1 -1,4 -2,3 -1,3 -5,-2 -2,3 -5,0 0,-5 3,-3 5,0 3,-3 1,-5 -6,2 -3,2 -5,2 0,-6 -3,1 -2,4 -4,0 -3,3 -3,-5 -4,2 -2,-5 -4,2 -3,2 -5,2 0,-5 -4,1 -6,-1 -2,4 5,2 3,1 -3,4 -2,4 -2,-5 -3,3 -3,-5 1,-4 -4,-2 -3,3 -3,-1 2,7 4,-1 1,5 -4,3 4,1 5,-2 1,7 3,1 1,-4 4,0 1,-4 2,-3 3,-2 2,-1 3,-3 5,-2 -1,4 -1,4 -2,3 -4,1 -2,3 -1,4 -4,1 -3,4 4,1 -3,4 -3,1 -3,-6 -3,3 2,5 -4,2 1,7 3,-3 4,-2 4,0 3,1 1,-4 2,-3 4,2 4,0 -2,-5 -5,-2 3,-3 1,-4 3,-2 4,-2 1,-4 1,-4 3,-2 3,1 5,-2 5,1 -1,4 -4,1 -5,1 -2,3 -1,4 -1,4 -4,-1 -3,3 6,2 -1,4 -2,1 1,5 -1,4 -5,-2 -4,0 -1,4 0,5 -4,-2 -4,-2 -4,0 -2,3 -3,2 -3,1 -4,1 -6,-2 -3,1 -5,-1 -4,0 -4,0 3,-5 -5,-1 -2,3 -1,4 -5,0 1,-5 2,-6 -4,1 -4,0 -1,-5 -5,-2 -2,1 -2,3 -3,-1 -1,4 -3,2 -5,-2 -4,1 0,-6 5,1 3,-2 2,-4 3,-2 -3,-5 -3,1 -2,3 -2,3 -4,0 -4,2 -5,-1 -4,-1 2,-5 3,-3 2,5 5,-2 2,-2 3,-4 -4,-1 -5,2 1,-4 3,-4 -5,-2 -3,3 -2,3 -2,3 -3,1 0,5 -3,-1 -4,-2 1,-5 2,-3 3,-1 2,-3 3,-2 0,-4 0,-4 -4,-4 -3,2 -9,-2 -2,3 -4,1 -1,-5 -5,0 -1,5 4,2 0,4 3,5 4,0 -1,-5 3,-1 3,-3 3,-2 5,3 -3,3 -3,2 -2,4 -2,4 -4,1 4,5 3,6 4,0 0,6 4,0 3,1 -3,5 4,3 2,-2 2,-4 4,-1 0,5 -1,4 -2,3"/>
    <path style="fill:none;stroke:#000000;stroke-width:1"
          d="m 38,105 -4,0 4,6 4,2 1,-4 2,-3 1,-4 5,0 0,5 -2,3 -2,5 -5,2 4,6 2,-3 4,0 0,-5 3,-2 1,-4 0,-5 4,-1 4,1 0,-5 4,-2 0,5 5,0 0,5 -4,1 -3,2 -5,-2 0,4 -2,4 -1,4 -1,3 -2,3 -4,0 -2,4 5,2 4,-1 3,-3 2,-4 1,-4 1,-4 5,-1 0,4 -1,4 -1,4 -2,4 -3,3 -4,2 -4,1 4,6 3,-1 3,-2 3,-3 2,-4 4,-2 -1,-5 3,-2 2,6 -3,6 -3,3 -1,4 -3,2 -3,2 -3,3 5,2 1,5 4,-3 0,-4 3,-3 2,-3 2,-3 1,-4 3,-1 1,5 2,5 -3,1 -2,3 -3,2 -1,4 -4,3 -1,4 4,6 1,-5 2,-3 3,-3 2,-3 3,-3 4,-2 2,5 -3,2 -3,4 4,1 5,-2 0,5 -3,3 -4,-1 -2,3 -3,-6 -2,4 -1,3 -1,4 4,3 3,-3 4,0 3,-2 4,-2 3,-2 0,-5 3,-4 2,-3 3,-1 5,1 -1,4 -3,2 -3,2 -2,4 5,1 4,-3 4,2 -3,3 4,5 -2,3 -6,0 2,-4 -4,-1 -4,0 -4,1 -3,2 -1,3 -4,0 -4,0 -3,3 5,2 5,0 5,0 2,-4 3,-2 1,6 4,-1 4,0 4,0 4,-1 1,-4 2,-4 -5,-2 3,-3 3,-1 1,-4 1,-4 1,-4 1,-4 1,-4 1,-4 1,-4 1,-4 2,-4 1,-4 1,-4 2,-4 1,-4 2,-4 2,-5 -4,0 -3,3 -2,4 -1,4 -2,4 -2,3 0,4 -1,4 -2,4 -4,-2 -3,2 0,4 6,0 -1,4 -1,4 0,6 -3,3 0,4 -4,1 -1,-5 0,-5 2,-1 2,-3 -2,-5 -4,0 -2,1 -1,4 -4,0 -6,0 2,-4 3,-2 1,-4 -4,-4 2,-4 2,-5 0,-5 3,-2 3,1 0,-5 -5,-2 4,-3 5,0 2,-3 4,-2 4,1 -2,4 -2,3 -2,3 -4,0 2,5 -2,3 -4,1 -1,4 -3,3 1,5 4,1 1,-4 2,-3 4,-2 3,1 0,-5 0,-4 3,-2 2,-3 1,-4 2,-4 3,-3 2,-4 2,-1 5,2 2,-4 1,-4 1,-4 1,-4 1,-4 1,-4 1,-4 2,-3 4,0 4,0 4,0 5,0 3,-2 4,3 3,-3 1,-3 2,-2 0,-4 4,0 4,0 4,-1 4,2 3,-2 4,2 -1,4 0,4 0,4 -4,2 -4,1 -3,2 -5,-2 2,-4 5,-1 3,-1 1,-4 -5,-2 -4,2 -2,1 -3,3 -2,4 -2,2 -3,3 1,6 4,5 -1,3 -1,4 4,3 3,-3 0,-5 4,0 0,-5 -4,0 -5,-2 1,-4 4,0 5,2 4,1 2,-3 4,0 3,-2 3,-1 -1,7 4,0 -1,5 -4,0 -4,-4 -2,3 -4,1 0,5 -4,2 0,5 -3,1 -2,3 -5,-2 0,5 2,7 3,-3 2,-1 4,-1 1,-3 3,-3 0,-4 3,-2 1,-4 3,1 4,0 4,0 0,5 2,5 -5,0 -2,-5 -3,3 -1,3 -3,3 -1,4 0,4 5,-2 1,-4 5,3 0,-4 4,0 2,6 -2,3 -5,-1 -4,2 -2,3 -4,-1 -1,4 -3,3 -4,-1 2,-5 0,-4 1,-4 -5,3 -4,4 3,1 -2,5 1,8 3,-3 5,1 -1,4 -3,2 -2,4 2,5 3,-3 3,-2 2,-3 1,-4 0,-4 2,-3 3,-2 4,0 1,-4 3,1 5,-1 0,5 -3,2 -2,3 -5,-1 -2,3 -1,4 -1,4 -2,4 -3,3 -2,1 -4,2 0,4 5,-1 5,1 1,-5 3,-3 2,-4 1,-4 2,-3 4,0 3,-4 3,7 -3,2 -4,1 0,5 -3,2 -2,3 -1,4 -2,2 -5,1 -2,3 -3,-1 -5,-1 4,5"/>
    <path style="fill:none;stroke:#000000;stroke-width:1"
          d="m 201,171 -1,4 1,5 4,-3 2,-4 4,-1 2,-2 4,0 2,-2 2,-2 -1,-5 3,-2 1,-4 2,-3 2,6 1,6 -3,1 3,5 -3,1 -3,2 -3,2 -4,1 -4,2 -2,2 -4,2 -1,4 -2,2 7,0 2,-3 4,3 0,-5 3,-2 4,0 4,-4 4,-1 0,6 -4,0 -2,5 -4,0 1,5 -2,2 -5,-1 -4,0 -4,0 -4,0 -4,0 -4,0 2,-5 1,-4 -6,-1 0,5 -4,-1 0,6 3,1 0,5"/>
  </g>
</svg>
