<?xml version="1.0" encoding="UTF-8" standalone="no"?>
<!-- Created with the Eggbot TSP art toolkit (http://egg-bot.com) -->

<svg
   xmlns:dc="http://purl.org/dc/elements/1.1/"
   xmlns:cc="http://creativecommons.org/ns#"
   xmlns:rdf="http://www.w3.org/1999/02/22-rdf-syntax-ns#"
   xmlns:svg="http://www.w3.org/2000/svg"
   xmlns="http://www.w3.org/2000/svg"
   xmlns:sodipodi="http://sodipodi.sourceforge.net/DTD/sodipodi-0.dtd"
   xmlns:inkscape="http://www.inkscape.org/namespaces/inkscape"
   height="800"
   width="3200"
   id="svg3029"
   version="1.1"
   inkscape:version="0.48.2 r9819"
   sodipodi:docname="dallas.svg">
  <defs
     id="defs3071" />
  <sodipodi:namedview
     showgrid="false"
     showborder="true"
     inkscape:showpageshadow="false"
     id="namedview3031"
     inkscape:zoom="3.11"
     inkscape:cx="1569.2714"
     inkscape:cy="364.19109"
     inkscape:window-width="1920"
     inkscape:window-height="1033"
     inkscape:window-x="1276"
     inkscape:window-y="-4"
     inkscape:window-maximized="1"
     inkscape:current-layer="svg3029" />
  <metadata
     id="metadata3033">
    <rdf:RDF>
      <cc:Work
         rdf:about="">
        <dc:format>image/svg+xml</dc:format>
        <dc:type
           rdf:resource="http://purl.org/dc/dcmitype/StillImage" />
        <dc:subject>
          <rdf:Bag>
            <rdf:li>Egg-Bot</rdf:li>
            <rdf:li>Eggbot</rdf:li>
            <rdf:li>TSP</rdf:li>
            <rdf:li>TSP art</rdf:li>
          </rdf:Bag>
        </dc:subject>
        <dc:description>TSP art created with the Eggbot TSP art toolkit (http://egg-bot.com)</dc:description>
      </cc:Work>
    </rdf:RDF>
  </metadata>
  <g
     transform="translate(1339,354)"
     id="g3035">
    <path
       style="fill:none;stroke:#000000;stroke-width:1"
       d="m 213,152 3,0 2,0 3,0 2,0 1,-1 -2,-1 1,-1 2,0 1,2 1,-1 0,-2 1,-1 0,-2 0,-2 0,-2 2,-1 0,-2 2,0 0,-2 -1,-2 1,-2 0,-2 -1,-2 1,-2 -2,0 -2,-1 0,2 1,2 0,1 1,2 -2,1 -2,1 0,-2 1,-1 -1,-2 0,-2 0,-2 1,-2 -1,-2 1,-1 2,0 0,2 1,2 1,-1 0,-2 0,-2 0,-2 0,-2 -2,0 0,2 -1,1 -2,0 1,-2 -1,-2 1,-1 0,-2 -1,-1 1,-2 1,1 1,2 0,2 2,0 1,-1 -1,-2 1,-1 -2,-1 1,-1 1,-2 -2,0 -2,1 0,-2 1,-2 1,1 2,0 0,-2 2,0 0,-2 2,0 2,0 0,2 -2,0 -1,2 0,2 -1,2 2,0 3,1 0,-3 -2,0 0,-2 2,0 2,1 0,-2 -1,-1 0,-2 1,-1 1,2 1,2 2,0 -1,-2 1,-2 -2,0 0,-2 1,-1 1,-1 -1,-3 -1,1 -1,1 -1,1 0,2 -2,0 -1,1 -1,-2 -1,2 -2,-1 1,-1 0,-2 0,-2 -1,-2 1,-2 -1,-2 2,0 2,1 -1,1 -1,2 1,2 0,2 2,1 0,-2 1,-1 -1,-1 0,-1 1,-1 0,-2 1,-1 0,-2 1,-1 2,-1 0,1 2,-1 1,-1 1,-1 1,-1 1,2 -1,1 -1,1 -1,1 0,1 -1,1 -2,-1 -1,1 0,2 -1,1 0,2 2,-1 1,-2 1,-1 2,1 1,-1 0,-1 1,-2 0,1 1,1 1,2 1,-1 0,-2 0,-1 -1,-1 0,-1 -1,-2 1,-1 0,-2 -2,1 -1,-1 1,-1 1,-1 0,-1 1,-2 1,-1 0,-1 1,-2 0,-2 -2,-1 -2,2 1,1 0,1 -1,1 -1,1 1,1 -1,1 -1,1 0,1 -1,1 -1,1 1,1 -1,1 -1,1 -2,0 0,-2 1,-1 0,-2 1,-1 -1,-2 2,1 1,-1 -1,-1 1,-1 1,-1 0,-1 -1,-1 1,-3 -3,0 0,1 -1,1 -1,1 2,1 0,1 -2,1 -1,-1 -1,-2 0,-2 1,-1 -2,-1 -1,2 -2,1 2,1 -1,1 -2,0 -1,-2 -1,2 0,2 2,0 2,0 2,-1 0,2 -2,1 -2,1 0,-1 -2,1 1,2 2,0 2,-1 1,-1 2,-1 0,1 0,2 -1,1 -2,0 0,1 2,1 0,2 -1,1 -1,1 -1,1 1,1 -1,1 -2,-1 -2,0 1,-2 1,-1 1,-1 2,-1 -2,-1 -1,-1 -2,0 1,2 -2,1 -1,2 -1,2 -1,-2 1,-2 0,-2 -2,-1 2,-1 2,-1 -1,-2 0,-2 -1,-2 1,-1 1,-2 0,-2 -2,0 -1,1 -2,1 0,2 -1,1 -1,2 3,0 0,3 -3,0 -2,-1 -2,-3 1,-2 0,-3 1,-1 3,0 1,-2 1,-2 -1,-2 1,-2 1,-2 2,-1 -1,-2 1,-2 1,2 1,2 -1,2 -1,1 0,2 0,2 0,2 2,0 1,2 1,-2 1,2 1,-1 0,-2 -1,-2 -1,1 -2,0 0,-2 1,-1 2,0 2,-1 2,0 0,-2 0,-2 -2,0 -1,1 1,1 -2,1 -2,0 1,-2 -1,-2 2,0 1,-2 1,-1 1,2 1,-2 2,-1 0,-2 -2,1 -2,0 -2,1 -1,2 -2,0 -1,-2 -2,0 -2,1 -2,-1 0,-2 1,-1 1,-2 0,-3 1,-3 2,-1 0,-2 1,-1 3,0 -1,-3 2,-1 -1,-3 -2,1 -1,1 -1,2 -3,1 -1,2 -1,1 0,3 -2,-1 -1,2 -1,2 3,1 -2,2 -1,2 1,3 -1,2 -3,1 -2,1 -1,-3 3,-1 0,-3 -3,0 -2,1 -1,-3 3,-1 3,0 0,-2 0,-3 1,-2 2,-2 1,-2 3,-2 2,-1 0,-2 1,-1 3,-1 1,-2 1,-1 0,-3 2,1 2,-1 0,-2"
       id="path3037"
       inkscape:connector-curvature="0" />
    <path
       style="fill:none;stroke:#000000;stroke-width:1"
       d="m 239,14 1,-2 0,-2 1,-2 0,-2 0,-2 2,0 2,0 1,1 -2,1 0,2 -1,3 0,2 -1,2 0,3 -3,1 0,2 -2,1 2,2 3,0 2,-1 -2,-2 2,-1 0,-3 2,-1 0,-2 0,-2 0,-2 1,-1 3,-1 0,2 -1,2 0,2 0,3 -2,2 0,2 3,1 0,2 -1,2 -2,-2 -1,2 0,2 -1,2 -2,1 0,-4 -3,0 0,2 -1,2 0,3 -3,0 1,2 0,3 -2,1 -1,-3 -2,1 0,3 0,3 2,0 1,2 1,-2 1,-1 3,-1 0,-2 1,-2 0,-2 1,-2 1,2 1,2 -1,2 0,2 2,0 0,-2 2,-1 0,2 1,2 -1,2 -2,-1 0,2 2,1 -2,1 -2,0 -1,1 1,2 2,-1 2,1 0,-2 2,0 1,2 1,2 1,-2 0,-2 2,0 1,-2 1,-2 1,2 1,2 -1,1 1,2 -2,1 -1,-2 -1,2 0,2 -1,1 -2,1 -1,-2 -1,-2 -2,0 -2,-1 -2,1 2,1 -2,1 -1,2 -2,0 -1,1 1,2 1,-1 1,2 1,-2 1,-2 1,-1 2,-1 1,2 -1,1 -2,1 -1,2 2,0 2,-1 2,-1 1,2 1,-2 2,0 0,2 3,0 -1,-2 0,-2 2,0 -1,-2 2,-1 1,-1 0,-2 2,1 1,-1 -1,-1 1,-2 1,1 2,-1 -1,-1 -1,-1 0,-2 1,-2 0,-1 -2,1 -1,1 0,1 0,2 -1,2 -1,1 -1,-2 1,-1 0,-1 -2,-1 1,-1 1,-1 0,-1 1,-1 2,0 1,-1 -1,-1 -1,-2 2,0 0,-1 2,0 1,-1 1,-1 1,-1 0,-1 -1,-1 0,-1 -2,2 0,1 -1,1 -2,0 -2,0 0,1 -1,1 0,1 1,2 -2,0 -1,1 -1,1 -1,2 -1,-2 -1,-2 -2,1 1,2 -1,2 2,0 -1,2 -1,2 -2,0 0,-2 0,-2 0,-2 0,-2 -1,-1 -1,-2 -2,1 -1,-2 -1,-1 2,-1 2,-2 2,-2 2,-1 1,-2 0,-3 0,-2 -2,-1 1,-2 0,-2 3,0 2,-1 2,-1 1,-1 0,-2 3,-1 0,2 0,2 -1,2 -2,1 -2,1 -3,0 1,3 0,3 0,2 2,1 -2,1 2,1 -2,1 0,2 -3,-1 -2,1 -1,2 0,2 2,0 1,-2 2,1 1,2 2,-1 -1,-2 1,-1 1,-2 2,0 2,0 1,-1 1,-1 1,-1 1,-1 -1,-1 0,-1 -1,-1 -3,-1 -1,1 2,1 -1,1 2,1 -1,1 -2,1 -1,-2 -1,-2 -1,-2 1,-2 2,-1 2,-1 2,-1 1,-2 0,-2 0,-2 0,-2 0,-2 2,0 0,3 0,3 2,0 0,-1 2,-1 2,-1 -1,-2 -2,1 0,-2 1,-1 2,-1 0,-2 2,1 0,1 -1,2 1,1 0,2 0,2 -1,2 -1,-2 -1,1 0,2 -2,1 0,2 -2,-1 -1,2 -2,1 -1,1 3,1 2,1 -1,1 0,1 1,1 0,1 1,1 0,1 1,1 0,1 -1,1 -1,1 -1,1 3,0 0,1 -1,1 2,1 1,-1 1,-1 0,-1 -1,-1 0,-1 1,-1 0,-1 2,0 0,-1 1,-1 1,-1 1,1 -1,2 -1,2 -1,1 1,1 0,1 -1,1 -1,1 1,1 -1,1 -2,-1 -1,1 1,1 0,1 0,2 0,1 0,2 0,1 -1,1 0,1 1,1 -2,1 1,1 0,1 -1,1 0,2 -1,1 2,1 1,-1 1,-1 -1,-1 1,-1 0,-2 1,-1 1,-1 -1,-1 0,-1 0,-2 1,-1 0,-1 -1,-1 0,-1 1,-1 1,-1 1,-1 1,1 -1,2 0,1 0,2 1,1 -2,1 1,1 0,1 0,1 1,2 -2,0 1,2 -1,-1 -1,1 0,1 0,2 -1,1 -1,1 -2,1 -1,-1 -1,1"
       id="path3039"
       inkscape:connector-curvature="0" />
    <path
       style="fill:none;stroke:#000000;stroke-width:1"
       d="m 271,61 -1,1 2,1 -1,1 -1,1 1,2 -2,0 -1,-1 0,-2 0,-1 -1,-1 1,-1 1,-1 0,-1 -1,-1 1,-1 1,-1 0,-1 -1,-1 1,-1 -1,-1 1,-1 1,-1 0,-2 0,-1 -1,-1 0,-1 2,0 -1,-1 1,-1 -1,-1 0,-1 -1,-1 1,-1 -2,-1 0,-1 -1,-1 -2,1 0,1 1,1 0,1 1,1 0,1 1,1 -2,0 -1,1 1,1 0,1 1,1 0,1 1,1 -1,1 -2,0 -1,1 2,1 -1,1 0,1 1,1 0,1 -1,1 -2,-1 0,-1 -1,-2 -1,1 -1,1 -1,1 2,1 -1,1 -1,1 -1,1 1,1 2,-1 1,-1 1,-1 2,1 0,1 -1,1 -1,1 1,1 -1,1 2,1 -1,1 1,1 -2,1 0,2 -1,1 -1,1 -1,1 -1,1 1,1 0,1 -1,1 0,2 0,1 0,1 0,2 -2,0 0,-1 0,-1 -1,-2 1,-1 0,-1 -1,-1 1,-1 -1,-1 0,-1 1,-1 0,-1 1,-2 1,2 1,-1 1,-1 -1,-1 0,-1 2,-1 -2,-1 1,-1 0,-2 -2,1 -1,2 -2,-1 0,3 -1,2 0,1 -1,1 -1,1 -1,1 2,1 -1,1 0,1 1,1 -1,1 1,1 -1,1 1,1 0,1 1,1 0,1 -1,1 0,1 2,0 2,-1 0,1 2,-1 2,0 1,-1 -2,-1 1,-1 0,-1 1,-1 -2,-1 1,-1 0,-1 1,-1 -1,-2 1,-1 2,-1 0,-1 0,-2 2,0 2,0 -1,2 0,1 3,0 0,-1 0,-2 2,1 1,2 1,-2 -1,-3 -1,1 -1,-2 1,-1 0,-2 1,-1 2,1 -1,1 1,1 2,-1 0,-2 -2,-1 1,-1 2,1 0,-2 -1,-1 1,-1 2,-2 0,-4 1,-2 -1,-4 0,-2 3,-1 1,-1 1,-1 -1,-2 1,-1 1,-2 -1,-1 0,-2 0,-1 1,-2 0,-2 -1,-2 2,-1 -2,-1 0,-2 -1,-1 1,-1 2,-1 -1,-2 -1,-2 -1,1 -1,1 1,1 -1,1 -2,0 -1,-2 2,-2 0,-2 1,-2 1,1 0,1 2,0 2,1 -1,1 1,1 1,2 1,2 0,1 -1,1 -1,1 2,1 2,-1 1,-3 -2,-2 0,-2 -1,-2 0,-2 -2,0 -2,-1 0,-1 2,0 1,-2 1,2 1,-2 3,-1 1,-2 2,-1 1,3 1,2 -2,1 -1,2 -2,-1 -1,2 1,3 3,0 2,-1 0,-1 0,-2 1,-1 1,-2 1,-1 -2,-1 1,-1 3,1 1,1 -1,2 -1,1 -2,1 1,2 0,1 -1,1 -1,1 -2,1 -2,1 0,3 -1,2 0,2 -3,0 -2,0 0,1 -1,1 2,1 -2,1 1,2 -1,1 0,2 0,2 2,1 -2,1 -2,1 2,2 2,-1 0,3 -2,1 -2,-2 -2,1 -1,2 2,0 -1,2 -1,1 1,1 -1,2 2,0 2,-1 0,-2 1,-2 2,1 -1,2 1,2 -2,1 -1,2 -2,1 -1,-2 -1,1 0,2 -1,2 3,1 -1,2 1,3 -3,1 3,2 -2,2 0,2 -1,4 3,-1 0,3 0,3 -3,-1 1,3 3,2 1,-2 1,-2 0,-2 0,-2 0,-2 3,-1 0,4 0,3 -1,2 -1,2 -1,2 -2,1 2,2 -1,1 0,2 -1,2 -1,3 0,3 3,-1 1,2 -1,1 0,2 -1,2 -1,2 -2,0 -2,1 -1,3 2,0 0,2 -1,1 -2,3 3,-1 2,-1 0,-2 0,-2 0,-2 2,0 1,-2 1,2 1,-2 -1,-2 1,-2 2,2 0,2 -1,2 1,2 1,-2 2,0 -1,-1 1,-1 2,-1 1,2 -1,1 1,1 -1,2 -2,0 -1,1 1,1 2,0 1,2 -1,1 0,2 0,2 1,1 1,2 -2,0 -2,-1 -1,-2 0,-2 1,-2 -3,0"
       id="path3041"
       inkscape:connector-curvature="0" />
    <path
       style="fill:none;stroke:#000000;stroke-width:1"
       d="m 295,118 1,-2 -1,-2 -2,1 -1,-1 -1,-2 -1,2 1,2 -1,2 -2,1 -2,0 -1,2 0,2 0,2 3,0 0,-2 0,-2 2,0 3,-1 1,3 -3,1 0,2 -1,2 -1,2 3,2 1,-1 1,-3 0,-2 2,0 2,0 0,2 -1,3 -1,2 3,0 2,-1 0,-2 1,-1 1,2 2,-1 -1,-2 -2,-1 2,-1 2,1 2,0 2,-2 -2,-1 -2,0 -1,-2 -1,2 -1,-2 -1,-2 2,0 0,-1 2,-1 0,-1 0,-2 1,-1 1,2 2,0 -1,2 0,2 -2,0 0,2 2,0 1,1 2,-1 -1,-2 0,-2 1,-2 -1,-3 -2,1 0,-1 -1,-1 1,-1 -1,-1 1,-1 -2,-1 -1,2 0,2 -1,1 -1,2 -1,2 -1,-2 0,-1 1,-1 0,-2 1,-1 0,-1 -1,-1 -1,-2 2,0 1,-1 -2,-1 -2,0 -3,1 -2,-1 1,-2 1,-2 2,-1 1,3 1,-1 1,-1 -1,-2 0,-2 -2,0 2,-1 0,-2 -1,-1 1,-1 1,-1 -3,-1 2,-1 1,-2 -2,0 -1,-2 -2,2 -1,2 0,2 1,3 -1,1 0,3 -2,-1 -1,3 -2,-2 -1,-1 1,-2 1,-2 1,-1 -1,-3 1,-2 2,-2 1,-2 1,-2 -1,-3 0,-2 1,-2 -1,-3 1,-2 2,-1 2,-1 1,-1 1,-1 2,-1 0,2 0,1 -2,1 2,1 -2,1 -1,-1 -1,1 -1,1 0,2 0,2 1,1 -1,1 0,2 0,2 1,1 0,2 0,1 2,-1 2,0 1,-1 1,-1 0,-2 0,-2 -1,1 -1,1 -1,1 -1,1 -1,-2 1,-1 0,-1 1,-1 1,-1 2,0 0,-2 -2,0 -2,1 0,-1 -1,-1 1,-1 2,0 1,-1 1,1 0,-2 0,-2 0,-2 0,-2 0,-2 -2,0 1,-1 1,-1 1,-2 -1,-2 -1,1 0,1 -2,0 0,1 -1,1 -1,1 1,1 0,1 -2,1 -1,-1 -1,2 -3,1 -2,-1 -1,3 0,3 -2,1 -2,1 0,-2 1,-2 0,-2 0,-2 0,-1 0,-2 2,0 4,1 0,-2 1,-1 3,1 0,-2 1,-1 -1,-2 2,1 1,-1 -1,-1 0,-1 -2,-1 -2,0 -1,2 0,2 -3,0 -2,2 -2,1 -1,-2 2,-1 0,-2 1,-1 2,0 1,-3 1,-1 -1,-3 1,-1 -1,-3 1,-1 -1,-3 2,-1 2,2 2,-1 0,-1 1,-1 0,-1 1,-1 0,-1 -1,-1 1,-1 1,-1 1,-1 -1,-1 0,-1 1,-2 0,-1 1,-1 -1,-1 0,-1 2,0 -1,-2 1,-1 2,-1 0,2 0,2 0,2 0,2 -2,0 -1,2 1,2 1,-1 2,1 2,0 2,0 2,-1 2,1 2,-1 -1,3 -3,0 -1,2 -2,-1 -2,0 -2,1 -1,-1 -1,1 -1,-2 -1,1 1,2 -1,1 0,1 -1,1 1,2 -1,-1 -1,1 -1,1 -1,1 0,1 -2,1 0,4 2,-1 0,-1 1,-1 1,-1 1,-1 0,-1 2,0 1,-1 1,-1 -1,-1 0,-1 1,-1 0,-1 2,0 1,-1 2,0 2,1 0,1 1,2 -1,1 -2,-1 0,-1 -1,-1 -2,1 0,1 1,1 -1,1 -1,1 -1,1 -2,1 -1,1 -1,1 0,1 -2,1 0,1 -1,1 -1,1 2,1 2,1 1,1 0,1 2,-1 1,-2 2,-1 1,-1 -1,-1 1,-1 1,-1 -1,-2 -1,1 -1,1 -1,2 -1,1 0,1 -1,1 -2,-1 0,-1 1,-1 1,-1 1,-1 0,-1 1,-1 1,-1 2,-1 1,-1 2,-1 1,1 0,1 -1,1 -1,1 2,1 -1,1 1,1 2,-1 1,-1 -1,-1 1,-1 1,-1 -2,-1 1,-1 0,-2 0,-1 2,0 2,0 1,-2 -1,-4 0,-2 1,-2 3,1 -1,3 2,-1 2,-1 2,-1 1,-2"
       id="path3043"
       inkscape:connector-curvature="0" />
    <path
       style="fill:none;stroke:#000000;stroke-width:1"
       d="m 333,26 2,1 -1,3 -2,1 -3,3 0,3 -2,0 -1,1 -2,1 -2,0 -1,1 2,1 -1,1 1,1 -1,1 -1,1 2,1 1,-1 2,-1 1,1 0,1 -1,1 -2,1 2,1 0,1 -1,1 0,1 -2,1 -1,-2 0,-2 -1,-2 -2,1 0,2 1,2 0,2 -1,2 1,2 0,2 1,2 -2,1 -2,-2 0,-2 -1,-3 0,-2 1,-1 -1,-3 0,-1 -2,-1 0,2 0,2 -1,2 0,2 1,2 0,2 0,2 -2,1 2,2 3,-1 1,2 -2,1 2,2 -1,1 2,4 1,-2 1,2 2,-1 0,-2 -2,-1 0,-2 0,-2 1,-1 2,-1 0,-2 -1,-2 0,-2 -1,-2 2,0 1,-1 1,-1 1,-1 1,-1 0,-1 0,-2 0,-1 1,-2 0,-2 2,-1 0,1 0,2 1,1 -2,1 2,1 -1,1 -1,1 2,1 -1,1 -1,1 -1,1 -1,1 1,1 -2,0 0,1 -1,1 0,1 1,1 -1,1 0,2 -1,2 -1,2 2,1 1,-1 2,0 0,-1 -2,-1 2,-1 -1,-1 0,-1 2,-1 0,-1 -1,-1 1,-1 1,-2 1,-1 0,-1 2,1 0,-2 0,-1 0,-2 2,2 2,-1 1,-2 1,-2 1,-1 1,1 0,3 0,2 -2,0 -1,1 -2,1 -1,1 1,1 -2,1 -2,0 -1,1 0,2 2,-1 1,1 0,1 -1,1 1,1 2,0 0,2 -2,0 -1,1 -1,-2 -1,-2 -1,1 0,2 1,1 0,1 -1,1 -1,2 -1,-1 -1,1 -2,0 0,2 0,2 -3,2 2,0 1,2 2,-1 1,2 1,-1 -1,-2 -1,-2 0,-2 2,0 0,2 1,2 1,-2 2,-1 0,-2 -2,1 0,-2 2,-1 1,-1 1,-1 2,1 2,-1 2,-1 -2,-2 -1,-1 1,-1 -2,-1 1,-1 -2,-1 1,-1 1,-2 1,-1 1,-1 1,2 0,1 -1,1 0,1 1,1 0,1 1,2 2,-1 -1,-3 1,-1 -1,-2 -1,-2 1,-2 1,2 2,-1 -1,-3 3,0 1,3 0,3 -3,0 1,3 -1,2 3,2 2,-1 0,-3 3,0 0,3 0,3 -1,2 3,1 1,-3 1,-2 2,0 2,0 -1,2 -1,1 2,1 -2,1 0,1 1,1 -1,1 -2,0 -3,1 1,3 -3,0 -3,0 -2,-4 3,0 2,-1 -3,-3 -3,0 -1,-3 -2,1 0,2 1,2 -1,2 -1,-2 -3,1 -1,1 0,2 0,2 3,1 0,-3 2,1 2,-1 0,3 -1,2 -3,1 -3,-1 0,1 -2,1 0,4 3,-2 3,-1 0,3 -1,2 -3,1 -1,2 1,3 0,3 1,1 2,0 2,0 -2,-2 1,-2 -1,-3 3,0 1,-3 1,-3 1,-2 2,-2 3,-1 0,2 0,2 0,2 0,2 0,2 -3,-1 -1,3 -2,3 -1,2 1,2 2,-1 2,-1 1,2 1,-2 1,2 2,0 -1,-2 0,-2 -2,0 0,-2 2,0 0,-1 0,-2 0,-2 0,-2 0,-2 0,-2 2,-1 1,1 0,3 0,3 0,3 3,3 -2,1 -1,2 0,2 2,0 2,0 1,-1 -1,-1 1,-1 1,-1 -1,-2 1,-1 -2,-1 0,-2 2,1 0,-2 -2,-1 2,-1 -2,-1 2,-1 -2,-1 1,-1 1,-2 -1,-2 -1,2 -2,1 0,-2 0,-1 -1,-2 2,-1 1,2 1,-1 0,-2 1,-1 -1,-2 1,-2 -1,-2 1,-2 0,-2 -2,0 -2,0 -3,-1 -1,-3 -3,-1 -1,-3 1,-1 3,-1 0,3 3,0 2,0 0,2 0,1 -2,0 1,2 2,0 2,0 0,-2 -1,-2 1,-1 -1,-2 2,-1 0,-2 1,-1 0,-2 -2,0 -1,1 -1,2 -1,3 -2,-1 0,-2 1,-2 0,-2 0,-2 -2,0 -2,1 1,2 -1,2 -1,-1"
       id="path3045"
       inkscape:connector-curvature="0" />
    <path
       style="fill:none;stroke:#000000;stroke-width:1"
       d="m 356,48 -2,0 -1,2 -1,-2 0,-1 1,-1 1,-1 1,-2 -2,-1 0,-2 1,-2 -2,0 -2,1 0,2 1,2 -2,1 1,1 -1,1 1,2 -2,0 0,-1 -1,-2 -1,1 0,2 -2,0 0,-1 -1,-1 1,-1 -2,-1 -2,1 0,1 -2,1 -1,1 -2,0 0,-4 -1,-3 2,0 2,0 3,0 4,1 0,-3 1,-3 4,0 2,-1 0,-2 1,-2 -1,-1 1,-2 2,1 0,-2 -2,-1 -1,-2 -2,0 0,2 0,2 0,3 -1,2 -3,-1 -3,0 -1,3 -1,2 -2,1 -1,-3 -2,1 0,2 -3,0 0,-3 2,-2 2,-1 2,0 1,-3 -3,0 1,-2 0,-2 -2,-1 1,-2 3,0 3,0 -2,3 3,3 2,-1 1,-3 3,-3 1,-2 2,0 1,2 -1,1 1,2 2,0 1,-2 -1,-2 0,-2 1,-2 2,1 0,2 0,1 0,2 -1,2 -1,2 1,2 0,2 2,0 -1,2 -2,1 -1,-2 -1,2 -1,2 1,2 2,-1 2,-1 0,1 0,2 -2,1 -1,1 1,2 2,-1 2,0 0,-2 2,-1 -1,-2 -1,-2 0,-1 2,-1 1,2 1,2 0,2 0,2 -2,1 1,2 -1,1 2,1 2,0 0,-2 -1,-1 1,-2 0,-2 2,-1 -2,-1 -1,-2 1,-1 0,-2 -2,0 -2,-1 1,-1 2,-1 1,1 2,0 1,-1 0,-1 2,0 1,-1 2,0 -1,2 -1,1 0,1 -2,0 -2,1 2,1 -1,1 0,1 -1,1 2,1 1,-1 2,0 0,2 0,1 -2,0 0,2 1,1 2,-1 1,-1 1,-1 -1,-2 1,-1 1,-2 2,-1 2,-1 0,2 -1,1 -2,1 0,2 0,1 1,1 -1,1 -1,1 -1,1 1,1 0,1 -2,0 -1,-2 -1,1 0,1 -2,0 0,2 2,0 2,0 2,0 0,2 -2,1 -1,-1 -2,0 -1,2 2,0 1,1 0,2 -2,-1 0,2 1,1 -1,1 0,2 1,1 -1,1 0,2 0,2 2,-1 1,-2 1,4 1,-2 1,-2 -1,-2 1,-2 -2,0 -1,2 -1,-2 1,-2 2,0 -1,-2 1,-1 1,1 -1,-2 1,-1 1,-2 2,1 -1,1 0,2 1,1 -1,2 1,2 -1,2 1,2 0,2 0,2 -2,0 -1,2 3,1 -1,2 -3,-1 -2,0 -1,-2 -2,2 2,3 2,2 0,-1 1,-1 2,0 1,1 -1,1 3,0 2,2 0,-3 -2,-1 2,-1 0,-2 0,-2 0,-2 0,-2 0,-2 0,-2 0,-2 0,-2 0,-2 0,-2 0,-2 0,-2 0,-2 0,-2 -3,1 1,2 -1,1 -2,-1 0,-2 0,-2 2,0 0,-1 1,-1 -1,-2 0,-1 -1,-1 2,-1 2,0 0,2 0,2 0,2 6,1 5,2 1,-2 1,-1 1,2 -1,1 -1,2 0,2 1,1 -1,1 1,2 -2,1 0,2 0,2 -2,0 0,-2 -2,0 0,1 0,2 0,2 0,3 1,-1 1,-1 0,-2 2,0 0,2 0,2 -1,1 -1,1 2,1 -2,0 -2,0 0,2 2,0 2,0 0,2 -2,0 -1,1 0,1 -1,2 0,3 0,2 2,-3 1,-1 -1,-1 1,-1 1,-1 2,1 1,3 1,-1 0,-2 0,-2 -1,-1 1,-1 0,-2 -1,-1 0,-2 2,0 -2,-2 1,-1 0,-2 -1,-1 2,-2 -2,0 0,-2 1,-1 0,-2 0,-2 0,-2 -1,-1 2,-1 2,-1 -2,-1 2,-1 0,-2 -2,0 -1,1 -1,-2 -2,0 0,-2 -1,-1 2,-1 -1,-1 -1,-2 2,0 -1,-2 1,-2 -2,0 -5,0 -5,3 -1,2 -1,-2 -1,-2 -1,-2 2,0 0,-2 0,-2 -1,-2 2,-1 1,1 1,-2 2,1 2,-1 2,0 2,-1 1,3 1,-1 0,-1 0,-2"
       id="path3047"
       inkscape:connector-curvature="0" />
    <path
       style="fill:none;stroke:#000000;stroke-width:1"
       d="m 397,17 2,-1 2,1 -1,1 -1,1 2,1 -1,1 -1,1 -1,1 0,1 -2,0 0,2 2,0 2,0 0,-2 2,-1 1,-3 0,-1 1,-1 0,-1 2,-1 1,-1 2,0 0,2 -2,1 -1,2 2,1 -1,2 -2,-1 0,2 0,2 0,2 -1,3 -2,0 -1,-1 1,-2 -2,0 -1,2 1,2 0,2 2,-1 0,1 0,2 -2,0 -1,1 2,1 2,0 2,-2 2,2 0,2 4,2 1,-2 3,0 -1,-3 3,0 -1,-3 1,-2 2,1 0,-2 2,0 2,0 0,-2 1,-1 2,0 0,-1 1,-1 1,-1 1,-1 1,1 0,2 -1,1 -1,1 -2,1 0,2 2,-1 0,1 1,1 -1,1 -2,0 -2,1 -3,0 0,3 1,2 -2,0 -1,2 0,2 1,-1 2,-1 2,-1 1,-1 1,-2 1,-1 1,-1 3,0 0,-1 0,-2 1,-1 -2,-1 1,-1 0,-1 1,-2 1,-1 -1,-2 1,1 2,0 -1,-2 -1,-1 1,-1 -2,-1 -1,2 -1,1 -1,-2 1,-1 0,-2 0,-1 -1,-1 1,-1 2,-1 0,2 1,1 -1,1 2,1 2,0 0,2 3,1 0,-2 0,-2 1,-1 2,-1 0,-1 1,2 1,2 -2,1 0,2 3,0 2,-2 0,-2 1,-1 -1,-2 -2,1 0,-1 1,-2 1,-2 2,0 1,2 -1,1 2,1 -1,1 1,3 -1,2 -1,3 1,15 1,-5 0,-4 1,-2 -1,-3 1,-2 4,-3 3,0 3,0 3,0 2,1 2,-1 3,0 2,-1 2,-1 0,-1 -2,-1 0,-2 2,1 2,1 1,-1 0,2 0,1 2,1 -1,1 -2,0 -1,-1 -1,1 -1,1 0,2 -1,1 2,2 1,-1 0,-2 1,-1 2,0 1,1 -2,1 2,1 2,-1 0,-2 0,-1 1,-1 -1,-2 -2,-1 0,-2 2,1 0,-2 -1,-2 2,-1 2,-1 0,-3 2,-2 3,0 0,2 -1,2 -1,1 -1,2 -2,1 0,2 3,0 1,-2 2,-1 0,3 2,-1 1,-3 -2,-1 1,-2 0,-2 2,-1 2,0 -2,1 0,2 2,-1 1,2 -1,1 0,2 -1,2 3,0 1,-3 2,-1 0,-1 -2,-1 1,-1 -1,-1 1,-1 2,-1 1,1 -1,1 1,1 0,1 0,1 2,0 1,-1 1,1 2,0 0,-1 0,-1 1,-1 0,-1 2,0 0,-1 0,-1 2,0 0,2 1,2 -2,0 -1,1 -1,1 2,0 2,0 2,0 0,-2 1,-1 0,-2 -2,1 0,-2 1,-1 0,-1 -1,-1 -2,1 -1,-1 -1,1 -1,1 -1,-2 -3,0 1,1 0,1 1,1 -1,1 -1,1 -1,2 -1,-1 0,-2 1,-2 -1,-2 -1,1 -1,1 -1,-2 -2,1 -1,2 -2,-1 -4,-1 -5,-1 -2,0 -2,1 -2,0 -2,0 2,4 -1,1 1,2 -2,1 -1,-2 -1,-2 -2,1 1,2 0,2 0,2 -2,1 -2,-1 1,-2 -1,-2 1,-1 -1,-2 2,-1 1,-3 -2,0 0,1 -2,1 -1,-2 -2,1 0,-2 -2,0 -1,2 1,1 -1,2 2,0 2,-1 1,2 -2,1 1,2 -1,1 1,2 -2,1 1,2 -2,1 -3,0 0,-2 1,-1 1,-2 -2,-1 1,-2 1,-1 -2,-1 -2,1 -1,2 1,2 -1,2 0,3 -3,0 -3,0 0,-2 1,-1 2,0 1,-2 0,-2 -2,1 -2,0 -1,2 -2,1 -1,1 -1,-2 1,-1 2,-1 0,-2 0,-1 2,-1 1,2 1,-2 2,1 0,-2 2,0 2,-1 1,-1 -1,-2 -2,0 -1,2 -1,-1 -3,1 -4,-3 0,5 -1,1 0,2 -2,1 -2,-4 -1,2 -1,1 -2,1 -1,2 -1,1 -2,0 -2,1 -1,1 -1,2 -2,1 -1,-2 2,-1 -1,-3 1,-3 2,2 1,-2"
       id="path3049"
       inkscape:connector-curvature="0" />
    <path
       style="fill:none;stroke:#000000;stroke-width:1"
       d="m 439,8 2,1 2,0 0,-2 1,-2 2,-3 -4,-1 -2,2 -1,2 -2,-4 -1,3 -2,1 -4,1 0,-2 1,-2 1,-2 -5,0 -1,2 0,2 0,3 -2,-1 -2,1 -1,-2 1,-2 0,-2 -2,1 -1,3 -2,1 2,1 0,2 0,2 -2,1 2,1 -2,1 -2,1 2,2 3,-1 2,0 1,-2 1,1 2,-1 1,3 -1,-1 -2,1 -1,1 -1,1 0,1 0,2 1,1 1,-2 1,-1 1,-1 1,-1 1,1 -1,2 0,1 -1,1 0,1 -1,1 -2,1 0,-1 -2,1 0,2 -2,1 -1,-3 1,-2 0,-2 0,-2 -3,0 -1,2 -1,2 1,3 -1,3 -2,2 -1,2 0,3 -3,-2 -2,-2 1,-2 2,0 -1,-3 1,-2 2,1 0,-3 0,-3 1,-2 0,-3 0,-2 2,-1 -1,-1 1,-1 1,-1 2,-1 -2,-1 -1,-2 -1,-2 1,-1 3,0 0,-3 -3,0 -3,1 -2,0 -1,1 1,1 0,1 2,1 1,1 1,2 -1,1 -2,0 0,-2 -1,-1 -1,1 -1,-2 -1,1 0,2 -2,1 1,2 2,-1 1,-1 1,2 0,2 -1,-1 -1,1 -2,0 -1,1 -2,-2 -1,2 -3,-1 1,-3 2,-2 1,-2 2,0 -1,-2 1,-1 2,0 -1,-2 -2,0 -1,1 -1,2 -1,1 -1,1 -2,0 -2,1 1,2 0,2 -2,1 2,1 -1,2 -2,1 -3,1 -1,1 -1,-2 0,-2 0,-2 3,1 -1,-2 1,-2 -2,-3 1,-2 1,2 2,-1 2,0 2,-1 1,-1 2,-1 0,-2 -2,0 -1,1 -3,-1 -2,1 -3,0 -3,0 -3,0 -3,-1 -1,2 -1,3 -1,1 0,3 0,3 1,3 2,-2 1,-2 0,-3 2,1 0,-3 1,-1 2,0 1,2 0,2 -2,2 -1,3 0,3 -1,2 -2,0 -2,-1 -1,2 0,2 2,1 1,-2 1,2 0,2 -2,0 -1,1 1,1 1,2 -1,1 -2,0 -2,0 0,-2 2,0 -1,-2 1,-2 -2,0 0,-2 0,-2 -1,-1 -1,2 0,2 0,1 -2,0 -1,1 -2,0 -1,-1 -1,2 -1,-2 -2,0 1,2 -2,1 -2,1 -1,-2 2,-1 -1,-2 2,-1 0,-1 -1,-2 0,-2 -1,-1 0,-2 -1,-2 1,-1 -1,-2 2,-1 2,-1 0,1 -1,2 1,1 1,2 -2,0 1,2 1,2 1,-2 1,-2 2,0 1,-1 1,-1 0,2 -1,2 -2,0 0,2 2,0 -1,2 -1,-1 -1,1 -2,0 0,1 1,2 2,-1 0,1 2,1 0,-2 2,1 0,-2 0,-1 1,-3 1,-1 -1,-3 1,-1 -1,-1 1,-1 0,-2 0,-2 -2,0 -1,-1 1,-1 2,0 1,-2 -2,0 -1,-1 -1,1 -1,1 -1,-2 -2,1 1,2 0,1 1,1 -1,1 1,1 2,-1 1,1 0,1 -1,1 -2,0 0,1 -1,1 -2,0 0,-2 1,-1 -1,-2 -1,-1 1,-1 -1,-2 -1,-2 -2,1 1,2 -2,0 1,2 -2,1 -2,1 0,2 -2,-1 -2,0 -1,2 -2,1 0,1 0,2 2,0 1,-2 1,-2 2,1 1,2 0,1 -2,0 -1,2 -2,1 -2,-1 -2,0 -2,0 0,2 -1,2 -3,-1 -3,0 -2,0 -2,0 -2,-1 0,-2 3,0 2,0 3,0 1,-2 3,-1 1,-2 1,-3 -3,0 -1,-3 3,0 3,1 1,2 1,-2 1,-1 2,0 2,0 2,-1 0,-2 -3,-1 -1,-1 -1,1 -2,-1 1,2 -3,1 -2,-2 0,-1 -2,1 -1,-1 0,2 -3,0 1,-1 -1,-1 -2,1 -1,-1 -1,1 -2,0 -1,-1 -1,1 1,2 0,2 1,2 0,1 -1,2 3,0 1,-2 0,-1 -1,-1 0,-1 2,-1 1,1 0,2 2,2 -1,2 -2,2 -2,0 -2,0"
       id="path3051"
       inkscape:connector-curvature="0" />
    <path
       style="fill:none;stroke:#000000;stroke-width:1"
       d="m 336,13 -2,0 -1,1 -2,1 0,2 1,2 -2,1 0,2 2,-1 2,0 -1,3 -3,1 -3,0 1,-2 -1,-2 -2,2 -2,1 -2,1 -2,-1 -2,1 -2,-1 -2,2 0,-2 0,-2 0,-2 0,-2 0,-2 0,-2 0,-2 0,-2 -2,0 -1,1 0,2 0,2 -2,1 -2,1 -1,2 0,1 -2,1 0,1 1,1 -1,1 1,1 -1,1 -1,1 0,1 1,1 -1,1 -2,1 -1,1 2,1 -1,2 -3,-1 -3,0 1,-3 1,-3 3,0 1,-3 1,-1 0,-2 0,-2 1,-1 1,-1 1,-1 1,-1 1,-1 1,-1 0,-1 -1,-1 2,-1 0,-2 2,-1 -1,-2 0,-1 3,0 0,1 0,2 2,0 1,-1 0,-2 2,1 1,-1 2,-1 0,2 -1,1 -1,1 0,2 -2,-1 0,2 -1,1 2,1 0,2 -2,1 2,1 0,1 -2,2 2,1 0,1 2,-2 2,2 2,-1 2,-1 2,-1 1,-2 -1,-2 0,-3 2,-1 0,2 3,-1 0,-2 -1,-2 2,0 0,-2 0,-1 -2,1 0,-4 1,-1 -1,-1 -2,0 0,2 -2,-1 -1,-1 0,2 -1,2 1,1 1,2 0,2 -2,1 -2,0 0,2 2,1 -2,1 0,2 2,1 -2,1 -2,1 -1,-2 0,-2 0,-2 -1,-1 2,-1 -1,-1 1,-1 1,-1 2,0 1,-1 -1,-1 -2,0 0,-2 0,-2 2,-1 -1,-1 -2,0 -2,1 -2,0 -2,1 -3,-1 -2,0 -1,-1 -1,1 -2,-1 0,1 -2,1 0,-1 -2,-1 -1,1 -2,-1 -1,1 -2,0 -2,0 -1,-1 -2,1 0,2 2,0 -1,2 -2,0 -1,2 -2,-1 1,-1 1,-2 -1,-1 0,-2 -2,0 0,2 -2,0 0,-1 -2,-1 0,2 0,2 2,0 0,3 -2,-1 -1,1 1,2 0,1 -1,1 1,1 -1,1 0,1 -1,1 0,2 0,1 1,1 -1,1 1,1 0,1 2,-1 2,0 0,2 0,1 0,2 1,1 -1,1 1,1 -1,1 0,2 0,3 -2,1 -1,3 -3,-1 1,-1 0,-2 0,-2 2,-1 0,-2 0,-2 0,-3 -1,-1 0,2 -1,1 -2,-1 0,-1 1,-1 -1,-1 1,-1 -1,-2 -2,-1 0,2 -1,1 1,1 0,1 -1,1 0,1 1,1 0,1 -1,1 -1,1 -1,-2 0,-1 -1,-1 0,-2 1,-1 -2,-1 1,-1 2,-1 0,-2 2,-1 2,1 0,-2 0,-1 0,-2 0,-1 1,-1 -1,-1 0,-2 1,-1 1,-2 -2,0 -1,-2 2,-1 0,-1 -2,0 -2,1 -1,-2 -1,1 -2,-1 -1,1 2,1 -1,1 1,2 -2,0 -1,-2 -1,2 -1,-2 1,-1 0,-1 -2,-1 -1,1 -1,1 1,1 -1,1 2,1 0,1 -2,0 -1,1 -1,1 -1,-2 0,-1 1,-1 0,-2 0,-2 -2,1 -1,1 1,1 -1,1 -1,1 0,1 1,1 0,1 -2,2 0,2 -2,1 -3,0 1,-2 1,-2 2,-1 0,-1 -1,-3 1,-1 1,-1 0,-2 -2,0 -2,1 -1,3 -2,-4 -4,2 0,-1 -2,-1 -1,1 0,1 -2,-2 -1,1 0,1 -1,2 -1,1 0,1 0,2 -2,1 1,2 -1,2 -2,-4 -1,2 0,2 -1,1 -2,1 2,2 -2,1 0,2 -3,-3 -1,1 -1,2 2,1 -2,2 -1,1 0,2 -2,1 -2,-1 0,3 -1,2 -2,-1 0,-3 0,-3 1,-3 2,2 2,-2 -2,-1 1,-2 1,-1 2,-2 2,-1 2,-1 2,-2 0,-3 2,-1 2,-1 1,-1 1,-2 2,-1 -1,-2 -1,1 -2,0 -1,-1 1,2 0,1 -2,0 0,1 -2,1 -2,1 -1,2 1,2 -2,1 -2,1 -2,2 -2,1 0,-3 1,-2 0,-2 2,-1 1,2 1,-3 0,-1 1,-1"
       id="path3053"
       inkscape:connector-curvature="0" />
    <path
       style="fill:none;stroke:#000000;stroke-width:1"
       d="m 226,4 2,0 1,-1 1,-1 1,-1 -1,-1 -2,0 -1,1 -1,1 0,-2 -2,0 0,2 -1,1 -1,-2 -1,-1 -2,0 -1,1 -1,2 2,0 1,-1 1,1 1,2 -2,0 -2,0 0,1 0,3 -1,1 -2,-2 0,-2 0,-2 -2,0 -1,1 -2,1 0,-2 1,-1 2,-1 2,0 1,-1 -1,-1 -2,0 -2,1 -1,-1 -1,1 0,1 -1,2 -2,1 -2,-1 1,-1 2,-1 -1,-2 -2,0 -2,1 -1,1 1,2 0,2 1,2 1,-2 1,2 2,0 1,-1 2,2 2,-1 1,2 -1,2 -2,0 0,2 -1,2 0,2 -1,2 -2,1 -1,1 -2,1 -1,2 -1,2 -2,-1 -1,2 1,3 -1,4 -2,-2 0,-2 0,-2 -1,-2 1,-2 -1,-2 1,-2 0,-2 2,0 1,4 1,-2 2,-2 2,-1 2,-1 -2,-2 3,-1 0,-3 -3,-1 0,2 -2,1 -1,2 -1,2 -2,-1 -2,1 -1,-2 -2,0 1,-2 2,-1 1,2 1,-2 2,-1 1,-2 -1,-1 -2,1 -2,0 -1,1 -2,1 -1,-2 2,-1 2,-1 2,-1 1,-1 1,1 0,-2 -1,-2 -1,-2 -1,1 -2,-1 -1,1 0,2 2,-1 1,1 -1,1 -1,1 -2,1 0,-1 -1,-2 0,-2 -1,-1 -1,1 0,2 0,2 1,2 -2,0 1,2 0,2 0,1 1,1 -2,1 -1,1 -1,1 -1,-2 1,-1 1,-1 -1,-2 1,-1 -1,-1 0,-1 1,-1 0,-1 0,-2 0,-1 0,-1 -1,-1 -2,0 0,2 1,1 0,1 -1,1 -2,-1 0,-1 -1,-1 1,-1 -1,-1 -2,0 0,2 -1,1 0,1 2,0 1,2 0,2 2,-1 1,2 1,2 -1,1 -1,2 1,2 1,2 -2,0 -1,2 2,1 2,-1 1,-1 1,-1 0,-1 2,-1 2,1 -1,1 2,1 -1,2 -1,1 -1,-2 -2,1 -1,1 -2,1 -1,1 -1,2 -2,1 -2,2 4,0 -2,2 -1,2 -1,1 -1,2 0,3 -2,-1 -3,1 3,2 -2,1 0,2 1,1 -1,1 0,2 -1,1 -1,-2 0,-2 -2,0 0,-2 0,-2 -3,1 1,-3 2,-1 1,-2 1,-1 3,0 -1,-3 2,-1 0,-2 1,-3 2,-1 2,-2 -3,-1 1,-2 0,-2 1,-1 1,-2 -2,-2 2,-2 -2,-1 -1,-2 0,-2 -2,0 -1,1 1,2 1,2 -2,1 1,2 -2,1 -2,-1 0,-3 2,-1 0,-1 -1,-2 0,-1 1,-1 2,-1 -1,-1 1,-1 1,-1 -1,-1 -2,1 -1,-1 -1,1 1,2 0,1 -2,0 -1,1 0,1 1,1 -1,1 1,1 -2,1 0,2 0,2 0,2 -1,2 -1,2 1,3 1,3 2,-1 0,-2 1,-2 -2,-1 2,-2 1,-1 3,0 0,3 -1,2 0,2 -1,2 -1,2 -4,1 3,1 -1,2 -2,1 -2,2 -2,-2 -1,-2 2,0 0,-2 -2,-1 0,-2 2,0 -1,-2 0,-2 0,-1 -1,-2 -2,0 -1,-2 -1,-2 -1,-2 1,-1 0,-2 1,-2 1,2 1,-1 1,2 -2,1 0,2 1,2 2,1 1,-2 -1,-2 1,-2 0,-2 2,-1 -2,-1 2,-1 -2,-1 1,-1 0,-1 2,0 1,-1 0,-1 -1,-1 -2,1 -2,0 -1,1 0,1 0,2 0,2 -2,-1 -1,-2 1,-1 -1,-1 0,-1 -2,-1 -1,1 0,1 1,1 0,1 1,2 -1,2 -1,1 -1,1 1,1 -1,1 0,1 -2,0 0,1 -2,1 -1,-1 1,-2 1,-1 1,-1 0,-2 0,-1 2,0 1,-1 -1,-2 -1,1 -2,0 -1,-2 2,0 1,-1 -1,-2 -1,1 -2,0 -1,-1 0,2 0,1 1,2 -2,1 2,1 0,1 0,1 -1,1 0,2 -2,0 -1,-2 1,-2 -1,-2 1,-2 0,-1"
       id="path3055"
       inkscape:connector-curvature="0" />
    <path
       style="fill:none;stroke:#000000;stroke-width:1"
       d="m 150,3 -1,-1 1,-1 -1,-1 -2,1 -2,-1 0,2 -2,0 -1,1 0,1 0,2 -2,0 -2,1 0,2 -1,1 -1,1 0,1 1,1 -1,1 -2,0 -1,1 -1,-2 2,-1 -2,-1 1,-1 0,-1 -1,-2 1,-1 1,1 1,2 1,-1 0,-2 1,-1 1,-1 2,0 -1,-2 -1,-2 -1,2 -1,1 -1,1 -1,1 -2,-1 1,-1 1,-1 1,-1 1,-1 -3,0 -2,0 -1,1 0,2 -1,1 1,1 -1,1 1,1 -1,1 1,1 -1,1 1,1 0,1 0,2 1,1 0,1 -1,1 1,2 0,2 0,2 -2,0 -2,-1 2,-1 -1,-1 1,-1 -1,-1 0,-1 -1,-1 1,-1 -1,-1 1,-1 -1,-1 0,-1 -1,-1 0,-1 1,-1 0,-2 -1,-1 1,-1 1,-2 0,-1 -2,-1 0,2 -1,1 -1,1 -2,1 -1,-1 1,-1 1,-1 1,-1 -1,-1 -2,1 -2,1 0,-1 -1,-1 -2,0 -1,1 0,2 2,-1 1,2 -1,2 -2,1 -3,0 -2,-1 -1,-2 1,-1 2,1 1,-1 -1,-1 1,-1 -1,-1 -2,1 -2,1 0,-1 -1,-1 -2,1 -1,-1 -2,1 -1,2 0,1 -2,0 0,-2 1,-1 -1,-1 -2,0 -1,1 -1,1 -1,-2 -1,1 -2,0 -1,-1 -1,1 -2,-1 -1,1 0,1 -2,1 0,-1 0,-2 -2,0 -1,1 0,1 1,1 0,1 2,1 -1,1 1,1 -1,1 1,2 -2,0 0,1 0,2 0,1 -1,1 -1,1 1,2 -1,1 1,2 -2,0 -1,-1 -1,-2 1,-1 -1,-1 1,-1 1,-1 0,-1 1,-1 0,-1 0,-2 1,-1 0,-1 -1,-1 0,-1 -1,-1 0,-1 -1,-1 0,-2 -2,1 -1,-1 0,2 1,1 0,1 1,1 0,1 1,1 -1,1 1,1 0,1 -1,1 0,1 -1,1 0,1 -1,2 0,2 1,2 1,2 -2,1 -1,-2 -1,1 -1,2 1,1 -1,2 2,0 1,-2 2,0 1,-1 1,-1 2,0 -1,2 0,1 -1,1 -2,0 0,1 -1,1 -2,0 -2,0 -2,1 2,1 -1,1 2,1 -1,1 -2,1 -1,2 -1,1 2,1 -1,1 -2,1 -1,-2 -1,-2 -1,-2 2,-1 1,2 1,-2 1,-1 -1,-2 -2,0 -1,1 -1,-2 0,-2 0,-2 -1,-2 -1,-2 -1,-2 0,-1 1,-1 2,1 2,0 2,-1 1,2 -1,1 -1,2 -1,-2 -2,0 0,1 1,2 1,2 0,2 1,1 2,-1 1,-1 0,-2 -2,0 1,-2 2,-1 1,-2 1,-1 -1,-2 1,-1 0,-1 1,-1 0,-2 0,-1 1,-1 0,-1 -1,-1 1,-1 -1,-1 0,-1 -1,-1 0,-1 -1,-1 0,-1 1,-1 -3,0 -1,1 0,1 1,1 -1,1 -1,1 1,1 2,-1 0,1 1,1 -1,1 1,1 0,1 -1,1 0,1 1,1 -1,1 -1,1 -1,1 -1,-2 1,-2 -2,0 0,-2 L 69,9 69,8 67,9 66,8 67,7 66,6 66,5 65,4 67,3 66,2 67,0 66,1 64,0 64,2 63,3 61,2 62,1 61,0 59,1 58,0 56,1 55,0 54,2 53,0 52,1 50,0 48,0 48,2 47,3 46,1 45,0 l -1,1 -1,1 2,1 -1,1 0,2 0,2 -2,0 1,2 0,2 -2,0 -1,-2 -1,-2 0,-1 0,-2 2,0 0,-2 1,-3 -1,1 -2,0 0,1 -1,1 -2,0 0,-2 0,-1 -2,1 -1,-1 -1,1 -2,0 0,-1 -2,1 -1,1 1,1 0,1 -2,0 -1,1 -1,-2 1,-1 1,-2 -2,0 -1,1 -2,-1 -2,0 -1,1 0,1 -1,1 -1,1 0,1 0,2 L 14,7 13,6 14,5 13,4 14,3 14,0 11,1 9,1 8,0 6,1 5,0 5,2"
       id="path3057"
       inkscape:connector-curvature="0" />
    <path
       style="fill:none;stroke:#000000;stroke-width:1"
       d="M 5,2 6,3 5,4 6,5 5,6 4,7 3,5 2,4 3,3 2,2 3,1 2,0 0,1 0,3 1,5 2,7 1,8 2,10 3,9 5,9 7,10 6,8 7,7 8,6 8,4 8,2 l 1,1 2,1 -1,1 0,1 1,1 -1,1 -1,1 3,1 1,-2 2,1 0,2 3,0 0,-2 0,-2 1,-1 0,-1 1,-1 0,-1 1,-1 1,1 1,2 0,1 -2,0 0,2 -1,1 1,2 2,-1 0,-2 2,0 1,-1 1,-1 2,0 1,-1 0,-2 2,0 2,0 -1,2 -1,2 -1,2 -2,-1 -1,1 -1,1 -2,1 0,1 3,0 2,-1 1,2 -1,1 3,1 1,-2 -1,-2 2,0 -1,-2 1,-2 1,-2 1,4 1,2 -1,2 -1,2 -1,3 0,5 4,-2 0,-3 0,-3 2,-1 2,1 -2,2 1,3 0,3 -2,1 -1,2 3,1 -3,2 -2,1 4,2 1,-2 4,2 1,-2 -1,-2 1,-1 -1,-2 1,-2 -1,-1 0,-2 1,-1 -1,-2 1,-1 -1,-2 0,-2 0,-2 0,-2 1,-2 2,2 1,-1 -1,-1 1,-1 -1,-1 1,-2 2,1 0,1 1,1 -1,1 1,1 -1,1 -1,1 -2,1 1,1 -1,1 0,2 1,-1 1,1 0,3 3,-1 1,-1 2,0 -1,-2 -1,-1 -1,1 -1,1 -1,-2 0,-1 1,-1 1,-1 1,2 1,-1 1,-1 -1,-1 0,-1 -1,-1 1,-1 -1,-1 1,-1 2,-1 1,1 -1,1 0,2 1,1 0,1 0,1 -1,2 0,1 0,1 2,0 0,-2 1,-2 0,-2 -1,-2 1,-1 2,1 0,1 1,1 -1,1 1,1 0,1 -2,1 1,2 2,-1 1,2 0,2 -2,1 -1,-2 -2,0 -2,0 -1,2 -2,1 1,2 -2,1 -1,-2 -1,1 -1,2 2,1 2,0 0,2 1,2 2,-1 -1,-2 0,-2 1,-1 1,2 1,2 0,1 1,2 -2,0 -2,1 -2,0 -1,-2 -1,-2 -1,2 0,1 0,2 0,2 2,-1 1,2 -1,1 -2,1 1,2 -1,1 1,2 1,-1 2,-1 -1,-2 1,-1 2,0 0,-2 -1,-1 1,-1 2,-1 1,1 -1,2 2,0 -1,2 0,1 1,2 -2,1 -1,-2 -1,1 -1,2 2,1 -1,1 1,2 1,1 0,2 1,2 1,-2 2,0 -1,-2 0,-2 -2,0 0,-2 2,-1 1,1 1,2 1,2 0,1 1,1 0,1 -1,1 -2,0 0,1 -1,1 -1,2 -1,-2 -2,-1 0,2 -2,1 -1,-1 -1,2 -1,-2 1,-2 2,0 0,-2 1,-1 -1,-2 -2,1 -1,-2 2,-1 -1,-2 -2,1 -1,2 1,2 1,2 -2,1 0,1 0,3 1,2 -1,1 2,1 -1,2 2,0 1,2 0,1 -2,1 -1,-2 -1,2 0,2 1,2 -1,1 3,1 -1,1 -1,1 -1,1 1,1 2,0 1,-1 1,-1 0,-2 -1,-1 1,-1 -2,-1 1,-1 1,-1 1,-1 1,-1 -1,-2 1,-1 0,-2 -2,1 -1,-2 2,-1 2,-1 2,1 -1,1 1,1 0,1 -1,1 0,2 0,1 0,2 -1,1 -1,1 1,1 -1,1 2,1 -1,1 -1,1 -1,2 0,1 -2,1 -2,0 -1,1 2,1 0,1 1,2 1,3 1,-1 2,0 1,-1 -1,-2 -2,1 0,-1 -1,-2 1,-1 1,1 1,-2 0,-2 2,0 1,-1 -2,-1 2,-1 1,-1 1,1 1,-2 -2,-1 -1,1 -1,-2 2,-1 -1,-1 1,-1 -1,-2 0,-2 1,-2 0,-2 0,-2 2,1 1,-1 -1,-1 1,-1 1,-1 1,-2 1,-1 -1,-1 0,-1 -1,-1 0,-1 1,-1 1,-1 1,-1 1,-1 -1,-1 0,-1 1,-1 1,-1 1,-1 1,-1 -1,-1 0,-1"
       id="path3059"
       inkscape:connector-curvature="0" />
    <path
       style="fill:none;stroke:#000000;stroke-width:1"
       d="m 75,31 2,0 1,-1 1,-1 2,-1 2,1 -2,1 -1,1 -1,1 2,1 -1,1 -1,1 -1,-2 -1,2 0,1 0,1 -2,0 0,1 1,1 0,1 1,1 0,1 1,1 0,1 1,2 1,-1 1,-1 0,-1 -1,-1 0,-1 -1,-1 0,-1 1,-1 0,-1 1,-1 2,2 -1,2 1,1 0,1 1,2 -1,1 0,1 -1,1 -1,1 -1,2 -1,1 -1,-2 1,-1 -1,-1 -2,0 0,-1 0,-1 -1,-1 0,-1 -1,-1 0,-1 -2,2 0,1 1,1 0,1 1,1 -1,1 -1,1 -1,1 -1,2 1,1 0,1 -2,1 0,1 -2,0 0,1 0,2 0,1 -1,1 1,2 1,-1 2,0 0,-1 -1,-2 1,-1 1,1 0,-2 1,-1 1,-2 0,-2 0,-1 1,-1 2,-1 0,1 1,1 -1,1 -1,1 0,1 1,1 1,1 -2,1 -1,-1 0,2 -1,1 0,2 0,1 -1,1 -1,1 -2,0 -1,1 -1,1 2,1 0,1 1,1 -2,1 2,1 -1,1 1,1 -1,1 1,2 -1,1 -1,1 1,2 1,2 1,2 1,1 -2,1 -2,1 2,1 -1,1 -1,2 -1,-2 -2,-1 1,-1 -1,-1 1,-1 2,0 1,-1 -2,-1 1,-1 -1,-2 -1,1 -1,-2 1,-1 -2,-1 1,-1 2,0 0,-1 0,-2 -1,-1 -1,2 -2,1 -1,2 1,2 1,2 1,2 -2,1 0,-1 -2,1 -1,1 0,1 3,0 -1,1 1,1 -2,1 2,1 2,0 1,1 -1,1 -2,0 1,2 2,0 0,2 1,2 1,-2 0,-2 0,-1 2,0 0,-2 1,-1 1,-2 0,-1 2,-1 0,-2 0,-1 1,-1 0,-1 1,-1 0,-1 1,-1 1,-1 -1,-1 1,-1 -1,-1 1,-1 2,2 0,-2 2,0 1,-1 0,-1 1,-2 0,-2 0,-1 1,-1 -1,-1 1,-1 0,-2 -1,-1 1,-1 0,-2 1,-1 -2,-1 1,-1 1,-2 -1,-2 -1,2 -1,1 -1,1 0,2 1,1 0,1 -2,1 0,1 2,1 -1,1 -2,-1 -2,0 0,1 -1,1 1,2 1,-1 1,-1 2,1 -1,1 -1,1 0,1 2,0 0,2 -1,1 -1,1 -2,0 0,-1 1,-1 -1,-1 0,-1 -2,1 -1,1 0,1 1,1 0,1 -1,2 0,2 -1,1 0,1 -1,2 -1,2 -1,-2 0,-1 1,-1 0,-2 0,-1 1,-1 0,-1 1,-1 -2,-1 1,-1 -1,-2 0,-1 -1,-1 2,-1 1,2 1,-1 1,-1 -1,-1 0,-1 0,-2 0,-1 1,-1 1,-1 1,1 1,-1 1,-1 -1,-1 1,-1 -2,-1 0,-1 2,0 1,-1 1,-1 1,-1 0,-1 1,-1 2,0 -1,-2 1,-2 -1,-2 0,-2 0,-1 0,-2 -1,-1 1,-1 -1,-1 1,-1 -1,-1 1,-1 0,-2 0,-1 0,-2 0,-1 -2,1 1,-2 1,-1 -1,-1 1,-1 -1,-1 1,-1 0,-2 -2,0 1,-1 2,-1 -2,-1 0,-2 2,-1 1,-3 -1,-3 1,-1 0,-1 2,-1 1,1 -1,1 0,2 2,2 1,-1 0,-2 0,-2 2,0 1,2 0,3 -1,2 -2,1 -2,-1 -1,2 0,2 3,0 2,-1 0,4 2,-1 3,-1 -1,-2 2,0 0,-1 -1,-2 0,-1 0,-2 1,-1 1,2 1,1 0,1 -1,1 1,2 1,-1 1,-1 0,-2 -1,-2 -1,-1 1,-1 0,-2 1,-1 2,1 0,1 0,3 3,1 0,2 -2,0 0,2 2,1 0,2 3,0 0,-2 -1,-2 2,-1 2,-1 2,0 2,-1 1,-2 1,2 1,-1 2,-1 1,1 -1,1 -1,1 -1,2 -1,-1 -2,1 -2,1 -2,0 0,2 0,2 2,-1 2,0 2,-1 0,-1 1,-1 1,1 1,-2 1,1 0,2"
       id="path3061"
       inkscape:connector-curvature="0" />
    <path
       style="fill:none;stroke:#000000;stroke-width:1"
       d="m 125,14 -1,1 0,1 1,1 1,1 0,2 -1,1 -1,-2 -1,-1 -1,-2 -1,1 0,1 -2,1 -1,2 3,0 1,-1 1,1 -1,2 -1,1 0,2 1,1 -2,1 1,1 -1,1 1,1 -2,1 -1,-2 -1,-2 0,-1 2,-1 0,-2 -2,1 -1,-2 -1,2 -1,2 1,2 -2,0 -2,0 -1,1 -1,-2 2,-1 1,-1 1,-1 0,-2 0,-2 2,-2 -2,-1 -3,0 0,3 0,2 0,1 -2,1 -2,1 -1,-3 2,-1 0,-3 -3,1 1,-2 1,-2 1,-2 -2,0 -2,1 -2,0 0,2 -2,0 0,2 2,0 0,2 1,2 -2,-1 -1,2 2,1 -1,2 -1,1 1,2 0,2 2,1 -2,1 -1,2 2,2 0,-2 2,-1 1,-2 1,-2 -2,0 -1,-2 1,-2 1,2 2,-1 1,2 1,1 -1,2 2,0 2,-1 2,0 1,-1 2,0 1,2 -2,1 2,1 -2,1 -2,0 -1,-2 -2,1 0,1 1,2 2,0 2,0 0,2 1,1 0,1 0,1 -2,0 0,1 -1,1 1,2 1,-1 1,-1 1,2 -1,1 -1,1 -2,0 0,1 -2,1 -1,-1 0,-1 1,-1 1,-1 -2,-1 1,-1 0,-2 1,-1 1,-1 -1,-1 -2,1 -1,-1 0,-1 -2,-1 1,-1 -1,-2 -2,0 -1,2 1,2 0,1 1,2 1,-2 1,2 1,1 0,1 -1,1 -1,1 1,1 -1,1 0,2 1,1 0,2 2,-1 1,1 2,0 1,-1 1,-1 1,2 1,-2 0,-1 1,-1 1,2 -1,2 2,0 2,0 1,-1 1,1 2,-1 1,-1 -1,-1 -2,1 -2,-1 -1,1 -1,-2 1,-1 2,-1 0,1 1,1 2,-1 0,-1 -1,-1 -2,-1 -2,0 -1,1 -1,1 -1,-2 1,-1 0,-1 -1,-2 -1,-2 0,-2 2,0 1,2 0,1 1,1 -1,1 1,1 2,0 1,-1 0,-1 -1,-1 0,-1 -1,-1 0,-1 -1,-1 0,-1 -1,-1 1,-1 2,0 0,-2 0,-2 1,-1 0,-2 0,-1 1,-1 2,0 2,1 0,1 -2,0 -1,1 0,1 -1,2 1,1 -1,1 1,1 -1,1 -1,1 0,1 1,2 1,2 0,-1 1,-2 -1,-1 1,-1 1,-1 1,1 2,0 0,2 -2,0 0,2 0,1 -1,1 -1,1 -1,1 -1,1 1,1 2,0 1,-1 0,-1 1,-1 1,-1 1,-1 0,-1 2,0 1,-1 -2,-1 1,-1 1,-1 -2,-1 1,-1 1,-1 1,-1 -1,-1 -2,1 -2,-1 0,2 -1,1 -2,-1 1,-1 -1,-1 0,-1 1,-1 2,0 1,-1 1,2 2,-1 0,-1 -1,-1 -2,-1 2,-1 0,-1 -1,-1 0,-2 1,-1 -1,-1 1,-1 1,-1 1,2 0,2 -1,1 1,2 0,2 1,2 1,-1 1,2 -1,1 0,1 1,1 0,1 -1,1 -1,1 1,1 0,1 -1,1 0,1 1,1 2,-1 0,-1 2,0 0,-1 1,-1 -1,-1 -2,1 0,-2 2,-1 0,-1 -1,-1 1,-1 -1,-1 -1,-2 -1,-1 -1,-1 1,-1 -1,-1 1,-1 -1,-1 2,-1 -2,-1 0,-1 -1,-1 1,-1 1,-2 0,-2 2,1 0,2 -1,1 0,2 3,0 0,-3 0,-2 0,-1 -2,-1 -1,-2 2,0 2,1 1,-2 -1,-2 1,-1 2,-1 0,1 0,2 1,2 -2,1 1,2 -1,1 2,1 -1,1 -2,1 1,2 2,2 -3,1 -2,2 -1,2 0,2 1,1 1,2 0,2 2,1 -1,1 0,1 0,2 -1,1 0,2 1,2 -2,0 -1,-2 -2,1 1,1 0,1 -1,1 -1,1 -1,1 -1,1 -1,1 0,2 0,1 -1,1 0,1 -1,1 1,2 0,2 -1,1 1,1 0,1 -1,1 -2,1 0,-2 0,-1"
       id="path3063"
       inkscape:connector-curvature="0" />
    <path
       style="fill:none;stroke:#000000;stroke-width:1"
       d="m 132,59 -1,-2 1,-1 1,-1 -2,-1 1,-1 -1,-1 1,-1 -1,-1 0,-2 1,-1 1,2 1,-1 0,-2 0,-1 2,-1 0,-1 2,-1 0,-1 -2,-1 -1,1 -1,1 -1,1 -1,1 -1,1 -1,1 -1,1 0,1 -1,1 1,1 0,2 -1,1 -1,1 2,1 -1,1 -2,0 1,2 2,0 0,2 -2,1 -1,1 2,1 2,-1 1,2 -2,1 0,1 -2,0 1,3 2,-1 2,0 1,1 -2,1 -2,1 -1,2 0,2 0,2 0,2 2,0 2,1 1,-1 -1,-1 1,-1 -1,-1 -2,1 0,-2 0,-2 2,1 1,-1 -1,-1 2,-1 2,0 1,-1 -2,-1 -1,-2 -2,-1 1,-1 1,-1 0,-1 2,0 1,-1 1,-1 1,1 -1,2 -1,1 -1,1 1,1 0,1 2,1 1,-1 -1,-2 1,-2 1,2 1,-1 0,-2 -1,-1 0,-2 -2,0 -2,-1 1,-1 0,-1 -1,-1 0,-2 0,-1 1,-1 2,0 0,2 -1,1 1,1 0,2 2,0 1,1 0,2 1,2 0,2 2,0 0,-2 -1,-2 0,-2 1,-2 2,-1 -1,-2 -1,1 -2,0 0,2 -2,-1 0,-2 0,-1 2,0 1,-1 2,0 0,-1 -1,-1 1,-1 -2,-1 -2,-1 0,2 0,1 -1,1 -2,-1 0,-1 -2,1 0,-2 1,-1 2,0 -1,-2 2,0 1,-1 1,-1 1,2 0,1 2,1 1,-1 -1,-2 0,-1 0,-2 1,-1 -2,-1 1,-1 0,-2 0,-2 2,0 -1,-2 1,-1 -1,-1 0,-1 -2,1 0,-2 0,-3 1,-2 3,1 0,-2 0,-1 1,-2 -1,-1 0,-1 -2,-1 2,-1 1,-1 1,2 2,1 -1,1 0,2 -1,1 0,2 0,1 2,-1 0,-1 1,-2 2,-1 -1,-2 1,-1 2,-1 0,1 0,2 2,1 0,1 -2,1 -2,0 0,2 0,1 -2,1 -1,1 -2,0 -2,0 0,2 1,2 1,-2 2,0 1,1 1,-2 1,2 2,-1 -1,-2 2,-1 0,-2 2,-1 1,1 -1,2 0,2 0,2 -1,1 1,1 0,2 -2,0 0,2 -1,2 0,1 -2,1 -1,-2 -1,-1 2,-1 1,-2 1,-2 -2,0 -1,2 -1,1 -1,-2 1,-1 -2,-1 -1,2 -1,1 0,1 2,0 0,2 -2,0 -2,0 0,2 1,2 1,-2 1,1 2,-1 1,1 -1,1 2,1 -2,1 0,2 -2,0 0,-1 0,-2 -2,1 -1,1 1,2 0,1 2,1 1,-1 1,2 1,2 1,-2 1,1 0,2 -1,1 1,1 -1,1 1,1 -1,1 -2,-1 -2,0 0,-2 2,0 -1,-2 -2,0 1,-1 0,-1 -2,-1 -1,1 0,2 1,2 -1,1 1,2 0,2 -2,0 -1,1 0,2 1,2 1,-2 1,-1 2,0 0,-2 0,-1 2,0 2,1 -1,1 -1,1 -1,2 -2,0 -1,1 2,1 2,0 1,-2 1,-1 1,2 0,1 -2,1 -1,1 2,1 -1,1 0,2 -2,0 -1,1 0,1 -2,0 -1,-2 0,-1 2,0 2,-1 -2,-1 1,-1 -2,-1 -1,2 -1,-2 -1,2 -2,0 -1,1 -2,0 -1,2 2,0 0,2 -2,0 -2,-1 0,1 0,2 -1,1 -1,-2 -2,0 -1,2 2,0 0,2 0,1 -1,1 2,0 1,-2 2,-1 2,0 -1,-2 2,0 1,2 1,-2 0,-2 0,-2 1,-1 1,2 0,1 1,1 -1,1 -1,2 2,0 2,0 0,-1 1,-1 1,2 2,0 -1,-2 1,-1 1,-1 2,0 2,-1 -2,-1 1,-1 1,-1 0,-1 -1,-1 1,-1 1,-1 -1,-2 0,-1 -1,-1 2,-1 -2,-1 1,-1 1,-1 0,-1 -1,-2 1,-1 1,-1 -2,-1 1,-1 -1,-1 2,-1 1,-1 1,-1 -1,-1 -2,0"
       id="path3065"
       inkscape:connector-curvature="0" />
    <path
       style="fill:none;stroke:#000000;stroke-width:1"
       d="m 160,44 -1,1 0,1 -2,0 -2,0 1,-2 0,-1 2,0 0,-2 1,-1 1,2 2,0 0,-1 -1,-1 1,-1 1,-1 -2,-1 2,-1 2,-1 1,2 -1,1 1,1 -2,1 1,1 0,1 -1,1 1,1 0,2 2,0 0,-2 2,1 0,2 2,0 1,2 0,1 0,2 -2,-1 0,2 0,1 -1,2 -1,-2 -2,0 1,-2 1,-1 1,-2 -2,-1 -1,2 -1,-2 -1,-1 -1,1 -1,1 2,1 -1,1 2,1 -1,1 -2,0 0,1 0,1 2,0 0,2 -2,0 0,1 1,1 -1,1 -1,1 1,2 0,1 1,1 -1,1 -1,1 1,2 -1,1 1,1 0,1 -1,1 -2,1 0,-1 -2,1 -1,1 0,1 2,0 2,0 1,-1 1,1 2,0 0,-1 -1,-1 2,-1 -1,-1 0,-2 1,-1 -2,-1 1,-1 1,-2 -1,-2 0,-1 0,-1 1,-2 1,-1 0,-2 1,1 1,2 3,0 -1,-1 1,-1 1,-2 1,-1 1,-2 1,-1 1,2 -1,1 0,2 -2,1 1,2 2,-1 1,1 0,-2 2,0 1,2 1,-2 0,-2 -2,0 -2,0 1,-2 2,-1 -3,-1 0,-1 1,-1 -1,-1 1,-1 0,-2 2,-1 1,-1 1,-2 0,-3 2,1 0,-3 1,-2 1,-2 1,-3 0,-2 2,-2 2,-1 2,1 -2,2 -1,2 3,0 0,3 -2,1 -2,-1 -1,3 -1,2 1,3 2,-1 1,-2 2,-1 2,-1 1,2 -1,2 -1,1 -1,2 -1,3 -1,2 -1,2 -3,-1 1,-3 1,-3 -3,0 -1,2 -1,2 -3,1 0,3 3,-1 2,3 2,-1 3,2 2,-2 2,-1 3,1 3,-1 0,3 -2,2 -3,-2 -1,1 1,2 0,3 -1,1 0,3 5,1 1,-2 3,1 3,0 1,-2 1,-2 -3,-1 -2,2 -4,-1 2,-2 2,-2 1,-2 -1,-3 1,-2 3,0 1,-1 -4,-2 3,-1 0,-3 0,-3 1,-3 -1,-3 -2,1 0,2 -1,3 0,3 -2,-1 -1,2 0,3 -1,2 -3,0 -3,1 0,-2 0,-2 1,-1 3,1 -1,-3 1,-2 2,-2 2,-2 -2,-1 2,-2 -1,-3 3,0 0,-2 1,-2 2,4 1,-2 0,-2 0,-2 2,-2 1,-3 1,-2 1,-1 1,-3 2,1 0,2 0,2 -2,2 0,2 -1,1 0,2 -2,1 2,2 -1,2 -1,1 -1,2 1,3 2,-2 2,-1 1,3 -1,2 -2,1 -3,0 0,3 0,3 2,2 1,3 -1,1 -3,1 -2,1 0,3 3,-1 0,3 2,3 -1,2 -1,2 -1,2 -3,1 -4,0 -3,2 1,4 4,-1 4,0 2,-3 3,-1 1,-3 1,-2 0,-3 -1,-3 -1,-3 1,-1 3,-1 0,3 1,3 3,-2 0,-3 1,-2 3,-1 2,-1 0,2 -1,2 -1,1 -1,2 1,3 -3,0 -1,1 -3,1 1,3 -1,2 -1,2 1,3 -3,0 -1,2 -2,2 -3,2 -2,4 -3,-5 -3,2 -2,3 0,4 5,-2 0,4 -2,2 -1,3 0,4 -2,3 0,4 5,-2 2,-3 0,-4 4,1 -1,-5 0,-4 3,-2 1,-4 3,-1 1,-4 3,-1 2,1 -1,2 1,2 -1,2 0,3 1,-1 2,-1 1,-1 0,-2 -1,-2 2,-1 1,2 1,1 -1,2 1,2 -1,1 -2,1 1,2 -1,1 1,1 -2,1 0,3 1,2 0,1 -1,2 2,0 2,0 0,-2 -1,-2 -1,-2 1,-1 2,0 -1,-2 1,-2 -1,-1 2,-1 1,2 -1,2 1,2 0,2 -2,0 1,2 1,2 -1,1 -1,2 -2,0 -2,1 0,1 0,2 0,2 -3,-1 -1,-2 1,-2 -1,-1 0,-2 0,-2 0,-2 0,-1 0,-2 0,-2 1,-2 -1,-1 -4,0 -2,3 -1,3"
       id="path3067"
       inkscape:connector-curvature="0" />
    <path
       style="fill:none;stroke:#000000;stroke-width:1"
       d="m 215,92 1,5 0,4 -3,0 -1,4 -2,2 -5,0 -3,1 0,4 -2,4 3,4 3,-1 2,-4 3,-3 5,-1 2,-3 4,-2 0,2 1,1 0,2 0,2 -1,1 1,2 -1,2 1,1 0,2 -1,1 1,2 -1,2 1,1 0,2 -1,2 1,2 -1,2 1,2 2,-1 2,0 2,-1 0,1 -1,2 -1,1 -1,1 0,2 0,2 0,2 -2,1 -1,-1 1,-2 -1,-2 -1,-2 0,-1 -4,1 -1,4 -4,0 -2,-5 3,-4 3,-2 0,-5 1,-4 -2,-7 -3,2 -1,5 0,5 -3,4 -4,-3 2,-4 -5,-2 -2,5 2,4 -1,4 5,0 -1,5 4,2 -3,7 3,0 4,1"
       id="path3069"
       inkscape:connector-curvature="0" />
  </g>
</svg>
