<?xml version="1.0" encoding="UTF-8" standalone="no"?>
<!-- Created with the Eggbot TSP art toolkit (http://egg-bot.com) -->

<svg xmlns="http://www.w3.org/2000/svg"
     xmlns:inkscape="http://www.inkscape.org/namespaces/inkscape"
     xmlns:sodipodi="http://sodipodi.sourceforge.net/DTD/sodipodi-0.dtd"
     xmlns:rdf="http://www.w3.org/1999/02/22-rdf-syntax-ns#"
     xmlns:dc="http://purl.org/dc/elements/1.1/"
     xmlns:cc="http://creativecommons.org/ns#"
     height="800"
     width="3200">
  <sodipodi:namedview
            showgrid="false"
            showborder="true"
            inkscape:showpageshadow="false"/>
  <metadata>
    <rdf:RDF>
      <cc:Work rdf:about="">
        <dc:format>image/svg+xml</dc:format>
        <dc:type rdf:resource="http://purl.org/dc/dcmitype/StillImage" />
        <dc:subject>
          <rdf:Bag>
            <rdf:li>Egg-Bot</rdf:li>
            <rdf:li>Eggbot</rdf:li>
            <rdf:li>TSP</rdf:li>
            <rdf:li>TSP art</rdf:li>
          </rdf:Bag>
        </dc:subject>
        <dc:description>TSP art created with the Eggbot TSP art toolkit (http://egg-bot.com)</dc:description>
      </cc:Work>
    </rdf:RDF>
  </metadata>
  <g      transform="translate(1339, 506) scale(1, -1)">
    <path style="fill:none;stroke:#000000;stroke-width:1"
          d="m 213,152 3,0 2,0 3,0 2,0 1,-1 -2,-1 1,-1 2,0 1,2 1,-1 0,-2 1,-1 0,-2 0,-2 0,-2 2,-1 0,-2 2,0 0,-2 -1,-2 1,-2 0,-2 -1,-2 1,-2 -2,0 -2,-1 0,2 1,2 0,1 1,2 -2,1 -2,1 0,-2 1,-1 -1,-2 0,-2 0,-2 1,-2 -1,-2 1,-1 2,0 0,2 1,2 1,-1 0,-2 0,-2 0,-2 0,-2 -2,0 0,2 -1,1 -2,0 1,-2 -1,-2 1,-1 0,-2 -1,-1 1,-2 1,1 1,2 0,2 2,0 1,-1 -1,-2 1,-1 -2,-1 1,-1 1,-2 -2,0 -2,1 0,-2 1,-2 1,1 2,0 0,-2 2,0 0,-2 2,0 2,0 0,2 -2,0 -1,2 0,2 -1,2 2,0 3,1 0,-3 -2,0 0,-2 2,0 2,1 0,-2 -1,-1 0,-2 1,-1 1,2 1,2 2,0 -1,-2 1,-2 -2,0 0,-2 1,-1 1,-1 -1,-3 -1,1 -1,1 -1,1 0,2 -2,0 -1,1 -1,-2 -1,2 -2,-1 1,-1 0,-2 0,-2 -1,-2 1,-2 -1,-2 2,0 2,1 -1,1 -1,2 1,2 0,2 2,1 0,-2 1,-1 -1,-1 0,-1 1,-1 0,-2 1,-1 0,-2 1,-1 2,-1 0,1 2,-1 1,-1 1,-1 1,-1 1,2 -1,1 -1,1 -1,1 0,1 -1,1 -2,-1 -1,1 0,2 -1,1 0,2 2,-1 1,-2 1,-1 2,1 1,-1 0,-1 1,-2 0,1 1,1 1,2 1,-1 0,-2 0,-1 -1,-1 0,-1 -1,-2 1,-1 0,-2 -2,1 -1,-1 1,-1 1,-1 0,-1 1,-2 1,-1 0,-1 1,-2 0,-2 -2,-1 -2,2 1,1 0,1 -1,1 -1,1 1,1 -1,1 -1,1 0,1 -1,1 -1,1 1,1 -1,1 -1,1 -2,0 0,-2 1,-1 0,-2 1,-1 -1,-2 2,1 1,-1 -1,-1 1,-1 1,-1 0,-1 -1,-1 1,-3 -3,0 0,1 -1,1 -1,1 2,1 0,1 -2,1 -1,-1 -1,-2 0,-2 1,-1 -2,-1 -1,2 -2,1 2,1 -1,1 -2,0 -1,-2 -1,2 0,2 2,0 2,0 2,-1 0,2 -2,1 -2,1 0,-1 -2,1 1,2 2,0 2,-1 1,-1 2,-1 0,1 0,2 -1,1 -2,0 0,1 2,1 0,2 -1,1 -1,1 -1,1 1,1 -1,1 -2,-1 -2,0 1,-2 1,-1 1,-1 2,-1 -2,-1 -1,-1 -2,0 1,2 -2,1 -1,2 -1,2 -1,-2 1,-2 0,-2 -2,-1 2,-1 2,-1 -1,-2 0,-2 -1,-2 1,-1 1,-2 0,-2 -2,0 -1,1 -2,1 0,2 -1,1 -1,2 3,0 0,3 -3,0 -2,-1 -2,-3 1,-2 0,-3 1,-1 3,0 1,-2 1,-2 -1,-2 1,-2 1,-2 2,-1 -1,-2 1,-2 1,2 1,2 -1,2 -1,1 0,2 0,2 0,2 2,0 1,2 1,-2 1,2 1,-1 0,-2 -1,-2 -1,1 -2,0 0,-2 1,-1 2,0 2,-1 2,0 0,-2 0,-2 -2,0 -1,1 1,1 -2,1 -2,0 1,-2 -1,-2 2,0 1,-2 1,-1 1,2 1,-2 2,-1 0,-2 -2,1 -2,0 -2,1 -1,2 -2,0 -1,-2 -2,0 -2,1 -2,-1 0,-2 1,-1 1,-2 0,-3 1,-3 2,-1 0,-2 1,-1 3,0 -1,-3 2,-1 -1,-3 -2,1 -1,1 -1,2 -3,1 -1,2 -1,1 0,3 -2,-1 -1,2 -1,2 3,1 -2,2 -1,2 1,3 -1,2 -3,1 -2,1 -1,-3 3,-1 0,-3 -3,0 -2,1 -1,-3 3,-1 3,0 0,-2 0,-3 1,-2 2,-2 1,-2 3,-2 2,-1 0,-2 1,-1 3,-1 1,-2 1,-1 0,-3 2,1 2,-1 0,-2"/>
    <path style="fill:none;stroke:#000000;stroke-width:1"
          d="m 239,14 1,-2 0,-2 1,-2 0,-2 0,-2 2,0 2,0 1,1 -2,1 0,2 -1,3 0,2 -1,2 0,3 -3,1 0,2 -2,1 2,2 3,0 2,-1 -2,-2 2,-1 0,-3 2,-1 0,-2 0,-2 0,-2 1,-1 3,-1 0,2 -1,2 0,2 0,3 -2,2 0,2 3,1 0,2 -1,2 -2,-2 -1,2 0,2 -1,2 -2,1 0,-4 -3,0 0,2 -1,2 0,3 -3,0 1,2 0,3 -2,1 -1,-3 -2,1 0,3 0,3 2,0 1,2 1,-2 1,-1 3,-1 0,-2 1,-2 0,-2 1,-2 1,2 1,2 -1,2 0,2 2,0 0,-2 2,-1 0,2 1,2 -1,2 -2,-1 0,2 2,1 -2,1 -2,0 -1,1 1,2 2,-1 2,1 0,-2 2,0 1,2 1,2 1,-2 0,-2 2,0 1,-2 1,-2 1,2 1,2 -1,1 1,2 -2,1 -1,-2 -1,2 0,2 -1,1 -2,1 -1,-2 -1,-2 -2,0 -2,-1 -2,1 2,1 -2,1 -1,2 -2,0 -1,1 1,2 1,-1 1,2 1,-2 1,-2 1,-1 2,-1 1,2 -1,1 -2,1 -1,2 2,0 2,-1 2,-1 1,2 1,-2 2,0 0,2 3,0 -1,-2 0,-2 2,0 -1,-2 2,-1 1,-1 0,-2 2,1 1,-1 -1,-1 1,-2 1,1 2,-1 -1,-1 -1,-1 0,-2 1,-2 0,-1 -2,1 -1,1 0,1 0,2 -1,2 -1,1 -1,-2 1,-1 0,-1 -2,-1 1,-1 1,-1 0,-1 1,-1 2,0 1,-1 -1,-1 -1,-2 2,0 0,-1 2,0 1,-1 1,-1 1,-1 0,-1 -1,-1 0,-1 -2,2 0,1 -1,1 -2,0 -2,0 0,1 -1,1 0,1 1,2 -2,0 -1,1 -1,1 -1,2 -1,-2 -1,-2 -2,1 1,2 -1,2 2,0 -1,2 -1,2 -2,0 0,-2 0,-2 0,-2 0,-2 -1,-1 -1,-2 -2,1 -1,-2 -1,-1 2,-1 2,-2 2,-2 2,-1 1,-2 0,-3 0,-2 -2,-1 1,-2 0,-2 3,0 2,-1 2,-1 1,-1 0,-2 3,-1 0,2 0,2 -1,2 -2,1 -2,1 -3,0 1,3 0,3 0,2 2,1 -2,1 2,1 -2,1 0,2 -3,-1 -2,1 -1,2 0,2 2,0 1,-2 2,1 1,2 2,-1 -1,-2 1,-1 1,-2 2,0 2,0 1,-1 1,-1 1,-1 1,-1 -1,-1 0,-1 -1,-1 -3,-1 -1,1 2,1 -1,1 2,1 -1,1 -2,1 -1,-2 -1,-2 -1,-2 1,-2 2,-1 2,-1 2,-1 1,-2 0,-2 0,-2 0,-2 0,-2 2,0 0,3 0,3 2,0 0,-1 2,-1 2,-1 -1,-2 -2,1 0,-2 1,-1 2,-1 0,-2 2,1 0,1 -1,2 1,1 0,2 0,2 -1,2 -1,-2 -1,1 0,2 -2,1 0,2 -2,-1 -1,2 -2,1 -1,1 3,1 2,1 -1,1 0,1 1,1 0,1 1,1 0,1 1,1 0,1 -1,1 -1,1 -1,1 3,0 0,1 -1,1 2,1 1,-1 1,-1 0,-1 -1,-1 0,-1 1,-1 0,-1 2,0 0,-1 1,-1 1,-1 1,1 -1,2 -1,2 -1,1 1,1 0,1 -1,1 -1,1 1,1 -1,1 -2,-1 -1,1 1,1 0,1 0,2 0,1 0,2 0,1 -1,1 0,1 1,1 -2,1 1,1 0,1 -1,1 0,2 -1,1 2,1 1,-1 1,-1 -1,-1 1,-1 0,-2 1,-1 1,-1 -1,-1 0,-1 0,-2 1,-1 0,-1 -1,-1 0,-1 1,-1 1,-1 1,-1 1,1 -1,2 0,1 0,2 1,1 -2,1 1,1 0,1 0,1 1,2 -2,0 1,2 -1,-1 -1,1 0,1 0,2 -1,1 -1,1 -2,1 -1,-1 -1,1"/>
    <path style="fill:none;stroke:#000000;stroke-width:1"
          d="m 271,61 -1,1 2,1 -1,1 -1,1 1,2 -2,0 -1,-1 0,-2 0,-1 -1,-1 1,-1 1,-1 0,-1 -1,-1 1,-1 1,-1 0,-1 -1,-1 1,-1 -1,-1 1,-1 1,-1 0,-2 0,-1 -1,-1 0,-1 2,0 -1,-1 1,-1 -1,-1 0,-1 -1,-1 1,-1 -2,-1 0,-1 -1,-1 -2,1 0,1 1,1 0,1 1,1 0,1 1,1 -2,0 -1,1 1,1 0,1 1,1 0,1 1,1 -1,1 -2,0 -1,1 2,1 -1,1 0,1 1,1 0,1 -1,1 -2,-1 0,-1 -1,-2 -1,1 -1,1 -1,1 2,1 -1,1 -1,1 -1,1 1,1 2,-1 1,-1 1,-1 2,1 0,1 -1,1 -1,1 1,1 -1,1 2,1 -1,1 1,1 -2,1 0,2 -1,1 -1,1 -1,1 -1,1 1,1 0,1 -1,1 0,2 0,1 0,1 0,2 -2,0 0,-1 0,-1 -1,-2 1,-1 0,-1 -1,-1 1,-1 -1,-1 0,-1 1,-1 0,-1 1,-2 1,2 1,-1 1,-1 -1,-1 0,-1 2,-1 -2,-1 1,-1 0,-2 -2,1 -1,2 -2,-1 0,3 -1,2 0,1 -1,1 -1,1 -1,1 2,1 -1,1 0,1 1,1 -1,1 1,1 -1,1 1,1 0,1 1,1 0,1 -1,1 0,1 2,0 2,-1 0,1 2,-1 2,0 1,-1 -2,-1 1,-1 0,-1 1,-1 -2,-1 1,-1 0,-1 1,-1 -1,-2 1,-1 2,-1 0,-1 0,-2 2,0 2,0 -1,2 0,1 3,0 0,-1 0,-2 2,1 1,2 1,-2 -1,-3 -1,1 -1,-2 1,-1 0,-2 1,-1 2,1 -1,1 1,1 2,-1 0,-2 -2,-1 1,-1 2,1 0,-2 -1,-1 1,-1 2,-2 0,-4 1,-2 -1,-4 0,-2 3,-1 1,-1 1,-1 -1,-2 1,-1 1,-2 -1,-1 0,-2 0,-1 1,-2 0,-2 -1,-2 2,-1 -2,-1 0,-2 -1,-1 1,-1 2,-1 -1,-2 -1,-2 -1,1 -1,1 1,1 -1,1 -2,0 -1,-2 2,-2 0,-2 1,-2 1,1 0,1 2,0 2,1 -1,1 1,1 1,2 1,2 0,1 -1,1 -1,1 2,1 2,-1 1,-3 -2,-2 0,-2 -1,-2 0,-2 -2,0 -2,-1 0,-1 2,0 1,-2 1,2 1,-2 3,-1 1,-2 2,-1 1,3 1,2 -2,1 -1,2 -2,-1 -1,2 1,3 3,0 2,-1 0,-1 0,-2 1,-1 1,-2 1,-1 -2,-1 1,-1 3,1 1,1 -1,2 -1,1 -2,1 1,2 0,1 -1,1 -1,1 -2,1 -2,1 0,3 -1,2 0,2 -3,0 -2,0 0,1 -1,1 2,1 -2,1 1,2 -1,1 0,2 0,2 2,1 -2,1 -2,1 2,2 2,-1 0,3 -2,1 -2,-2 -2,1 -1,2 2,0 -1,2 -1,1 1,1 -1,2 2,0 2,-1 0,-2 1,-2 2,1 -1,2 1,2 -2,1 -1,2 -2,1 -1,-2 -1,1 0,2 -1,2 3,1 -1,2 1,3 -3,1 3,2 -2,2 0,2 -1,4 3,-1 0,3 0,3 -3,-1 1,3 3,2 1,-2 1,-2 0,-2 0,-2 0,-2 3,-1 0,4 0,3 -1,2 -1,2 -1,2 -2,1 2,2 -1,1 0,2 -1,2 -1,3 0,3 3,-1 1,2 -1,1 0,2 -1,2 -1,2 -2,0 -2,1 -1,3 2,0 0,2 -1,1 -2,3 3,-1 2,-1 0,-2 0,-2 0,-2 2,0 1,-2 1,2 1,-2 -1,-2 1,-2 2,2 0,2 -1,2 1,2 1,-2 2,0 -1,-1 1,-1 2,-1 1,2 -1,1 1,1 -1,2 -2,0 -1,1 1,1 2,0 1,2 -1,1 0,2 0,2 1,1 1,2 -2,0 -2,-1 -1,-2 0,-2 1,-2 -3,0"/>
    <path style="fill:none;stroke:#000000;stroke-width:1"
          d="m 295,118 1,-2 -1,-2 -2,1 -1,-1 -1,-2 -1,2 1,2 -1,2 -2,1 -2,0 -1,2 0,2 0,2 3,0 0,-2 0,-2 2,0 3,-1 1,3 -3,1 0,2 -1,2 -1,2 3,2 1,-1 1,-3 0,-2 2,0 2,0 0,2 -1,3 -1,2 3,0 2,-1 0,-2 1,-1 1,2 2,-1 -1,-2 -2,-1 2,-1 2,1 2,0 2,-2 -2,-1 -2,0 -1,-2 -1,2 -1,-2 -1,-2 2,0 0,-1 2,-1 0,-1 0,-2 1,-1 1,2 2,0 -1,2 0,2 -2,0 0,2 2,0 1,1 2,-1 -1,-2 0,-2 1,-2 -1,-3 -2,1 0,-1 -1,-1 1,-1 -1,-1 1,-1 -2,-1 -1,2 0,2 -1,1 -1,2 -1,2 -1,-2 0,-1 1,-1 0,-2 1,-1 0,-1 -1,-1 -1,-2 2,0 1,-1 -2,-1 -2,0 -3,1 -2,-1 1,-2 1,-2 2,-1 1,3 1,-1 1,-1 -1,-2 0,-2 -2,0 2,-1 0,-2 -1,-1 1,-1 1,-1 -3,-1 2,-1 1,-2 -2,0 -1,-2 -2,2 -1,2 0,2 1,3 -1,1 0,3 -2,-1 -1,3 -2,-2 -1,-1 1,-2 1,-2 1,-1 -1,-3 1,-2 2,-2 1,-2 1,-2 -1,-3 0,-2 1,-2 -1,-3 1,-2 2,-1 2,-1 1,-1 1,-1 2,-1 0,2 0,1 -2,1 2,1 -2,1 -1,-1 -1,1 -1,1 0,2 0,2 1,1 -1,1 0,2 0,2 1,1 0,2 0,1 2,-1 2,0 1,-1 1,-1 0,-2 0,-2 -1,1 -1,1 -1,1 -1,1 -1,-2 1,-1 0,-1 1,-1 1,-1 2,0 0,-2 -2,0 -2,1 0,-1 -1,-1 1,-1 2,0 1,-1 1,1 0,-2 0,-2 0,-2 0,-2 0,-2 -2,0 1,-1 1,-1 1,-2 -1,-2 -1,1 0,1 -2,0 0,1 -1,1 -1,1 1,1 0,1 -2,1 -1,-1 -1,2 -3,1 -2,-1 -1,3 0,3 -2,1 -2,1 0,-2 1,-2 0,-2 0,-2 0,-1 0,-2 2,0 4,1 0,-2 1,-1 3,1 0,-2 1,-1 -1,-2 2,1 1,-1 -1,-1 0,-1 -2,-1 -2,0 -1,2 0,2 -3,0 -2,2 -2,1 -1,-2 2,-1 0,-2 1,-1 2,0 1,-3 1,-1 -1,-3 1,-1 -1,-3 1,-1 -1,-3 2,-1 2,2 2,-1 0,-1 1,-1 0,-1 1,-1 0,-1 -1,-1 1,-1 1,-1 1,-1 -1,-1 0,-1 1,-2 0,-1 1,-1 -1,-1 0,-1 2,0 -1,-2 1,-1 2,-1 0,2 0,2 0,2 0,2 -2,0 -1,2 1,2 1,-1 2,1 2,0 2,0 2,-1 2,1 2,-1 -1,3 -3,0 -1,2 -2,-1 -2,0 -2,1 -1,-1 -1,1 -1,-2 -1,1 1,2 -1,1 0,1 -1,1 1,2 -1,-1 -1,1 -1,1 -1,1 0,1 -2,1 0,4 2,-1 0,-1 1,-1 1,-1 1,-1 0,-1 2,0 1,-1 1,-1 -1,-1 0,-1 1,-1 0,-1 2,0 1,-1 2,0 2,1 0,1 1,2 -1,1 -2,-1 0,-1 -1,-1 -2,1 0,1 1,1 -1,1 -1,1 -1,1 -2,1 -1,1 -1,1 0,1 -2,1 0,1 -1,1 -1,1 2,1 2,1 1,1 0,1 2,-1 1,-2 2,-1 1,-1 -1,-1 1,-1 1,-1 -1,-2 -1,1 -1,1 -1,2 -1,1 0,1 -1,1 -2,-1 0,-1 1,-1 1,-1 1,-1 0,-1 1,-1 1,-1 2,-1 1,-1 2,-1 1,1 0,1 -1,1 -1,1 2,1 -1,1 1,1 2,-1 1,-1 -1,-1 1,-1 1,-1 -2,-1 1,-1 0,-2 0,-1 2,0 2,0 1,-2 -1,-4 0,-2 1,-2 3,1 -1,3 2,-1 2,-1 2,-1 1,-2"/>
    <path style="fill:none;stroke:#000000;stroke-width:1"
          d="m 333,26 2,1 -1,3 -2,1 -3,3 0,3 -2,0 -1,1 -2,1 -2,0 -1,1 2,1 -1,1 1,1 -1,1 -1,1 2,1 1,-1 2,-1 1,1 0,1 -1,1 -2,1 2,1 0,1 -1,1 0,1 -2,1 -1,-2 0,-2 -1,-2 -2,1 0,2 1,2 0,2 -1,2 1,2 0,2 1,2 -2,1 -2,-2 0,-2 -1,-3 0,-2 1,-1 -1,-3 0,-1 -2,-1 0,2 0,2 -1,2 0,2 1,2 0,2 0,2 -2,1 2,2 3,-1 1,2 -2,1 2,2 -1,1 2,4 1,-2 1,2 2,-1 0,-2 -2,-1 0,-2 0,-2 1,-1 2,-1 0,-2 -1,-2 0,-2 -1,-2 2,0 1,-1 1,-1 1,-1 1,-1 0,-1 0,-2 0,-1 1,-2 0,-2 2,-1 0,1 0,2 1,1 -2,1 2,1 -1,1 -1,1 2,1 -1,1 -1,1 -1,1 -1,1 1,1 -2,0 0,1 -1,1 0,1 1,1 -1,1 0,2 -1,2 -1,2 2,1 1,-1 2,0 0,-1 -2,-1 2,-1 -1,-1 0,-1 2,-1 0,-1 -1,-1 1,-1 1,-2 1,-1 0,-1 2,1 0,-2 0,-1 0,-2 2,2 2,-1 1,-2 1,-2 1,-1 1,1 0,3 0,2 -2,0 -1,1 -2,1 -1,1 1,1 -2,1 -2,0 -1,1 0,2 2,-1 1,1 0,1 -1,1 1,1 2,0 0,2 -2,0 -1,1 -1,-2 -1,-2 -1,1 0,2 1,1 0,1 -1,1 -1,2 -1,-1 -1,1 -2,0 0,2 0,2 -3,2 2,0 1,2 2,-1 1,2 1,-1 -1,-2 -1,-2 0,-2 2,0 0,2 1,2 1,-2 2,-1 0,-2 -2,1 0,-2 2,-1 1,-1 1,-1 2,1 2,-1 2,-1 -2,-2 -1,-1 1,-1 -2,-1 1,-1 -2,-1 1,-1 1,-2 1,-1 1,-1 1,2 0,1 -1,1 0,1 1,1 0,1 1,2 2,-1 -1,-3 1,-1 -1,-2 -1,-2 1,-2 1,2 2,-1 -1,-3 3,0 1,3 0,3 -3,0 1,3 -1,2 3,2 2,-1 0,-3 3,0 0,3 0,3 -1,2 3,1 1,-3 1,-2 2,0 2,0 -1,2 -1,1 2,1 -2,1 0,1 1,1 -1,1 -2,0 -3,1 1,3 -3,0 -3,0 -2,-4 3,0 2,-1 -3,-3 -3,0 -1,-3 -2,1 0,2 1,2 -1,2 -1,-2 -3,1 -1,1 0,2 0,2 3,1 0,-3 2,1 2,-1 0,3 -1,2 -3,1 -3,-1 0,1 -2,1 0,4 3,-2 3,-1 0,3 -1,2 -3,1 -1,2 1,3 0,3 1,1 2,0 2,0 -2,-2 1,-2 -1,-3 3,0 1,-3 1,-3 1,-2 2,-2 3,-1 0,2 0,2 0,2 0,2 0,2 -3,-1 -1,3 -2,3 -1,2 1,2 2,-1 2,-1 1,2 1,-2 1,2 2,0 -1,-2 0,-2 -2,0 0,-2 2,0 0,-1 0,-2 0,-2 0,-2 0,-2 0,-2 2,-1 1,1 0,3 0,3 0,3 3,3 -2,1 -1,2 0,2 2,0 2,0 1,-1 -1,-1 1,-1 1,-1 -1,-2 1,-1 -2,-1 0,-2 2,1 0,-2 -2,-1 2,-1 -2,-1 2,-1 -2,-1 1,-1 1,-2 -1,-2 -1,2 -2,1 0,-2 0,-1 -1,-2 2,-1 1,2 1,-1 0,-2 1,-1 -1,-2 1,-2 -1,-2 1,-2 0,-2 -2,0 -2,0 -3,-1 -1,-3 -3,-1 -1,-3 1,-1 3,-1 0,3 3,0 2,0 0,2 0,1 -2,0 1,2 2,0 2,0 0,-2 -1,-2 1,-1 -1,-2 2,-1 0,-2 1,-1 0,-2 -2,0 -1,1 -1,2 -1,3 -2,-1 0,-2 1,-2 0,-2 0,-2 -2,0 -2,1 1,2 -1,2 -1,-1"/>
    <path style="fill:none;stroke:#000000;stroke-width:1"
          d="m 356,48 -2,0 -1,2 -1,-2 0,-1 1,-1 1,-1 1,-2 -2,-1 0,-2 1,-2 -2,0 -2,1 0,2 1,2 -2,1 1,1 -1,1 1,2 -2,0 0,-1 -1,-2 -1,1 0,2 -2,0 0,-1 -1,-1 1,-1 -2,-1 -2,1 0,1 -2,1 -1,1 -2,0 0,-4 -1,-3 2,0 2,0 3,0 4,1 0,-3 1,-3 4,0 2,-1 0,-2 1,-2 -1,-1 1,-2 2,1 0,-2 -2,-1 -1,-2 -2,0 0,2 0,2 0,3 -1,2 -3,-1 -3,0 -1,3 -1,2 -2,1 -1,-3 -2,1 0,2 -3,0 0,-3 2,-2 2,-1 2,0 1,-3 -3,0 1,-2 0,-2 -2,-1 1,-2 3,0 3,0 -2,3 3,3 2,-1 1,-3 3,-3 1,-2 2,0 1,2 -1,1 1,2 2,0 1,-2 -1,-2 0,-2 1,-2 2,1 0,2 0,1 0,2 -1,2 -1,2 1,2 0,2 2,0 -1,2 -2,1 -1,-2 -1,2 -1,2 1,2 2,-1 2,-1 0,1 0,2 -2,1 -1,1 1,2 2,-1 2,0 0,-2 2,-1 -1,-2 -1,-2 0,-1 2,-1 1,2 1,2 0,2 0,2 -2,1 1,2 -1,1 2,1 2,0 0,-2 -1,-1 1,-2 0,-2 2,-1 -2,-1 -1,-2 1,-1 0,-2 -2,0 -2,-1 1,-1 2,-1 1,1 2,0 1,-1 0,-1 2,0 1,-1 2,0 -1,2 -1,1 0,1 -2,0 -2,1 2,1 -1,1 0,1 -1,1 2,1 1,-1 2,0 0,2 0,1 -2,0 0,2 1,1 2,-1 1,-1 1,-1 -1,-2 1,-1 1,-2 2,-1 2,-1 0,2 -1,1 -2,1 0,2 0,1 1,1 -1,1 -1,1 -1,1 1,1 0,1 -2,0 -1,-2 -1,1 0,1 -2,0 0,2 2,0 2,0 2,0 0,2 -2,1 -1,-1 -2,0 -1,2 2,0 1,1 0,2 -2,-1 0,2 1,1 -1,1 0,2 1,1 -1,1 0,2 0,2 2,-1 1,-2 1,4 1,-2 1,-2 -1,-2 1,-2 -2,0 -1,2 -1,-2 1,-2 2,0 -1,-2 1,-1 1,1 -1,-2 1,-1 1,-2 2,1 -1,1 0,2 1,1 -1,2 1,2 -1,2 1,2 0,2 0,2 -2,0 -1,2 3,1 -1,2 -3,-1 -2,0 -1,-2 -2,2 2,3 2,2 0,-1 1,-1 2,0 1,1 -1,1 3,0 2,2 0,-3 -2,-1 2,-1 0,-2 0,-2 0,-2 0,-2 0,-2 0,-2 0,-2 0,-2 0,-2 0,-2 0,-2 0,-2 0,-2 0,-2 -3,1 1,2 -1,1 -2,-1 0,-2 0,-2 2,0 0,-1 1,-1 -1,-2 0,-1 -1,-1 2,-1 2,0 0,2 0,2 0,2 6,1 5,2 1,-2 1,-1 1,2 -1,1 -1,2 0,2 1,1 -1,1 1,2 -2,1 0,2 0,2 -2,0 0,-2 -2,0 0,1 0,2 0,2 0,3 1,-1 1,-1 0,-2 2,0 0,2 0,2 -1,1 -1,1 2,1 -2,0 -2,0 0,2 2,0 2,0 0,2 -2,0 -1,1 0,1 -1,2 0,3 0,2 2,-3 1,-1 -1,-1 1,-1 1,-1 2,1 1,3 1,-1 0,-2 0,-2 -1,-1 1,-1 0,-2 -1,-1 0,-2 2,0 -2,-2 1,-1 0,-2 -1,-1 2,-2 -2,0 0,-2 1,-1 0,-2 0,-2 0,-2 -1,-1 2,-1 2,-1 -2,-1 2,-1 0,-2 -2,0 -1,1 -1,-2 -2,0 0,-2 -1,-1 2,-1 -1,-1 -1,-2 2,0 -1,-2 1,-2 -2,0 -5,0 -5,3 -1,2 -1,-2 -1,-2 -1,-2 2,0 0,-2 0,-2 -1,-2 2,-1 1,1 1,-2 2,1 2,-1 2,0 2,-1 1,3 1,-1 0,-1 0,-2"/>
    <path style="fill:none;stroke:#000000;stroke-width:1"
          d="m 397,17 2,-1 2,1 -1,1 -1,1 2,1 -1,1 -1,1 -1,1 0,1 -2,0 0,2 2,0 2,0 0,-2 2,-1 1,-3 0,-1 1,-1 0,-1 2,-1 1,-1 2,0 0,2 -2,1 -1,2 2,1 -1,2 -2,-1 0,2 0,2 0,2 -1,3 -2,0 -1,-1 1,-2 -2,0 -1,2 1,2 0,2 2,-1 0,1 0,2 -2,0 -1,1 2,1 2,0 2,-2 2,2 0,2 4,2 1,-2 3,0 -1,-3 3,0 -1,-3 1,-2 2,1 0,-2 2,0 2,0 0,-2 1,-1 2,0 0,-1 1,-1 1,-1 1,-1 1,1 0,2 -1,1 -1,1 -2,1 0,2 2,-1 0,1 1,1 -1,1 -2,0 -2,1 -3,0 0,3 1,2 -2,0 -1,2 0,2 1,-1 2,-1 2,-1 1,-1 1,-2 1,-1 1,-1 3,0 0,-1 0,-2 1,-1 -2,-1 1,-1 0,-1 1,-2 1,-1 -1,-2 1,1 2,0 -1,-2 -1,-1 1,-1 -2,-1 -1,2 -1,1 -1,-2 1,-1 0,-2 0,-1 -1,-1 1,-1 2,-1 0,2 1,1 -1,1 2,1 2,0 0,2 3,1 0,-2 0,-2 1,-1 2,-1 0,-1 1,2 1,2 -2,1 0,2 3,0 2,-2 0,-2 1,-1 -1,-2 -2,1 0,-1 1,-2 1,-2 2,0 1,2 -1,1 2,1 -1,1 1,3 -1,2 -1,3 1,15 1,-5 0,-4 1,-2 -1,-3 1,-2 4,-3 3,0 3,0 3,0 2,1 2,-1 3,0 2,-1 2,-1 0,-1 -2,-1 0,-2 2,1 2,1 1,-1 0,2 0,1 2,1 -1,1 -2,0 -1,-1 -1,1 -1,1 0,2 -1,1 2,2 1,-1 0,-2 1,-1 2,0 1,1 -2,1 2,1 2,-1 0,-2 0,-1 1,-1 -1,-2 -2,-1 0,-2 2,1 0,-2 -1,-2 2,-1 2,-1 0,-3 2,-2 3,0 0,2 -1,2 -1,1 -1,2 -2,1 0,2 3,0 1,-2 2,-1 0,3 2,-1 1,-3 -2,-1 1,-2 0,-2 2,-1 2,0 -2,1 0,2 2,-1 1,2 -1,1 0,2 -1,2 3,0 1,-3 2,-1 0,-1 -2,-1 1,-1 -1,-1 1,-1 2,-1 1,1 -1,1 1,1 0,1 0,1 2,0 1,-1 1,1 2,0 0,-1 0,-1 1,-1 0,-1 2,0 0,-1 0,-1 2,0 0,2 1,2 -2,0 -1,1 -1,1 2,0 2,0 2,0 0,-2 1,-1 0,-2 -2,1 0,-2 1,-1 0,-1 -1,-1 -2,1 -1,-1 -1,1 -1,1 -1,-2 -3,0 1,1 0,1 1,1 -1,1 -1,1 -1,2 -1,-1 0,-2 1,-2 -1,-2 -1,1 -1,1 -1,-2 -2,1 -1,2 -2,-1 -4,-1 -5,-1 -2,0 -2,1 -2,0 -2,0 2,4 -1,1 1,2 -2,1 -1,-2 -1,-2 -2,1 1,2 0,2 0,2 -2,1 -2,-1 1,-2 -1,-2 1,-1 -1,-2 2,-1 1,-3 -2,0 0,1 -2,1 -1,-2 -2,1 0,-2 -2,0 -1,2 1,1 -1,2 2,0 2,-1 1,2 -2,1 1,2 -1,1 1,2 -2,1 1,2 -2,1 -3,0 0,-2 1,-1 1,-2 -2,-1 1,-2 1,-1 -2,-1 -2,1 -1,2 1,2 -1,2 0,3 -3,0 -3,0 0,-2 1,-1 2,0 1,-2 0,-2 -2,1 -2,0 -1,2 -2,1 -1,1 -1,-2 1,-1 2,-1 0,-2 0,-1 2,-1 1,2 1,-2 2,1 0,-2 2,0 2,-1 1,-1 -1,-2 -2,0 -1,2 -1,-1 -3,1 -4,-3 0,5 -1,1 0,2 -2,1 -2,-4 -1,2 -1,1 -2,1 -1,2 -1,1 -2,0 -2,1 -1,1 -1,2 -2,1 -1,-2 2,-1 -1,-3 1,-3 2,2 1,-2"/>
    <path style="fill:none;stroke:#000000;stroke-width:1"
          d="m 439,8 2,1 2,0 0,-2 1,-2 2,-3 -4,-1 -2,2 -1,2 -2,-4 -1,3 -2,1 -4,1 0,-2 1,-2 1,-2 -5,0 -1,2 0,2 0,3 -2,-1 -2,1 -1,-2 1,-2 0,-2 -2,1 -1,3 -2,1 2,1 0,2 0,2 -2,1 2,1 -2,1 -2,1 2,2 3,-1 2,0 1,-2 1,1 2,-1 1,3 -1,-1 -2,1 -1,1 -1,1 0,1 0,2 1,1 1,-2 1,-1 1,-1 1,-1 1,1 -1,2 0,1 -1,1 0,1 -1,1 -2,1 0,-1 -2,1 0,2 -2,1 -1,-3 1,-2 0,-2 0,-2 -3,0 -1,2 -1,2 1,3 -1,3 -2,2 -1,2 0,3 -3,-2 -2,-2 1,-2 2,0 -1,-3 1,-2 2,1 0,-3 0,-3 1,-2 0,-3 0,-2 2,-1 -1,-1 1,-1 1,-1 2,-1 -2,-1 -1,-2 -1,-2 1,-1 3,0 0,-3 -3,0 -3,1 -2,0 -1,1 1,1 0,1 2,1 1,1 1,2 -1,1 -2,0 0,-2 -1,-1 -1,1 -1,-2 -1,1 0,2 -2,1 1,2 2,-1 1,-1 1,2 0,2 -1,-1 -1,1 -2,0 -1,1 -2,-2 -1,2 -3,-1 1,-3 2,-2 1,-2 2,0 -1,-2 1,-1 2,0 -1,-2 -2,0 -1,1 -1,2 -1,1 -1,1 -2,0 -2,1 1,2 0,2 -2,1 2,1 -1,2 -2,1 -3,1 -1,1 -1,-2 0,-2 0,-2 3,1 -1,-2 1,-2 -2,-3 1,-2 1,2 2,-1 2,0 2,-1 1,-1 2,-1 0,-2 -2,0 -1,1 -3,-1 -2,1 -3,0 -3,0 -3,0 -3,-1 -1,2 -1,3 -1,1 0,3 0,3 1,3 2,-2 1,-2 0,-3 2,1 0,-3 1,-1 2,0 1,2 0,2 -2,2 -1,3 0,3 -1,2 -2,0 -2,-1 -1,2 0,2 2,1 1,-2 1,2 0,2 -2,0 -1,1 1,1 1,2 -1,1 -2,0 -2,0 0,-2 2,0 -1,-2 1,-2 -2,0 0,-2 0,-2 -1,-1 -1,2 0,2 0,1 -2,0 -1,1 -2,0 -1,-1 -1,2 -1,-2 -2,0 1,2 -2,1 -2,1 -1,-2 2,-1 -1,-2 2,-1 0,-1 -1,-2 0,-2 -1,-1 0,-2 -1,-2 1,-1 -1,-2 2,-1 2,-1 0,1 -1,2 1,1 1,2 -2,0 1,2 1,2 1,-2 1,-2 2,0 1,-1 1,-1 0,2 -1,2 -2,0 0,2 2,0 -1,2 -1,-1 -1,1 -2,0 0,1 1,2 2,-1 0,1 2,1 0,-2 2,1 0,-2 0,-1 1,-3 1,-1 -1,-3 1,-1 -1,-1 1,-1 0,-2 0,-2 -2,0 -1,-1 1,-1 2,0 1,-2 -2,0 -1,-1 -1,1 -1,1 -1,-2 -2,1 1,2 0,1 1,1 -1,1 1,1 2,-1 1,1 0,1 -1,1 -2,0 0,1 -1,1 -2,0 0,-2 1,-1 -1,-2 -1,-1 1,-1 -1,-2 -1,-2 -2,1 1,2 -2,0 1,2 -2,1 -2,1 0,2 -2,-1 -2,0 -1,2 -2,1 0,1 0,2 2,0 1,-2 1,-2 2,1 1,2 0,1 -2,0 -1,2 -2,1 -2,-1 -2,0 -2,0 0,2 -1,2 -3,-1 -3,0 -2,0 -2,0 -2,-1 0,-2 3,0 2,0 3,0 1,-2 3,-1 1,-2 1,-3 -3,0 -1,-3 3,0 3,1 1,2 1,-2 1,-1 2,0 2,0 2,-1 0,-2 -3,-1 -1,-1 -1,1 -2,-1 1,2 -3,1 -2,-2 0,-1 -2,1 -1,-1 0,2 -3,0 1,-1 -1,-1 -2,1 -1,-1 -1,1 -2,0 -1,-1 -1,1 1,2 0,2 1,2 0,1 -1,2 3,0 1,-2 0,-1 -1,-1 0,-1 2,-1 1,1 0,2 2,2 -1,2 -2,2 -2,0 -2,0"/>
    <path style="fill:none;stroke:#000000;stroke-width:1"
          d="m 336,13 -2,0 -1,1 -2,1 0,2 1,2 -2,1 0,2 2,-1 2,0 -1,3 -3,1 -3,0 1,-2 -1,-2 -2,2 -2,1 -2,1 -2,-1 -2,1 -2,-1 -2,2 0,-2 0,-2 0,-2 0,-2 0,-2 0,-2 0,-2 0,-2 -2,0 -1,1 0,2 0,2 -2,1 -2,1 -1,2 0,1 -2,1 0,1 1,1 -1,1 1,1 -1,1 -1,1 0,1 1,1 -1,1 -2,1 -1,1 2,1 -1,2 -3,-1 -3,0 1,-3 1,-3 3,0 1,-3 1,-1 0,-2 0,-2 1,-1 1,-1 1,-1 1,-1 1,-1 1,-1 0,-1 -1,-1 2,-1 0,-2 2,-1 -1,-2 0,-1 3,0 0,1 0,2 2,0 1,-1 0,-2 2,1 1,-1 2,-1 0,2 -1,1 -1,1 0,2 -2,-1 0,2 -1,1 2,1 0,2 -2,1 2,1 0,1 -2,2 2,1 0,1 2,-2 2,2 2,-1 2,-1 2,-1 1,-2 -1,-2 0,-3 2,-1 0,2 3,-1 0,-2 -1,-2 2,0 0,-2 0,-1 -2,1 0,-4 1,-1 -1,-1 -2,0 0,2 -2,-1 -1,-1 0,2 -1,2 1,1 1,2 0,2 -2,1 -2,0 0,2 2,1 -2,1 0,2 2,1 -2,1 -2,1 -1,-2 0,-2 0,-2 -1,-1 2,-1 -1,-1 1,-1 1,-1 2,0 1,-1 -1,-1 -2,0 0,-2 0,-2 2,-1 -1,-1 -2,0 -2,1 -2,0 -2,1 -3,-1 -2,0 -1,-1 -1,1 -2,-1 0,1 -2,1 0,-1 -2,-1 -1,1 -2,-1 -1,1 -2,0 -2,0 -1,-1 -2,1 0,2 2,0 -1,2 -2,0 -1,2 -2,-1 1,-1 1,-2 -1,-1 0,-2 -2,0 0,2 -2,0 0,-1 -2,-1 0,2 0,2 2,0 0,3 -2,-1 -1,1 1,2 0,1 -1,1 1,1 -1,1 0,1 -1,1 0,2 0,1 1,1 -1,1 1,1 0,1 2,-1 2,0 0,2 0,1 0,2 1,1 -1,1 1,1 -1,1 0,2 0,3 -2,1 -1,3 -3,-1 1,-1 0,-2 0,-2 2,-1 0,-2 0,-2 0,-3 -1,-1 0,2 -1,1 -2,-1 0,-1 1,-1 -1,-1 1,-1 -1,-2 -2,-1 0,2 -1,1 1,1 0,1 -1,1 0,1 1,1 0,1 -1,1 -1,1 -1,-2 0,-1 -1,-1 0,-2 1,-1 -2,-1 1,-1 2,-1 0,-2 2,-1 2,1 0,-2 0,-1 0,-2 0,-1 1,-1 -1,-1 0,-2 1,-1 1,-2 -2,0 -1,-2 2,-1 0,-1 -2,0 -2,1 -1,-2 -1,1 -2,-1 -1,1 2,1 -1,1 1,2 -2,0 -1,-2 -1,2 -1,-2 1,-1 0,-1 -2,-1 -1,1 -1,1 1,1 -1,1 2,1 0,1 -2,0 -1,1 -1,1 -1,-2 0,-1 1,-1 0,-2 0,-2 -2,1 -1,1 1,1 -1,1 -1,1 0,1 1,1 0,1 -2,2 0,2 -2,1 -3,0 1,-2 1,-2 2,-1 0,-1 -1,-3 1,-1 1,-1 0,-2 -2,0 -2,1 -1,3 -2,-4 -4,2 0,-1 -2,-1 -1,1 0,1 -2,-2 -1,1 0,1 -1,2 -1,1 0,1 0,2 -2,1 1,2 -1,2 -2,-4 -1,2 0,2 -1,1 -2,1 2,2 -2,1 0,2 -3,-3 -1,1 -1,2 2,1 -2,2 -1,1 0,2 -2,1 -2,-1 0,3 -1,2 -2,-1 0,-3 0,-3 1,-3 2,2 2,-2 -2,-1 1,-2 1,-1 2,-2 2,-1 2,-1 2,-2 0,-3 2,-1 2,-1 1,-1 1,-2 2,-1 -1,-2 -1,1 -2,0 -1,-1 1,2 0,1 -2,0 0,1 -2,1 -2,1 -1,2 1,2 -2,1 -2,1 -2,2 -2,1 0,-3 1,-2 0,-2 2,-1 1,2 1,-3 0,-1 1,-1"/>
    <path style="fill:none;stroke:#000000;stroke-width:1"
          d="m 226,4 2,0 1,-1 1,-1 1,-1 -1,-1 -2,0 -1,1 -1,1 0,-2 -2,0 0,2 -1,1 -1,-2 -1,-1 -2,0 -1,1 -1,2 2,0 1,-1 1,1 1,2 -2,0 -2,0 0,1 0,3 -1,1 -2,-2 0,-2 0,-2 -2,0 -1,1 -2,1 0,-2 1,-1 2,-1 2,0 1,-1 -1,-1 -2,0 -2,1 -1,-1 -1,1 0,1 -1,2 -2,1 -2,-1 1,-1 2,-1 -1,-2 -2,0 -2,1 -1,1 1,2 0,2 1,2 1,-2 1,2 2,0 1,-1 2,2 2,-1 1,2 -1,2 -2,0 0,2 -1,2 0,2 -1,2 -2,1 -1,1 -2,1 -1,2 -1,2 -2,-1 -1,2 1,3 -1,4 -2,-2 0,-2 0,-2 -1,-2 1,-2 -1,-2 1,-2 0,-2 2,0 1,4 1,-2 2,-2 2,-1 2,-1 -2,-2 3,-1 0,-3 -3,-1 0,2 -2,1 -1,2 -1,2 -2,-1 -2,1 -1,-2 -2,0 1,-2 2,-1 1,2 1,-2 2,-1 1,-2 -1,-1 -2,1 -2,0 -1,1 -2,1 -1,-2 2,-1 2,-1 2,-1 1,-1 1,1 0,-2 -1,-2 -1,-2 -1,1 -2,-1 -1,1 0,2 2,-1 1,1 -1,1 -1,1 -2,1 0,-1 -1,-2 0,-2 -1,-1 -1,1 0,2 0,2 1,2 -2,0 1,2 0,2 0,1 1,1 -2,1 -1,1 -1,1 -1,-2 1,-1 1,-1 -1,-2 1,-1 -1,-1 0,-1 1,-1 0,-1 0,-2 0,-1 0,-1 -1,-1 -2,0 0,2 1,1 0,1 -1,1 -2,-1 0,-1 -1,-1 1,-1 -1,-1 -2,0 0,2 -1,1 0,1 2,0 1,2 0,2 2,-1 1,2 1,2 -1,1 -1,2 1,2 1,2 -2,0 -1,2 2,1 2,-1 1,-1 1,-1 0,-1 2,-1 2,1 -1,1 2,1 -1,2 -1,1 -1,-2 -2,1 -1,1 -2,1 -1,1 -1,2 -2,1 -2,2 4,0 -2,2 -1,2 -1,1 -1,2 0,3 -2,-1 -3,1 3,2 -2,1 0,2 1,1 -1,1 0,2 -1,1 -1,-2 0,-2 -2,0 0,-2 0,-2 -3,1 1,-3 2,-1 1,-2 1,-1 3,0 -1,-3 2,-1 0,-2 1,-3 2,-1 2,-2 -3,-1 1,-2 0,-2 1,-1 1,-2 -2,-2 2,-2 -2,-1 -1,-2 0,-2 -2,0 -1,1 1,2 1,2 -2,1 1,2 -2,1 -2,-1 0,-3 2,-1 0,-1 -1,-2 0,-1 1,-1 2,-1 -1,-1 1,-1 1,-1 -1,-1 -2,1 -1,-1 -1,1 1,2 0,1 -2,0 -1,1 0,1 1,1 -1,1 1,1 -2,1 0,2 0,2 0,2 -1,2 -1,2 1,3 1,3 2,-1 0,-2 1,-2 -2,-1 2,-2 1,-1 3,0 0,3 -1,2 0,2 -1,2 -1,2 -4,1 3,1 -1,2 -2,1 -2,2 -2,-2 -1,-2 2,0 0,-2 -2,-1 0,-2 2,0 -1,-2 0,-2 0,-1 -1,-2 -2,0 -1,-2 -1,-2 -1,-2 1,-1 0,-2 1,-2 1,2 1,-1 1,2 -2,1 0,2 1,2 2,1 1,-2 -1,-2 1,-2 0,-2 2,-1 -2,-1 2,-1 -2,-1 1,-1 0,-1 2,0 1,-1 0,-1 -1,-1 -2,1 -2,0 -1,1 0,1 0,2 0,2 -2,-1 -1,-2 1,-1 -1,-1 0,-1 -2,-1 -1,1 0,1 1,1 0,1 1,2 -1,2 -1,1 -1,1 1,1 -1,1 0,1 -2,0 0,1 -2,1 -1,-1 1,-2 1,-1 1,-1 0,-2 0,-1 2,0 1,-1 -1,-2 -1,1 -2,0 -1,-2 2,0 1,-1 -1,-2 -1,1 -2,0 -1,-1 0,2 0,1 1,2 -2,1 2,1 0,1 0,1 -1,1 0,2 -2,0 -1,-2 1,-2 -1,-2 1,-2 0,-1"/>
    <path style="fill:none;stroke:#000000;stroke-width:1"
          d="m 150,3 -1,-1 1,-1 -1,-1 -2,1 -2,-1 0,2 -2,0 -1,1 0,1 0,2 -2,0 -2,1 0,2 -1,1 -1,1 0,1 1,1 -1,1 -2,0 -1,1 -1,-2 2,-1 -2,-1 1,-1 0,-1 -1,-2 1,-1 1,1 1,2 1,-1 0,-2 1,-1 1,-1 2,0 -1,-2 -1,-2 -1,2 -1,1 -1,1 -1,1 -2,-1 1,-1 1,-1 1,-1 1,-1 -3,0 -2,0 -1,1 0,2 -1,1 1,1 -1,1 1,1 -1,1 1,1 -1,1 1,1 0,1 0,2 1,1 0,1 -1,1 1,2 0,2 0,2 -2,0 -2,-1 2,-1 -1,-1 1,-1 -1,-1 0,-1 -1,-1 1,-1 -1,-1 1,-1 -1,-1 0,-1 -1,-1 0,-1 1,-1 0,-2 -1,-1 1,-1 1,-2 0,-1 -2,-1 0,2 -1,1 -1,1 -2,1 -1,-1 1,-1 1,-1 1,-1 -1,-1 -2,1 -2,1 0,-1 -1,-1 -2,0 -1,1 0,2 2,-1 1,2 -1,2 -2,1 -3,0 -2,-1 -1,-2 1,-1 2,1 1,-1 -1,-1 1,-1 -1,-1 -2,1 -2,1 0,-1 -1,-1 -2,1 -1,-1 -2,1 -1,2 0,1 -2,0 0,-2 1,-1 -1,-1 -2,0 -1,1 -1,1 -1,-2 -1,1 -2,0 -1,-1 -1,1 -2,-1 -1,1 0,1 -2,1 0,-1 0,-2 -2,0 -1,1 0,1 1,1 0,1 2,1 -1,1 1,1 -1,1 1,2 -2,0 0,1 0,2 0,1 -1,1 -1,1 1,2 -1,1 1,2 -2,0 -1,-1 -1,-2 1,-1 -1,-1 1,-1 1,-1 0,-1 1,-1 0,-1 0,-2 1,-1 0,-1 -1,-1 0,-1 -1,-1 0,-1 -1,-1 0,-2 -2,1 -1,-1 0,2 1,1 0,1 1,1 0,1 1,1 -1,1 1,1 0,1 -1,1 0,1 -1,1 0,1 -1,2 0,2 1,2 1,2 -2,1 -1,-2 -1,1 -1,2 1,1 -1,2 2,0 1,-2 2,0 1,-1 1,-1 2,0 -1,2 0,1 -1,1 -2,0 0,1 -1,1 -2,0 -2,0 -2,1 2,1 -1,1 2,1 -1,1 -2,1 -1,2 -1,1 2,1 -1,1 -2,1 -1,-2 -1,-2 -1,-2 2,-1 1,2 1,-2 1,-1 -1,-2 -2,0 -1,1 -1,-2 0,-2 0,-2 -1,-2 -1,-2 -1,-2 0,-1 1,-1 2,1 2,0 2,-1 1,2 -1,1 -1,2 -1,-2 -2,0 0,1 1,2 1,2 0,2 1,1 2,-1 1,-1 0,-2 -2,0 1,-2 2,-1 1,-2 1,-1 -1,-2 1,-1 0,-1 1,-1 0,-2 0,-1 1,-1 0,-1 -1,-1 1,-1 -1,-1 0,-1 -1,-1 0,-1 -1,-1 0,-1 1,-1 -3,0 -1,1 0,1 1,1 -1,1 -1,1 1,1 2,-1 0,1 1,1 -1,1 1,1 0,1 -1,1 0,1 1,1 -1,1 -1,1 -1,1 -1,-2 1,-2 -2,0 0,-2 2,-1 0,-1 -2,1 -1,-1 1,-1 -1,-1 0,-1 -1,-1 2,-1 -1,-1 1,-2 -1,1 -2,-1 0,2 -1,1 -2,-1 1,-1 -1,-1 -2,1 -1,-1 -2,1 -1,-1 -1,2 -1,-2 -1,1 -2,-1 -2,0 0,2 -1,1 -1,-2 -1,-1 -1,1 -1,1 2,1 -1,1 0,2 0,2 -2,0 1,2 0,2 -2,0 -1,-2 -1,-2 0,-1 0,-2 2,0 0,-2 1,-3 -1,1 -2,0 0,1 -1,1 -2,0 0,-2 0,-1 -2,1 -1,-1 -1,1 -2,0 0,-1 -2,1 -1,1 1,1 0,1 -2,0 -1,1 -1,-2 1,-1 1,-2 -2,0 -1,1 -2,-1 -2,0 -1,1 0,1 -1,1 -1,1 0,1 0,2 -2,0 -1,-1 1,-1 -1,-1 1,-1 0,-3 -3,1 -2,0 -1,-1 -2,1 -1,-1 0,2"/>
    <path style="fill:none;stroke:#000000;stroke-width:1"
          d="m 5,2 1,1 -1,1 1,1 -1,1 -1,1 -1,-2 -1,-1 1,-1 -1,-1 1,-1 -1,-1 -2,1 0,2 1,2 1,2 -1,1 1,2 1,-1 2,0 2,1 -1,-2 1,-1 1,-1 0,-2 0,-2 1,1 2,1 -1,1 0,1 1,1 -1,1 -1,1 3,1 1,-2 2,1 0,2 3,0 0,-2 0,-2 1,-1 0,-1 1,-1 0,-1 1,-1 1,1 1,2 0,1 -2,0 0,2 -1,1 1,2 2,-1 0,-2 2,0 1,-1 1,-1 2,0 1,-1 0,-2 2,0 2,0 -1,2 -1,2 -1,2 -2,-1 -1,1 -1,1 -2,1 0,1 3,0 2,-1 1,2 -1,1 3,1 1,-2 -1,-2 2,0 -1,-2 1,-2 1,-2 1,4 1,2 -1,2 -1,2 -1,3 0,5 4,-2 0,-3 0,-3 2,-1 2,1 -2,2 1,3 0,3 -2,1 -1,2 3,1 -3,2 -2,1 4,2 1,-2 4,2 1,-2 -1,-2 1,-1 -1,-2 1,-2 -1,-1 0,-2 1,-1 -1,-2 1,-1 -1,-2 0,-2 0,-2 0,-2 1,-2 2,2 1,-1 -1,-1 1,-1 -1,-1 1,-2 2,1 0,1 1,1 -1,1 1,1 -1,1 -1,1 -2,1 1,1 -1,1 0,2 1,-1 1,1 0,3 3,-1 1,-1 2,0 -1,-2 -1,-1 -1,1 -1,1 -1,-2 0,-1 1,-1 1,-1 1,2 1,-1 1,-1 -1,-1 0,-1 -1,-1 1,-1 -1,-1 1,-1 2,-1 1,1 -1,1 0,2 1,1 0,1 0,1 -1,2 0,1 0,1 2,0 0,-2 1,-2 0,-2 -1,-2 1,-1 2,1 0,1 1,1 -1,1 1,1 0,1 -2,1 1,2 2,-1 1,2 0,2 -2,1 -1,-2 -2,0 -2,0 -1,2 -2,1 1,2 -2,1 -1,-2 -1,1 -1,2 2,1 2,0 0,2 1,2 2,-1 -1,-2 0,-2 1,-1 1,2 1,2 0,1 1,2 -2,0 -2,1 -2,0 -1,-2 -1,-2 -1,2 0,1 0,2 0,2 2,-1 1,2 -1,1 -2,1 1,2 -1,1 1,2 1,-1 2,-1 -1,-2 1,-1 2,0 0,-2 -1,-1 1,-1 2,-1 1,1 -1,2 2,0 -1,2 0,1 1,2 -2,1 -1,-2 -1,1 -1,2 2,1 -1,1 1,2 1,1 0,2 1,2 1,-2 2,0 -1,-2 0,-2 -2,0 0,-2 2,-1 1,1 1,2 1,2 0,1 1,1 0,1 -1,1 -2,0 0,1 -1,1 -1,2 -1,-2 -2,-1 0,2 -2,1 -1,-1 -1,2 -1,-2 1,-2 2,0 0,-2 1,-1 -1,-2 -2,1 -1,-2 2,-1 -1,-2 -2,1 -1,2 1,2 1,2 -2,1 0,1 0,3 1,2 -1,1 2,1 -1,2 2,0 1,2 0,1 -2,1 -1,-2 -1,2 0,2 1,2 -1,1 3,1 -1,1 -1,1 -1,1 1,1 2,0 1,-1 1,-1 0,-2 -1,-1 1,-1 -2,-1 1,-1 1,-1 1,-1 1,-1 -1,-2 1,-1 0,-2 -2,1 -1,-2 2,-1 2,-1 2,1 -1,1 1,1 0,1 -1,1 0,2 0,1 0,2 -1,1 -1,1 1,1 -1,1 2,1 -1,1 -1,1 -1,2 0,1 -2,1 -2,0 -1,1 2,1 0,1 1,2 1,3 1,-1 2,0 1,-1 -1,-2 -2,1 0,-1 -1,-2 1,-1 1,1 1,-2 0,-2 2,0 1,-1 -2,-1 2,-1 1,-1 1,1 1,-2 -2,-1 -1,1 -1,-2 2,-1 -1,-1 1,-1 -1,-2 0,-2 1,-2 0,-2 0,-2 2,1 1,-1 -1,-1 1,-1 1,-1 1,-2 1,-1 -1,-1 0,-1 -1,-1 0,-1 1,-1 1,-1 1,-1 1,-1 -1,-1 0,-1 1,-1 1,-1 1,-1 1,-1 -1,-1 0,-1"/>
    <path style="fill:none;stroke:#000000;stroke-width:1"
          d="m 75,31 2,0 1,-1 1,-1 2,-1 2,1 -2,1 -1,1 -1,1 2,1 -1,1 -1,1 -1,-2 -1,2 0,1 0,1 -2,0 0,1 1,1 0,1 1,1 0,1 1,1 0,1 1,2 1,-1 1,-1 0,-1 -1,-1 0,-1 -1,-1 0,-1 1,-1 0,-1 1,-1 2,2 -1,2 1,1 0,1 1,2 -1,1 0,1 -1,1 -1,1 -1,2 -1,1 -1,-2 1,-1 -1,-1 -2,0 0,-1 0,-1 -1,-1 0,-1 -1,-1 0,-1 -2,2 0,1 1,1 0,1 1,1 -1,1 -1,1 -1,1 -1,2 1,1 0,1 -2,1 0,1 -2,0 0,1 0,2 0,1 -1,1 1,2 1,-1 2,0 0,-1 -1,-2 1,-1 1,1 0,-2 1,-1 1,-2 0,-2 0,-1 1,-1 2,-1 0,1 1,1 -1,1 -1,1 0,1 1,1 1,1 -2,1 -1,-1 0,2 -1,1 0,2 0,1 -1,1 -1,1 -2,0 -1,1 -1,1 2,1 0,1 1,1 -2,1 2,1 -1,1 1,1 -1,1 1,2 -1,1 -1,1 1,2 1,2 1,2 1,1 -2,1 -2,1 2,1 -1,1 -1,2 -1,-2 -2,-1 1,-1 -1,-1 1,-1 2,0 1,-1 -2,-1 1,-1 -1,-2 -1,1 -1,-2 1,-1 -2,-1 1,-1 2,0 0,-1 0,-2 -1,-1 -1,2 -2,1 -1,2 1,2 1,2 1,2 -2,1 0,-1 -2,1 -1,1 0,1 3,0 -1,1 1,1 -2,1 2,1 2,0 1,1 -1,1 -2,0 1,2 2,0 0,2 1,2 1,-2 0,-2 0,-1 2,0 0,-2 1,-1 1,-2 0,-1 2,-1 0,-2 0,-1 1,-1 0,-1 1,-1 0,-1 1,-1 1,-1 -1,-1 1,-1 -1,-1 1,-1 2,2 0,-2 2,0 1,-1 0,-1 1,-2 0,-2 0,-1 1,-1 -1,-1 1,-1 0,-2 -1,-1 1,-1 0,-2 1,-1 -2,-1 1,-1 1,-2 -1,-2 -1,2 -1,1 -1,1 0,2 1,1 0,1 -2,1 0,1 2,1 -1,1 -2,-1 -2,0 0,1 -1,1 1,2 1,-1 1,-1 2,1 -1,1 -1,1 0,1 2,0 0,2 -1,1 -1,1 -2,0 0,-1 1,-1 -1,-1 0,-1 -2,1 -1,1 0,1 1,1 0,1 -1,2 0,2 -1,1 0,1 -1,2 -1,2 -1,-2 0,-1 1,-1 0,-2 0,-1 1,-1 0,-1 1,-1 -2,-1 1,-1 -1,-2 0,-1 -1,-1 2,-1 1,2 1,-1 1,-1 -1,-1 0,-1 0,-2 0,-1 1,-1 1,-1 1,1 1,-1 1,-1 -1,-1 1,-1 -2,-1 0,-1 2,0 1,-1 1,-1 1,-1 0,-1 1,-1 2,0 -1,-2 1,-2 -1,-2 0,-2 0,-1 0,-2 -1,-1 1,-1 -1,-1 1,-1 -1,-1 1,-1 0,-2 0,-1 0,-2 0,-1 -2,1 1,-2 1,-1 -1,-1 1,-1 -1,-1 1,-1 0,-2 -2,0 1,-1 2,-1 -2,-1 0,-2 2,-1 1,-3 -1,-3 1,-1 0,-1 2,-1 1,1 -1,1 0,2 2,2 1,-1 0,-2 0,-2 2,0 1,2 0,3 -1,2 -2,1 -2,-1 -1,2 0,2 3,0 2,-1 0,4 2,-1 3,-1 -1,-2 2,0 0,-1 -1,-2 0,-1 0,-2 1,-1 1,2 1,1 0,1 -1,1 1,2 1,-1 1,-1 0,-2 -1,-2 -1,-1 1,-1 0,-2 1,-1 2,1 0,1 0,3 3,1 0,2 -2,0 0,2 2,1 0,2 3,0 0,-2 -1,-2 2,-1 2,-1 2,0 2,-1 1,-2 1,2 1,-1 2,-1 1,1 -1,1 -1,1 -1,2 -1,-1 -2,1 -2,1 -2,0 0,2 0,2 2,-1 2,0 2,-1 0,-1 1,-1 1,1 1,-2 1,1 0,2"/>
    <path style="fill:none;stroke:#000000;stroke-width:1"
          d="m 125,14 -1,1 0,1 1,1 1,1 0,2 -1,1 -1,-2 -1,-1 -1,-2 -1,1 0,1 -2,1 -1,2 3,0 1,-1 1,1 -1,2 -1,1 0,2 1,1 -2,1 1,1 -1,1 1,1 -2,1 -1,-2 -1,-2 0,-1 2,-1 0,-2 -2,1 -1,-2 -1,2 -1,2 1,2 -2,0 -2,0 -1,1 -1,-2 2,-1 1,-1 1,-1 0,-2 0,-2 2,-2 -2,-1 -3,0 0,3 0,2 0,1 -2,1 -2,1 -1,-3 2,-1 0,-3 -3,1 1,-2 1,-2 1,-2 -2,0 -2,1 -2,0 0,2 -2,0 0,2 2,0 0,2 1,2 -2,-1 -1,2 2,1 -1,2 -1,1 1,2 0,2 2,1 -2,1 -1,2 2,2 0,-2 2,-1 1,-2 1,-2 -2,0 -1,-2 1,-2 1,2 2,-1 1,2 1,1 -1,2 2,0 2,-1 2,0 1,-1 2,0 1,2 -2,1 2,1 -2,1 -2,0 -1,-2 -2,1 0,1 1,2 2,0 2,0 0,2 1,1 0,1 0,1 -2,0 0,1 -1,1 1,2 1,-1 1,-1 1,2 -1,1 -1,1 -2,0 0,1 -2,1 -1,-1 0,-1 1,-1 1,-1 -2,-1 1,-1 0,-2 1,-1 1,-1 -1,-1 -2,1 -1,-1 0,-1 -2,-1 1,-1 -1,-2 -2,0 -1,2 1,2 0,1 1,2 1,-2 1,2 1,1 0,1 -1,1 -1,1 1,1 -1,1 0,2 1,1 0,2 2,-1 1,1 2,0 1,-1 1,-1 1,2 1,-2 0,-1 1,-1 1,2 -1,2 2,0 2,0 1,-1 1,1 2,-1 1,-1 -1,-1 -2,1 -2,-1 -1,1 -1,-2 1,-1 2,-1 0,1 1,1 2,-1 0,-1 -1,-1 -2,-1 -2,0 -1,1 -1,1 -1,-2 1,-1 0,-1 -1,-2 -1,-2 0,-2 2,0 1,2 0,1 1,1 -1,1 1,1 2,0 1,-1 0,-1 -1,-1 0,-1 -1,-1 0,-1 -1,-1 0,-1 -1,-1 1,-1 2,0 0,-2 0,-2 1,-1 0,-2 0,-1 1,-1 2,0 2,1 0,1 -2,0 -1,1 0,1 -1,2 1,1 -1,1 1,1 -1,1 -1,1 0,1 1,2 1,2 0,-1 1,-2 -1,-1 1,-1 1,-1 1,1 2,0 0,2 -2,0 0,2 0,1 -1,1 -1,1 -1,1 -1,1 1,1 2,0 1,-1 0,-1 1,-1 1,-1 1,-1 0,-1 2,0 1,-1 -2,-1 1,-1 1,-1 -2,-1 1,-1 1,-1 1,-1 -1,-1 -2,1 -2,-1 0,2 -1,1 -2,-1 1,-1 -1,-1 0,-1 1,-1 2,0 1,-1 1,2 2,-1 0,-1 -1,-1 -2,-1 2,-1 0,-1 -1,-1 0,-2 1,-1 -1,-1 1,-1 1,-1 1,2 0,2 -1,1 1,2 0,2 1,2 1,-1 1,2 -1,1 0,1 1,1 0,1 -1,1 -1,1 1,1 0,1 -1,1 0,1 1,1 2,-1 0,-1 2,0 0,-1 1,-1 -1,-1 -2,1 0,-2 2,-1 0,-1 -1,-1 1,-1 -1,-1 -1,-2 -1,-1 -1,-1 1,-1 -1,-1 1,-1 -1,-1 2,-1 -2,-1 0,-1 -1,-1 1,-1 1,-2 0,-2 2,1 0,2 -1,1 0,2 3,0 0,-3 0,-2 0,-1 -2,-1 -1,-2 2,0 2,1 1,-2 -1,-2 1,-1 2,-1 0,1 0,2 1,2 -2,1 1,2 -1,1 2,1 -1,1 -2,1 1,2 2,2 -3,1 -2,2 -1,2 0,2 1,1 1,2 0,2 2,1 -1,1 0,1 0,2 -1,1 0,2 1,2 -2,0 -1,-2 -2,1 1,1 0,1 -1,1 -1,1 -1,1 -1,1 -1,1 0,2 0,1 -1,1 0,1 -1,1 1,2 0,2 -1,1 1,1 0,1 -1,1 -2,1 0,-2 0,-1"/>
    <path style="fill:none;stroke:#000000;stroke-width:1"
          d="m 132,59 -1,-2 1,-1 1,-1 -2,-1 1,-1 -1,-1 1,-1 -1,-1 0,-2 1,-1 1,2 1,-1 0,-2 0,-1 2,-1 0,-1 2,-1 0,-1 -2,-1 -1,1 -1,1 -1,1 -1,1 -1,1 -1,1 -1,1 0,1 -1,1 1,1 0,2 -1,1 -1,1 2,1 -1,1 -2,0 1,2 2,0 0,2 -2,1 -1,1 2,1 2,-1 1,2 -2,1 0,1 -2,0 1,3 2,-1 2,0 1,1 -2,1 -2,1 -1,2 0,2 0,2 0,2 2,0 2,1 1,-1 -1,-1 1,-1 -1,-1 -2,1 0,-2 0,-2 2,1 1,-1 -1,-1 2,-1 2,0 1,-1 -2,-1 -1,-2 -2,-1 1,-1 1,-1 0,-1 2,0 1,-1 1,-1 1,1 -1,2 -1,1 -1,1 1,1 0,1 2,1 1,-1 -1,-2 1,-2 1,2 1,-1 0,-2 -1,-1 0,-2 -2,0 -2,-1 1,-1 0,-1 -1,-1 0,-2 0,-1 1,-1 2,0 0,2 -1,1 1,1 0,2 2,0 1,1 0,2 1,2 0,2 2,0 0,-2 -1,-2 0,-2 1,-2 2,-1 -1,-2 -1,1 -2,0 0,2 -2,-1 0,-2 0,-1 2,0 1,-1 2,0 0,-1 -1,-1 1,-1 -2,-1 -2,-1 0,2 0,1 -1,1 -2,-1 0,-1 -2,1 0,-2 1,-1 2,0 -1,-2 2,0 1,-1 1,-1 1,2 0,1 2,1 1,-1 -1,-2 0,-1 0,-2 1,-1 -2,-1 1,-1 0,-2 0,-2 2,0 -1,-2 1,-1 -1,-1 0,-1 -2,1 0,-2 0,-3 1,-2 3,1 0,-2 0,-1 1,-2 -1,-1 0,-1 -2,-1 2,-1 1,-1 1,2 2,1 -1,1 0,2 -1,1 0,2 0,1 2,-1 0,-1 1,-2 2,-1 -1,-2 1,-1 2,-1 0,1 0,2 2,1 0,1 -2,1 -2,0 0,2 0,1 -2,1 -1,1 -2,0 -2,0 0,2 1,2 1,-2 2,0 1,1 1,-2 1,2 2,-1 -1,-2 2,-1 0,-2 2,-1 1,1 -1,2 0,2 0,2 -1,1 1,1 0,2 -2,0 0,2 -1,2 0,1 -2,1 -1,-2 -1,-1 2,-1 1,-2 1,-2 -2,0 -1,2 -1,1 -1,-2 1,-1 -2,-1 -1,2 -1,1 0,1 2,0 0,2 -2,0 -2,0 0,2 1,2 1,-2 1,1 2,-1 1,1 -1,1 2,1 -2,1 0,2 -2,0 0,-1 0,-2 -2,1 -1,1 1,2 0,1 2,1 1,-1 1,2 1,2 1,-2 1,1 0,2 -1,1 1,1 -1,1 1,1 -1,1 -2,-1 -2,0 0,-2 2,0 -1,-2 -2,0 1,-1 0,-1 -2,-1 -1,1 0,2 1,2 -1,1 1,2 0,2 -2,0 -1,1 0,2 1,2 1,-2 1,-1 2,0 0,-2 0,-1 2,0 2,1 -1,1 -1,1 -1,2 -2,0 -1,1 2,1 2,0 1,-2 1,-1 1,2 0,1 -2,1 -1,1 2,1 -1,1 0,2 -2,0 -1,1 0,1 -2,0 -1,-2 0,-1 2,0 2,-1 -2,-1 1,-1 -2,-1 -1,2 -1,-2 -1,2 -2,0 -1,1 -2,0 -1,2 2,0 0,2 -2,0 -2,-1 0,1 0,2 -1,1 -1,-2 -2,0 -1,2 2,0 0,2 0,1 -1,1 2,0 1,-2 2,-1 2,0 -1,-2 2,0 1,2 1,-2 0,-2 0,-2 1,-1 1,2 0,1 1,1 -1,1 -1,2 2,0 2,0 0,-1 1,-1 1,2 2,0 -1,-2 1,-1 1,-1 2,0 2,-1 -2,-1 1,-1 1,-1 0,-1 -1,-1 1,-1 1,-1 -1,-2 0,-1 -1,-1 2,-1 -2,-1 1,-1 1,-1 0,-1 -1,-2 1,-1 1,-1 -2,-1 1,-1 -1,-1 2,-1 1,-1 1,-1 -1,-1 -2,0"/>
    <path style="fill:none;stroke:#000000;stroke-width:1"
          d="m 160,44 -1,1 0,1 -2,0 -2,0 1,-2 0,-1 2,0 0,-2 1,-1 1,2 2,0 0,-1 -1,-1 1,-1 1,-1 -2,-1 2,-1 2,-1 1,2 -1,1 1,1 -2,1 1,1 0,1 -1,1 1,1 0,2 2,0 0,-2 2,1 0,2 2,0 1,2 0,1 0,2 -2,-1 0,2 0,1 -1,2 -1,-2 -2,0 1,-2 1,-1 1,-2 -2,-1 -1,2 -1,-2 -1,-1 -1,1 -1,1 2,1 -1,1 2,1 -1,1 -2,0 0,1 0,1 2,0 0,2 -2,0 0,1 1,1 -1,1 -1,1 1,2 0,1 1,1 -1,1 -1,1 1,2 -1,1 1,1 0,1 -1,1 -2,1 0,-1 -2,1 -1,1 0,1 2,0 2,0 1,-1 1,1 2,0 0,-1 -1,-1 2,-1 -1,-1 0,-2 1,-1 -2,-1 1,-1 1,-2 -1,-2 0,-1 0,-1 1,-2 1,-1 0,-2 1,1 1,2 3,0 -1,-1 1,-1 1,-2 1,-1 1,-2 1,-1 1,2 -1,1 0,2 -2,1 1,2 2,-1 1,1 0,-2 2,0 1,2 1,-2 0,-2 -2,0 -2,0 1,-2 2,-1 -3,-1 0,-1 1,-1 -1,-1 1,-1 0,-2 2,-1 1,-1 1,-2 0,-3 2,1 0,-3 1,-2 1,-2 1,-3 0,-2 2,-2 2,-1 2,1 -2,2 -1,2 3,0 0,3 -2,1 -2,-1 -1,3 -1,2 1,3 2,-1 1,-2 2,-1 2,-1 1,2 -1,2 -1,1 -1,2 -1,3 -1,2 -1,2 -3,-1 1,-3 1,-3 -3,0 -1,2 -1,2 -3,1 0,3 3,-1 2,3 2,-1 3,2 2,-2 2,-1 3,1 3,-1 0,3 -2,2 -3,-2 -1,1 1,2 0,3 -1,1 0,3 5,1 1,-2 3,1 3,0 1,-2 1,-2 -3,-1 -2,2 -4,-1 2,-2 2,-2 1,-2 -1,-3 1,-2 3,0 1,-1 -4,-2 3,-1 0,-3 0,-3 1,-3 -1,-3 -2,1 0,2 -1,3 0,3 -2,-1 -1,2 0,3 -1,2 -3,0 -3,1 0,-2 0,-2 1,-1 3,1 -1,-3 1,-2 2,-2 2,-2 -2,-1 2,-2 -1,-3 3,0 0,-2 1,-2 2,4 1,-2 0,-2 0,-2 2,-2 1,-3 1,-2 1,-1 1,-3 2,1 0,2 0,2 -2,2 0,2 -1,1 0,2 -2,1 2,2 -1,2 -1,1 -1,2 1,3 2,-2 2,-1 1,3 -1,2 -2,1 -3,0 0,3 0,3 2,2 1,3 -1,1 -3,1 -2,1 0,3 3,-1 0,3 2,3 -1,2 -1,2 -1,2 -3,1 -4,0 -3,2 1,4 4,-1 4,0 2,-3 3,-1 1,-3 1,-2 0,-3 -1,-3 -1,-3 1,-1 3,-1 0,3 1,3 3,-2 0,-3 1,-2 3,-1 2,-1 0,2 -1,2 -1,1 -1,2 1,3 -3,0 -1,1 -3,1 1,3 -1,2 -1,2 1,3 -3,0 -1,2 -2,2 -3,2 -2,4 -3,-5 -3,2 -2,3 0,4 5,-2 0,4 -2,2 -1,3 0,4 -2,3 0,4 5,-2 2,-3 0,-4 4,1 -1,-5 0,-4 3,-2 1,-4 3,-1 1,-4 3,-1 2,1 -1,2 1,2 -1,2 0,3 1,-1 2,-1 1,-1 0,-2 -1,-2 2,-1 1,2 1,1 -1,2 1,2 -1,1 -2,1 1,2 -1,1 1,1 -2,1 0,3 1,2 0,1 -1,2 2,0 2,0 0,-2 -1,-2 -1,-2 1,-1 2,0 -1,-2 1,-2 -1,-1 2,-1 1,2 -1,2 1,2 0,2 -2,0 1,2 1,2 -1,1 -1,2 -2,0 -2,1 0,1 0,2 0,2 -3,-1 -1,-2 1,-2 -1,-1 0,-2 0,-2 0,-2 0,-1 0,-2 0,-2 1,-2 -1,-1 -4,0 -2,3 -1,3"/>
    <path style="fill:none;stroke:#000000;stroke-width:1"
          d="m 215,92 1,5 0,4 -3,0 -1,4 -2,2 -5,0 -3,1 0,4 -2,4 3,4 3,-1 2,-4 3,-3 5,-1 2,-3 4,-2 0,2 1,1 0,2 0,2 -1,1 1,2 -1,2 1,1 0,2 -1,1 1,2 -1,2 1,1 0,2 -1,2 1,2 -1,2 1,2 2,-1 2,0 2,-1 0,1 -1,2 -1,1 -1,1 0,2 0,2 0,2 -2,1 -1,-1 1,-2 -1,-2 -1,-2 0,-1 -4,1 -1,4 -4,0 -2,-5 3,-4 3,-2 0,-5 1,-4 -2,-7 -3,2 -1,5 0,5 -3,4 -4,-3 2,-4 -5,-2 -2,5 2,4 -1,4 5,0 -1,5 4,2 -3,7 3,0 4,1"/>
  </g>
</svg>
