<?xml version="1.0" encoding="UTF-8" standalone="no"?>
<!-- Created with the Eggbot TSP art toolkit (http://egg-bot.com) -->

<svg xmlns="http://www.w3.org/2000/svg"
     xmlns:inkscape="http://www.inkscape.org/namespaces/inkscape"
     xmlns:sodipodi="http://sodipodi.sourceforge.net/DTD/sodipodi-0.dtd"
     xmlns:rdf="http://www.w3.org/1999/02/22-rdf-syntax-ns#"
     xmlns:dc="http://purl.org/dc/elements/1.1/"
     xmlns:cc="http://creativecommons.org/ns#"
     height="800"
     width="3200">
  <sodipodi:namedview
            showgrid="false"
            showborder="true"
            inkscape:showpageshadow="false"/>
  <metadata>
    <rdf:RDF>
      <cc:Work rdf:about="">
        <dc:format>image/svg+xml</dc:format>
        <dc:type rdf:resource="http://purl.org/dc/dcmitype/StillImage" />
        <dc:subject>
          <rdf:Bag>
            <rdf:li>Egg-Bot</rdf:li>
            <rdf:li>Eggbot</rdf:li>
            <rdf:li>TSP</rdf:li>
            <rdf:li>TSP art</rdf:li>
          </rdf:Bag>
        </dc:subject>
        <dc:description>TSP art created with the Eggbot TSP art toolkit (http://egg-bot.com)</dc:description>
      </cc:Work>
    </rdf:RDF>
  </metadata>
  <g      transform="translate(1358, 657) scale(1, -1)">
    <path style="fill:none;stroke:#000000;stroke-width:1"
          d="m 5,500 5,0 5,0 5,0 5,0 5,0 5,0 5,0 5,0 5,0 5,0 5,0 5,0 5,0 5,0 5,0 5,0 5,0 5,0 5,0 5,0 5,0 5,0 5,0 5,0 5,0 5,0 5,0 5,0 5,0 5,0 5,0 5,0 5,0 5,0 5,0 5,0 5,0 5,0 5,0 5,0 5,0 5,0 5,0 5,0 5,0 5,0 5,0 5,0 5,0 5,0 5,0 5,0 5,0 5,0 5,0 5,0 5,0 5,0 5,0 5,0 5,0 5,0 5,0 5,0 5,0 5,0 5,0 5,0 5,0 5,0 5,0 5,0 5,0 5,0 5,0 5,0 5,0 5,0 5,0 5,0 5,0 5,0 5,0 5,0 5,0 5,0 5,0 5,0 5,0 5,0 5,0 5,0 5,-1 2,-6 0,-7 -7,-2 -1,6 -5,0 -5,0 -6,0 -5,0 -5,0 -5,0 -5,0 -5,0 -5,0 -5,0 -5,0 -5,0 -5,0 -5,0 -5,0 -5,0 -5,0 -5,0 -5,0 -5,0 -5,0 -5,0 -5,0 -5,0 -5,0 -5,0 -5,0 -5,0 -5,0 -5,0 -5,0 -5,0 -5,0 -5,0 -5,0 -5,0 -5,0 -5,0 -5,0 -5,0 -5,0 -5,0 -5,0 -5,0 -5,0 -5,0 -5,0 -5,0 -5,0 -5,0 -5,0 -5,0 -5,0 -5,0 -5,0 -5,0 -5,0 -5,0 -5,0 -5,0 -5,0 -5,0 -5,0 -5,0 -5,0 1,-10 6,0 6,0 8,0 6,0 6,0 8,0 6,0 6,0 8,0 6,0 6,0 8,0 6,0 6,0 8,0 6,0 6,0 8,0 6,0 6,0 8,0 6,0 6,0 8,0 6,0 6,0 8,0 6,0 6,0 8,0 6,0 6,0 8,0 6,0 6,0 8,0 6,0 6,0 8,0 6,0 6,0 8,0 6,0 6,0 6,0 5,0 7,1 5,-1 3,-1 6,-3 6,2 3,-1 0,-8 0,-7 -1,-7 1,-6 1,-7 -7,-3 -1,7 -5,1 -1,-10 -6,4 -1,5 -4,3 -6,0 -6,2 -4,1 -4,3 -8,-4 3,-5 4,-4 6,0 1,-5 7,4 3,-2 2,-6 6,1 2,-6 6,2 5,1 6,2 1,-6 0,-7 -9,2 3,-4 5,-6 1,-6 -1,-7 -6,3 -1,7 -5,-1 -2,5 -1,7 -6,-1 -4,-1 -1,6 -5,4 -5,2 -7,-2 -2,6 -6,1 0,-10 5,-5 7,1 5,-2 2,-5 3,-7 7,3 1,-6 2,-5 5,0 5,-5 3,-4 7,3 0,-7 0,-9 -3,1 -5,4 -5,0 -4,2 0,7 -7,-6 -2,5 -3,4 -1,6 -7,-2 0,7 -3,5 -4,3 -8,-1 2,-6 4,-4 2,-5 -8,-4 2,-6 6,2 7,2 3,-6 3,-5 0,-7 5,-4 2,8 5,-4 1,-6 5,-2 2,8 4,-6 7,2 0,-7 -6,-2 -7,-3 -7,-2 -2,3 -4,4 -5,-2 -3,5 -5,0 1,8 -2,5 -3,4 -7,-3 1,-7 3,-3 1,-6 -7,-4 5,-5 7,2 4,-5 6,1 2,-6 8,1 2,-7 3,-3 7,0 0,7 -6,5 6,2 7,3 1,-6 -1,-7 1,-6 0,-7 -8,2 -6,-1 -6,0 -5,-1 0,7 -2,5 -6,-2 -3,5 -7,-1 -1,6 -8,-2 2,-6 3,-7 6,2 2,-6 6,1 2,-6 2,-7 7,3 5,0 3,-3 4,-2 3,9 5,-4 2,-3 1,-8 -8,0 1,-6 4,-3 3,-4 -1,-9 -6,2 -3,4 -4,5 -1,7 -3,2 -6,-3 -1,6 -5,0 -6,-1 -2,6 -2,5 -5,0 -3,5 -6,0 1,-10 5,-4 4,-4 -8,-4 4,-4 7,2 5,-1 5,0 2,-6 7,2 2,-6 3,-3"/>
    <path style="fill:none;stroke:#000000;stroke-width:1"
          d="m 456,287 3,-5 5,-1 4,-3 4,1 0,-8 0,-7 -6,-1 -3,5 -4,3 -4,1 -3,6 -5,2 -1,7 -7,-3 -2,6 -5,1 -6,1 -6,-2 0,-9 6,2 5,-2 4,-5 7,2 2,-8 4,-2 5,-6 6,-3 4,-5 7,2 3,-4 -1,-9 -4,-1 -3,5 -5,-1 -5,4 -3,5 -6,5 -7,0 -2,7 -3,1 -6,4 -4,2 3,-10 -6,0 0,-10 5,2 6,1 6,-4 6,-1 2,-5 2,-5 5,0 -1,-8 7,3 2,-5 3,-1 8,4 1,-7 -6,-2 4,-7 1,-6 0,-7 -6,-2 -2,6 0,7 -6,-3 0,7 -5,-1 0,7 -7,-1 -2,6 -4,3 -1,7 -4,3 -4,2 -4,1 -7,-5 2,-7 4,1 5,-2 2,-4 4,-5 1,-6 7,-1 0,-7 4,-1 3,-5 4,-1 3,-4 5,-6 7,3 1,-6 -1,-7 1,-6 0,-7 1,-12 -3,4 -5,4 0,7 -2,6 1,7 -6,-2 -1,7 -5,1 -5,2 -3,6 -6,-2 -5,-2 -3,5 8,4 -1,6 -6,-1 -1,6 -2,5 -6,3 -1,-7 1,-6 2,-6 -1,-8 3,-5 3,-6 4,-1 4,-3 3,9 4,-6 4,-3 4,-2 3,-6 3,-5 0,-7 4,-5 3,-4 3,-5 4,1 0,-8 0,-8 0,-7 -6,4 -1,7 -5,-1 1,8 -4,4 -3,5 -3,4 -6,-2 0,-8 4,-3 4,-5 0,-6 5,-6 -7,-2 1,-7 6,2 6,2 5,-4 3,-1 0,-8 -11,4 -9,-3 -7,5 -2,4 -5,-3 -4,3 -4,2 -1,-12 -4,2 -3,4 -2,8 7,2 -3,6 1,7 -2,7 6,2 3,-6 0,-7 3,-4 4,-3 6,0 1,8 -5,2 -2,7 -1,7 -2,3 -6,2 -6,-2 -4,2 4,9 5,-1 6,1 4,-2 6,0 6,2 -4,6 -5,2 -3,3 -7,-3 -4,2 -6,-2 1,9 -4,3 -53,-3 -7,-2 -5,0 -6,3 -5,2 -2,6 -7,2 0,-6 3,-5 -1,-8 5,1 5,0 4,-4 2,-6 7,0 -1,7 7,1 0,-7 0,-7 -10,-2 -5,0 -5,4 -3,4 -5,0 -6,-2 -2,7 -7,-3 2,-6 -7,-3 -4,3 3,8 -4,5 0,9 7,-4 4,-4 6,2 -2,7 -1,6 -7,-4 -3,6 -3,5 -1,6 8,-1 2,-7 7,3 -2,7 -5,5 -4,3 -3,1 -2,6 0,8 7,-1 2,-4 4,-4 3,-5 4,-7 4,-5 5,-1 5,0 3,-4 0,-6 6,-3 9,1 -2,3 -5,4 7,4 1,8 -8,-5 -3,4 -4,4 -3,1 -7,-2 -2,7 -3,1 -2,6 -4,4 -3,5 -6,2 -3,4 -5,-1 0,10 5,0 -2,8 7,2 -1,7 -6,-1 -5,3 8,5 -3,4 -4,8 8,1 -2,3 -2,6 -3,5 3,8 5,-4 2,-5 5,-1 -1,-8 5,0 7,0 2,-6 -6,-7 -2,6 -8,-2 1,-6 3,-5 3,-2 6,2 1,-7 4,-1 7,-2 0,-7 -6,1 -5,-1 -6,0 -1,7 -7,-6 0,-6 3,-4 5,0 2,-5 2,-5 4,-5 5,0 0,-8 5,1 6,0 2,-5 4,-4 3,9 -2,6 -7,2 -5,2 -3,6 -5,1 -2,6 8,1 6,-3 3,-4 6,-4 0,7 0,7 -7,2 -1,6 7,-2 2,8 -2,5 -7,-4 -5,4 -3,4 -4,1 -2,6 8,2 -1,7 -3,4 -2,6 -1,5 -7,-5 -2,4 -5,4 -1,7 -5,0 -3,5 -5,-1 -4,5 7,4 7,3 3,-1 1,-6 6,0 0,-7 3,-4 5,0 6,2 2,-7 2,-6 3,-2 0,-7 1,-6 -1,-7 3,-4 6,2 -1,7 0,7 0,7 0,7 0,7 -5,-2 -3,5 8,4 0,7 -6,-2 -7,-2 -7,-2 -2,6 8,3 -1,6 -5,0 -7,-4 -1,5"/>
    <path style="fill:none;stroke:#000000;stroke-width:1"
          d="m 337,336 -4,3 -7,-2 -7,-2 -3,2 -4,-1 4,9 7,0 5,0 7,2 6,-2 5,-1 6,1 5,-1 1,-6 0,-7 7,2 0,7 0,7 1,8 -6,-2 -6,0 -6,0 -5,1 -5,2 0,7 -4,7 -7,-2 -4,2 -2,8 5,1 6,-2 7,1 1,-6 5,-4 1,-6 7,-1 7,0 6,2 0,8 -6,-2 -7,-1 0,7 -6,1 0,7 -7,2 -7,-1 -6,3 -7,-2 -6,-1 -3,5 -6,4 -3,1 10,2 7,-2 5,0 6,3 5,-3 4,1 5,0 5,-1 3,-1 2,-7 4,-2 2,-7 6,2 0,8 -2,4 -5,4 8,4 -3,5 -5,0 -5,0 -5,0 -6,0 -6,-1 -7,1 -6,-1 -5,0 -6,1 -6,-1 -5,0 -5,0 -4,1 -6,-1 -5,0 -5,0 -4,1 -6,-1 -5,0 -5,0 -4,1 -6,-1 -5,0 -5,0 -4,1 -6,-1 -5,0 -5,0 -4,1 -6,-1 -5,0 -5,0 -4,1 -6,-1 -5,0 -5,0 -4,1 -6,-1 -5,0 -5,0 -4,1 -6,-1 -5,0 -5,0 -4,1 -6,-1 -5,0 -5,0 -5,0 0,-10 5,0 6,1 4,-1 5,0 5,0 6,1 4,-1 5,0 5,0 6,1 4,-1 5,0 5,0 6,1 4,-1 5,0 5,0 6,1 4,-1 5,0 5,0 6,1 4,-1 5,0 5,0 6,1 4,-1 5,0 5,0 6,1 4,-1 5,0 5,0 6,1 0,-7 5,-2 2,8 6,0 -3,-9 4,-2 6,2 3,-4 2,-6 5,2 3,-7 -6,-2 2,-7 6,1 7,-1 6,1 1,-7 -8,-2 -6,1 -7,-1 -6,5 -2,7 -2,7 -4,3 -7,-1 -4,2 -5,2 -4,3 -3,4 -6,-1 -6,0 -8,1 3,-4 4,-6 7,1 4,-4 4,-3 5,-2 5,-2 6,1 4,-3 2,-7 -9,-1 -4,2 -7,0 -4,2 -4,2 -4,3 -3,4 -5,-1 -7,-3 2,8 -4,2 -3,1 -5,0 7,9 -6,0 -5,-3 -3,4 -6,-1 -6,0 -5,-3 -3,4 -6,-1 -6,0 -8,1 3,-4 4,-6 5,0 3,-1 4,-2 2,-6 6,-2 6,-1 -6,12 5,0 3,-1 4,-2 2,-6 6,-2 3,-2 2,-7 6,2 5,0 5,-2 2,-5 -10,-2 2,-5 5,-2 2,-6 -1,-9 -6,3 -2,5 -6,1 -1,6 -1,6 -7,3 -3,3 -3,5 -7,-2 0,-7 3,-3 3,-5 7,2 0,-7 2,-5 5,-4 3,-4 6,-2 7,-3 -5,-3 3,-6 3,-4 -2,-9 0,-7 1,-6 -2,-8 2,-5 -1,-8 -6,1 -2,6 -5,1 -4,-1 -4,3 -6,2 -6,-2 4,-6 4,-4 5,-4 6,2 4,-5 4,-2 6,2 -1,-8 1,-6 -1,-7 1,-6 0,-8 -6,-2 -2,5 -7,-1 -2,3 -5,5 -2,5 -6,-1 -2,-9 2,-3 6,0 1,-8 4,-3 5,3 2,-6 6,2 6,2 0,-8 -6,-2 6,-6 -6,-2 6,-6 -6,-2 6,-6 -6,-2 -7,-2 1,-7 5,0 6,3 0,-7 -8,-5 -8,0 -5,0 3,8 -3,5 -5,4 0,7 -6,2 -6,-2 4,-6 1,-6 5,-3 2,-5 -9,-1 -5,0 -6,-2 5,8 -1,6 -4,4 4,9 -3,9 4,-1 6,2 2,-5 7,4 2,-5 5,-4 1,-6 6,1 1,8 -1,7 -3,1 -4,3 -7,2 -3,3 -1,6 -6,0 -1,-8 -6,1 -3,4 6,7 -4,5 -2,5 10,-1 -1,6 -3,4 -4,3 -2,6 2,12 4,-4 2,-7 5,-2 3,-4 8,2 7,-3 1,-6 7,-3 0,7 0,7 -7,2 -3,5 -7,-3 -2,6 -5,-1 -2,5 -3,5 -4,3 -6,0 2,10 5,-1 6,3 -2,7 -5,0 -5,3 -1,7 2,10 4,-5 3,-5 4,-1 4,-6"/>
    <path style="fill:none;stroke:#000000;stroke-width:1"
          d="m 231,287 3,-6 7,-2 6,-2 7,-1 0,7 -6,2 -7,1 -3,5 -3,5 -2,6 -5,1 -4,4 -6,4 -4,8 1,9 6,0 1,-6 3,-1 2,-5 5,-2 3,-3 5,-4 2,-5 3,-5 3,-4 7,-1 0,7 -3,5 -3,4 -1,6 -6,1 -3,6 -5,2 -2,6 -3,3 -5,4 -4,3 -5,-1 -2,9 6,0 0,8 -6,2 -7,-2 1,7 -6,1 -2,-8 -6,2 2,8 -2,6 -4,2 -3,1 -5,0 7,9 -6,0 -5,-3 -3,4 -6,-1 -6,0 -8,1 3,-4 4,-6 5,0 3,-1 4,-2 2,-6 6,-2 6,-1 -1,-7 -7,0 -6,2 -7,-2 1,7 -6,1 -2,-8 -6,2 2,8 -2,6 -4,2 -3,1 -5,0 7,9 -6,0 -5,-3 -3,4 -6,-1 -6,0 -5,-3 -3,4 -4,-8 4,-6 7,4 5,0 3,-1 4,-2 2,-6 6,-2 6,-1 -1,-7 -7,0 -6,2 -6,4 -4,1 -5,2 -7,-2 3,-7 -5,-8 4,-4 -2,-9 6,3 7,-1 4,-1 -3,9 -5,2 -2,6 8,1 5,-4 2,-4 6,2 6,0 6,2 4,-3 5,1 2,-4 1,-7 -6,-6 -3,5 -3,1 -4,3 -7,-1 -5,0 6,-7 2,-4 6,-2 4,-4 8,5 2,-6 -7,-3 -1,-8 6,2 0,-7 1,-6 -7,-2 -3,4 -4,4 0,7 -3,5 -4,3 -6,0 -3,1 2,8 -5,0 -7,-3 -5,4 -7,-4 5,-4 1,-6 7,3 1,-5 2,-5 7,2 4,-1 4,-3 -1,-7 4,-4 3,-4 6,-3 7,2 2,-5 -1,-8 -7,-2 0,6 -7,-2 -2,4 -6,1 -2,6 -5,0 1,8 -4,2 -5,0 -6,2 -2,5 -7,3 0,-9 2,-6 5,-1 3,-4 5,0 1,-7 4,-2 4,-3 4,-3 2,-5 7,1 7,-4 7,3 1,-5 1,-7 -1,-9 0,-8 -6,5 -1,6 0,7 -5,0 -4,5 -6,-1 4,-7 -7,-2 -4,5 -1,6 -3,4 -5,3 -5,2 0,7 -7,3 0,-7 -1,-8 6,-4 5,-2 3,-5 4,-7 -5,0 -7,4 -6,4 -1,-8 6,-3 2,-6 2,-5 -9,2 2,-7 0,-7 -2,-8 3,-5 7,2 5,0 2,-6 -7,-3 -8,-1 1,-6 -1,-8 2,-3 -2,-9 6,3 5,-1 4,-1 6,1 5,1 1,-7 7,0 0,7 -1,6 -7,2 -6,-1 -7,0 -4,3 -1,7 7,1 4,-3 7,0 -1,6 -4,5 0,7 2,8 -5,1 -6,0 -6,-2 1,8 8,2 -1,5 0,7 7,3 1,-6 0,-7 4,-2 4,-5 7,3 -3,5 -5,5 0,8 6,2 1,-7 6,-4 2,-6 5,1 0,-8 0,-7 -6,-2 -1,7 -7,-2 1,-7 -8,3 0,-7 5,-4 0,-6 1,-6 7,-1 0,7 0,7 7,3 1,-6 -1,-7 1,-6 0,-7 -8,2 1,-6 5,-4 3,-4 -10,0 2,-6 6,-3 -7,-5 -5,4 -4,4 -5,1 -7,-2 -1,6 -6,-2 -5,0 -5,2 -4,-8 5,-3 7,0 11,-2 -3,-23 5,-1 3,-4 5,3 6,2 6,0 5,-1 5,-1 5,0 5,0 6,1 6,0 5,-1 5,0 7,0 7,1 5,0 7,-1 -7,-6 6,-4 5,-1 3,-6 5,0 7,2 5,-1 4,-3 7,1 5,-1 5,-1 7,2 6,1 7,2 3,-5 2,-5 4,-3 5,-1 5,2 4,-4 3,-4 0,-8 5,-2 3,-3 3,-5 3,-4 7,2 5,-2 3,-3 5,-3 2,-5 7,-6 0,7 0,7 -1,6 -5,0 -4,4 -5,2 -8,-1 -3,5 -2,4 -6,3 -4,4 1,7 -5,3 -3,5 -6,-1 -5,0 -3,5 -2,5 -5,3 -6,-2 -5,0 -6,-2 -5,0 -4,2 -5,0 -4,-1 -4,3 -5,0 -7,-2"/>
    <path style="fill:none;stroke:#000000;stroke-width:1"
          d="m 241,125 -6,0 -6,7 5,0 7,1 6,2 6,1 6,-1 5,-1 6,0 5,-1 5,0 6,1 6,0 7,-1 6,1 3,-1 -2,-9 5,0 5,1 4,-5 4,-3 4,-3 6,0 8,5 -6,3 -4,2 -4,3 -5,2 -6,4 -2,3 9,1 6,-2 6,-2 5,-1 3,-4 6,6 5,0 5,0 3,-1 3,-5 -1,-9 -5,0 -3,4 -8,1 0,-6 4,-4 0,-7 6,2 6,2 0,-8 0,-7 -6,5 -8,-2 -6,3 0,7 -3,2 -5,-1 -9,-5 3,-4 6,-2 3,-5 4,-1 7,-1 5,1 2,-5 6,1 1,-6 0,-7 0,-7 0,-7 0,-7 0,-7 0,-7 -7,3 0,7 -6,-1 -1,7 -7,1 -2,6 -5,1 -4,4 -5,-1 -6,1 -3,4 -3,5 -5,2 -2,6 -3,4 -1,6 -8,-1 0,-7 -6,4 -1,6 -3,6 -3,5 -7,-2 -5,-1 6,-6 3,-4 3,-5 -1,-8 6,1 5,-4 6,3 3,-5 2,-6 4,-2 3,-3 3,-5 5,-2 3,-3 6,2 5,-3 3,-4 7,-1 -1,-7 5,-2 3,-3 5,-3 3,-3 6,1 -2,-8 3,-3 -4,-9 4,-2 -2,-9 -6,1 -4,4 -6,0 -7,-3 1,8 -5,-1 -5,4 -5,0 -1,6 8,2 5,-3 6,0 4,-6 8,1 -1,7 -4,2 -4,5 -5,0 -2,5 -7,-4 -6,0 -5,-1 -3,4 1,7 7,-2 7,-1 0,6 -6,3 -4,3 -7,-3 -3,2 -3,3 -4,2 -2,5 -6,-2 0,6 -3,6 -2,4 -8,-4 0,7 -7,-2 -4,5 1,8 -4,3 -2,6 -5,2 -2,6 -5,1 -5,0 -4,1 -6,1 -4,2 -5,-1 -5,-2 -5,0 -1,7 -6,1 -2,6 -6,-1 -1,6 -5,0 -5,0 -7,-1 -7,1 -5,0 -7,-4 -2,3 -6,-1 -7,1 -5,2 -6,0 -8,-4 5,-4 0,-7 1,-6 3,-5 3,-3 6,-2 5,-1 3,-4 5,-2 4,-2 2,-6 3,-4 7,0 5,-2 4,-5 1,-7 4,-1 5,-3 7,1 5,0 4,-2 5,-1 4,-4 3,-4 -11,-1 2,-5 6,-2 5,0 2,-6 5,-2 6,0 7,0 3,-1 2,-5 1,-7 2,-5 8,-1 6,1 0,7 -7,-1 -2,6 -1,6 -1,6 -5,3 -4,1 -5,1 -4,-1 -5,1 -3,5 1,8 -4,3 -3,4 -3,3 -5,0 -4,3 -4,1 -6,-2 -5,0 -5,3 -2,6 -5,5 -6,3 -3,1 -4,3 -2,6 -2,4 -6,-2 -1,5 -7,0 -4,3 -4,2 -4,3 -1,7 7,0 5,-3 5,-2 4,-2 7,-1 -1,7 7,1 6,0 6,-2 5,0 4,-5 5,0 6,-4 1,-7 4,-3 6,0 6,2 5,0 5,-1 4,-3 6,1 5,0 4,-6 3,-4 3,-5 -8,-3 1,-6 7,2 4,-3 5,-4 3,-5 7,2 4,-3 2,-6 5,-5 4,-4 4,-4 6,-4 -7,-3 6,-4 3,-5 3,-5 1,-6 2,-6 8,-1 2,-5 -9,0 -8,3 -3,3 0,7 -3,6 -4,5 -5,4 0,7 -5,4 -2,-8 -5,2 -4,5 -2,6 8,-2 -1,8 -6,2 -6,-2 -3,4 -2,6 -5,-2 -3,4 -6,-2 -3,5 -1,6 -3,3 7,6 -3,4 -7,0 -1,-7 -6,4 -1,5 -5,0 -5,0 -7,-1 -4,-1 -4,3 -2,7 -2,6 -6,-8 -2,6 -3,5 -5,1 -5,3 -5,-1 3,-8 3,-4 5,0 2,-6 5,-4 5,1 1,-7 3,-3 6,0 7,2 5,-1 3,-3 6,0 3,-5 3,-4 3,-5 2,-4 0,-7 7,4 3,-3 6,0 3,-5 6,-3 1,-6 0,-7 5,1 4,-5 1,-6 6,-2 1,8 5,-5 5,-3 2,-7 0,-7 -7,3 -2,4 -5,-1 -7,2 -1,-7 -8,1"/>
    <path style="fill:none;stroke:#000000;stroke-width:1"
          d="m 274,6 -5,-2 -5,4 -6,-4 -3,5 -1,6 -2,5 -4,3 -4,1 -7,0 -5,2 -3,5 -5,0 -3,3 -5,3 -1,6 -1,5 -5,2 -6,0 -5,1 -5,1 -3,8 -2,6 -6,2 -5,0 -5,2 -3,5 -3,3 -4,3 -5,3 -4,2 -4,3 -6,1 -3,5 -2,6 -1,7 -1,6 -6,-2 2,8 -2,5 -5,5 -3,4 -5,0 -5,0 0,-10 5,0 6,-2 1,-7 -8,0 -4,-1 4,-6 7,-1 3,-5 4,1 1,-7 1,-6 3,-4 3,-5 5,0 5,-4 6,-2 5,-4 2,-5 3,-1 4,-4 5,-2 7,1 3,-4 2,-6 1,-6 4,-2 6,-1 6,1 4,-2 2,-5 3,-6 4,-3 4,-5 5,0 0,-7 6,3 5,-1 4,-2 4,-1 4,-3 -2,-8 -6,1 -6,1 -4,3 -6,-1 -6,-2 0,8 -6,-4 -5,0 -4,3 -6,-3 -3,4 -4,3 1,8 6,-2 5,-3 11,-1 -4,2 -4,7 -4,4 -4,2 -5,1 -5,1 -6,0 -2,5 0,7 -3,5 -7,-1 -4,2 -4,3 -5,0 -3,5 0,7 -5,2 -6,-3 0,7 -7,-1 -4,5 -4,3 0,8 -4,4 -4,5 -2,4 -7,1 -4,3 -5,2 -7,-1 -5,0 -5,1 -7,0 -7,0 -6,0 -5,0 -1,7 -6,-2 -8,-5 7,-3 2,-6 7,0 5,0 6,2 1,-5 7,4 4,-3 6,1 7,2 4,-2 4,-3 5,0 -1,-7 6,2 3,-4 3,-4 0,-8 4,-3 5,-2 5,-4 2,-6 6,0 4,1 2,-7 2,-6 7,-1 5,-3 3,-4 6,5 1,-6 1,-7 2,-6 4,1 5,0 0,-6 -1,-8 4,-6 -6,-2 -4,6 -2,5 -6,0 0,-9 -6,2 -4,3 -7,-5 -2,4 0,9 -9,0 2,-5 -1,-7 -7,-3 -1,6 -5,-1 -9,-6 0,6 -7,-1 -1,6 -1,13 4,-2 4,-3 1,-6 8,-1 -1,6 9,-2 -2,7 -5,4 -4,1 -4,3 -5,2 -1,6 -4,6 7,4 4,-3 1,-7 6,-2 6,0 1,-6 5,-5 5,1 3,-4 7,0 0,-7 5,1 6,1 0,8 -4,2 -7,2 -2,5 -4,2 -7,-3 0,7 -3,5 -5,1 -5,-1 -1,7 -3,4 -5,1 -4,3 -3,8 -2,4 -3,4 -7,-2 -1,7 -5,3 -4,2 -5,0 -7,-2 -4,2 -6,-2 -7,2 -1,-7 4,-4 6,1 5,-1 6,2 4,-1 5,-1 3,-3 1,-7 7,2 2,-5 5,-3 2,-7 -4,-1 -5,1 -3,1 -3,5 -5,-10 -2,6 -3,1 2,8 -4,3 -6,0 -7,0 -5,0 -5,0 -3,5 -6,-1 -5,3 -8,2 -4,3 -7,1 -2,5 -5,-1 -2,6 -6,-2 0,-8 5,-5 4,-3 6,1 3,-4 -1,-7 7,-1 2,8 5,-4 5,-3 5,0 6,-5 5,0 6,2 5,0 4,-2 -3,-9 -5,1 -5,0 -10,-1 -6,-2 2,8 -7,-1 -6,3 -1,-7 -6,2 -3,4 -7,-4 0,7 -1,6 -6,-1 -1,-9 2,-6 -9,-1 1,8 -4,4 -1,5 9,2 -2,6 -5,2 -1,6 -3,5 7,6 -2,6 10,0 -3,4 -5,4 -5,1 -1,9 7,0 5,-1 3,-4 4,-3 2,-6 3,-2 1,-6 6,-3 4,-2 5,-3 3,-5 8,-1 1,7 -4,3 -6,4 -3,5 -6,0 -2,5 -4,5 -1,7 -2,4 -4,2 -6,1 -7,0 -3,4 -2,7 -1,6 -2,4 7,7 -2,6 -5,5 6,9 1,-6 6,-2 0,-7 3,-4 0,-7 -7,-1 1,-7 3,-3 4,-3 3,9 4,-5 2,-3 4,-2 3,-4 6,1 3,-5 -8,-4 3,-5 5,2 6,3 7,2 0,8 -5,-1 -3,4 -7,3 -1,6 -5,-1 -1,6 -6,-1 -4,6 6,2 -5,6 -3,4"/>
    <path style="fill:none;stroke:#000000;stroke-width:1"
          d="m 23,163 -2,6 -5,3 0,7 -6,1 -6,0 5,8 -4,5 0,9 6,1 1,-7 3,-7 5,-2 3,-6 3,-4 3,-5 3,-4 1,-6 5,-1 0,-7 5,-3 5,0 1,-6 1,-6 7,-2 0,8 -1,7 1,8 -5,0 -6,0 -1,6 -3,5 -3,3 -4,5 -2,5 -4,4 -1,6 -4,3 -4,1 -2,7 6,2 6,-2 5,-1 2,-3 -1,-8 5,-3 1,-6 4,-2 3,-7 4,-5 4,-1 0,9 -1,7 -3,1 -4,5 8,3 -1,7 -5,-1 -7,-2 0,7 7,3 6,1 0,8 -7,-2 -6,-2 -6,0 -6,0 -4,3 0,7 -3,6 -3,6 -5,0 -4,1 4,-10 4,-5 0,-7 -7,-3 -7,0 -3,3 10,4 -4,5 -2,3 -3,5 2,8 -3,4 -2,16 5,-2 2,-5 4,-2 1,-6 7,2 4,-1 5,-1 0,-7 3,-5 2,-6 2,-5 7,0 7,2 6,2 0,8 -6,-2 -7,-3 -3,8 4,1 6,2 6,2 0,8 -6,-2 -6,-1 -7,-5 -1,6 -5,5 -5,3 -6,-1 -4,5 -2,5 -6,1 -3,6 -3,6 10,-2 4,-3 5,-3 3,-5 4,1 5,0 2,-5 4,-4 5,-2 6,2 6,1 0,7 -7,-1 -5,1 -3,5 -3,5 -5,1 -5,0 -4,4 -5,2 -5,3 -5,-2 -3,5 1,8 -2,6 0,11 4,-1 3,-6 6,2 3,-5 -7,-4 0,-7 7,3 3,-4 4,-2 4,-4 6,0 5,-1 6,1 -2,-8 3,-4 6,-1 0,7 0,7 1,8 -6,-1 -7,-1 -6,1 -4,3 -5,4 -2,6 0,7 -4,3 -7,-1 -2,7 -4,1 -6,-1 -3,10 6,1 4,-2 -3,9 -3,6 -3,4 10,-1 4,-3 0,-7 2,-6 4,-1 -1,-8 6,2 4,-3 2,-6 2,-7 1,-6 6,-2 6,2 2,-4 7,2 -1,7 -6,3 -7,-2 -1,7 -3,4 -1,7 -4,5 -5,2 -1,7 -4,1 -1,6 -1,6 -4,3 -7,-2 -2,3 -6,2 1,13 4,-3 3,-3 6,-2 6,2 4,-3 3,-3 2,-4 -1,-8 4,-6 4,-3 3,-4 3,-6 3,-6 1,-6 8,-2 -1,6 0,7 -5,5 -2,6 8,-3 -1,7 0,7 -6,-2 -4,-1 -5,3 -3,3 3,8 -3,4 -3,5 -4,3 -5,2 -7,-3 -4,4 -4,3 -8,2 5,3 -2,7 -3,6 10,-3 2,-6 5,-4 4,-3 9,2 -3,4 -3,5 -4,2 -3,4 -7,4 -3,1 0,7 -6,-3 -1,8 7,3 -2,5 -5,4 6,4 -1,6 -5,2 3,10 4,-3 5,-3 2,-6 6,-3 -7,-4 1,-6 0,-7 1,-6 2,-6 7,-1 4,-2 4,-3 2,-5 3,-5 2,-7 -5,-3 6,-4 4,-3 1,-6 0,-6 2,-4 7,2 -1,7 0,7 -1,5 -6,3 8,5 -2,5 -6,-1 -2,5 -2,5 -3,5 -2,5 -5,2 -4,3 -5,0 -1,6 -1,7 7,1 2,-5 5,-2 4,-3 6,1 0,-7 3,-5 3,-6 3,-3 0,12 -2,6 3,9 -4,2 -7,-1 -5,3 -3,4 -4,4 -5,0 -4,5 -4,4 -4,5 -4,4 -8,1 0,7 7,-2 8,0 5,1 0,-7 4,-4 3,-5 6,0 4,-4 4,-4 5,-3 5,1 -2,7 -4,4 -3,4 -3,4 -6,-1 -6,6 6,1 7,1 7,-2 6,1 -2,-8 8,2 1,7 7,-2 6,1 6,-6 1,7 7,-2 6,1 6,-6 1,7 7,-2 6,1 6,-6 1,7 7,-2 6,1 6,-6 1,7 7,-2 6,1 6,-6 1,7 7,-2 6,1 6,-6 1,7 7,-2 6,1 6,-6 1,7 7,-2 6,1 6,-6 1,7 7,-2 6,1 6,-6 1,7 7,-2 6,1 6,-6 1,7 7,-2 6,1"/>
    <path style="fill:none;stroke:#000000;stroke-width:1"
          d="m 280,462 6,-6 1,7 7,-2 6,1 6,-6 1,7 7,-2 6,1 6,-6 1,7 7,-2 6,1 6,-6 1,7 7,-2 6,1 6,-6 1,7 7,-2 6,1 7,1 4,-3 4,1 6,1 6,-4 2,7 6,-4 5,0 5,0 7,3 5,-2 4,1 3,-5 5,0 6,0 3,-3 7,0 0,8 -2,4 -6,0 -3,3 -5,-2 -4,4 -5,0 -8,-1 -5,0 -5,0 -5,0 -5,3 -7,-3 -5,0 -5,0 -3,3 -7,-3 -5,0 -5,0 -3,3 -7,-3 -5,0 -5,0 -3,3 -7,-3 -5,0 -5,0 -3,3 -7,-3 -5,0 -5,0 -3,3 -7,-3 -5,0 -5,0 -3,3 -7,-3 -5,0 -5,0 -3,3 -7,-3 -5,0 -5,0 -3,3 -7,-3 -5,0 -5,0 -3,3 -7,-3 -5,0 -5,0 -3,3 -7,-3 -5,0 -5,0 -3,3 -7,-3 -5,0 -5,0 -3,3 -7,-3 -5,0 -5,0 -3,3 -7,-3 -5,0 -5,0 -3,3 -7,-3 -5,0 -5,0 -3,3 -7,-3 -5,0 -5,0 -3,3 -7,-3 -5,0 -5,0 -3,3 -7,-3 -5,0 -5,0 -3,3 -7,-3 -5,0 -5,0 -3,3 -7,-3 -5,0 -5,0 -6,1 -7,-3 1,12 5,0 5,0 6,-1 6,0 6,0 8,0 6,0 6,0 8,0 6,0 6,0 8,0 6,0 6,0 8,0 6,0 6,0 8,0 6,0 6,0 2,10 -5,0 -5,0 -5,0 -5,0 -5,0 -5,0 -5,0 -5,0 -5,0 -5,0 -5,0 -5,0 -5,0 -5,0 -5,0 -5,0 -5,0 -5,0 -5,0 -5,0 -5,0 -5,0 -5,0 -6,0 -6,0 -1,10"/>
  </g>
</svg>
