<?xml version="1.0" encoding="UTF-8" standalone="no"?>
<!-- Created with the Eggbot TSP art toolkit (http://egg-bot.com) -->

<svg xmlns="http://www.w3.org/2000/svg"
     xmlns:inkscape="http://www.inkscape.org/namespaces/inkscape"
     xmlns:sodipodi="http://sodipodi.sourceforge.net/DTD/sodipodi-0.dtd"
     xmlns:rdf="http://www.w3.org/1999/02/22-rdf-syntax-ns#"
     xmlns:dc="http://purl.org/dc/elements/1.1/"
     xmlns:cc="http://creativecommons.org/ns#"
     height="800"
     width="3200">
  <sodipodi:namedview
            showgrid="false"
            showborder="true"
            inkscape:showpageshadow="false"/>
  <metadata>
    <rdf:RDF>
      <cc:Work rdf:about="">
        <dc:format>image/svg+xml</dc:format>
        <dc:type rdf:resource="http://purl.org/dc/dcmitype/StillImage" />
        <dc:subject>
          <rdf:Bag>
            <rdf:li>Egg-Bot</rdf:li>
            <rdf:li>Eggbot</rdf:li>
            <rdf:li>TSP</rdf:li>
            <rdf:li>TSP art</rdf:li>
          </rdf:Bag>
        </dc:subject>
        <dc:description>TSP art created with the Eggbot TSP art toolkit (http://egg-bot.com)</dc:description>
      </cc:Work>
    </rdf:RDF>
  </metadata>
  <g      transform="translate(1385, 615) scale(1, -1)">
    <path style="fill:none;stroke:#000000;stroke-width:1"
          d="m 310,383 -3,-3 0,-3 -3,1 -3,-1 -3,-2 1,-2 2,-1 1,3 2,-1 1,-2 1,-3 2,-1 1,3 3,0 0,-2 1,-1 2,-1 0,-2 1,-2 -3,0 -1,2 -2,1 -3,-2 -3,2 -2,1 1,3 -2,-1 -2,1 -1,-4 -1,2 -1,1 0,2 -1,2 -2,-2 -1,-4 -4,0 -5,-1 1,-3 -4,-1 -2,1 -3,1 4,3 -4,1 -3,2 -3,0 -2,1 -3,0 -3,1 -3,0 1,-4 -3,0 -2,2 -2,2 -4,0 -3,0 1,-3 3,0 1,-2 1,-2 2,1 3,-1 3,0 3,0 2,1 3,-1 3,0 1,-2 0,-3 3,0 4,-2 -3,-1 -3,0 1,-3 -4,0 1,-2 0,-3 4,-3 -5,-1 -2,2 0,3 -1,2 -1,3 0,3 3,-1 0,3 -2,2 -4,-2 -1,1 1,-4 -1,-3 -1,-3 3,0 0,-2 1,-2 -1,-3 3,0 2,-2 1,-2 4,-2 -5,-2 -3,2 -1,1 0,2 -3,0 -1,3 -1,1 1,3 -3,0 0,3 0,2 -2,2 3,1 -1,2 0,3 -3,1 -4,0 1,-2 2,-2 -1,-3 -2,1 -3,0 0,2 0,4 -2,1 1,3 -4,-1 -1,-3 -3,1 0,-3 2,-1 2,0 2,-1 -1,-2 1,-2 2,-1 2,0 2,-1 3,0 1,-2 0,-3 -2,1 -2,1 -2,1 -3,0 2,-3 2,-1 0,-2 -2,-2 2,-1 0,-2 1,-2 2,-1 2,-1 0,3 -1,2 -1,1 0,3 3,1 1,-2 1,-2 0,-2 1,-2 2,1 1,-2 3,-1 1,-1 1,-2 3,0 5,-1 2,-7 2,-5 4,-2 4,-5 5,-3 2,-6 1,-5 3,-2 3,-3 4,-1 3,-2 4,0 0,-6 0,-3 1,-1 2,-2 1,-3 3,-2 3,0 -1,-3 1,-2 -1,-4 -1,-4 -3,0 -3,2 4,2 0,3 -2,2 -3,-2 1,4 -2,2 0,3 -3,3 -3,1 3,2 -2,2 -3,-1 -1,3 -4,1 -3,3 -3,2 -3,1 0,3 -3,0 1,4 -3,2 -2,-4 1,-2 0,-4 -3,3 -1,3 1,3 -3,0 0,3 3,0 -2,4 -3,-1 0,3 0,3 -2,3 -2,1 0,3 -3,0 2,4 -3,-1 -1,2 1,3 -3,0 -1,1 -1,2 -1,2 -3,1 -3,-1 1,-2 2,-1 1,-2 1,-2 3,-1 -2,-2 2,-1 -1,-2 0,-2 3,2 1,-2 2,-1 0,-2 0,-2 3,0 -1,-2 2,-1 1,-2 -3,0 0,-2 1,-3 2,2 1,-2 0,-2 1,-2 1,-1 1,-2 0,-5 -3,3 -2,2 -1,2 0,2 -2,1 -1,2 -1,2 0,2 0,2 -1,2 -1,3 -1,2 -2,-1 -2,1 -2,2 1,2 -2,1 -1,2 2,1 -2,2 -1,2 -2,-1 0,3 -1,2 -2,-2 -2,1 1,3 -2,1 -3,1 2,2 -2,1 0,2 0,2 0,2 0,2 -2,0 0,2 -2,1 2,2 -2,1 0,3 -3,0 -2,2 0,2 -2,1 2,2 0,2 -3,1 -1,3 3,0 2,-1 3,-1 3,1 -1,2 -1,2 -2,-1 -3,1 -3,0 -3,0 -4,1 1,-2 1,-2 0,-2 2,-1 0,-2 2,-1 -1,-2 -3,-1 -1,2 -1,2 -2,-1 -1,2 1,3 -1,1 0,3 -3,0 -3,0 -3,0 1,-2 2,-1 0,-3 3,3 0,-3 0,-3 -2,-3 -1,3 -3,0 0,3 -2,-1 -3,1 3,3 -1,3 -2,-1 -3,0 -4,-2 -3,0 0,-3 2,-2 3,3 1,-2 1,-2 1,-2 3,1 2,-2 3,0 1,-3 2,-1 -1,-2 -3,0 -2,1 0,2 -3,1 -4,0 -2,3 -4,0 -2,2 -1,2 -1,3 -4,-1 1,-2 1,-3 -3,1 -2,2 -1,2 -5,0 1,-2 1,-1 2,-2 4,-2 3,-1 2,1 0,-3"/>
    <path style="fill:none;stroke:#000000;stroke-width:1"
          d="m 194,357 1,-3 0,-3 3,0 2,1 -2,2 -1,3 2,1 2,-2 2,-1 0,-3 2,-1 1,4 1,-1 1,-3 2,-2 0,3 3,-1 1,-1 -1,-3 3,1 2,-1 1,-2 4,2 -1,2 -2,1 -1,1 -1,2 2,1 2,2 -2,2 0,2 3,0 1,-2 3,-1 -2,-2 -2,-2 1,-1 1,-3 1,-2 1,-1 -4,-2 2,-1 1,-1 3,0 1,3 0,2 -1,2 0,2 -2,1 2,2 1,3 2,1 1,-3 2,-1 2,-1 0,-3 -2,1 -3,1 0,-3 2,-1 2,-1 2,1 1,-2 1,-2 1,-2 -3,1 -2,1 -3,1 -1,-2 0,-2 2,1 1,-2 -2,-1 2,-2 3,0 0,3 2,-1 1,-2 0,-2 0,-2 3,0 2,-1 -2,-2 1,-2 3,0 2,-1 -2,-3 2,0 3,0 -1,-2 2,-2 -2,-1 -3,1 1,-4 1,-2 1,-3 1,-2 2,1 1,2 -2,2 0,3 2,-1 2,-2 2,-1 1,-2 2,1 0,-3 1,-2 0,-3 1,-2 1,-2 1,-2 1,-2 1,-2 0,-2 -4,0 1,3 -2,1 -1,2 -1,2 -1,2 -1,1 -1,2 2,1 -2,2 -1,2 -2,-4 -1,1 -4,-2 2,-1 2,-1 1,-1 2,-2 1,-2 2,-1 0,-3 0,-3 -3,3 -1,2 -1,1 -1,2 -2,1 -3,-3 2,-1 -1,-3 3,1 1,-2 -2,-6 -2,4 -4,0 0,-4 -5,-3 -2,5 -8,-3 -7,-1 -6,2 -5,1 -5,3 -5,1 -5,3 -4,7 -2,1 -1,1 0,2 0,2 0,2 1,2 2,-2 0,-2 0,-2 1,-1 2,3 -1,3 -1,2 -1,2 -3,-1 0,3 -2,1 -4,0 1,-2 3,-1 -1,-2 -2,0 -1,1 -2,1 -1,1 -1,-3 2,-1 0,-2 -1,-2 1,-2 1,-2 1,-1 1,3 -1,2 1,2 2,0 0,-2 0,-2 0,-2 0,-2 2,-2 -2,0 -3,1 -2,-1 -2,2 0,2 -1,2 -2,1 2,2 0,2 -4,3 -8,-4 -2,9 -4,5 -6,2 -7,2 -1,-3 -3,-1 0,-2 -3,1 -1,1 2,2 2,1 -2,1 -1,2 2,1 2,0 2,-1 2,1 -2,2 -2,1 -1,2 -2,1 -1,2 0,3 1,-1 2,-2 2,0 2,0 -1,-3 3,1 -1,-2 2,-1 3,1 -1,2 -1,2 -2,2 -2,1 -2,0 -2,1 2,2 -1,2 -1,2 -2,-2 0,-2 -3,0 -1,1 1,2 0,3 3,-1 0,2 0,2 0,3 3,-1 1,-2 0,-3 1,-2 2,-1 0,-2 1,-1 2,-2 1,2 0,3 2,-1 1,-2 0,-2 -2,-1 1,-2 1,-1 4,2 -1,1 0,2 3,0 -2,2 -1,2 -2,1 2,2 -1,2 -1,1 -2,1 -3,1 1,-3 1,-2 -2,-1 -2,1 0,2 -1,1 -1,2 2,2 2,1 3,0 2,-1 2,-1 2,-1 1,-2 0,-3 -1,-2 2,-1 1,-2 1,-2 2,2 0,3 -1,1 -1,2 0,2 -1,3 -2,2 -3,1 0,3 3,-1 3,0 1,-3 1,-3 1,-3 2,-1 2,-1 -2,-2 2,-1 3,1 0,2 3,0 1,2 -1,2 -2,-1 -3,0 -2,1 -1,1 -1,3 0,3 3,1 1,-3 1,-3 3,1 3,0 2,-2 2,-1 -2,-2 3,-1 3,1 2,-1 0,3 -3,0 0,2 -3,1 -1,2 -3,1 -3,0 -1,1 0,3 -1,2 -2,1 -4,-3 -2,1 -4,0 -4,1 -3,-1 0,-4 -3,1 -2,1 -2,-3 -3,1 1,-3 -3,0 -2,1 -3,0 0,-3 0,-3 -2,1 -2,1 0,2 -3,-3 -3,-1 2,-2 3,0 2,-1 1,-2 -3,0 -1,-2 2,-1 0,-2 1,-1 2,-1 0,-2 1,-2 1,-2 1,-2 0,-2 -3,-1 0,2 -1,2"/>
    <path style="fill:none;stroke:#000000;stroke-width:1"
          d="m 139,334 -2,1 1,2 -1,2 -2,1 -1,2 -1,2 -1,2 0,2 -3,-1 0,3 -3,0 0,-3 1,-3 2,0 1,-2 2,-2 0,-2 2,-1 0,-2 0,-2 1,-2 1,-1 1,2 1,-3 1,-2 2,-1 -2,-1 0,-2 1,-3 2,-1 1,-1 3,0 4,-3 4,-5 3,-6 1,-8 5,-2 7,0 2,-6 7,-2 2,-6 8,6 2,-8 4,-5 4,1 8,0 3,-5 3,-3 2,-3 2,-1 -4,-2 2,0 3,-1 1,-1 0,-3 1,-2 1,-2 2,-1 3,-1 2,1 0,-3 1,-2 3,0 1,-2 1,-2 2,-2 1,-1 1,-3 2,-1 2,-2 0,-2 1,-2 1,-2 1,-2 -3,-1 -2,3 -2,1 -1,-3 2,-1 -1,-3 3,0 0,-3 0,-3 -1,-3 3,0 1,-2 1,-3 2,2 1,-3 2,-1 0,-3 2,1 0,-3 1,-2 -2,-3 -2,2 -1,2 -2,1 1,3 -3,0 -2,1 0,3 -1,2 -3,0 -1,4 1,3 -1,2 -2,1 -1,2 0,2 0,3 -1,2 0,3 3,-1 3,1 -1,2 -3,0 0,3 -2,1 -1,2 -2,2 -1,2 -2,-1 -1,-3 3,-1 1,-2 2,-2 -4,-1 1,-2 1,-2 0,-3 -3,1 -1,2 -2,1 1,3 1,3 -2,1 -2,1 -1,2 -2,2 0,3 3,-1 2,-2 1,3 -2,2 -2,1 -3,0 -1,2 -1,3 -1,2 0,2 -2,1 -3,0 0,2 0,2 -3,1 -4,0 -2,4 -6,-2 -6,0 -3,5 -4,4 -9,0 -3,5 -6,-1 -2,6 -5,1 -5,-3 -2,5 -5,0 -1,4 -1,3 8,1 -4,6 -2,5 -2,5 -3,0 0,2 3,2 -1,1 -2,1 -2,-2 -3,-1 1,-2 1,-1 0,-2 2,-1 1,-1 0,-3 -2,1 0,-3 1,-1 1,-2 0,-3 -2,-2 1,-1 1,-2 0,-2 1,-2 1,-2 2,-2 2,-2 -2,-2 2,-1 2,-2 1,-2 1,-1 1,-2 -1,-3 -2,1 -1,2 -1,2 -2,1 1,2 -3,1 -1,1 -1,2 2,1 -2,2 -1,2 -2,-1 -2,1 0,2 3,0 -1,2 -1,2 -2,-1 0,2 0,2 0,2 3,0 0,2 -2,1 -1,1 -1,2 2,1 0,2 -1,1 -2,-2 -1,2 -2,2 -2,1 -2,1 0,2 -1,2 -2,0 -1,-3 -1,1 -1,2 -1,2 -2,1 -1,3 0,2 -2,2 -2,1 0,3 -3,1 0,3 -2,1 -2,1 -1,2 -1,2 -1,2 1,2 2,-2 1,-2 1,-1 2,-1 1,-1 1,-2 1,-2 3,0 0,-2 0,-2 2,-1 1,-1 1,-2 0,-3 1,-1 2,-1 3,-1 -1,1 -1,2 -1,2 0,2 -1,2 -1,2 -2,1 0,4 2,-1 1,-1 3,1 0,2 0,2 -3,-1 -1,2 1,2 -1,2 -2,-2 0,-3 -2,1 -1,-3 -2,1 1,2 -2,1 -2,1 -1,2 -2,1 0,2 3,0 2,1 -1,2 -3,0 -1,1 0,2 1,2 3,0 0,-2 2,-1 1,-2 1,-2 0,-2 -3,-1 1,-1 2,-1 2,1 1,2 2,2 2,-1 1,-1 0,-2 2,-1 -1,-2 3,-1 1,-2 -1,-2 1,-2 2,-2 -2,-1 -2,1 -2,1 -1,-2 1,-1 1,-2 0,-2 1,-2 2,-1 0,-2 0,-2 1,-1 0,-2 1,-2 2,-1 1,-2 2,1 -1,3 -2,1 2,2 -2,1 -1,2 0,3 -1,2 -2,0 0,3 2,0 2,1 0,-2 1,-2 2,-1 -2,-2 1,-1 2,-2 2,0 1,2 -2,1 1,2 -1,2 -2,1 2,2 -1,1 -2,1 -1,2 -1,1 -2,1 2,2 -1,2 -1,2 -1,1 -1,2 -2,1 -1,2 -1,2 -1,1 -3,0 -2,-2 -1,2 0,2 -2,1 -1,2 -1,2 -3,0"/>
    <path style="fill:none;stroke:#000000;stroke-width:1"
          d="m 109,354 -1,1 -2,1 -3,0 0,3 -2,2 -3,1 -2,1 -3,0 -5,-3 3,-2 3,0 3,0 3,-1 0,-3 3,-1 1,-1 -4,-2 3,-1 -1,-3 1,-2 -2,-1 -2,1 0,2 -1,2 -2,1 -1,2 2,1 -1,2 -1,1 -3,0 0,-4 -3,0 -1,3 -2,2 -3,1 -3,-3 -2,-3 3,0 3,-1 -3,-3 -3,1 -3,-3 2,-1 3,0 2,-2 0,-3 3,-1 0,-3 3,0 4,0 1,-3 0,-3 0,-2 0,-2 0,-2 0,-2 1,-1 2,-1 1,3 -1,1 0,3 3,-1 1,-2 0,-2 2,-1 -1,-2 3,0 0,-2 2,-1 -1,-2 1,-2 2,-1 2,-1 1,-2 1,-1 2,-2 -1,-1 1,-1 2,-1 2,-1 0,2 -1,2 -1,2 -1,2 -1,2 -1,1 -2,1 -1,1 -2,0 2,3 -1,1 -2,1 -1,2 -1,2 -2,1 -1,2 0,3 -3,0 -2,1 1,3 -1,2 -2,1 0,3 -3,0 -3,1 -1,3 -2,2 -1,3 5,0 2,-1 3,0 1,-2 -4,-2 3,-1 3,0 0,-2 1,-2 1,-2 1,-2 1,-2 2,-1 2,-1 -1,-3 2,-1 1,-1 1,-2 0,-2 3,1 0,-2 1,-2 0,-2 1,-1 2,-1 1,-2 1,-2 1,-2 3,1 0,-2 -2,-2 1,-2 1,-2 -2,-1 0,-2 2,0 -1,-2 0,-2 0,-2 2,-2 2,-1 -2,-2 2,-1 0,-2 1,-1 0,-2 1,-2 -2,-1 -1,2 -2,1 0,2 -1,2 -1,2 0,2 -1,1 -2,1 1,2 0,2 -1,2 -1,2 -3,1 1,-2 1,-2 0,-3 -2,0 0,-3 -2,1 -1,1 -1,2 2,1 0,2 -1,1 0,2 0,2 0,2 -2,0 -1,-3 0,-3 -2,1 -2,-1 0,2 1,2 -2,1 0,3 2,0 1,-1 3,1 0,2 -2,1 -3,-1 0,3 -1,2 -1,1 0,2 -2,1 -1,2 -2,-2 1,-3 0,-2 1,-1 2,-1 0,-2 -1,-2 0,-2 -1,-2 2,-1 -1,-2 1,-2 0,-3 2,1 1,-2 2,2 2,0 -1,-3 1,-2 0,-2 3,0 1,-1 -2,-2 2,-1 1,-2 -1,-2 -2,2 -3,1 0,2 -2,2 -1,1 0,2 -2,1 -3,0 -1,3 0,2 -1,2 -1,2 0,2 1,3 -1,1 2,2 -2,1 -2,2 1,2 0,2 -1,1 0,2 -2,1 -2,2 0,2 1,2 -1,1 -2,1 0,2 3,0 0,2 -2,2 -3,0 1,-2 -2,-1 -2,2 0,2 -2,1 2,2 -2,1 -1,2 -1,2 -3,-2 2,-2 0,-3 1,-3 2,-2 1,-2 1,-2 2,1 1,-2 1,-2 -3,0 -2,-1 2,-2 1,-3 2,3 1,-2 2,-1 1,-2 -3,0 -2,-1 1,-2 0,-2 -3,-2 1,-3 -2,-3 1,-1 1,-2 3,-1 1,3 -1,1 0,2 1,3 -1,1 2,4 1,-1 1,-2 2,-1 -2,-2 0,-2 2,-1 -2,-2 1,-2 -2,-1 1,-2 3,0 0,-3 1,-2 1,-2 2,-1 2,-1 -2,-2 3,-1 2,-1 1,-3 1,-2 2,1 2,-2 -2,-2 2,-1 1,-1 2,-2 0,-2 0,-3 1,-2 1,-1 2,-3 0,-2 1,-2 0,-2 1,-2 1,-3 1,-2 1,-2 1,-2 1,-2 2,-2 3,-1 1,-2 2,1 0,-2 1,-2 0,-2 0,-2 1,-2 -2,-1 3,-1 1,-2 -2,-2 2,-1 0,-2 0,-3 1,-2 -1,-3 -2,1 -1,3 0,3 -2,-1 0,3 -1,1 1,3 -3,0 -1,-3 1,-3 -3,0 -1,3 -2,1 -2,1 0,3 -1,2 -1,2 -2,1 -2,1 -1,2 -1,2 -2,2 -2,2 -1,3 3,0 1,-2 3,0 0,-2 3,1 1,-2 -2,-1 1,-3 3,2 0,-2 1,-2 1,-2"/>
    <path style="fill:none;stroke:#000000;stroke-width:1"
          d="m 121,228 1,-2 0,-3 2,-1 1,3 3,0 0,3 0,2 -1,2 -2,-4 -1,2 -1,2 2,2 -2,1 -1,2 -2,1 -2,2 0,2 -3,0 -3,0 -2,2 -3,0 -2,-1 -1,2 -1,2 -1,2 0,2 3,0 1,-2 1,-2 2,3 1,-3 3,0 1,-2 3,0 -1,3 -2,2 -1,1 0,2 0,3 0,3 -3,1 0,3 -1,3 -1,1 0,2 -2,1 -2,1 -1,-3 -1,-3 3,1 -1,-3 3,0 0,-3 -3,0 1,-3 3,0 2,-1 0,-3 -2,1 -3,0 -3,0 0,3 -1,2 -1,3 -1,3 1,3 -1,1 -1,2 3,1 3,2 -2,1 -1,2 0,3 -2,-1 -1,2 -2,1 -1,2 -2,2 -1,2 -2,1 1,3 -3,0 -1,2 -2,-1 -1,2 -3,1 0,-3 1,-2 3,-1 2,-1 -1,-3 3,0 2,-2 1,-2 1,-2 0,-3 2,1 2,-2 1,-2 -4,0 1,-2 0,-4 -2,-1 -1,2 -1,2 -1,2 -1,2 -2,2 -3,1 -1,2 3,0 4,-2 -1,2 -1,3 -3,0 -2,0 0,2 0,2 -1,2 -3,-2 0,-3 1,-3 0,-3 -1,-3 3,1 0,-2 3,0 1,-2 1,-2 1,-2 1,-2 -3,-2 -1,2 -1,1 -1,2 -1,2 -3,0 0,-4 2,-3 -2,-3 4,1 3,-1 2,1 1,-3 1,-2 1,-2 0,-3 -3,0 -1,2 -2,1 0,3 -3,1 0,-3 -2,-3 2,-2 3,0 0,-2 -3,-2 2,-2 0,-3 1,-2 0,-3 2,-1 1,-3 2,1 0,-3 1,-2 1,-2 1,-3 -4,1 2,-4 3,0 1,-2 1,-2 2,1 1,-2 -3,-2 3,-1 0,-2 0,-3 3,0 -1,-3 2,1 1,-2 0,-2 -3,-1 3,-2 1,-2 -3,-4 2,-2 3,-1 0,-3 -2,-8 8,0 3,-3 6,2 1,-5 2,-3 5,0 4,-4 4,-2 3,-3 3,3 0,3 -1,2 -1,3 3,0 2,-2 0,-3 1,-1 -1,-3 -1,-3 -2,-1 -1,-5 4,-4 1,-2 2,2 1,-2 1,-2 0,-3 1,-3 -1,-3 -3,0 1,-3 2,-1 2,1 1,3 2,-1 0,-3 2,-1 0,-3 3,-1 2,-1 1,-1 -1,-3 -3,1 -2,-1 0,3 -2,-1 -1,2 0,3 -2,1 -2,-2 1,-2 0,-3 -2,-1 -1,2 -1,2 -1,2 0,2 -3,0 -3,1 0,-3 1,-2 2,1 0,-3 2,-1 -4,-2 2,0 2,-1 2,-1 -2,-2 -3,1 0,-2 0,-2 0,-2 0,-2 0,-2 3,1 2,-1 1,3 -2,1 -1,2 2,1 2,2 1,-3 1,-2 1,-2 0,-3 -2,1 -1,-3 2,-1 0,-3 0,-3 2,-1 0,-2 1,-2 2,-1 0,-2 1,-2 2,-1 1,-2 2,-2 -3,-1 -1,-3 3,0 1,-3 3,1 4,-1 -1,-4 1,-3 4,2 2,-3 2,-3 0,-3 2,-2 -6,0 -1,4 -2,2 -3,-2 -2,3 -4,0 2,4 -2,1 -2,4 -3,0 0,-2 2,-1 0,-3 -2,-3 -2,2 1,2 -3,-1 -2,1 2,2 1,3 -1,2 -2,1 -2,1 -1,2 0,3 0,3 1,2 2,-2 0,-2 0,-3 2,-2 3,-2 1,3 0,3 -2,-1 -1,2 0,3 -2,2 -1,2 -1,1 0,2 -1,2 0,2 0,2 -2,1 0,2 -3,1 0,-2 -1,-2 2,-1 1,-2 -3,0 1,-2 2,-1 0,-2 1,-1 -1,-3 -2,1 -2,1 0,2 -1,2 -1,2 0,2 -1,2 2,2 0,2 -1,2 -2,1 2,2 -1,2 1,2 -1,2 1,2 -1,2 1,2 -1,1 -1,2 0,2 0,2 -1,2 2,1 -2,2 -2,0 -2,-1 1,-2 0,-2 1,-1 -2,-2 2,-1 0,-2 0,-2 1,-1 0,-3 1,-2 -1,-3"/>
    <path style="fill:none;stroke:#000000;stroke-width:1"
          d="m 137,114 0,-3 -2,1 -1,2 1,3 -1,2 0,2 -1,3 -1,1 -1,2 0,2 1,3 -1,1 0,2 2,2 -3,2 -5,2 -4,5 -5,0 -4,1 -2,5 1,8 5,1 0,-5 3,-2 5,0 3,-5 5,-3 4,-3 3,-2 1,-2 1,-1 1,-2 2,-2 3,0 -1,3 0,2 -2,1 -1,2 3,0 4,-2 -1,3 -1,2 -2,1 -2,-1 0,3 -4,0 -2,5 -3,3 -5,1 -2,6 -6,-1 -5,4 -2,3 -5,-2 -2,5 -6,-4 0,-5 -2,-4 -1,-4 4,2 2,-5 -4,-2 -1,2 -3,-3 2,-2 3,0 1,-1 2,-2 3,-2 -3,-1 -3,1 -2,1 -3,1 -3,-3 2,-1 3,0 3,-1 1,-2 1,-2 -1,-3 1,-2 3,-1 2,1 0,-3 2,1 0,-3 1,-2 1,-2 0,-2 -3,-1 -1,1 -2,2 2,1 -2,2 -2,1 -1,2 -3,1 -1,2 -1,2 2,2 -2,2 -2,1 -3,-2 2,-2 0,-3 -3,-1 3,-2 1,-1 3,-1 2,-1 2,-2 0,-3 1,-1 2,-2 2,-1 2,-1 0,-2 1,-2 0,-2 1,-3 1,-2 1,-3 -2,0 -2,2 -1,1 0,2 -1,2 -1,2 -2,1 2,2 -3,0 -1,1 -1,2 -2,2 0,3 -2,-1 -1,2 -1,2 -4,0 1,-3 1,-3 2,-1 2,-2 1,-2 1,-2 2,-2 2,-1 1,-2 0,-2 -3,-1 -1,2 -1,1 -1,2 -2,1 -3,4 1,-2 0,-5 2,-3 1,-3 2,-2 2,1 0,-4 -1,-3 3,0 2,-1 1,3 -1,2 -1,2 1,3 -1,1 4,-2 1,-2 1,-1 3,1 2,1 3,0 1,-2 0,-3 1,-1 3,-2 -2,-2 2,-1 1,-1 2,-1 -2,-2 0,-2 2,-1 1,-2 0,-2 2,-1 1,-1 0,-4 -1,1 -2,1 -3,0 0,2 0,2 -1,2 -2,2 -1,1 -1,2 2,1 -2,2 0,3 -2,1 0,3 -1,2 -2,0 0,-3 -2,1 -3,0 0,-2 2,-1 2,-1 2,-1 1,-2 0,-2 -2,1 -2,1 -2,1 -3,1 -4,-1 4,-2 1,-2 -5,-2 5,-1 1,-2 1,-3 3,2 0,2 -1,2 -1,2 4,-2 2,-1 -1,-3 2,1 2,-1 1,-3 -1,1 -3,-1 -3,0 -1,-3 3,0 3,0 1,-2 2,1 0,-3 1,-2 2,1 0,3 2,-1 2,-1 -1,-2 -2,-2 3,-1 3,-1 0,3 -1,1 1,2 1,2 2,-2 0,-2 0,-2 2,-1 -2,-2 2,-1 2,1 2,0 1,-2 2,-1 1,-1 1,3 2,1 -2,2 -2,-2 -1,2 -2,1 2,2 -2,1 -2,-2 -1,2 0,2 -2,1 0,2 -3,0 0,2 1,3 2,2 1,3 0,2 -1,2 -3,-1 -1,-3 1,-1 -1,-3 -2,1 -1,3 -1,2 2,1 -1,2 -2,2 0,2 -1,1 0,2 -3,0 0,2 -1,2 2,1 -2,1 -2,1 -2,1 -2,1 -1,1 -1,3 -1,2 1,2 -2,2 3,0 0,2 -2,1 -2,1 2,2 2,-1 0,3 0,2 -2,1 0,3 -1,1 1,2 -2,1 -2,2 -1,2 -3,-2 0,2 1,3 -1,2 3,0 1,-2 2,-1 1,-2 1,-2 1,4 -1,2 -2,2 4,0 2,-2 1,-2 -2,-1 0,-2 0,-2 0,-2 0,-2 0,-2 2,0 0,-2 0,-2 0,-2 2,-1 -2,-1 0,-2 0,-2 0,-2 -1,-2 0,-2 0,-2 2,-1 2,0 1,-2 3,0 2,-1 1,-3 -2,-2 3,-1 1,-2 1,-2 0,-3 3,-1 2,1 -2,2 -1,2 1,3 -2,2 -1,2 -1,2 0,3 -3,0 -2,2 -2,1 -3,0 0,3 3,0 3,-1 0,3 -2,1 -3,0 0,3 3,0 0,3 -2,1 -1,2 4,0"/>
    <path style="fill:none;stroke:#000000;stroke-width:1"
          d="m 127,122 -2,2 -1,1 0,2 -3,1 3,1 0,2 -2,0 -1,2 3,1 -1,1 0,2 3,-1 2,-1 -1,-2 1,-1 1,-2 -2,-1 1,-2 1,-2 1,-2 1,-2 -2,-2 2,-1 -2,-2 2,-1 0,-2 0,-2 1,-1 -1,-3 3,1 1,-2 2,2 2,-2 -2,-2 -2,-1 2,-2 0,-2 1,-2 1,-2 0,-2 1,-2 1,-2 0,-3 3,3 0,-2 2,-1 0,-2 -3,0 -1,-3 3,0 2,-1 0,-3 2,1 2,-2 -2,-1 1,-2 0,-3 -3,0 -1,2 -1,1 -1,2 0,3 -3,0 0,-2 -2,-1 2,-2 1,-2 1,-2 2,-1 2,-1 1,-2 2,-1 0,3 3,1 1,-4 4,-1 4,0 1,-5 5,1 -1,-7 6,1 5,1 1,-4 3,-3 8,2 1,-7 -6,0 -7,-2 -5,2 -4,2 -4,0 -5,5 -3,5 -4,2 -3,0 0,-3 2,-4 2,-4 4,-2 0,-5 -6,0 3,-9 3,-1 3,7 4,-2 1,-5 6,0 -1,4 7,1 1,-4 4,-2 4,1 -2,7 7,0 3,-4 3,9 1,7 1,6 -4,1 5,3 -2,2 -3,0 -2,2 -3,2 0,-2 -1,-5 -5,0 1,5 1,3 -3,-1 -1,2 1,4 -3,2 -1,4 -4,2 1,5 4,-1 3,-2 2,-3 2,-3 1,-4 3,-2 4,-1 2,-3 4,1 2,-3 1,-3 -1,-4 4,2 1,-2 4,0 3,-1 3,0 -2,4 4,0 3,-2 3,-2 5,3 -3,2 -2,3 -4,2 -4,0 -4,5 0,-5 -2,-5 -3,3 -1,4 -2,4 -3,3 -3,-1 -3,2 -4,0 -1,4 -2,3 -2,3 -2,3 -4,0 -1,3 -4,-2 1,5 -3,1 -3,2 -4,1 1,-3 1,-4 3,-2 -2,-5 -4,2 -1,4 -2,1 0,2 -3,0 -1,2 -1,3 -2,0 1,3 -2,1 -1,2 0,2 0,2 3,1 1,-2 -1,-3 3,0 0,-2 0,-2 1,-3 3,-1 -1,2 0,2 0,3 4,-2 -1,2 0,3 3,0 1,-3 2,-1 4,-2 4,0 2,-3 2,-2 3,-2 3,-2 2,-4 2,-3 2,-4 5,0 4,-1 3,-2 3,-2 4,1 0,4 -4,2 -1,3 -5,-1 -1,3 -4,-2 -1,4 4,2 -2,3 -4,-2 -4,0 1,4 -4,1 -2,3 -3,2 -4,2 -4,1 -3,2 -2,2 -3,1 -2,-1 -1,3 -3,-1 1,-2 -1,-3 -2,1 -1,3 -2,2 -2,-1 -1,2 -1,3 -1,2 -1,2 -1,3 2,1 2,-2 1,-2 1,-2 0,-3 2,1 2,-1 1,-2 2,1 2,2 -2,2 -3,0 -2,2 0,3 3,-1 2,-1 3,0 1,-1 1,-2 3,0 1,-2 -4,-1 1,-2 2,-1 4,2 2,-3 3,-2 4,-1 3,-2 3,-2 3,-3 4,0 0,-4 5,2 3,-2 3,1 0,4 -3,3 -4,-2 -2,3 -4,-1 -1,3 -3,2 -3,2 -3,2 -3,2 -2,1 -1,3 -4,-1 -1,2 -3,0 -1,2 -3,1 -3,0 1,3 0,3 3,-1 1,-2 2,-1 3,-1 2,-1 3,0 1,3 3,1 1,-3 2,-1 1,-4 3,-3 3,-2 3,-2 3,-2 4,0 2,-2 5,1 2,-2 1,-4 0,-4 5,2 2,-3 3,-5 5,0 5,-1 1,-4 1,-5 5,0 2,-4 5,0 6,2 0,-6 -5,-1 -5,-4 -3,3 -5,-1 1,5 -5,-2 0,4 -2,4 -1,5 -5,0 -4,1 -2,3 -2,3 -3,-1 -5,-2 2,-4 4,-1 2,-3 4,-1 4,0 1,-4 2,-3 -7,1 -1,-5 2,-1 4,0 2,-3 4,1 6,-2 -5,-3 2,-4 4,-1 2,5 4,-1 4,-1 4,1 -2,5 5,2 3,-4 4,1 7,1 -2,5 -6,2 -1,6 0,5 -3,4 -1,5"/>
    <path style="fill:none;stroke:#000000;stroke-width:1"
          d="m 258,94 -4,3 -1,4 -2,3 -6,2 -4,2 -2,5 0,4 -3,2 -3,2 -4,2 -5,-1 -2,3 -4,0 4,5 -2,2 -2,2 -5,1 0,-3 2,-4 -5,-1 -2,3 -1,4 4,4 -3,1 -4,0 -2,2 -3,1 -1,2 0,3 -1,2 -2,1 1,2 -1,2 -2,-1 -1,2 0,3 -1,1 -2,1 -2,2 -3,1 1,-2 1,-2 0,-2 -3,1 1,-3 -3,1 -2,2 2,2 -2,1 -1,2 -3,0 0,-3 1,-2 1,-3 1,-2 0,-3 3,3 1,-2 2,1 0,-3 0,-2 1,-1 1,-4 2,-1 2,-1 1,-2 0,-2 1,-2 2,-2 1,4 -1,2 -1,3 -1,2 -3,1 -1,1 0,2 0,2 -1,2 0,2 0,2 2,1 1,-3 1,-2 1,-1 1,-2 -2,-1 1,-2 3,1 0,-2 0,-2 1,-2 2,-2 1,-3 3,-1 0,-4 -5,0 0,-4 3,-2 4,2 2,-3 4,0 2,-1 2,-3 4,0 3,-2 4,0 4,0 3,-3 2,-3 1,-4 2,-4 3,-2 5,1 2,-4 2,-4 4,-3 1,-6 -4,0 -3,3 -5,-1 1,5 -2,4 -5,0 -4,1 -4,1 -1,4 5,0 -2,5 -2,4 -4,1 1,-6 -4,-1 -1,4 -2,3 -4,1 -4,0 -1,3 -4,-2 -1,4 -3,-1 -2,2 -4,1 -1,5 -3,2 -2,2 0,3 -1,2 -1,1 -1,2 2,1 -3,1 -1,2 -1,2 -2,1 -1,1 0,3 -2,-1 -3,1 -1,-3 2,-1 1,-2 3,-1 1,-2 1,-2 0,-2 1,-1 2,-2 1,-2 -3,1 0,-3 -3,0 0,-3 -2,1 -2,1 -2,1 -2,2 -1,2 -2,-1 -1,2 0,3 3,-1 0,3 3,-1 0,-3 1,-2 2,-2 3,1 -1,2 -1,2 0,2 -1,2 -3,1 -2,2 -1,3 0,2 -2,1 -2,2 -1,2 -2,0 -2,1 -1,-3 -3,-1 1,-2 0,-3 1,-2 3,-1 2,1 -2,2 -1,3 2,1 2,-2 2,-2 1,-2 -1,-3 -3,0 0,-3 0,-3 0,-3 -3,1 0,3 -1,2 0,2 -2,1 -3,1 0,3 -1,3 0,3 -1,2 4,1 -2,2 -1,1 -1,3 -2,1 0,-3 0,-3 -3,0 0,3 -1,1 1,3 1,3 2,-1 3,1 1,-2 2,-1 -1,-3 3,1 0,-3 2,1 3,0 2,-1 2,-1 1,-2 2,-2 3,1 -1,2 -1,2 -1,2 -3,1 -1,1 -3,1 -2,-1 -1,2 -1,3 -2,-1 0,3 -1,2 0,3 -3,1 -2,1 0,-3 2,-2 0,-3 -3,1 -1,2 -1,3 -1,2 -2,2 0,3 0,2 -2,1 -1,2 -1,2 -1,2 -2,1 -1,2 -2,2 -2,2 0,-3 -3,1 -1,1 0,2 -2,2 -2,-2 -1,2 -2,1 -2,-1 1,-3 1,-2 3,1 1,-2 2,-2 1,-2 2,1 3,0 1,-2 -4,-1 1,-1 -1,-3 2,-1 3,1 -1,2 3,1 1,-3 2,-3 1,-2 -2,-1 -4,-2 1,3 1,2 -3,0 -1,-2 -3,1 -3,2 0,3 -2,-1 0,3 -1,2 -1,2 -2,1 -1,-3 1,-2 1,-2 -4,1 -1,2 -2,1 0,3 3,-1 0,2 -1,2 -1,2 -1,2 -2,1 0,3 3,-1 2,1 -2,2 -1,1 0,2 -2,1 0,2 0,2 -2,2 -1,1 -1,3 -1,3 -1,2 -3,0 1,-3 1,-2 1,-3 -3,0 0,-3 3,0 3,-2 -3,-1 1,-2 1,-1 2,-2 -4,-1 1,-2 2,-1 -1,-3 2,-1 -1,-3 3,1 -1,-3 -1,-3 -2,1 -2,2 0,3 -2,1 -1,2 2,1 -1,2 -1,3 0,3 0,3 -2,1 -1,2 -2,1 1,2 -1,2 3,0 0,3 -3,0 -2,2 -3,1 -1,3 3,-1 3,-1 2,-1"/>
    <path style="fill:none;stroke:#000000;stroke-width:1"
          d="m 104,221 0,3 1,3 -3,-1 -3,0 -1,1 -3,0 -1,3 3,0 3,0 3,-1 2,1 -2,2 -2,2 -2,-1 -3,0 -3,0 1,3 -1,2 -2,-1 -1,2 -2,1 2,2 -1,1 -2,1 2,2 -2,1 1,2 3,0 1,-2 1,-2 0,-3 2,-1 1,-2 1,-3 3,1 -1,2 -1,3 -2,2 -1,2 0,3 -1,2 1,3 -1,1 0,3 -1,2 -1,2 -1,2 4,1 1,-2 1,-2 1,-2 0,-3 0,-3 1,-1 -1,-3 1,-2 1,-2 1,-2 1,-2 1,-2 1,-2 1,-2 2,-1 1,-2 1,-2 -1,-3 -1,-3 3,0 1,3 2,-1 0,-3 2,1 1,-2 -2,-3 1,-2 2,1 0,-3 1,-2 2,4 1,-2 1,-2 0,-3 -2,1 -1,-3 3,-1 0,-2 1,-2 2,-2 2,-1 3,0 0,2 -3,2 -1,1 1,3 -1,1 -1,2 0,2 3,-1 2,-2 0,-3 1,-2 2,1 3,0 0,-2 3,-1 2,1 1,-2 3,-2 1,-2 1,-2 -2,-2 -2,2 -1,2 -1,1 -2,1 -3,1 -3,1 0,-3 1,-2 3,0 1,-2 2,-1 2,-1 1,-2 1,-1 3,0 0,2 3,0 2,-1 1,-1 2,-2 2,0 0,-3 0,-3 -3,0 -1,3 -1,2 -3,1 -3,-1 1,-2 2,-1 1,-2 0,-2 0,-3 1,-2 3,1 -1,3 3,0 2,-1 -1,-3 2,-1 3,0 2,2 -3,1 1,3 -1,1 0,2 -1,2 0,3 3,-1 0,3 -1,2 -2,-1 -3,0 -1,2 -3,1 -3,1 -1,3 1,3 -2,1 -2,1 -1,2 -2,2 2,1 -2,2 -2,-1 -2,-3 -1,3 1,3 1,3 -2,1 1,2 0,2 -1,2 0,3 -1,2 -1,2 0,2 3,-1 1,-2 3,0 1,-2 -3,-1 1,-2 1,-2 2,1 2,-1 1,-1 2,-2 0,-2 -2,-1 -1,2 -2,1 -3,0 1,-3 -1,-2 3,0 2,-1 0,-2 1,-3 1,-2 2,-1 1,-2 1,-2 -1,-2 2,-1 2,-1 2,-1 2,-1 -2,4 3,0 1,-2 2,-2 2,-2 2,-1 3,0 1,-2 2,-1 -2,-2 2,-1 3,-1 0,-3 1,-1 -1,-3 1,-2 0,-2 2,-1 3,0 1,-2 -2,-2 -2,1 -2,1 -3,0 -2,1 -2,2 3,1 -1,2 -3,0 1,3 3,0 0,3 -3,0 -2,-1 -1,2 0,2 1,3 -3,0 -1,-3 0,-3 0,-3 2,-1 0,-3 1,-2 1,-3 0,-3 -3,0 0,3 -2,2 -3,-1 1,-2 1,-2 1,-3 3,0 1,-2 4,-2 0,3 -1,2 1,3 3,-1 1,-1 3,0 3,-1 2,1 2,2 1,-3 2,-1 2,-1 1,-1 2,-1 1,-1 -1,-3 2,-1 2,-2 1,-2 0,-2 1,-2 1,-2 1,-2 4,2 2,-2 4,1 2,-1 2,-3 3,-1 3,-2 3,-2 2,-3 0,-5 4,0 3,-2 5,-2 4,-1 2,-4 -2,-6 4,-1 3,-2 4,-1 4,-1 2,-2 0,-5 4,-2 0,-6 3,-2 2,-4 2,-5 2,-2 3,-5 7,0 1,-1 2,-3 1,-6 2,5 3,0 2,-2 3,0 4,-1 10,3 -3,1 -6,1 -5,0 -2,2 -4,2 0,-3 -3,1 -1,2 3,3 -1,5 -7,-2 -3,4 -5,4 -1,6 -3,4 0,5 -3,2 -2,4 -3,3 -4,1 -4,1 -3,1 -2,4 -1,4 -1,4 -4,0 -4,1 -3,2 -4,1 -1,4 6,1 -1,4 -3,1 -4,-2 -4,1 -3,3 -3,2 -3,3 2,5 3,-2 2,-3 3,-3 4,-1 4,2 4,0 3,-3 1,-3 3,-3 -4,-2 3,-3 5,2 2,-3 5,0 2,-5 -5,0 1,-5 5,0 2,-1 4,-1 4,-2 2,-4 4,-3 3,-3 -2,-6"/>
    <path style="fill:none;stroke:#000000;stroke-width:1"
          d="m 276,103 2,-5 2,-5 6,-1 7,2 6,-1 4,-3 1,-5 -5,0 -4,-2 0,-4 4,0 5,0 6,0 2,10 -3,4 2,8 -4,4 -2,6 -1,6 -1,6 -3,3 -5,0 0,5 -2,5 -3,-1 -4,2 -5,-2 -5,0 -4,0 9,-7 6,-1 1,-5 2,-5 4,1 3,-4 2,-5 1,-7 -7,0 -2,6 -5,-8 -1,6 -2,1 2,8 -4,3 -2,3 -4,2 -2,4 -5,1 -4,1 -1,4 -3,2 -4,3 5,2 -2,4 -5,-2 -2,1 -4,1 -1,4 -4,2 -4,3 5,2 4,-1 4,-1 1,-4 4,4 1,-4 6,1 3,-4 1,-5 4,1 5,1 5,0 5,1 -4,6 -5,0 -4,0 -4,3 -5,4 -1,5 6,2 1,-5 5,-1 5,-1 0,6 -3,3 -2,3 -5,2 -6,-3 -2,3 -3,3 -4,2 -3,3 -2,2 -3,1 0,-3 2,-4 -5,2 -1,2 1,4 -2,2 -3,1 0,3 3,0 2,1 -3,2 -1,2 -2,-1 -1,3 -3,2 -2,1 -1,2 0,3 -1,2 -1,1 0,2 0,2 -1,2 -3,0 0,3 3,0 -1,3 -2,1 -3,0 -2,2 -1,1 -3,1 -1,-3 1,-1 3,-1 2,-2 1,-1 0,-3 -3,1 0,-4 -1,1 -1,2 -1,2 0,2 -3,1 -3,0 -2,-1 -1,2 -3,-1 -1,3 -1,2 -1,2 -3,0 0,-3 2,-2 1,-2 1,-2 2,-1 2,-1 0,-2 1,-2 3,0 0,3 -1,2 3,0 1,-2 1,-2 1,-2 1,-2 3,0 -1,-2 1,-1 1,-3 0,-3 0,-2 1,-2 1,-2 1,-2 3,-1 1,3 -2,1 0,2 -1,2 0,2 -1,2 -1,3 0,3 0,3 3,0 0,-3 0,-2 1,-2 2,-1 -1,-3 1,-1 1,-3 2,1 3,-1 1,-2 1,-3 -3,0 -2,2 -2,-2 1,-2 3,-1 3,-1 1,-3 1,-2 2,1 0,-3 0,-3 -3,0 -2,-1 0,3 -1,3 -1,2 -2,2 -3,1 1,-3 1,-2 1,-2 1,-2 0,-2 2,-3 3,1 3,0 2,-3 3,-3 4,1 5,-1 2,-3 1,-5 -6,-1 -3,3 -4,0 -4,-2 -1,5 -4,-1 0,4 -5,-2 -2,3 -2,0 1,3 4,-1 -1,2 -2,2 0,2 0,2 -1,2 -2,1 1,3 -1,2 -2,1 0,-3 -2,-1 1,-2 1,-2 1,-1 1,-2 -2,-1 1,-2 0,-2 -3,1 -1,1 0,2 0,2 -1,2 0,2 -1,2 2,2 -1,2 2,2 -2,1 -1,2 -2,0 -2,-1 -2,1 -1,2 -1,2 -2,1 -3,1 -1,1 0,2 -2,1 -3,0 -2,1 0,2 0,3 1,2 3,0 -1,-3 1,-2 3,0 1,-1 3,0 0,-2 0,-2 2,-1 1,3 2,-2 0,-2 1,-2 0,-2 4,1 -1,2 0,2 0,2 -2,1 -1,2 -2,1 0,3 -2,-1 -3,0 -3,1 -1,1 0,3 -3,0 -1,2 -1,2 -1,2 -1,2 -1,2 -2,1 -2,2 -1,2 0,2 1,2 0,3 -2,-2 -1,2 -1,1 2,2 -1,2 -1,2 0,3 -2,1 -1,2 -1,2 -3,-3 -1,2 -1,4 3,-1 2,1 -2,2 -2,1 0,2 0,2 -2,1 -2,1 0,-3 1,-2 -1,-3 -2,1 0,2 -1,2 -1,1 0,3 -3,-1 0,-2 1,-2 1,-2 0,-3 0,-2 3,0 3,0 0,-2 0,-3 1,-2 3,0 1,-1 3,0 1,-4 -1,-3 -1,2 -1,2 -3,0 1,-3 -3,0 -2,1 1,3 -2,1 -1,2 0,3 -1,1 -3,0 -2,1 0,3 0,3 -2,1 0,2 0,2 0,2 -2,1 -3,0 1,-2 1,-2 -1,-3 1,-1 -1,-3 3,1 -1,-3 1,-2 1,-2 2,-1 3,0 0,-3 1,-2"/>
    <path style="fill:none;stroke:#000000;stroke-width:1"
          d="m 172,239 1,-2 1,-2 1,-2 -1,-2 -3,1 0,2 -1,2 -2,1 -3,1 3,1 0,2 -2,1 -2,-1 -1,2 -1,2 -1,2 -1,2 -1,3 -2,-2 -1,2 -1,2 -3,0 0,-2 2,-2 -2,-1 -2,1 -2,-1 1,-2 2,-1 1,-2 0,-2 0,-3 2,1 1,-3 3,-1 0,2 -1,1 -1,3 -1,2 -1,3 2,0 2,-1 1,-2 0,-2 2,-2 1,-2 0,-2 2,-1 0,-2 3,1 1,-2 0,-2 2,-1 1,-1 3,1 2,-1 2,-1 1,3 -1,1 0,2 3,0 2,-1 0,-2 -2,-2 -1,-2 2,-2 1,-2 1,-2 -2,-2 2,-1 1,-2 2,0 1,-1 2,-2 3,0 -1,2 -1,2 -1,2 -3,0 0,2 0,2 -2,2 1,2 -2,1 1,2 1,3 2,-2 0,-2 1,-3 1,-2 1,-2 2,-1 1,-2 1,-2 1,-2 1,-2 -2,-2 -2,-1 2,-2 0,-2 0,-2 0,-2 2,-1 -2,-2 1,-2 1,-2 1,-2 1,-2 2,-1 0,-2 0,-2 1,-1 0,-2 0,-2 2,-1 2,1 -1,2 0,2 0,2 -1,2 -1,2 -1,2 -1,1 0,2 -2,1 0,3 2,1 0,-2 2,-2 2,-1 0,-2 1,-3 1,2 1,2 2,-2 0,-2 -2,-1 0,-2 0,-2 1,-1 -1,-2 2,-1 -1,-2 0,-2 2,1 1,-2 -2,-1 1,-2 -1,-2 1,-2 2,1 2,2 -1,1 1,2 0,2 0,2 -2,1 -1,3 0,2 -1,2 2,2 1,-1 3,1 0,-2 1,-2 -3,0 0,-2 1,-1 1,-2 1,-3 0,-2 0,-2 0,-2 1,-2 3,0 2,-1 0,-2 1,-2 3,-3 2,-3 5,-1 0,-4 -5,-1 -2,1 -3,3 -2,3 -1,4 -1,3 -2,0 -2,1 -2,2 -1,-2 0,-2 2,-1 3,-1 0,-3 -2,-1 -1,2 -2,1 -2,-2 1,-2 0,-2 -1,-3 0,-4 -3,1 0,3 0,3 1,3 -1,2 -3,1 1,3 2,-1 2,-1 0,3 -2,1 -1,2 0,3 -1,2 -1,1 0,2 -3,0 0,-2 1,-2 1,-2 0,-2 0,-2 -1,-2 -1,-2 0,-2 1,-1 -2,-2 2,-1 2,1 -1,-3 1,-2 0,-3 -2,-2 -1,2 0,2 -1,1 0,2 -2,1 -1,2 -2,1 2,1 1,2 0,2 1,2 1,2 0,2 -2,1 1,2 -2,1 1,2 0,2 -1,2 0,2 -1,2 0,2 -1,2 -1,2 -1,3 -2,1 0,2 -1,2 0,2 -1,2 -1,1 2,2 -1,2 -1,2 -2,0 -1,2 -2,1 -2,1 -2,2 -2,2 -1,-2 1,-2 1,-2 2,-1 3,-1 0,-3 3,0 -1,-3 1,-3 1,-2 0,-3 1,-1 0,-2 2,-1 1,-1 -1,-3 2,1 1,-2 0,-2 0,-2 1,-2 1,-2 -1,-3 -1,2 -1,2 -3,0 1,2 0,3 -2,-1 -2,-2 0,-2 1,-2 1,-2 2,1 1,-2 -2,-2 2,-1 2,-1 1,3 1,-1 1,-3 0,-2 0,-2 -1,-3 -2,2 -1,1 1,2 -2,1 -2,-2 -1,2 -1,1 -1,2 -1,2 -1,2 -3,0 -1,2 -1,2 4,-1 0,3 -2,1 -1,1 -2,1 2,2 -1,2 -3,-1 -1,2 -1,2 1,3 2,2 -2,1 0,2 -2,1 -1,3 -1,2 3,0 1,-2 1,-1 1,3 2,-2 0,-2 0,-2 1,-1 1,-2 -2,-2 -2,-2 2,-1 2,-1 2,-2 0,-2 1,-2 3,1 0,2 0,2 -2,1 -1,2 -2,1 2,2 0,2 -1,2 0,2 -1,2 -2,2 0,2 -3,1 -1,1 -1,2 -2,-3 -2,0 -2,-1 -1,2 0,2 -1,2 3,0 2,-2 1,2 -1,2 2,2 -3,0 0,2 -2,2 3,1 2,-1 1,-1 3,0"/>
    <path style="fill:none;stroke:#000000;stroke-width:1"
          d="m 180,220 0,2 -2,2 -2,0 -2,2 -2,-2 -1,1 -2,1 -1,-3 0,-2 1,-2 1,-3 -1,1 -3,-1 -1,2 0,2 -1,1 1,2 -1,2 2,1 0,2 -1,2 -1,1 -1,-3 -2,0 -1,2 1,2 -1,2 -2,-2 -2,2 -1,-2 1,-2 2,-2 1,-3 2,0 0,-2 0,-2 0,-2 1,-3 -3,0 1,-2 2,-1 2,1 2,-1 0,-2 0,-2 1,-2 1,-2 1,-2 1,-1 2,-2 -2,-1 2,-2 2,-1 0,-3 -2,1 -3,0 -1,1 -1,2 -2,1 2,2 -2,2 -2,-2 -2,1 -2,1 -3,-2 0,2 -1,2 -1,2 -2,1 -2,2 0,3 3,-1 1,-1 2,-2 2,-2 2,-1 2,-1 3,1 -1,2 -1,3 -2,-2 -2,1 0,2 -2,1 -1,2 -3,-1 -1,2 2,1 -1,2 -1,3 3,0 1,-2 2,-1 0,3 -1,2 -1,2 0,2 -2,0 -1,2 -1,2 1,3 -1,1 0,2 -3,-1 1,3 -2,1 1,2 -1,2 -2,2 -1,1 0,2 0,2 -3,1 -2,1 0,-2 1,-2 1,-1 -1,-3 -2,1 -1,2 -1,2 -1,1 0,2 -2,1 -2,1 0,-3 1,-2 2,-3 1,-2 0,-2 2,-1 1,-2 3,0 -1,2 2,2 2,-1 0,-2 0,-2 0,-2 1,-1 1,-2 2,-1 0,-2 1,-3 1,-2 2,-2 -2,-1 -3,1 -1,1 0,3 -1,2 -1,2 -2,-1 -2,2 2,1 -1,2 -2,1 -2,0 1,-3 -3,-1 -1,2 0,2 1,3 -2,-1 -3,0 -2,1 -1,1 -2,1 -1,2 -1,2 -1,2 -1,2 -1,2 -1,2 0,2 0,2 -1,3 -2,1 -1,3 -1,2 0,3 3,-1 2,1 -1,2 -1,1 -2,1 -2,-1 -1,2 -1,2 2,1 2,2 -1,1 -1,3 0,2 1,2 2,-2 0,-2 2,-2 0,-2 0,-2 -2,-1 2,-1 3,0 0,-2 1,-2 0,-2 0,-3 -3,0 -1,-2 1,-1 3,0 1,-2 -2,-1 1,-2 1,-2 0,-2 0,-3 2,-2 1,-2 1,-2 1,-2 3,-1 1,-1 -1,3 0,2 -2,1 0,2 -1,2 -1,1 -1,2 2,1 -1,2 -1,1 0,2 0,2 -1,2 0,2 0,2 2,-1 1,-2 1,-2 2,-1 -2,-2 1,-2 1,-2 1,3 2,-2 2,0 0,-2 2,-1 2,1 -1,2 -1,2 -2,1 -2,1 0,2 -2,2 -1,1 0,2 -2,1 -3,1 -1,2 0,2 2,-1 2,-1 2,-1 2,-1 2,1 -1,2 -1,1 0,2 -3,-1 -1,1 0,2 -1,2 0,2 0,2 -2,1 0,2 1,2 -2,1 -2,0 0,2 2,1 -2,1 1,2 0,2 0,2 0,2 -2,1 2,2 2,-1 1,-2 0,-2 0,-2 2,1 0,-2 2,-2 -2,-1 -2,1 1,-3 2,-1 0,-2 -1,-2 2,-1 0,-2 0,-2 0,-2 1,-2 2,2 1,-2 2,1 0,-3 0,-2 1,-1 2,-1 0,-2 3,-1 0,-2 2,-1 1,-2 0,-2 -3,-1 -1,1 0,2 -2,1 0,2 -1,1 -2,2 -2,-2 0,-2 2,-1 0,-2 2,-1 2,-3 2,-1 0,-2 3,-1 -3,-1 1,-1 2,-1 2,-1 0,2 2,2 -1,2 -1,1 -2,0 0,2 3,1 0,3 2,-1 2,-1 -1,-2 2,-1 -2,-2 2,-1 2,-1 2,-1 1,3 -2,1 0,2 -1,2 2,1 -2,2 -3,0 -1,2 2,6 2,-4 6,-1 3,-1 3,-3 6,3 3,-3 4,-2 3,-3 -2,-1 1,-2 1,-1 1,-2 3,0 1,2 -2,1 0,2 4,0 1,-2 0,-2 -1,-2 -1,-2 -4,0 1,-2 2,-1 1,-2 0,-3 2,1 1,-2 0,-2 -2,-1 2,-2 1,-3 0,-2 -1,-3"/>
    <path style="fill:none;stroke:#000000;stroke-width:1"
          d="m 194,229 1,-2 2,-1 0,3 3,-1 0,3 -2,1 1,3 2,-1 3,0 -1,-3 1,-2 1,-1 1,-2 1,-2 0,-3 3,1 3,-1 1,3 -1,2 -2,-1 -1,2 -1,2 -1,2 -1,2 0,3 -3,1 -1,2 0,2 1,3 0,2 -2,2 -1,2 1,2 -3,0 -2,-2 2,-2 1,-3 1,-1 -1,-3 0,-3 -2,-1 -1,2 0,3 0,3 -1,2 -2,1 0,2 1,3 2,1 -1,2 0,3 3,-1 0,-2 2,-1 1,3 1,-2 2,-1 0,3 2,0 1,-3 3,-1 1,-2 2,-2 -2,-1 -3,1 -1,2 -3,0 0,-2 2,-1 1,-2 2,-1 2,-2 2,3 1,-3 1,-2 0,-3 1,-2 1,-2 2,-1 2,-2 -1,-3 -2,2 -3,1 -2,2 -1,3 0,3 -2,1 -2,1 -2,2 -1,-3 1,-2 3,-1 0,-3 2,-2 0,-3 3,-1 1,-2 3,-1 3,0 2,-2 2,-1 2,-1 3,0 0,-3 1,-3 1,-2 1,-2 0,-3 1,-2 1,-2 2,-1 -3,-2 3,-1 1,-2 3,0 1,-2 2,-2 2,-2 2,-2 3,0 1,-2 -4,-1 -3,-1 2,-2 3,0 2,1 1,-2 3,-1 3,-2 0,5 -3,0 -1,3 2,1 1,3 -3,0 -1,2 2,1 -1,3 0,3 -1,2 -1,2 -2,1 -1,2 -1,2 -3,1 -2,3 -1,3 1,3 2,-3 1,-3 3,0 2,1 1,-3 2,1 0,-3 1,-2 1,-2 1,-3 0,-2 1,-3 1,-2 1,-2 3,-1 0,3 3,-1 0,-3 2,1 1,-3 5,-1 -1,2 -1,2 -1,2 -2,2 -1,2 -1,2 3,1 0,2 3,-1 -1,-3 1,-1 2,-1 1,-2 0,-2 1,-2 1,-2 2,3 -1,3 -1,2 -1,3 0,2 -1,1 -1,2 2,1 -2,2 2,2 -1,2 -1,2 -3,-1 1,-2 -1,-3 0,-2 -3,-1 0,3 0,2 -1,1 -1,2 -1,2 2,1 2,-2 2,2 -1,2 0,2 -1,2 0,2 0,3 -2,3 -2,-4 2,-2 -2,-1 1,-2 1,-2 -3,-1 -1,2 -1,1 -1,2 2,1 -2,1 -2,2 -4,1 0,-3 -1,-2 3,0 1,-1 1,-2 0,-2 2,-1 1,-2 0,-2 1,-2 1,-2 0,-2 1,-1 1,-3 -3,0 0,-2 0,-3 -3,0 -1,2 1,3 -2,2 2,1 1,3 -4,-1 -1,3 3,0 -1,3 -2,1 -3,1 3,2 -1,2 -2,-1 -1,2 -1,2 1,3 -2,2 0,5 -3,3 -3,-4 2,-4 1,-2 2,-1 -1,-2 1,-2 1,-3 -2,-1 -2,2 -1,2 0,3 -1,2 -1,2 -1,2 -1,3 -2,3 -2,6 -3,0 0,3 -3,1 -3,0 1,3 -1,2 0,3 -1,2 -1,1 0,3 3,-1 1,-1 3,-2 1,-5 5,-2 3,-4 5,-2 6,2 0,-5 4,0 -1,-6 5,0 4,-1 1,4 -2,3 -4,6 4,-1 3,-3 1,3 3,-2 2,-3 5,-1 2,-2 1,-2 0,-3 1,-2 0,-3 1,-2 1,-2 0,-3 0,-3 2,-2 3,0 1,-1 1,-3 2,1 0,-3 1,-2 1,-3 -3,0 -2,1 -3,0 -3,0 -1,2 0,2 3,-1 3,0 -1,3 -3,1 -3,-1 0,3 -4,0 1,-2 -1,-3 1,-1 1,-2 -2,-2 2,-1 2,-1 -3,-2 2,-1 1,-3 3,-1 0,-3 -3,0 0,-3 3,0 2,-1 2,3 2,-2 0,-4 4,-4 6,1 3,-5 5,-2 5,-2 3,-3 4,-4 3,-10 -4,2 -5,0 -2,4 -5,1 -2,4 -4,3 -5,2 -3,1 -5,0 -2,5 -4,4 -3,1 -2,3 -4,-2 -5,-1 -3,2 -2,2 -2,2 -3,1 -1,-2 2,-2 1,-4 2,-5 4,-2 5,2 3,-3 5,0 2,-4"/>
    <path style="fill:none;stroke:#000000;stroke-width:1"
          d="m 285,172 2,-5 2,-3 5,2 5,1 4,-2 0,-5 -6,-1 -5,0 -5,-2 4,-5 3,-2 -1,-7 5,1 2,-5 5,1 -2,-7 5,1 2,-5 2,-6 2,-3 2,-6 3,-8 7,14 -3,7 -1,6 -6,0 1,7 -5,1 -2,6 -5,0 -2,5 -3,1 9,5 2,-4 5,-3 4,-2 6,0 0,-7 9,-7 -1,4 4,5 -2,3 -1,4 6,1 -2,3 -2,4 5,1 -1,4 -4,0 -3,-3 1,6 -2,3 -1,3 2,4 -5,0 -1,4 4,0 3,1 -1,4 -4,-2 0,3 -1,3 -2,1 0,3 0,3 -3,1 -1,1 -1,2 2,3 -2,1 2,3 -1,1 -1,3 -3,1 0,4 -4,-1 -3,1 0,-3 0,-3 3,1 -1,-3 3,0 3,0 -2,-4 0,-3 0,-4 -3,0 1,-3 3,-1 3,0 0,-3 1,-2 2,-2 1,-3 -3,1 -4,0 -1,3 -2,1 0,3 -4,-2 0,-6 -3,4 0,4 -3,-2 -1,2 -3,0 0,-3 -4,1 1,3 -3,1 -2,2 -3,0 1,3 -3,1 -2,1 1,3 3,0 1,-2 4,1 -1,-3 2,-2 2,-2 3,-1 4,1 3,-1 3,-1 -1,4 -3,1 -3,1 -2,-1 -3,1 -1,3 3,0 3,2 1,-2 3,0 2,-1 3,-1 0,4 -3,1 -2,1 -1,2 -1,2 -4,0 1,-3 -2,-1 -2,2 0,4 1,3 -2,1 -3,1 4,3 2,-1 2,-2 0,-3 1,-1 4,0 0,3 -1,2 -1,2 -1,2 -3,0 -1,3 -2,-1 -2,4 1,3 -2,4 -2,5 -5,3 -4,0 -3,2 -3,1 -2,5 -3,2 -5,0 -3,4 -5,-1 -7,-3 -5,-1 0,7 -5,0 -3,4 -6,-2 -4,2 -1,1 -1,2 -1,2 -2,-4 -1,2 -2,2 -1,-4 1,-2 1,-2 1,-1 0,-3 2,-3 -2,-2 -2,2 -2,2 0,2 -1,3 -1,2 0,2 -2,2 -2,7 5,-1 7,2 3,-2 2,-3 0,-2 3,-1 0,3 -1,3 1,5 5,-1 4,-2 4,-1 3,-6 5,-5 5,1 -1,8 -3,6 9,7 4,-3 2,-4 3,-1 1,-3 4,2 3,-2 1,-3 1,-3 2,-2 4,-1 0,4 -1,3 -2,1 -1,3 -3,2 -4,1 -2,3 -2,1 7,1 4,0 2,-3 3,-2 1,-3 2,-4 0,-4 4,0 2,-7 -5,0 -5,-1 -4,2 -3,0 -2,3 -2,2 -1,2 0,3 -4,-2 -2,2 -3,1 -2,2 -1,-5 3,-1 2,-2 -4,-2 4,-1 2,-2 1,4 2,-2 2,-2 1,-2 3,-5 5,-2 5,1 3,-2 3,-4 3,-5 4,-4 3,-1 0,-2 2,-2 3,-1 2,-2 0,-3 2,-4 -2,1 -3,0 -1,3 -1,2 -4,0 0,2 -2,2 -1,2 -4,-1 1,-3 2,-2 -2,-1 4,-2 3,0 1,-3 1,-3 3,0 3,-1 4,0 1,-2 3,0 0,-3 1,-3 2,-2 0,-3 1,-1 -1,-3 0,-3 3,-2 1,-2 1,-3 2,-2 3,-2 3,1 1,-4 -3,-1 0,-4 4,2 1,-3 0,-3 -3,1 -4,-2 1,-3 1,-3 4,-1 0,5 5,-2 2,7 -2,4 0,5 -3,2 -2,4 4,1 -2,3 0,4 0,4 -4,-1 0,-4 0,-3 -2,-4 -3,2 0,3 -2,2 -2,2 5,0 0,3 -3,1 -1,3 -1,2 -2,2 -1,3 2,1 3,-1 3,-1 1,-2 -1,-4 3,0 3,0 -1,4 0,4 0,4 -1,2 -4,-2 1,-3 -4,2 -2,2 3,2 -1,3 -3,-1 -1,3 -3,3 0,3 -4,-2 1,-3 2,-1 0,-3 1,-1 2,-2 -1,-4 -3,2 -3,1 0,3 -1,3 -1,3 -2,2 -2,2 -1,2 0,2 -3,2 -1,5 4,1 1,-2 0,-3 3,1 0,-3"/>
    <path style="fill:none;stroke:#000000;stroke-width:1"
          d="m 319,241 1,-2 1,-2 3,1 0,4 -1,3 -1,3 -2,1 -2,2 -3,1 0,4 3,-2 1,3 3,-1 1,-3 3,1 1,-2 -1,-4 1,-4 1,-3 2,-1 3,0 4,2 1,-3 0,-3 -3,1 -4,0 0,-3 3,-2 4,1 0,-3 1,-3 3,1 0,4 1,4 -1,4 1,4 -2,1 2,5 -4,-2 -3,-3 -1,3 -3,-3 -2,2 1,4 3,1 -1,3 -3,1 -3,2 -2,2 -2,2 1,4 3,-1 2,-2 3,-2 2,-1 2,-2 2,-2 1,-3 3,1 1,4 -1,3 -4,1 -2,3 -3,0 -2,2 4,2 1,3 3,-3 2,-2 2,-2 1,5 -3,3 4,2 -2,2 1,3 0,3 -1,3 -1,5 -1,-3 -3,-1 -4,-2 -4,-2 0,-2 3,1 3,0 4,1 -1,-4 0,-3 -4,2 -3,0 -3,-1 0,-4 4,1 -1,-3 -4,-2 -3,1 0,3 -1,3 -3,1 -3,0 -1,3 -2,2 1,4 4,-2 0,-4 3,0 4,-1 -1,2 -1,3 -2,6 -4,5 -4,5 -5,2 -5,2 -4,4 25,21 2,-1 4,-2 -1,2 -1,2 1,2 2,-2 1,2 -1,2 -1,2 -2,-2 -1,-2 -2,2 0,-2 -3,0 0,2 -1,1 0,3 2,-1 3,-1 1,2 -2,1 -2,1 2,17 -2,1 -3,0 -1,2 3,3 2,-2 2,-1 2,-2 2,4 -1,2 -3,1 3,3 -1,1 0,2 -1,2 -1,3 -3,2 -2,1 -2,2 -3,-3 -2,-1 2,-2 0,-3 3,3 1,-2 3,1 -1,-3 2,-1 1,-2 -2,-2 -1,2 -2,-2 -1,-2 -2,-1 -1,2 1,2 2,1 0,2 -3,-1 -2,1 -1,2 -1,2 -3,0 -3,0 2,4 3,0 3,3 -3,2 -3,0"/>
  </g>
</svg>
