<?xml version="1.0" encoding="UTF-8" standalone="no"?>
<!-- Created with the Eggbot TSP art toolkit (http://egg-bot.com) -->

<svg xmlns="http://www.w3.org/2000/svg"
     xmlns:inkscape="http://www.inkscape.org/namespaces/inkscape"
     xmlns:sodipodi="http://sodipodi.sourceforge.net/DTD/sodipodi-0.dtd"
     xmlns:rdf="http://www.w3.org/1999/02/22-rdf-syntax-ns#"
     xmlns:dc="http://purl.org/dc/elements/1.1/"
     xmlns:cc="http://creativecommons.org/ns#"
     height="800"
     width="3200">
  <sodipodi:namedview
            showgrid="false"
            showborder="true"
            inkscape:showpageshadow="false"/>
  <metadata>
    <rdf:RDF>
      <cc:Work rdf:about="">
        <dc:format>image/svg+xml</dc:format>
        <dc:type rdf:resource="http://purl.org/dc/dcmitype/StillImage" />
        <dc:subject>
          <rdf:Bag>
            <rdf:li>Egg-Bot</rdf:li>
            <rdf:li>Eggbot</rdf:li>
            <rdf:li>TSP</rdf:li>
            <rdf:li>TSP art</rdf:li>
          </rdf:Bag>
        </dc:subject>
        <dc:description>TSP art created with the Eggbot TSP art toolkit (http://egg-bot.com)</dc:description>
      </cc:Work>
    </rdf:RDF>
  </metadata>
  <g      transform="translate(1321, 700) scale(1, -1)">
    <path style="fill:none;stroke:#000000;stroke-width:1"
          d="m 323,593 -2,-2 3,-1 2,-4 -2,-2 -2,1 1,2 -1,2 -3,-1 0,-2 1,-3 1,-1 2,-1 3,1 0,-2 1,-2 -2,-2 2,-1 0,-2 3,-1 -3,-1 1,-2 2,-1 1,-2 2,-2 0,-2 3,0 -1,-3 -2,1 -3,2 -1,2 -2,1 -1,2 -2,3 -1,2 0,2 -2,-1 0,3 2,2 -2,1 -3,1 -1,3 -6,2 0,-3 -2,-1 -3,1 0,-4 -2,-1 -3,0 0,-3 3,-1 2,-1 -1,-3 3,-1 1,-3 -3,1 0,-3 2,-1 0,-2 4,2 -1,-3 3,0 -2,-4 3,0 1,-1 3,-1 1,-3 0,-3 1,-3 -3,-1 -1,2 -1,2 -2,-2 -1,2 3,3 -3,0 -2,2 -2,1 0,2 -1,2 -2,1 -2,2 -4,1 3,3 -2,1 0,3 -1,1 -1,2 -3,0 -1,-3 -3,-3 3,0 2,-1 -1,-3 1,-3 -1,-3 -3,1 0,3 -1,3 -2,-1 -3,1 1,-4 -3,-2 3,-1 1,-1 2,-2 -1,-4 -2,-1 -1,3 -3,-1 0,3 -2,1 -2,-4 1,-2 2,-2 1,-2 2,-2 1,-4 2,-1 -2,-2 0,-2 -2,1 -1,-3 2,-1 2,0 0,-3 -1,-3 3,-1 -1,-4 -2,1 -2,2 -1,2 -1,2 2,1 -3,1 -4,1 -3,-1 0,3 1,3 3,-1 2,4 0,3 -1,3 -2,2 -2,1 0,-4 1,-2 0,-3 -3,1 -3,0 2,-3 -1,-3 0,-3 -5,-1 3,-2 3,-1 3,-1 4,0 1,-2 -2,-2 3,0 1,-1 1,-2 1,-2 0,-3 1,-3 -4,0 0,-2 2,-2 0,-3 -3,1 -2,1 -2,1 2,2 -1,1 -1,2 1,3 2,-2 2,2 -1,2 -1,2 -2,-1 -4,1 -2,1 1,3 -3,0 0,2 -5,-3 4,-2 1,-3 2,-2 0,-3 -3,1 -2,2 -2,1 1,-6 3,0 1,-2 2,-1 3,-3 1,-1 1,-2 2,2 2,-2 -2,-2 1,-2 0,-3 0,-3 -2,-1 -1,2 0,2 -2,1 2,2 -2,1 -5,-2 -1,2 0,2 1,3 -2,2 -2,1 1,-4 -6,-1 2,-4 3,-3 3,-4 5,1 0,-3 2,-1 0,-2 -2,-1 3,-1 0,-2 -3,0 0,-3 0,-2 1,-1 0,-2 3,0 0,-2 -1,-3 -2,2 -2,1 -2,-3 -1,2 -2,1 3,2 -1,1 -3,1 3,1 1,2 -3,3 -1,3 -3,3 -3,2 2,-7 1,-2 1,-3 -1,-2 1,-2 0,-2 0,-2 0,-5 5,-5 5,1 1,-7 3,-4 -1,-5 4,1 5,1 3,-2 4,-2 2,6 3,-3 -1,-5 3,-2 1,-3 0,-5 4,1 2,-2 1,-4 5,2 4,-1 3,-2 1,-4 3,-2 3,-3 1,-4 0,-5 4,1 0,-5 2,-3 1,-4 1,-4 3,-4 -5,-1 3,-4 5,-1 6,1 3,0 1,-2 4,1 2,-2 2,-3 4,0 4,0 4,0 4,0 3,-2 0,-4 4,1 2,-3 3,-3 4,-1 1,-3 2,-3 5,-1 4,1 0,-3 0,-4 2,-3 4,0 -1,4 -1,3 2,4 -1,3 -2,2 -3,-2 -4,0 -2,2 1,4 -4,1 -2,1 -4,0 -1,4 4,1 2,4 2,-4 3,-2 3,-1 1,-5 4,1 4,2 3,1 -5,2 -3,-1 0,4 -3,1 -2,2 -2,1 -1,3 -4,0 -3,1 3,3 4,0 1,4 -4,0 0,3 -3,2 -2,2 -2,2 -3,2 -1,3 -3,2 0,3 4,-1 3,-2 1,-3 4,-2 3,-2 2,-1 2,-3 4,0 -1,5 4,0 1,-5 2,-1 2,-3 4,0 1,-3 4,2 -1,-5 3,1 2,-4 4,-2 1,-4 3,-3 0,-4 4,0 4,0 -2,5 -3,4 -2,4 -4,3 -1,4 -2,3 -3,3 -3,2 -5,-1 -1,3 -4,1 0,5 -4,0 -1,4"/>
    <path style="fill:none;stroke:#000000;stroke-width:1"
          d="m 407,407 -1,4 -4,1 -1,5 -4,2 -3,2 -4,1 -2,2 -4,1 -2,-5 2,-2 3,-2 4,0 3,-2 3,-2 1,-4 4,-2 1,-4 -4,0 -4,1 -1,4 -3,2 -3,2 -4,1 -3,-1 -2,2 -2,2 0,4 -2,4 4,1 -1,4 -5,-2 -1,3 -1,4 -4,1 -4,0 -3,1 2,5 5,0 4,-1 4,-1 2,-5 6,-2 3,1 3,-2 4,0 2,-3 4,-1 3,-3 3,-3 2,-4 5,-2 0,-5 4,-1 1,-5 4,1 2,-4 6,6 2,-3 1,-3 3,-3 3,1 2,-2 2,-3 -5,-3 4,-1 1,-3 2,-3 4,2 2,-1 4,0 4,0 3,-1 4,0 3,-2 0,-3 2,-3 2,-3 3,-4 2,-3 4,-3 2,-3 3,-1 4,-1 4,1 0,-4 -1,-4 -4,2 -3,1 -4,0 -3,2 -2,3 -1,3 -4,1 -1,4 -2,2 -3,3 -2,3 -1,4 -4,0 0,-5 -4,0 -1,3 0,3 -4,0 -4,0 2,-4 1,-1 1,-2 2,-3 1,-4 2,-3 1,-2 1,-2 2,-3 3,2 -1,3 -1,3 -3,2 -1,4 4,0 3,-2 2,-3 2,-3 0,-4 4,0 2,-3 2,-3 3,-2 -1,-4 3,-1 -1,-4 4,-2 1,4 -1,6 4,-1 2,-2 1,-3 -3,-4 4,-1 1,-3 3,-2 2,-3 1,-3 2,-4 1,-4 -4,0 -3,3 -1,4 -2,3 -3,3 -3,2 -4,0 -3,2 -3,1 -1,4 -3,1 -2,3 4,2 -3,3 -2,3 -3,1 -4,0 0,-3 0,-3 3,1 -1,-3 3,0 -2,-3 2,-2 1,-2 -2,-1 3,-2 2,1 2,-4 -3,0 -3,0 2,-3 1,-1 0,-3 1,-3 -1,-3 1,-2 0,-3 3,2 1,3 -1,2 1,3 -2,1 0,3 4,2 3,-2 4,0 3,-2 2,-3 1,-3 3,-3 0,-4 4,0 5,1 2,-2 4,-1 3,-1 1,-3 -4,0 -4,1 -4,0 -2,1 -4,0 -5,-1 -1,3 0,4 -3,2 -2,2 0,4 -4,1 -1,-5 0,-3 2,-2 3,-2 0,-4 2,-3 3,-2 5,1 2,-2 1,-3 2,-3 -1,-4 2,-3 -3,-2 -3,2 1,5 -2,1 -2,3 -2,1 -4,1 -3,0 -1,3 -1,2 -1,2 0,3 -2,2 -2,1 -1,-3 2,-2 -2,-1 2,-2 1,-2 2,-3 1,-3 2,-1 1,-2 3,0 2,-3 2,-2 1,-4 2,-2 0,-4 0,-4 2,-2 2,-1 1,-3 4,1 0,4 0,4 -3,-1 -2,3 0,3 4,-1 1,4 4,0 -1,-4 4,2 1,-3 4,0 0,-4 0,-3 -4,-1 0,4 -4,1 0,-4 0,-4 4,-1 4,1 0,-4 4,-1 2,-2 3,0 3,0 0,-3 1,-3 -3,0 -2,2 -3,0 -5,3 1,-3 0,-4 4,0 2,-1 -1,-4 1,-2 0,-3 2,-2 1,-2 2,-2 1,-3 3,0 1,-3 2,-2 -4,-2 -2,3 -3,0 -2,1 1,3 -2,2 -2,2 -2,1 -1,3 0,4 -1,3 -4,0 0,4 -1,3 0,4 -1,3 -4,1 -4,0 -3,-1 3,-3 4,0 1,-3 0,-4 1,-3 0,-4 3,-1 2,-2 0,-4 -1,-4 3,-1 4,-2 -3,-1 -4,-1 -4,-1 0,4 -4,1 1,4 4,-1 0,4 -4,1 -1,4 -1,3 0,4 -1,3 -4,-1 -1,3 -3,2 1,4 -2,2 -2,2 -1,2 -3,0 0,-3 -3,1 -1,1 0,3 -2,2 -1,2 -1,3 -1,3 3,0 1,-3 2,1 0,-3 1,-2 2,1 0,-3 3,1 0,4 -3,2 1,3 -3,0 -2,2 2,1 -1,3 -3,1 0,-3 -2,-2 -1,3 -1,3 2,1 -1,3 -1,2 -1,2 -6,-4 1,-4 1,-5 1,-4 0,-6 -3,-1 -2,3 -1,3 0,4"/>
    <path style="fill:none;stroke:#000000;stroke-width:1"
          d="m 464,287 -1,4 -1,4 -2,2 -4,1 -3,1 0,4 -3,2 0,4 5,0 2,-3 2,-2 2,-2 5,-1 0,5 -3,3 -3,2 3,5 -1,4 -2,3 -1,4 -1,4 0,5 -3,1 -1,4 -1,4 -1,4 -3,3 -4,1 2,5 -2,5 -3,-5 -4,3 -4,1 -3,-1 -2,3 0,4 -2,2 -1,4 -3,1 -2,3 -4,0 -2,3 -2,3 -3,-1 -2,3 -4,2 -1,-4 1,-3 2,-3 4,0 2,-3 3,-2 4,0 1,-4 2,-1 2,-4 1,-4 -4,0 -3,3 -4,0 1,-4 3,-2 4,-2 2,-3 2,-2 1,7 3,-2 4,2 4,0 2,-4 0,-4 3,-2 3,-1 3,-3 -4,-2 1,-4 3,-1 1,-4 3,-2 0,-5 1,-3 2,-4 1,-4 -4,-1 -2,3 -1,3 -3,2 -2,3 4,2 -3,3 -2,3 -3,4 -3,2 3,4 -3,2 -3,4 0,4 -4,-1 -1,-5 2,-3 2,-2 0,-4 1,-4 2,-2 4,0 0,-5 -5,0 -4,1 -2,3 -1,3 0,4 -2,3 -1,3 -2,2 -3,1 -2,3 -2,3 -3,2 0,-5 1,-4 2,-2 0,-3 2,-4 2,4 2,-4 1,-3 0,-3 2,-3 1,-3 2,-2 4,0 0,-4 4,0 1,4 4,-2 3,-4 2,-4 -3,-1 -3,3 -2,1 -4,-2 -4,0 -2,3 -3,2 -2,-4 -3,1 -3,1 0,4 4,-1 0,4 -2,2 -1,3 0,4 -3,1 -4,-2 -1,4 3,1 -2,4 -4,1 0,-4 -4,2 -2,3 -2,2 0,4 -3,2 -2,1 -4,1 -2,1 0,4 -4,1 -2,2 -2,3 -4,-2 -2,3 0,4 -4,0 -4,0 -4,0 -4,0 -3,-1 -1,2 -3,1 3,2 -2,2 -4,-1 -6,-1 -4,2 -4,0 -3,4 -6,0 1,-4 3,-2 4,-4 4,0 0,-5 3,-3 2,7 3,-3 0,-5 0,-4 3,-2 5,2 3,1 0,-3 2,-2 1,-3 -4,1 1,-4 3,-1 -3,-3 2,-1 1,-2 0,-3 1,-2 0,-3 3,3 2,-2 -2,-3 3,0 3,-3 -4,0 0,-3 2,-2 -1,-3 2,-1 -1,-3 4,1 2,-3 4,0 3,-3 -4,-1 0,-4 4,0 3,-1 2,-4 2,-3 2,-3 2,-4 2,-3 3,-3 -1,-4 -4,2 -3,2 -2,1 0,4 -2,3 -2,3 -1,4 -4,1 -4,-2 2,-3 2,-1 2,-4 2,-3 1,-4 2,-4 3,-1 4,-1 4,-1 2,-3 1,-3 2,-3 -6,-2 3,-2 4,0 1,-3 2,-3 1,-4 1,-4 2,-2 3,-3 1,5 4,0 4,2 3,-2 4,0 2,-2 2,-2 2,-2 2,1 1,-4 -2,-1 1,-3 1,-2 4,-1 3,-1 4,-1 0,4 -2,3 -4,-1 -1,3 0,4 -1,3 -4,1 -2,1 -2,2 -2,2 0,3 -4,-2 -4,2 -3,-1 0,4 0,4 -2,3 -2,3 0,4 0,4 4,-1 1,-4 2,-3 2,-1 0,-5 2,-2 2,-1 3,-1 1,3 -2,2 1,3 -3,1 1,3 3,-1 2,-4 2,-3 2,-1 0,-4 -4,0 0,-3 2,-2 4,-2 0,4 3,3 2,-3 -1,-4 1,-3 0,-4 3,-1 2,-3 2,-3 1,-4 1,-4 4,0 2,-2 1,-3 4,0 2,-2 1,-3 1,-3 -4,-1 -2,3 -2,2 -3,1 -2,3 -3,-4 -1,4 -2,2 -3,1 -4,1 -4,0 -2,2 -3,0 -1,2 -1,2 -1,3 1,3 -4,-1 1,4 -4,1 -4,0 -4,1 -1,-4 3,-2 4,0 0,-4 -4,0 -5,1 -2,2 -3,1 -2,3 -3,2 -2,4 -1,4 -2,3 -2,3 -4,2 -3,2 0,5 4,2 -2,3 -4,-1 -2,2 -4,1 -2,4 -3,1 1,4 -2,3 -1,3 -3,2 -1,2 -1,3 -3,0 -2,2"/>
    <path style="fill:none;stroke:#000000;stroke-width:1"
          d="m 365,296 -3,1 -1,3 -1,3 2,4 2,-1 0,-3 1,-2 1,-2 3,-1 3,0 1,4 -3,0 -2,2 4,2 -3,1 0,3 -3,-1 -2,2 -4,-2 -4,0 -3,2 -4,1 5,4 -5,1 -3,3 -2,4 -2,4 5,2 3,-3 1,-4 4,-1 4,-1 1,-3 0,-3 1,-2 3,1 0,4 -1,3 -1,3 -1,2 -2,1 -3,2 -3,3 -2,4 -3,1 -4,-2 -4,-2 -2,3 -4,2 -2,1 1,4 -3,2 -2,3 -3,1 0,4 -2,3 -1,5 0,4 4,-2 1,-3 2,-3 2,-2 1,-3 2,-3 3,-2 1,-4 3,-1 3,-2 6,2 -1,4 -3,1 -4,2 -1,5 -3,1 -3,3 -3,4 -2,5 -4,1 -4,1 0,4 -2,2 1,4 0,4 -2,3 -3,3 -2,3 -2,2 0,4 -1,3 -3,3 -3,2 2,5 4,0 2,-4 3,-2 2,-3 -1,-5 3,-2 2,-4 3,-2 1,-5 4,-1 1,5 -2,4 -1,5 -4,1 0,5 -1,4 -2,3 -4,2 -1,4 -3,2 -4,-1 -5,-2 -1,4 -3,2 -3,4 -1,4 -2,3 -4,1 -2,3 -6,1 0,-4 2,-3 2,-3 4,0 2,-4 3,-4 2,-4 2,-3 2,-3 -1,-4 -4,2 -2,3 -2,4 -2,2 -2,3 -3,2 -4,1 -2,4 -2,5 -1,4 -3,3 1,6 -4,4 -1,-6 -4,1 -2,4 1,7 -6,0 -1,-7 -5,0 -2,4 -6,0 -4,3 -5,-3 -4,0 -5,-1 1,-5 4,-3 5,-4 1,7 6,-1 3,-4 5,-1 2,-3 4,0 1,5 4,-3 5,-1 1,-4 3,-2 2,-5 1,-4 2,-2 2,-3 2,-2 3,1 2,-3 2,-3 3,-2 1,-4 4,-2 2,-3 3,-2 1,5 4,-2 2,-3 -4,-2 4,-3 -4,-2 3,-3 3,1 2,-2 4,-1 1,-4 0,-4 0,-4 1,-4 0,-4 -1,-4 1,-3 2,-3 1,-4 1,-4 -4,-2 -1,4 -2,3 -1,5 -3,2 -4,0 -1,-3 1,-3 2,1 1,-2 0,-3 2,-1 -1,-3 3,-1 0,-3 4,-1 1,-3 4,1 0,5 4,0 1,-4 -2,-4 3,-1 4,-1 3,-1 2,-4 1,-4 2,-3 -1,-4 3,-1 2,-3 0,-4 0,-4 4,1 3,-2 4,-1 -1,-5 3,-3 5,-2 1,-2 4,0 1,-3 2,-2 1,-2 -1,-3 3,0 0,-3 -4,-1 -2,2 -1,2 0,3 -2,1 0,3 -3,-1 -4,2 -4,0 -2,4 -2,5 -4,2 -4,-1 0,-4 4,0 1,-3 1,-4 2,-4 4,-1 1,-3 5,2 3,-1 1,-3 0,-3 -4,0 -5,0 0,-5 4,-2 0,-5 -5,1 -3,1 -4,0 3,4 0,4 -1,3 -1,3 -2,3 -2,2 -1,3 -2,3 -4,0 1,3 -1,2 -3,1 0,3 3,-1 3,4 0,4 0,4 -2,2 -4,-1 1,-5 1,-3 -4,-1 0,3 -1,2 -1,3 -2,2 0,3 -1,3 -3,-2 0,4 -4,2 -1,2 1,4 2,-2 2,-2 3,0 2,-2 2,-3 1,-4 3,1 1,4 -2,4 -2,3 -3,2 -4,0 -3,2 -2,2 -3,-3 0,3 -2,2 0,3 -3,0 -2,4 -3,4 -1,2 -3,6 -1,2 1,3 -1,3 3,0 -1,4 -3,1 -1,-3 -3,2 2,3 0,3 -3,0 -3,0 -3,1 -1,-2 1,-1 -1,-3 -2,1 0,-3 1,-2 -1,-3 -3,-1 1,-2 0,-2 1,-2 -3,-1 -1,3 -1,2 -2,1 -1,2 -2,-1 0,3 -2,2 0,2 -2,1 0,2 -2,1 2,2 -1,2 -1,2 -2,2 -2,1 0,2 3,1 1,-2 2,-1 1,-2 1,-2 1,-2 0,-2 1,-2 2,-1 -1,-2 1,-2 2,2 2,-2 -2,-1 1,-3 3,1 0,2 0,3 0,2"/>
    <path style="fill:none;stroke:#000000;stroke-width:1"
          d="m 283,368 -1,1 -2,1 -2,1 -1,2 -1,3 -1,2 0,4 -2,-2 -1,2 -1,2 -2,1 -2,0 -3,1 -2,3 -2,3 -3,3 -4,0 -2,3 1,4 2,5 3,-2 -1,-5 4,0 2,-3 3,-3 2,-3 2,-2 2,-1 2,2 -1,3 3,0 1,-2 -1,-3 -2,-2 2,-1 2,1 1,-2 1,-2 -2,-2 2,-1 0,-2 0,-2 2,-1 1,-2 3,-1 0,2 -1,2 -1,2 0,2 -1,2 0,2 -1,2 3,0 2,-1 -1,-3 2,-1 1,-2 -2,-1 2,-2 3,1 3,-1 0,3 -3,1 0,3 -2,1 0,3 -3,2 -2,1 0,3 -3,1 0,-3 0,-3 -2,1 -1,2 0,3 1,3 -3,0 -3,2 -3,-1 -3,2 -2,3 -4,2 0,4 -3,3 -4,1 -1,5 -3,2 -3,3 0,4 6,-1 4,0 1,-3 5,-2 -5,-3 4,-2 2,-1 2,-3 0,-4 4,1 0,-4 3,-2 5,-1 3,-1 2,-3 3,-1 2,-3 2,-2 3,-2 1,-3 2,-3 2,-3 0,-4 4,0 0,-4 4,0 1,-4 1,-4 4,0 0,4 -1,4 0,4 -4,1 4,3 -4,1 -4,0 -1,4 -3,3 -1,4 -3,2 -3,3 -2,3 -4,2 -1,3 -3,2 -2,3 -2,-5 -3,2 0,4 -2,3 -2,1 -2,2 -1,4 0,5 -4,0 -1,4 -2,3 -4,-2 -5,-1 -4,2 -4,1 -5,2 -1,-7 4,0 -1,-5 1,-4 1,-4 3,-1 3,-3 1,-4 -4,-2 1,-4 0,-4 -4,1 -2,3 -2,3 4,4 -5,1 -1,4 -1,4 0,5 -3,2 -2,5 -2,5 -5,4 -3,3 0,4 -1,4 -5,0 -4,1 -6,-1 -5,0 4,-6 4,0 2,-3 5,4 -1,-5 3,-3 -1,-5 5,0 2,-4 3,-5 3,-3 2,-3 0,-5 1,-4 1,-4 1,-3 3,-3 3,-3 3,-2 5,1 3,-3 4,0 2,-3 1,-3 2,-3 2,-4 1,-2 2,1 1,-2 1,-2 -2,-2 -2,2 -2,1 -3,2 -2,2 -2,3 -4,1 2,4 -4,0 -2,3 -3,-4 -2,4 -4,1 -2,3 -2,1 -4,2 -1,5 -2,4 -1,3 1,5 -3,3 -4,5 -4,3 -5,0 -5,0 0,5 5,0 2,6 -4,0 -4,0 -1,3 -4,3 -3,1 -3,3 -2,3 -5,1 -5,-1 -4,0 -5,-2 -4,0 -6,-1 2,-4 3,-2 5,2 5,-1 5,0 3,-1 5,-1 4,-3 4,0 1,-5 1,-4 0,-5 1,-4 2,-2 2,5 4,-4 4,-2 4,-1 3,-3 -5,-4 5,-1 2,-5 2,-4 2,-5 2,-2 4,-2 2,-2 4,0 2,-4 2,-2 4,2 1,-4 4,0 1,-4 0,-4 -4,2 -3,1 -3,2 -4,1 -4,1 1,4 -4,0 -3,2 -2,2 -5,1 0,5 -3,3 -1,3 -1,4 -4,0 -2,4 -4,3 -4,1 -3,3 -2,3 -2,2 0,5 -2,3 1,5 -5,4 -5,0 -5,-2 -4,1 3,-6 4,-3 1,5 5,0 0,-4 0,-5 2,-3 0,-4 2,-1 3,-2 2,-3 -5,0 -4,1 -1,-4 4,-1 1,-3 2,-2 2,5 3,-4 5,0 4,-3 4,-1 -1,-6 -4,1 -4,2 -6,-2 5,-4 5,-2 4,-1 4,5 1,-4 4,-3 3,-1 3,-2 4,-2 -3,-3 -4,1 -4,0 -2,1 -3,3 -4,-1 -4,1 -4,-1 -1,4 -4,2 -5,0 -4,3 -4,0 -2,3 -2,3 -1,3 4,1 2,-4 3,-2 3,0 0,4 -3,2 -1,3 -3,2 -2,3 -4,-1 1,-4 -4,-2 -2,3 0,4 -2,3 -4,1 0,5 -4,2 -2,4 -1,4 5,-1 3,-3 3,-3 2,-3 4,0 1,-4 2,-1 4,0 1,4 -2,3 -1,4 -4,0 -3,2 -3,3 0,4"/>
    <path style="fill:none;stroke:#000000;stroke-width:1"
          d="m 172,426 -4,0 0,5 -5,-2 -3,4 -1,5 -3,-1 0,5 -5,-2 0,-5 4,-5 -4,0 -5,0 0,5 -1,4 -5,-2 1,-5 -1,-5 -5,0 0,4 -1,4 -5,-3 -5,-1 3,-4 3,-1 0,-5 5,1 2,-4 1,-3 -5,1 -4,0 1,-4 1,-4 3,4 3,-4 3,-3 3,-3 2,-4 5,-2 3,-3 3,-2 3,-2 -1,-4 2,-1 4,-2 2,-3 3,-2 3,-3 2,-3 3,3 -2,4 -2,3 -2,2 -2,2 -3,2 -2,2 0,4 -3,2 -2,3 -4,1 1,5 -5,-2 -3,2 -3,4 2,6 -3,1 -2,4 -1,4 5,2 3,-2 6,1 -2,-7 3,-2 -5,-4 2,-3 5,2 3,-3 1,-4 4,-3 2,-3 1,-3 2,-3 3,-1 2,-3 2,-3 1,-3 1,-3 4,2 3,0 -2,-4 -3,-1 3,-3 -2,-1 -4,0 -1,-4 0,-4 3,1 1,3 4,-2 5,-2 4,1 -1,5 -3,4 6,1 2,-5 5,1 6,0 2,-3 4,0 4,0 4,-1 4,0 2,-2 2,-3 3,-3 2,-3 3,-2 2,-1 2,-3 2,7 -1,4 -3,-1 -2,2 -3,2 -2,3 -3,4 4,0 4,-2 3,-2 4,-1 3,-2 5,1 1,-2 -2,-2 2,-1 2,1 3,0 2,-2 0,-2 1,-2 2,-1 0,3 3,0 0,2 -2,1 -2,1 2,2 -1,2 -2,1 -3,1 2,-4 -2,1 -2,1 -1,2 0,2 0,2 3,0 2,-1 1,-2 3,1 1,-2 2,-2 0,-2 2,-1 0,-2 1,-2 2,-1 2,-1 1,-2 1,-1 1,-2 2,-1 -1,-3 -2,1 -2,1 -1,2 -1,3 -3,1 -3,0 1,-2 2,-1 0,-2 1,-1 1,-2 -2,-1 0,-3 3,0 0,2 3,0 2,-1 -2,-2 1,-2 -3,0 -3,0 1,-2 3,-1 0,-3 -2,1 -3,0 -1,1 -1,2 0,2 -1,2 0,2 0,3 -1,1 0,2 -1,2 -3,-1 0,-2 0,-2 2,-2 -2,-1 1,-2 1,-2 0,-2 1,-2 0,-2 1,-1 2,-1 3,0 1,-1 1,-2 0,-3 -2,2 -3,1 -3,1 1,-2 2,-2 0,-2 2,-1 1,-3 -3,1 -3,2 -1,2 -1,1 -1,2 0,3 -1,1 0,2 0,2 0,3 -1,2 -2,1 -1,2 2,1 0,3 0,3 0,2 -1,2 0,3 -3,0 0,-2 1,-2 0,-3 -3,1 -1,3 -1,2 -1,1 -1,-4 1,-2 1,-2 1,-2 2,1 2,-1 0,-2 -3,-1 0,-3 1,-1 0,-2 3,0 1,-2 -2,-1 1,-2 0,-2 0,-2 2,-1 0,-3 1,-2 1,-2 1,-2 1,-2 2,2 1,-2 2,-1 -1,-3 -2,1 -3,0 -2,1 -1,3 -1,2 -1,3 -1,2 -1,2 -3,1 2,2 -1,2 0,3 -2,1 -1,2 0,3 0,2 -1,2 -1,2 -1,2 -2,-4 1,-2 0,-2 1,-2 1,-2 0,-3 3,-1 -1,-3 -3,1 -2,1 0,2 -1,1 0,2 -1,2 -3,4 -3,2 -2,2 -2,3 -3,2 -1,4 -4,2 -2,2 -2,1 -3,2 -4,-1 -4,0 0,-4 3,-1 4,0 0,-4 5,0 3,-1 2,-4 2,-2 2,-3 0,-4 4,1 2,-3 4,-5 1,-2 2,-2 3,1 1,-2 2,-1 2,-1 1,-2 -3,-1 -1,-3 -2,1 0,2 0,2 -3,-1 0,2 -2,1 -2,1 -1,-3 0,-3 2,1 2,-2 1,-2 0,-2 -3,0 -1,2 -3,-1 1,-2 1,-2 0,-3 -3,1 1,-3 2,-2 2,2 2,-1 0,-2 2,-1 3,-1 1,3 -1,1 -2,0 1,3 -3,0 -1,1 -1,2 3,1 2,2 3,0 0,-2 -2,-1 2,-2 1,-2 1,-2 3,-1 -3,-1 0,-2 3,0 2,1 0,-3 4,0"/>
    <path style="fill:none;stroke:#000000;stroke-width:1"
          d="m 263,301 0,2 0,2 0,3 -2,-2 -1,2 -1,1 -2,1 -1,2 -1,1 0,3 -1,3 2,2 1,-2 1,-2 1,-2 0,-3 3,0 2,-1 2,-1 0,-2 0,-2 3,0 2,-2 -2,-1 -3,0 1,-2 3,0 2,0 2,3 3,-1 0,-3 -2,1 0,-3 4,-1 1,3 0,2 3,0 3,-1 1,-1 -5,-1 2,-1 2,-1 1,-1 3,-1 4,1 -2,1 -2,1 0,2 3,0 3,-1 1,-1 -1,-3 1,-1 3,-2 -1,-5 -4,1 -4,2 -4,-1 -4,0 -3,2 -4,0 -1,-4 3,-1 2,-3 3,1 1,-4 4,0 0,5 4,0 1,-3 4,0 2,-3 0,-4 2,-2 0,-4 0,-4 4,0 4,0 3,-2 3,1 4,-1 2,-3 4,-1 0,-4 3,1 4,0 3,-2 2,-3 4,-1 4,1 2,-3 -3,-4 -3,1 -3,1 -5,1 -2,3 -3,1 -4,-2 1,-4 4,0 4,-2 3,-2 3,-2 2,-1 3,-2 2,5 3,-2 2,-1 5,-2 0,4 -2,4 -4,0 1,4 -1,4 -2,4 -4,-1 -4,1 -3,3 -3,3 -3,-1 -2,3 -4,0 -1,3 -4,1 -3,1 -4,0 -4,1 -4,0 2,5 4,0 3,-1 4,-1 5,-1 4,0 2,-2 3,-2 4,-1 1,5 -2,2 -3,1 1,4 -5,-2 -4,0 -4,1 -3,1 -4,1 -4,0 -4,-2 -1,3 -2,4 3,1 1,5 -1,2 -2,1 -1,1 -2,1 0,2 3,0 3,-1 1,-1 1,-2 2,2 0,-3 2,1 2,2 3,-1 2,-1 1,-2 0,-2 -3,0 -1,2 -2,1 -1,-3 -3,0 0,-5 4,0 3,-1 4,-1 4,0 2,-1 4,0 -1,6 -1,2 -2,1 -1,-3 -4,0 2,2 -1,2 -1,3 3,-1 2,-1 3,1 2,-1 1,-1 0,-2 0,-2 3,-1 1,-3 1,-4 2,-2 2,-2 2,-4 -3,-1 2,-4 -4,-2 2,-3 3,-2 4,0 4,-2 4,0 -1,-5 2,-3 3,-3 2,-1 1,-3 -1,-4 2,1 1,-3 -3,-2 2,-2 -1,-3 -4,-1 -3,2 -4,0 -2,3 -4,-1 1,-4 1,-3 4,0 2,-3 3,-1 5,-2 0,-3 0,-3 0,-3 1,-2 1,-3 2,-2 1,-3 3,-1 0,-3 2,1 2,2 0,-3 0,-2 1,-2 1,-2 0,-2 3,0 1,-2 -3,-1 1,-2 3,-1 2,-2 2,-2 2,-2 1,-3 0,-4 -4,1 -2,3 -2,2 -2,2 -3,-1 0,3 -1,4 0,2 -1,2 -1,2 0,2 -1,2 -2,-2 -2,1 0,2 0,3 -3,0 -1,3 -1,2 -2,2 -3,3 -1,4 1,5 -5,-2 -1,3 -2,4 -2,-4 0,-4 3,-3 2,-3 -1,-4 -3,1 -2,2 -2,2 -1,4 -4,1 -2,-4 2,-2 1,-4 2,-2 2,-3 3,1 4,0 4,2 3,-3 3,-1 0,-3 2,-1 1,-2 0,-2 -3,0 -2,1 -3,1 2,-4 2,-1 3,0 2,0 2,-1 0,4 2,-1 1,-2 1,-2 0,-3 -2,1 -3,0 -2,1 0,-3 2,-1 -4,-1 -1,3 0,2 -3,0 -1,1 -2,2 -3,1 -1,4 2,4 -4,-1 -3,0 0,-5 1,-3 0,-3 1,-3 2,3 3,0 -1,-3 3,1 3,-1 1,-2 -3,-1 -2,1 -2,-2 -2,2 -1,-2 -3,1 -2,2 -1,3 -1,3 -3,2 3,2 -2,2 0,3 -4,-1 2,4 -3,0 0,3 -1,3 -3,-2 0,4 -2,2 4,2 -2,3 4,2 -2,3 -1,4 5,4 0,-4 2,-2 4,-2 1,4 -2,3 0,4 -2,3 -4,-2 -1,3 -2,3 -2,2 -3,2 -4,0 -4,0 0,4 -3,1 0,4 4,2 -1,4 -3,1 -2,3 -3,-5 2,-3 -5,-2 3,-3 0,-4 3,-2"/>
    <path style="fill:none;stroke:#000000;stroke-width:1"
          d="m 315,240 1,-4 4,-1 4,0 2,-1 2,-2 2,-2 2,-4 -3,-1 -4,1 -3,2 -3,2 -2,-1 1,-3 2,-2 -2,-2 2,-2 2,2 1,-3 3,1 2,-3 -4,-1 0,-2 3,-1 0,-3 -3,1 -2,1 -1,2 0,2 -2,1 -1,2 -2,1 -1,1 -1,2 2,1 -2,1 0,2 -3,-1 -1,1 -3,0 1,-3 2,-1 1,-1 0,-2 -3,0 0,-3 2,0 0,-2 0,-2 0,-2 0,-2 1,-2 1,-2 2,1 -1,3 3,-1 0,2 -1,2 -2,0 0,3 0,3 2,-1 1,-2 2,-1 0,-2 2,-2 -1,-2 -1,-2 -2,-2 0,-3 -3,2 0,-2 0,-3 -1,-3 -3,0 -1,2 2,1 0,2 -1,2 0,2 -1,2 -1,2 -1,1 1,3 -1,1 0,2 0,3 -1,1 0,2 -1,2 0,4 -2,3 -3,2 -3,4 0,3 -2,3 -3,-4 -3,-1 2,-4 3,-2 2,-2 4,-3 -4,-1 1,-4 4,0 1,-3 2,-2 -2,-1 1,-2 0,-2 2,-1 -2,-2 2,-2 1,-2 1,-2 -2,-2 2,-1 -1,-2 1,-3 2,-2 -2,-2 -2,2 -1,2 -1,2 -1,1 0,2 1,3 -1,1 0,2 -1,2 -1,2 0,2 -1,2 -1,3 -3,-1 1,-4 1,-3 1,-2 0,-2 0,-2 2,-2 -3,-1 -3,0 0,-2 1,-1 3,1 0,-2 1,-1 2,-1 1,-2 1,-2 2,-1 2,-1 -4,-1 -3,0 0,2 -1,2 -3,0 0,2 -2,1 -2,1 -2,1 0,2 0,2 2,2 3,1 -1,1 0,2 -1,2 -2,2 -1,4 -4,-2 1,-4 3,-3 -2,-3 -3,1 -3,4 -2,3 0,4 -2,2 0,4 -2,3 -1,3 -3,-2 -4,1 -1,4 -2,2 0,4 -4,-2 -2,1 0,5 -2,2 -2,1 -4,1 -4,0 -1,4 -2,2 -3,-1 -2,-5 4,-1 2,-4 4,0 3,-2 3,-2 0,-5 4,-1 2,-1 2,-2 2,-3 3,-2 1,-3 4,2 1,-3 -4,-3 3,-1 2,-2 1,-3 2,-2 2,-3 0,-3 -4,-1 -2,2 -1,3 -2,2 0,3 -4,1 -2,3 -4,2 4,2 -3,2 -2,3 -4,0 -2,3 -3,3 -1,-4 1,-3 1,-3 4,0 1,-3 -1,-4 2,-2 3,1 1,-3 4,-1 1,-4 2,-2 2,-3 -3,-2 2,-3 3,-1 1,4 4,0 3,-2 2,-1 3,-1 0,2 0,2 -2,1 -2,1 3,3 2,-2 2,-4 2,-1 1,-1 1,-2 3,0 1,-2 0,-3 -2,1 -2,1 -2,1 0,-4 -2,0 0,3 0,3 -3,-1 0,-2 0,-3 -2,-1 -1,2 0,3 -1,1 -2,1 -3,1 -1,-3 3,-1 1,-2 0,-2 -3,-1 -1,1 0,2 -3,-3 0,3 -1,3 -3,-3 -1,3 -2,2 -2,2 0,3 -1,2 -3,1 -1,2 4,1 -2,2 -3,1 -2,2 -2,-1 0,2 -1,2 0,2 -2,1 2,2 -2,1 -2,1 0,2 -2,1 -1,-3 -2,2 -1,2 -2,-1 -1,3 -1,1 0,3 -3,1 3,3 3,-1 1,-2 0,-2 0,-2 2,-1 2,-1 0,3 0,2 -1,2 0,2 4,2 -3,2 -3,0 -2,-1 -2,3 -1,3 -4,1 -1,3 1,4 -2,2 0,4 -2,3 -2,3 -2,3 -2,4 0,4 -4,0 -4,-2 -1,3 -3,2 -2,5 5,0 3,-2 4,-1 4,0 3,-2 0,-4 1,-3 2,-3 3,-1 0,-4 2,-3 1,-3 5,3 4,0 2,-2 1,-4 4,0 2,-1 5,1 0,-4 3,-1 -2,-4 4,0 2,-4 2,-2 1,-3 1,-1 5,1 2,-3 1,-3 4,1 2,-3 -4,-2 1,-4 4,1 5,2 -2,3 0,4 -2,3 -3,2 -2,1 0,4 -4,-1 -3,-1 -2,2 -1,3"/>
    <path style="fill:none;stroke:#000000;stroke-width:1"
          d="m 273,238 -2,1 -2,3 0,4 -2,1 -2,2 -1,3 -4,-1 -4,1 -3,1 1,4 -4,1 -4,0 -4,-1 -2,2 0,4 0,4 -4,-2 -2,3 0,4 -1,4 -3,1 -4,1 -4,0 -1,3 -4,1 -5,-1 -2,3 1,5 5,-2 5,0 3,-2 3,-2 3,-1 4,-1 3,-3 2,-3 0,-4 4,1 4,-1 -2,-4 0,-4 4,0 4,0 3,1 2,-2 1,-4 2,-2 4,0 4,-1 1,-3 3,-2 0,-4 1,-3 3,-1 2,-3 4,0 5,2 -2,3 -4,0 -3,3 -2,2 0,4 -3,2 0,4 -4,0 1,4 4,1 2,-3 2,-3 2,-2 2,-3 0,-4 4,1 3,-2 2,-3 6,1 2,-2 2,-3 -1,-4 3,-2 3,-3 3,-1 2,-1 2,-1 1,3 -3,3 -3,2 -2,3 0,4 -2,3 -2,3 -4,0 -4,0 -4,2 -3,3 -2,3 0,4 -4,0 2,5 4,0 3,-3 0,-4 2,-3 3,-2 4,0 4,0 4,-2 1,4 -2,3 -4,0 -4,0 -3,2 0,4 0,4 -4,-1 1,4 1,4 -4,0 -2,-5 -4,-1 0,4 -4,1 -2,2 -3,1 -1,3 -4,2 1,4 -3,2 4,2 -3,3 -5,-1 0,-4 0,-4 2,-2 0,-4 4,0 1,-4 2,-2 3,-2 4,-1 -1,-5 -4,2 -4,-1 -1,3 -3,3 -1,3 -4,3 -2,3 -2,3 2,5 -1,4 -4,0 -4,1 0,-4 4,-2 -1,-4 -4,1 -5,-1 2,-3 4,-1 4,-1 2,-3 0,-5 4,2 2,-3 3,-3 1,-4 -1,-4 -3,2 -1,4 -4,2 -5,0 -3,1 3,4 -2,3 -4,0 -3,1 -2,3 -2,3 -2,3 -4,0 -3,2 -2,2 -4,0 -4,2 -5,0 -2,4 0,5 -3,3 -5,-3 -2,3 -1,4 -3,3 -3,0 0,4 4,1 4,-1 1,-3 2,-3 4,1 4,-2 3,-2 0,-5 1,-4 5,0 2,-2 4,0 3,-1 2,-3 4,0 3,-2 3,1 1,5 -3,1 -4,0 -2,2 -3,2 -4,0 1,4 -5,-2 -2,1 -1,6 3,-1 4,0 1,5 -3,1 -3,1 -5,-2 -4,1 -4,2 -2,2 -5,1 0,4 -4,-3 -4,0 -2,1 -2,3 -5,0 0,-5 1,-4 2,-3 -2,-5 -4,-2 0,5 -2,4 -5,-2 2,-4 -2,-5 0,-3 3,0 3,0 0,-3 -1,-3 -2,-2 2,-1 -2,-2 -3,1 -1,1 0,2 3,1 0,2 -3,0 -2,-1 -1,3 -1,2 -3,-1 -2,2 0,3 5,1 -3,3 -3,0 -2,3 -2,2 -2,3 -4,-1 0,-4 2,-2 3,-1 1,-2 1,-2 0,-3 1,-3 1,-2 -2,-2 2,-1 1,-2 1,-2 0,-2 1,-2 1,-2 1,-1 3,0 0,3 -2,1 0,2 -1,2 -1,2 -2,2 2,2 2,-1 1,-2 1,-2 1,-3 2,-1 0,-2 1,-1 0,-2 2,-1 2,2 -1,2 0,2 3,1 0,-3 1,-2 -1,-2 3,0 2,1 3,0 1,3 2,1 0,-2 1,-2 2,-1 2,1 0,2 -1,1 0,2 -2,1 -2,2 -2,1 -2,1 -1,-3 3,-1 -2,-1 -2,-3 -1,1 -1,2 0,2 -1,2 2,1 -1,2 -1,1 1,3 1,3 3,-1 -1,-3 1,-2 2,1 1,-2 2,-1 2,-1 1,-2 3,-1 0,2 0,2 -2,1 -2,2 -1,1 -2,2 0,3 -2,4 4,1 2,-3 0,-4 3,-2 1,-2 4,2 0,-3 -2,-2 3,-1 -2,-1 -1,-3 -2,-1 0,-3 1,-4 1,-4 -5,0 1,-4 4,-1 1,-3 3,-2 2,-4 2,-3 3,-1 1,5 3,-3 -2,-5 4,1 2,-4 2,-3 0,-4 1,-3 0,-4 -3,-4 -2,4 -1,4 0,4 -2,1 0,4 -4,-2 -2,3"/>
    <path style="fill:none;stroke:#000000;stroke-width:1"
          d="m 214,252 -2,2 -3,2 -1,4 -2,2 -3,3 -3,2 -2,4 -3,-4 0,-3 -5,-2 2,-3 -4,-2 3,-2 2,-2 -1,-4 1,-4 3,-3 4,-2 -4,-2 2,-3 4,2 3,-2 2,-3 4,-2 4,-1 0,4 -2,3 -2,2 -2,1 -3,2 -2,3 -2,2 -4,0 0,4 -2,1 2,4 -2,3 2,4 3,-2 2,-3 0,-4 2,-1 2,-2 2,-3 2,-2 3,-1 2,-3 2,-3 2,-4 0,-4 4,0 4,0 2,4 4,-1 0,-4 -4,-2 0,-4 4,-2 0,-3 3,-1 0,-2 3,-1 2,-1 0,-2 0,-2 1,-2 2,1 0,3 2,-1 1,-2 1,-2 0,-3 -2,1 -3,1 0,-2 0,-2 1,-1 3,1 2,-1 0,-3 -3,1 -2,-1 2,-2 -3,-1 1,-3 -2,-2 -1,2 -1,2 0,2 1,3 -2,-1 -1,2 1,2 -3,0 -2,-2 -1,2 0,2 -1,2 -1,2 -3,1 -3,-1 3,-2 1,-2 0,-2 0,-2 2,-1 1,-2 3,1 0,-2 1,-1 0,-2 2,-2 1,-3 1,-1 -1,-3 -2,1 -1,3 -1,2 -2,1 -2,1 0,2 -2,1 -1,2 -2,-1 -1,2 -2,1 3,2 -1,2 -2,1 -2,2 0,4 -2,3 -2,2 -2,1 -3,2 0,4 4,-1 4,0 2,-3 2,-3 2,-3 3,1 3,-1 1,-1 1,-3 2,1 0,-3 1,-1 3,0 -1,3 -1,3 -2,1 0,2 -4,1 -2,2 -2,2 -3,4 -2,3 -4,0 -4,1 -5,-2 -3,1 -2,3 -4,2 -3,1 -4,0 -4,-2 3,-3 -4,-2 1,-3 1,-3 5,1 -1,3 2,4 4,-1 -1,-4 1,-3 4,2 2,-2 0,-4 2,-2 2,-3 2,-2 3,-1 0,-4 4,-2 -1,-3 2,-2 1,-1 1,-2 3,0 2,-2 2,-2 2,-1 2,-2 0,-3 -3,1 -1,2 -3,1 -1,2 -2,1 -2,-2 1,-2 2,-1 2,-1 1,-2 -3,-1 -3,0 0,2 -2,2 -1,-3 -2,1 1,3 0,3 3,1 -1,2 -3,1 -1,2 0,4 -3,1 -3,2 -2,2 -2,3 -2,1 -1,4 -2,3 -4,0 -4,1 0,-4 2,-2 4,0 1,-4 0,-5 3,0 2,-3 3,-1 2,-3 2,-2 1,-2 2,-1 0,-3 -1,-3 0,-2 1,-2 -3,1 -1,3 -3,-2 -2,2 2,3 3,0 -2,3 -3,0 -1,2 -3,-2 1,4 -3,2 -1,2 -3,0 0,3 0,3 -1,3 -3,1 -1,-3 1,-1 -3,-3 -1,2 -1,2 -3,1 -2,1 2,2 -2,1 -3,-2 0,2 0,2 -2,-1 -1,3 3,1 2,-1 -1,4 -2,-1 -2,1 2,2 -1,2 -2,2 -2,-4 0,-4 0,-3 1,-2 0,-2 1,-2 1,-1 2,-1 1,-1 3,0 2,-1 0,-2 1,-1 -1,-3 3,1 -1,-3 -2,-4 -1,2 -1,2 -1,2 -2,1 2,2 -2,1 -3,1 -2,-1 -1,2 -1,2 -1,2 -1,3 -1,3 -4,0 -3,2 -2,2 -3,2 -2,2 -1,3 4,2 1,-2 1,-3 3,1 1,-3 2,-2 2,1 0,5 -2,2 -3,1 -1,3 -3,1 -4,-2 -2,2 -2,3 -3,2 -1,4 -2,3 -1,4 4,0 2,-3 1,-4 3,-2 2,-2 1,-3 3,3 2,-2 3,-1 1,-3 4,2 3,-4 4,1 2,-2 1,-2 1,-2 1,-2 1,-3 1,-2 0,-2 1,-1 2,-2 0,-2 2,-1 1,3 -1,3 -1,2 -1,3 -2,1 0,3 0,4 0,3 -2,2 -3,3 -5,-1 -1,4 -5,-1 -4,0 -4,2 -3,1 0,3 -3,0 0,3 -2,2 -1,3 -3,1 1,4 -2,3 -2,4 -2,1 0,4 -3,2 0,4 -2,3 -1,3 -2,3 -2,4 -3,4 -2,1 -4,1 -2,1 -4,1"/>
    <path style="fill:none;stroke:#000000;stroke-width:1"
          d="m 120,292 -3,1 -1,4 -3,1 -3,3 4,3 3,-2 4,-1 -1,-4 4,0 2,-1 4,-2 4,-1 3,-3 3,-1 0,3 -2,1 0,2 -4,1 -3,3 5,2 1,-3 3,0 3,0 -1,-3 1,-1 -1,-3 1,-2 1,-1 -3,-3 3,0 2,1 -1,-3 2,-1 -2,-2 2,-1 1,-2 0,-2 1,-2 2,1 -1,-3 1,-2 1,-2 2,-2 2,-1 -2,-2 2,-1 1,-1 0,-3 1,-2 2,-1 0,-3 2,1 2,-2 -2,-1 0,-3 3,-1 0,3 2,-1 1,-2 3,-1 -2,-2 -1,1 -3,-1 2,-3 3,1 5,0 5,0 2,-2 5,0 -1,-4 3,-2 4,2 -2,3 1,4 -4,1 0,3 0,5 -2,2 -4,-1 2,-6 -5,0 -5,1 -1,1 0,2 3,1 -3,1 0,3 -3,-1 1,-2 -1,-3 -2,2 -1,2 -2,1 0,2 -2,1 0,2 -2,-1 -1,2 0,2 0,2 3,-1 2,-1 1,-3 2,-1 1,-2 2,1 0,3 -3,1 0,2 -2,2 -2,1 2,2 -3,1 0,2 -2,2 -1,2 -1,2 -1,-3 0,-3 2,-1 1,-3 -2,-1 -1,2 -3,0 0,3 -1,1 0,2 2,2 -2,1 -2,1 -1,2 -1,2 2,1 -2,2 -1,1 0,3 -1,1 -1,2 -2,1 2,2 -1,2 0,4 -3,2 -2,2 -4,2 -3,-1 -3,2 -4,0 2,-5 -4,0 -3,3 -3,2 -3,2 -1,2 3,0 2,0 3,2 1,-2 2,2 2,0 3,2 1,-3 4,-1 0,5 4,0 0,-4 2,-3 4,-1 2,-2 2,-3 2,-3 -3,-1 1,-3 0,-2 0,-2 2,-2 0,-2 2,-1 0,-2 1,-1 0,-3 0,-2 2,-1 2,3 -1,2 0,2 0,2 -1,2 -2,1 -1,2 -1,2 1,3 1,3 2,-3 0,-2 1,-1 0,-2 2,-1 1,-2 1,-1 -1,-3 1,-3 2,0 4,0 -1,2 -1,2 -2,-1 1,3 0,2 -2,2 -2,2 2,2 -2,1 0,3 -2,1 -1,3 -3,1 -2,3 0,4 -2,1 -4,0 -2,2 0,4 0,6 -2,3 1,4 4,-1 2,-3 -2,-5 2,-3 2,-2 4,0 1,4 -3,2 0,4 0,4 -2,3 -4,1 -3,2 -3,2 -1,6 -1,4 2,4 3,-3 2,-1 -1,-5 2,-2 3,-1 2,-2 4,-2 2,-3 0,-4 0,-4 3,-4 0,-3 4,0 1,-2 0,-3 3,-2 2,-1 -1,4 1,4 -2,2 -2,2 -1,2 -4,1 0,4 4,0 3,-2 2,-2 1,-3 4,-3 4,-2 3,1 0,5 -1,4 -5,0 -4,2 -1,2 -3,0 0,3 -4,0 -2,1 -2,3 -4,2 -2,3 -3,2 -2,3 6,1 -2,3 -2,2 -4,0 -2,1 -2,3 -2,1 -4,0 -2,1 -2,-1 0,-3 -2,-1 -1,2 0,2 -1,2 -2,-2 -1,2 -2,1 -2,1 -1,-3 2,-1 0,-2 1,-1 3,0 0,-2 0,-2 3,0 -3,-3 -2,-2 -1,2 0,2 -1,2 -2,-2 0,3 -2,2 0,2 -1,2 0,2 -3,-1 -2,1 1,2 -2,1 -2,1 0,4 3,-1 1,-1 2,-2 1,-2 2,2 2,-1 2,1 -2,2 -2,1 -2,1 -1,2 3,0 2,0 -1,3 2,1 2,0 0,-2 1,-2 -2,-2 2,-1 1,-2 0,-2 1,-1 3,1 1,-2 2,-1 4,0 -1,2 -1,2 -2,-1 0,3 -3,-1 0,2 -3,1 2,2 -1,2 -1,2 2,2 2,-1 0,-2 1,-2 0,-2 3,0 1,-1 1,-2 2,-2 3,-2 4,0 2,-3 2,-2 4,-1 3,-2 2,-3 4,-1 0,-4 -5,0 2,-4 3,-1 2,-3 3,-2 3,-1 2,-2 2,4 4,-2 4,0 0,-5 4,-5 1,5 5,0"/>
    <path style="fill:none;stroke:#000000;stroke-width:1"
          d="m 195,334 -1,-5 5,-1 2,-3 3,1 1,4 -2,2 -3,2 4,2 4,-1 2,-3 -1,-4 2,-3 3,-2 4,-2 4,-2 4,1 4,0 3,-2 2,5 -3,2 -1,4 5,-1 1,4 -3,3 -4,-2 -2,3 0,4 -3,2 -1,4 -5,2 -4,0 -1,4 -4,1 -3,2 -1,4 0,5 -3,1 -4,-2 2,-5 -5,-2 -3,1 -4,0 -1,-6 3,-2 5,2 5,2 1,-4 3,-4 2,4 4,-1 -2,-4 3,-1 5,0 2,-1 0,-5 3,-1 1,-4 3,-3 2,-4 -6,-1 -3,3 -3,3 -1,5 -3,3 -4,1 -3,2 -5,-2 0,5 -4,2 -1,-6 -4,-1 -1,4 -4,2 -5,3 -4,0 1,4 -4,-1 0,-3 2,-4 -3,-1 -2,2 -2,3 1,4 -1,4 4,0 3,-1 3,1 4,0 -2,4 -4,-1 -4,1 1,4 -1,3 -4,2 -2,3 -2,1 -3,2 -2,3 -2,1 -4,2 -4,0 3,5 -4,0 -1,4 -4,3 -4,1 -2,4 -3,1 -3,2 -5,2 -2,2 2,4 -2,3 -1,3 0,5 -2,1 -1,4 -3,3 -2,-5 -4,3 -6,-3 4,-3 1,-4 5,2 2,-4 -5,-2 -2,-5 -3,3 -3,3 -1,4 -5,3 0,-6 -7,1 2,-4 5,-2 3,-2 3,-2 2,-2 4,0 -1,-4 -4,0 -4,1 -2,2 -4,0 -2,4 -4,-1 -3,2 -2,4 -8,-5 4,-3 4,-3 4,-1 3,-2 3,1 2,-2 4,0 4,-1 -1,-5 1,-3 2,-2 3,0 3,4 -4,1 -1,4 4,2 1,-3 4,-1 1,4 -1,3 -2,2 0,4 1,4 4,2 2,-3 -3,-3 2,-3 2,-3 1,-5 5,0 2,-2 4,0 0,-5 2,1 3,0 3,0 1,-5 2,-4 3,-3 4,0 2,-3 3,-2 3,-2 3,-3 4,-2 1,-3 -4,-2 -2,3 -4,2 -3,2 -3,2 -3,3 -4,0 -2,3 -3,2 -3,0 -1,1 -1,2 3,1 -1,1 1,3 -2,1 0,-2 -3,-1 -1,1 0,2 -3,1 -1,-3 0,-2 -3,0 -1,3 -1,4 -7,-2 3,-3 -1,-5 -5,0 -4,1 -3,2 -2,-3 -2,-3 -3,-3 -3,1 -4,1 -1,3 0,4 -4,-1 -1,-4 2,-3 -4,-2 -4,0 -4,0 -2,3 5,3 3,-1 0,4 -2,4 -4,0 0,-5 -3,1 -3,-1 0,4 1,5 -1,5 5,0 2,-4 4,0 3,-1 1,-4 3,4 2,-3 3,1 2,-3 2,-2 -1,-4 4,1 1,4 -2,4 0,4 -1,2 -4,-2 -2,2 -4,0 -3,2 -4,0 -2,4 -5,0 -5,1 -6,-6 3,-5 -1,-5 -4,3 -5,1 4,-6 4,-3 1,-4 4,0 1,-4 2,-3 2,-2 1,-4 -5,-1 -2,3 -2,3 -1,3 -4,1 -2,4 -3,1 -1,5 -5,-1 0,-6 1,-4 4,-1 2,-3 4,0 0,-4 2,-1 2,-3 0,-4 -5,1 -4,2 0,4 -4,1 -3,2 -3,3 -2,5 -5,-8 3,-2 3,-3 1,-4 5,2 0,-4 4,0 1,-4 4,2 3,-2 4,-2 1,-4 2,-3 1,-3 2,-3 2,-3 2,4 -2,2 4,2 -2,2 -2,1 -1,3 -2,2 -1,4 -3,1 2,5 4,0 2,-3 0,-4 3,-2 1,-1 0,-3 2,-2 2,4 0,3 4,2 -1,3 -2,2 -1,-4 -3,1 -1,3 -1,3 0,3 -1,5 4,1 2,-2 0,-4 2,-1 2,-2 2,-2 5,1 -3,3 -1,2 4,2 -3,1 -4,0 0,4 4,0 4,0 2,-1 5,1 1,-3 4,-1 0,-2 3,1 0,-2 -2,-1 1,-2 0,-2 0,-2 2,-1 2,2 -1,2 1,3 2,-1 1,-2 0,-2 2,-1 0,-2 1,-2 2,-1 0,-2 1,-2 -1,-3 -2,1 -1,2 -1,2"/>
    <path style="fill:none;stroke:#000000;stroke-width:1"
          d="m 119,348 -1,2 -1,2 -2,1 -1,-3 1,-2 1,-2 -1,-3 2,1 2,-2 -3,-1 1,-2 0,-2 -3,1 -1,2 -1,3 -1,2 2,1 -2,2 0,2 0,2 -3,0 -1,1 0,2 0,2 0,2 -1,2 -2,-2 -2,-2 2,-1 0,-3 -2,1 -3,0 0,-2 0,-2 -3,1 1,-3 2,-1 0,-2 2,-1 1,-3 3,0 -1,2 0,2 0,2 -2,1 0,2 3,0 2,-1 1,-2 0,-2 -1,-3 2,0 1,-2 -2,-2 2,-1 1,-1 2,-1 0,-2 -3,-1 0,-2 -1,-3 -2,-2 -1,2 -2,1 -3,0 0,-2 0,-2 3,0 2,-2 -2,-1 -1,-3 -3,0 1,3 -2,1 -2,-1 -1,2 -1,2 3,1 -1,2 0,2 3,0 -1,3 -3,1 0,2 3,0 2,-1 1,-2 1,-2 3,0 1,-1 1,4 -3,0 0,2 0,2 -3,0 -2,1 -1,3 -3,2 -2,2 0,2 -3,-3 1,-2 2,-1 2,-1 1,-2 -3,0 -3,1 -3,1 1,-2 1,-2 1,-2 2,1 0,-3 1,-2 0,-3 -1,1 -3,1 0,2 -2,1 -1,2 -1,2 -2,-4 0,-2 2,-1 1,-2 2,-1 1,-1 2,-1 1,-3 0,-2 1,-2 3,0 1,-2 2,-1 2,-1 -2,-2 2,-1 0,-2 2,-1 2,2 4,0 2,-1 0,-2 -3,-1 -1,2 -2,-1 0,-3 -3,1 -2,-2 -1,2 0,2 -3,0 1,2 -2,1 1,2 -2,2 -1,1 -2,1 -3,0 -1,1 -1,2 3,0 0,3 -3,2 0,-2 -2,-1 -1,3 0,2 -1,2 -3,-1 1,-2 1,-3 -3,0 0,-2 2,-1 1,-2 2,1 0,-3 1,-1 0,-3 -3,1 -2,2 -1,2 -3,2 0,-3 1,-2 2,-2 1,-2 3,0 1,-2 2,1 2,2 0,3 3,0 1,-2 1,-1 0,-3 1,-1 1,-3 2,1 0,-2 3,-4 5,1 3,-3 2,-3 3,-2 0,-4 4,1 3,-2 5,-1 0,-4 4,2 2,-2 2,-3 1,-4 2,-3 1,-3 0,-4 3,-2 0,-4 3,-3 3,-2 0,-4 -5,1 0,-4 -5,2 -4,0 -4,2 -2,3 -1,4 -2,3 -2,2 -2,2 -1,3 -4,1 -2,2 0,4 -3,1 -5,-1 3,-4 2,-4 1,-3 3,0 2,-3 2,-3 3,-3 2,-3 1,-4 3,-2 3,-1 4,-1 3,1 2,-3 3,-1 1,-4 2,-3 -5,-1 0,-4 -4,0 -1,4 3,4 -4,2 -4,0 -4,2 -4,0 -2,1 0,4 -2,3 -4,-2 -3,-1 -2,3 -3,0 1,-4 -4,-2 4,-2 4,0 4,2 -1,-4 1,-3 -2,-4 4,0 4,0 -1,4 5,1 2,-3 4,0 0,-4 2,-2 1,-3 3,-1 2,-1 2,-3 -4,-1 1,-3 3,0 0,-3 4,-1 4,-1 0,4 -4,1 2,5 -2,2 -1,3 1,4 4,-1 1,-3 2,-2 -1,-4 2,-3 1,-3 3,0 2,-2 2,-1 3,-1 2,-2 2,-1 1,-3 2,-2 1,-2 0,-2 1,-1 4,1 1,-1 0,-3 3,-1 -2,-1 1,-2 2,-1 0,-2 -3,0 -3,0 0,-3 -3,0 0,2 0,3 3,0 0,3 -1,3 -3,-1 1,-2 -3,-1 -1,3 0,2 -1,3 -2,1 -1,3 -2,-1 -1,3 -2,2 -3,0 -2,2 -4,0 0,-4 2,-2 2,-3 3,3 1,-3 3,-2 3,-2 0,-3 2,-2 1,-2 2,-1 0,-2 0,-3 -3,-1 0,-2 -3,1 -1,-3 -3,0 -2,1 0,3 3,-1 1,3 3,0 2,1 -2,2 -1,2 -2,-1 -1,3 0,3 -3,1 -1,1 -4,0 0,-4 3,-2 2,-2 1,-3 -4,0 -2,2 -1,2 -2,4 -1,2 1,3 -2,2 -1,3 -3,0 2,3 -2,2 -3,0 0,2"/>
    <path style="fill:none;stroke:#000000;stroke-width:1"
          d="m 140,209 -3,1 -1,1 -1,2 -1,2 -1,2 0,2 -1,2 -2,1 -1,2 -2,2 -1,3 -4,-1 2,-5 2,-2 1,-1 2,-1 0,-2 1,-1 1,-2 -2,-1 1,-2 3,0 -2,-2 1,-2 2,1 2,-1 0,-2 1,-1 -1,-3 -2,-4 -1,2 0,2 -2,1 2,2 -3,0 -2,-1 0,3 0,2 -1,2 -2,1 1,3 -1,1 0,2 -2,1 -3,-3 2,-2 0,-2 0,-2 2,-1 1,-2 -2,-2 2,-1 -2,-2 2,-1 1,-2 2,2 2,-2 -2,-2 2,-1 1,-1 -1,-3 -3,1 -1,1 -1,2 -2,1 -1,2 -3,1 1,3 -1,1 -1,2 3,1 -2,2 -1,2 -1,1 -2,3 -4,2 -2,1 0,4 4,0 3,-2 4,0 -1,4 -2,3 -4,0 -4,-1 -1,3 -2,3 3,3 -2,2 -3,-1 -1,3 -3,-3 2,-4 1,-3 1,-2 1,-3 0,-4 -3,1 -2,1 -1,3 -1,4 -2,3 -2,3 -1,4 5,0 0,4 -3,2 -3,-1 0,4 -3,2 -4,2 -2,3 -4,1 -3,3 -4,0 -1,4 -5,2 -2,3 0,3 1,4 -2,-1 -2,2 -3,1 -3,1 -4,2 0,-4 3,-2 1,-2 3,1 1,-2 1,-2 0,-3 2,-2 1,-3 0,-3 2,-2 4,-3 4,0 3,-3 3,-1 5,-1 3,-3 0,-4 2,-3 1,-4 2,-4 1,-4 2,-3 1,-5 0,-4 3,-1 2,4 3,-1 0,-3 3,0 3,-1 2,-2 3,-3 0,-3 1,-2 0,-2 -3,-1 -1,3 -1,3 -4,2 0,-4 2,-4 2,-2 2,-1 1,-1 0,-3 1,-1 3,-1 2,1 -2,2 -1,2 0,3 2,-1 2,-2 1,-2 2,-2 3,-1 1,-2 -3,0 -3,1 -2,-1 2,-2 -3,-1 -3,2 0,-2 -2,-1 -1,2 0,2 -2,1 0,3 -1,2 -3,0 -1,2 -2,2 0,4 -1,3 1,4 -4,1 0,-3 0,-4 1,-3 -1,-4 2,-2 2,-2 3,-1 1,-2 -3,-1 1,-2 3,0 1,-2 -3,0 -3,-1 -1,2 -3,0 2,3 -2,2 -2,2 -2,3 -2,2 -1,2 4,0 -2,3 0,3 -3,0 -1,3 4,1 -4,2 -1,3 2,4 -2,3 -2,-4 -3,0 1,3 -2,2 -3,1 -1,2 -1,1 -2,1 0,2 -1,1 -1,2 -2,2 -2,-4 -3,1 -3,2 -2,1 -1,3 -2,-1 -1,3 -3,2 1,3 -1,3 -3,-1 -3,0 0,-4 3,1 -1,-4 4,-2 1,-4 2,-2 2,-2 1,-2 0,-3 4,0 2,-4 3,-2 0,-2 2,-1 -2,-2 2,-1 2,-1 0,-2 2,-2 2,-2 2,-1 1,3 -1,1 1,3 -2,-1 -2,1 2,2 -1,2 -2,-1 -1,2 -1,2 3,0 -2,2 -3,0 -1,2 -1,4 2,1 1,-2 0,-2 3,0 2,-2 2,-1 1,-1 0,-2 1,-2 2,-1 1,-1 1,-2 1,-2 -3,1 0,-3 2,-1 2,-1 -1,-3 -2,1 -2,1 -1,-3 1,-2 -3,-1 -1,3 -2,0 -2,2 -1,1 -1,2 -2,-2 -1,2 -1,2 2,1 -3,1 -1,2 -1,3 -4,0 0,4 -2,2 -3,1 0,3 -1,2 -2,2 -1,3 -1,2 -1,2 -3,1 -4,1 1,5 -3,-1 -2,3 0,4 -3,2 -4,0 -2,3 0,4 1,4 3,-3 2,-3 3,1 2,-3 3,-2 0,-4 4,2 3,0 3,1 3,0 1,-3 1,-3 -1,-3 3,-1 4,0 3,-3 4,1 2,-3 2,-2 2,-2 0,-3 3,-1 1,-3 4,0 -1,4 -3,3 0,4 -2,3 0,4 -3,1 -6,0 -3,3 -4,0 -3,2 0,3 -2,2 -2,2 0,3 0,3 -3,0 0,3 -1,2 -1,1 -4,0 -1,3 -3,2 0,4 -1,3 -2,3 1,5"/>
    <path style="fill:none;stroke:#000000;stroke-width:1"
          d="m 44,287 4,-2 2,-2 4,1 1,-3 3,0 2,-2 3,-1 3,0 0,4 -3,0 -1,2 -3,1 -1,2 -2,2 1,4 0,4 4,0 0,-3 0,-3 1,-1 1,-3 5,-1 5,-4 3,6 3,-3 2,-4 4,0 3,-2 2,-1 -2,-5 2,-1 2,-3 4,1 0,-4 2,-2 2,-2 -1,-5 -4,0 -2,3 -2,4 -4,0 -1,3 -4,2 0,5 -3,1 -3,3 -5,-2 2,-4 -1,-5 5,2 0,-5 4,-1 2,-4 4,0 2,-2 1,-3 3,-2 4,0 1,-4 4,-1 0,4 0,4 5,-1 1,-2 4,-2 4,2 -3,3 -2,3 -3,0 -2,1 -2,2 1,4 -2,3 -2,2 -1,4 -1,3 -4,-2 0,4 4,3 -4,1 -3,1 -4,3 -5,0 -1,4 6,1 4,-3 4,-1 4,0 3,-2 0,-4 2,-3 4,0 4,0 3,-1 0,-4 2,-3 5,0 1,-3 2,-2 2,-3 1,-4 2,-4 3,-2 4,0 -2,5 -3,2 -1,4 -1,4 -2,3 0,4 -3,2 -4,-2 -2,3 0,4 -4,1 -4,0 -4,1 0,4 -3,3 -2,3 -3,-1 -4,1 -2,1 -2,6 0,2 -1,2 -1,3 -2,-2 -2,-1 1,-2 1,-1 1,-2 -3,-1 -2,1 -1,2 -1,2 -1,2 -3,0 -1,2 -2,2 -1,1 -1,-4 1,-1 1,-2 2,-1 2,-1 1,-2 1,-2 -1,-2 -3,-1 -2,2 2,1 -1,2 -2,1 -2,2 -2,-3 2,-2 -2,-2 3,-1 1,-2 -4,-1 -1,1 -4,2 -1,3 2,4 0,3 -1,3 -1,3 4,-1 -2,4 3,0 2,4 -3,0 0,3 4,1 -2,2 4,2 -3,1 1,3 -3,2 -4,1 1,4 -2,3 -1,3 -3,2 -4,-2 1,-4 3,-2 0,-4 4,-4 2,-2 -1,-4 -4,1 -3,1 1,4 -4,1 0,4 -3,4 -4,0 -4,0 0,5 4,0 4,0 0,4 -4,1 -3,1 -4,5 -3,2 -6,-4 3,-2 5,-1 0,-5 -5,0 -4,-1 4,-4 3,-1 3,-3 4,-2 4,0 2,-1 -1,-5 3,-2 0,-4 3,-1 4,-1 4,-1 -2,-4 -4,0 -3,1 -4,1 -3,2 0,4 -3,2 0,4 -3,-1 -2,3 -5,2 -4,1 -2,4 -4,0 1,-7 3,-3 5,0 3,-1 -3,-5 4,1 3,-2 2,-2 1,-4 3,-2 4,-1 3,-2 4,0 2,-2 2,-2 1,-3 -2,-1 -4,1 -2,2 -4,0 -2,2 -3,-1 -2,3 -3,-4 -1,5 -1,4 -2,3 -4,0 -5,2 0,4 -4,1 -3,2 -1,-8 3,-2 5,-2 3,-2 4,0 1,-4 0,-4 1,-3 4,-1 3,1 4,-1 1,-3 4,2 -1,-5 0,-4 -4,1 -4,1 0,4 -5,-1 -4,0 -2,2 -2,2 0,4 0,4 -6,1 -3,3 -5,1 -1,-6 3,-1 3,-3 4,2 1,-4 -1,-5 -5,0 -2,1 -3,3 -4,-3 1,-5 3,-2 5,-4 1,5 4,-2 2,4 3,-2 4,0 4,1 0,-4 0,-4 1,-5 -4,0 -2,3 0,4 -4,0 -4,-1 2,-4 2,-3 2,-3 3,-2 4,2 2,-1 1,-4 3,-2 4,-3 3,-2 1,-3 3,-1 0,-4 -3,1 -2,-1 -2,3 -2,2 -2,3 -4,0 -2,2 -2,3 -4,0 -3,2 -3,2 -1,3 -3,2 0,4 -4,0 -4,0 0,4 -5,0 -1,-6 2,-4 5,0 3,-2 2,-2 2,-3 3,-2 3,-2 -2,-5 -3,2 -3,2 -3,2 -3,2 -3,3 -5,-1 3,-5 -4,-3 5,-1 4,0 4,-2 3,-2 4,-1 1,-3 2,-2 2,-3 4,0 1,-3 2,-3 1,-4 2,-2 4,0 3,-1 1,-2 1,-2 1,-2 2,-2 1,-2 -3,-3 2,-1 3,0 0,-3 3,1 0,-3 1,-2"/>
    <path style="fill:none;stroke:#000000;stroke-width:1"
          d="m 60,211 2,-1 1,-3 3,-1 1,-2 2,-2 -3,-1 1,-2 1,-3 3,1 -1,2 2,1 3,-1 0,-2 3,0 0,-2 -3,-1 -3,1 -1,-3 -1,1 -2,-2 -1,2 -2,1 0,2 -2,2 0,4 -2,2 -2,-4 -1,2 -2,2 3,3 -3,1 -1,2 -1,1 -3,0 1,3 -3,0 -2,1 -3,1 0,2 4,1 1,3 -4,0 0,3 -2,3 -4,0 -4,-1 0,4 -1,4 -2,3 -2,2 -4,2 -2,2 -3,-1 -2,4 3,1 -3,3 -4,1 -4,0 -4,0 -2,-7 4,1 5,0 2,-4 1,-4 4,0 4,-1 3,-3 2,-3 0,-4 -1,-4 1,-3 2,-3 4,0 2,1 -2,2 -1,3 4,0 2,-2 0,-3 -1,-2 2,-2 2,-1 1,-1 2,-1 1,-2 1,-2 2,-1 2,-2 -2,-1 -2,1 -2,-1 1,-2 1,-1 2,-2 2,3 1,-1 1,-2 -1,-2 0,-2 0,-2 -3,0 0,3 -2,0 -1,2 -2,-2 -1,2 0,3 -1,3 -1,2 3,1 -1,2 -2,1 -2,2 -2,2 -3,0 -5,-1 2,-4 4,-2 2,-3 1,-5 -1,-4 2,-3 -1,-4 2,-3 2,-4 0,-4 2,-3 0,-5 2,-3 -1,-5 -4,2 -1,3 -2,2 1,4 -5,-1 -4,1 -4,-2 -1,3 -3,-1 -2,2 -4,1 3,5 3,-2 4,-1 3,-1 4,1 4,-2 1,5 -3,2 -1,4 -1,4 -4,1 4,4 0,4 -1,3 -2,3 -4,3 0,-4 1,-5 1,-4 -3,-1 -3,2 0,3 0,4 -1,4 0,4 4,1 0,4 -2,3 -3,-4 -2,1 -4,1 -4,2 -2,4 0,4 2,5 4,-3 0,-4 1,-4 4,-1 0,4 4,1 0,4 -4,-1 -1,3 4,2 -3,2 -4,0 -5,2 -2,5 -4,-2 1,-5 -1,-5 -2,-6 1,-5 3,-3 2,-4 6,0 3,-2 0,-4 0,-4 1,-3 -1,-4 2,-3 2,-2 2,-1 3,-2 4,-1 0,-5 -4,0 -2,2 -2,2 -4,-1 -2,3 -3,4 -3,1 2,5 0,5 -1,4 -3,2 -6,2 1,-5 3,-4 1,-4 -2,-5 0,-6 1,-3 5,2 -1,-5 3,-1 -4,-5 2,-3 3,-2 3,-2 5,0 3,-1 4,2 2,-2 2,-1 2,-3 -4,-2 -4,0 0,3 -4,-2 -5,-2 -1,3 -6,1 1,-5 1,-5 1,-6 3,-6 5,-4 3,-3 3,-2 3,-4 -7,-1 3,-4 4,0 4,0 4,-1 0,3 0,3 -3,0 1,3 -1,2 -3,1 -1,3 -2,3 -3,1 -4,2 -1,4 -2,2 -3,4 5,3 3,-2 3,3 3,-1 2,-1 -1,-4 -4,1 0,-3 1,-3 3,1 0,-3 4,1 -2,-4 2,-2 0,-3 4,-1 2,-3 1,-4 0,-4 4,-1 2,-3 0,-4 2,-2 3,-2 2,-2 3,-3 4,-1 0,-3 4,-1 3,-3 4,0 -1,-4 4,0 4,0 2,-2 0,-4 -4,0 -2,2 -4,0 -4,2 -2,1 -1,3 -4,1 -3,2 -2,2 -2,3 -3,1 -2,3 -3,-1 0,3 -2,2 -2,-4 -2,1 0,4 3,2 0,3 -3,1 -1,-3 -4,0 -5,0 0,-6 4,0 1,-5 6,-2 2,-1 4,2 0,-3 1,-2 3,1 0,-3 -1,-3 -4,0 -5,1 5,-7 5,2 2,-4 -2,-6 5,2 4,2 -2,2 -1,2 -2,2 -1,3 0,3 3,-2 3,-1 1,-3 2,-2 3,-1 2,-2 3,1 3,-2 2,-3 3,3 3,-3 2,4 2,-2 -1,-4 2,-2 2,-3 2,-2 1,-3 3,1 2,-3 1,-4 -4,0 -2,2 -4,2 -2,2 -1,3 -2,2 -3,2 -2,2 -4,-2 -3,-1 0,4 -2,2 -5,-1 -1,2 -3,-1 -1,-3 1,-2 0,-6 4,0 0,4 0,3 3,-1 0,-3"/>
    <path style="fill:none;stroke:#000000;stroke-width:1"
          d="m 70,73 2,-2 0,-3 -3,-1 3,-2 3,-1 0,-3 2,-1 0,-4 4,2 0,-3 3,1 0,-3 2,-2 3,0 2,-2 2,1 1,-3 -1,-3 4,1 2,-2 3,-2 3,0 -1,-3 4,2 0,-3 2,-1 3,-1 1,-2 1,-3 2,4 2,-2 1,-2 2,-3 2,4 1,-2 2,-2 2,-1 1,-3 3,-2 2,-1 3,3 -2,2 -3,0 0,3 -2,2 -1,1 -1,2 -4,1 -3,0 -1,3 -3,0 -1,2 -1,2 -3,-3 -1,3 -1,2 0,3 -3,1 0,-3 -4,0 -2,1 -1,2 0,3 -4,-2 0,3 -1,3 -3,0 -2,1 -3,0 1,3 -2,1 -3,1 -3,1 -1,2 -1,2 0,3 -3,0 0,3 4,1 3,-2 1,-2 1,-3 2,-2 4,0 2,-3 3,-1 3,0 1,-3 2,-2 3,-2 1,-3 4,2 2,-1 0,4 -3,0 -1,2 -2,2 -1,2 -1,1 1,3 -1,3 0,3 -1,1 -1,2 0,3 -3,-2 -2,2 -3,2 -1,3 0,3 -1,3 -2,2 -1,2 0,3 -2,2 -2,2 -4,0 0,3 0,3 1,3 -1,3 -3,0 -1,2 -1,2 -1,3 -2,2 -3,2 -3,1 -2,2 0,3 0,3 -4,-2 0,4 -3,1 -1,3 -1,4 -1,4 -4,1 -1,-4 2,-2 -1,-4 2,-1 0,-4 4,-2 2,-4 1,-3 3,-2 4,-2 4,-1 1,-3 1,-3 2,-3 3,-1 -1,-4 -4,0 -3,3 -1,4 -2,4 -2,-4 -3,2 1,4 -4,0 -2,2 -2,3 -1,3 -1,3 -4,0 -1,4 -1,5 -1,3 -3,1 -2,3 5,1 -2,3 -3,2 -3,1 1,4 0,5 4,-1 1,-3 2,-3 3,-3 4,2 -3,3 -1,4 4,2 4,1 -1,-3 2,-2 1,-2 -1,-3 2,-3 2,-2 2,-1 2,2 -2,2 -1,1 -2,1 1,3 2,-1 3,-1 2,-1 2,-2 -1,-4 3,0 -1,-3 1,-2 1,-2 2,-1 1,-3 2,-2 3,-1 0,3 -1,2 -1,2 -1,2 -1,2 -1,2 0,3 -3,1 0,3 -1,3 -2,2 -4,-1 -2,1 -3,1 -1,1 -2,1 2,2 -2,2 -2,1 -3,1 -1,1 4,1 -1,2 -3,1 2,1 0,2 -1,2 -3,-2 0,3 3,1 -2,2 -2,1 -1,3 0,3 -2,2 -1,4 2,1 1,-2 2,-1 0,-2 1,-2 0,-2 1,-1 1,-2 2,2 2,-2 -2,-2 2,-1 0,-2 2,-1 -2,-2 1,-2 1,-2 0,-2 1,-2 2,4 1,-2 1,-2 -2,-2 2,-1 0,-2 1,-1 3,0 -1,3 0,3 0,2 -1,2 -2,2 -2,1 -1,2 2,1 -1,2 -1,2 -1,1 0,2 -1,2 -2,1 -2,1 -1,2 -1,2 2,1 2,2 -1,2 1,3 2,-1 1,-2 1,-2 2,-2 -2,-1 -2,1 -2,-2 2,-2 3,1 0,-2 1,-1 1,-2 0,-2 1,-2 1,-2 0,-2 1,-2 1,-2 2,-2 1,-2 2,-3 0,-4 3,0 0,3 3,0 0,2 -2,1 -2,1 -1,2 3,0 3,0 2,-1 0,-2 1,-2 2,-1 2,-2 0,-2 3,-1 3,0 -1,2 -2,1 0,3 -2,1 -2,1 -1,2 3,0 3,-1 2,-2 0,-2 2,-2 1,-3 1,-3 0,-2 2,-2 1,-2 2,-2 1,-2 2,-2 1,-2 -2,-1 -2,2 -2,1 -3,1 2,1 -1,2 -3,-1 1,3 -1,1 -1,2 0,3 -2,0 -3,0 -2,1 -2,1 -1,3 -2,1 -1,-3 -2,2 -1,-2 0,-3 3,1 1,-1 1,-2 0,-2 -3,1 1,-4 2,-1 1,-3 1,-2 2,-1 1,-2 0,-3 3,3 0,2 -1,2 -2,1 0,2 -2,1 2,2 -2,1 0,3 2,-1 3,0 0,-2 1,-2"/>
    <path style="fill:none;stroke:#000000;stroke-width:1"
          d="m 93,147 0,-2 1,-2 1,-2 1,-2 2,1 3,-1 1,-2 1,-1 2,-2 0,-2 -3,1 1,-3 -2,-1 -1,2 -1,2 -2,1 2,2 -2,1 -3,-1 -2,-1 1,-2 1,-1 2,-1 1,-2 1,-2 -3,0 -2,2 -4,0 -4,1 -1,-3 1,-3 -3,-2 -1,2 -1,3 -3,0 -2,2 -2,2 -1,2 -2,2 -2,2 0,3 -2,2 -3,-1 -2,1 2,-4 2,-3 2,-2 2,-3 0,-3 1,-2 3,1 0,-3 3,0 1,-1 1,-3 2,-2 2,1 -1,-4 3,0 0,-4 4,0 -1,3 1,3 -1,2 -1,1 -1,2 3,1 4,0 5,1 1,2 2,-2 0,-2 0,-2 1,-2 2,1 0,-3 2,1 1,-2 1,-4 2,-2 4,0 3,-2 0,-3 1,-3 1,-3 2,-1 2,-2 1,-2 1,-2 1,-3 2,-2 1,-2 3,1 0,-3 1,-2 2,-2 2,-2 3,1 3,-1 2,-1 2,-2 1,-3 3,-2 3,-2 4,-2 3,1 1,-3 2,-1 3,0 3,0 -1,-3 3,-1 1,-2 4,-1 0,3 1,3 -3,0 -1,2 -2,2 -3,1 -3,0 -1,3 2,1 -2,3 -1,3 -4,-2 2,-3 -4,-2 -2,2 -4,2 -1,3 4,2 1,-3 4,2 -1,3 -2,3 -1,3 -4,-2 1,-3 -4,-2 -2,2 -4,0 -4,0 -2,2 -1,3 -1,3 -3,1 -3,1 0,3 -1,2 4,2 1,-3 2,-2 4,-3 1,-3 2,-2 4,0 3,1 0,3 -4,0 -1,3 -1,2 -4,0 -1,3 -1,3 -2,2 -2,2 -2,2 -2,3 -4,-1 1,-3 2,-2 1,-3 -3,-1 -2,2 -2,2 -1,2 0,3 -2,3 -2,2 -2,3 -2,-1 -2,3 -3,2 -1,2 -2,1 0,2 1,2 -3,0 0,2 3,1 3,-1 1,-2 1,-1 -3,-1 2,-2 4,1 1,-3 2,-1 2,-2 1,-2 2,-2 1,-3 4,1 0,4 -2,3 -2,2 -2,2 -2,2 -2,2 -1,3 -2,2 -2,-1 -2,1 -2,0 4,2 -2,1 -1,2 -1,2 2,1 2,-2 2,-2 4,1 2,-3 1,-3 2,-2 2,-3 3,-2 1,-4 2,-4 1,-3 2,-2 2,-2 2,-2 2,-1 1,-4 2,-3 2,-1 3,-2 1,-3 4,2 0,-3 1,-3 3,1 0,4 4,-1 3,1 2,-2 3,-2 1,-3 3,1 0,-3 2,-2 1,-1 1,-3 -1,-3 -2,1 -2,2 -2,2 -1,2 -3,1 1,3 -2,2 -4,0 0,-3 1,-2 2,-3 2,-2 2,-2 1,-2 1,-2 2,-1 -1,-3 3,0 2,4 2,-2 1,-3 -3,-1 3,-2 2,-1 4,2 -2,2 -1,3 -1,3 -1,2 1,3 -1,3 1,3 3,0 0,-3 0,-3 1,-2 3,0 0,3 -1,2 0,3 0,3 -3,0 -3,0 -4,-2 1,3 -2,2 -3,1 -2,2 -2,1 -2,2 -1,2 0,3 -3,-1 -1,-4 -3,1 -3,2 -3,-1 -4,1 -3,3 -2,3 1,5 2,-1 2,-2 2,-1 1,-2 2,-2 1,3 -2,2 -1,2 -2,1 -1,2 -1,2 0,2 0,2 -1,2 -1,2 2,1 3,-1 -1,-2 3,0 2,-1 0,3 -1,2 -3,1 -1,1 0,2 -2,1 3,2 -1,1 -3,0 -1,2 -1,2 -1,2 -1,2 -3,-1 1,-3 1,-2 0,-2 2,-1 1,-2 1,-2 0,-2 -3,0 -1,2 -1,2 -2,2 0,3 -3,-1 -1,2 3,1 -1,2 -1,2 2,1 -1,2 0,2 -3,-3 -2,1 -1,-3 1,-1 1,-2 -3,-1 1,-2 1,-1 1,-2 2,-1 2,-1 1,-2 1,-2 -2,-2 2,-1 2,1 2,-1 0,-2 1,-2 0,-2 1,-1 0,-3 -3,0 -1,2 0,3 -1,2 -2,-3 -1,3 -2,1 -1,3"/>
    <path style="fill:none;stroke:#000000;stroke-width:1"
          d="m 133,122 1,2 -2,1 0,2 -3,1 -1,2 -2,3 1,3 -3,0 3,3 -2,1 -2,-1 -1,3 -1,1 4,2 1,-2 2,-1 0,3 3,0 2,-1 0,3 3,0 3,0 1,-1 0,-2 0,-2 2,-1 1,3 2,-3 1,-2 1,-2 1,-1 0,-2 3,0 2,-2 0,-2 0,-2 0,-2 2,-1 1,3 2,-2 2,-2 2,-2 1,-2 2,-1 1,3 2,-5 2,-2 2,-2 2,1 1,3 -2,2 -2,2 0,3 0,4 3,-2 1,-3 1,-2 2,-1 0,-3 0,-2 1,-2 2,-1 1,4 0,5 -1,5 -1,1 0,3 -1,1 -2,1 -3,2 3,1 2,-1 2,2 2,0 -1,-3 1,-2 1,-2 2,2 0,2 -1,2 1,3 2,-1 1,-3 2,2 -1,2 3,0 2,-2 2,-2 2,-2 2,-2 -2,-1 -2,1 -2,2 -2,2 -2,-1 1,-2 1,-2 2,-1 -2,-2 2,-1 2,1 -1,-3 0,-2 2,-1 2,-2 2,-2 1,-2 -2,-2 2,-1 0,-2 0,-2 1,-2 2,-1 1,-2 1,-2 -1,-3 -3,0 -1,2 2,1 -2,2 -2,-1 -1,2 0,2 -2,1 -1,2 3,0 -1,2 -2,1 -3,-1 -1,3 1,2 2,-2 3,1 -1,1 -1,2 -2,1 -2,1 -2,1 2,2 -3,0 0,2 0,2 0,2 -1,2 -2,-1 0,-3 -3,0 1,-2 2,-1 0,-3 1,-2 3,-1 0,-2 -5,-2 2,-4 1,-3 4,-1 1,-5 1,-3 1,-2 2,-1 0,-3 0,-3 0,-3 1,-3 0,-3 2,-1 3,0 1,-2 0,-3 3,0 0,-3 1,-3 0,-3 0,-3 -3,1 -3,-3 3,-1 1,-3 3,3 1,-2 -1,-3 3,-1 2,-2 0,-3 1,-3 2,-2 2,-2 0,-3 1,-2 3,1 0,-3 3,0 2,-2 2,-1 1,-3 1,-2 1,-2 -1,-3 1,-2 1,-3 2,-2 -4,-2 -1,2 -1,2 -1,2 -1,2 0,3 -1,1 0,3 -2,1 -1,2 -3,1 -2,2 -3,2 0,4 -3,1 -1,2 -1,3 0,4 -3,1 -2,2 -4,1 -1,2 -2,1 -1,2 0,2 0,3 1,4 4,-2 2,3 -2,2 -2,2 -1,3 -3,-3 -2,3 -3,2 1,4 -1,3 1,5 -2,3 -2,3 -1,3 0,4 -4,1 -3,0 1,3 -1,3 -1,1 -3,1 -3,1 0,-3 3,-1 2,-2 -4,-1 1,-3 2,1 0,-3 3,0 1,-2 2,1 0,-3 1,-3 -3,0 -2,2 -2,2 -3,1 -3,1 0,3 -1,2 0,3 -1,3 -3,1 -1,2 -4,1 0,2 0,2 -3,0 0,2 -1,3 -3,1 1,-2 0,-2 0,-2 1,-2 2,-1 -1,-2 1,-2 2,0 -2,-4 -1,1 -1,2 -2,1 0,2 -2,1 0,2 -2,1 -2,0 0,-3 1,-1 2,-2 1,-2 2,-2 1,-2 1,-2 3,0 4,2 -1,3 4,-1 0,-3 1,-3 1,-3 3,-3 3,-1 2,-1 2,-2 2,-1 3,0 3,0 1,-3 0,-3 1,-2 0,-3 0,-3 1,-2 1,-1 2,-2 -3,-1 -3,1 -1,2 -3,0 1,-3 2,-2 2,-1 1,-2 -3,-1 2,-2 0,-3 3,0 0,3 1,3 0,3 3,0 0,-3 -1,-3 1,-1 -1,-3 1,-2 -3,-1 -3,1 -3,0 -3,0 1,3 -1,2 -3,-1 -1,-3 0,-3 2,-2 3,0 2,-1 3,2 0,-3 0,-3 3,0 3,-1 1,-1 2,-2 1,-2 2,-2 0,-3 1,-2 2,-2 0,-3 -3,-1 -1,3 -3,2 1,3 -1,2 -3,0 1,3 -3,0 -1,2 -3,0 -3,1 0,3 -3,0 -2,1 -3,0 0,3 -3,0 -2,-1 -2,2 -4,0 0,3 -3,2 -4,0 1,-3 2,-1 0,-3 3,-1 3,0"/>
    <path style="fill:none;stroke:#000000;stroke-width:1"
          d="m 169,48 0,-3 3,0 3,0 2,-2 1,-3 3,3 2,-2 -3,-3 2,-2 0,-3 1,-1 0,-3 2,-2 2,-2 -1,-4 -2,2 -2,2 -3,0 0,3 -3,-2 -2,2 -3,-1 -3,0 -2,2 -3,3 -2,2 -3,-1 0,3 -2,1 -2,2 -3,1 -2,1 2,-4 2,-2 1,-2 1,-2 1,-2 1,-1 -1,-3 1,-1 1,-2 3,-2 -3,-3 -1,2 -3,1 -1,3 0,3 -1,2 -1,2 -1,2 -1,1 -1,2 -1,2 -1,2 -1,2 -1,2 -3,0 -1,2 -1,2 -1,2 0,3 -3,-2 -2,2 -2,-1 -1,2 1,3 -3,-1 1,3 -2,3 -1,3 -2,1 -3,1 0,3 -2,2 -1,3 -1,4 4,0 2,-2 1,-3 1,-4 3,2 1,-1 1,-3 0,-3 1,-3 3,-1 1,-2 0,-3 3,1 3,-1 0,3 -2,2 1,3 3,-1 2,-2 0,-3 3,0 3,0 1,-3 3,-3 -3,0 -3,1 -3,1 0,-3 -3,3 -1,-3 1,-3 3,-1 2,-2 1,4 3,-1 3,0 -3,-3 3,-1 2,1 1,-3 3,1 0,-3 2,-2 3,0 1,-1 0,-3 2,-2 2,3 1,-3 3,1 3,-1 0,3 -2,2 -2,1 0,3 -3,1 0,-3 -3,3 -3,0 0,3 -3,1 -2,2 -2,2 0,4 -2,2 0,3 -2,1 -2,2 -3,0 -1,2 -2,2 -2,2 -3,0 1,3 -4,2 1,-2 -2,-4 0,-3 -3,1 0,3 0,3 -1,2 -2,3 -3,0 0,3 -2,2 -3,2 -1,2 -4,-2 -2,2 4,3 -2,2 -1,3 -3,-1 0,4 -1,3 -1,4 -2,2 -3,-1 -4,0 1,4 -2,3 -4,-1 -2,3 -2,4 -2,1 -2,-4 2,-2 1,-3 -3,0 -1,-3 -3,2 -1,-3 0,-3 3,0 2,-2 2,-2 1,-2 1,-2 3,-1 -3,-2 2,-2 3,0 1,-2 -1,-3 -3,1 1,-4 3,-1 2,1 3,-1 1,-2 0,-3 3,-1 2,1 -2,2 0,3 -1,2 0,3 -2,1 -1,-3 -3,1 1,3 0,3 3,-1 -1,4 -3,0 -2,-1 0,3 -1,2 -1,1 -2,1 -2,2 -2,2 0,3 3,0 1,-2 3,1 -1,-4 5,-1 1,-3 4,2 1,-3 1,-3 0,-4 4,-1 -2,-4 0,-4 1,-2 1,-3 0,-2 1,-2 0,-3 2,1 0,-3 1,-1 3,-1 2,-2 1,-2 1,-2 0,-2 1,-3 1,-2 2,-2 3,0 2,-1 1,-1 1,-2 1,-2 1,-2 3,0 1,-2 1,-2 1,-2 1,-2 1,-2 2,-2 2,-4 -2,1 -3,1 -2,3 -2,2 -1,2 -1,2 -1,2 -3,1 -2,1 -3,1 3,2 -2,2 -2,-1 -1,2 -2,1 -2,2 -2,1 1,3 -2,1 0,3 -1,2 -1,2 -2,1 -3,1 -1,2 -1,4 -1,2 -3,0 0,-3 2,-2 -1,-3 1,-2 2,-2 3,0 1,-2 2,-2 1,-4 -4,2 0,-3 1,-2 -1,-3 4,2 1,-2 3,0 -2,-3 3,0 1,-2 1,-1 2,-2 3,0 3,-1 1,-2 1,-2 1,-2 2,-2 2,-2 2,-2 -3,-2 2,-2 3,-2 0,4 2,-1 3,0 0,-3 1,-2 3,1 3,-3 2,1 3,-1 0,4 2,1 2,-2 1,-2 1,-3 2,3 3,-1 1,-2 4,-1 1,3 0,3 -2,-1 -1,3 -2,-2 -2,1 -3,1 -1,2 -2,1 -2,1 -2,1 -1,2 -1,2 0,3 3,-1 1,-3 3,-2 3,-1 2,1 0,-3 1,-1 3,2 3,-1 1,-1 3,-1 -1,-3 0,-3 1,-2 4,0 -1,2 -1,3 3,0 0,3 4,0 -1,-3 0,-3 -1,-3 3,0 3,0 -1,3 0,3 1,3 -1,3 -2,1 -3,0 1,3 1,3 -3,0 -2,2 0,3"/>
    <path style="fill:none;stroke:#000000;stroke-width:1"
          d="m 187,34 -1,3 -1,2 4,-1 2,-2 0,-3 3,0 1,-3 0,-4 3,2 1,-3 0,-3 0,-4 1,-2 -1,-3 0,-4 2,-1 4,0 -1,3 -2,2 2,4 2,-2 2,-2 1,-3 0,-3 2,-2 3,0 3,1 -1,3 -3,0 1,3 -1,2 -3,0 2,4 -3,0 -1,2 -3,0 -3,0 1,4 3,0 3,0 3,-1 1,-1 2,-2 0,-3 3,0 0,-3 1,-2 1,-3 1,-3 4,-2 1,3 -2,2 -1,3 0,3 0,3 -2,-1 0,3 -3,0 0,3 -2,1 -2,2 -3,0 -3,1 0,3 3,-1 0,3 -2,1 -3,1 -1,2 1,3 0,3 -2,-1 -1,2 -2,2 -1,2 -3,1 -1,1 -3,1 2,2 3,0 2,-2 3,-1 1,-2 1,-1 3,-1 1,-3 0,-3 0,-2 1,-1 3,0 1,-2 0,-3 1,-2 2,1 1,-2 1,-2 3,0 -1,-3 3,0 1,-2 1,-3 0,-3 1,-2 1,-1 1,-2 1,-3 3,1 3,-1 0,3 3,0 1,-3 3,2 4,-1 -2,4 -3,0 -2,2 -1,3 -1,2 0,3 -1,2 4,-2 1,4 -2,1 1,3 -3,1 -1,-3 -3,2 2,3 -3,1 -3,1 -2,2 -2,2 -2,2 -1,2 0,3 -3,-1 0,3 -1,1 0,3 -1,2 -2,1 -1,2 0,3 -2,1 0,3 0,3 -1,4 0,3 3,-3 3,3 -2,2 -3,2 -4,-1 -1,3 -2,2 -3,0 -1,3 4,1 -2,2 -2,1 -1,3 4,1 3,-2 2,-2 0,-3 1,-2 1,-3 3,3 2,-3 2,-1 2,-2 1,-3 2,-1 1,-3 2,-2 2,-3 0,-3 2,-2 1,-3 1,-2 3,-1 2,-1 3,0 0,-3 2,-2 1,-2 2,-1 1,-2 1,-3 2,-1 0,-4 -3,-1 -2,2 -2,2 -1,3 -3,-1 -3,1 -2,2 -1,2 7,-1 -2,2 -1,3 -3,0 -3,1 -2,2 -2,2 0,3 -2,2 0,3 -1,2 -2,2 -1,3 -3,0 -1,-4 1,-2 2,-2 0,-3 2,-2 1,-3 1,-3 2,-2 2,-2 2,-1 -3,-3 3,-2 2,-2 2,-1 3,-1 3,-1 1,-2 3,-2 3,-1 3,1 2,-2 2,4 0,3 0,3 1,3 0,3 -4,-2 1,4 -2,1 -2,2 -2,2 -1,3 -3,2 -2,2 -3,-1 -1,3 -2,1 0,3 -1,3 -2,2 -1,3 -2,2 -1,3 -2,2 3,3 3,-2 1,-3 2,-3 2,-2 1,-3 2,-1 0,-4 2,-2 3,-1 2,-2 2,-1 1,-3 2,-2 2,-2 3,0 0,-3 3,-2 3,-2 0,-3 -3,1 -1,-4 0,-3 -1,-3 -1,-3 1,-3 0,-4 -3,2 -2,1 -3,1 -4,0 0,-3 1,-1 3,0 3,-1 2,-1 3,-1 1,-2 1,-2 1,-2 2,-1 1,-3 2,-3 -3,-2 -2,2 -1,3 -3,0 -3,1 0,3 3,-1 -2,4 -3,0 -2,2 -3,0 -3,0 0,-3 2,-1 3,0 1,-2 0,-3 2,-2 2,-2 0,-3 3,3 1,-2 1,-2 4,0 3,1 0,-3 4,2 1,-2 3,-1 3,0 -1,4 -1,1 -4,1 -2,1 1,3 -2,2 -1,1 0,3 -2,2 -1,2 -2,2 -1,4 1,3 -1,2 1,3 3,-1 2,-2 -2,-3 -1,-3 3,0 1,-2 1,-1 0,-3 2,-2 1,-2 1,-2 1,-3 1,-2 2,4 0,3 -1,2 0,3 -3,0 1,3 -1,2 -1,2 -3,1 3,2 -2,2 -1,3 -1,2 -3,0 -3,0 1,3 4,0 0,3 0,3 3,0 1,-3 3,0 -3,-3 2,-2 0,-3 2,-1 1,-2 0,-3 1,-3 1,-3 3,1 4,1 -1,3 -3,-1 -1,2 1,3 -1,2 -1,2 -2,2 -1,3 4,0 -1,2 -2,2"/>
    <path style="fill:none;stroke:#000000;stroke-width:1"
          d="m 276,45 0,3 -3,-1 -1,2 -3,1 -3,-1 -3,1 -3,2 -1,4 -3,1 -2,2 -2,2 -1,3 -3,1 1,4 -4,-2 -2,2 2,4 3,0 3,0 2,-3 1,-2 1,-3 3,1 -1,-4 3,-2 3,-2 0,-3 2,-2 3,0 -1,3 1,3 -2,2 -2,2 -3,1 1,4 3,-1 3,-3 3,-1 0,-3 0,-3 2,-1 -1,-3 2,-1 3,2 1,-3 3,-1 -1,-3 3,-1 3,-1 3,-1 1,-3 2,-2 2,-3 1,-3 1,-2 3,1 2,-2 2,-4 4,0 1,-3 2,3 1,-3 3,-1 1,-2 0,-3 -3,1 -2,2 -3,-1 -3,0 0,3 -1,1 -3,1 0,3 -3,1 -1,-4 -2,2 -2,2 -1,1 0,3 0,3 -3,1 -1,3 -2,2 -3,1 -1,-4 2,-2 1,-2 0,-3 3,1 0,-3 0,-3 0,-3 3,1 0,-3 3,1 3,-1 3,-1 1,-2 0,-3 -4,-2 0,3 -1,2 -3,0 -3,-1 -2,2 -3,0 -1,2 -3,0 -1,-3 1,-3 -1,-3 -1,-3 3,0 -2,-3 -1,-3 3,0 2,-1 0,4 3,-1 3,0 3,0 -1,3 -4,0 -2,2 -2,2 0,4 3,-1 2,-2 1,-2 3,3 1,-3 2,-2 2,-2 1,4 3,0 2,4 3,1 1,-2 3,2 0,-3 1,-2 3,-1 0,4 3,0 1,-2 2,-2 3,0 3,0 0,4 -3,-1 -2,2 -2,2 -1,3 0,3 0,3 -2,-1 -2,2 -2,2 -3,1 -3,-1 -1,2 -1,2 -2,2 -3,1 -1,3 -2,2 -1,2 -2,2 -1,3 -3,1 -3,0 -1,3 -4,2 0,3 -4,1 -2,2 0,3 4,0 2,-2 2,1 2,-2 0,-4 3,0 1,-3 4,0 2,-1 1,-3 2,-2 2,-3 1,-3 2,-2 2,-2 3,1 0,-3 2,-2 3,0 2,1 1,-3 2,-2 3,0 0,3 -2,1 0,3 -1,2 -3,0 -3,-1 -1,3 -3,1 -2,2 -2,2 -1,3 -1,2 -3,2 1,4 -2,1 -3,0 -3,0 -1,3 -2,1 -1,3 -2,2 -2,2 -3,-1 -1,3 0,3 -2,2 -3,1 -4,0 -2,2 -1,3 -3,1 -2,1 -2,2 -4,0 -2,2 -1,3 0,3 -2,2 -3,1 -4,0 2,-4 3,-2 0,-4 1,-3 2,-1 3,-1 3,-1 2,-2 3,0 1,-3 3,-1 3,-1 3,-1 2,-2 1,-4 -4,0 -1,2 -3,-1 0,3 -3,1 -4,0 -1,3 -3,-4 -1,3 -1,2 -2,2 -4,0 -2,4 -2,-4 -3,2 -1,-5 -2,2 -2,3 -2,2 -1,3 -1,3 -3,1 -3,0 -1,4 -1,4 4,0 1,-4 4,-1 3,-1 1,-3 1,-3 3,-1 3,1 0,4 -3,0 0,4 -2,2 1,4 -4,-2 -3,-1 -1,3 -2,3 -3,0 -4,-1 -4,1 0,-4 -4,1 -1,-4 3,-1 3,0 1,-3 1,-3 -1,-4 -3,2 -1,3 -3,0 -2,2 -2,4 -2,3 2,1 -1,2 0,2 -1,2 -1,2 -2,1 0,2 -1,2 0,2 0,2 -1,2 -1,2 2,1 -2,2 -2,-2 -1,2 -2,1 2,2 -1,2 3,0 1,-2 2,-1 2,-2 2,-2 -2,-1 1,-2 0,-3 0,-3 2,1 2,-2 -2,-1 1,-2 1,-2 1,-2 1,-2 2,4 -2,2 3,1 -1,1 -1,2 -1,2 -2,1 -1,2 0,2 3,-2 2,-2 2,-2 2,-2 0,-5 4,0 4,0 3,1 -3,3 -4,0 1,4 4,0 0,6 2,-1 3,-3 -1,-4 3,-1 -1,-4 1,-3 2,-2 4,1 -1,4 -1,3 0,4 -2,3 -2,3 -1,3 -1,3 5,1 1,-4 2,-3 2,-2 0,-4 3,-1 -2,-4 1,-3 0,-4 2,-1 4,-1 3,-1 2,-4 1,-3 2,-2"/>
    <path style="fill:none;stroke:#000000;stroke-width:1"
          d="m 261,89 3,-1 3,-1 2,-2 2,1 0,-4 2,-2 3,0 3,-1 3,-1 2,-2 0,-4 4,-1 2,-1 2,-2 1,-3 2,-3 3,-1 1,4 -2,2 -1,3 -2,3 4,2 2,-1 1,-3 2,-2 3,1 3,-2 2,-2 3,-1 0,-3 4,-1 0,-3 0,-3 3,0 0,-3 3,0 3,0 2,3 -1,3 -3,-3 -1,3 -2,2 -1,4 -3,1 0,4 -3,1 -2,1 0,4 -3,-2 -4,1 -2,2 -1,3 -4,0 -1,3 -4,1 0,-3 1,-3 -4,-1 -3,-1 1,4 -3,1 4,3 -3,2 -2,2 0,4 -1,3 0,3 -3,1 0,4 -3,1 0,2 1,2 2,-2 2,2 -1,2 2,1 -2,2 -2,-2 -2,-1 -1,2 -3,1 -1,1 0,2 -2,1 -2,2 -1,1 -1,2 -2,1 -1,1 -1,2 -2,1 -1,2 -2,2 0,-3 -3,1 -1,1 -1,2 -3,0 0,-2 1,-2 1,-2 1,-3 2,3 3,-1 -2,-1 1,-2 2,-1 2,-1 0,3 3,-3 2,-3 2,-1 1,-2 0,-2 2,-1 2,-1 2,-1 0,-2 -1,-3 1,-1 1,-2 1,-3 1,-3 1,-2 1,-2 1,-3 2,-5 -3,1 -3,1 -2,1 0,3 -3,1 -2,2 4,2 -2,2 -3,0 -2,-4 -2,3 -2,1 -1,3 -2,1 -1,3 -3,2 -3,-1 -2,3 0,4 4,-2 5,0 1,3 2,-1 1,-2 0,-3 2,1 1,-2 1,-3 1,-1 3,0 0,3 -2,1 2,2 -2,1 -2,1 -2,2 0,3 -3,1 0,2 -1,1 -3,-1 1,-3 -3,0 -1,3 0,2 -2,-1 -1,2 -2,1 -1,2 -1,3 -3,0 1,3 -1,1 0,2 -3,-1 -3,1 1,3 3,-1 0,3 2,-1 1,-2 3,0 -1,3 -1,2 -2,1 2,1 2,2 2,-1 0,-2 0,-2 3,1 0,-2 -2,-1 2,-1 1,-2 2,2 2,-2 2,-2 2,-2 2,-2 2,-2 2,-2 2,-2 1,-2 3,0 1,-2 0,-2 2,-1 1,3 2,-1 2,-1 3,0 -1,-2 1,-2 4,1 -1,3 4,2 2,-3 -2,-4 3,1 3,-1 3,-1 2,-2 1,-3 3,-1 1,-3 -4,-1 -3,1 -2,2 -1,3 -3,1 0,-4 0,-4 2,-2 3,-1 3,0 4,1 1,-3 0,-4 -3,-1 -1,3 -4,-1 -3,2 -4,1 -2,2 0,4 -1,3 1,4 -4,2 -3,-2 3,-2 -4,-2 3,-3 1,-3 0,-3 1,-3 2,-2 3,1 3,-2 4,0 1,-3 4,0 3,0 -2,-4 2,-2 3,3 3,-1 1,-4 2,-2 2,-3 1,-2 4,2 3,3 2,4 2,-2 2,-1 1,-3 1,-3 3,-1 3,-1 0,3 -3,1 -1,2 0,3 3,-1 1,-2 3,0 0,-3 1,-2 -1,-3 0,-4 -1,-3 3,0 0,-3 0,-3 1,-2 2,-2 0,-3 4,1 2,-1 0,-3 0,-3 -1,-3 1,-2 -1,-3 0,-3 2,-1 0,-3 1,-2 -3,-3 -2,2 1,3 -3,0 -1,2 -4,-1 1,3 -2,2 -1,2 -1,2 -1,2 -3,0 0,3 -3,-1 0,3 -3,1 0,-3 -3,0 -1,-3 1,-2 2,1 3,0 3,-2 2,-2 1,-3 1,-2 1,-2 -1,-3 0,-3 -3,1 0,4 -2,2 1,3 -2,2 -2,2 -4,-1 -3,-3 -1,2 0,3 0,3 1,3 -2,1 0,3 3,0 2,-1 1,3 3,0 -1,3 0,3 3,0 3,0 0,-3 -3,0 1,-3 2,-2 3,-1 1,-2 2,-1 3,0 -1,-3 2,-1 -1,-3 2,-2 2,-1 0,4 0,4 1,3 -1,2 -3,0 -3,1 1,3 -2,2 -3,-3 0,3 1,3 1,3 -3,1 -2,-1 -3,0 1,3 -1,1 -1,2 0,2 3,-1 3,-3"/>
    <path style="fill:none;stroke:#000000;stroke-width:1"
          d="m 342,57 0,2 1,3 -1,1 -2,1 -3,0 -2,1 -3,0 1,3 -1,3 -3,-3 0,-3 -4,1 0,-3 2,-2 3,0 3,0 -1,-3 1,-2 1,-3 -3,0 0,-3 -2,-1 2,-2 -2,-2 -3,1 -1,3 -4,-1 2,-4 -2,1 -3,1 0,3 -2,2 -3,-2 -2,2 -1,3 4,0 0,4 -3,0 -2,1 0,3 -3,2 -3,1 -1,-4 2,-2 2,-2 -3,-3 3,-1 1,-3 1,-3 3,-2 3,1 0,-3 1,-2 3,1 3,-1 2,-1 0,-3 1,-2 0,-3 0,-3 0,-3 -3,0 0,-3 1,-1 0,-3 2,-2 3,1 2,-2 0,-3 1,-2 2,-1 4,0 -1,3 -2,2 0,3 -1,2 -2,1 -4,0 0,3 3,0 3,0 0,3 3,-1 0,-4 2,-2 -1,-3 2,-2 1,-3 3,2 2,-2 4,1 -1,2 -1,2 1,4 2,-1 2,-2 1,-2 1,-2 4,2 3,0 1,3 4,0 -1,2 -2,2 0,3 -1,3 -1,2 0,3 4,-1 0,-4 2,-2 0,-3 3,0 0,-3 3,1 -1,-4 4,-1 -1,3 3,0 3,-1 1,-2 3,0 1,3 -2,1 -3,1 -1,2 -3,-1 0,3 -3,-1 0,3 -3,-1 -1,3 -1,1 -1,2 -1,3 -3,0 -2,2 -1,2 4,0 3,-1 0,3 -3,1 -3,1 0,3 -3,1 -3,0 -1,2 -1,2 -1,2 0,3 -1,2 -1,2 -1,2 1,3 1,3 -2,2 0,3 -3,1 -1,2 0,3 -3,0 0,-3 -3,1 -1,2 -2,-1 -2,2 -1,3 -2,4 -1,3 -3,0 1,4 4,1 -1,3 -4,0 -1,3 0,3 -4,0 3,3 -3,1 1,4 -4,0 -2,2 -1,3 -2,3 -4,0 -4,1 -3,3 0,-4 2,-4 4,-1 3,0 1,-4 2,-2 3,-1 -1,-4 1,-3 4,-1 0,-4 2,-2 -1,-4 -3,1 -2,-4 3,-1 2,-4 2,4 2,-2 3,-1 0,-4 -3,0 0,-4 -3,-3 -1,3 0,3 -3,0 -1,4 -3,1 -2,2 0,3 0,3 4,2 0,4 -4,-2 0,3 -1,3 0,4 -3,1 -1,3 -2,1 -2,2 -4,0 -1,3 -2,2 -1,3 2,4 -2,3 5,2 1,5 4,0 3,-3 -4,-2 3,-3 3,1 2,-2 4,-2 2,-2 1,-3 2,-2 3,1 1,-3 0,-3 4,2 -1,-4 0,-4 1,-3 4,-1 0,3 -1,3 0,4 3,0 2,-3 3,-1 0,4 -1,3 4,2 -2,2 3,3 2,-4 4,2 -2,2 1,3 -2,2 -3,1 -2,-1 0,2 -3,1 -1,1 0,2 -1,2 -2,1 -2,-1 1,-2 0,-2 1,-1 1,-2 2,-1 1,-1 1,-2 -2,-2 -1,-2 -2,-3 -1,2 0,2 -3,-1 -1,1 -1,2 -3,1 -1,1 1,2 -2,2 -1,-2 -2,2 1,2 1,3 -1,1 0,2 -2,1 -1,3 0,2 1,3 -1,2 -1,1 -2,1 -1,-3 2,-2 -2,-2 0,-2 1,-2 1,-1 1,-2 1,-2 0,-3 -2,1 -2,2 -1,1 -1,2 -1,3 -2,-1 -5,1 2,4 2,-2 3,1 0,2 -2,1 -1,2 3,0 0,3 3,0 1,3 -1,1 4,-1 0,-2 3,0 0,-2 1,-2 2,2 3,-2 -3,-1 0,-2 0,-2 -3,1 0,-3 1,-1 3,1 0,-2 -1,-2 2,-1 -1,-2 -1,-2 2,-2 2,0 0,-3 0,-2 3,-1 2,-1 2,1 -2,2 -2,1 -1,2 0,3 -2,1 1,2 1,2 -2,1 2,2 -1,1 -1,2 -1,2 2,1 2,-2 2,-2 0,-2 0,-2 3,0 0,2 3,-1 0,-2 0,-2 1,-3 2,-1 1,3 -1,1 1,2 -1,2 2,2 1,-1 1,-3 0,-2 -1,-3 4,-1 1,-3 1,-3"/>
    <path style="fill:none;stroke:#000000;stroke-width:1"
          d="m 354,125 0,-2 2,-1 1,-2 3,0 3,0 2,-2 -3,-2 3,-1 1,-2 1,-1 -1,-3 3,0 0,-3 -1,-3 3,0 0,-3 -1,-3 1,-2 0,-3 1,-3 3,1 -1,-4 0,-4 1,-4 -5,2 0,-3 2,-2 2,-2 3,1 1,-3 1,-2 0,-3 1,-2 2,4 2,-2 3,0 1,3 -3,1 -2,2 -1,2 -1,3 -2,2 -1,3 0,4 1,5 -1,3 -3,1 0,4 4,-1 3,-2 1,-3 -1,-4 0,-3 1,-3 1,-3 1,-3 1,-2 2,-2 2,-1 1,-4 -1,-3 3,0 2,-2 -1,-3 0,-4 -2,1 -1,3 -1,2 -4,0 -3,1 0,-3 3,-1 1,-2 1,-1 0,-3 3,0 0,-3 -4,0 -1,-3 -3,1 1,3 -1,2 0,3 -3,1 -1,3 -3,0 1,-3 -1,-3 4,0 0,-4 -3,1 0,-3 3,-2 1,-2 0,-3 0,-3 0,-3 -3,-2 -1,2 0,3 -1,1 1,3 0,3 -3,1 -2,2 2,3 -1,3 0,3 -1,2 -3,1 -1,2 0,3 3,0 1,-3 4,1 -1,2 0,3 -2,1 -4,0 -1,3 -2,2 -1,3 0,3 -2,2 -1,1 -1,3 3,0 3,-2 3,0 -2,4 -2,1 1,3 -1,2 1,3 0,3 -2,3 0,3 -3,-1 -1,2 1,3 -1,2 -2,1 0,3 -2,1 -3,1 -2,-1 2,-2 1,-2 1,-2 2,-2 -1,-3 0,-3 2,-2 2,1 1,-3 2,-1 -2,-3 1,-3 -1,-3 -3,0 -3,0 -1,2 0,3 4,-2 0,3 -1,2 -2,2 -2,2 0,3 -2,1 -1,2 3,1 -2,2 -1,2 -1,2 -3,0 -1,-4 3,-1 -3,-3 -3,-1 -4,-1 1,-3 3,0 3,0 2,3 1,-3 2,1 0,-3 1,-2 1,-1 -1,-3 -1,-3 -2,1 0,3 -1,2 -1,2 -4,-1 2,-2 1,-3 -3,0 1,-3 3,-1 3,-1 3,0 2,-2 3,0 0,-3 0,-3 3,-1 0,-3 1,-3 2,-3 1,-3 -3,-3 1,-2 1,-1 1,-2 1,-2 3,0 1,-3 0,-3 -3,0 -1,3 -4,1 -1,2 -2,2 -1,2 0,3 2,3 -1,3 -1,3 0,4 -3,0 -1,3 0,3 -3,-1 0,3 -3,1 -3,1 -3,0 -1,3 -2,2 0,3 0,3 -3,1 -2,-4 1,-3 0,-3 2,-2 2,-2 3,-1 3,0 3,-1 0,-3 1,-2 3,-1 1,-3 2,-1 0,-3 1,-3 -3,0 1,-3 1,-3 0,-4 2,-2 1,-2 3,-1 2,-1 1,-3 2,-1 3,0 2,-2 2,-2 0,-3 -3,1 0,-3 2,-2 1,-1 0,-3 3,-1 3,-2 1,3 3,1 0,-3 -1,-3 1,-2 3,0 2,-2 -1,-3 3,0 1,3 3,-1 1,-1 0,4 -1,1 1,3 -3,0 -1,-3 -2,1 -3,1 0,3 3,-1 3,2 -3,1 -2,2 -2,1 -1,3 1,3 -1,3 4,0 1,3 3,0 0,-3 -1,-4 -3,1 0,-3 3,-1 1,-1 1,-2 3,0 -1,-3 3,0 1,-2 2,-1 0,-3 -3,1 0,-3 1,-2 1,-2 2,3 5,-1 -1,2 -2,2 0,3 0,3 -3,1 -2,2 0,3 -3,1 -1,2 0,3 0,3 3,-3 1,-3 3,0 0,-3 1,-2 2,-1 3,0 -1,-3 1,-1 -1,-3 1,-1 2,-2 3,0 -1,3 -1,2 0,3 3,0 1,-2 0,-3 2,-1 3,0 1,3 -3,0 1,3 -1,1 -2,2 3,1 0,2 3,0 3,0 0,-3 -3,0 0,-3 3,0 -1,-3 4,1 0,2 0,3 0,3 3,0 0,-3 1,-2 2,4 1,-2 2,1 2,2 3,-1 0,3 -1,2 -2,1 -3,0 1,-3 -3,0 -2,1 1,3 -3,0 -1,-3 -3,0 -3,0"/>
    <path style="fill:none;stroke:#000000;stroke-width:1"
          d="m 423,41 -3,0 1,3 -3,0 -1,2 0,3 3,0 1,-2 3,0 0,-3 3,0 1,3 -1,2 -3,1 -1,2 1,3 2,-1 1,-2 3,-1 2,-1 -1,-3 3,0 2,-1 3,0 2,2 1,-3 3,0 0,-2 1,-1 -1,-3 4,2 0,3 1,3 2,1 1,-2 4,1 -1,2 0,3 -2,-1 -1,2 -1,2 0,3 3,-1 2,-2 2,-1 0,-3 3,0 0,3 3,-1 0,3 3,0 2,3 -3,1 -2,-1 0,3 -1,2 -2,1 -3,0 1,-3 2,-2 0,-3 -3,1 -1,1 -1,3 -2,-2 -2,1 -1,2 -3,0 -1,2 3,1 -1,2 0,3 3,0 1,-2 0,-3 2,-1 1,3 0,3 -1,2 -3,1 -3,0 1,3 3,0 2,-1 3,0 1,-2 3,0 3,-1 0,-3 -3,1 -3,0 0,-3 3,0 3,-1 2,1 0,-3 1,-2 2,-1 3,0 1,3 3,0 1,3 -3,0 -2,1 -2,-4 -1,2 0,3 -1,2 -1,2 -2,2 -1,1 1,3 -1,1 -3,1 -1,-3 1,-2 -4,2 -2,1 0,3 3,-1 1,3 -3,1 -1,1 0,3 3,0 2,-1 1,-1 1,-3 2,-1 4,-2 0,-3 1,-2 2,1 0,-3 1,-2 1,-1 3,-1 0,3 3,0 0,-3 2,-1 2,4 -1,2 -1,2 -1,1 -3,1 0,-3 -3,0 0,3 -2,1 0,3 -4,2 -3,1 0,2 -1,2 -3,1 -2,2 -2,-1 -1,2 -3,0 -1,2 -1,2 -1,3 3,-1 2,-1 1,-2 3,0 3,-1 1,-1 1,-2 3,-1 0,3 3,-1 4,2 2,-2 3,3 1,-3 3,1 4,0 1,-2 1,-3 -2,-4 1,-1 -1,-3 -3,1 -3,3 3,2 -1,3 -4,-2 -3,1 -4,1 -3,-1 3,-3 4,-1 1,-3 3,-1 1,-1 3,-1 1,-2 1,-2 2,1 1,3 1,3 1,4 2,-2 3,0 -1,3 -2,2 2,1 3,0 0,3 3,0 0,3 5,1 -2,2 -3,0 -1,3 -2,1 -1,3 -1,4 -3,0 -1,-4 0,-3 2,-2 2,-3 1,-3 -4,-2 -1,3 -2,2 -2,4 -2,-4 -2,2 -3,0 -4,0 -3,-1 -1,3 0,3 -3,1 1,3 2,-1 2,2 1,-3 1,-3 4,0 -1,4 -1,4 -2,2 -3,1 0,-2 -3,-1 0,3 -3,0 0,-3 -3,0 -1,2 -3,-1 1,3 0,3 1,3 -1,2 -3,1 -2,2 -4,1 -4,0 0,-4 4,0 2,-2 3,-1 1,-2 0,-3 -1,-3 1,-3 1,-3 0,-3 1,-2 4,1 -1,2 -1,2 -1,3 3,-1 3,0 -1,-3 1,-3 2,-1 0,-3 0,-3 -2,1 -1,3 -3,0 1,-3 -3,1 -2,1 -2,1 -1,2 -3,0 -2,1 -3,1 -3,-1 0,-4 1,-2 1,-3 1,-2 1,-2 3,0 0,-3 -3,0 1,-3 1,-3 0,-3 -3,0 0,3 -1,2 -1,2 0,3 -1,2 -1,4 -2,-1 0,-3 0,-3 1,-2 0,-3 1,-2 1,-2 0,-3 -1,-3 0,-3 0,-3 -3,0 1,-3 0,-3 1,-2 3,0 -1,-3 1,-1 -1,-3 1,-1 1,-2 -3,-2 -3,0 1,3 -3,0 0,3 3,0 0,3 -3,0 0,2 -3,0 -3,0 -1,2 -1,2 -1,2 -1,2 -3,0 1,-3 1,-3 1,-2 1,-2 3,-1 3,0 -1,-3 1,-1 -1,-3 -3,1 0,3 -2,1 -3,0 -1,2 -1,2 -3,0 -3,0 -2,2 -1,2 0,3 3,1 1,-3 2,-2 3,0 -1,3 -2,2 1,3 -1,3 -1,3 -3,0 -2,2 -2,2 -1,2 -3,0 -1,2 0,3 -2,2 -2,1 1,3 -3,0 0,3 -3,0 -1,3 3,0 4,0 1,-3 2,1 1,-3 3,-1"/>
    <path style="fill:none;stroke:#000000;stroke-width:1"
          d="m 416,92 -3,-2 3,-1 1,-1 -1,-3 3,0 2,-1 -1,-3 2,-2 2,3 1,-3 2,-2 1,-2 1,-2 0,-3 3,0 3,0 1,-2 1,-2 1,-2 1,-2 3,0 0,3 -1,2 -1,2 -1,2 -1,2 -3,0 -3,1 -1,4 3,-1 3,0 1,-1 -2,4 -2,1 0,3 -2,2 -1,-4 -3,-1 0,3 -2,2 -2,2 -3,1 -1,3 -2,3 -2,2 -2,2 -2,2 -3,0 0,3 -2,2 1,3 -1,3 -4,-1 2,4 -1,3 0,4 -2,1 -3,1 -4,0 2,4 -4,0 -4,0 -1,2 -2,2 -1,4 0,4 -3,2 0,4 -2,1 -3,1 -3,2 1,4 -2,1 0,3 -1,2 4,-2 3,-2 -2,-4 3,0 3,0 2,-2 4,3 -2,2 -4,1 -1,4 -2,1 -3,1 -2,1 1,3 -3,1 -1,-3 -3,-2 -1,-3 1,-3 -3,-2 3,-1 1,-2 1,-1 1,-3 1,-1 1,-3 2,1 1,-3 2,-2 2,-2 0,-3 1,-3 0,-3 2,-2 3,-2 4,0 1,-3 2,-2 3,1 3,-2 1,-4 -3,0 -4,1 0,-3 3,-2 2,-2 3,-1 2,-2 2,-3 -3,-1 -3,1 -2,-4 1,-3 0,-3 3,0 -2,-3 3,0 1,-2 1,-2 1,-1 3,0 -1,-3 2,-2 2,-2 3,-1 1,-2 2,-2 3,0 1,-3 -3,0 -4,1 0,-3 1,-2 -1,-3 -3,2 0,-4 3,-1 1,-2 3,-1 2,-1 -1,-3 -3,0 -1,2 -4,2 -1,-3 2,-1 1,-3 0,-3 0,-3 0,-2 3,0 -1,-3 -3,0 0,-3 -2,1 -2,1 -3,0 -1,2 0,3 -3,1 -1,3 -2,1 -1,2 -3,1 0,3 2,1 2,-2 3,-1 2,-2 1,-2 2,-1 1,-2 0,-3 2,-1 1,3 0,3 0,3 -3,1 -2,2 -3,2 -1,2 -2,1 -3,1 3,2 -2,2 1,3 0,3 -3,-1 -1,2 1,3 -3,-1 0,3 4,2 -1,2 -3,0 -1,3 -2,-5 -1,2 -1,3 0,3 -1,3 -1,3 4,2 1,-3 2,-2 -1,-3 3,0 1,-2 3,-1 1,-3 0,-3 1,-1 -1,-3 3,0 0,-3 -1,-3 1,-2 1,-2 1,-2 1,-3 3,-1 0,3 0,3 -1,2 1,3 -3,0 0,4 3,-1 3,-1 0,4 -1,2 -2,-1 -1,3 -3,-2 0,3 -1,2 -1,2 -2,3 -2,1 -2,2 -1,3 -1,3 -1,3 0,3 0,4 3,1 -3,3 -3,2 -2,2 -2,2 -1,3 4,0 -2,4 -4,0 -2,2 -3,2 -2,-4 2,-2 3,-2 1,-4 -3,0 -3,2 -1,-4 2,-3 3,1 4,0 2,-2 3,-2 0,-4 0,-4 -3,-1 -1,3 0,4 -3,-1 -1,3 -4,-2 -3,1 -2,3 0,3 0,3 -2,1 3,3 -3,0 -2,1 -1,3 3,0 3,0 1,3 0,3 3,3 -1,3 -1,4 -3,0 1,3 -3,0 -1,2 -1,2 -1,3 -2,1 0,3 -3,2 0,-3 -1,-3 -2,-1 2,-2 3,0 1,-3 1,-3 1,-2 2,-1 4,-1 0,-3 -3,0 1,-3 0,-3 -3,0 -3,-2 0,3 -1,3 3,0 0,3 -3,1 -2,2 1,3 -3,0 1,3 -3,-1 -3,0 1,-3 2,-2 0,-3 1,-2 2,1 0,-4 0,-3 -3,1 -1,2 -2,2 0,3 -1,2 -1,2 -2,2 -1,2 0,2 -1,2 2,1 2,-2 4,0 -2,3 -2,1 -1,2 3,0 2,0 1,3 -2,0 1,3 3,0 0,2 1,2 3,-1 -1,3 1,2 2,2 1,2 2,3 2,1 -2,2 3,2 3,-1 0,-3 3,0 2,-3 2,-1 4,0 -1,-4 1,-3 3,1 2,-3 1,-4 2,-2 4,2 -1,3 -2,2 -1,3 -2,3 -2,1"/>
    <path style="fill:none;stroke:#000000;stroke-width:1"
          d="m 391,165 1,4 4,0 2,-2 0,-3 2,-2 3,0 -1,-4 1,-3 -1,-4 3,-1 2,4 0,5 3,-1 1,-3 4,0 0,4 -1,3 -4,0 -3,1 -1,3 -3,1 -1,3 -1,3 -4,1 -4,-1 -1,3 -1,4 -2,3 -2,2 -2,3 4,2 3,-2 2,5 3,1 1,-4 4,-2 0,-4 -5,2 -3,-1 2,-4 2,-1 3,-2 4,-1 0,5 4,-1 3,0 2,-2 3,-2 3,-1 2,-2 2,-2 1,-3 3,0 1,-2 2,-2 0,-3 4,1 0,-3 3,-2 1,-3 3,-1 -2,-4 -3,0 -2,3 -1,3 -3,2 -3,0 -1,1 -3,0 -1,2 4,1 -1,3 -3,0 -2,3 -3,1 -1,3 -3,0 -1,3 -4,1 -3,-3 2,-2 2,-2 2,-2 2,-1 4,-1 1,-3 0,-4 1,-3 3,0 1,-2 -1,-3 -3,-3 -1,3 -3,2 -3,-1 -4,0 -2,-4 -1,-4 -3,2 -2,2 -3,1 -4,-1 -3,1 -3,1 -2,-4 3,-1 4,-1 3,1 3,-2 3,-2 3,-1 3,-1 1,-3 -1,-4 -3,1 -1,3 -4,1 -2,2 -3,0 -2,1 -4,1 0,-4 2,-2 3,-1 2,-1 4,0 1,-3 2,-2 4,0 1,-3 0,-4 1,-3 2,-2 0,-3 0,-3 1,-2 1,-2 2,-2 2,-2 3,-2 0,4 -2,3 -2,1 0,3 -1,2 0,3 -1,2 -1,2 0,3 -1,2 0,4 0,3 1,4 3,3 -3,1 -1,3 -2,1 1,4 4,0 1,-3 3,-1 3,1 2,-2 2,-2 0,-4 -3,2 -3,2 -1,-3 1,-2 3,-1 1,-3 3,1 1,-3 0,-3 1,-4 -2,-4 -2,4 -1,3 -2,2 -2,2 0,3 -4,1 1,-3 -1,-3 1,-2 3,-1 -3,-2 1,-2 3,0 2,-2 0,-4 -5,2 1,-2 1,-3 2,-2 1,-3 2,-2 4,0 -1,-4 3,0 2,-2 0,-4 -4,1 -3,1 -2,4 -2,-4 2,-4 4,-1 2,-2 4,1 3,0 0,-3 1,-2 1,-2 1,-2 1,-3 0,-3 1,-3 2,-1 0,3 1,3 -1,2 -1,2 0,3 -1,2 -1,3 0,3 -1,3 -3,0 0,4 3,0 4,-1 0,4 -3,2 -3,-1 -3,0 -2,2 -1,3 -4,0 -2,2 1,4 3,0 2,-2 4,-1 1,-3 3,0 4,2 1,-3 4,2 -1,3 -4,1 -3,0 2,4 4,0 3,-1 3,0 0,-4 1,-3 2,-1 3,-1 0,3 -2,2 0,3 0,3 -3,2 -2,2 -3,0 -3,0 -3,-1 -1,3 1,4 4,-2 0,3 -3,3 4,1 -2,3 -4,0 -2,2 -4,1 0,-3 1,-3 3,-1 -1,-4 -3,0 2,-4 1,-4 0,-4 -3,-1 -2,2 -3,2 4,2 -2,2 -1,3 1,4 -1,3 -1,3 -1,2 4,3 -4,1 -1,3 -3,0 -2,2 3,1 0,3 0,3 3,0 1,-4 2,-2 1,-3 3,0 3,-2 3,-1 2,-2 4,0 1,-3 2,-2 3,-1 4,-1 3,2 2,-2 0,-3 3,2 0,-3 1,-2 3,0 1,-1 3,0 3,0 3,0 2,-3 -3,0 -3,0 -3,0 -3,0 -3,1 -1,-3 1,-2 2,1 3,0 3,0 3,0 3,-1 3,-1 0,-4 1,-4 1,-3 3,1 1,4 -2,2 0,3 4,-1 2,4 -3,2 -3,-1 -2,2 -1,4 4,0 3,0 2,-1 3,-2 1,-3 -2,-4 3,0 3,1 -1,-4 1,-3 2,-1 1,-3 1,-3 2,3 3,-1 -1,4 -1,2 -3,2 0,3 3,3 -3,1 -1,3 -3,-1 -1,3 -3,2 -3,3 -4,0 -3,1 -3,-1 -1,3 -3,1 0,-3 0,-3 -3,0 -3,0 -3,1 -3,0 1,3 -1,2 -3,1 0,3 3,-1 3,-1 1,-2 1,-1"/>
    <path style="fill:none;stroke:#000000;stroke-width:1"
          d="m 475,134 1,-2 3,0 0,3 -1,2 -1,2 -3,1 -2,1 1,3 3,-1 2,-1 2,-1 1,-3 2,2 2,-2 4,-1 3,-2 4,0 1,4 1,4 3,2 -2,3 -3,-1 -2,2 -2,2 -1,3 4,2 2,-2 3,-1 2,-1 2,-3 1,-4 2,-1 3,-2 -1,-4 1,-3 -4,-1 -1,4 -1,1 -2,2 -2,-4 0,-4 2,-1 3,-2 2,-2 4,-2 0,3 -1,3 4,2 1,-3 1,-3 1,-3 -4,-1 2,-3 0,-3 -3,-1 2,-3 2,-2 3,6 1,5 3,1 -2,4 -2,4 3,0 4,-3 1,4 1,4 -2,3 -2,4 -2,3 -2,2 -2,4 3,1 3,0 1,-2 2,-3 1,-3 2,-2 2,-3 3,6 -2,3 -3,2 0,3 -1,3 -3,0 -2,1 -1,3 -2,2 -4,2 0,-3 1,-3 1,-3 -4,-2 0,3 -2,2 0,3 -2,2 -4,0 -2,2 -2,2 -2,2 -2,2 -2,2 -1,3 -4,-2 1,-3 -4,-2 -1,3 -2,-1 -3,1 -3,-1 -1,3 -3,-3 -1,3 -4,-2 1,-3 3,-3 3,-1 0,3 4,1 -1,-3 -1,-3 1,-2 2,-1 3,-1 1,3 -1,1 -2,2 1,3 2,-2 4,0 4,2 2,-2 2,-2 1,-3 3,-1 3,-1 3,-1 1,-4 1,-3 2,-2 2,-2 1,-3 2,-2 2,-2 2,-2 1,-4 -4,0 -2,2 -3,1 -1,3 -1,4 -3,2 -2,3 -1,3 -1,3 -4,0 -2,2 -3,2 -2,2 -2,2 -2,-4 2,-3 -4,-2 -2,2 -3,0 -1,1 -3,1 -2,1 -1,3 -2,-3 0,-3 3,-1 1,-1 3,-1 3,0 1,-2 1,-2 1,-2 2,-2 2,-2 3,-2 -1,-4 -3,2 -3,1 -3,1 -3,1 3,2 -1,2 -1,1 0,3 -3,0 -3,1 -3,1 -2,1 -2,3 -1,1 -4,0 0,4 4,0 4,1 -1,3 -3,1 -3,-1 -4,0 -1,-4 -3,1 0,4 -3,-1 -4,0 -1,3 -3,2 -2,4 -3,-1 -2,2 -2,2 -1,3 -3,2 1,3 -1,3 -1,2 -1,3 -1,2 0,3 0,3 -3,0 0,4 -4,1 -4,2 -1,3 -2,2 -2,3 0,4 -2,2 -5,1 -3,2 -3,2 -2,3 -3,2 -1,4 -1,3 -2,3 -2,4 -3,1 -4,1 -4,1 0,-4 2,-2 2,-2 3,1 2,-3 1,-3 -5,1 0,-4 3,-2 4,1 1,-4 4,-2 3,-4 3,-2 5,-1 2,-3 1,-4 2,-3 1,-3 2,-3 4,0 3,-2 0,-4 4,-1 1,-4 1,-3 1,-2 2,-2 -3,-3 2,-2 3,-1 0,-3 -1,-3 3,-1 2,-2 4,-1 2,-2 2,-2 1,-3 3,-1 4,0 0,-4 3,0 4,0 0,-3 3,-1 2,-1 2,-2 3,-2 3,0 3,0 3,-1 0,-3 -3,0 -2,1 -3,0 -1,-4 -3,0 -1,3 -1,2 -3,0 -2,2 -2,1 -2,2 -2,2 -2,-4 1,-3 3,-2 3,-2 3,-2 1,-3 -4,-2 -1,3 -3,-1 -1,3 -2,2 -4,0 0,3 -3,0 -3,0 2,4 2,4 2,-4 2,4 -1,4 -3,0 -3,0 -1,3 -2,1 -1,3 -2,2 -3,-1 -2,2 0,3 -4,0 1,3 -3,1 3,2 -2,2 -3,-1 -2,2 -4,0 -1,3 -3,2 -4,0 -3,1 0,4 -3,2 -2,2 -1,4 -4,0 -2,3 -3,3 -1,3 -1,1 -1,2 -1,3 -2,3 1,4 3,-2 3,-3 2,-3 1,-3 4,2 3,-3 -5,-2 2,-3 4,0 1,-4 3,-4 4,-1 0,-4 4,0 3,-2 2,-2 2,-2 3,1 -2,4 -1,4 -2,1 -4,1 0,4 -4,0 -3,1 -1,3 -2,4 -1,5 -2,3 -2,2 -4,0 -3,3 -2,2 -2,3 -4,3 0,-4 -4,0"/>
    <path style="fill:none;stroke:#000000;stroke-width:1"
          d="m 383,225 0,4 -2,2 -2,3 0,3 -1,3 -2,2 -2,2 1,3 -1,2 -1,2 -2,2 -3,0 0,-3 2,-2 0,-3 1,-3 1,-2 2,-2 1,-3 -1,-3 2,-2 0,-3 2,-2 0,-3 4,-1 0,-3 -1,-4 2,-2 1,-3 2,-2 2,-1 0,-2 0,-2 3,-2 1,-4 -3,-1 -2,3 -2,2 -1,1 1,3 -2,-1 -1,2 -2,-2 1,-3 0,-2 2,-1 1,-1 -3,-2 2,-1 1,-2 -3,-1 -2,2 -1,2 0,2 -1,1 1,3 -1,1 0,2 2,4 -2,3 -3,0 -3,0 3,-3 1,-2 -3,-2 -2,2 -1,2 -2,2 -1,2 0,3 -1,2 1,4 -1,3 -3,1 1,3 3,0 2,-2 1,-3 0,-3 1,-1 0,-3 1,-2 3,1 3,0 0,4 -3,0 0,3 -1,2 -1,2 0,3 -3,1 -2,2 0,3 4,-2 0,3 -2,2 -1,3 -1,3 -1,3 -1,3 -1,3 -1,1 -1,3 0,3 1,4 4,1 -2,2 -2,1 0,3 1,3 3,1 0,-3 1,-3 3,-1 -1,-3 3,-1 1,-3 -3,0 -3,0 -3,0 1,-3 2,-1 4,1 3,0 0,-3 4,1 1,4 -1,3 -2,2 -3,3 -1,3 -2,1 0,4 2,-1 4,-2 1,-3 3,-2 3,-2 1,-3 1,-4 -3,-1 3,-3 4,0 4,-1 1,-4 2,-3 2,-4 1,-4 3,-2 2,-3 3,-2 3,-2 4,0 3,-1 1,-4 0,-4 3,-4 2,-3 3,-1 3,-1 2,-1 -1,-3 2,-1 1,-3 -1,-3 2,-2 0,-3 1,-2 1,-3 0,-4 3,-2 2,-3 3,0 3,-1 0,-4 3,-1 2,-1 1,-3 4,2 -1,3 4,2 1,-3 -1,-4 3,1 3,0 1,4 -2,2 -1,3 -2,2 -3,1 -2,3 -3,0 0,-4 3,-3 -4,-1 -3,1 0,4 -3,1 -4,0 -1,3 -2,2 0,3 -1,3 -1,3 -2,2 0,3 0,3 -1,2 0,3 -1,2 -1,3 -3,-3 -1,3 -3,1 -3,3 4,2 -4,2 -1,4 4,3 1,-3 2,-2 2,-3 -1,-3 2,-1 2,4 2,-2 0,-3 1,-3 4,2 0,4 4,-2 1,-3 2,-1 1,-3 3,-2 2,4 2,-2 3,-1 1,-3 3,-1 4,2 4,-1 2,-2 4,1 0,-4 4,-1 2,-1 0,4 -2,2 -2,4 4,-1 2,-2 2,-1 -1,-3 1,-2 1,-2 -1,-3 -3,1 -3,0 3,-3 3,-1 2,-1 3,-1 4,0 3,-1 -2,5 -4,0 -2,2 0,4 -1,3 0,4 -2,2 -2,1 -3,1 1,3 -3,0 1,3 0,3 -1,3 -2,1 -2,3 -3,1 -1,-4 1,-3 1,-3 2,-1 -1,-4 -1,-4 -3,1 0,4 -1,4 -2,3 -1,3 -4,-1 -1,3 -1,3 -4,0 -2,2 -1,4 -1,3 5,-1 2,-3 4,0 1,-3 2,-3 3,1 4,3 -4,1 -1,2 -1,4 -2,2 -3,-1 -3,2 -4,1 -4,2 -1,-4 -4,2 1,4 0,4 -1,3 2,5 -4,2 -1,-4 -4,0 0,4 -4,1 -1,3 -2,3 0,4 3,3 1,-4 2,-2 2,-3 4,-1 0,4 -1,3 -3,2 0,4 -3,2 -3,2 -2,-5 -2,2 -4,-1 -3,0 2,-4 2,1 1,-3 0,-3 -4,0 -2,1 -2,3 -1,4 -4,0 -4,-1 -2,2 -2,2 -4,-5 2,-2 2,-2 0,-4 0,-4 2,-4 2,-3 0,-4 0,-4 -4,2 -1,4 -1,4 -2,4 -1,4 -2,3 -2,4 0,4 4,2 -3,3 -3,2 -2,3 -2,3 -2,3 -2,4 -2,3 0,4 -4,0 1,5 -2,2 -3,2 -4,0 -3,3 -1,4 4,1 2,-3 4,0 3,-2 4,3 -1,3 -5,1 -2,1 -3,2 -2,3 -3,-4 -2,3"/>
    <path style="fill:none;stroke:#000000;stroke-width:1"
          d="m 372,331 -1,3 -4,2 -3,1 0,3 -1,2 1,3 -1,3 0,4 -2,2 1,4 -3,1 -3,1 -2,1 -1,4 4,-1 3,-1 4,0 4,0 3,-1 1,-4 -6,0 2,-3 0,-4 2,-1 3,-4 -4,-1 0,-4 3,-2 4,-2 -1,5 4,0 0,4 -1,3 -3,2 -1,4 4,2 2,-3 4,-1 0,-4 0,-4 4,2 2,-1 4,-1 1,-3 -1,-4 4,0 2,-3 3,-2 3,-1 2,-3 1,-4 4,2 2,-2 -1,-4 -4,0 3,-4 1,-3 3,-3 3,-1 -3,-4 -4,0 -2,3 -2,3 -1,4 -3,2 0,5 -2,3 -2,2 -3,2 -3,3 -4,1 -3,3 1,4 -5,-1 -4,-2 2,-3 2,-2 3,-1 2,-3 4,-1 2,-3 0,-4 3,1 2,-2 1,-4 3,-3 0,-4 2,-3 2,-2 2,-3 4,0 1,-3 4,4 1,-3 0,-3 3,-2 0,-4 -4,0 -3,3 -4,0 -2,3 -3,-1 -2,3 -2,3 -2,3 -2,4 -1,3 -1,4 -4,1 -4,1 1,-5 3,-2 1,-4 2,-3 1,-3 2,-3 2,-3 2,-3 3,-1 2,-3 3,1 4,0 2,-3 4,0 3,1 3,-1 3,0 4,2 -3,3 -3,-1 0,3 -1,2 0,4 -2,1 0,3 -1,3 -2,2 3,4 2,-2 3,-1 -1,-4 2,-3 0,-4 2,-2 2,-3 3,-1 2,-3 4,-2 4,-1 0,-4 2,-3 5,2 -2,3 1,4 -3,2 -4,1 -3,2 -1,4 -2,2 -3,-1 -2,3 -2,4 0,4 5,1 0,-4 2,-2 4,3 0,-4 3,-2 0,-4 3,-2 4,-1 3,-2 1,-4 0,-4 0,-4 2,-3 2,-3 3,-2 4,2 3,-2 4,1 1,-5 1,-1 3,0 3,0 2,-2 -1,-3 -2,1 -2,1 -3,0 0,-4 2,1 2,-2 -3,-2 2,-1 1,-1 1,-2 -3,-1 -4,-2 -2,3 0,5 -3,2 0,5 -2,1 -3,2 -5,-1 -2,2 -2,3 -2,3 -4,1 0,-4 0,-4 3,-1 -1,-5 4,1 4,-1 3,1 3,-3 2,-5 -4,0 -3,2 -4,0 -4,1 0,-4 4,-2 3,-1 4,-1 4,1 2,-3 2,-3 1,-3 2,-2 4,-1 1,-2 1,-2 0,-3 3,1 -1,-3 1,-2 1,-2 2,-1 -3,-2 2,-1 1,-1 -1,-3 1,-1 4,-1 2,-2 0,-3 1,-3 0,-4 2,-1 3,-1 1,-4 2,-2 4,-2 -4,-2 3,-2 2,-3 2,-4 3,-2 1,-4 -3,-1 -2,2 -2,2 -2,2 -1,3 -2,2 -3,2 -3,-1 -2,2 -3,0 -3,1 -2,2 -3,-1 -1,2 -2,2 -3,1 -1,3 -2,2 -2,2 -3,1 -2,2 -4,-2 -4,-1 -2,2 -2,3 -3,-1 0,-4 3,-2 0,-4 -4,1 -3,2 -1,3 -2,2 3,3 -3,1 -1,3 -2,2 -3,-1 1,-4 1,-3 0,-4 2,-2 1,-3 3,-1 4,-2 -3,-1 -4,-1 3,-3 4,0 3,3 3,-1 1,4 1,4 4,1 3,0 3,-1 1,-4 2,1 2,-3 2,-3 3,0 2,-2 1,-2 3,2 2,-2 2,-2 -2,-1 -3,1 0,-3 -3,1 -3,1 -2,2 -3,0 -1,3 -2,1 -2,2 -2,4 -4,0 -1,-4 3,0 -2,-4 4,0 2,-3 1,-3 2,-2 3,1 4,0 3,-1 1,-2 3,-1 1,3 2,-1 4,2 0,4 4,-1 3,-1 1,-2 1,-3 2,-2 2,-2 2,-2 2,-2 4,-1 0,4 4,0 1,-2 2,-2 4,-1 2,-2 2,-2 3,0 1,-3 2,-4 2,-2 2,6 -1,3 5,4 -5,0 -4,1 -3,0 -1,3 -3,0 -3,1 -2,2 -3,1 0,3 -1,3 -1,3 -2,2 -2,1 -1,3 0,4 0,4 -4,-1 -1,3 -2,2 -1,4 -3,0"/>
    <path style="fill:none;stroke:#000000;stroke-width:1"
          d="m 501,206 -1,3 -1,3 0,5 3,-1 2,-2 1,-4 3,-2 1,-3 2,-3 4,0 1,-4 0,-4 1,-3 2,-2 2,-2 0,-3 1,-3 1,-3 3,-2 3,-1 1,4 -3,2 -2,3 0,3 4,-1 1,-3 4,0 0,-4 -1,-4 2,-2 3,-1 4,-1 1,4 -4,2 5,2 -2,3 -4,-1 0,4 -4,2 -1,3 -2,1 -2,4 4,0 3,1 1,-4 1,-3 4,1 2,-3 3,-2 1,6 -2,3 -4,1 -2,3 -4,2 -4,-1 -3,0 -4,-1 0,-4 2,-3 -4,-1 -1,3 -1,2 -1,2 0,3 -1,3 -1,3 -4,0 3,4 -4,0 -1,2 -3,1 -1,3 -2,3 0,4 -4,-2 -1,3 -4,0 0,-4 -3,-1 -1,3 0,4 4,2 -4,2 -4,-2 0,3 0,3 -2,1 -1,2 -1,2 -1,2 0,3 -2,-1 -1,3 -1,1 4,2 1,-2 2,-1 0,-3 1,-2 1,-3 4,0 0,3 -2,3 0,4 -2,2 -2,1 0,3 -1,2 1,3 3,-1 1,-3 3,-2 2,-1 -1,-4 1,-3 2,-1 0,-4 -1,-4 -4,-2 4,-2 4,0 0,-4 4,-1 3,1 2,-3 0,-4 2,-3 3,-1 2,-2 3,0 1,-3 0,-3 1,-3 1,-3 1,-2 3,1 4,1 -1,3 -4,0 -1,3 0,3 -1,3 -1,3 -3,1 2,3 -1,3 -3,-3 -3,0 -1,3 -1,4 4,0 2,-2 4,2 2,-3 1,-2 0,-3 1,-3 1,-3 1,-3 1,-2 4,-2 1,-3 2,-1 4,-1 3,-1 2,-3 4,0 -1,5 1,5 -4,-1 -4,0 -3,1 -2,3 -2,1 -2,2 -1,3 0,4 -2,1 0,4 3,-1 2,4 3,-1 -1,-4 -1,-4 1,-3 3,-2 2,-3 4,0 4,0 0,5 -4,0 -1,3 -4,0 0,4 4,2 3,-2 3,-2 0,6 -2,3 -4,0 -3,-1 -3,3 -3,0 -3,2 -1,3 -4,1 -2,2 0,3 4,0 2,-2 3,-2 3,-2 3,1 2,-4 3,4 2,-3 4,0 -1,5 -2,4 -3,-1 -1,4 5,2 -2,3 -4,-1 0,4 5,2 -2,3 -5,-2 -2,1 -2,3 -1,3 -2,3 -3,2 -3,3 -1,-4 1,-3 3,-2 1,-3 1,-3 1,-3 -1,-4 4,2 1,-3 1,-4 1,-4 -4,1 -2,3 -2,1 -3,1 -4,-2 -3,-1 0,3 -1,3 3,1 2,-2 4,3 -2,2 0,4 -1,3 -3,3 -3,0 -3,0 -2,2 -1,2 0,3 0,4 3,0 1,-2 1,-2 0,-3 3,0 1,4 -1,3 -2,3 -3,1 -1,2 -2,-1 -2,2 0,3 -3,-2 -1,3 -3,1 -4,0 -2,3 5,1 -2,4 -3,-1 -1,3 -1,4 4,0 3,-1 3,0 3,1 3,-1 2,-2 4,0 2,-1 -2,5 -2,2 -4,0 -1,4 -2,3 -2,1 -3,0 -2,2 4,2 -1,3 -3,-1 0,3 -2,2 0,3 -1,3 0,4 -2,-1 -3,2 0,4 -3,1 1,5 3,-1 4,-1 0,-4 3,1 2,-2 -1,-4 1,-3 0,-4 2,-2 3,-1 1,-3 0,-4 3,-3 1,-3 2,-2 4,0 0,4 -2,2 -1,3 -2,2 -1,2 0,4 -1,3 -1,3 -3,-4 -1,4 2,4 -2,1 0,4 -2,3 -2,1 0,4 -4,-2 -2,3 -2,1 0,4 4,0 2,-3 3,4 2,-3 1,-3 2,-4 2,-3 2,-3 1,-3 2,-3 1,-4 0,-4 2,-3 2,-3 2,-3 1,-4 1,-4 -4,-2 0,-4 3,-1 4,0 2,-4 -3,-1 -4,1 -1,-4 3,-2 2,-3 4,5 1,-4 0,-4 2,-4 0,-4 -4,2 -2,3 -2,2 -3,1 -1,3 -4,0 0,4 -3,0 -2,2 -3,1 -2,2 -4,-1 2,-3 1,-2 3,0"/>
    <path style="fill:none;stroke:#000000;stroke-width:1"
          d="m 514,294 1,-2 3,-1 0,-3 3,-1 2,-2 3,-2 2,-2 2,-2 3,-2 3,-2 4,2 0,-4 2,-3 1,-4 4,0 0,5 -2,3 0,5 -2,3 0,4 -2,3 0,4 -1,4 -1,4 -2,3 -1,4 -4,1 3,3 -2,4 -1,3 -1,4 -2,3 -1,3 -2,2 0,4 -2,3 -1,4 -2,4 -2,3 -2,3 -1,3 -1,4 -3,2 -1,4 -2,3 -2,3 -2,3 -2,3 -1,4 -3,3 -2,3 -2,3 -3,4 -3,3 -3,2 -1,4 -3,3 -4,3 -3,3 -4,2 -3,1 -2,3 -4,2 -3,2 -3,2 -3,2 -3,2 -3,2 -3,2 -3,2 -3,2 -4,2 -4,2 -5,2 -4,-1 -2,3 -4,0 -3,1 -3,2 -5,1 0,-5 3,-3 2,-3 5,1 2,-3 4,0 4,-3 1,5 4,-3 4,-2 3,-3 1,-4 4,1 3,-3 3,-2 3,-2 3,-2 3,-2 1,-4 4,3 2,-4 2,-2 5,0 3,-3 3,-2 4,-2 1,-5 3,-3 3,-1 2,-3 2,-2 1,-4 3,-2 2,-3 2,-3 1,-4 2,-3 2,-2 3,-3 -4,-2 -4,0 0,4 -3,2 -1,4 -2,3 -2,2 -2,2 -2,2 -2,3 -2,3 -3,1 -2,-5 2,-2 2,-2 2,-4 2,-3 3,-2 3,-2 2,-5 -4,0 -3,2 -3,2 -3,2 -1,4 -3,1 -2,3 -2,4 1,4 -4,2 -4,2 -4,0 -4,1 -4,0 -4,1 -4,-2 0,4 5,4 -2,2 -4,0 -2,3 -2,3 -4,-2 -1,3 -2,3 -2,3 -5,-1 -1,4 -3,-1 0,4 -4,0 -1,4 4,1 4,-1 3,-3 2,-3 4,1 2,-3 3,-2 2,-1 3,-2 2,-2 2,-3 4,-1 3,-3 -2,-5 4,0 4,-1 4,0 4,0 2,-2 3,-2 3,1 -1,5 -3,3 -4,0 -2,1 -1,3 -4,1 0,-5 -3,1 -2,4 0,4 -5,-1 -1,4 -2,2 -3,2 -3,2 -3,1 -2,3 -5,0 -2,3 -2,3 -2,2 -3,-1 -4,0 -3,2 -2,-5 -3,-1 -2,4 4,3 -4,2 -3,-1 -3,2 -3,2 -2,2 -3,2 -5,-2 -5,1 -5,-2 -2,3 -1,5 6,1 5,1 4,-2 5,0 0,5 -4,1 -5,1 -4,1 -4,0 -6,1 -5,-1 5,-6 -4,-1 -4,1 -4,0 1,5 -4,1 -5,0 0,-5 3,-2 -2,-5 -5,2 -1,-5 -4,1 -1,3 -4,2 -4,2 0,5 5,-1 4,-2 4,1 0,5 -4,1 -4,1 -5,0 -4,1 -5,0 0,-5 4,-1 0,-5 -5,0 -4,2 0,5 -1,4 -4,-5 -2,4 -5,-1 -5,0 5,-5 3,-2 4,-1 0,-4 4,0 2,-3 4,2 3,-1 4,0 4,-2 2,-3 3,-2 1,-3 5,-1 0,4 4,2 1,-4 4,-2 3,-1 4,0 0,-4 1,-3 2,-1 2,-2 1,-3 1,-4 -4,0 -2,3 -3,1 -2,2 -4,2 4,2 -1,3 -4,0 -3,3 -4,-2 2,-3 2,-3 -1,-5 4,0 2,-3 3,-1 2,-2 0,-4 -4,-1 -3,2 -4,0 1,4 -4,0 -2,3 1,4 -2,3 -2,3 0,4 -4,1 -2,3 -3,4 -4,1 -4,0 3,-4 3,-2 1,-3 2,-3 3,-1 1,-4 2,-3 1,-3 1,-5 1,-4 3,1 2,-4 4,0 4,-2 4,0 4,-1 3,-1 3,-3 3,1 -2,4 -3,3 -4,1 2,5 3,-1 4,3 0,-4 1,-3 2,-3 2,-2 0,-4 3,1 2,-3 2,-2 3,-1 -2,-4 -5,1 -2,3 -4,0 -3,1 -4,-2 -2,4 -4,0 -3,2 -4,0 -3,2 -4,0 2,-5 3,-2 4,0 2,-2 4,0 1,-4 5,1 4,0 4,0 4,-2 3,-2 1,-4 -4,-2 -2,3 -3,2 -4,0 -4,0"/>
    <path style="fill:none;stroke:#000000;stroke-width:1"
          d="m 372,378 -4,0 -4,0 -2,3 -4,2 -4,1 -3,-1 -1,3 -2,-1 -1,4 3,1 -3,2 -3,1 4,3 -2,2 -3,0 0,4 -2,2 1,3 -2,2 -1,3 -2,1 0,3 -2,2 -2,3 -2,3 -1,2 -2,3 -2,2 -2,4 -7,0 2,-6 -5,0 -3,3 -4,2 5,4 -4,2 -3,1 0,5 -2,2 -3,3 -5,0 -4,1 -5,-3 -2,5 -3,4 -1,8 3,1 1,-1 0,4 -2,-1 -1,2 -1,2 -2,1 -1,2 3,0 2,-2 2,-1 0,3 -1,2 -1,1 -2,1 0,3 -1,2 3,0 0,-3 4,-1 -1,2 0,2 -1,2 -1,2 3,1 -1,2 -2,1 0,3 4,-2 0,3 -1,2 3,0 -1,3 1,2 -1,2 4,1 0,3 -2,-1 -1,2 0,4 2,-1 3,-1 0,2 0,2 3,1 -3,1 -1,2 0,3 -1,3 -1,2 -1,3 1,2 3,-1 -1,3 -1,2 -2,1 0,2 3,2 0,2 3,1 -1,2 -1,4 3,-1 1,-2 1,-2 1,-2 2,-1 0,-2 2,-2 1,-3 -4,0 -2,2 0,3 -2,-1 -1,2 -2,-2 1,-2 1,-2 2,-2 3,-1 2,-2 0,-4 -1,1 -3,1 -3,1 -1,-3 2,-2 0,-3 1,-2 3,0 -1,2 0,3 3,-1 3,2 0,2 0,2 0,3 3,-1 1,-2 2,2 -2,2 0,3 -2,1 -1,3 -2,2 2,2 -2,1 -1,2 -2,-2 -1,3 0,2 -1,1 0,2 1,3 2,-1 1,-2 2,-1 -2,-2 2,-1 2,-1 2,-1 0,-2 0,-2 1,-2 2,-2 2,-1 -1,-3 0,-2 3,1 1,3 2,-1 1,3 2,-1 2,3 1,-2 2,1 3,1 0,2 -2,1 -4,0 -1,2 1,3 -2,2 2,1 -2,2 -1,2 -2,-1 0,3 -3,-1 -1,3 -2,3 -2,2 0,3 -1,2 -1,2 -2,2 3,2 4,-1 3,0 0,-2 0,-2 -1,-3 1,-3 2,3 1,-2 1,-2 -2,-1 1,-2 2,-1 1,-2 2,-2 0,-2 3,0 1,-2 1,-2 -3,1 0,-3 2,-1 2,-1 2,-3 1,3 2,-1 1,3 -3,0 -2,1 1,3 3,-1 3,0 2,4 -3,2 -1,2 1,3 -1,5 -3,2 0,5 -3,3 0,5 -1,3 -2,1 -2,1 0,2 -1,2 -3,0"/>
  </g>
</svg>
