<?xml version="1.0" encoding="UTF-8" standalone="no"?>
<!-- Created with the Eggbot TSP art toolkit (http://egg-bot.com) -->

<svg xmlns="http://www.w3.org/2000/svg"
     xmlns:inkscape="http://www.inkscape.org/namespaces/inkscape"
     xmlns:sodipodi="http://sodipodi.sourceforge.net/DTD/sodipodi-0.dtd"
     xmlns:rdf="http://www.w3.org/1999/02/22-rdf-syntax-ns#"
     xmlns:dc="http://purl.org/dc/elements/1.1/"
     xmlns:cc="http://creativecommons.org/ns#"
     height="800"
     width="3200">
  <sodipodi:namedview
            showgrid="false"
            showborder="true"
            inkscape:showpageshadow="false"/>
  <metadata>
    <rdf:RDF>
      <cc:Work rdf:about="">
        <dc:format>image/svg+xml</dc:format>
        <dc:type rdf:resource="http://purl.org/dc/dcmitype/StillImage" />
        <dc:subject>
          <rdf:Bag>
            <rdf:li>Egg-Bot</rdf:li>
            <rdf:li>Eggbot</rdf:li>
            <rdf:li>TSP</rdf:li>
            <rdf:li>TSP art</rdf:li>
          </rdf:Bag>
        </dc:subject>
        <dc:description>TSP art created with the Eggbot TSP art toolkit (http://egg-bot.com)</dc:description>
      </cc:Work>
    </rdf:RDF>
  </metadata>
  <g      transform="translate(1321, 700) scale(1, -1)">
    <path style="fill:none;stroke:#000000;stroke-width:1"
          d="m 324,594 2,-1 -1,-2 2,0 1,-1 -1,-1 3,0 2,-5 -1,2 -2,1 -3,0 -1,-2 1,-1 -2,-1 1,-2 1,-1 -1,-2 2,0 0,-2 4,0 2,-4 2,-5 0,-5 -1,1 -2,1 -2,0 1,2 -1,2 -1,2 -2,0 -1,2 2,0 -1,2 -2,0 -1,2 -2,-1 -2,0 1,2 2,1 -1,1 1,2 -2,1 -1,-2 -1,2 -1,1 -1,-2 1,-2 1,-1 -1,-2 -2,-1 1,-1 2,-1 0,-1 -1,-2 -1,-2 2,-1 0,-2 1,-2 1,-1 1,-2 -1,-1 2,-1 1,-2 2,-1 -1,-2 -2,1 0,-3 0,-3 1,-2 3,-1 0,3 1,2 -2,1 1,1 2,0 2,-1 1,-1 -2,-1 0,-2 2,0 2,1 0,1 1,2 -1,1 -2,1 0,2 -3,-1 -1,1 -1,2 -2,1 0,2 -2,2 0,2 -2,1 0,2 -1,2 2,1 -1,1 1,2 2,-1 0,-2 1,-2 2,0 1,-2 -1,-1 1,-1 1,-3 2,1 1,-2 2,0 2,-1 2,0 -1,2 1,2 1,-1 5,3 -1,-6 -2,-4 -1,-2 -1,-2 -2,2 0,-2 0,-2 -1,-2 -2,-2 -2,0 -2,0 -1,-2 -1,-2 -3,-1 1,2 0,1 -3,-1 0,-2 -2,0 -1,-1 1,-2 -2,0 -1,-2 -2,1 -1,-2 -1,2 1,2 2,0 1,2 -3,1 -1,3 -2,0 -2,1 1,1 1,2 1,2 2,-1 -1,-2 1,-1 2,0 0,-2 2,0 2,0 -1,3 -1,2 -1,2 -3,1 -2,2 -1,-1 -2,1 0,1 1,2 -2,1 -1,-2 -1,2 -1,1 -2,0 1,-2 1,-2 -2,0 -2,1 0,1 -3,0 0,-2 0,-2 2,1 2,-1 0,-1 2,-1 1,2 1,-1 1,-2 1,2 2,-1 -1,-2 -1,-2 -1,-2 1,-3 3,-1 0,-3 0,-2 0,-2 0,-2 -1,-1 -2,1 -1,1 2,1 -2,1 1,3 -2,1 -1,3 -1,2 -2,-1 0,-2 1,-2 1,-3 0,-3 -3,1 -1,2 -1,2 -2,1 -2,0 -1,-2 1,-1 -2,-1 3,-1 2,-2 -3,-1 2,-2 -1,-3 0,-3 1,-1 1,2 1,2 2,-1 1,2 -2,1 1,2 2,-1 1,2 1,-1 2,0 -1,-2 -2,-1 0,-2 -2,-2 -2,0 -1,-2 -1,-2 -1,-2 -2,1 1,2 -2,0 -1,1 0,3 0,3 -1,2 -1,2 0,2 -1,2 -1,-2 -1,-2 -2,1 -1,-2 -1,1 0,2 2,2 1,-1 1,2 -2,1 2,2 1,-1 2,-1 1,1 1,2 -2,0 -1,1 0,2 2,0 0,2 2,-1 0,-2 2,-1 1,1 2,-1 1,2 -2,1 -2,0 0,2 -2,1 1,2 1,-1 2,0 1,-2 2,-1 1,2 1,-1 2,0 1,2 -1,1 -2,0 -2,1 -1,-2 -1,2 -1,1 -2,0 -3,1 -3,0 0,-3 -3,1 0,-3 -3,1 -1,-3 1,-2 -4,2 0,-3 1,-2 -3,-2 2,-2 -3,-1 0,-3 -1,-3 -3,0 -1,-2 3,-1 -1,-4 -1,-4 -2,2 -1,-2 0,-2 1,-2 -1,-1 -1,-2 3,-1 4,-1 1,-1 1,-2 2,-1 1,1 -1,2 0,1 -2,1 -1,2 1,2 0,2 -1,1 2,1 -1,2 2,0 1,2 -1,1 0,2 2,-1 2,-1 2,1 -1,1 -2,1 -2,1 1,2 2,-1 2,-1 1,2 1,-1 1,-2 0,-3 1,-1 -1,-3 1,-2 2,0 2,-1 -2,-1 1,-1 -1,-2 -2,1 0,-2 1,-1 -1,-2 1,-3 -2,1 -1,1 0,2 -1,2 0,3 -1,3 -1,2 0,2 -2,0 -1,-2 0,-1 1,-2 -2,0 -1,-2 -1,-2 2,-1 1,2 1,1 1,-2 -1,-3 1,-2 1,-3 3,0 -1,-1 1,-1 1,-3 -2,1 -1,-2 -1,1"/>
    <path style="fill:none;stroke:#000000;stroke-width:1"
          d="m 286,499 -1,2 -2,2 -3,-1 0,1 -2,1 -2,1 0,-1 1,-2 0,-2 -1,-2 -1,-1 1,-1 1,-2 -2,-1 1,-1 2,-1 -1,-2 -2,1 -1,-2 2,-1 2,0 1,-2 1,-2 1,-1 1,2 1,2 -2,0 -1,2 0,1 0,2 2,2 -3,0 1,2 -2,1 1,2 0,2 2,0 1,-2 -1,-1 3,-1 3,0 2,-1 -3,-1 -1,-1 1,-1 2,-1 -1,-2 -2,1 -2,-1 1,-1 2,-1 -1,-2 0,-1 2,-1 0,-2 -3,1 -1,-1 1,-1 0,-2 2,-1 0,-2 -1,-2 -1,-2 0,-1 2,-1 -1,-2 -1,-2 -2,1 1,2 -2,0 -2,0 0,-2 -2,1 -2,0 1,2 2,1 -1,1 -2,1 1,2 -2,1 1,2 1,2 1,-2 1,-1 2,0 -1,-2 -1,-1 2,-1 1,-2 1,2 1,2 -1,1 1,1 -1,2 -2,0 0,2 -2,0 -1,1 1,2 -2,1 0,1 -2,0 1,-3 -1,-2 -1,-2 -4,1 3,-3 -1,-2 2,-1 -1,-2 0,-1 2,0 -1,-2 -1,-1 -2,1 -1,2 1,2 -2,0 -1,-1 0,-2 -1,-2 2,0 1,-1 1,-5 6,-1 4,-4 3,-5 4,-2 1,-7 4,-2 2,-4 3,-3 2,-4 2,-4 3,-3 -2,-6 6,2 5,-1 1,6 -4,2 -2,4 -3,3 -2,5 -2,4 -3,2 -4,6 5,0 5,1 2,-5 2,-5 3,-3 2,-4 3,-3 3,-4 1,-5 -2,-6 4,1 1,-5 3,-2 2,-3 1,-5 3,-2 5,-1 3,-7 -6,0 -4,2 -5,1 -2,4 -2,4 -3,1 -1,5 -4,-1 -2,4 -4,1 -4,-1 2,-6 2,-3 4,-2 3,-4 3,-2 2,-4 3,-3 5,0 6,-1 1,-4 5,2 1,-5 1,-5 3,-3 2,-7 -4,1 -5,2 -2,4 -1,5 -5,-2 -1,6 -4,1 -5,0 -3,2 -2,3 -2,3 -4,0 1,5 -3,2 -5,-4 2,-3 0,-5 4,-1 3,-3 3,-3 2,-3 5,2 4,-2 -5,-4 -4,-1 4,-4 0,-5 2,-3 4,-2 -2,-6 4,1 2,-2 3,-3 3,-1 6,-2 0,5 -1,4 -5,0 -3,3 -3,3 -2,4 -3,3 0,5 5,-1 2,-4 4,-3 3,-3 4,0 5,0 0,-6 0,-5 2,-4 -5,-4 5,-2 3,-2 0,-6 0,-5 4,-3 3,0 1,-2 2,1 -1,2 -1,2 1,2 -3,1 2,1 -1,2 3,0 0,2 -2,1 1,1 -2,1 0,2 -1,2 3,-1 -1,2 -1,2 0,2 -2,1 2,1 0,2 -1,2 -2,-2 0,3 2,1 -1,2 -2,1 2,1 -1,2 -2,1 2,2 2,-1 1,-2 1,-2 0,-2 1,-2 0,-2 1,-2 0,-2 4,5 4,-2 3,1 -2,5 -5,1 -1,5 -3,2 -4,0 -2,0 -2,0 0,2 3,1 -1,2 -2,-1 -1,2 2,1 0,2 -3,-1 1,2 0,2 -2,0 1,2 0,2 -2,0 0,2 2,1 3,-2 2,-4 3,-4 2,-2 4,-2 3,-4 2,-4 5,-1 1,-4 1,-4 1,-3 0,-5 4,-3 2,-3 5,0 4,-2 4,1 2,-4 4,0 6,2 -1,4 -4,0 -3,2 -6,0 -5,2 -3,2 -4,2 1,5 -2,4 0,5 -1,3 -5,1 -3,2 -2,4 -4,3 -3,3 -3,3 -1,4 -3,3 -5,1 -3,-3 -2,-1 1,3 -2,1 2,1 0,2 -3,0 1,2 -1,2 0,2 -2,1 1,3 -2,0 0,2 -1,2 -1,2 -2,2 0,2 4,1 3,-1 2,-3 2,-3 0,-5 1,-3 3,-3 4,-2 5,2 1,-4 3,-1 2,6 0,5 -4,0 -5,-2 -3,2 -1,4 -1,4 -1,4 -3,3 -4,2 -2,4 -1,5 -3,3 -6,1 1,-4 2,-3 3,-3"/>
    <path style="fill:none;stroke:#000000;stroke-width:1"
          d="m 341,419 -1,-6 -3,-1 0,2 -1,2 -2,2 0,2 -2,2 -1,2 -1,2 -1,2 -2,3 5,1 -3,2 -3,1 -3,2 -1,4 -3,2 0,4 -5,0 -3,6 5,0 5,1 5,0 4,0 4,0 5,0 5,-1 3,-2 5,0 5,-1 5,0 5,0 0,-5 4,-2 4,-1 -1,8 6,1 3,-1 5,0 5,-2 4,0 4,-2 4,0 4,-2 4,0 3,-2 4,0 5,-2 5,-2 4,-2 4,-2 2,-2 5,-2 3,-3 4,-2 4,-3 3,-3 3,-2 4,-2 4,-3 3,-3 4,-3 3,-3 3,-3 3,-3 1,-4 3,-1 3,-4 3,-3 1,-4 3,-3 3,-3 2,-5 3,-3 2,-5 3,-4 1,-4 3,-3 2,-5 1,-4 3,-3 1,-5 2,-4 2,-4 2,-5 -4,0 -4,2 -1,-5 3,-3 4,0 4,1 0,-5 3,-3 0,-5 2,-3 1,-4 1,-4 2,-4 -4,-3 4,-2 1,-3 2,-4 0,-5 1,-4 1,-4 1,-5 -5,0 -3,1 1,5 -1,5 0,5 -4,-1 -4,0 -4,-1 2,-4 4,0 2,-4 -3,-1 2,-4 1,-5 2,-2 -1,-5 1,-3 2,-3 0,-5 5,-2 0,5 0,5 -2,4 0,5 5,0 1,-4 1,-5 0,-5 0,-4 1,-4 -5,-2 2,-4 2,-1 0,-5 0,-5 0,-6 -5,1 0,5 -1,4 -2,4 -2,1 -5,-2 -3,1 -4,1 0,2 0,2 0,2 0,2 -1,2 -1,2 0,2 2,0 1,-2 2,-1 1,-4 2,-3 2,-1 4,1 0,4 -4,1 0,4 -1,3 -2,2 -1,3 1,4 -1,3 0,4 -2,3 -1,5 -2,4 -2,-2 -2,1 1,2 0,2 0,2 -1,2 0,2 -1,1 0,2 -1,2 -2,1 -1,-2 2,-1 -2,-2 1,-2 0,-2 2,-1 0,-2 0,-2 -1,-2 1,-2 2,-1 2,-1 1,-2 0,-2 0,-2 0,-2 2,-2 -3,0 1,-2 -1,-2 1,-2 2,2 0,-4 -2,0 -1,-2 2,-1 1,-1 -3,-1 -2,1 0,-3 0,-2 1,-2 1,-2 -1,-2 1,-1 0,-2 0,-2 0,-2 2,-1 1,-1 0,-2 0,-2 -1,-2 0,-2 3,0 3,0 -1,5 4,0 2,-1 2,-3 0,-5 -4,2 -1,-4 -4,1 1,-4 5,0 4,0 4,1 4,-2 0,-5 -2,-6 -4,2 1,5 -5,-2 -2,1 -2,2 -4,0 -2,-4 3,-1 1,-3 4,0 1,-3 4,-1 4,-1 1,-5 -5,0 -2,-5 3,-2 -1,-5 -1,-5 -4,0 0,6 -4,0 2,4 -4,0 -3,1 -2,3 -3,0 0,2 0,2 -3,0 0,2 0,2 -4,0 -1,3 -4,0 0,4 -3,2 -3,2 -2,-5 3,-2 0,-4 2,-3 3,1 2,-2 4,-1 3,-1 0,-2 1,-2 1,-2 2,-2 4,-2 1,-3 3,-2 0,-3 1,-4 5,0 -1,-6 -4,1 -4,1 0,4 -2,4 -2,2 -1,4 -3,2 -1,2 -1,1 0,2 -2,1 -4,-2 -1,3 -3,1 -4,0 0,-4 4,-2 -4,-2 -4,0 -1,3 1,4 -5,-2 -1,3 -4,-1 -1,3 0,3 -1,2 -2,1 0,2 -2,-1 0,2 0,2 1,2 -1,2 1,2 0,2 1,2 -1,2 1,1 -3,1 -1,-2 1,-2 -1,-2 0,-2 -1,-2 1,-2 -1,-2 0,-2 0,-2 0,-2 1,-1 2,0 2,-1 1,-2 0,-2 -1,-2 1,-1 1,-2 0,-2 3,0 4,-1 0,-4 2,-2 4,1 2,-3 0,-4 4,0 4,-3 3,-2 2,2 -1,1 1,2 -1,2 -3,0 -1,3 -4,-1 -1,4 4,2 3,1 4,0 -1,-3 2,1 1,-2 -2,-1 0,-2 1,-2 2,1 0,-4 4,0 -1,-4 1,-3 3,-2 4,-2 2,-3 -6,1 -4,0"/>
    <path style="fill:none;stroke:#000000;stroke-width:1"
          d="m 523,145 -2,2 -2,3 -1,3 -3,-1 -2,-1 0,-3 0,-2 3,0 -1,-5 3,1 1,-4 2,-2 2,5 3,-2 2,-1 0,-5 -6,-1 0,-5 1,-3 -4,5 -2,4 -2,3 -4,1 -1,-4 2,-2 3,-2 0,-4 2,-2 0,-3 1,-4 -3,2 -1,-2 -2,4 -2,2 1,4 -4,-2 0,4 -2,1 -4,1 1,4 4,-1 1,4 1,4 4,1 -3,3 0,4 -2,2 0,4 -4,0 0,-4 -4,1 -1,4 1,4 -3,1 -4,1 -2,2 0,3 -2,2 -2,1 -2,-1 1,-2 2,-1 -2,-1 1,-2 0,-2 1,-1 0,-3 -2,1 -1,1 -1,2 0,2 -1,2 0,2 -1,2 -1,2 -2,1 0,-3 1,-2 0,-2 1,-2 0,-2 -2,0 -1,2 -1,-2 -1,2 1,2 0,2 -1,2 -3,0 -1,4 3,1 4,0 1,2 2,-1 0,-2 2,-2 2,1 -1,1 0,2 -1,2 1,2 0,2 -2,1 -1,-2 0,-2 -2,1 -1,2 -2,3 0,4 -2,1 -4,0 0,-4 2,-3 2,-3 -4,-2 -2,3 -3,2 0,3 -1,3 0,4 4,0 0,4 -4,1 -2,2 -3,2 -2,2 -2,3 -2,4 -4,-1 -1,3 -2,2 -4,-1 -2,3 -3,-2 -1,2 1,2 -1,2 0,2 0,2 0,2 1,2 2,-2 0,-4 4,0 2,-3 4,2 1,-4 3,-2 4,0 1,-4 2,-3 3,-4 4,-1 2,-3 4,0 -1,-4 1,-3 4,1 0,4 0,4 -4,2 -1,3 -4,1 -3,1 -2,4 4,1 4,0 2,-2 3,-2 2,-3 4,0 1,2 -1,2 1,2 -1,2 -5,-1 -1,4 -2,1 -4,0 -1,3 -1,4 -1,3 -3,2 -1,5 -4,0 -2,3 -4,-2 -2,5 5,1 -3,5 4,0 5,-1 1,-4 3,-1 4,0 1,-4 -4,-2 3,-3 3,-2 0,-4 2,-2 2,-1 4,-1 2,-1 0,-2 -1,-2 2,-1 1,-2 1,-2 -1,-2 1,-2 -1,-2 2,0 2,0 0,-2 0,-2 2,-1 -2,-1 -1,-2 0,-2 -1,-2 2,0 -1,-2 -1,-2 2,0 0,-2 0,-2 3,-2 3,1 0,-4 4,-1 3,1 -2,3 -1,3 -1,4 -3,-1 -3,2 0,5 4,2 0,-4 4,1 1,4 -2,3 -4,0 1,4 -1,4 -3,-3 -3,1 -1,1 1,2 2,1 -3,1 1,2 3,3 -3,0 -1,1 -1,-3 -1,1 0,2 0,2 -2,1 -1,2 0,2 0,2 -1,1 2,1 -1,2 -1,2 -4,-5 -2,3 -1,4 0,4 -1,4 -4,2 -3,2 -5,2 -4,2 -5,-1 -4,1 -4,0 -4,0 -1,4 6,1 5,2 3,-2 4,0 0,5 -4,2 -2,5 -4,3 -5,-1 2,-4 4,-3 -3,-1 -4,-2 -4,0 2,5 -2,4 -4,0 -1,-4 2,-2 -2,-1 -2,1 -1,1 -1,-3 2,-1 1,-2 2,1 -1,-3 1,-1 1,-2 0,-2 0,-2 2,-2 4,-1 3,-2 3,1 -1,-5 -1,-4 3,-2 0,-5 4,-1 3,-1 4,0 0,-5 3,1 2,-4 1,-4 -4,-1 -2,3 -4,0 -2,4 -5,1 -3,2 -2,3 0,4 -3,3 0,4 -2,3 -3,0 0,-2 1,-2 -1,-2 1,-2 0,-2 1,-2 0,-2 -3,0 0,-2 -1,-2 0,-2 0,-2 0,-2 1,-2 -1,-2 1,-2 -1,-2 -1,-2 -2,1 -1,2 2,1 -1,2 1,2 -1,2 0,2 0,2 0,2 1,2 0,2 0,2 3,0 -1,2 0,2 -2,-1 -1,2 0,3 2,-2 1,2 -1,2 -1,1 1,1 -2,1 -4,0 -3,3 -4,3 -3,3 -4,1 -6,-2 1,-4 4,0 3,-2 4,-1 2,-4 3,-3 3,-2 0,-6 1,-4 -5,-1 1,-5 2,-5 0,-5"/>
    <path style="fill:none;stroke:#000000;stroke-width:1"
          d="m 425,211 4,-2 1,-1 3,0 -1,-2 0,-2 -3,1 0,-2 1,-1 -1,-2 0,-2 0,-2 1,-2 1,-2 2,-1 1,-2 2,1 0,2 -1,1 -2,1 -1,2 0,2 0,2 1,2 2,-1 2,-1 -2,-1 0,-2 1,-2 1,2 4,-2 -1,-4 3,-2 3,-3 -3,-1 -4,1 -3,0 -2,1 -1,-2 1,-1 0,-2 0,-2 1,-2 2,4 2,-2 4,1 0,-4 0,-4 3,-1 2,-3 0,-4 -1,-4 2,-1 2,-3 3,3 -1,4 -1,3 0,4 4,2 -2,3 -4,-2 -3,3 0,4 4,-2 4,2 -3,2 -2,3 5,0 0,4 -4,0 -3,1 -1,3 -2,1 3,4 -2,2 -4,-2 0,4 -3,1 -2,-1 -2,1 0,2 2,0 -1,2 -1,2 1,2 2,-2 4,-1 2,-1 3,-3 4,0 1,-4 0,-4 1,-3 4,2 2,-3 1,-3 -1,-4 1,-3 -2,-4 2,-2 3,1 2,-2 2,-3 0,-4 0,-4 3,-1 1,-3 3,-2 2,-1 -2,-1 2,-1 0,-2 2,-1 -1,-2 -2,1 -1,-2 2,-1 2,-1 0,-2 2,0 1,2 0,2 -1,1 1,2 -2,2 0,2 0,2 2,0 1,-2 0,-2 2,0 2,-1 -2,-1 2,-1 -2,-1 0,-2 2,-1 -3,-1 1,-1 1,-2 -3,0 1,-2 1,-2 -1,-1 0,-2 2,-1 3,-3 1,-4 3,1 0,4 -2,3 -1,3 -1,4 4,0 -2,4 0,4 1,5 3,-1 0,-4 1,-3 3,-1 4,-1 2,-2 0,-3 -1,-4 -4,0 0,4 -3,2 -2,-4 2,-3 1,-4 0,-3 2,-4 -3,-3 -2,3 -4,-1 0,-4 2,-2 0,-4 1,-4 4,-1 3,-2 2,-3 3,4 -1,3 -3,1 -1,3 -4,-1 0,4 4,1 2,4 2,-4 2,-2 2,-2 2,-2 2,-1 0,-2 -2,-2 2,-2 -4,0 -1,-2 1,-1 -3,-1 0,-2 2,-2 -4,-3 0,2 0,1 -2,1 -3,1 -1,3 -3,2 -2,1 -4,1 0,3 0,4 -2,2 -2,2 2,4 -2,2 -3,1 0,2 0,2 3,-1 -1,3 -1,1 0,2 -2,1 -1,-2 0,-2 -1,-2 0,-2 0,-2 0,-2 2,0 0,-2 0,-2 -2,1 -2,1 0,2 -1,2 0,2 1,2 0,2 0,2 1,2 1,2 0,2 2,-2 1,2 -1,2 -1,1 -3,-1 1,2 -1,2 -2,1 -1,-2 0,-2 1,-1 -1,-2 2,-1 0,-1 -1,-2 -2,1 -2,0 0,2 1,2 -1,2 0,2 0,2 2,1 -1,2 1,2 1,2 -3,0 -2,3 -2,3 -4,2 1,4 -1,3 -1,3 -4,-2 0,-4 1,-3 0,-4 4,-1 2,-3 1,-3 1,-3 -5,-1 -1,4 -2,3 -4,0 0,-4 2,-2 1,-3 2,-3 4,2 3,-1 2,-3 -1,-2 0,-2 -1,-2 -1,-2 0,-2 -2,-2 0,-2 -1,-2 1,-1 2,0 1,2 0,2 1,2 2,-1 0,3 -1,1 1,2 2,-1 2,0 0,-2 -2,-1 2,-1 -1,-2 0,-2 1,-2 -2,-1 -1,2 -1,2 -1,-2 0,-2 0,-2 1,-1 -1,-2 1,-2 2,-1 2,-1 0,2 0,2 -2,0 0,2 2,2 1,-2 2,-1 0,-2 2,1 1,-2 2,-2 2,-2 0,-4 0,-4 4,0 1,-3 4,0 2,-3 1,-3 3,-1 2,2 1,-2 -2,-2 0,-2 -2,-2 -1,2 0,2 -3,-2 1,-2 1,-2 -1,-2 -1,2 -3,0 1,2 -2,2 1,4 -1,3 -4,0 -2,3 -4,1 0,4 -1,3 0,4 -1,2 -1,1 -1,-3 1,-2 -1,-2 0,-2 0,-2 -1,-2 -2,0 0,2 0,2 0,2 -1,1 2,1 -1,2 -2,0 -1,-2 -2,-1 1,-2 1,-1 0,-2 1,-2 -1,-2"/>
    <path style="fill:none;stroke:#000000;stroke-width:1"
          d="m 469,100 2,-1 2,1 0,-2 3,-1 4,-1 2,-3 3,-1 0,-4 2,-3 1,-1 1,-2 2,2 1,-2 -1,-2 -2,0 -1,-2 0,-2 -3,0 0,-2 -2,0 0,-2 -2,-1 -1,2 -1,2 0,2 0,2 0,2 2,1 2,-1 -1,-2 0,-3 0,1 3,1 1,2 0,2 -1,1 -2,1 -2,4 -3,2 -2,3 -4,2 -2,1 -1,1 -2,1 0,2 0,2 -1,2 -1,1 -1,-3 0,-2 0,-2 1,-2 2,-1 0,-2 2,0 1,-1 1,-3 3,-1 2,-3 2,-2 -2,-2 0,-2 0,-2 0,-2 0,-2 2,0 0,-2 0,-2 3,0 -2,-2 -2,0 0,-3 -2,1 0,3 0,2 -1,1 -1,2 1,2 -1,2 0,2 0,2 -2,0 -1,3 -2,2 -1,1 1,2 -1,2 -1,-2 -2,1 -1,-2 1,-2 2,-2 0,-2 -1,-2 2,-1 1,2 2,-2 1,-2 0,-2 -1,-2 1,-2 1,-2 1,-2 -1,-2 1,-2 1,-1 -2,-1 -1,-2 -3,0 0,-2 -2,-2 -1,2 0,2 -1,2 0,2 -1,2 -2,1 -2,0 -1,2 0,2 1,2 1,2 2,-1 -1,-2 0,-2 2,-1 0,2 1,2 2,-1 0,-2 -1,-2 1,-2 1,-2 0,-2 2,0 1,2 -1,2 1,2 -2,0 1,2 -1,2 -1,2 -1,2 2,0 0,2 -3,0 -1,-2 -2,1 1,2 0,2 0,2 0,2 -2,0 0,2 -1,2 1,2 0,2 3,0 0,2 -2,0 0,2 -1,2 1,2 -1,2 1,2 0,2 -2,1 2,1 3,-1 0,2 0,2 2,1 1,2 -2,0 0,2 -1,2 0,2 0,2 -2,-1 -2,1 -3,1 1,-3 2,-1 1,-1 1,-2 1,-2 -1,-2 -1,-2 -2,0 0,2 1,2 -1,2 -3,1 0,-2 1,-1 -1,-2 0,-2 1,-2 -1,-2 0,-2 2,0 -1,-2 1,-2 -1,-1 0,-2 1,-1 0,-2 -1,-2 0,-2 0,-2 0,-2 0,-2 0,-2 2,0 0,-2 -2,-1 2,-1 -1,-2 -2,0 0,-2 -1,-2 0,-2 -2,-2 2,-1 0,-2 0,-2 2,-1 1,2 2,-1 -1,-2 2,0 0,-2 0,-2 0,-1 2,-1 -1,-3 -1,1 -2,1 -1,2 0,2 -1,1 -2,1 -1,1 -2,1 -2,1 2,1 0,2 -2,0 0,2 -2,1 -1,-2 0,-2 1,-1 -2,-1 1,-2 3,-1 2,-1 0,-2 2,0 1,-1 1,-2 1,-2 2,-1 0,-2 -3,1 0,-2 -2,-2 -1,1 0,2 -2,0 -2,1 1,2 2,-1 2,1 -1,2 -2,0 -2,0 0,2 0,2 -2,1 -1,-2 -1,2 -1,2 -1,2 1,2 0,2 1,2 0,2 2,0 0,2 0,2 -1,2 2,0 1,2 0,2 -1,2 1,2 0,2 0,2 -2,1 -1,1 -2,1 -3,1 0,-2 -1,-2 2,1 2,-1 0,-2 2,0 0,-2 -1,-2 1,-2 0,-2 -2,0 -1,-2 1,-2 0,-2 -1,-2 -2,0 0,2 0,2 -1,2 1,2 0,2 2,0 -1,2 1,2 -2,2 -1,-2 -1,-2 -1,-2 0,-2 -1,-2 -1,2 -1,2 1,2 1,2 1,2 -1,2 -2,-2 -1,-2 -1,-2 -1,-2 1,-2 0,-2 1,-1 2,-1 2,0 1,-2 -2,0 0,-2 1,-1 2,-1 2,-1 -1,-2 0,-2 -2,-1 0,2 -2,0 1,2 -2,1 -1,-2 -1,-2 -2,0 1,-2 -1,-2 0,-2 2,0 1,2 1,2 2,-1 -1,-2 -1,-2 1,-2 -1,-2 -1,-2 2,1 2,0 2,-1 0,-2 1,-2 3,0 -1,2 0,2 -1,2 -2,1 -1,1 -1,2 1,2 1,2 1,-2 0,-2 1,-1 2,-1 1,-1 1,-2 -1,-2 1,-2 2,-1 1,-1 1,-2"/>
    <path style="fill:none;stroke:#000000;stroke-width:1"
          d="m 452,44 -3,-3 0,2 -1,2 -3,0 -1,-2 2,0 0,-2 -1,-2 -2,-2 -2,1 2,2 -1,1 -2,0 1,2 1,2 -1,2 -2,0 0,2 -2,0 -1,-2 1,-2 2,-1 -2,-1 0,-2 1,-2 0,-2 1,-1 -3,-2 -1,1 0,2 0,2 -1,2 -1,-2 -1,-2 1,-2 0,-3 -2,-1 0,2 -1,2 -1,2 -2,1 -2,0 -1,1 -2,1 -2,-1 0,-2 2,-1 3,0 -1,-2 2,-1 1,2 1,-2 0,-2 -1,-2 -2,1 -1,1 -2,1 -1,2 -2,1 -2,1 -2,-2 2,-1 2,-1 0,-2 2,0 2,-2 -3,0 0,-2 -2,1 -2,1 1,2 -2,1 -2,1 0,2 -1,1 0,2 0,2 1,2 2,-2 0,-2 2,1 1,2 -1,2 -2,0 -1,1 0,2 -2,2 2,1 0,2 -2,0 0,2 -1,2 0,2 0,2 -2,1 2,1 0,2 -2,0 -1,2 3,0 0,2 1,2 1,2 1,2 -1,1 0,2 2,1 -1,2 0,2 0,2 -1,2 -1,2 1,2 1,2 -1,2 0,2 1,2 -1,2 0,2 -2,1 -1,-2 0,-2 1,-1 -1,-2 0,-2 1,-2 -1,-2 -1,-2 -2,-1 -2,0 -1,-2 1,-1 0,-2 -2,-1 -1,2 -1,2 1,2 0,2 -2,0 1,2 -1,2 -2,1 -1,1 0,3 3,-1 1,-2 1,2 -1,2 0,2 -3,2 3,3 -2,4 -2,2 -4,-1 -1,-4 4,-1 -3,-3 1,-4 -4,0 -1,-4 3,-1 2,-3 2,1 2,-1 -1,-2 1,-2 1,-1 0,-3 0,-2 1,-1 0,-2 0,-2 0,-2 2,-1 2,-1 0,-2 2,0 1,2 0,2 -1,1 -3,0 0,2 0,2 2,0 1,-2 2,1 1,2 -1,1 0,2 0,2 2,1 1,-2 0,-2 1,-2 -1,-2 -1,-2 0,-2 0,-2 -1,-2 -1,-2 -3,0 0,-2 1,-2 1,-2 -1,-2 -2,0 0,2 -1,2 -1,2 0,2 -1,2 -1,1 -2,1 -1,2 0,2 0,2 -1,1 0,2 -1,2 2,1 -2,1 0,2 -1,2 -2,-2 0,-2 0,-2 1,-2 0,-2 0,-2 1,-2 0,-2 1,-1 1,-2 1,-2 2,0 0,-2 1,-2 1,-2 0,-2 1,-2 0,-2 -1,-2 -1,-2 1,-2 0,-2 2,0 0,-2 -2,-1 0,-2 2,-1 1,2 2,-1 2,1 0,2 -2,0 0,2 1,2 -1,2 -2,-2 -1,2 1,2 1,2 0,2 3,0 0,-2 -1,-2 2,0 0,-2 1,-2 -1,-2 2,-1 0,-2 -1,-2 -1,-2 1,-2 -1,-2 1,-2 0,-2 1,-1 2,-1 -1,-2 2,0 0,-2 1,-1 -4,0 -1,1 -1,-3 -1,1 -1,2 0,2 2,0 -1,2 -3,0 -1,-2 0,-2 1,-2 0,-2 -3,0 0,2 0,2 -3,0 0,-2 0,-2 1,-2 -3,0 0,2 -1,2 1,2 -1,2 -2,1 -2,0 1,2 0,2 0,2 0,2 -1,2 0,2 0,2 1,2 0,2 2,0 1,-2 -1,-2 0,-2 0,-2 1,-2 0,-2 0,-2 0,-2 2,-1 1,-1 2,-1 1,2 0,2 -1,2 -1,-2 -2,1 1,2 0,2 2,0 2,-1 1,-2 1,-2 2,0 0,2 -1,2 1,2 -1,2 -1,-2 -2,1 -2,1 -3,-1 0,2 0,2 1,2 -1,2 0,2 -1,1 -2,0 0,2 0,2 0,2 2,-1 1,-2 1,2 0,2 -2,1 1,2 0,2 -1,2 -2,1 -1,1 0,2 -2,2 -1,2 0,2 -1,2 0,2 0,2 -1,2 0,2 1,3 -2,2 -3,1 -4,0 0,4 4,1 0,3 -4,0 -2,2 -3,2 -1,-5 1,-3 0,-3 -5,-1 2,-3 4,0 4,-1 3,-1 1,-4 2,-1"/>
    <path style="fill:none;stroke:#000000;stroke-width:1"
          d="m 387,79 0,-2 0,-2 -1,-2 2,0 0,-2 1,-2 -2,0 -2,1 -1,1 -1,2 -2,1 3,1 0,2 -3,0 -1,3 -4,2 0,-4 0,-4 1,-3 -1,-2 0,-2 -1,-2 1,-2 -1,-2 -1,-2 1,-1 0,-2 1,-2 0,-2 2,0 1,2 -1,2 0,2 0,2 0,2 0,3 1,2 0,2 0,3 2,-1 1,-2 0,-2 2,0 1,-1 0,-2 2,-1 1,2 0,2 3,0 0,-2 -1,-2 1,-1 2,0 2,-1 -1,-2 1,-1 -2,-2 -2,0 -1,1 1,2 -2,1 -2,1 0,-2 0,-2 0,-3 -1,1 -2,1 0,2 0,2 0,2 -2,2 -2,0 1,-2 0,-2 0,-2 0,-2 1,-2 2,-1 2,-1 1,-2 2,-1 0,3 1,2 2,-1 -1,-2 1,-1 0,-2 -2,-2 0,-2 -2,1 -2,0 1,2 -2,1 -1,2 -1,-3 0,-2 0,-2 -1,-2 1,-1 2,2 2,0 2,0 0,-2 0,-2 1,-2 1,-2 -1,-2 0,-2 0,-2 -1,-2 2,-2 1,2 2,-1 -1,-2 1,-2 0,-2 -2,0 -1,2 -2,1 -1,1 -2,1 0,-3 1,-1 2,-1 -1,-2 -2,1 -3,0 0,2 1,2 -1,2 -1,2 -2,1 0,-2 0,-2 1,-1 -1,-2 0,-2 -3,0 -2,-1 0,2 0,2 3,0 -1,2 0,2 0,2 -1,2 2,1 1,2 2,-1 0,-2 3,1 0,-2 1,-2 2,0 0,2 0,2 0,2 1,2 -1,2 -1,2 -1,1 -1,-3 1,-2 -1,-2 -1,1 -2,1 1,2 -1,1 -1,2 -1,2 1,2 0,2 -1,2 2,1 1,2 -1,2 -2,-2 -2,-1 -2,1 -1,-2 2,-1 1,-2 0,-2 -1,-2 1,-2 1,-2 0,-2 -1,-2 -1,-2 -3,0 0,-2 1,-2 0,-2 0,-2 -1,-2 -1,-2 -2,2 -1,-2 -2,1 -1,1 0,2 -1,2 1,2 1,2 1,-2 0,-2 1,-2 2,0 0,2 0,2 -1,2 0,2 -1,2 -1,2 -2,1 -1,1 -2,0 0,2 -2,1 -1,-2 0,-2 -1,-2 0,-2 -1,-2 -2,0 0,2 0,2 1,2 -3,0 -2,1 0,2 1,2 0,2 -2,1 -1,-2 0,-2 -1,-2 0,-2 2,-1 2,-1 0,-2 0,-2 1,-2 -1,-2 0,-2 2,-1 1,2 0,2 2,1 2,-2 1,2 0,2 1,2 0,2 2,0 2,-1 1,-2 -3,0 0,-2 -1,-2 -1,-2 1,-2 0,-2 -1,-2 1,-1 2,0 -5,-2 -1,1 0,2 1,2 0,2 -2,1 -1,-2 0,-2 -1,-2 0,-2 -1,-2 -3,0 1,2 0,2 1,2 -1,1 -2,1 -1,2 0,2 1,2 -1,2 0,2 -1,1 -2,1 -1,2 -2,-1 0,-2 1,-1 0,-2 2,0 1,-2 -2,-1 0,-2 2,0 0,-2 0,-2 1,-1 1,-2 0,-2 -1,-2 -1,-2 -1,2 0,2 0,2 -2,4 0,-2 -1,-2 0,-2 0,-2 1,-2 -3,0 -1,2 0,2 -2,-1 0,-3 0,-2 -2,2 -2,1 0,2 2,1 -1,2 0,2 0,2 1,2 0,2 3,0 0,-2 -1,-2 0,-2 0,-2 2,0 1,2 0,2 1,2 0,2 1,2 -3,0 1,2 -1,2 0,2 1,2 -1,2 0,2 -2,1 2,1 1,2 -3,0 -1,1 0,2 -1,2 0,2 0,2 -1,2 0,2 2,2 1,-2 0,-2 1,-2 0,-2 0,-2 1,-2 1,-1 1,3 0,2 2,1 0,2 -3,-1 0,2 -1,2 0,2 -1,2 -2,1 -2,1 0,-2 -1,-2 -1,-2 -2,1 1,2 0,2 1,2 -1,2 0,2 0,2 0,2 -2,-1 -1,-3 -3,0 -1,1 -1,2 -1,2 -1,2 -4,1 2,-4 -2,-2 -2,-2"/>
    <path style="fill:none;stroke:#000000;stroke-width:1"
          d="m 317,68 -2,-2 -3,-1 1,-2 3,0 -1,-3 2,-2 0,-3 2,-2 0,-2 2,-2 1,-1 2,-1 -1,-2 1,-2 1,-2 0,-2 2,-1 -1,-2 -2,0 -1,1 -1,2 0,2 -1,2 -1,2 -1,2 -1,2 -2,2 -2,2 -1,2 -1,2 -1,2 -1,2 -3,1 0,-4 -3,0 -1,2 -2,1 -1,3 -4,0 1,4 -2,1 -2,3 0,4 -3,1 -1,3 -3,3 3,1 4,0 2,-3 4,1 -1,3 -1,3 -3,1 -3,0 0,4 -4,2 -4,2 -2,3 -2,2 1,2 -1,1 -1,2 -1,-2 -1,-2 1,-1 -2,-1 -1,-2 1,-3 3,0 4,-3 3,-2 2,-2 -3,-4 -3,2 -2,2 -2,2 -2,2 -2,1 -3,0 0,-2 0,-2 0,-2 -2,-1 -1,3 -1,1 1,3 -4,0 -3,1 0,4 -1,3 -4,-2 1,-4 -3,-1 1,-4 4,0 2,-2 2,-2 3,0 -2,-3 0,-3 2,1 2,-2 0,-2 0,-2 0,-2 2,-2 0,-2 1,-2 -1,-2 1,-2 1,-2 3,0 1,-2 -3,0 1,-2 -1,-2 1,-2 -1,-2 0,-2 1,-2 -1,-2 -1,-2 0,-2 1,-2 0,-2 2,0 1,2 -1,2 0,2 1,2 1,2 0,2 -1,1 0,2 1,2 -1,2 2,1 3,-1 1,-2 3,0 2,1 1,-3 2,1 4,1 -1,2 -3,1 -2,2 -1,2 -3,0 1,-3 -4,1 -2,2 -1,2 -2,2 -2,-2 -1,2 1,2 -1,2 0,2 -1,2 -1,1 0,2 0,2 2,0 1,-2 1,-2 1,-2 1,-2 1,-2 2,-2 2,-2 3,0 0,3 -2,1 -2,2 0,3 -1,2 -1,1 -1,2 -1,2 -3,1 -2,1 -1,-2 -1,2 -1,2 2,0 2,1 1,4 2,-2 0,-3 2,-1 3,-2 2,-3 3,-2 -2,-4 4,0 2,-2 -1,-4 2,-1 1,-3 1,-3 4,0 0,-4 2,0 2,0 3,-1 3,0 3,0 1,-3 1,-2 3,-2 2,-1 1,-2 1,-2 1,-2 0,-2 1,-2 -2,0 1,-2 2,-1 -2,-1 0,-2 2,0 0,-2 2,1 0,2 1,2 2,-1 0,-2 -1,-2 2,-1 1,-2 1,-2 2,0 0,2 -1,2 0,2 -1,1 0,2 -1,2 1,2 1,2 0,2 2,0 0,2 0,2 1,2 -2,2 0,2 -1,2 -2,1 -1,2 -2,-1 0,-2 1,-1 2,-1 1,-2 1,-2 -1,-2 0,-2 -1,-2 -1,2 -1,2 1,2 -1,2 -2,1 -2,1 0,2 0,2 1,2 -3,0 1,3 -2,1 0,3 1,3 2,1 1,-3 1,-2 1,-2 0,-2 1,-1 2,3 0,2 0,2 2,1 1,-2 -1,-2 0,-2 -1,-2 1,-2 2,-1 1,-1 2,-1 -1,-2 0,-2 1,-2 0,-2 0,-2 2,-1 -2,-1 1,-2 2,-1 1,-2 -1,-2 0,-2 1,-2 -1,-2 -2,0 0,2 -1,2 0,2 1,2 -1,1 -2,2 -1,-2 -1,-2 1,-1 0,-2 1,-2 0,-2 1,-2 0,-2 -1,-2 0,-2 1,-2 -1,-2 -1,-2 0,-2 2,-1 1,-1 -3,-1 -2,1 -1,2 -2,-2 -2,0 -2,0 -2,-1 -2,1 -1,1 0,2 -1,2 0,2 -1,2 -1,2 0,2 2,1 2,-1 -1,-2 1,-2 1,-2 0,-2 1,-2 1,-1 1,3 0,2 -1,2 -1,2 1,2 2,-1 0,-2 1,-2 2,2 1,-2 -1,-2 -2,-1 0,-2 2,0 2,1 1,2 1,2 -1,2 0,2 -3,0 -1,2 -1,2 -2,1 0,-2 -3,0 0,2 -2,1 -1,-2 -2,0 0,2 1,2 0,2 0,2 -1,1 1,2 0,2 0,2 -1,2 -1,2 -2,-2 1,-2 0,-2 0,-2 -1,-2 -1,2 -1,2 0,2 -1,2"/>
    <path style="fill:none;stroke:#000000;stroke-width:1"
          d="m 309,43 2,3 -2,1 -2,2 -1,3 -2,-1 -3,1 -3,0 -3,0 -3,0 1,-3 1,-3 1,-3 3,0 -1,3 0,3 3,-1 1,-3 2,3 2,-2 1,-2 -1,-3 -3,1 -3,-2 3,-1 2,-2 1,-2 1,2 1,2 1,-2 0,-2 1,-1 2,-1 2,-1 0,-2 -1,-2 0,-2 1,-2 -1,-2 -2,2 -1,2 0,2 1,2 -1,1 -2,1 -2,1 0,-2 0,-2 1,-1 0,-2 1,-2 0,-2 2,0 0,-2 -2,-1 -2,1 -1,2 0,2 -1,2 -1,2 0,2 0,2 0,2 -1,2 -3,0 -2,2 -1,2 -3,0 -1,3 0,3 -3,1 1,3 -3,-1 -2,2 -3,1 -3,0 1,-3 3,-1 1,-2 2,-2 3,0 -1,-3 1,-2 1,-2 3,-1 1,-3 2,1 2,-1 2,0 0,-2 -1,-2 1,-1 1,-2 1,-2 0,-2 1,-2 0,-2 2,0 0,-2 3,1 2,0 2,-1 0,2 1,2 2,-1 0,-2 0,-2 -3,-1 2,-1 2,0 0,-2 -3,-1 -1,1 -2,1 -1,2 -2,0 0,-2 -3,0 -1,1 0,2 -2,1 -1,-2 0,-2 1,-2 -2,-2 -1,2 -1,2 0,2 -2,-1 0,3 -2,-1 0,2 0,2 0,2 2,-1 2,0 0,-2 1,-2 2,2 0,2 -1,2 -2,1 2,1 -1,2 -2,0 -1,-2 -2,-1 0,2 0,2 0,2 2,-1 2,2 -1,1 -3,0 -1,2 -2,1 -1,-2 1,-2 0,-2 0,-2 0,-2 0,-2 0,-2 0,-2 0,-2 0,-2 2,-1 1,-2 0,-2 2,1 1,-2 0,-2 -3,0 -1,1 -2,2 0,2 -2,1 -1,2 0,2 0,2 0,2 0,2 0,2 0,2 0,2 0,2 -1,1 -1,2 2,1 -1,2 -2,-1 -2,1 1,2 2,0 -1,3 -2,2 -2,1 -1,2 -1,-2 0,-2 2,-1 1,-1 -3,-1 0,-2 2,0 -1,-2 1,-1 2,-1 1,-2 1,-2 1,-2 -1,-3 0,-2 0,-2 0,-2 0,-2 0,-2 1,-2 -2,-1 0,-2 2,0 2,1 0,-2 2,-1 1,-2 0,-2 -3,0 0,2 -2,1 -1,-3 -1,-2 -3,0 1,2 0,2 2,1 -2,1 -2,0 -1,2 2,1 1,2 1,2 -1,2 0,2 -1,1 1,2 0,2 1,2 0,2 -1,2 -1,2 -2,1 -3,0 1,2 -1,2 -2,-1 -2,1 -1,2 0,2 -1,2 -2,-1 -1,-2 2,-1 -3,-1 1,-1 2,-1 1,-1 2,-1 2,-1 -3,-1 1,-1 2,-1 1,-1 -1,-2 0,-2 -1,-2 0,-2 -1,-2 2,-1 1,2 1,2 0,2 1,2 0,2 0,3 2,-1 1,-2 0,-2 -1,-2 0,-2 -1,-2 -1,-2 2,-1 1,-2 -1,-2 -1,2 -2,0 -1,1 -1,-3 2,-1 1,-1 -2,-2 2,-1 0,-2 2,-1 0,-2 -2,1 0,-3 -2,0 -2,1 1,2 0,2 -1,2 -1,2 0,2 0,2 0,2 -2,1 -1,2 1,2 0,2 1,2 -2,1 2,1 -1,2 -2,-1 0,2 0,2 -1,2 -2,1 -2,1 0,-3 2,-1 0,-2 0,-2 1,-2 0,-2 1,-1 0,-2 -1,-2 1,-2 0,-2 2,0 0,-2 -2,-1 0,-2 1,-2 1,2 2,-2 0,-2 0,-2 -1,-2 -2,1 0,2 -1,1 -2,1 -1,2 -2,-1 0,-2 1,-1 2,-2 -5,1 -2,1 1,2 1,2 -1,2 0,2 -1,2 0,2 1,3 1,-1 1,-2 0,-2 1,-2 0,-2 2,0 1,2 -1,2 0,2 -1,2 1,2 -1,1 0,2 0,2 -1,2 0,2 -1,2 0,2 -1,2 0,2 -2,1 1,3 -3,0 1,3 -2,1 0,3 0,4 3,-1 1,-2 1,-2 1,-2 1,-2 0,-2"/>
    <path style="fill:none;stroke:#000000;stroke-width:1"
          d="m 260,41 -1,-2 2,-2 1,2 1,2 0,2 -1,2 0,2 1,2 0,2 -3,0 0,3 -3,0 -2,1 0,3 -3,-2 -1,2 -3,0 1,3 0,3 -1,1 -1,4 -1,3 -4,1 -4,1 -2,1 -2,2 -4,0 -2,3 -3,3 -1,-4 -1,-4 3,-1 4,-1 0,-4 3,1 3,-1 4,0 2,-1 2,-3 1,-2 0,-3 0,-3 1,-3 3,0 0,-3 1,-2 0,-3 -4,2 0,3 -3,1 -1,2 -1,2 -4,0 -1,4 3,-1 3,0 -1,3 -2,1 -3,0 -1,2 -3,-1 0,-3 1,-3 1,-2 0,-3 3,0 1,-2 1,-2 3,-1 1,-2 3,-1 1,-2 1,-2 3,1 -1,-3 1,-2 2,-1 2,-1 1,-2 0,-2 1,-2 0,-2 1,-2 0,-2 0,-2 -2,0 -1,2 0,2 -1,2 0,2 -1,2 0,2 -3,0 -2,1 -1,2 -2,1 -1,2 -1,3 -2,1 -3,0 1,3 -4,-2 1,3 -3,0 1,3 -3,0 -2,-1 0,-3 2,-2 1,-3 0,-3 1,-2 1,-2 0,-2 0,-2 0,-2 1,-2 0,-2 -1,-2 0,-2 -1,-2 2,-2 1,2 1,2 0,2 1,2 0,2 0,2 -1,1 0,2 2,1 -2,1 0,2 -1,2 -1,3 3,0 3,-1 0,-3 1,-2 -1,-3 2,1 2,0 2,-1 2,-2 1,2 1,-2 0,-2 1,-2 -2,0 -2,1 -1,1 -1,2 -2,-2 -1,2 -2,0 0,-2 0,-2 -1,-2 0,-2 1,-1 2,-1 2,1 -1,2 -1,1 1,2 2,-1 2,-1 1,-1 2,-1 1,2 1,-2 0,-2 1,-1 -1,-2 0,-2 1,-2 1,-2 0,-2 -1,-2 -1,-2 -2,2 1,2 0,2 -1,2 -1,2 0,2 0,2 -1,1 -2,1 0,-3 -1,-2 1,-1 1,-2 1,-2 0,-2 -1,-2 -1,3 -1,2 -2,-2 -1,2 1,2 -1,2 1,2 -3,0 -2,1 -1,-2 2,-1 1,-2 -1,-2 1,-2 0,-2 -3,0 0,2 -1,2 1,2 -2,1 -1,-2 0,-3 0,-2 -1,-2 -2,1 0,2 1,2 0,2 0,2 -1,2 -1,2 0,2 0,2 1,2 0,2 -1,2 0,2 0,2 0,2 -1,2 -2,-1 0,-2 0,-2 0,-2 0,-2 1,-1 0,-2 -1,-2 0,-2 0,-2 1,-2 1,-2 0,-2 -2,1 -2,1 1,2 -2,0 0,2 0,2 0,2 1,2 -1,2 0,2 -2,1 2,1 0,2 0,2 1,2 -2,2 -2,-1 0,-2 1,-1 -1,-3 -2,1 -1,1 0,2 1,2 1,2 1,2 -2,1 -1,1 0,2 2,1 1,-2 2,-1 1,-2 1,-1 1,-2 2,0 0,3 -2,2 -2,3 -1,1 -1,2 0,3 -1,2 -2,1 1,3 2,3 -1,3 3,0 1,-3 -1,-3 1,-2 1,-2 0,-3 3,2 0,3 -1,3 0,3 0,3 -2,2 -1,3 -3,0 0,-3 -3,1 1,4 -2,2 0,3 1,4 2,4 -4,1 -3,-1 -3,2 -1,-3 0,-3 2,-1 3,1 -1,-3 1,-3 0,-3 2,-2 -1,-4 2,-2 0,-3 -3,1 -2,1 -1,2 1,3 -1,1 -1,3 1,3 -2,2 -3,0 -1,3 -2,2 3,1 -1,2 -3,1 -1,-2 -1,-2 1,-2 2,-1 0,-2 1,-2 0,-2 2,1 1,-2 1,-3 -2,1 -2,1 -3,-1 -1,1 1,2 0,2 -2,0 -1,2 2,1 -2,2 -1,2 1,2 1,2 -3,0 -1,2 -2,1 -3,2 -3,3 -3,0 -1,2 -1,2 0,2 -2,1 0,-2 0,-2 0,-2 1,-1 -1,-2 0,-2 2,0 1,2 2,-1 0,-2 1,-2 1,-2 -1,-2 1,-1 2,0 4,-1 0,-6 -1,-3 1,-2 1,-2 0,-2 -3,1 -1,-2"/>
    <path style="fill:none;stroke:#000000;stroke-width:1"
          d="m 192,65 2,-1 -1,-1 -1,-2 1,-1 2,0 1,2 1,2 2,0 -1,-3 1,-1 1,-2 1,-2 -1,-1 -2,1 -1,2 -2,-1 -2,1 -1,-2 2,-1 1,-1 2,0 1,-2 1,-2 1,2 2,2 1,-2 -1,-2 2,0 1,-2 1,-2 1,-2 -1,-2 2,0 2,-1 2,1 1,2 -1,1 1,2 2,1 -1,2 0,2 0,2 0,2 -1,2 -2,-1 0,-2 0,-2 0,-2 1,-2 -2,-2 -1,2 -1,3 0,2 0,2 1,2 -1,2 -2,-2 -1,2 0,2 3,0 -1,2 -1,1 -2,1 0,2 2,0 2,-1 2,-1 0,-2 1,-2 0,-2 2,0 3,-1 1,-2 0,-2 0,-2 0,-2 1,-2 1,2 1,-2 -1,-2 -3,-1 0,-2 -1,-2 2,-1 1,-2 -1,-2 -1,-2 0,-2 0,-2 0,-2 2,1 2,-1 1,-2 0,-2 2,0 0,-2 0,-2 -1,-3 0,-2 1,-2 1,-2 2,-1 1,-1 3,0 -1,-2 0,-2 -2,-1 -1,2 -2,2 0,-2 0,-2 -3,1 -2,-1 -2,1 -1,2 0,2 -1,2 -1,2 0,2 -1,1 1,2 1,2 2,-1 0,-2 0,-2 0,-2 1,-2 1,-2 0,-2 2,0 1,2 -1,2 -1,2 0,2 -1,2 1,2 0,2 -1,1 -1,2 0,2 -3,0 0,-2 1,-2 -2,0 -2,1 0,1 0,2 1,2 0,2 0,2 0,2 1,2 1,2 -2,1 -2,-2 0,-2 -2,-1 1,-2 1,-2 -2,0 1,-2 -1,-2 0,-2 -1,-2 0,-2 2,1 2,-1 -1,-2 -1,-2 1,-2 0,-2 1,-1 1,-2 0,-2 1,-2 -3,0 -1,2 0,2 -2,-1 0,-3 -3,1 1,2 1,2 1,2 0,2 -1,2 1,2 -3,-1 -2,1 2,1 0,2 1,2 0,2 1,2 -1,1 0,2 1,2 -3,-1 -1,-2 0,-3 0,-2 -2,0 1,-2 0,-2 -1,-2 -2,1 -2,1 2,1 -2,1 -3,-1 1,2 -1,2 1,3 1,-1 1,-2 2,-1 1,2 -1,2 2,0 -1,2 -2,0 1,2 -1,2 -2,1 0,2 1,2 1,2 2,-1 -1,-2 0,-2 2,1 0,-3 1,-1 2,0 1,2 2,-1 1,2 0,2 -2,1 -1,-2 -2,0 0,2 0,2 1,2 -2,0 1,2 -1,2 -3,0 1,-2 0,-2 -2,0 -1,2 -1,2 -1,1 1,2 -2,1 -2,0 -2,-1 -1,-2 -1,2 0,2 2,1 -1,1 -1,2 2,1 -2,1 1,2 1,2 -1,2 -2,1 -2,0 0,-2 2,-1 -1,-2 -1,-2 0,-2 1,-2 -1,-2 0,-2 -1,-2 2,-1 2,-1 0,-2 -1,-2 -2,1 0,2 -2,0 -1,1 -1,2 1,2 0,2 -1,2 2,0 -1,2 0,2 1,2 0,2 -1,2 1,2 0,2 -2,1 -1,-2 0,-2 0,-3 0,-2 -1,-2 0,-2 -1,-2 0,-2 1,-1 0,-2 -2,1 -3,0 0,-2 -1,-2 2,0 2,1 2,-1 1,-2 0,-2 -1,-2 -1,-2 0,-2 0,-2 0,-2 -1,-2 -1,2 -1,2 0,2 0,2 1,2 1,2 0,2 -3,0 0,-2 -1,-2 -1,-2 1,-2 -1,-2 1,-2 0,-2 1,-1 2,-1 1,-2 1,-1 2,0 0,-2 -2,-1 1,-2 0,-2 1,-2 0,-2 2,0 -1,-2 1,-1 3,1 -1,2 -1,2 -1,2 0,2 1,2 0,2 0,2 -2,1 -2,1 1,2 1,2 2,1 -2,1 0,2 0,2 1,2 1,2 2,-2 -1,-2 0,-2 1,-1 1,-2 2,-1 -2,-2 -2,1 -1,-2 2,-1 2,-1 2,0 0,2 1,2 1,2 -2,1 1,2 -2,0 -1,2 1,2 1,-2 2,1 1,2 -2,1 1,2 0,2 1,2 2,-2"/>
    <path style="fill:none;stroke:#000000;stroke-width:1"
          d="m 194,47 0,-2 1,-1 0,-2 -1,-2 -1,-2 0,-2 1,-2 2,-1 -1,-2 -2,1 -1,-2 0,-2 -1,-2 1,-2 -1,-2 0,-2 1,-2 2,2 1,-2 2,0 2,-1 1,-1 -1,-2 0,-2 2,-2 1,2 0,2 1,2 2,-1 0,-2 -1,-2 -1,-2 -1,-2 -3,1 -1,2 -2,0 -1,1 1,2 0,2 -2,1 -1,-2 0,-2 0,-3 -2,1 -1,2 0,2 1,2 -2,0 0,2 -1,2 0,2 1,2 -1,2 -3,0 1,-2 -1,-2 0,-2 1,-2 0,-2 1,-2 0,-2 1,-2 -3,0 -2,0 -2,-1 -2,1 -1,2 -2,0 -2,0 0,-2 -3,1 1,2 1,2 -2,1 -1,1 -2,1 1,2 -1,1 0,2 0,2 2,0 1,-2 0,-3 2,0 0,-2 2,-1 1,-2 2,0 -1,2 -1,2 0,2 0,3 -2,-2 -1,1 0,2 1,2 -2,1 -2,0 -1,1 1,2 0,2 -1,2 1,2 -2,1 -1,-2 -2,2 -1,-2 1,-2 2,-1 0,-2 -1,-2 1,-2 -2,-2 -1,2 -2,1 0,3 2,-1 0,2 -2,1 0,2 -1,2 1,2 2,1 1,2 -1,2 -2,1 2,1 1,2 0,2 0,2 -2,1 2,1 1,2 -3,1 0,-2 -3,0 0,-2 -1,-2 1,-1 2,0 0,-2 -2,-1 -2,1 1,-3 1,-2 2,-1 -2,-1 -1,-2 -1,-2 1,-2 0,-2 0,-2 1,-2 -1,-2 1,-1 2,-1 -2,-2 -1,-2 0,-2 0,-2 1,-2 2,0 0,2 0,2 0,2 1,2 2,0 0,-2 0,-2 0,-2 1,-1 2,-1 1,-2 -1,-2 -3,0 1,2 -2,1 -2,-2 -1,1 -4,0 0,2 -2,0 1,2 0,2 -2,1 -1,-2 0,-2 -2,1 -2,-2 -1,2 -2,1 -2,0 -1,1 -2,1 0,2 1,2 2,-1 0,-2 3,0 1,-1 2,-1 1,2 0,2 -1,2 -1,-2 -2,1 -1,1 -2,1 -3,0 -1,2 3,0 1,2 -1,1 2,1 0,2 1,2 1,2 -2,0 0,2 0,2 0,2 -2,-1 -1,2 1,2 2,-1 1,2 1,2 -1,2 -1,2 2,0 1,2 0,2 0,2 -1,1 1,2 -3,-1 0,2 1,2 2,-1 1,3 -2,1 2,4 -1,3 -4,0 -2,2 -1,-3 -2,1 -1,-2 1,-2 -1,-2 0,-2 -1,-2 -1,-2 1,-2 -1,-2 -1,-2 2,-1 1,2 2,1 -1,2 0,2 1,2 1,2 0,2 0,2 3,0 0,-2 0,-2 -1,-2 -1,-2 0,-2 1,-2 2,-1 0,-2 -1,-2 -2,1 0,2 -3,-1 0,-2 1,-1 1,-2 2,0 1,-2 -2,-1 -2,1 0,-3 -2,1 -1,-2 2,-1 1,-2 1,-2 1,-1 0,-2 1,-2 -1,-1 0,-2 -1,-2 -2,1 -2,-1 0,-2 0,-2 1,-1 1,-2 -1,-2 0,-2 -2,0 -1,2 1,2 -2,2 0,2 -2,-1 1,-3 -1,-2 -2,2 -1,2 1,2 -1,2 0,2 -1,2 0,2 -1,1 0,2 2,1 1,3 1,-1 1,-2 -1,-2 0,-2 0,-2 1,-2 0,-2 2,0 1,2 -1,2 0,2 1,2 -1,1 3,-3 0,-2 2,0 1,2 -1,2 -1,1 0,2 -1,2 -1,-2 -2,1 1,2 -1,1 1,3 -2,1 0,-2 -1,-2 -2,1 0,2 0,2 0,2 -3,-1 1,-2 -2,0 -2,1 -2,1 2,1 -2,2 -2,1 0,-2 -1,-2 0,-2 1,-1 2,0 2,-1 1,-2 2,1 1,-2 -2,-1 0,-2 -1,-2 -1,-2 1,-2 -1,-2 2,-1 0,-2 1,-2 0,-2 -1,-2 -2,2 0,2 -1,2 -1,1 -1,2 1,2 -1,2 1,2 1,2 0,2 -1,2 -2,1 0,-3 0,-2 -1,-2 -1,-2"/>
    <path style="fill:none;stroke:#000000;stroke-width:1"
          d="m 118,37 -2,1 1,2 0,2 1,2 -1,2 -1,2 0,2 1,2 0,2 1,2 1,2 0,2 0,2 0,2 1,2 1,2 -1,1 -3,3 1,-2 -1,-2 0,-2 -1,-2 1,-2 -1,-2 0,-2 -1,-2 -1,-2 0,-2 -1,-2 -2,0 0,2 0,2 1,2 1,2 0,2 1,2 0,2 0,2 0,2 1,2 -1,1 0,2 0,2 3,1 -1,3 -4,-1 0,-2 -1,-2 -2,0 -1,1 -1,-3 2,-1 2,1 0,-2 0,-2 0,-2 0,-2 0,-2 -2,1 -1,2 0,2 -1,2 -2,1 -1,1 -2,0 -1,-2 2,-1 2,-1 0,-2 -3,0 2,-2 2,0 0,-2 -1,-2 1,-1 2,2 2,0 0,-2 -1,-2 -2,0 1,-2 0,-2 0,-2 1,-2 2,-1 2,1 1,-2 1,-2 -1,-2 0,-2 -2,1 0,2 -1,2 -1,-2 -2,1 -1,1 0,2 -3,-1 -1,2 0,4 -2,2 -1,4 -1,2 -4,-3 -2,2 -4,1 -1,-3 0,-2 1,-2 1,2 2,-1 0,-2 3,1 0,-2 1,-1 2,0 2,-2 0,-2 2,-1 1,-2 1,-1 2,0 2,-1 -1,-2 2,0 1,-1 3,0 1,-2 2,-1 3,0 -1,-2 1,-2 1,-2 1,-2 -4,2 -1,2 -1,2 -2,1 0,-3 -2,1 -1,2 1,2 -3,0 -3,0 -1,1 0,2 -2,0 -2,0 1,2 -1,2 -2,-2 -2,1 2,2 -1,1 0,2 -2,0 -1,-2 -1,2 0,2 -2,1 -1,-3 -1,2 0,2 -3,-1 0,2 -1,2 -2,-1 -1,2 -2,1 -2,1 -2,3 0,2 0,2 1,2 2,-1 2,-1 -2,-1 0,-2 1,-1 1,-2 2,0 2,-2 1,2 -1,2 -1,1 -2,1 4,2 -2,2 -4,2 -3,0 -2,1 -1,2 -2,1 0,2 1,4 2,-3 2,-2 4,-1 4,-1 3,-1 2,-2 1,-3 2,-2 4,0 0,4 -2,3 -3,3 -2,3 -3,3 -1,-4 -4,2 -3,3 5,2 -1,4 -4,-1 -4,-2 -2,3 -1,3 -3,2 -3,2 0,4 -1,4 -2,3 -2,3 -4,-2 1,-5 2,-2 1,-4 0,-4 0,-3 0,-2 2,-1 1,4 2,-2 -1,-3 1,-1 3,0 0,-4 -1,1 -3,0 1,-2 1,-2 2,0 0,-1 0,-2 1,-2 2,-1 1,-2 1,-1 -1,-2 -3,3 -2,2 -2,3 -2,3 -1,2 -1,2 1,2 -2,1 -2,1 -1,2 0,2 1,2 -2,0 1,2 -2,0 1,2 0,2 -2,1 0,2 -1,2 -1,2 -1,2 -2,1 0,2 -2,1 0,2 3,0 4,-2 1,4 -3,3 -4,0 -3,1 -1,1 -2,1 1,2 -1,2 -1,2 -1,2 -1,2 0,2 -1,2 -2,2 1,2 -1,2 -1,2 -1,2 0,2 -1,2 -2,-1 1,-2 0,-3 1,-2 1,-2 0,-3 1,-2 1,-1 0,-2 1,-2 1,-2 1,-2 1,-2 -1,-3 2,-2 2,-1 2,-1 1,-1 -3,-1 1,-2 1,-2 1,-2 1,-2 2,-1 1,-2 1,-2 0,-2 2,-2 0,-2 -4,-6 -2,7 -1,5 -8,4 -1,6 -4,3 1,7 -4,2 -2,4 -1,5 -1,5 -5,-2 -1,7 5,1 -2,5 -3,3 -3,2 1,6 -3,4 -1,4 -5,2 6,4 -4,3 -2,6 -2,4 7,-3 4,-1 2,-3 0,-6 1,-5 2,-3 0,-6 3,-2 3,-1 1,-2 -1,-3 3,0 0,2 4,1 2,-3 0,-5 2,-2 1,-4 1,-3 1,-5 3,-1 0,-4 0,-4 5,0 0,5 1,4 -2,3 -4,2 2,5 -3,2 0,5 -2,3 -1,5 -2,3 -4,2 -2,-5 -3,0 -1,2 0,2 -1,1 -1,2 1,1 4,1 -2,3 -4,-2 1,2 -1,2 -1,2 1,2"/>
    <path style="fill:none;stroke:#000000;stroke-width:1"
          d="m 28,172 -2,1 1,3 -1,1 1,3 -2,1 1,2 -1,2 -4,0 -3,2 -4,0 -1,5 -4,-1 -3,2 3,7 4,0 4,0 2,-3 1,-4 4,-2 1,-2 3,-1 -1,5 -3,2 2,2 -2,2 -1,3 0,3 0,3 -3,-1 -4,0 4,5 -3,2 -2,2 -5,-2 1,-7 -4,0 -3,3 1,7 6,3 -4,3 0,5 -2,6 -3,4 6,5 2,-4 1,-4 2,-4 1,-4 3,-2 1,-4 3,-2 3,-1 1,-4 4,0 2,-2 5,-1 5,-1 1,2 0,2 -2,0 2,2 0,2 -1,1 -1,-2 -3,-1 1,2 -1,1 -3,0 -4,1 -2,4 -4,0 -2,3 -1,3 -1,3 -2,4 -1,4 -3,5 -6,2 -3,7 4,-1 5,-2 5,-2 0,-4 3,-4 0,-4 2,-3 4,0 0,-5 4,0 2,-3 1,-4 2,-2 2,0 2,0 3,-1 1,-2 3,1 0,-2 -1,-2 -2,1 -1,-2 2,-1 0,-1 -2,-1 0,-2 1,-2 -2,0 1,-2 0,-1 0,-2 2,-1 -1,-2 1,-1 0,-2 1,-2 0,-2 0,-3 0,-2 2,0 1,-2 1,-2 -2,0 1,-2 0,-2 1,-1 1,-2 -1,-2 1,-3 1,-2 2,-1 0,2 0,2 -1,1 0,2 3,0 1,-2 0,-2 0,-2 -1,-2 2,0 0,-2 1,-2 -1,-2 -1,-2 2,-1 0,-2 2,0 0,-2 1,-2 1,-2 1,-2 -2,0 0,-2 2,-1 -2,-2 2,-1 -2,-2 -2,1 0,3 -1,2 0,2 1,2 -3,0 2,2 -1,1 -2,1 1,2 -2,1 -1,2 1,2 1,2 -1,2 -2,-2 -1,3 -7,2 -2,3 -1,4 -1,4 -4,-5 -1,5 0,5 5,1 -1,4 -1,4 -2,4 -1,5 -1,4 -5,0 -4,0 4,-5 2,-4 0,-5 2,-3 -3,-5 -1,-5 1,-4 1,-4 5,-2 1,-4 3,-2 4,-1 2,-4 0,-4 3,-3 0,-5 2,-3 3,-3 -4,-3 4,-2 3,-1 4,0 2,-1 2,-1 -2,-1 1,-2 2,1 1,-2 -3,-1 2,-1 0,-2 -3,-3 -3,2 -1,4 -3,2 -2,-5 1,-4 2,-2 2,-3 0,-4 5,3 0,-4 2,-3 3,-1 -1,-5 2,-2 1,-3 3,-2 2,-3 2,-1 5,1 3,1 0,2 1,2 2,-1 0,-2 -1,-2 2,-1 0,-2 -2,0 -2,1 1,-4 2,0 2,1 0,-2 -1,-3 2,-1 1,2 1,2 0,2 -1,2 0,2 -1,2 0,2 -1,2 0,2 -2,0 1,3 2,-1 0,2 -2,1 0,2 2,0 2,-1 1,-2 0,-2 -1,-2 0,-2 1,-2 0,-2 2,0 -1,-2 0,-2 1,-2 2,4 0,-2 1,-2 -1,-2 -2,0 -1,-2 -1,-2 0,-2 -2,-2 2,-1 2,1 1,-2 -1,-2 3,1 3,1 -1,1 -2,1 -1,2 -1,1 0,2 2,1 2,-1 1,-1 -1,-2 2,-1 1,2 1,-2 2,1 0,2 -2,1 0,2 -1,2 -1,-2 -2,1 1,2 1,2 -2,0 0,2 -1,2 -1,1 0,3 -2,-2 -1,2 0,2 1,3 5,0 2,-3 1,-3 2,-3 1,-3 1,-4 3,-2 3,1 2,-3 2,-3 0,-4 2,-2 1,-4 -2,-2 -1,-2 0,-2 0,-2 -1,-2 2,-1 1,-1 1,-2 2,-1 1,1 -1,2 -1,2 -2,1 1,2 0,2 0,2 2,-1 1,-2 0,-2 1,-2 1,-2 1,-2 2,-1 0,-2 2,0 2,-1 1,2 -2,2 -1,1 -2,1 -1,2 -1,2 2,0 1,2 -3,0 -1,2 1,2 2,-2 1,2 1,2 0,2 1,2 -1,2 1,2 -1,2 3,0 -1,2 -2,0 -2,1 -2,1 -1,2 0,2 -2,1 -1,-2 1,-2 1,-2 1,-2 2,-1 1,-2 -1,-2"/>
    <path style="fill:none;stroke:#000000;stroke-width:1"
          d="m 132,74 1,-2 -1,-2 0,-2 -2,1 0,3 -1,1 0,2 1,2 -3,0 0,2 -1,2 -1,2 -1,2 1,2 0,2 3,0 -1,2 -2,1 -2,1 -1,-2 1,-1 -1,-3 -5,1 -2,2 -1,5 -2,3 -1,4 -1,4 -4,0 -3,1 -5,1 -3,4 -1,-4 -2,-1 0,2 -1,2 0,2 -1,2 -1,-2 -2,1 1,2 2,2 -3,0 0,2 0,2 -1,2 -1,2 -1,2 -1,2 -2,0 1,2 -1,2 0,2 -1,2 -1,2 -1,2 -1,2 -2,0 0,2 0,2 -1,2 -2,2 -1,-2 1,-2 0,-2 0,-2 0,-2 3,0 1,-2 1,-2 1,-2 0,-2 1,-2 0,-2 0,-2 2,-1 1,-1 1,-2 1,-2 0,-2 0,-2 1,-2 0,-2 0,-2 2,-1 1,-1 2,-1 -2,-2 1,-1 0,-2 0,-2 0,-2 -1,-2 -2,-2 -1,-2 -2,2 -1,2 -2,2 -1,1 -2,2 -1,3 0,2 1,2 -2,1 -2,1 -1,2 -1,2 3,0 1,-2 2,-1 2,1 0,-2 1,-2 -1,-2 0,-2 1,-2 2,-1 1,-1 0,-2 2,-2 1,2 0,2 0,2 -2,1 -2,1 0,2 3,-1 0,2 -2,1 -1,2 0,2 0,2 -1,2 0,2 0,2 -1,1 -1,2 -2,1 -1,2 -2,-1 0,-2 1,-1 2,-1 1,-2 1,-2 0,-3 -2,0 -1,2 -1,1 0,2 -2,1 -1,-2 0,-2 -3,1 -1,2 2,1 1,2 0,2 1,2 -1,2 -1,2 -1,2 -2,1 -2,1 2,3 1,-1 1,-2 2,2 1,-2 0,-2 1,-2 1,-2 2,0 0,2 -1,2 0,2 -1,2 -1,2 -3,0 -1,2 0,2 0,2 -2,1 2,1 -2,2 -1,2 0,2 -1,1 0,2 -2,1 -1,2 0,2 1,2 -1,1 0,2 -1,2 0,2 -1,2 -1,2 -1,2 -2,0 -2,1 1,2 -2,1 2,1 -1,1 -1,2 2,1 0,2 1,2 1,2 -1,2 -1,2 0,2 -1,2 2,0 1,2 0,2 -1,2 -1,2 2,0 0,2 -1,2 1,2 0,2 0,2 -1,2 -2,0 0,-2 0,-2 0,-2 -1,-2 1,-2 -3,0 1,-2 1,-2 1,-2 0,-2 -2,0 -2,-1 1,-2 1,-1 1,-2 0,-2 -1,-2 2,0 -1,-2 0,-2 -2,-1 -1,2 -1,2 1,1 0,2 0,2 -2,0 1,3 -1,2 -1,2 0,2 2,-1 2,0 -1,2 -2,1 1,1 -2,1 1,2 2,1 -1,2 2,0 0,2 0,2 0,2 1,2 -3,0 0,2 -1,3 2,-1 1,2 -1,2 0,2 -1,1 0,3 1,2 2,-1 0,-2 1,-1 0,-2 0,-2 1,-2 -1,-2 -1,-2 3,-1 0,2 2,1 -1,2 0,2 0,2 0,2 0,2 -1,1 -1,2 -2,1 -2,1 0,2 1,2 -1,2 -5,-3 -3,3 0,5 -2,3 -5,0 0,5 -3,2 -3,3 -1,4 -4,0 -3,2 -6,0 1,-5 4,-2 4,-1 2,-4 3,-3 1,-4 4,-2 2,-2 0,-5 3,-2 4,-2 2,-3 -1,-5 -1,-5 -3,3 -1,4 -3,2 -3,2 -5,4 4,2 -4,3 -3,2 -1,4 -3,3 -2,3 -4,1 -4,2 -2,4 -3,3 6,5 -2,6 4,1 5,-2 3,-2 6,-1 -1,4 -2,4 -2,3 -2,1 -4,1 -4,-1 -2,4 4,7 3,-4 5,-1 5,-1 2,-2 0,-5 5,2 -2,-6 4,2 3,-1 3,-3 3,-2 3,-3 1,5 1,5 5,-2 -1,-3 0,-2 1,-1 2,2 1,-2 -1,-2 1,-2 1,-2 1,-2 0,-2 0,-2 1,-2 2,-1 0,3 0,2 0,2 -1,2 -1,2 -1,2 1,2 -1,2 0,2 -3,0 1,2 -1,2"/>
    <path style="fill:none;stroke:#000000;stroke-width:1"
          d="m 58,284 -1,2 0,2 1,3 -3,2 -3,4 -1,5 -3,1 1,5 -4,0 -3,1 -1,4 -4,1 -2,3 -1,4 -6,-2 1,-5 2,-4 -5,-3 5,-2 5,3 -1,-5 3,-1 4,0 -1,-5 4,0 1,-3 3,-3 1,-4 -4,-2 -3,3 -3,2 -4,2 -1,4 -4,1 -3,3 -4,0 -3,2 -3,3 -2,4 7,2 -1,5 -2,3 6,5 -2,4 1,7 5,2 0,-6 2,-4 3,1 4,0 1,-5 1,-4 4,-1 2,-4 5,0 0,4 -2,3 -4,3 5,2 -3,4 -4,-1 0,5 -3,1 -4,1 -1,4 -4,3 -1,5 6,-2 0,8 4,-1 2,-4 -1,-6 3,-2 3,1 5,1 -1,5 -3,1 -1,4 0,5 -4,2 -4,1 5,8 3,-2 4,1 1,-4 2,-4 -1,-5 3,-2 5,1 1,-4 -6,-2 1,-4 4,0 3,-3 3,-2 4,1 -1,-5 3,0 0,-2 2,-1 -1,-2 -2,1 0,-2 -1,-2 2,-1 -2,-2 -1,1 -2,2 -2,3 -3,3 -3,2 -2,3 -5,0 -5,-2 4,-3 3,-2 1,-4 4,1 3,-3 -1,-5 -6,2 1,-4 2,-4 -5,-2 0,-5 1,-4 1,-4 3,-2 0,-2 1,-1 -1,-2 0,-2 0,-2 0,-2 1,-2 1,-2 2,-1 1,-1 -1,-2 1,-2 -1,-2 1,-2 5,-4 2,-4 2,-4 4,-4 0,-5 2,-5 4,0 2,-3 5,-1 0,-5 -4,1 -3,-1 -4,2 -5,0 -1,5 -1,6 -2,3 -3,3 -4,2 -2,-1 1,-2 0,-2 -1,-2 0,-2 3,-2 2,-3 1,-4 1,-4 4,-2 2,0 2,0 -1,-3 -2,0 -2,0 1,-2 1,-2 2,0 0,2 2,-1 1,2 0,2 3,-1 -1,-3 0,-2 2,0 0,-2 -1,-2 3,1 0,-2 1,-1 1,-2 1,-2 0,-2 2,-1 -2,-2 1,-1 2,0 1,-2 1,-2 1,-2 0,-2 1,-2 3,2 3,-2 1,2 0,2 -1,2 0,2 -4,1 -1,4 0,5 -4,-1 -1,4 0,5 -4,1 -1,4 6,2 3,-2 2,-3 0,-4 4,0 1,-2 3,0 -1,2 1,2 -2,1 2,1 0,2 0,2 -2,-1 0,3 -1,2 -3,1 -3,3 5,2 -4,3 -3,3 -3,1 -4,2 -3,2 0,5 -4,4 -2,5 -2,5 -2,4 -1,4 -5,0 -2,3 -2,1 -1,2 0,2 0,2 0,2 1,2 -1,2 -1,2 3,0 -1,2 -1,1 -2,0 1,2 0,2 2,1 -1,2 -2,2 4,0 0,2 1,2 1,2 -1,1 2,2 0,2 1,2 2,-2 -1,-2 0,-2 -1,-3 -1,-2 0,-2 -2,-2 1,-2 -2,-2 1,-2 5,0 1,-2 -2,-1 1,-1 0,-2 -1,-2 0,-2 0,-2 3,2 0,2 1,2 2,-1 1,2 2,-2 1,2 1,2 -2,1 -2,-1 -3,-1 1,2 -1,2 0,2 -1,1 0,2 1,2 0,2 2,2 1,-2 0,-2 1,-1 -2,-1 2,-1 -1,-2 0,-2 2,0 1,2 1,-2 2,-1 1,-2 -1,-2 4,-5 5,-2 0,-5 1,-4 1,-4 3,-2 4,-2 3,-1 0,-5 3,-2 3,1 4,2 -2,3 -3,1 4,4 -4,1 -2,3 -4,-1 -3,2 -2,4 -1,5 5,0 2,-3 3,-1 5,-2 2,-3 4,0 -1,5 -5,2 -3,4 -1,4 -4,0 -4,0 -3,1 -4,0 -2,4 -1,2 -1,2 -1,2 1,2 0,3 0,2 -2,1 2,1 -2,1 0,2 2,1 1,-2 2,-1 0,-2 0,-2 -1,-2 1,-2 -1,-2 1,-2 1,-2 2,-1 3,1 -2,1 -1,1 -1,2 2,1 -1,1 -1,2 3,1 -1,1 -2,1 1,3 1,-1 2,-1 1,2 0,2 -2,0 1,2 -1,2 -2,0"/>
    <path style="fill:none;stroke:#000000;stroke-width:1"
          d="m 95,323 0,-2 -1,-2 -2,1 0,2 -1,1 0,2 -2,1 -3,1 -2,1 -1,-2 2,-1 1,-1 2,0 0,-2 -2,-1 -2,1 -2,0 0,-2 2,-1 -1,-2 1,-1 0,-2 -1,-2 1,-2 2,2 1,-2 -1,-2 -2,0 0,-2 2,-1 1,-2 1,-2 -1,-2 -1,2 -1,2 -2,1 -2,2 0,2 0,2 -1,1 -1,2 2,1 -2,1 1,2 -4,-2 1,2 0,2 3,0 -1,2 0,2 2,1 -1,2 1,2 2,2 1,2 1,2 0,2 3,1 0,-2 1,-1 2,0 0,-2 -2,-1 -2,1 -1,-2 2,-1 2,0 1,-1 2,-1 1,-2 2,0 2,1 1,2 2,-1 1,2 -2,1 -1,2 1,2 -1,2 2,0 0,2 0,2 1,2 -2,0 -1,2 3,1 -1,2 2,0 0,2 1,2 -1,2 -2,1 -2,0 0,-2 2,-1 -1,-2 -1,-2 -2,1 1,2 -2,1 -2,-2 0,-2 1,-1 2,-1 0,-2 0,-2 1,-1 0,-2 -3,0 1,-2 1,-2 -1,-2 1,-2 -1,-2 -1,1 -2,1 1,2 0,2 -1,2 -1,1 0,2 2,1 0,2 0,2 -3,1 0,-2 0,-2 -1,-2 -2,0 0,2 -5,0 0,2 0,2 -3,0 0,-2 0,-2 0,-2 0,-2 -2,-3 -1,1 0,2 0,2 0,2 -1,4 -5,0 -4,2 1,5 5,-1 4,1 2,-2 3,-3 1,2 1,2 2,1 0,-3 -1,-2 1,-1 2,4 1,2 0,2 -1,2 -2,-2 -2,1 -3,2 -4,0 -4,0 -5,0 -2,3 -5,-1 -1,4 -1,4 6,2 1,-4 4,1 3,-3 4,0 -1,5 -3,3 -3,2 -5,1 -5,-1 -3,3 -3,-1 -4,3 7,5 5,-1 3,-2 5,-2 1,6 -2,4 -3,1 -4,3 8,5 4,-2 2,-3 1,-5 4,1 4,-1 4,-2 2,-1 -1,-5 4,1 1,-4 1,-4 1,-4 0,-2 -2,1 -4,0 0,4 -2,3 -3,3 -2,3 -3,2 -6,-1 1,-4 3,-2 2,-3 4,-2 1,-4 -5,0 1,-4 4,-1 3,-2 1,-1 1,-2 2,3 0,2 -2,1 2,2 2,0 0,-2 4,-2 3,-3 1,-1 2,-1 2,0 -1,2 0,2 -2,0 1,2 2,2 1,-2 1,-2 1,-1 1,2 0,2 -1,1 -1,2 2,1 2,-1 1,-1 0,-2 2,0 1,2 2,-1 -1,-2 1,-2 1,-2 1,2 0,2 1,2 -1,2 2,0 -1,2 1,2 0,2 1,2 2,0 -1,2 0,2 1,2 2,0 -1,2 1,2 -4,1 0,-4 -1,-2 -2,-1 1,-2 0,-1 -1,-2 -1,-2 -2,-1 2,-1 -1,-2 -2,0 -2,1 -2,1 0,1 3,0 0,2 2,1 0,1 1,2 -5,-1 -2,5 6,2 1,6 -4,5 -4,2 -4,0 -4,1 -1,-5 4,-1 4,0 2,-2 -2,-3 -3,-2 0,-2 -2,-1 -1,-3 2,-7 -6,1 -1,1 1,2 2,1 -1,3 -2,3 5,4 -4,1 -4,0 1,4 -4,1 -4,0 -4,2 -3,3 -2,5 -3,4 7,4 1,-6 3,-3 2,-4 4,4 1,-4 3,-1 1,6 4,-1 5,0 0,5 -4,0 -1,4 -4,-1 -5,-2 -4,2 1,6 6,-2 1,6 5,-3 2,7 4,-2 0,-5 1,-4 3,-2 -1,-5 1,-4 3,1 2,-3 3,-2 5,-4 4,-1 6,3 -3,5 -3,1 -4,3 -4,0 0,4 -4,-1 0,4 -1,4 -2,4 1,6 -3,2 8,3 0,-6 1,-5 1,-5 3,-2 2,-3 5,2 -2,3 -3,3 -1,5 0,6 0,5 6,2 5,2 5,2 2,-4 1,-4 -1,-7 -4,-1 -2,4 -1,4 -6,-3 1,-5 1,-4 3,-2 3,1 6,-2 5,-1 2,-3"/>
    <path style="fill:none;stroke:#000000;stroke-width:1"
          d="m 153,410 1,-5 3,-1 5,2 4,-2 -6,-5 5,-1 0,-5 4,1 1,-5 5,0 0,-5 3,-3 2,-4 2,5 -2,4 0,4 -2,5 -4,0 0,5 -3,1 2,6 -3,3 -3,3 -4,0 -4,0 -2,5 -3,4 -2,3 -2,4 6,3 -4,3 -2,4 7,2 3,-3 3,-3 5,2 -3,6 4,0 6,2 7,1 3,-2 6,1 3,-1 2,-5 3,-1 2,9 5,0 5,0 5,0 6,1 1,-6 -5,0 -5,-2 -4,1 -5,-1 2,-6 1,-5 0,-6 -5,0 -2,4 0,5 -5,-2 -4,1 -2,4 -5,0 -9,3 3,-4 2,-5 5,-1 2,-4 5,0 3,-3 2,-4 4,0 4,1 5,1 5,-2 2,-6 -8,-2 -5,0 -4,3 -2,-6 -2,2 -1,4 -4,0 -1,3 -3,3 -5,0 -2,5 -5,1 -3,3 -3,3 -8,-4 2,-5 3,1 3,-2 5,-2 2,-2 2,-5 4,1 3,-3 4,-2 3,-2 2,-4 -5,-2 -2,3 -3,2 -5,1 0,-4 3,-3 2,-2 1,-4 0,-4 2,-4 2,2 0,2 2,2 1,3 -2,2 4,2 3,2 5,0 4,-5 7,-1 -1,5 -3,4 6,2 3,-4 0,-5 5,-1 2,6 -1,4 -3,3 2,6 6,2 0,-5 2,-4 1,-4 3,-4 -6,-2 -2,-6 4,-3 3,-1 -1,6 5,2 1,-4 0,-5 3,-2 3,-1 3,-3 4,-2 1,-4 -1,-5 -3,3 -3,3 -4,2 -4,-1 -2,3 -2,3 -6,0 -3,3 -4,4 -4,0 -5,-1 -4,-2 -2,4 -8,0 2,-3 2,-4 1,-5 6,2 5,2 5,0 3,-3 3,-3 4,2 2,-4 2,-3 4,-1 4,1 3,-3 1,-4 4,-1 5,-1 0,-2 1,-2 0,-2 2,-1 1,2 3,0 -1,-2 0,-2 0,-2 0,-2 2,-2 -1,-2 -2,0 0,2 -1,2 -1,2 0,2 -2,0 -2,1 -1,2 0,2 -6,-1 -4,2 -4,0 -4,-1 5,6 -4,0 -4,1 -4,1 -1,4 -4,0 -3,3 -3,2 -4,0 -6,-2 -4,-1 -5,1 -1,5 -5,3 -3,2 -2,-1 0,-2 -2,-2 1,-1 -1,-2 -2,-1 1,-2 1,-1 5,0 4,-3 5,-3 4,0 4,-3 2,6 5,-1 4,0 4,-3 1,-4 4,0 3,-2 0,-5 4,-1 4,0 4,1 2,-4 5,-2 2,0 0,-2 2,-1 1,2 0,2 -2,1 -2,1 1,4 1,-2 1,-1 2,0 1,-2 1,-2 0,-2 -1,-2 -2,0 1,-2 -1,-2 -1,-2 -2,2 1,2 -2,0 -1,2 -1,1 -1,-3 1,-2 -2,-1 0,-2 2,0 2,1 1,-2 0,-2 2,0 1,2 2,-1 -1,-2 1,-2 -1,-2 2,0 2,1 1,2 -2,1 1,2 -1,2 -2,1 1,2 2,-1 1,2 -2,1 1,2 2,-1 2,1 2,-1 2,-1 2,-1 1,-1 2,0 2,-1 1,-2 1,-1 1,3 -1,2 -2,1 -1,1 1,2 0,2 1,2 3,0 2,-1 0,2 -1,1 0,2 1,2 -2,1 -2,1 0,-2 0,-2 0,-2 -2,0 -1,2 0,2 0,2 -2,0 0,2 -2,1 -2,0 1,-2 0,-2 -1,-2 3,1 0,-2 1,-2 1,-2 -1,-2 0,-2 -1,-2 -1,2 -2,0 -2,1 1,2 2,-1 1,2 0,2 -2,1 -1,-2 -2,0 0,2 0,2 1,2 -1,1 1,1 -1,2 1,2 1,2 1,2 0,3 1,-1 2,0 1,-2 -2,-1 -1,-2 2,0 1,-1 2,-1 1,-1 2,-1 1,2 0,2 2,0 1,-2 -1,-2 1,-1 2,-1 2,1 1,-2 -2,-1 1,-2 -2,0 1,-2 0,-2 -1,-2 1,-2 -2,-2 -1,2 -2,1 -2,0 0,-2 2,-1 1,-2 0,-2 0,-2"/>
    <path style="fill:none;stroke:#000000;stroke-width:1"
          d="m 278,335 0,-2 -3,-1 0,-2 2,-1 -3,-1 0,-2 -1,-2 1,-3 -2,1 -1,-2 0,-2 -1,-2 0,-3 -2,2 -2,0 1,-2 0,-2 1,-2 1,-2 1,-2 0,-2 -2,0 -1,2 -1,-2 0,-2 1,-1 3,1 0,-2 3,0 0,2 0,2 0,2 2,-1 2,-1 3,0 2,-1 0,-2 -2,0 -2,1 -3,0 1,-2 2,-1 2,-1 2,1 2,-1 1,-1 1,3 -2,1 1,2 2,-1 1,-2 2,2 2,-1 0,-2 2,0 1,2 2,-1 -1,-2 2,0 1,-1 1,3 2,-1 -1,-2 0,-2 -2,-1 -2,1 -2,0 -2,1 -2,1 -1,2 -2,-1 0,-2 0,-6 4,-1 5,-2 0,-5 -4,1 -3,1 -5,0 -2,4 -4,1 -5,-2 0,4 -3,1 -4,0 -6,1 0,-4 1,-4 5,2 2,-2 5,-2 4,0 3,-3 3,-2 3,-1 4,0 0,-5 5,0 0,5 5,2 2,-3 5,1 0,-5 3,-4 2,-1 3,-3 2,-5 -5,-1 -3,3 -5,2 -1,3 -1,5 -4,-1 0,-6 -4,0 -3,3 -5,0 -2,4 -5,1 -3,3 -3,3 -4,2 -4,0 -4,0 -2,-6 -3,3 0,6 -3,-1 -3,2 -5,1 -7,-1 2,-3 4,-1 4,-2 3,-3 2,-4 3,-3 3,-1 4,-2 2,-4 2,-3 4,1 2,-3 3,-1 3,-2 0,-5 3,-2 4,0 1,-4 4,-1 1,5 5,2 0,-5 1,-4 -5,-2 0,-5 5,2 3,-1 0,-5 -5,-1 -1,-5 3,-4 0,-2 0,-2 -1,-2 0,-2 0,-2 0,-2 1,-1 2,-1 1,-1 1,2 0,2 -2,0 0,2 -1,2 1,2 1,2 0,1 0,2 0,2 -1,2 3,0 2,0 -1,2 0,2 2,1 1,2 1,2 -2,4 -3,4 0,5 -1,4 0,5 -5,0 -5,-2 -3,2 -4,-1 -1,4 -3,3 -5,2 -2,4 -3,-1 -3,2 0,4 -4,0 -1,4 5,1 4,-2 2,-4 5,-2 3,-3 5,-2 3,-3 4,-1 4,0 5,0 4,-3 1,-4 5,2 4,0 3,-3 3,-2 1,-4 2,-3 0,-5 -5,1 -2,5 -3,2 -2,3 -5,0 -1,-5 3,-2 4,-3 -5,-2 1,-2 0,-2 -1,-2 -1,-1 -1,-2 -1,-2 0,-2 0,-2 1,-1 1,2 1,-2 0,-2 -1,-1 -2,1 -2,1 -1,2 -1,-2 1,-2 -1,-2 -1,-2 0,-1 1,-2 1,2 1,2 1,2 2,-1 2,0 1,-1 1,2 1,2 -1,2 2,0 1,2 0,1 1,2 1,2 1,1 -1,2 -1,1 -1,-2 -1,-2 0,-1 -1,-2 -1,-2 -1,2 -1,1 0,2 2,0 0,2 1,2 1,1 0,2 3,0 5,-2 3,-2 3,-2 2,-4 2,-3 2,-3 4,-2 4,-1 5,0 4,0 3,-4 -6,-1 2,-4 4,0 0,-5 0,-6 -4,1 -1,4 -3,3 -2,3 -2,4 -5,0 0,-5 2,-3 4,-4 2,-3 1,-4 3,-1 3,-1 3,1 2,3 1,-1 0,-2 0,-2 2,0 0,-2 -2,-1 2,-1 -1,-2 -1,-2 -1,1 -1,2 -2,-2 -1,2 1,2 2,1 -1,2 -2,-1 -3,0 1,-2 -1,-2 1,-2 1,-2 -2,0 -1,2 -2,-2 -1,2 -2,1 3,1 1,2 -2,0 -2,1 -1,-2 -2,2 1,2 -1,2 -2,0 0,2 -1,2 1,3 -3,-1 0,2 -1,2 -2,-2 -1,2 1,2 0,2 -1,2 -2,0 0,2 -1,2 4,2 -4,2 -2,-3 -1,2 0,2 0,3 -1,4 -3,0 -1,2 -1,2 -2,-1 0,-2 1,-1 1,-2 2,0 1,-2 -1,-1 2,-1 -2,-1 1,-2 -2,0 -1,-2 -1,-2 -1,-2 -2,-2 -2,1 -1,1 1,2 2,-1 1,2 -2,1 1,2"/>
    <path style="fill:none;stroke:#000000;stroke-width:1"
          d="m 317,211 2,-1 1,2 0,1 -2,0 1,2 2,1 -2,1 -1,2 -1,-2 -1,-2 0,-1 -1,-2 -1,-1 -1,-2 0,-1 -1,-2 -1,-2 -2,0 0,2 1,2 1,2 -2,0 -1,1 -1,-2 -1,-2 1,-1 -1,-2 -1,-2 0,-2 2,0 1,2 2,-1 2,1 2,0 0,-2 -2,-1 1,-2 -1,-2 -2,-2 -1,2 1,2 -1,2 -2,-2 -2,1 -1,-2 2,-1 1,-2 1,-2 -1,-2 -2,2 0,2 -2,1 -1,-2 0,-2 2,-1 0,-2 -3,-1 0,2 -2,-1 -1,-2 -1,2 0,2 2,1 0,2 -2,0 -1,1 -2,0 1,2 0,2 -2,1 -1,-2 0,-2 -2,1 0,2 0,2 0,2 -1,2 0,2 -2,-4 1,-2 -1,-2 0,-2 0,-2 1,-1 2,0 2,-1 1,-2 2,1 -1,-3 0,-2 1,-1 -3,-1 -1,2 0,2 -1,2 -2,1 -3,1 -1,2 0,2 0,2 1,2 -1,2 -1,4 -3,3 -2,3 -3,3 -3,0 0,-3 0,-3 2,-2 -2,-1 0,-3 4,1 3,-2 0,-5 2,-1 0,-2 1,-2 -2,0 -2,1 -2,-2 2,-1 1,-1 2,-1 1,2 3,0 1,-1 2,-1 1,-2 0,-2 -2,2 -2,1 -2,0 -1,-2 2,-1 2,-1 -2,-1 -3,0 -2,0 1,2 0,2 -2,1 -1,-2 0,-2 -1,-2 -2,0 0,2 -2,0 -2,-1 -1,2 1,2 -2,1 -2,-2 -1,2 1,2 1,2 2,-2 2,-1 1,-2 2,-1 1,2 -1,2 -2,2 0,3 0,3 3,1 -3,2 -4,-2 -1,5 -5,0 2,-5 1,-5 -1,-2 -2,2 0,1 -1,2 -1,2 0,2 -2,1 0,2 0,2 -2,1 0,3 -2,1 -1,-2 1,-1 -1,-2 -2,-2 -1,-2 -2,0 0,-2 2,-1 -2,-2 -2,1 -1,-2 0,-2 -1,-2 -2,2 0,-2 1,-2 -1,-2 -1,-2 -2,2 1,2 -1,2 0,2 0,2 -2,1 0,2 0,2 0,2 0,2 -2,1 -1,1 0,2 0,2 2,-1 1,-2 1,2 2,-1 -1,-2 1,-2 -1,-2 1,-2 0,-2 1,-1 1,-2 1,2 2,2 0,2 -2,-1 -1,2 3,1 -2,1 -1,2 1,2 -1,2 -2,1 -1,1 -2,0 1,2 -1,2 -2,1 1,2 0,2 -2,0 1,3 2,-1 2,-1 0,-2 -1,-2 1,-2 2,-2 1,2 -1,2 1,2 2,1 0,-2 0,-2 2,0 1,2 1,-2 0,-2 0,-2 -1,-2 -1,1 -1,2 -2,0 0,-2 2,-2 1,-2 1,-1 -2,-1 2,-1 1,-2 2,2 0,2 -1,2 1,2 2,-1 1,2 -2,1 0,2 2,0 3,0 2,-2 2,-3 3,-2 4,0 0,5 -3,2 -2,3 -3,2 1,5 -1,3 0,4 5,-1 2,-2 -2,-5 3,-1 1,-4 4,-1 4,2 -3,2 -1,3 -1,3 1,4 -3,2 -3,2 0,4 -3,2 -4,1 2,-6 -4,0 -3,4 -1,4 -3,1 -3,2 -5,-1 -5,-2 -4,0 -4,2 -2,3 -4,1 -3,-1 -2,4 -3,3 -1,4 -2,3 -3,2 -3,3 -5,-2 -4,2 -3,4 6,2 3,-2 5,2 -3,4 -3,4 -2,-1 0,2 -2,1 0,2 0,2 1,2 -1,1 1,1 -2,1 -2,0 0,-2 -1,-2 1,-1 0,-2 0,-2 2,-2 -1,-1 -2,1 -1,2 -1,2 -1,1 -3,0 1,-2 1,-1 1,-2 -2,-1 -2,0 0,2 -1,2 -1,2 1,2 1,2 1,-1 2,-1 2,1 0,2 -2,0 -1,1 -1,2 -1,2 -2,1 -2,0 0,-2 2,-1 1,-2 -2,0 0,-2 -1,-2 -1,-2 1,-2 1,-2 1,-2 -2,0 -1,2 -1,2 -2,1 0,-3 1,-2 -2,0 -2,1 1,2 -1,2"/>
    <path style="fill:none;stroke:#000000;stroke-width:1"
          d="m 176,286 -1,2 -1,-2 0,-2 0,-2 -2,0 -2,0 1,2 0,2 1,2 -2,0 -1,1 1,2 1,2 1,-2 2,-1 0,2 1,2 1,2 2,-1 1,-2 -2,0 0,-2 1,-1 0,-2 2,0 1,2 0,2 1,2 -2,2 0,2 -2,0 -1,1 0,2 4,0 1,-1 3,1 2,-1 2,0 2,0 -2,-2 2,-1 0,-2 2,-1 1,2 2,-1 1,2 -2,1 -2,1 1,3 2,-2 2,0 2,2 0,-3 0,-2 -1,-2 2,-1 1,2 1,-2 -1,-2 0,-2 -1,-2 -1,-2 2,-1 2,-1 -1,3 1,2 1,2 0,2 1,1 -1,2 0,2 -2,1 2,2 4,-2 -1,-3 1,-2 -2,-2 1,-2 -1,-1 -1,-2 4,-1 1,-5 3,-4 -2,-6 5,1 -1,-5 3,-2 1,-5 2,-4 5,-1 4,0 3,-2 2,-1 2,-2 5,2 4,0 5,2 2,-3 4,1 0,-5 5,-1 4,0 3,-2 1,-4 2,-3 3,-1 2,-3 -2,-5 2,-3 3,-2 4,1 0,-5 -5,-2 3,-3 3,-3 4,-1 3,-1 -1,-2 0,-2 0,-2 2,0 -1,-3 2,0 2,-1 1,-2 0,-2 2,-1 1,2 1,2 0,2 -2,-1 -1,2 -2,1 -1,1 -1,2 0,2 1,2 -1,2 1,2 -2,3 -5,0 2,5 0,4 -2,4 0,5 -5,-4 -2,1 2,5 -3,3 -4,2 -2,3 0,4 -3,2 -3,2 -4,-1 -2,3 -2,4 -3,1 -3,2 -4,-2 0,5 -2,2 -2,4 -3,2 -2,2 -4,-1 -3,2 -1,4 0,5 -4,-1 -5,-2 3,-4 1,-4 1,-4 3,-1 5,-1 4,-2 2,-3 2,-4 -5,-1 -4,2 -2,3 -4,0 -3,-1 -3,2 -1,4 -1,4 -1,4 -2,4 0,5 -3,1 0,5 -2,4 -1,3 7,-1 3,-3 1,-3 1,-4 5,2 0,5 -2,4 -3,3 -5,2 -4,2 -3,1 -3,3 -6,-2 -3,2 -1,3 -2,3 -1,4 5,2 1,-4 3,-4 6,2 5,-1 3,-1 3,-2 3,-3 3,-1 2,-4 3,-3 2,-3 -1,-5 3,-2 4,0 3,1 -4,4 6,2 3,-3 0,-5 5,0 0,5 -1,6 2,4 -2,1 -2,0 -1,1 1,2 1,2 2,0 0,-2 1,-1 2,-1 2,-1 -1,-2 2,-1 1,2 2,2 1,2 0,2 -2,1 0,2 -1,1 0,2 -1,2 2,1 2,-1 2,1 0,2 1,2 1,2 1,2 -2,0 -1,2 1,2 2,-2 1,2 0,2 -1,1 0,2 -2,1 -1,-2 0,-2 -2,1 -2,0 0,2 2,1 -1,2 -2,-1 -1,2 -1,-2 -1,-2 1,-1 0,-2 1,-2 2,0 2,0 -1,-2 1,-2 1,-2 -1,-2 0,-2 -3,0 -2,-1 -2,1 -1,1 1,2 2,-1 2,0 1,2 -1,1 0,2 -2,1 -1,-2 -2,-1 -2,0 0,-2 -1,-2 0,-2 2,-1 2,-1 1,-2 0,-2 1,-2 1,-2 1,-2 0,-1 -2,1 -2,1 0,1 -1,2 -1,2 0,2 -2,1 -1,1 -2,1 0,2 1,2 0,2 -1,1 -1,2 1,2 -2,1 -1,-2 0,-3 -2,1 -1,2 1,2 0,2 -1,1 -3,-1 1,-2 -1,-2 1,-2 0,-2 2,0 2,-1 2,-1 -1,-2 0,-2 -2,-1 0,-2 2,-1 1,2 2,-1 0,-2 2,0 1,-2 -3,0 -3,1 0,-2 2,-1 -1,-2 -2,1 -1,-2 2,-1 0,-2 -3,1 -2,0 0,2 1,2 1,2 0,2 -1,1 -1,2 -2,0 0,-2 0,-2 1,-1 -1,-2 -1,-2 -2,1 0,2 0,2 0,2 0,2 2,2 -1,2 2,1 1,-2 2,0 2,2 -1,1 -2,1 -3,0 0,2 0,2 -5,0 0,5 -1,4"/>
    <path style="fill:none;stroke:#000000;stroke-width:1"
          d="m 235,335 -1,4 6,-1 -1,5 -3,2 -4,0 -5,0 -3,2 -1,5 -5,1 -1,5 -3,3 -4,-2 2,-4 0,-4 -5,1 -4,1 -2,4 -5,0 -3,5 -7,-3 3,-3 1,-4 5,-1 2,-3 4,-2 5,1 -2,-6 3,-2 4,1 -2,5 4,2 4,1 0,-5 3,-3 5,-1 4,0 0,-5 -1,-5 3,-1 0,-5 2,-4 -1,-7 -3,2 -3,3 -1,5 -5,-3 -4,2 -5,-2 -3,3 -3,3 -5,-1 -2,1 -5,-1 -5,1 -4,2 -3,3 3,8 3,-3 3,-3 4,-2 6,0 5,-1 5,0 4,-2 3,1 5,-2 1,6 -5,2 -4,2 -5,-2 -4,0 -4,1 -3,3 -2,2 -3,1 -3,3 -3,2 -5,0 -4,3 -2,1 -1,1 0,2 1,2 3,-3 -1,1 1,2 0,2 1,2 -3,0 -1,-2 -4,0 -2,3 -2,3 -4,1 -4,1 2,5 -5,-1 -2,3 0,5 -3,3 -1,5 5,-1 3,-3 1,-5 4,0 3,-3 1,-4 4,1 1,-4 3,-2 2,-1 1,-1 2,-1 1,3 -1,1 1,2 -1,2 -1,-2 -3,3 -1,5 -3,2 -3,2 -5,2 5,3 -5,2 -3,1 -3,3 -1,3 -6,-2 2,6 -5,0 -1,5 -2,4 -3,1 -5,0 0,-7 4,-2 0,-5 4,-2 0,-5 0,-6 2,-4 2,-4 -5,-2 -2,4 -4,2 -2,-1 0,2 2,1 1,4 -1,2 1,2 0,2 -2,0 -2,-1 -2,0 1,-2 2,0 -1,-2 1,-1 1,-2 -1,-1 -2,1 -2,1 0,2 -1,2 -2,0 1,-2 -1,-2 1,-2 1,-1 2,0 0,-2 -2,-1 -2,1 -2,1 0,-2 1,-2 -1,-2 -2,0 0,-2 1,-1 -2,-1 1,-2 2,0 1,-1 1,-2 2,0 2,-1 1,2 -2,1 -1,1 -1,2 -2,1 1,2 1,2 2,0 1,2 2,-1 2,0 1,-1 -1,-2 1,-2 -1,-1 -2,1 0,2 -2,0 -2,-1 1,-2 2,-1 2,-1 2,0 -1,-2 1,-1 -2,-2 -2,0 0,-3 -2,1 -1,1 -2,1 -3,0 0,2 -2,1 -1,-2 0,-2 1,-1 -2,-1 0,-2 0,-2 -1,-2 1,-1 2,0 1,2 1,2 -2,1 2,1 1,2 2,-1 0,-2 2,0 0,-2 -3,0 -1,-2 0,-2 -3,-1 -2,-1 1,-2 -3,0 0,-2 0,-2 -2,0 -2,0 1,2 0,2 1,2 2,1 -2,1 0,2 1,2 0,2 -2,0 -1,-2 -1,-2 1,-2 -1,-3 -1,1 -1,2 -1,2 -1,-2 0,-2 -1,-2 0,-2 2,1 2,0 0,-2 -2,-1 -1,-2 -1,-2 1,-2 1,2 2,2 3,-1 -2,-1 -1,-2 -1,-2 -3,0 1,-2 0,-2 -3,0 0,2 -2,0 1,2 1,2 -1,2 -2,1 1,2 2,-1 1,2 -2,1 0,2 1,2 0,2 1,2 1,2 1,2 2,-1 1,2 0,2 2,0 -1,2 -2,1 -1,-2 -1,-2 -3,0 0,-2 -1,-2 -2,0 1,-2 -1,-2 0,-2 -2,-1 1,-1 0,-2 -1,-2 0,-2 0,-2 2,-1 -1,-2 -2,1 -1,-2 2,-1 1,-2 1,-1 2,-1 0,-2 0,-2 -2,-2 -2,0 -1,2 2,1 0,2 -2,0 -2,-1 -1,-2 1,-2 1,-2 1,-1 -1,-2 2,-1 -2,-2 -2,1 -1,-2 0,-2 -1,-2 0,-2 2,-1 1,-2 1,1 2,0 -1,2 -2,1 0,2 1,2 1,-1 2,0 -1,-2 2,-1 1,1 0,2 2,0 2,0 2,-1 -1,-2 -2,1 -1,-2 -2,0 0,-2 3,-2 4,0 0,-5 1,-4 3,-2 4,-4 2,-3 2,-2 3,-3 2,-5 3,-2 5,2 -3,4 -2,3 -2,4 -3,3 -2,4 -5,0 -1,4 -1,3 -1,4 -3,5 -1,1 -1,2"/>
    <path style="fill:none;stroke:#000000;stroke-width:1"
          d="m 114,311 2,0 3,1 -1,-2 2,-1 1,2 1,2 1,-2 1,2 2,-1 1,2 2,-1 1,2 1,-1 3,2 3,1 2,-3 -5,-4 3,-2 1,-4 4,-2 0,-3 2,0 -1,-2 -1,-2 -2,1 -1,2 -2,0 -3,1 -2,4 -3,3 -5,-2 2,-4 2,-3 5,-2 1,-1 2,2 2,-1 1,-2 -3,0 0,-2 2,0 0,-2 3,-3 1,2 -1,1 0,2 1,2 1,-1 1,-2 1,-2 -1,-2 -1,-2 0,-2 2,-2 0,2 1,2 1,2 1,2 2,0 0,2 -3,0 -1,2 0,2 -1,1 1,2 1,2 1,-2 2,0 -1,-2 0,-2 1,-1 1,2 1,2 1,2 0,2 -2,0 -2,0 -1,3 -1,4 -4,1 0,5 5,0 4,0 3,-1 -2,-6 4,-2 2,5 1,5 -1,4 -5,1 -4,0 -4,0 -4,1 4,4 -3,2 0,2 2,4 4,0 2,-3 1,-4 4,1 3,-3 4,0 0,5 -1,3 -5,0 -1,4 -3,2 -4,1 -2,3 -5,-5 0,4 -1,4 0,2 0,2 -1,2 0,2 0,4 3,3 2,-5 2,-4 -1,-5 6,1 2,-3 4,1 2,-4 2,-4 5,1 -1,4 -1,4 -2,3 -4,2 -2,2 -5,-1 1,5 -2,2 -3,2 -4,4 5,3 3,-2 4,-2 3,-4 3,-1 2,-3 3,-2 3,-2 0,-4 2,-3 1,2 1,2 2,-1 1,-1 -2,-2 2,-1 -1,-3 -2,0 -1,2 -2,-1 0,-2 2,-1 2,-1 0,-3 -2,1 -2,1 -2,-1 1,-2 -2,-2 0,-2 0,-2 -1,-2 0,-2 0,-2 2,-1 -1,-2 -3,1 0,-2 0,-2 0,-2 -1,-2 1,-1 2,-2 0,2 1,2 0,2 0,2 3,0 0,2 1,2 -1,2 -1,1 0,2 1,2 0,2 0,2 2,2 1,-2 0,-2 -1,-3 0,-2 4,-3 5,-1 5,-1 4,-2 1,-4 3,-3 2,-4 -7,0 -5,1 0,5 -4,2 -2,-7 -4,4 -4,3 0,-2 -1,-2 0,-2 -1,-2 1,-2 0,-2 -1,-2 1,-2 2,2 2,0 0,-2 -2,-1 1,-2 -2,0 -2,1 -1,-2 0,-2 -2,-1 0,-2 -1,-2 1,-1 2,0 0,-2 0,-2 -2,0 -1,2 -1,-2 -2,0 0,2 0,2 1,2 -2,1 0,2 2,-1 1,2 0,2 2,0 0,2 1,2 -1,2 1,2 0,2 -1,1 -1,2 -2,1 0,-3 0,-2 1,-1 -1,-2 1,-2 -1,-2 -1,-2 -2,0 0,2 1,2 -1,2 -2,0 -2,0 0,-2 2,-1 -1,-2 -2,1 -1,-2 -1,-2 0,-2 -1,-2 2,-1 1,2 1,2 0,2 2,0 1,-2 -1,-2 1,-2 0,-2 1,-2 -2,0 -1,2 -1,2 -1,-2 -1,-2 1,-1 -1,-2 -1,-2 -2,0 -1,1 1,2 0,2 1,2 -2,1 -1,-2 -1,-2 0,-2 -1,-2 -1,-2 1,-2 2,2 1,-2 -1,-2 1,-3 2,-4 2,1 1,-2 -1,-2 2,-1 1,2 2,1 2,0 0,-2 -2,-1 0,-2 -3,0 0,-2 3,0 -1,-2 1,-2 2,0 0,2 0,2 1,2 1,2 1,2 0,2 -2,1 0,2 -3,0 0,-2 -2,0 -1,2 -2,0 -1,1 -1,2 0,2 0,3 2,-1 1,-2 0,-2 2,0 2,-1 0,2 -2,2 0,2 -1,1 0,2 1,1 1,-2 2,-2 0,-2 2,-1 0,-2 1,-1 2,-1 0,-2 1,-2 1,-2 1,-1 -2,-1 2,-1 2,0 1,-2 0,-2 2,-1 -1,-2 -2,1 -2,-1 1,-2 0,-1 2,-1 1,2 1,-2 2,-1 2,2 -2,1 0,2 6,3 2,-5 5,3 0,-4 4,-1 3,-1 3,-3 3,-1 2,-3 1,-4 1,-5 0,-5 4,-2 2,-4"/>
    <path style="fill:none;stroke:#000000;stroke-width:1"
          d="m 211,221 3,-2 2,-4 2,-3 4,-2 2,5 -3,3 -2,4 -1,3 -5,2 -3,4 0,5 -1,4 0,5 -3,3 -2,4 -4,-1 -3,3 -4,0 0,4 -4,1 0,7 4,-2 4,-1 1,-4 4,-2 2,5 3,-3 2,-4 2,-4 3,-3 0,-5 5,0 5,0 4,-3 4,-2 1,-5 4,1 0,5 5,2 2,-1 4,-2 0,-5 4,2 2,-5 -4,-3 4,-3 0,-5 -3,-3 -1,2 0,2 -1,2 -2,-2 0,2 0,2 -1,2 -2,1 2,1 -2,1 0,2 -1,3 -1,-3 -2,0 -1,-3 2,0 0,-2 2,-1 1,-1 0,-2 -2,-1 -1,2 -2,1 -1,1 -1,2 -3,0 -4,0 -3,3 0,4 -4,2 -3,2 -5,0 0,-5 3,-2 4,-1 2,-6 3,-3 2,-3 3,-1 0,-1 1,-2 2,-1 -1,-2 -2,1 -2,0 -1,1 0,-3 2,-1 0,-2 0,-2 1,-2 0,-2 2,0 0,-2 0,-2 -2,0 -1,2 -2,2 0,2 -1,2 0,2 -1,2 -2,-2 0,-2 1,-2 -1,-2 2,0 1,-2 1,-2 1,-2 1,-1 2,-1 1,2 1,-2 1,-1 0,-2 1,-2 0,-2 1,-2 -2,-1 -2,1 1,2 -1,2 -1,2 -2,1 -2,1 -2,1 0,2 0,2 -2,1 -1,-2 0,-2 0,-2 2,-1 1,-1 2,-1 2,-1 1,-2 0,-2 0,-3 -2,1 0,2 -1,2 -2,1 -2,1 0,-3 2,-1 -2,-1 2,-1 0,-2 -2,0 -2,0 -1,1 -2,-2 -2,0 1,2 -1,2 2,0 2,1 1,2 0,2 -1,2 -1,1 0,2 0,2 0,2 -1,2 3,0 -1,2 1,2 -3,1 -4,2 -4,-1 -1,4 -1,4 -3,3 -3,-1 0,5 -3,1 -2,3 1,5 -4,-2 -4,0 -4,1 -3,4 -2,6 4,0 3,-2 2,-2 2,-2 5,1 -1,4 -3,2 -2,3 -3,1 -3,2 -5,-1 -4,-1 -5,1 0,2 -2,1 -1,-2 1,-2 -2,0 -2,1 1,2 0,2 -2,-1 -1,2 1,2 0,2 1,2 2,2 -2,1 -2,1 -1,-2 1,-1 -1,-2 -1,-2 -2,-1 2,-1 -1,-2 2,-1 -1,-2 2,-1 0,-2 2,-1 3,0 2,-5 5,0 1,-5 2,-4 3,-1 3,-3 3,-2 3,1 3,-2 2,-4 2,-2 -2,-5 -2,-3 1,-2 1,-2 1,-2 3,0 -1,4 2,5 4,-1 0,-5 1,-4 4,0 4,1 3,-3 0,-2 0,-2 1,-2 1,-3 0,-2 -2,-1 -2,0 1,2 0,2 -1,2 -1,2 -3,1 2,-3 0,-2 0,-2 -1,-2 1,-2 1,-1 1,-2 -1,-2 -2,0 -2,0 2,2 -2,1 0,2 0,3 0,2 -1,1 -3,0 0,-2 1,-1 1,-2 -1,-2 -2,2 -2,2 0,2 1,2 1,3 -4,-3 0,2 0,2 -3,0 2,2 -1,1 -2,1 -2,0 -1,2 -1,2 -1,2 -1,2 -2,1 0,2 3,-1 0,2 -1,2 -2,0 1,3 -3,-1 0,2 -1,1 -2,1 0,2 -3,0 -2,1 2,1 -2,1 -2,1 -2,-1 -3,2 -2,4 -4,1 0,-2 -1,-2 1,-2 0,-2 0,-2 0,-2 1,-2 0,-4 -2,-2 1,-2 1,-2 1,-2 -1,-2 -1,-2 3,1 -1,-2 1,-2 0,-2 1,-1 0,-2 2,0 1,2 0,2 -1,2 -1,1 1,2 2,0 1,2 1,2 -3,0 -1,-2 -2,1 1,2 -1,2 3,0 2,-1 1,2 -2,1 -1,1 -2,0 1,3 2,0 1,2 -2,1 1,2 2,2 1,-2 1,-1 -1,-2 0,-2 -1,-2 2,-1 1,2 1,2 0,2 1,1 1,-2 2,-1 1,-2 1,-2 1,-1 -2,-1 1,-2 1,-2 0,-2 2,1 1,-2 -1,-2 -2,1"/>
    <path style="fill:none;stroke:#000000;stroke-width:1"
          d="m 188,201 -1,-2 2,-1 -1,-2 -2,-2 -1,1 0,2 -1,2 1,2 -2,0 -1,2 3,0 0,2 -2,0 1,2 -1,2 1,2 -1,2 -2,-2 -1,-2 1,-2 -2,0 1,-2 -1,-2 1,-2 1,-2 1,-2 1,-2 -1,-2 0,-2 2,-1 1,2 1,-3 -2,-2 -2,1 -1,-2 -1,3 -1,2 0,2 1,2 -1,2 -1,2 -1,2 -1,-2 1,-2 0,-2 -1,-2 0,-2 1,-2 1,-2 0,-1 -1,-2 -3,-1 -2,0 -3,-1 1,2 1,3 1,-1 2,-1 1,2 0,2 -2,1 -2,-1 -2,1 -1,2 -2,-1 0,2 1,2 0,2 -2,1 -1,-2 0,-2 -1,-2 0,-2 2,-1 1,-1 2,0 0,-2 -1,-2 -1,-2 1,-2 -1,-1 -2,1 -1,2 1,2 0,1 -1,2 -2,1 -1,2 0,2 1,2 0,2 1,2 -1,2 -1,2 -2,1 2,1 -1,2 -2,0 -1,1 1,2 -1,2 1,2 -1,2 2,1 2,-1 2,1 1,-2 -1,-2 -2,1 -1,-2 1,-2 1,-1 1,-2 1,-2 0,-2 1,-2 1,2 1,2 -1,2 -1,2 -1,2 2,2 1,2 -1,2 -1,2 0,2 0,2 0,2 -1,2 1,2 0,2 -1,2 3,0 1,2 -1,1 -2,1 -1,-2 -2,2 0,2 -2,1 -2,0 1,-2 1,-2 1,-2 -1,-2 0,-2 2,1 0,-2 -1,-2 1,-2 0,-2 0,-2 0,-2 -2,0 -1,2 -2,-2 0,3 2,1 0,2 -1,1 0,2 -1,2 0,2 1,2 -1,2 -4,0 -1,-5 1,-5 1,-4 -5,0 -1,4 0,5 -1,4 -4,1 1,5 -4,0 -2,5 4,2 4,0 3,-4 1,-4 4,2 3,0 2,1 -1,2 -3,1 -2,3 -3,1 0,4 -1,4 -2,4 -2,3 -3,3 -3,2 -4,-2 3,-5 2,-3 3,-3 1,-4 -6,-2 -1,3 -3,3 -2,1 0,4 -3,3 0,4 -2,5 -3,3 -5,1 0,-4 2,-3 2,-3 1,-4 2,-5 -4,-1 -3,3 -2,4 -3,-1 -4,-1 0,-3 3,-2 3,-2 1,-4 -5,-1 -3,2 -1,1 1,3 -4,0 -1,3 -3,2 -4,-2 -2,4 5,3 -3,3 -4,0 -2,3 -2,4 -1,5 -1,5 -5,2 -5,-2 4,-4 1,-4 1,-5 2,-4 2,-4 3,-2 0,-5 3,-3 5,-1 3,-3 3,-2 3,0 1,-1 -1,-3 0,-1 0,-2 0,-2 -1,-2 1,-2 0,-2 4,-1 4,1 -1,4 -4,1 1,6 4,0 2,-1 3,-3 1,-3 1,-4 -1,-5 -4,1 -5,-2 -3,-4 4,-1 3,1 -1,-6 1,-5 3,-2 0,-3 1,-2 0,-2 1,-2 2,0 0,2 0,2 -1,2 -1,2 0,2 1,2 -1,1 2,1 3,0 -1,2 0,2 -2,-1 -3,1 2,5 4,-2 2,-1 1,2 -1,1 0,2 -1,3 3,-2 2,0 1,4 -3,4 -2,1 -1,4 -1,4 -3,2 -2,4 5,2 4,-3 2,-3 1,-4 2,-5 3,-4 0,-5 5,0 -1,-5 2,-4 1,-5 4,1 3,-2 -1,-5 1,-3 5,-3 0,-3 2,0 1,-2 -2,-1 1,-2 -1,-2 1,-1 -1,-3 1,-1 1,-2 2,-1 -2,-2 2,-1 -1,-2 2,-1 0,-2 -3,-1 0,2 -2,1 0,2 -2,1 2,2 -1,1 -2,0 -1,2 0,2 -1,2 -2,1 2,2 -3,0 0,2 2,3 -2,2 -2,-3 -1,2 0,2 -3,0 2,2 -1,1 0,2 2,3 -4,0 0,-2 -1,-2 -1,2 -1,2 1,2 0,2 -1,2 -1,2 -1,2 -2,2 -2,1 2,1 -2,2 -2,0 0,-2 -1,-2 2,-1 2,-1 1,-2 -1,-1 0,-2 2,1 1,-2 0,-2 -1,-2 1,-2 -1,-2 2,0 -1,-2"/>
    <path style="fill:none;stroke:#000000;stroke-width:1"
          d="m 137,204 -1,-2 -1,-2 -1,-2 0,-3 -2,1 0,2 0,2 -1,2 2,0 1,2 -1,2 1,2 0,2 0,2 -1,1 -2,1 0,2 1,2 -2,0 -1,2 -2,0 0,-2 1,-2 -1,-1 1,-1 1,-2 2,-1 -1,-2 1,-1 -1,-2 1,-2 -3,-1 0,2 0,2 -2,1 0,2 2,0 -2,2 -2,2 -1,-2 0,-2 0,-2 2,-2 0,-2 0,-2 -1,-2 2,-1 1,2 2,-1 0,-2 0,-2 1,-2 2,-1 -1,-2 -3,-3 -1,1 1,2 0,2 -2,1 1,2 -2,1 -2,1 -2,2 -1,-2 1,-2 2,-1 1,-1 -1,-2 2,-1 -1,-2 0,-2 1,-1 -3,-1 -2,0 -1,2 2,1 1,2 -2,2 0,2 -2,0 0,2 -1,2 1,2 -1,2 0,2 -1,2 -1,1 -1,-3 0,-2 1,-2 -1,-2 1,-2 1,-2 -1,-2 2,-1 2,-1 -2,-1 -1,-2 1,-2 0,-1 -4,-1 1,2 -1,2 1,2 -2,1 -1,-2 -2,2 -1,-2 1,-2 2,-1 0,-2 -3,0 -1,2 -1,2 -1,2 1,2 2,1 -1,2 1,3 1,-1 1,-2 1,-2 2,0 0,2 -1,2 -1,2 1,2 -1,1 -2,2 2,5 -3,1 2,5 -2,4 -3,0 -1,2 -2,-1 1,-2 1,-2 1,-1 -4,1 1,-2 0,-2 2,0 1,-1 -1,-2 0,-2 1,-2 0,-2 -1,-2 1,-2 -1,-2 1,-2 -1,-2 -2,-1 0,-2 1,-2 1,-2 1,-2 0,-1 -3,1 -1,2 -1,2 -1,2 0,2 -3,1 2,2 2,-1 2,1 -1,2 1,2 -3,-1 -3,-1 0,2 -3,0 -1,2 -1,3 -2,0 1,2 0,2 -2,1 -1,-2 0,-2 0,-3 -2,1 -1,2 0,2 1,2 0,2 1,2 -1,2 -1,1 1,1 -1,2 -2,2 -1,-2 1,-2 -1,-2 -1,-2 3,0 -1,-2 0,-2 0,-2 -1,-2 1,-2 0,-2 2,0 0,-2 -2,-1 -2,1 -2,-2 -1,1 0,2 2,1 0,2 -2,-1 -2,1 1,2 2,0 1,2 -2,1 2,1 0,2 -2,-1 0,2 -2,0 -2,1 1,2 2,-1 2,1 1,2 0,2 0,2 0,2 1,2 -2,2 -2,-1 1,-1 0,-2 -1,-2 1,-2 -1,-2 -2,0 0,2 -1,2 1,2 -1,2 -1,1 -1,2 -1,-4 1,-2 -1,-2 1,-1 0,-2 0,-2 -3,1 1,-2 1,-1 1,-2 2,-1 1,-1 0,-2 -1,-2 -1,-2 0,-2 2,0 0,-2 -2,-1 0,-2 2,0 1,-1 -4,-2 -2,0 0,2 0,2 1,2 -1,2 0,2 1,2 1,2 -1,2 -2,2 -1,-2 1,-2 -2,-1 1,-2 -2,0 1,-2 0,-2 1,-1 -1,-2 0,-2 0,-2 -2,-2 -1,-1 -1,2 1,2 1,2 -1,2 -2,0 0,2 2,1 -1,2 1,2 -1,2 1,2 0,2 -1,2 1,2 0,2 0,2 0,2 -1,1 0,2 0,2 0,3 4,1 -4,1 0,2 0,2 0,2 -1,2 1,2 0,2 -1,2 0,2 0,1 -2,2 -1,-2 -2,1 -1,1 -1,2 0,2 -1,2 1,2 -2,0 1,2 -1,2 3,0 1,-1 2,-1 -1,-2 -1,-2 1,-2 0,-2 2,0 1,3 -1,1 1,2 1,2 -1,2 -2,1 1,2 -1,2 0,2 -1,2 -1,1 0,2 -2,0 -1,-4 2,-1 0,-2 1,-2 -2,-1 -1,2 -4,0 -1,4 -5,1 -3,3 -3,3 -5,-1 2,-5 2,-3 3,-2 1,-5 4,4 1,-5 2,-3 0,-5 4,2 0,-2 1,-2 1,-2 1,-2 -1,-2 1,-1 2,-2 0,2 1,3 1,-1 1,-2 0,-2 -1,-2 1,-2 0,-2 0,-2 0,-2 0,-2 1,-2 -1,-2 -2,-1 2,-1"/>
    <path style="fill:none;stroke:#000000;stroke-width:1"
          d="m 59,222 0,-2 1,-2 0,-2 0,-2 -1,-2 1,-2 0,-2 -1,-2 1,-2 0,-2 -1,-2 -1,-2 0,-2 0,-2 3,1 -1,-2 -1,-2 -1,-2 2,0 1,-2 0,-2 -2,0 -1,2 -1,-2 1,-2 2,-1 -2,-1 -1,-2 3,0 1,-2 1,-2 1,-2 1,2 0,2 -1,2 -1,2 1,2 0,2 1,2 1,-2 1,-2 -1,-2 1,-1 2,-1 -1,-2 0,-2 1,-1 2,-1 1,-2 0,-3 2,0 0,-2 -3,-1 -2,1 1,2 -1,2 -1,1 -1,2 -2,-2 0,-2 2,-1 -1,-2 1,-2 2,-1 0,-2 -3,1 0,-2 2,-1 1,-1 3,-1 -1,-3 2,0 5,4 -1,1 3,1 1,2 -2,0 -2,0 -1,1 0,2 1,2 0,2 3,0 0,-2 -1,-2 2,0 2,-1 0,2 0,2 3,0 0,-2 0,-2 2,-1 2,-1 2,-1 0,-2 -1,-2 -1,-2 1,-2 -1,-2 2,-1 -1,-2 2,-1 1,2 1,-2 -1,-2 1,-1 2,-1 0,-2 -3,1 0,-2 2,-1 2,-1 0,-2 -1,-2 2,-1 0,-2 2,-1 1,2 -1,2 -1,2 1,2 -1,2 0,2 0,2 -1,1 -2,1 2,2 0,2 -2,0 -1,1 -2,1 2,2 -2,0 -1,1 1,2 1,2 0,2 -1,2 -2,1 -2,1 -2,1 1,2 2,-1 2,-1 2,-1 2,-2 0,-3 2,-1 -2,-2 1,-1 2,-1 -2,-2 2,-1 2,-1 0,-2 -1,-2 2,0 1,-1 2,-1 0,-2 -3,1 0,-2 0,-2 0,-2 0,-2 1,-2 1,-2 2,-1 1,-1 -1,-2 -2,0 -1,2 -2,-2 0,-2 -1,-2 -1,2 -1,2 -2,1 -1,2 -1,2 0,2 0,2 -2,1 -2,0 0,2 0,2 0,2 -1,1 -2,0 -1,2 2,1 -1,1 -1,2 -2,1 -2,1 0,2 0,2 2,-1 1,-2 2,-1 0,3 1,2 0,2 -2,-1 -2,0 1,2 -2,1 -1,-2 -2,-2 -1,-2 0,-2 1,-3 2,-1 2,-1 -1,-2 1,-2 1,-2 2,-1 0,-2 1,-3 1,-2 2,0 0,-2 1,-2 1,-2 1,-2 1,-1 2,0 0,-3 1,-2 2,-1 0,2 2,0 1,2 1,2 2,-1 -1,-2 -1,-2 0,-2 -2,0 -1,-2 1,-2 2,2 2,0 1,-1 -2,-1 -1,-2 2,0 4,-2 3,3 1,-2 1,-2 0,-2 2,0 1,-2 -2,-1 0,-2 1,-2 1,-2 0,-2 1,-2 1,-2 2,2 -1,2 0,2 -1,2 -1,2 1,2 0,3 -2,2 -1,2 -1,2 -2,2 -2,1 3,1 -1,2 -1,1 -4,-1 -2,-1 0,2 1,2 2,1 -1,1 -1,2 1,2 1,2 1,2 -2,0 1,2 -2,1 -1,-2 -2,0 0,2 0,2 0,2 1,2 2,-1 0,-2 1,-1 2,-1 5,1 -3,-3 1,-2 -1,-2 -1,-2 -1,-2 4,0 0,-2 1,-1 0,-2 1,-2 1,-2 -1,-2 3,0 -1,-2 1,-2 1,-2 2,0 2,-2 -3,-1 1,-2 -1,-2 1,-2 1,-2 0,-2 1,-2 2,-1 2,-1 1,-2 1,-2 1,-1 1,-2 0,-2 2,-1 1,3 2,-2 3,-2 5,-1 -1,3 -2,3 -2,2 -4,1 -1,4 -3,-1 -3,3 -3,0 0,2 -1,2 -1,3 2,2 2,-1 2,-3 3,-3 2,5 3,1 -5,2 -3,3 -2,3 -2,4 -3,-1 1,5 -3,2 -1,3 -2,3 0,5 5,4 1,2 2,0 0,3 -2,-1 -1,2 -1,-2 -2,1 0,2 3,1 2,0 2,-1 1,2 2,-1 1,2 1,-2 0,-2 2,1 0,2 1,2 2,-2 1,2 2,-1 0,-2 2,-1 2,-1 0,-2 1,-1 2,-1 1,-2 -1,-2 0,-2 0,-2 0,-2 1,-1"/>
    <path style="fill:none;stroke:#000000;stroke-width:1"
          d="m 149,128 0,-2 0,-2 -1,-2 -2,0 0,2 0,2 -1,2 -1,1 0,2 2,0 -1,2 0,2 1,2 -2,1 -2,1 -2,0 0,2 2,1 -2,1 -2,1 -1,-2 -2,-1 2,-1 0,-2 0,-2 2,-1 1,-1 0,3 3,-1 -1,-2 0,-2 -1,-2 -2,0 -1,1 -1,2 -2,1 -1,2 0,2 -2,1 0,2 -2,1 -1,-2 0,-2 2,-1 1,-2 0,-2 1,-1 2,-1 1,-2 -1,-2 -1,-2 -2,2 1,2 -2,0 -1,2 -1,2 0,2 -2,1 -2,-1 1,-2 1,-2 1,-2 1,-2 2,-2 1,-2 1,-2 1,-2 1,3 1,2 2,-1 -1,-2 0,-2 -1,-2 2,0 0,-2 1,-1 1,-2 2,-1 2,0 1,-1 2,0 -1,-2 -1,-1 3,0 0,-2 0,-1 3,0 1,-2 1,2 1,2 0,1 -2,1 -1,-2 -1,2 -1,1 1,2 -2,1 -2,1 0,2 -2,0 -1,-2 -2,1 1,2 -1,1 -1,2 0,2 1,2 -1,2 -2,1 -1,1 3,1 2,-1 1,-2 0,-2 0,-2 1,-1 -1,-2 2,-1 1,1 1,2 2,-1 1,1 1,-2 -1,-2 -2,1 0,-2 1,-1 2,-1 1,-2 1,-1 2,-1 1,1 1,2 -2,0 -1,1 0,2 -2,0 1,2 1,1 -1,2 2,0 2,-1 1,2 -2,1 0,1 1,2 -2,1 -1,-2 -1,-2 -2,0 0,2 1,2 0,2 0,2 -1,1 0,2 0,2 3,-2 1,-2 0,-2 1,-1 2,-1 1,-2 0,-2 2,1 0,-2 -1,-2 -1,-2 -1,-2 -2,1 0,-2 2,-1 2,0 1,2 0,1 1,2 1,1 0,2 3,-1 -1,-2 -1,-2 -1,-2 0,-1 0,-2 -2,-2 -1,2 -1,-1 -1,-2 1,-1 1,-2 1,2 3,-1 2,-1 -1,-2 -2,0 1,-2 2,-1 1,-1 0,-2 0,-2 -1,-2 3,0 -2,-2 2,-1 1,-1 0,-2 1,-2 0,-2 -1,-2 1,-2 0,-2 1,-2 0,-2 2,0 0,-2 0,-2 0,-2 0,-2 1,-2 -1,-2 0,-2 -1,-2 0,-2 -2,-1 0,3 0,2 0,2 1,2 -1,2 0,2 -1,1 1,2 -3,-1 1,2 1,2 -1,2 -1,2 0,2 -2,1 2,2 0,2 0,2 -1,2 -2,1 -1,2 -1,2 1,2 0,2 -2,-1 0,3 -2,1 -2,2 0,2 -1,2 -1,-2 -1,-2 0,-1 0,-4 2,-3 2,-3 2,-2 2,-1 1,-2 1,-1 0,-2 -2,-1 1,-2 0,-2 1,-1 1,-2 1,-2 -1,-2 -1,-2 1,-2 2,-2 1,-2 -1,-2 -2,0 -3,0 0,2 3,0 -1,2 -1,1 -1,2 0,3 1,2 -1,2 -4,0 -1,3 -2,3 4,2 -4,2 -1,3 -2,2 -2,2 -1,3 -4,2 -4,2 -3,-1 1,-4 2,-2 4,1 1,-4 2,-3 2,-2 -1,-4 2,-1 2,-3 -1,-4 1,-3 4,2 1,-3 0,-4 -4,1 -3,-1 -1,-3 0,-2 0,-2 0,-2 -1,-2 -1,-2 1,-2 -1,-2 -1,-2 0,-2 0,-2 0,-2 2,-2 -1,-2 -1,-2 0,-2 -1,-2 -1,-2 2,-1 2,0 -1,2 1,2 1,2 0,2 1,2 1,-2 1,-2 -1,-2 -1,-2 1,-2 0,-2 1,-2 1,-1 2,0 1,2 -2,1 0,2 -1,2 2,0 -1,2 0,2 0,2 -1,2 1,2 1,2 0,2 -1,2 -2,0 0,-2 0,-2 -1,-2 -2,1 0,2 0,2 0,2 1,2 2,-1 2,1 -1,2 -2,0 -1,2 1,2 2,-1 2,-1 0,2 0,2 -2,0 -1,1 0,2 0,2 4,-1 4,-1 2,1 2,-1 2,1 0,-2 1,-2 -1,-2 0,-2 0,-2 0,-2 -1,-2 0,-2 1,-2 -1,-2 3,0"/>
    <path style="fill:none;stroke:#000000;stroke-width:1"
          d="m 170,40 1,2 0,2 -1,1 0,2 1,2 0,2 0,2 2,0 2,1 1,2 0,2 1,2 0,2 1,2 -1,2 0,2 1,2 -1,1 2,1 -2,1 0,2 2,1 0,2 1,2 2,-1 1,-1 -1,-2 -1,-2 1,-2 2,-1 0,3 1,2 1,2 2,-1 -1,-2 -1,-2 1,-2 -1,-2 2,0 1,-1 2,-1 1,2 0,2 -2,0 -1,2 1,2 2,-1 0,2 -1,2 -1,1 -2,1 -2,0 -2,1 -2,1 1,2 2,-1 1,2 0,2 -2,1 -1,-2 -2,2 -1,-2 0,-2 -1,-2 -2,2 -1,-2 1,-2 0,-2 -2,-2 -1,2 0,2 -1,2 1,2 0,2 -1,2 0,2 0,2 -2,1 2,1 0,2 -2,0 -1,1 0,2 2,1 -2,1 0,2 -2,0 0,2 2,1 0,2 -2,0 -1,1 -1,2 2,1 2,0 1,-2 2,-1 3,1 -1,1 -2,1 -1,2 0,2 -2,-1 -2,0 1,2 1,2 0,2 0,4 1,-1 2,-1 0,-2 0,-2 1,-1 1,-2 0,-2 2,-1 1,2 2,1 -2,1 1,2 -2,0 1,2 -2,0 0,2 -1,2 -2,1 -2,2 -2,2 4,4 3,1 0,-2 1,-2 2,1 0,2 0,2 3,1 2,1 2,-2 1,2 2,-1 0,-2 0,-2 -1,-2 0,-2 2,-1 0,2 1,2 2,-1 0,-2 -1,-2 1,-1 2,-2 0,2 1,2 1,2 -1,1 -1,2 -2,1 -1,1 -1,2 -1,2 3,0 1,-2 1,-1 2,-1 1,-2 1,-1 2,-1 1,-2 1,-2 1,-1 -1,-2 2,-1 1,2 1,-2 1,-1 2,-1 1,-2 1,-1 -1,-2 -1,1 -1,2 -2,1 -2,0 0,-2 2,-1 1,-2 1,-1 2,-1 -1,-2 -2,1 -2,1 0,-2 1,-1 2,-1 1,-1 2,-1 1,-2 1,-2 2,0 0,2 -1,2 -1,2 -2,1 1,2 2,-1 1,2 -2,1 -1,1 1,2 1,-1 2,-1 1,-2 0,-2 -1,-2 1,-1 2,2 0,2 3,2 1,-5 3,-1 3,-4 -1,-5 3,-1 5,-1 2,-2 3,-1 1,-3 2,-2 0,-4 -1,-4 -4,2 -4,2 4,2 -2,3 -4,-2 0,4 -2,2 -3,-1 -4,1 0,5 0,4 -4,1 -2,-5 1,-3 -5,-1 -3,3 2,2 -1,1 -3,0 1,2 0,2 -2,1 -1,-2 0,-2 -1,-2 2,-1 1,-1 0,-2 -3,0 -1,2 -2,-2 -1,2 1,2 -1,1 2,1 0,2 1,2 0,2 -2,-1 0,2 -2,0 1,2 -1,3 2,-1 1,2 -2,1 -1,1 1,2 0,2 -2,1 -1,1 1,2 -1,2 -1,2 -1,-2 0,-2 -1,-2 1,-2 0,-2 2,0 -1,-2 0,-2 -1,-2 2,0 0,-2 0,-1 -1,-2 2,-1 1,-2 0,-2 -1,-2 -2,2 1,2 -2,1 -2,1 -1,2 2,1 -1,1 0,2 0,2 0,2 0,2 -1,2 -2,1 -1,1 -2,0 0,2 -2,1 -1,-2 -1,2 -1,2 0,2 1,2 0,2 -2,1 -2,0 1,-3 -2,0 1,-2 -3,-1 1,-2 2,1 1,-2 1,-2 0,-2 3,0 0,-2 2,-1 1,2 1,-2 2,0 0,-2 0,-2 0,-2 0,-2 -2,2 -1,2 0,2 -7,-3 -4,-1 1,-1 -1,-2 -1,-2 0,-2 -1,-2 -1,1 -1,2 -2,0 0,-2 0,-2 1,-1 3,0 -1,-2 -2,-1 2,-1 0,-2 0,-2 0,-2 0,-2 0,-2 1,-2 1,2 1,2 0,2 0,2 0,2 0,2 0,2 1,2 0,2 1,2 0,2 1,2 2,-2 -1,-3 0,-2 4,1 2,-3 4,-1 2,-2 2,-2 -1,-2 3,0 -1,-2 1,-2 2,-1 1,-1 -1,4 2,-1 2,-1"/>
    <path style="fill:none;stroke:#000000;stroke-width:1"
          d="m 205,90 2,0 1,-2 2,4 4,-1 3,-1 4,2 1,-3 4,0 2,-2 2,-2 2,-3 4,-1 4,-2 3,-2 4,0 2,4 3,-1 2,-2 4,-3 1,-2 1,-2 2,-2 0,-3 -4,2 -3,1 0,2 -1,3 -4,1 1,-5 1,-2 0,-4 1,-3 2,1 0,4 3,-1 1,-2 -1,-3 1,-2 3,-1 0,3 0,3 3,-1 1,-2 1,-2 -2,0 -1,-3 2,1 1,-2 -2,-1 1,-2 0,-2 1,-1 -2,-1 0,-2 1,-1 2,0 1,2 1,2 -1,2 0,2 1,2 -1,2 1,2 -1,2 -1,2 -1,2 -1,2 1,2 -1,2 -1,1 -2,2 0,3 -1,2 -3,0 0,3 -2,3 -2,1 -2,2 -4,-2 0,4 0,4 -2,3 -4,2 -1,4 -4,0 -3,1 0,4 -3,2 0,4 -4,1 0,6 4,-2 4,0 1,-4 2,-3 2,-3 3,-1 3,-2 0,-5 4,-2 0,4 4,2 -3,3 -2,3 -2,4 -3,-1 -2,3 -1,3 -2,3 -4,1 -4,1 5,6 5,-1 0,2 -2,1 0,2 3,1 0,-2 2,-2 0,-2 1,-1 2,-1 -2,-2 3,0 0,-3 2,-1 0,3 0,2 0,2 -1,1 -2,1 -1,2 -1,1 1,2 -2,1 -1,2 1,2 2,-2 1,2 0,2 3,1 0,-2 -1,-2 -1,-2 1,-2 1,-1 -1,-2 2,-1 1,2 1,-2 0,-2 0,-2 2,1 2,-1 -1,-2 -1,-2 -2,2 -1,-2 1,-2 1,-1 -2,-2 2,-1 1,-1 2,-1 2,-1 0,-2 -3,1 1,-4 4,-1 1,2 -1,1 1,2 0,2 -2,1 -1,2 -2,0 -1,1 1,2 0,2 2,1 2,-1 -1,-2 1,-1 1,-2 1,2 2,-1 -1,-2 1,-1 2,0 2,-1 1,-1 2,-1 0,-2 -2,0 -2,1 -2,1 -2,0 1,-2 1,-1 2,-1 1,-1 0,-2 -1,-2 -2,1 0,2 -2,1 -1,-2 2,-3 1,-1 2,-1 1,-1 2,0 1,2 -2,1 1,1 2,0 1,2 0,1 -2,0 0,2 2,1 2,0 2,-1 1,2 1,2 -2,1 -1,-2 -2,1 1,2 -2,1 -2,0 -1,1 -2,1 -1,1 -1,2 -2,1 -1,1 -1,2 -2,1 -1,1 -1,2 -2,1 -1,1 -1,2 -1,2 -2,1 -1,1 1,2 1,2 2,-2 0,-2 2,-2 1,-2 1,-1 2,-1 1,-2 1,-1 2,-1 1,-2 1,-1 2,-1 1,-2 1,-1 2,-1 2,-1 2,-1 2,-1 2,0 2,-1 0,-2 1,-1 1,-2 -3,1 1,-3 -1,1 -2,0 0,-2 2,-1 2,-2 1,-4 3,0 3,-3 3,-3 4,0 2,-2 2,-2 4,-2 -4,-2 1,-3 2,-1 2,-4 3,-2 -1,-4 -3,-1 -2,2 -1,3 -2,2 -4,0 -1,-4 3,-2 2,-3 2,-3 4,0 4,3 4,3 -1,3 0,4 -2,3 -2,1 -1,3 1,5 -3,2 -2,2 -2,2 -4,1 -4,0 -3,3 0,4 -3,0 -1,3 -1,4 0,2 -1,1 3,1 2,-3 2,-2 2,-1 1,-5 2,-2 3,1 2,-3 4,1 2,-2 2,-3 2,-1 2,-3 -2,-4 2,-2 2,-2 3,1 2,-3 -4,-2 4,-2 3,0 1,-2 1,-2 1,-2 3,2 1,3 -2,1 0,3 -3,-1 -1,3 -2,4 -1,3 -4,0 1,4 -2,3 0,3 -4,0 -2,3 -3,2 -4,0 -2,3 -4,0 1,4 -3,2 -3,3 -1,4 2,4 2,4 2,4 3,6 1,-5 5,-1 0,-5 3,-2 3,-3 2,-3 4,0 0,-4 2,-1 4,0 5,0 2,-3 3,-3 4,0 -2,4 -2,4 -1,1 -2,1 -2,1 -2,1 -1,1 -3,0 1,3 1,2 0,1 1,2 1,1 -1,2"/>
    <path style="fill:none;stroke:#000000;stroke-width:1"
          d="m 329,134 -2,1 2,1 0,2 -2,-1 -2,0 -2,1 -1,-2 2,-1 0,-1 2,-1 1,-1 -2,-1 1,-1 -1,-2 -2,0 -1,2 1,2 -2,1 -1,-2 -2,2 2,2 -2,1 -2,-1 -1,2 0,2 -2,1 0,2 -3,-1 1,2 0,2 -3,-1 0,2 3,1 0,3 3,2 0,-2 -1,-2 0,-2 1,-2 2,-1 0,-2 1,-2 2,-1 2,0 0,2 -2,1 0,2 -1,2 -2,1 0,2 1,2 0,2 0,2 1,2 2,-1 0,-2 2,1 2,-1 1,-1 2,-1 1,-2 3,0 0,-2 2,-1 0,-2 -2,0 -1,1 -2,0 0,2 -2,-2 -2,0 1,2 0,2 -2,1 -2,-1 -1,2 -1,-2 0,-2 3,0 -1,-2 1,-2 1,-1 1,-2 2,-1 1,1 0,2 -1,1 3,-1 2,0 -1,-2 1,-2 1,-2 -1,-2 2,-1 1,2 1,-1 2,0 -1,-2 -1,-2 -1,1 -2,0 -1,-2 2,-1 2,-1 1,1 1,-2 1,2 2,-1 0,-1 -1,-2 -1,-1 -2,1 -2,1 -2,1 -2,1 -1,-2 2,-1 2,-1 2,-1 2,-1 2,0 1,-1 1,3 1,2 2,1 -1,1 0,2 -2,0 -2,1 -1,1 1,2 1,-1 2,-1 1,1 1,2 1,2 -2,0 -1,-2 -2,1 -2,1 -1,1 -1,2 -1,-2 -2,1 1,2 -1,1 1,1 1,2 2,-1 0,-2 1,-1 2,0 -1,-2 2,-1 1,2 2,-1 1,2 1,-2 2,-1 1,-1 -2,-1 1,-2 -2,0 -1,-2 2,0 -1,-2 4,-2 0,-2 2,-1 2,-1 3,0 1,-1 1,-2 -1,-2 3,0 -1,-2 -1,-2 0,-2 -1,-2 0,-2 1,-2 -1,-2 0,-2 1,-2 0,-2 -1,-2 0,-2 2,-1 1,2 0,2 1,2 0,2 1,2 -2,0 0,2 0,3 0,2 1,2 0,2 1,2 2,-1 0,-2 -1,-2 0,-2 -1,-2 1,-1 2,0 2,-1 0,-2 -3,0 0,-2 0,-2 -1,-2 0,-2 -1,-2 -1,-2 1,-2 -1,-2 0,-2 -1,-2 1,-1 2,0 0,-2 -2,-1 -2,1 -2,0 -1,1 -2,1 -1,1 0,2 0,3 2,-1 1,-2 1,-2 1,2 0,2 1,2 -1,2 -2,1 0,-3 -2,1 -1,2 1,2 0,2 1,2 0,2 -1,2 0,2 1,2 -1,2 1,2 0,2 0,2 1,2 -2,0 0,2 1,2 -2,0 -1,1 -2,1 -2,0 -4,0 -2,-5 1,-3 3,-1 0,-3 -2,-1 -1,-3 3,-1 3,1 -1,1 0,2 2,1 -1,2 0,2 -2,2 0,3 3,0 0,-2 1,-1 1,-2 0,-2 0,-2 -1,-2 1,-2 -1,-2 1,-2 0,-2 0,-2 0,-2 -1,-2 -1,-2 1,-2 -2,-1 -1,-2 2,0 1,-1 -1,-2 0,-2 -2,2 -2,0 -1,2 1,2 1,2 1,2 0,2 -1,2 2,0 0,2 0,2 0,2 -1,1 -2,0 0,-2 -1,-2 1,-1 -2,-2 1,-2 0,-2 -1,-2 -1,-2 -2,1 -1,-2 2,-1 1,-2 -1,-2 -1,-2 0,-2 1,-2 -1,-2 0,-2 -1,-2 0,-2 -1,-2 -2,2 1,2 0,2 0,2 1,2 -1,1 0,2 1,2 1,2 0,2 -3,-1 -1,1 1,3 -1,2 -2,1 1,3 -2,1 -1,4 3,1 2,-3 1,-2 1,-3 2,-1 2,1 -1,2 -1,2 1,3 -3,1 3,2 -2,2 -2,2 -3,-1 -3,2 -2,2 -2,3 -4,0 -3,-1 -4,1 -2,4 -3,1 -3,2 -2,3 -3,3 -1,5 -4,-5 0,-5 3,-2 2,-3 2,-2 2,-2 3,1 2,-2 3,-2 1,-3 4,1 4,2 2,-3 3,-3 -3,-1 -4,2 0,-4 1,-4 4,1 0,-4 1,-3 2,-1 2,-2"/>
    <path style="fill:none;stroke:#000000;stroke-width:1"
          d="m 334,86 -3,-1 3,-3 3,-1 -1,-2 0,-2 -1,-2 1,-1 0,-2 0,-2 0,-2 0,-2 2,-1 2,-1 2,-1 1,2 0,2 1,2 0,2 1,1 0,2 0,2 0,2 0,2 1,2 2,-1 1,-1 -1,-2 0,-2 0,-2 0,-2 -1,-2 -1,-2 0,-2 -1,-2 0,-2 -2,-1 1,-2 0,-2 2,-1 1,2 0,2 1,2 0,2 1,2 0,2 1,2 2,-1 0,-2 -1,-2 0,-2 -1,-2 0,-2 1,-1 2,-1 1,-2 1,-1 1,-2 -2,-1 -2,1 -1,1 0,2 -2,1 -1,-2 0,-2 -1,-2 -2,-1 0,-2 1,-1 -1,-2 -1,-2 0,-2 0,-2 2,0 1,2 0,2 1,2 1,2 0,2 1,2 2,-1 0,-2 1,-1 2,-1 1,-2 0,-2 -1,-2 2,-1 1,2 2,2 -1,1 -1,2 -2,2 -1,2 2,0 2,1 0,2 -1,2 2,0 2,2 1,-2 -1,-2 0,-2 -1,-2 -2,-1 2,-1 1,-2 1,-2 2,-1 1,-1 2,-2 1,2 2,-1 -1,-2 1,-2 1,-1 2,-1 1,2 0,2 -2,0 1,2 -1,2 1,2 0,2 -2,1 -1,-2 0,-2 -2,1 -1,2 -1,-2 -2,1 -1,2 0,2 1,3 0,2 0,3 0,2 1,2 0,2 -1,1 -3,-1 1,-2 -1,-2 -2,-1 -2,0 -2,0 1,2 3,1 -1,1 -2,1 -2,-1 -1,-2 -1,2 1,2 0,2 1,2 0,2 -1,2 -2,1 -1,1 0,2 0,2 0,2 2,1 1,-2 -1,-2 1,-2 2,-1 1,-2 1,-2 0,-2 -1,-2 2,-1 4,2 1,4 -4,2 -1,1 -1,2 -2,1 1,2 2,-1 2,-2 1,2 2,-1 4,2 -1,-4 1,-4 -1,-4 2,-1 2,-1 -2,-1 0,-2 -1,-2 0,-2 -1,-2 1,-1 2,0 0,-2 -1,-2 -2,1 0,-2 0,-2 2,0 2,1 1,2 1,2 0,2 -1,2 -1,1 0,2 1,2 1,2 0,3 0,2 -1,1 0,4 0,4 0,4 -3,2 -3,1 -1,1 0,2 3,0 0,3 -2,-1 -1,2 1,2 1,2 1,-2 2,-1 0,2 1,2 -1,1 -3,0 1,2 0,2 2,-1 2,0 1,3 -2,0 0,2 -1,2 -2,1 -1,1 0,2 1,2 0,2 2,-1 2,0 1,2 2,-1 2,-2 -3,-1 -2,-1 -2,0 1,-2 3,0 -1,-2 2,-1 4,2 0,-4 4,0 2,-3 4,0 -1,4 -1,3 -4,0 1,4 -3,1 0,4 4,2 2,-3 2,-3 2,-1 4,2 -3,3 1,4 -3,0 -2,2 -1,3 1,4 -3,1 -4,1 -2,2 -3,1 0,2 -1,2 -1,-2 -2,1 0,2 1,2 0,2 1,2 2,-1 0,-2 -1,-2 3,0 3,-1 4,2 2,-3 -4,-2 3,-2 4,0 3,-1 -1,-4 1,-3 2,-1 3,-3 -1,-4 2,-3 2,-2 2,-2 1,-3 3,0 0,-2 1,-2 -3,0 0,-2 1,-1 -3,-1 1,-2 0,-2 1,-2 -1,-2 -1,-2 1,-2 1,-2 2,1 1,2 -2,1 1,2 1,2 -1,2 0,2 1,2 1,2 1,2 0,2 0,2 -1,2 0,2 -2,3 -2,2 -3,2 4,2 -4,2 -2,3 -1,3 -2,3 3,1 -3,3 -1,3 -4,-1 2,4 -4,0 -2,3 -1,4 -3,1 0,-5 -3,0 -4,1 -2,1 -1,2 -1,2 1,2 -1,2 0,2 1,2 -1,1 -3,1 0,-2 0,-2 0,-2 1,-2 -1,-2 1,-2 1,-2 -1,-2 -1,-2 0,-2 -1,-2 0,-2 1,-2 2,-1 1,-1 3,-1 -1,-2 1,-2 -1,-2 1,-2 3,2 4,-1 0,-4 -4,1 -1,-4 -3,-1 -1,2 1,2 -2,1 0,2 -1,2 1,2"/>
    <path style="fill:none;stroke:#000000;stroke-width:1"
          d="m 373,129 -1,2 -2,2 0,-2 0,-2 -1,-2 -2,1 0,2 0,2 1,2 -1,2 -1,1 0,2 -3,0 0,-2 0,-2 2,-1 -1,-2 -3,1 0,-2 1,-2 2,1 0,-2 1,-2 -1,-2 0,-2 2,-1 2,0 -1,2 0,2 3,0 0,-2 1,-2 0,-2 1,-1 -2,-1 -2,2 -1,-2 -2,1 -1,1 -2,1 -1,2 0,2 1,2 -2,1 -1,-2 -2,2 -1,-2 -2,1 -1,1 -1,2 0,2 0,2 -1,3 0,2 -2,1 -2,1 1,2 1,2 2,-1 -1,-2 2,0 1,-1 4,1 0,-2 0,-2 -2,0 0,-2 0,-2 0,-2 0,-2 2,0 2,0 -1,2 0,2 0,2 2,0 0,2 0,2 0,2 -1,2 1,2 2,-2 1,-1 2,-1 2,1 0,2 -2,0 -2,1 0,2 -2,0 -3,1 -2,-1 0,-2 -1,-2 -2,1 0,1 -2,1 3,1 1,2 2,1 -1,2 2,0 1,2 1,2 1,2 1,2 2,0 0,-2 -1,-1 -1,-2 -1,-2 -1,-2 2,-1 2,0 2,-1 0,-2 2,-1 1,2 -1,2 -1,2 -2,0 0,2 3,0 -1,2 0,2 1,3 -2,1 -1,1 2,2 0,3 2,-1 1,-2 2,0 1,-2 1,2 0,3 -2,0 -2,1 1,2 0,3 2,-1 1,-2 2,1 0,-2 1,-2 -1,-2 1,-2 -1,-2 2,-2 -2,-1 0,-2 1,-1 0,-2 -1,-2 1,-2 3,1 1,4 1,4 2,4 -3,2 0,4 -1,4 -3,1 -2,1 -2,1 4,1 -2,1 1,2 3,-1 4,-1 2,-4 2,-2 0,-4 2,-3 4,0 3,-1 4,1 0,-4 4,-1 2,-2 3,-1 1,-4 1,-4 -1,-4 2,-2 3,-1 -2,-4 1,-4 -4,-2 -1,3 0,4 -3,2 0,4 -3,2 3,2 0,4 -4,1 -1,-4 -4,2 -1,3 4,2 -4,2 -3,1 -4,1 -3,-2 0,-4 4,1 1,-3 1,-3 1,-3 4,1 2,-3 2,-3 1,-4 3,-2 -1,-4 1,-3 2,-2 3,-2 2,4 2,-4 1,-2 1,-2 0,-2 1,-2 2,1 0,1 0,2 -1,2 -1,2 -1,2 0,2 1,2 1,2 2,-2 -1,-2 0,-2 1,-2 1,-2 2,-3 3,-2 -1,-4 -4,0 -2,1 -2,0 1,-3 0,-2 2,-2 3,-2 1,4 4,-1 -1,-4 1,-3 2,-2 2,-3 0,-4 -4,1 -1,-4 -3,-1 -2,2 0,4 4,2 -3,2 -1,3 -4,0 0,2 -1,2 -1,1 0,2 -1,2 0,2 -1,2 0,2 -1,2 0,2 -3,0 1,-4 0,-2 1,-2 0,-2 1,-2 0,-2 0,-2 -1,-2 3,1 0,-2 1,-2 0,-2 2,0 0,-2 -2,-1 0,-2 2,0 -1,-2 1,-1 -2,-2 -1,-2 1,-2 1,-2 0,-2 0,-2 2,0 1,2 0,2 -1,2 -1,2 1,2 2,-2 1,-2 1,-2 2,0 1,3 2,-2 -1,-2 1,-2 0,-2 1,-2 0,-2 1,-2 2,-1 -2,-1 -3,0 0,2 -2,0 1,2 0,2 -1,2 0,2 -2,1 -1,-2 0,-2 2,-1 -1,-3 -1,1 -2,1 -1,2 -2,-1 0,-2 1,-1 -2,-2 -1,-2 -1,-2 0,-2 0,-2 0,-2 0,-2 0,-2 0,-2 1,-2 2,-1 0,-2 -1,-2 1,-2 1,1 1,-2 1,-2 2,0 0,2 -1,2 -1,2 0,2 0,2 -1,1 -2,1 0,2 0,2 0,2 0,2 0,2 0,2 3,-1 2,1 -2,1 -2,1 1,2 2,0 2,-1 1,-1 2,-1 -1,-2 1,-1 -1,-2 -2,-1 -1,2 -2,0 0,-2 0,-2 2,-1 -2,-1 0,-2 2,-1 1,-2 1,2 0,2 0,2 1,2 2,-2 0,-2 0,-2 -1,-2 0,-2"/>
    <path style="fill:none;stroke:#000000;stroke-width:1"
          d="m 426,50 -3,0 0,-2 2,0 -1,-2 1,-2 -1,-2 2,-1 1,2 1,-3 2,-1 1,2 -1,2 -1,2 -2,1 1,2 1,2 2,-1 -1,-2 1,-2 1,-2 2,0 0,2 -1,2 1,2 -1,2 1,2 1,2 -2,1 -1,-2 -1,-2 -2,0 0,2 1,2 0,2 0,2 -2,0 0,2 3,0 -1,2 -1,1 0,2 2,0 2,-1 1,2 1,2 0,2 -1,1 -2,0 0,2 -1,2 0,2 -1,2 1,2 1,2 -2,3 4,2 4,3 -2,3 -1,4 -1,4 -2,2 1,4 0,3 -4,0 1,4 0,4 -3,2 -2,3 -3,1 0,2 1,2 -2,2 2,1 0,2 -2,0 -2,-1 -1,2 2,1 -1,2 1,2 0,2 1,2 2,-2 1,2 -1,2 -2,1 -4,-2 -2,2 -1,4 -1,4 4,-1 2,-3 4,-2 2,-1 1,-2 2,-1 -2,-2 0,-2 -1,-2 -2,1 -1,-2 2,-1 1,-1 1,-3 2,-3 1,-3 2,-2 2,-1 2,-3 -1,-4 2,-2 2,-4 -1,-4 2,-2 0,-4 1,-3 1,-3 3,-2 2,-1 0,3 2,-1 0,-2 2,0 0,-2 3,1 -1,-2 1,-1 -1,-3 1,-2 -1,-2 1,-2 0,-2 -1,-2 -1,-2 0,-2 0,-2 2,-1 0,2 1,2 0,2 1,2 1,2 -1,2 0,2 0,2 0,2 0,2 1,2 0,2 -1,2 -2,-1 -2,1 -1,2 0,2 -2,0 -2,1 -2,3 -1,3 0,4 -1,3 -2,3 0,4 4,2 3,0 2,-3 -4,-2 3,-2 -1,-4 1,-3 1,-3 1,-3 2,-1 1,-2 0,-2 2,0 1,2 -1,2 -1,2 -2,1 2,1 -1,2 2,0 0,3 -2,1 -1,3 1,4 1,4 -2,2 -2,3 0,4 -3,1 -4,-2 3,-3 -3,-1 -4,-2 -1,3 -1,3 -3,1 -2,3 -2,3 0,3 1,4 4,0 0,-4 1,-3 2,-2 3,-2 4,2 -2,3 -2,2 -2,2 1,4 -3,2 -4,1 -2,1 -3,-1 0,2 1,2 0,2 -1,2 0,2 0,2 1,2 0,2 -1,2 0,2 1,2 -1,2 -1,1 -1,-3 -1,-2 0,-2 1,-2 -2,-1 2,-1 -1,-2 0,-2 0,-2 1,-2 0,-2 -1,-2 -2,1 0,2 0,2 -2,2 -2,2 1,5 0,4 -5,1 -2,3 -2,4 -2,2 -4,2 -4,1 -1,4 -3,2 -3,3 -2,2 -4,-1 -1,-5 4,-2 2,-3 3,-2 2,-4 3,-2 3,1 2,-3 3,-1 1,-4 4,-1 2,-2 -1,-4 -4,1 -2,1 -3,2 -2,3 -4,1 -4,1 -4,0 1,5 -3,2 -2,3 -2,3 -3,2 -2,3 0,2 2,2 -1,1 0,2 3,0 0,2 -2,0 1,2 0,2 -1,2 0,2 -3,3 1,-3 0,-2 0,-2 1,-2 -2,0 0,-2 -1,-2 0,-2 0,-2 -2,0 1,-2 0,-2 1,-1 -1,-2 -2,1 -1,2 -1,-2 0,-2 -3,0 1,3 -1,1 -2,1 0,2 -1,2 1,2 -1,1 2,1 0,2 -2,-1 -2,1 -1,-2 0,-2 0,-2 -1,-2 2,0 0,-2 1,-2 2,-1 0,-2 -1,-2 -2,1 -1,-2 -2,0 1,3 2,1 -2,1 0,2 -2,1 0,2 0,2 0,2 -2,1 2,1 -1,2 2,0 2,2 0,2 -2,-1 -2,0 1,2 0,2 0,2 0,2 -1,2 3,-1 -1,2 0,2 -1,1 -1,2 1,2 0,2 0,2 0,4 1,-1 2,-1 0,-2 0,-2 0,-2 2,-1 -3,-1 2,-1 0,-2 0,-2 1,-2 -1,-2 -2,-1 1,-2 2,1 0,-2 1,-2 0,-2 2,0 1,2 -1,2 0,2 -1,2 1,2 -1,2 0,2 0,2 1,2 -1,2 -1,1 0,2"/>
    <path style="fill:none;stroke:#000000;stroke-width:1"
          d="m 368,223 0,2 -1,2 -2,1 1,2 -1,2 -2,-2 -1,1 1,2 0,2 0,2 -1,2 1,2 -1,2 0,2 3,-2 0,2 0,2 -2,1 -1,2 0,2 1,2 -1,2 -6,-1 0,5 -1,5 -5,-5 -2,4 -1,5 -3,3 -2,5 5,0 3,-3 2,-5 4,3 0,6 -3,3 -5,1 -5,0 -3,4 -3,2 0,2 -2,1 -2,0 -1,-2 2,-1 -2,-1 2,-4 4,-3 -1,-5 2,-4 -1,-5 4,0 1,-4 2,-4 3,-3 3,-1 4,-5 1,-5 -5,-2 4,-4 0,-5 2,-3 -7,0 -1,3 0,4 -4,2 -5,-1 0,-5 4,0 -1,-5 2,-3 4,0 3,-1 4,-2 0,-6 -5,2 -3,1 -4,0 -4,1 -2,4 -2,3 -2,3 -4,3 5,2 0,5 -2,1 -1,4 -2,3 -3,4 -3,3 -2,3 1,5 -3,3 -2,4 -5,2 0,5 5,-1 5,1 0,-4 2,-4 3,-3 0,-5 3,-4 2,-4 4,-2 1,-4 3,-2 3,-1 5,1 0,4 -5,1 -3,4 -3,3 -2,3 -3,3 0,5 -1,4 -4,2 5,4 -4,2 -5,2 -4,0 -3,1 -5,-1 -4,0 -3,2 -2,2 0,5 0,2 1,2 0,2 1,1 2,-1 0,-2 -1,-2 1,-1 3,-1 1,-1 -1,3 -1,2 1,2 1,-2 2,1 0,-2 0,-2 2,-1 -1,-2 3,0 2,0 -1,2 -1,2 -2,1 1,2 2,-1 2,0 2,0 -2,-2 1,-2 1,-2 2,-1 0,3 -1,2 1,1 2,0 2,0 0,-2 -2,-1 1,-1 0,-2 2,0 1,2 1,2 -1,2 2,0 2,-1 1,2 -1,2 2,0 3,1 -2,-4 0,-2 3,0 5,-2 2,-2 4,0 5,0 4,-1 2,-1 2,-1 2,1 0,-2 0,-2 -3,0 -1,-1 2,-1 0,-2 -2,-1 1,-2 2,1 0,-2 0,-2 -3,0 0,-2 0,-3 2,1 1,2 2,0 1,-2 -2,-1 2,-1 0,-2 1,-2 0,-2 2,0 -1,-2 2,-1 2,-1 1,-2 0,-2 -2,1 -2,1 -1,1 -2,1 -1,2 -1,2 0,2 -1,2 -2,1 0,-2 0,-2 0,-2 1,-1 1,-2 1,-2 2,-1 0,-2 -3,1 0,-2 2,-1 1,-2 0,-2 0,-2 2,-1 1,-2 1,-2 0,-2 1,-2 1,-2 2,-1 0,3 -1,2 0,2 -1,2 1,2 -2,0 -1,2 -1,1 1,2 -2,1 1,3 1,-1 2,-1 2,1 -1,-3 0,-2 3,1 2,-3 0,-4 1,-4 4,-2 3,-1 2,-4 4,0 0,-5 3,1 1,-4 4,0 4,-2 5,-1 3,-2 -2,-5 2,-2 0,-4 0,-5 4,-3 -2,-5 -4,2 -3,2 0,5 -2,4 0,5 -1,4 -5,1 -4,0 -5,2 -4,0 -3,3 -2,3 6,0 -3,5 -4,0 -2,3 -4,-1 0,-2 -3,1 0,2 -2,0 0,2 -1,2 -1,2 0,2 -1,2 -2,1 -1,-2 1,-1 0,-2 1,-2 1,-2 0,-2 1,-2 2,-1 0,-2 2,0 1,-1 2,0 2,-2 -2,-1 -2,1 -3,0 1,-2 2,-1 -2,-2 0,-2 1,-1 -1,-2 1,-2 -1,-2 1,-2 0,-2 1,-2 -1,-2 0,-2 0,-2 -1,-2 -1,-2 0,-2 2,-1 2,0 -1,2 0,2 2,0 -1,2 2,1 0,2 -2,0 1,3 2,-1 0,2 0,1 -2,1 0,2 -1,2 1,2 -1,2 1,2 -1,2 1,2 3,-1 1,-4 3,1 3,-3 5,0 -2,-2 2,-1 -1,-1 0,-3 -2,1 -1,2 -2,0 1,-2 0,-2 2,-1 -1,-1 0,-2 4,0 6,-1 -2,4 0,6 5,1 1,-3 1,-4 2,-4 -4,-3 4,-3 2,-4 4,0 3,-2 2,-3 1,-4 2,-3 1,-3"/>
    <path style="fill:none;stroke:#000000;stroke-width:1"
          d="m 419,173 4,2 0,4 -2,2 -2,3 0,4 3,4 1,-4 1,-3 3,-2 0,-2 0,-2 0,-2 2,1 1,-2 1,-2 1,-2 2,-1 -3,-1 0,-2 3,0 -2,-2 0,-2 -1,-2 0,-2 0,-2 1,-3 5,-2 4,0 2,-2 2,-2 0,-4 2,-3 2,-2 1,-3 4,-1 0,-4 1,-3 3,-2 2,4 -2,3 4,2 1,4 -4,-1 -4,1 -2,3 -2,3 -2,2 1,4 -3,2 -3,3 -4,1 -3,-1 -2,3 1,5 3,-2 4,-1 0,3 -1,3 -3,1 0,4 -2,2 -3,-1 -1,2 -1,2 -1,2 0,2 -1,1 0,2 -2,1 0,2 3,-1 0,2 -2,1 -1,2 -1,1 -2,3 -2,3 1,5 -5,-2 1,5 0,5 -1,3 -1,5 -1,4 -5,-2 -3,2 -3,2 -3,1 -2,3 -1,3 -5,0 -2,3 -3,3 -5,-1 0,5 4,1 5,0 3,-3 3,-3 5,1 2,-4 2,-1 2,-3 3,-2 4,2 3,1 -3,4 -3,2 -2,3 -4,1 -5,1 -3,3 -1,3 -5,0 -4,1 -5,-2 -3,1 -2,3 0,5 4,1 2,-3 4,0 5,-1 5,0 -2,5 -3,2 -4,0 -2,3 -3,1 -5,-2 1,5 -3,1 -2,3 -4,0 -1,-2 1,-2 0,-2 0,-2 3,0 1,-5 -4,-1 0,1 0,2 -2,1 -1,2 0,2 0,2 -1,2 1,2 -3,0 0,2 0,2 -1,2 0,2 3,0 0,-2 1,-2 0,-2 3,0 0,2 -1,2 0,2 -1,2 -3,0 0,2 0,2 0,2 0,2 0,2 1,2 2,-1 0,-2 0,-2 0,-2 0,-2 1,-1 4,-1 2,-3 2,-3 3,-2 4,-1 1,-4 5,-1 3,-2 4,-1 3,-3 1,-4 4,0 4,2 -3,4 -3,4 -3,3 -3,1 -2,3 -5,-2 -1,4 -5,1 2,5 -5,-1 -2,3 -3,4 -3,-1 -1,5 -3,2 -3,0 0,2 -2,1 -1,-3 0,-2 -1,-2 0,-2 0,-2 -2,0 -1,2 0,2 1,2 -3,0 0,2 3,0 1,2 -1,1 -2,0 -1,2 2,1 -2,2 2,2 1,-2 2,-1 0,-2 2,0 2,-1 1,2 3,-1 4,-1 3,-3 3,-2 2,-4 4,-2 5,-1 0,-5 4,-2 5,-1 3,-2 3,-3 2,-4 3,-2 2,-1 1,-4 0,-5 4,-2 3,-2 4,-3 1,-2 1,-2 2,-1 2,-1 0,3 -2,1 -1,2 0,2 0,2 -2,0 -1,1 1,2 -1,2 -5,1 -1,4 0,5 5,0 1,-2 2,1 0,2 1,2 -1,2 -2,-2 -1,2 0,2 3,0 -1,2 -1,1 -1,2 2,1 -2,1 -1,2 2,1 -1,2 -1,1 0,2 0,2 0,2 -1,2 0,2 -1,2 3,2 -4,1 0,2 -1,2 -5,-2 -3,2 -3,2 -4,0 -3,2 -4,2 0,5 5,0 3,-2 4,-1 4,-1 3,-2 2,-1 4,0 3,-3 3,-2 1,-4 1,-5 -4,0 2,-5 2,-1 -1,-5 3,-1 4,0 5,2 -2,4 -4,0 0,5 5,2 3,-2 2,-5 3,-3 1,-5 -5,0 -3,-1 -5,-2 -5,0 1,-4 3,-2 4,1 5,2 4,0 2,-4 3,-4 3,-2 3,-3 1,-4 5,4 3,-2 1,-5 -5,0 -5,-2 4,-3 5,-1 3,-3 5,4 2,-1 0,2 1,2 -3,0 -1,1 2,1 -1,2 -1,1 0,3 2,-1 2,1 0,-2 0,-2 1,-2 2,0 1,-2 -2,-1 0,-2 0,-2 -1,-2 -2,1 -2,-1 1,-2 0,-2 1,-2 -1,-2 0,-2 1,-2 2,-1 1,-2 1,-2 1,-2 -1,-2 0,-2 0,-2 2,-1 1,-1 0,3 0,2 0,2 2,1 -2,2 -1,2 -1,2 -1,2 -2,1 0,2 1,2"/>
    <path style="fill:none;stroke:#000000;stroke-width:1"
          d="m 485,245 -1,2 0,2 2,-1 2,-1 2,1 -2,2 -1,1 1,2 -1,2 4,0 3,-2 2,-1 -1,-5 3,1 2,-2 1,6 0,4 -4,1 -2,3 -4,0 -2,2 -3,0 0,2 0,2 -1,2 1,2 -1,2 -1,1 -1,2 -1,2 1,2 1,-1 1,-2 4,1 -1,3 -1,3 -4,-2 0,2 -2,0 -1,-2 0,-2 -1,-2 1,-2 1,-2 0,-2 2,-1 -1,-2 -2,0 -1,1 -1,2 0,2 -1,2 0,3 0,2 1,2 0,2 -2,-1 0,3 -1,1 2,1 -1,2 -1,1 0,2 -1,2 2,1 1,-2 1,-2 1,-2 1,-2 -1,-2 2,-1 2,1 -1,2 0,2 -1,2 -1,2 2,2 3,-2 3,-3 -1,-4 4,-1 2,-3 2,-2 3,-2 0,-4 3,-2 -1,-5 -4,2 -3,2 0,4 -4,-3 0,-5 3,-2 3,-1 4,-1 2,-3 4,0 2,-2 -1,-4 3,-3 -4,-1 0,-4 4,0 3,1 2,-3 -1,-4 2,-2 -1,-5 0,-4 2,-3 -1,-5 -3,1 -2,3 -1,4 1,5 -2,3 0,4 -4,0 -4,-1 -4,0 -4,1 -2,2 -3,0 0,-2 2,-1 0,-3 3,-1 3,-1 5,1 3,-1 2,-3 0,-4 1,-4 -4,-2 -2,3 0,4 -2,2 -3,-1 -2,-5 2,-2 2,-3 -2,-4 4,0 1,-4 4,2 -1,4 4,1 2,-3 4,0 2,-1 -1,-5 1,-3 1,-5 -4,1 -3,4 0,4 -4,-1 -4,-2 3,-3 2,-3 2,-1 3,-3 3,-2 1,-3 4,0 2,0 0,-2 -2,-1 1,-2 1,-1 1,-2 0,-2 3,0 3,-2 2,-3 4,-1 2,4 -3,1 -1,3 -3,1 -2,3 -3,-2 -1,2 1,2 0,2 1,2 0,2 1,3 0,2 0,2 0,2 0,2 -2,1 -1,-2 0,-2 0,-2 0,-2 0,-2 -1,-2 0,-2 -2,1 0,3 0,2 0,2 0,2 0,2 1,2 -1,2 0,2 3,-2 0,2 1,2 0,2 -2,-1 -2,0 0,2 2,1 -1,2 -1,1 1,2 0,2 -1,2 1,2 -1,2 -1,2 1,3 -1,1 0,3 2,0 1,2 0,2 -2,-1 -1,2 2,1 1,2 -1,2 1,2 0,2 0,2 0,2 -2,-1 0,2 -2,1 -1,1 0,-4 1,-2 1,-2 -1,-2 1,-3 -1,1 -4,2 -2,3 0,4 -1,4 -4,2 -2,1 0,4 0,4 -2,3 0,4 -3,2 -2,3 -2,2 -3,2 1,4 -4,2 -3,3 -1,3 -2,3 -3,3 4,3 4,-2 3,-3 1,-4 2,-3 4,-1 0,-4 2,-1 2,-3 1,-4 4,0 0,-4 1,-3 1,-4 0,-4 2,-3 4,-2 1,-1 0,3 0,2 -1,2 -1,2 0,3 -1,2 1,2 0,2 -2,1 2,1 1,2 -3,0 -1,2 3,0 -1,2 0,2 1,3 1,-1 1,-2 0,-2 1,-2 1,-2 -1,-2 0,-2 2,0 2,3 2,-2 0,-4 4,0 -1,-4 4,0 5,2 -4,3 -3,4 5,2 -2,3 -5,-1 -4,2 -2,2 0,5 -3,2 -3,-2 -2,0 1,2 0,2 -1,2 -2,1 -3,0 1,-2 2,-1 0,-2 -1,-2 1,-2 1,-1 0,-3 -5,-1 -1,5 -2,3 -1,4 -4,0 -1,4 5,0 -1,4 -4,1 -4,0 -4,3 -4,2 -5,-4 -1,4 -2,4 6,1 -1,4 -4,1 -3,3 -3,2 -3,-3 1,-2 0,-2 3,0 -1,-3 -1,-2 2,-1 -2,-1 2,-1 1,-2 1,-2 0,-2 1,-2 -1,-1 0,-2 0,-2 2,1 1,-2 -2,-1 0,-2 2,0 1,-1 0,-2 -1,-2 -2,2 -2,0 -1,1 0,2 0,2 -2,0 1,2 -1,2 1,1 -2,2 3,0 -1,2 -1,1 1,2"/>
    <path style="fill:none;stroke:#000000;stroke-width:1"
          d="m 473,315 -2,0 0,2 -2,2 1,3 1,2 -3,0 0,2 0,2 -1,2 2,2 0,2 -2,-1 -2,2 3,1 -1,1 0,2 -2,0 -1,2 2,1 -2,1 0,2 -2,1 1,2 -2,1 3,3 2,-4 3,-3 1,-4 3,-3 5,-1 4,0 1,-4 4,-1 2,-4 0,-5 4,-2 3,-3 5,1 -1,4 -3,3 -3,2 1,5 -3,2 1,5 -5,-2 -1,4 -4,1 1,5 -4,0 -2,-6 -3,3 0,5 -4,1 -2,3 -3,3 -3,2 0,5 -3,-1 -1,4 -3,2 0,5 -1,5 -4,1 -3,3 -3,-2 2,-3 1,-2 3,-2 0,-2 1,-2 0,-2 2,-2 1,-2 1,-2 0,-2 2,-2 1,-2 1,-2 1,-2 -1,-1 -6,-1 -4,0 -2,4 -3,3 -1,5 -2,5 -3,3 -6,-2 0,5 5,3 -4,3 -3,2 -6,2 -3,2 -5,-1 -3,2 -4,2 5,4 4,-2 5,1 5,0 2,-4 6,3 5,0 0,-4 4,0 1,6 4,0 1,-4 3,-3 4,0 1,-4 2,-3 -1,-5 3,-3 4,-3 1,-4 3,-3 3,-3 4,0 1,-4 5,1 4,-2 1,-4 3,-3 5,-2 1,-4 1,-4 1,-3 2,-2 0,-2 1,-2 1,-2 0,-2 2,0 0,-2 -2,-1 1,-2 2,1 1,-2 -2,-1 1,-2 2,1 0,-3 -2,0 1,-2 2,0 1,-1 3,0 3,-2 5,-1 2,-3 0,-4 3,-3 4,1 -2,4 0,5 -3,3 -4,1 -3,2 -2,3 -4,-1 -2,5 4,0 1,4 -4,1 -2,3 -3,2 -1,3 -2,3 -1,3 -1,4 1,4 4,-1 0,-4 2,-4 2,-4 3,-2 2,-3 4,0 -1,6 -3,3 -2,2 -2,3 0,4 -2,3 -4,2 2,5 -3,2 -1,4 -3,3 -1,5 -4,0 0,4 -3,3 -3,2 -1,4 -2,4 -5,0 -4,0 -3,4 5,2 -4,3 -3,3 -2,5 -5,1 -2,5 -5,1 -4,1 -3,3 -2,5 -5,1 -4,3 -3,3 -7,2 -3,3 -4,3 -6,2 0,-5 4,-3 -5,-2 -2,-5 2,-3 2,-5 1,-6 6,2 2,-3 4,0 2,-3 4,-1 8,0 -2,2 -2,3 -4,2 -4,2 -3,2 -5,0 0,5 -2,1 -3,3 5,3 5,-2 1,-4 3,1 3,-3 3,-2 3,-1 3,-2 2,-4 3,-3 3,-1 4,0 2,-3 1,-4 4,1 2,-3 2,-3 0,-5 3,-3 -1,-5 2,-1 5,2 4,0 1,-4 2,-4 4,-2 0,-4 3,-3 4,0 2,-4 0,-4 3,-2 0,-4 -5,-1 -3,3 0,5 -4,1 -3,3 -4,0 2,6 -4,-1 -4,-2 -4,4 3,1 5,2 -3,4 -5,-2 -5,0 -2,4 1,5 -3,3 1,5 -4,2 -4,0 -1,4 -2,3 -4,0 -5,-1 -4,-2 -3,2 -4,1 -8,-1 -5,0 -3,2 -4,2 -1,5 -2,4 -3,1 -1,5 -4,-1 -3,2 -2,4 -4,2 -3,4 -1,5 6,-1 4,-2 5,0 1,-5 6,1 0,4 0,5 -3,2 -4,0 -3,3 -5,0 -4,2 -7,2 -7,-2 3,-5 4,0 -2,-6 1,-5 3,-5 4,-4 3,-3 2,-4 3,-1 2,-2 3,-3 3,-3 4,-5 -4,1 -4,-1 -3,2 -2,3 -5,1 -2,3 -2,3 -1,4 -2,4 -4,1 -1,4 -5,-2 1,5 0,5 -1,6 -3,1 -4,1 -5,-3 -1,5 -3,3 -3,3 -4,-1 -4,2 -5,0 -5,-4 -1,5 -4,2 -5,-1 -6,0 1,-5 4,-1 4,0 1,-3 3,-3 3,-2 5,-1 -1,6 4,0 3,-3 4,1 3,-3 1,-3 1,-4 5,2 4,0 4,-2 0,-5 -1,-5 1,-3 4,0 3,-2 3,-2 3,-4 -4,0 -4,1 -2,2 -3,1 -5,0 -1,4"/>
    <path style="fill:none;stroke:#000000;stroke-width:1"
          d="m 368,413 -3,4 4,1 0,4 -4,0 -2,1 -6,-1 -2,4 -2,4 -5,-2 2,-4 2,-4 4,-3 4,-1 0,-5 3,-1 -1,-5 2,-1 5,0 5,-2 4,-1 5,0 1,-3 4,2 1,-3 2,-1 4,0 3,-4 2,-3 5,0 1,-4 1,-4 4,-1 6,-1 3,-2 5,1 3,-4 -5,-1 2,-4 2,-1 0,-5 3,-1 5,2 4,-3 -5,-2 3,-4 2,-1 3,-4 2,-4 3,-3 6,-1 3,-4 2,-5 0,-6 2,-4 -1,-6 4,-2 0,-6 1,-4 2,-4 -7,-1 2,-4 3,-3 3,1 2,-5 -6,-2 2,-4 3,-1 2,-4 0,-6 -4,1 -3,3 -3,2 -2,3 -1,4 1,5 -2,4 -2,4 -2,3 -3,5 4,0 5,-1 0,5 -4,2 0,5 -1,4 -1,4 0,5 -1,5 -3,3 -4,-1 0,-5 2,-2 1,-4 0,-5 -5,2 -3,3 -1,4 0,4 -2,4 5,2 -2,4 -2,4 -4,0 -4,-1 -3,3 5,3 -3,3 -4,1 -3,3 -1,3 -1,5 -2,4 -4,2 -3,1 -4,1 -4,0 -1,4 0,4 -4,0 -2,1 -1,3 0,4 -4,-1 -4,1 -4,1 -3,3 -5,0 -1,-5 3,-1 5,-2 5,-1 3,-1 -1,-5 3,-1 4,-1 3,-2 0,-5 3,-1 4,0 3,-3 4,0 3,-3 -1,-5 -4,2 -3,1 -3,3 -5,0 0,-5 3,-1 2,-3 4,0 3,-2 4,1 3,-2 3,-3 1,-5 -4,-1 -2,3 -2,2 -4,0 -5,2 -4,-1 -3,3 -4,2 0,5 0,5 -1,4 -1,4 -5,0 -4,0 0,5 -2,3 -4,-1 -1,4 -5,0 -4,-2 3,-4 3,-3 4,-1 1,-4 4,-3 5,1 2,-4 -1,-5 1,-4 1,-5 3,-1 2,-3 4,-2 5,2 3,-2 3,-1 3,-2 2,-3 0,-4 0,-4 4,1 2,-3 1,-4 4,-2 0,5 0,4 -2,3 -3,2 -1,4 5,1 4,-1 4,1 -2,-6 1,-4 -1,-5 3,-2 2,-5 5,-2 3,-2 5,0 0,-5 -5,0 0,-5 -5,-2 -1,4 0,4 -3,3 -4,1 -1,4 -4,-1 -5,1 -4,2 -1,4 -3,-1 -3,3 -2,1 -4,-2 -5,-1 -4,3 -4,0 -3,3 -5,0 0,-5 3,-2 4,-2 4,0 1,-4 1,-4 0,-5 4,0 3,-3 5,-1 4,-2 5,-1 3,-2 1,-4 1,-4 0,-5 -5,-3 4,-2 2,-3 0,-4 -4,-1 -3,3 -2,2 -3,3 -4,2 -3,3 -3,-1 -1,4 1,5 5,-2 3,-2 3,-3 4,0 0,5 -2,3 -3,2 -4,1 -4,2 -3,-1 -3,3 -2,-5 0,-6 -4,2 -3,3 4,5 -4,1 -4,-1 -3,3 -4,1 0,4 1,5 5,-4 3,-3 6,0 -2,4 -1,4 -4,1 -2,2 -5,1 -1,4 1,5 -1,3 1,5 -5,-2 -1,3 1,5 -5,-2 -3,2 -3,0 0,-2 1,-2 1,-2 2,-2 -3,0 1,-2 1,-2 3,0 3,-2 1,-4 0,-5 2,-5 -5,0 0,-2 0,-2 2,-2 -2,-1 0,-2 3,-1 -3,-2 -1,1 -2,1 0,2 1,2 -1,2 0,2 0,2 1,2 1,2 -1,2 -1,2 1,2 -1,2 -1,2 -2,-2 1,-2 -1,-2 1,-2 1,-2 -1,-2 -1,-2 -2,1 -1,-2 1,-2 2,1 0,-2 1,-2 -1,-2 -2,0 0,2 -4,-3 -3,4 -3,2 -2,4 -3,3 -4,-1 -2,-6 3,-1 3,-3 3,-4 2,-3 4,-2 0,-6 -5,1 -5,0 -1,4 -1,4 -3,3 -4,3 -2,4 -2,4 6,2 -3,3 -3,2 -5,0 0,4 -5,0 0,-2 1,-2 0,-2 2,-1 1,-2 1,-2 0,-2 1,-1 1,-2 2,-2 1,-2 -1,-2 2,-1 1,-1 1,-2 1,-2 -2,-1"/>
    <path style="fill:none;stroke:#000000;stroke-width:1"
          d="m 334,299 -1,2 -2,1 -2,2 -1,2 1,2 -1,2 -2,1 -1,2 -1,2 0,2 -1,2 -2,1 -1,2 0,2 -1,2 -1,1 0,2 2,1 -1,2 -2,-1 -1,2 2,1 -2,1 -3,-1 1,2 -2,1 0,2 -1,2 -2,1 -1,2 1,2 -2,1 0,2 0,2 -2,1 -2,0 0,2 -1,2 -1,2 0,2 -2,0 0,2 -1,2 -1,2 0,2 -2,1 0,2 0,2 -2,1 -1,-2 -2,0 0,2 -1,2 3,0 -1,2 -2,0 -1,2 -1,1 -1,-2 -1,-2 2,-1 -2,-1 0,-2 2,0 0,-1 0,-2 2,0 -1,-2 2,-1 -3,-1 0,-2 1,-3 -2,1 -1,2 -1,2 1,2 -1,2 -1,3 -1,2 0,2 1,2 -1,2 2,0 0,2 0,2 0,2 0,2 -3,0 1,2 -2,1 -1,-1 -1,-2 1,-2 2,0 -1,-2 2,0 -1,-2 -1,-2 0,-2 -1,-2 -2,1 -1,-2 2,-1 2,0 0,-2 -1,-2 2,0 1,-1 0,-2 0,-2 0,-2 1,-2 1,-2 2,-1 0,-2 -3,1 -2,0 0,2 -1,2 -1,2 0,2 0,2 -2,0 -1,2 1,2 -1,1 -2,1 0,2 -1,1 0,2 2,1 2,0 1,2 -1,1 0,2 -1,2 -1,2 1,2 1,2 1,1 0,2 -2,1 -2,-2 1,-1 -1,-2 -1,-2 -2,1 0,2 -3,3 -5,-1 -2,4 -3,2 0,5 -4,0 -2,1 -2,4 -6,-1 2,-5 1,-5 5,0 2,-4 3,-3 1,-4 4,1 4,0 3,-1 0,-2 2,-1 1,2 2,-1 0,-2 1,-2 -2,0 -2,1 -1,-2 2,-1 -1,-2 -2,1 -2,0 0,2 1,2 0,1 -5,-1 2,-3 -1,-2 1,-2 2,1 2,-1 1,-1 1,-2 0,-2 2,0 0,-2 1,-2 0,-2 2,0 1,-2 -2,-1 -1,-2 -2,1 1,2 -1,2 -1,2 -1,1 -2,0 -1,2 2,1 -1,2 -2,0 -1,1 0,-3 -2,1 -1,-2 1,-1 2,-1 -1,-2 -2,1 -1,-2 0,-2 2,0 -1,-2 -1,-2 -1,-2 -1,1 -2,0 0,2 2,1 -1,2 -2,-1 0,2 2,1 1,2 -1,1 1,2 1,2 2,2 0,2 -4,1 0,5 -4,0 -3,2 1,5 -3,4 -2,-6 -3,2 0,5 -2,4 -2,4 -2,4 2,6 -5,-1 0,6 -2,4 -6,-2 -4,1 -1,7 -5,-1 -4,2 -1,5 6,2 6,0 5,-6 5,-1 5,0 1,-5 1,-5 5,2 1,-5 5,2 3,-3 3,-2 3,-2 2,-5 2,-4 4,0 4,-2 2,5 -3,3 -3,1 -3,3 -1,5 -3,3 -4,2 -5,2 -2,5 -5,-2 -2,5 5,2 6,1 1,-4 4,-2 4,0 3,-1 2,-4 1,-5 2,-4 3,-1 3,-3 3,-3 -2,-5 3,-2 -1,-5 0,-2 2,0 1,-2 2,-1 1,-2 0,-2 0,-2 0,-2 2,1 1,2 2,-2 -2,-2 2,-1 1,-1 1,-2 1,-2 3,1 -1,-3 1,-2 1,-2 1,-2 0,-2 1,-2 2,4 2,-3 -3,-3 2,-1 0,-2 1,-1 3,0 -3,-2 2,-1 1,-1 1,-2 1,-2 1,-2 1,-2 -1,-2 2,-1 1,-2 1,-2 1,-1 3,0 4,-2 2,-2 5,0 3,-3 2,-1 3,-3 3,-3 6,3 -2,4 -4,2 -4,3 -2,3 -5,0 -4,2 -3,2 -5,1 -3,2 4,5 -3,2 -3,2 1,5 -2,3 -3,3 1,5 -3,3 -2,1 -2,3 -5,4 -1,4 -1,5 -5,0 -4,4 1,5 -1,3 -1,4 0,5 -2,4 -2,2 -2,2 -5,1 0,6 -2,4 -2,4 -5,1 -4,0 -8,4 -5,1 -7,-3 -6,0 -5,1 -1,7 -2,3 8,2 4,-1 3,-2 5,0"/>
    <path style="fill:none;stroke:#000000;stroke-width:1"
          d="m 248,448 7,3 4,-1 1,-7 4,1 4,-1 4,-2 5,-3 3,-3 0,-7 3,-2 4,-3 2,-5 2,-4 1,-4 1,-4 1,-4 -2,-5 4,-1 5,1 -1,4 -1,4 -1,5 -1,5 -1,4 -2,4 -2,4 -3,3 -2,4 -3,2 -1,6 -5,2 -3,4 -3,4 -5,0 -2,7 -1,6 0,3 0,2 1,2 -1,1 2,1 -2,2 1,2 -1,1 0,2 -2,7 5,-2 2,7 0,2 -2,0 0,3 2,-1 1,1 0,2 -2,0 -1,1 1,1 3,1 -2,1 -2,1 0,2 2,-1 2,0 -1,2 -1,1 -2,1 1,2 1,2 -1,1 1,2 0,2 1,2 0,2 2,-1 1,2 -1,1 -2,1 1,2 0,1 1,2 2,0 -1,2 2,1 -2,1 2,1 1,2 -1,1 1,1 2,2 -1,1 1,2 1,2 2,1 1,2 -1,1 2,1 3,-1 -1,3 -1,1 2,1 2,-2 0,4 -1,1 2,2 1,-1 1,-3 1,-2 3,0 1,3 -1,2 -2,1 -1,2 0,2 2,0 0,2 2,1 1,-2 -1,-3 3,1 0,-3 2,-1 1,3 0,3 -1,2 -1,2 -1,1 -2,0 3,2 1,2 2,2 1,-1 -1,-3 1,-2 1,-2 2,1 1,-2 -2,-1 0,-2 0,-1 -1,-2 2,-1 2,-1 -1,3 1,2 2,-2 1,-3 2,-2 2,-2 2,-2 3,-1 0,3 -1,1 -2,2 -1,2 -1,2 -2,1 -1,3 -1,2 -1,2 -1,2 -3,1 4,2 -2,1 -3,1 -1,1 2,2 1,-1 3,0 -1,2 1,2 7,1 1,2 1,2 1,-2 0,-2 1,-1 1,2 1,2 0,1 -2,1 -1,2 2,0 1,2"/>
  </g>
</svg>
