<?xml version="1.0" encoding="UTF-8" standalone="no"?>
<!-- Created with the Eggbot TSP art toolkit (http://egg-bot.com) -->

<svg xmlns="http://www.w3.org/2000/svg"
     xmlns:inkscape="http://www.inkscape.org/namespaces/inkscape"
     xmlns:sodipodi="http://sodipodi.sourceforge.net/DTD/sodipodi-0.dtd"
     xmlns:rdf="http://www.w3.org/1999/02/22-rdf-syntax-ns#"
     xmlns:dc="http://purl.org/dc/elements/1.1/"
     xmlns:cc="http://creativecommons.org/ns#"
     height="800"
     width="3200">
  <sodipodi:namedview
            showgrid="false"
            showborder="true"
            inkscape:showpageshadow="false"/>
  <metadata>
    <rdf:RDF>
      <cc:Work rdf:about="">
        <dc:format>image/svg+xml</dc:format>
        <dc:type rdf:resource="http://purl.org/dc/dcmitype/StillImage" />
        <dc:subject>
          <rdf:Bag>
            <rdf:li>Egg-Bot</rdf:li>
            <rdf:li>Eggbot</rdf:li>
            <rdf:li>TSP</rdf:li>
            <rdf:li>TSP art</rdf:li>
          </rdf:Bag>
        </dc:subject>
        <dc:description>TSP art created with the Eggbot TSP art toolkit (http://egg-bot.com)</dc:description>
      </cc:Work>
    </rdf:RDF>
  </metadata>
  <g      transform="translate(1321, 700) scale(1, -1)">
    <path style="fill:none;stroke:#000000;stroke-width:1"
          d="m 319,581 3,-3 0,-6 4,-5 -7,-2 -1,-8 4,-7 3,8 4,-4 1,-5 2,-3 -9,-6 -5,1 -8,-3 0,-6 -10,3 2,-6 -6,-8 -3,4 -8,2 1,-6 -6,0 -1,-8 8,0 2,-6 -9,1 1,-6 -5,-3 2,-6 3,-3 -7,-6 5,-2 0,-7 -6,0 0,-7 5,-1 -11,-36 4,-8 7,-2 6,0 8,1 6,0 6,0 6,0 7,1 13,3 5,-2 7,-1 7,0 6,0 8,-1 6,-2 6,-2 7,-1 6,-2 6,-2 8,-1 6,-2 6,-2 7,-1 7,-1 4,-4 5,-3 6,-5 7,-4 6,-4 6,-4 7,-6 5,-6 5,-6 5,-6 6,-6 5,-6 5,-5 4,-6 1,-8 3,-3 3,-6 2,-6 3,-6 2,-7 3,-7 3,-7 -8,-3 -3,6 -2,7 -4,5 -3,7 -4,5 -7,1 0,11 -6,6 -5,6 -4,7 -6,3 -4,7 -5,4 -3,6 -3,6 -6,3 -4,4 -11,-6 -1,8 -6,0 -4,2 -6,1 -5,6 -6,3 -6,1 -6,3 -6,5 -7,1 -4,2 -7,3 -8,-1 -6,-1 -5,4 -9,-3 -5,3 7,-14 2,-8 9,1 9,3 3,-7 8,2 10,4 4,-6 4,-4 5,-3 6,-2 2,-7 4,-5 5,-3 7,-2 11,0 7,-3 7,-4 3,-8 9,2 3,-3 3,-6 3,-4 4,-6 -4,-8 7,2 5,-4 -9,-5 3,-5 6,1 2,-8 7,0 4,-1 4,-6 2,-7 4,-6 7,-6 8,4 6,1 2,-8 2,-8 2,-8 -9,5 -3,7 -7,-2 1,-10 3,-7 6,3 3,-7 7,2 2,-9 1,-10 0,-10 -9,2 -7,3 7,5 -2,7 -7,4 -1,-10 -8,-3 0,9 -2,8 -8,-3 0,-10 1,-8 -1,-10 8,3 6,-3 7,1 6,-1 2,-6 8,2 -1,-10 -1,-10 -6,5 -5,2 -4,6 -8,-1 -6,-3 -3,6 -8,-3 -4,4 -6,-5 -1,8 6,4 0,7 0,7 -4,2 -3,-12 -6,5 -3,6 -3,7 -6,0 -2,10 9,4 5,-2 5,-6 4,-4 7,2 -3,7 -3,4 -1,7 8,1 5,-6 8,3 -2,9 -1,9 -6,-2 -3,6 -3,7 -3,4 -7,1 -2,5 -3,7 -6,-13 -5,6 -3,6 -3,9 -1,10 -5,6 -6,5 -6,7 -4,7 -6,2 -7,5 -8,-1 -6,2 -4,2 -5,6 -4,6 -7,0 -6,2 -5,6 -4,3 -11,-5 -9,5 -4,4 6,-10 2,-11 6,-2 6,-2 6,-6 9,-2 6,-4 5,-8 12,1 6,2 6,0 3,-8 6,-4 5,-5 5,-7 5,-6 3,-7 4,-9 -2,-13 6,-2 5,-5 6,1 10,7 4,-1 1,-7 3,-1 2,-7 -7,-3 -9,0 -10,-5 -9,-4 -4,7 -6,4 -3,5 -7,-1 -2,-10 3,-4 5,-2 4,-4 1,-9 6,0 3,-8 4,-6 7,-3 3,-7 6,-5 3,-7 -9,-5 -4,6 -5,6 -5,4 -6,4 -2,9 -7,-1 -3,6 -1,6 -3,4 -8,-3 -9,-4 -10,-5 1,-12 9,3 9,3 5,-3 6,-5 4,-2 -12,-4 4,-6 7,1 6,1 4,-5 5,-3 5,-5 2,-8 10,5 7,2 4,-5 6,1 0,6 7,-3 4,-3 6,-2 9,5 4,-3 3,-2 5,-4 7,-3 3,-5 -5,-13 -5,6 -4,5 -5,1 -6,-2 -4,5 -7,-2 -6,0 -4,2 -2,4 -7,-3 -9,1 -6,0 -9,-4 -5,6 -3,6 -6,2 -5,6 -6,0 4,-9 -6,-1 -6,6 -2,6 -5,-1 -1,11 -8,-2 -10,0 -7,-2 -5,2 -4,-1 -7,1 -6,4 -5,1 -8,-3 -4,3 -6,-2 -6,2 6,-17 7,1 -1,-9 6,4 2,-4 9,7 -4,2 -3,4 8,4 5,-3 2,-5 5,2 3,-8 7,4 6,-1 7,-1 4,-9 5,-2 6,0 1,-9 7,4 6,2"/>
    <path style="fill:none;stroke:#000000;stroke-width:1"
          d="m 431,169 6,0 3,-6 6,-2 9,-2 6,0 1,-10 -10,-3 -7,4 -8,0 -6,1 -2,7 -7,-3 1,-8 1,-7 5,-3 6,2 7,1 2,-7 9,5 7,0 9,2 7,3 7,4 -4,5 -5,0 -3,1 -2,9 8,1 4,-3 5,-4 5,-3 6,3 4,-5 6,0 7,3 5,-5 6,-5 -4,-12 -7,5 -5,4 -7,-4 -6,0 -5,3 -9,-1 1,-6 -8,2 0,-7 3,-4 6,1 6,-1 5,-1 9,4 9,1 3,-9 -7,-4 -5,2 -8,-3 -2,-11 5,-1 8,2 -8,-11 -8,-5 -5,1 5,-8 -7,-3 -4,1 -4,3 -6,-2 -4,6 -3,1 2,8 -4,5 -4,4 -4,4 -1,8 9,4 0,-7 4,-4 4,-4 4,-1 -1,-8 5,-3 8,5 1,10 -3,2 -6,3 -4,2 -4,3 -1,6 0,8 -7,-3 -9,-3 -7,-2 -7,-3 -5,5 -10,-3 -4,5 -2,7 -4,6 -1,8 -2,10 -9,1 -5,-1 0,9 -7,2 -4,1 -8,-3 -8,-6 6,-4 9,-1 4,-1 -3,-13 7,2 9,5 3,-4 0,-11 3,-7 2,-6 4,-3 3,-5 9,2 3,-4 5,-4 8,3 3,-6 4,-7 4,-2 6,-4 -5,-3 -7,-2 -5,4 -5,4 -5,2 -7,0 -5,3 -3,6 -7,-3 -3,5 -6,-1 -2,7 -1,8 -2,8 -2,5 -9,-4 -8,-3 1,9 -2,6 0,8 -7,2 -8,-3 1,-7 5,0 1,-7 1,-6 1,-7 7,-5 8,3 3,-6 1,-7 3,-7 9,-5 4,-4 7,3 4,-6 5,-4 5,-1 6,-1 5,-2 5,-2 6,1 2,-4 7,6 1,-7 6,2 3,-6 5,1 4,-3 4,-2 -9,-8 -4,3 -7,2 -3,3 -7,2 0,-7 -7,3 -2,5 -7,1 -5,1 -6,2 -6,-1 -4,5 -4,7 -8,-3 3,-7 2,-6 4,-4 1,-7 8,6 4,-3 3,-3 7,6 2,-4 7,-2 4,-4 7,2 7,1 2,-6 -8,-2 -8,-2 -1,-7 -6,0 0,8 -4,4 -7,0 1,-7 3,-4 0,-7 -6,-2 -3,4 -1,7 -2,6 -4,3 -7,-3 -6,5 -3,3 -1,8 -3,7 -3,4 2,9 -3,6 -6,-2 -5,4 -1,8 -3,7 -5,-1 -2,8 -8,3 -2,6 -7,1 7,7 -5,2 -1,7 -7,-6 -1,-6 -5,3 -5,0 -3,2 -5,3 -3,3 -5,2 -6,1 3,-8 4,-2 6,-2 1,-6 7,0 5,0 0,-6 4,-3 8,1 2,-3 1,-6 7,2 2,-6 0,-8 6,0 3,-7 1,-10 4,-3 7,1 0,-7 1,-7 5,-1 1,-8 0,-8 4,-3 6,2 4,-5 6,2 3,-4 1,-6 1,-6 -8,0 -2,6 -9,2 3,-4 1,-8 -6,-2 -3,4 -2,7 -4,3 -3,7 -8,-3 2,-7 2,-6 5,-2 1,-6 -13,2 -3,5 -1,7 -2,6 -1,7 -9,-4 2,-6 2,-8 2,-7 -8,-3 -1,8 -4,6 -1,8 -6,-1 -6,-2 -4,4 -7,-3 -5,-1 -5,1 -5,6 -4,4 -7,-3 -5,2 -5,1 -6,2 -6,-1 -3,5 1,8 8,-1 5,0 5,-2 5,-1 5,-3 9,4 3,-4 4,-4 3,-3 6,-1 6,2 7,-2 0,9 7,1 1,-7 6,1 7,2 7,3 4,-6 7,3 3,-1 -5,9 -3,6 -5,0 -6,5 -1,-9 -6,-2 -2,7 -7,-2 -5,0 -6,0 -2,-9 -5,0 -2,6 -5,0 -2,7 -6,0 -7,-5 -3,6 -6,1 -7,1 -7,-2 -6,1 -3,5 -2,7 -6,1 -2,8 7,4 4,-3 5,-6 4,-6 8,2 8,3 5,-2 6,0 4,-3 7,-2 5,-5 5,1 5,0 5,0 5,0 7,2 6,1 2,9 -7,-1 -7,-2 -6,0 -5,2 -7,-2 -5,8 -4,5 -4,2 15,-3 5,-1 7,0"/>
    <path style="fill:none;stroke:#000000;stroke-width:1"
          d="m 346,94 4,-3 6,3 -3,6 -6,3 -5,2 -9,-1 -4,6 -2,5 -7,-4 -3,7 -7,-2 -4,11 -4,-13 -7,-3 7,-8 9,2 1,-9 -10,-2 -9,-2 -1,7 -6,1 -4,6 -5,0 -6,-4 0,6 -4,2 -4,4 -4,4 -4,4 -4,4 -4,4 -8,-10 4,-4 5,-4 5,-4 5,-4 3,-6 -14,-2 4,-5 7,-4 2,-9 5,-5 4,-4 1,-7 -9,0 -4,6 -6,6 -3,6 -6,1 -4,5 -5,4 9,10 -5,4 -6,4 -3,-12 -6,5 -8,1 -3,3 -3,4 -3,3 -4,4 -3,3 -3,3 -5,3 -4,3 -5,-1 8,-9 2,-4 4,-3 4,-2 1,-6 4,-2 3,-5 5,-5 6,-1 5,-5 4,-6 4,-5 2,-7 5,1 4,-4 8,1 3,-7 2,-7 6,3 4,-3 1,-7 3,-5 4,-3 7,2 5,-3 5,-2 2,-5 7,-1 1,8 7,-2 0,-8 5,-1 6,1 4,-4 5,9 3,-6 6,1 5,1 4,-6 2,-7 -10,1 -8,-1 -6,0 -9,1 -4,1 -8,-2 -3,6 -7,-1 0,-9 -7,-4 -1,7 0,7 -3,5 -4,2 -4,1 -7,-3 -3,4 -4,5 -1,8 -5,0 -6,5 -1,9 -6,0 -6,-1 -4,1 -4,8 -5,4 -3,6 -4,5 -6,2 -6,5 -5,3 -4,1 -6,3 -4,3 -2,5 -3,3 2,8 -2,5 -6,3 -10,-5 5,-5 4,-1 0,-8 -9,-3 -3,9 -2,5 -2,4 -3,3 -3,3 -4,3 -3,4 -3,4 -4,4 -6,1 -8,-8 8,1 4,-2 3,-5 3,-5 3,-2 3,-3 3,-3 3,-3 1,-5 2,-8 3,-9 -1,-10 3,-6 8,-2 7,-3 7,-4 -1,6 -5,6 -7,3 -2,6 -1,9 7,1 4,-4 3,-3 5,0 0,-7 4,-2 4,-2 10,4 4,-7 4,-3 2,-6 4,-4 4,-4 2,-5 5,-5 6,0 7,1 5,-7 -6,-2 -7,-1 -7,-2 -6,-1 0,8 -7,-2 0,7 -3,5 -5,3 -4,5 -3,5 -3,4 -6,-2 0,-8 4,-3 5,-4 2,-6 5,-3 1,-6 6,-5 2,-6 3,-4 5,3 7,2 6,0 8,-5 5,1 -5,7 8,3 4,-6 2,-6 7,-4 6,0 5,-1 2,-6 -8,-7 -4,3 -5,1 -4,6 -8,1 -8,-3 -4,1 -1,7 -7,-2 -4,1 4,-9 -12,-1 -3,4 -6,2 -8,-2 -2,7 9,2 -1,8 -6,1 -2,7 -4,2 -3,6 -3,2 -6,-1 0,8 -6,-1 -4,3 -4,5 -8,1 -8,2 -3,5 -3,3 -7,0 -8,4 -6,2 -5,4 -6,-4 -2,6 -5,1 -6,3 -5,-2 -5,2 -4,6 -6,6 6,3 8,-1 3,-3 4,-3 7,0 6,-1 8,-1 6,2 2,-6 4,-3 3,-6 8,3 5,1 -6,7 -3,7 -3,4 -6,4 -7,-3 -5,3 9,8 -5,4 -6,1 -2,-10 -7,-1 -6,1 -9,-1 -5,4 -1,6 -3,5 -8,-2 -4,6 -6,-2 -5,6 -9,0 0,-9 4,-4 3,-6 9,3 9,-2 2,-5 -12,-2 3,-8 0,-10 5,-2 5,-5 3,-8 7,-2 8,6 6,-3 9,-4 4,-3 5,-2 7,1 4,-5 3,-1 4,-3 2,-6 7,4 2,-5 7,3 4,-4 3,-6 6,-2 1,-7 5,0 6,-1 1,-7 5,0 2,-7 -7,-4 -5,0 -3,5 -3,3 -5,0 -4,3 -1,7 -5,6 -5,3 -7,-2 -4,3 -7,1 0,-8 4,-4 8,1 4,-2 5,-1 1,-6 2,-8 -11,2 -3,3 -5,3 -9,0 -4,3 1,10 -4,3 -5,-1 -8,-5 -11,13 7,1 6,0 4,-2 9,3 6,0 -7,7 -5,1 -7,1 -6,1 -2,7 -9,-2 2,-10 -7,-2 -1,9 -8,0 -5,2 -3,7 -4,5 -5,1 -2,11 -3,6 -2,7 -4,1"/>
    <path style="fill:none;stroke:#000000;stroke-width:1"
          d="m 54,99 -5,5 -4,4 -2,7 0,8 -2,6 -3,5 -9,-4 -5,15 -7,5 14,-3 5,-4 16,-5 -2,6 -5,3 -3,9 -4,4 -7,-2 -2,7 -5,2 -9,5 -3,8 13,6 1,-8 8,0 6,-3 9,2 4,-4 1,-8 2,-7 4,-6 3,-5 0,-7 6,-5 5,2 5,-1 2,-7 7,3 6,-4 4,-7 4,-1 5,-1 6,2 -4,5 -5,2 -3,3 -3,4 -3,4 -2,5 -6,-2 3,7 -2,5 -4,3 -5,1 2,-11 -8,-2 -3,5 -3,5 -3,4 -2,5 -2,5 -1,6 -1,6 -3,3 -5,3 -4,5 -11,0 -10,2 -5,2 -9,1 -2,10 2,14 9,3 1,-8 0,-9 8,1 9,-1 8,5 0,-6 0,-7 6,2 1,-6 4,-2 4,-2 7,2 -1,6 -1,6 -6,-2 -1,7 -7,-2 2,9 -5,4 -7,-3 -3,2 -7,3 -1,10 -10,2 -11,-3 -3,13 10,7 3,-7 11,-1 -2,9 -2,10 -8,3 -6,-1 3,16 8,3 7,-1 4,-1 3,-10 2,-10 5,-4 7,-5 7,0 4,-3 1,-10 -8,1 -5,3 -9,0 1,-11 6,-1 6,1 4,-3 3,-2 0,-9 7,-3 5,-1 0,-5 -1,-7 3,-3 7,0 -1,7 -2,5 2,7 5,-3 0,-7 4,-4 6,-2 5,-1 5,0 -2,-10 4,-3 -6,-7 6,1 7,4 5,-2 2,7 -7,1 -3,4 3,10 3,-1 3,-5 3,-1 5,-4 2,7 -1,6 -5,0 -2,5 -6,4 -9,-4 -5,1 -3,5 -4,1 -4,8 -10,-3 -7,-4 0,6 -3,2 1,13 7,0 3,-7 11,5 9,-2 0,-8 6,-3 7,1 11,5 4,-4 3,-6 -8,-3 4,-4 5,-1 2,-5 3,-5 6,0 2,-6 1,-10 8,-7 7,5 2,-4 5,0 8,3 -2,5 -5,0 -4,3 -8,-2 -2,6 -1,8 7,4 3,-6 4,-2 5,-3 5,0 4,-3 14,-1 7,-1 7,-6 0,-9 8,4 -3,4 -2,13 6,0 6,1 3,-5 -7,-3 3,-5 1,-5 7,0 -1,6 8,2 -1,5 -4,2 -2,6 -2,5 -6,1 -10,4 -8,-4 -8,-1 -5,-1 -5,4 -3,-8 -5,3 -4,1 -4,3 11,4 -4,2 -3,4 -5,-1 -4,9 -6,-1 -7,-4 6,-7 -7,-2 -8,1 -2,7 -1,8 12,1 -3,5 -6,6 -6,1 -4,7 -9,-5 -10,-3 -6,-1 -2,9 -5,-1 -4,8 -9,-6 -4,7 -5,2 -11,-7 0,12 0,12 10,-5 10,4 7,0 2,-8 7,-6 6,0 7,-5 9,4 7,3 -9,7 -6,6 -7,-1 -4,2 11,12 -5,2 -8,-2 -8,2 -10,-4 -8,-1 -2,10 -1,6 -5,0 -5,-2 4,-7 -6,-2 -4,9 -1,7 -9,-1 1,-10 1,-8 2,-6 3,-6 0,-7 0,-9 -7,-1 -1,8 -2,5 -4,5 -3,9 -1,12 -7,-1 -9,-1 -6,1 -6,1 8,19 6,-3 6,-2 9,2 8,1 12,5 4,-3 9,-2 -2,-7 7,2 4,-5 3,-4 8,-1 -2,6 -2,5 -5,2 -5,4 -2,6 6,2 3,-5 6,-1 5,0 3,8 -6,-1 -4,2 -2,5 -3,3 -6,-6 -9,-1 -4,5 -6,1 -8,-5 -11,-3 -8,1 -7,4 9,16 5,-6 11,-2 -2,10 -2,9 12,0 4,-8 7,-4 5,-5 5,1 8,1 4,-2 3,-4 2,-4 6,3 3,-3 7,6 -3,4 -5,1 -5,0 -1,6 -5,0 -8,4 -7,-2 -5,6 -4,8 -12,3 10,7 11,10 2,-9 1,-10 5,-4 9,6 -4,6 -3,7 -1,8 9,6 1,-9 4,-8 5,-8 5,-2 0,-7 -5,-1 -6,-4 5,-4 4,-1 5,0 3,-3 4,1 -6,9 6,0 5,0 4,1 -2,7 -5,0 -5,0 -1,6 7,1 -1,6"/>
    <path style="fill:none;stroke:#000000;stroke-width:1"
          d="m 130,384 -4,4 -5,9 -8,-2 -1,9 9,4 8,3 6,2 3,-10 9,5 9,2 8,1 11,3 10,2 9,2 8,1 -2,-10 -7,-2 -7,-2 -8,-3 -8,-2 -6,-1 -10,-5 -7,0 -10,-5 1,-5 0,-6 4,-5 9,7 8,1 7,2 4,-8 5,-8 7,-4 1,9 -4,7 9,4 -9,8 6,2 8,2 9,-10 12,-4 3,-10 6,2 4,-8 6,-2 10,5 5,-7 6,1 6,1 0,6 -6,7 -9,6 -5,2 -5,2 -10,0 -3,11 -10,-5 -5,10 12,5 11,7 3,-8 3,-8 10,4 6,-3 4,-10 10,2 4,-3 5,-2 1,7 5,-3 5,-2 5,-3 5,1 5,-7 -9,-5 -6,-4 -1,5 -2,5 -4,2 -1,-11 -3,3 -3,4 -4,2 -5,-3 4,-7 1,-5 4,-1 7,1 2,-5 -2,-8 -4,1 -2,5 -7,-2 -4,2 -7,-3 2,-5 5,-2 6,2 1,-6 5,0 2,-5 -6,-8 -2,5 -5,5 -5,0 -5,2 -4,4 -2,-8 4,-4 6,-2 5,0 2,-6 5,-3 -4,-8 -4,3 -4,3 -2,3 -5,3 -6,2 -1,-7 5,-2 1,-6 4,-2 4,-2 6,-2 -1,-8 -5,4 -6,-1 -4,2 -4,-1 0,7 -3,3 -11,0 -6,4 -5,10 8,4 9,-3 2,13 -3,8 -8,-4 -8,4 -5,5 -7,10 -4,7 -10,-5 1,-12 4,-7 8,4 2,-11 7,-5 -9,-5 -9,2 -8,-3 -3,9 -8,6 -2,6 -3,4 -8,2 -5,7 -11,-2 -8,-3 8,-9 4,-3 6,-5 6,-2 4,-3 6,-2 -3,-10 -6,0 -17,2 6,-5 1,-10 2,-11 3,-5 5,-3 2,-6 -7,-2 -2,4 -5,0 -2,4 -3,5 -4,8 -3,-11 -7,1 1,-9 9,3 0,-6 2,-3 5,0 2,-5 -3,-8 4,-2 1,-6 4,-3 2,-5 3,-4 3,-4 1,-5 13,-3 6,-2 4,-8 7,-2 6,-2 10,4 8,3 6,-8 8,0 3,-4 2,-5 1,-6 5,-3 6,0 9,-2 5,-5 4,-1 4,-8 0,-8 6,6 5,-5 1,7 5,-2 10,2 -3,2 -4,4 -5,1 -7,-2 -4,7 9,3 5,-1 7,-1 4,-2 3,-1 6,3 1,6 8,4 -2,4 -2,4 -4,3 -5,4 -1,-6 -7,1 2,-7 7,1 3,-3 -5,-6 -4,3 -5,-2 -3,4 -6,5 -10,-5 0,10 -3,6 -4,5 -3,7 -5,3 -1,7 -1,8 10,2 2,-8 5,-4 5,-3 6,-2 0,-12 9,3 2,12 8,-6 4,-5 2,-5 4,-3 7,-3 5,-1 6,-6 10,3 4,-5 10,1 5,-2 6,0 3,-4 3,-5 6,2 5,-1 2,8 -7,4 8,8 -10,0 -6,-1 -7,-1 -5,3 -3,5 -4,4 -7,-1 -6,-1 -4,7 -6,2 -5,2 -6,3 -9,6 -4,9 -8,-2 -6,0 -7,2 -7,3 -5,6 -7,-1 -6,1 -9,-6 -5,5 -9,-4 -7,-3 8,-11 9,-2 1,-12 4,-9 4,-1 4,-6 5,-6 3,-7 -11,2 -6,2 -6,-1 -2,3 -1,6 -2,4 -2,5 -1,8 -8,-1 -2,10 -9,-3 -11,-6 -11,-1 -6,3 -2,8 -2,6 9,9 3,-8 7,2 3,-7 11,6 -1,11 -3,9 -7,-3 -4,7 -3,7 -1,5 -3,4 -4,1 -3,6 -8,0 -9,-5 2,-5 6,2 4,-1 2,-5 4,-1 4,-3 -14,-4 -2,5 -6,0 -6,-3 1,7 -2,6 -3,7 -2,6 -3,6 9,3 8,-3 4,-1 11,7 3,-6 8,7 -1,-11 6,2 2,-9 5,-2 11,1 -9,-12 8,0 4,-8 2,-9 10,9 7,0 11,2 6,1 5,-2 6,-3 11,0 7,-2 7,-1 7,0 8,1 3,-10 4,-8 9,4 5,-6 7,1 3,-6 3,-7 9,6 4,-1 1,-8 3,-5"/>
    <path style="fill:none;stroke:#000000;stroke-width:1"
          d="m 370,239 3,-6 7,4 7,1 7,0 11,3 6,1 10,3 0,12 -7,2 -10,-6 -8,2 -8,-4 -4,7 -6,-13 -3,6 -1,7 -4,5 -5,3 -3,3 -8,3 -7,3 -5,6 -9,-3 -3,9 6,7 7,1 8,4 3,-10 7,-1 4,-8 5,-3 4,-4 6,-1 4,-4 12,-1 10,-1 11,6 -1,11 -9,-3 -12,-3 -4,9 -10,-1 -7,2 -5,3 -3,8 7,2 -7,6 -5,1 -9,5 -8,-3 -4,7 -7,-14 -4,8 -3,4 -1,9 -4,4 1,11 -6,-1 0,9 -5,6 -7,5 -5,11 5,0 10,1 7,2 2,-10 5,-8 4,-9 3,-9 1,-10 9,6 6,-7 10,0 2,-7 6,-2 6,-4 7,-8 6,1 5,-6 9,-5 8,3 8,-1 8,-5 1,-9 1,-8 3,-3 9,3 -1,8 -4,5 -1,8 -4,7 -4,4 -4,5 -4,3 -3,7 -9,-13 -5,6 -4,7 -10,-2 -4,7 -7,5 -6,-1 -5,5 -3,4 -5,4 -9,3 -4,6 -4,7 -3,10 -4,5 0,12 -6,3 -8,-2 -6,0 -4,8 12,9 7,0 -10,9 -10,-7 -8,-3 -8,0 -7,1 -7,1 -10,0 -6,3 -3,9 -5,4 -9,-5 -3,8 12,10 9,5 5,29 -3,4 0,9 3,16 1,7 2,9 -3,4 6,8 0,7 4,10 5,-3 4,-3 5,-2 1,8 5,1 -1,7 -5,2 -7,-1 7,9 8,0 2,-7 2,-6 5,-1 6,3 -5,4 0,6 -4,2 -5,8 7,2 5,-2 6,13"/>
  </g>
</svg>
